<?xml version="1.0" encoding="utf-8"?>
<svg xmlns="http://www.w3.org/2000/svg" xmlns:xlink="http://www.w3.org/1999/xlink" width="600" height="400" viewBox="0 0 2400 1600">
<defs>
  <clipPath id="clip260">
    <rect x="0" y="0" width="2400" height="1600"/>
  </clipPath>
</defs>
<path clip-path="url(#clip260)" d="M0 1600 L2400 1600 L2400 0 L0 0  Z" fill="#ffffff" fill-rule="evenodd" fill-opacity="1"/>
<defs>
  <clipPath id="clip261">
    <rect x="480" y="0" width="1681" height="1600"/>
  </clipPath>
</defs>
<path clip-path="url(#clip260)" d="M279.704 1423.18 L2352.76 1423.18 L2352.76 47.2441 L279.704 47.2441  Z" fill="#ffffff" fill-rule="evenodd" fill-opacity="1"/>
<defs>
  <clipPath id="clip262">
    <rect x="279" y="47" width="2074" height="1377"/>
  </clipPath>
</defs>
<polyline clip-path="url(#clip262)" style="stroke:#000000; stroke-linecap:round; stroke-linejoin:round; stroke-width:2; stroke-opacity:0.1; fill:none" points="664.327,1423.18 664.327,47.2441 "/>
<polyline clip-path="url(#clip262)" style="stroke:#000000; stroke-linecap:round; stroke-linejoin:round; stroke-width:2; stroke-opacity:0.1; fill:none" points="1071.77,1423.18 1071.77,47.2441 "/>
<polyline clip-path="url(#clip262)" style="stroke:#000000; stroke-linecap:round; stroke-linejoin:round; stroke-width:2; stroke-opacity:0.1; fill:none" points="1479.21,1423.18 1479.21,47.2441 "/>
<polyline clip-path="url(#clip262)" style="stroke:#000000; stroke-linecap:round; stroke-linejoin:round; stroke-width:2; stroke-opacity:0.1; fill:none" points="1886.65,1423.18 1886.65,47.2441 "/>
<polyline clip-path="url(#clip262)" style="stroke:#000000; stroke-linecap:round; stroke-linejoin:round; stroke-width:2; stroke-opacity:0.1; fill:none" points="2294.08,1423.18 2294.08,47.2441 "/>
<polyline clip-path="url(#clip260)" style="stroke:#000000; stroke-linecap:round; stroke-linejoin:round; stroke-width:4; stroke-opacity:1; fill:none" points="279.704,1423.18 2352.76,1423.18 "/>
<polyline clip-path="url(#clip260)" style="stroke:#000000; stroke-linecap:round; stroke-linejoin:round; stroke-width:4; stroke-opacity:1; fill:none" points="664.327,1423.18 664.327,1404.28 "/>
<polyline clip-path="url(#clip260)" style="stroke:#000000; stroke-linecap:round; stroke-linejoin:round; stroke-width:4; stroke-opacity:1; fill:none" points="1071.77,1423.18 1071.77,1404.28 "/>
<polyline clip-path="url(#clip260)" style="stroke:#000000; stroke-linecap:round; stroke-linejoin:round; stroke-width:4; stroke-opacity:1; fill:none" points="1479.21,1423.18 1479.21,1404.28 "/>
<polyline clip-path="url(#clip260)" style="stroke:#000000; stroke-linecap:round; stroke-linejoin:round; stroke-width:4; stroke-opacity:1; fill:none" points="1886.65,1423.18 1886.65,1404.28 "/>
<polyline clip-path="url(#clip260)" style="stroke:#000000; stroke-linecap:round; stroke-linejoin:round; stroke-width:4; stroke-opacity:1; fill:none" points="2294.08,1423.18 2294.08,1404.28 "/>
<path clip-path="url(#clip260)" d="M623.945 1451.02 L642.301 1451.02 L642.301 1454.96 L628.227 1454.96 L628.227 1463.43 Q629.246 1463.08 630.264 1462.92 Q631.283 1462.73 632.301 1462.73 Q638.088 1462.73 641.468 1465.9 Q644.848 1469.08 644.848 1474.49 Q644.848 1480.07 641.375 1483.17 Q637.903 1486.25 631.584 1486.25 Q629.408 1486.25 627.139 1485.88 Q624.894 1485.51 622.487 1484.77 L622.487 1480.07 Q624.57 1481.2 626.792 1481.76 Q629.014 1482.32 631.491 1482.32 Q635.496 1482.32 637.834 1480.21 Q640.172 1478.1 640.172 1474.49 Q640.172 1470.88 637.834 1468.77 Q635.496 1466.67 631.491 1466.67 Q629.616 1466.67 627.741 1467.08 Q625.889 1467.5 623.945 1468.38 L623.945 1451.02 Z" fill="#000000" fill-rule="nonzero" fill-opacity="1" /><path clip-path="url(#clip260)" d="M664.061 1454.1 Q660.449 1454.1 658.621 1457.66 Q656.815 1461.2 656.815 1468.33 Q656.815 1475.44 658.621 1479.01 Q660.449 1482.55 664.061 1482.55 Q667.695 1482.55 669.5 1479.01 Q671.329 1475.44 671.329 1468.33 Q671.329 1461.2 669.5 1457.66 Q667.695 1454.1 664.061 1454.1 M664.061 1450.39 Q669.871 1450.39 672.926 1455 Q676.005 1459.58 676.005 1468.33 Q676.005 1477.06 672.926 1481.67 Q669.871 1486.25 664.061 1486.25 Q658.25 1486.25 655.172 1481.67 Q652.116 1477.06 652.116 1468.33 Q652.116 1459.58 655.172 1455 Q658.25 1450.39 664.061 1450.39 Z" fill="#000000" fill-rule="nonzero" fill-opacity="1" /><path clip-path="url(#clip260)" d="M694.222 1454.1 Q690.611 1454.1 688.783 1457.66 Q686.977 1461.2 686.977 1468.33 Q686.977 1475.44 688.783 1479.01 Q690.611 1482.55 694.222 1482.55 Q697.857 1482.55 699.662 1479.01 Q701.491 1475.44 701.491 1468.33 Q701.491 1461.2 699.662 1457.66 Q697.857 1454.1 694.222 1454.1 M694.222 1450.39 Q700.033 1450.39 703.088 1455 Q706.167 1459.58 706.167 1468.33 Q706.167 1477.06 703.088 1481.67 Q700.033 1486.25 694.222 1486.25 Q688.412 1486.25 685.334 1481.67 Q682.278 1477.06 682.278 1468.33 Q682.278 1459.58 685.334 1455 Q688.412 1450.39 694.222 1450.39 Z" fill="#000000" fill-rule="nonzero" fill-opacity="1" /><path clip-path="url(#clip260)" d="M1016.29 1481.64 L1023.93 1481.64 L1023.93 1455.28 L1015.62 1456.95 L1015.62 1452.69 L1023.88 1451.02 L1028.56 1451.02 L1028.56 1481.64 L1036.2 1481.64 L1036.2 1485.58 L1016.29 1485.58 L1016.29 1481.64 Z" fill="#000000" fill-rule="nonzero" fill-opacity="1" /><path clip-path="url(#clip260)" d="M1055.64 1454.1 Q1052.03 1454.1 1050.2 1457.66 Q1048.4 1461.2 1048.4 1468.33 Q1048.4 1475.44 1050.2 1479.01 Q1052.03 1482.55 1055.64 1482.55 Q1059.28 1482.55 1061.08 1479.01 Q1062.91 1475.44 1062.91 1468.33 Q1062.91 1461.2 1061.08 1457.66 Q1059.28 1454.1 1055.64 1454.1 M1055.64 1450.39 Q1061.45 1450.39 1064.51 1455 Q1067.59 1459.58 1067.59 1468.33 Q1067.59 1477.06 1064.51 1481.67 Q1061.45 1486.25 1055.64 1486.25 Q1049.83 1486.25 1046.75 1481.67 Q1043.7 1477.06 1043.7 1468.33 Q1043.7 1459.58 1046.75 1455 Q1049.83 1450.39 1055.64 1450.39 Z" fill="#000000" fill-rule="nonzero" fill-opacity="1" /><path clip-path="url(#clip260)" d="M1085.81 1454.1 Q1082.19 1454.1 1080.37 1457.66 Q1078.56 1461.2 1078.56 1468.33 Q1078.56 1475.44 1080.37 1479.01 Q1082.19 1482.55 1085.81 1482.55 Q1089.44 1482.55 1091.25 1479.01 Q1093.07 1475.44 1093.07 1468.33 Q1093.07 1461.2 1091.25 1457.66 Q1089.44 1454.1 1085.81 1454.1 M1085.81 1450.39 Q1091.62 1450.39 1094.67 1455 Q1097.75 1459.58 1097.75 1468.33 Q1097.75 1477.06 1094.67 1481.67 Q1091.62 1486.25 1085.81 1486.25 Q1080 1486.25 1076.92 1481.67 Q1073.86 1477.06 1073.86 1468.33 Q1073.86 1459.58 1076.92 1455 Q1080 1450.39 1085.81 1450.39 Z" fill="#000000" fill-rule="nonzero" fill-opacity="1" /><path clip-path="url(#clip260)" d="M1115.97 1454.1 Q1112.36 1454.1 1110.53 1457.66 Q1108.72 1461.2 1108.72 1468.33 Q1108.72 1475.44 1110.53 1479.01 Q1112.36 1482.55 1115.97 1482.55 Q1119.6 1482.55 1121.41 1479.01 Q1123.24 1475.44 1123.24 1468.33 Q1123.24 1461.2 1121.41 1457.66 Q1119.6 1454.1 1115.97 1454.1 M1115.97 1450.39 Q1121.78 1450.39 1124.83 1455 Q1127.91 1459.58 1127.91 1468.33 Q1127.91 1477.06 1124.83 1481.67 Q1121.78 1486.25 1115.97 1486.25 Q1110.16 1486.25 1107.08 1481.67 Q1104.02 1477.06 1104.02 1468.33 Q1104.02 1459.58 1107.08 1455 Q1110.16 1450.39 1115.97 1450.39 Z" fill="#000000" fill-rule="nonzero" fill-opacity="1" /><path clip-path="url(#clip260)" d="M1423.73 1481.64 L1431.37 1481.64 L1431.37 1455.28 L1423.06 1456.95 L1423.06 1452.69 L1431.32 1451.02 L1436 1451.02 L1436 1481.64 L1443.64 1481.64 L1443.64 1485.58 L1423.73 1485.58 L1423.73 1481.64 Z" fill="#000000" fill-rule="nonzero" fill-opacity="1" /><path clip-path="url(#clip260)" d="M1453.13 1451.02 L1471.49 1451.02 L1471.49 1454.96 L1457.41 1454.96 L1457.41 1463.43 Q1458.43 1463.08 1459.45 1462.92 Q1460.47 1462.73 1461.49 1462.73 Q1467.27 1462.73 1470.65 1465.9 Q1474.03 1469.08 1474.03 1474.49 Q1474.03 1480.07 1470.56 1483.17 Q1467.09 1486.25 1460.77 1486.25 Q1458.59 1486.25 1456.32 1485.88 Q1454.08 1485.51 1451.67 1484.77 L1451.67 1480.07 Q1453.75 1481.2 1455.98 1481.76 Q1458.2 1482.32 1460.68 1482.32 Q1464.68 1482.32 1467.02 1480.21 Q1469.36 1478.1 1469.36 1474.49 Q1469.36 1470.88 1467.02 1468.77 Q1464.68 1466.67 1460.68 1466.67 Q1458.8 1466.67 1456.93 1467.08 Q1455.07 1467.5 1453.13 1468.38 L1453.13 1451.02 Z" fill="#000000" fill-rule="nonzero" fill-opacity="1" /><path clip-path="url(#clip260)" d="M1493.24 1454.1 Q1489.63 1454.1 1487.81 1457.66 Q1486 1461.2 1486 1468.33 Q1486 1475.44 1487.81 1479.01 Q1489.63 1482.55 1493.24 1482.55 Q1496.88 1482.55 1498.68 1479.01 Q1500.51 1475.44 1500.51 1468.33 Q1500.51 1461.2 1498.68 1457.66 Q1496.88 1454.1 1493.24 1454.1 M1493.24 1450.39 Q1499.06 1450.39 1502.11 1455 Q1505.19 1459.58 1505.19 1468.33 Q1505.19 1477.06 1502.11 1481.67 Q1499.06 1486.25 1493.24 1486.25 Q1487.43 1486.25 1484.36 1481.67 Q1481.3 1477.06 1481.3 1468.33 Q1481.3 1459.58 1484.36 1455 Q1487.43 1450.39 1493.24 1450.39 Z" fill="#000000" fill-rule="nonzero" fill-opacity="1" /><path clip-path="url(#clip260)" d="M1523.41 1454.1 Q1519.8 1454.1 1517.97 1457.66 Q1516.16 1461.2 1516.16 1468.33 Q1516.16 1475.44 1517.97 1479.01 Q1519.8 1482.55 1523.41 1482.55 Q1527.04 1482.55 1528.85 1479.01 Q1530.68 1475.44 1530.68 1468.33 Q1530.68 1461.2 1528.85 1457.66 Q1527.04 1454.1 1523.41 1454.1 M1523.41 1450.39 Q1529.22 1450.39 1532.27 1455 Q1535.35 1459.58 1535.35 1468.33 Q1535.35 1477.06 1532.27 1481.67 Q1529.22 1486.25 1523.41 1486.25 Q1517.6 1486.25 1514.52 1481.67 Q1511.46 1477.06 1511.46 1468.33 Q1511.46 1459.58 1514.52 1455 Q1517.6 1450.39 1523.41 1450.39 Z" fill="#000000" fill-rule="nonzero" fill-opacity="1" /><path clip-path="url(#clip260)" d="M1835.26 1481.64 L1851.58 1481.64 L1851.58 1485.58 L1829.63 1485.58 L1829.63 1481.64 Q1832.29 1478.89 1836.88 1474.26 Q1841.48 1469.61 1842.66 1468.27 Q1844.91 1465.74 1845.79 1464.01 Q1846.69 1462.25 1846.69 1460.56 Q1846.69 1457.8 1844.75 1456.07 Q1842.83 1454.33 1839.72 1454.33 Q1837.53 1454.33 1835.07 1455.09 Q1832.64 1455.86 1829.86 1457.41 L1829.86 1452.69 Q1832.69 1451.55 1835.14 1450.97 Q1837.59 1450.39 1839.63 1450.39 Q1845 1450.39 1848.2 1453.08 Q1851.39 1455.77 1851.39 1460.26 Q1851.39 1462.39 1850.58 1464.31 Q1849.79 1466.2 1847.69 1468.8 Q1847.11 1469.47 1844.01 1472.69 Q1840.9 1475.88 1835.26 1481.64 Z" fill="#000000" fill-rule="nonzero" fill-opacity="1" /><path clip-path="url(#clip260)" d="M1871.39 1454.1 Q1867.78 1454.1 1865.95 1457.66 Q1864.15 1461.2 1864.15 1468.33 Q1864.15 1475.44 1865.95 1479.01 Q1867.78 1482.55 1871.39 1482.55 Q1875.02 1482.55 1876.83 1479.01 Q1878.66 1475.44 1878.66 1468.33 Q1878.66 1461.2 1876.83 1457.66 Q1875.02 1454.1 1871.39 1454.1 M1871.39 1450.39 Q1877.2 1450.39 1880.26 1455 Q1883.33 1459.58 1883.33 1468.33 Q1883.33 1477.06 1880.26 1481.67 Q1877.2 1486.25 1871.39 1486.25 Q1865.58 1486.25 1862.5 1481.67 Q1859.45 1477.06 1859.45 1468.33 Q1859.45 1459.58 1862.5 1455 Q1865.58 1450.39 1871.39 1450.39 Z" fill="#000000" fill-rule="nonzero" fill-opacity="1" /><path clip-path="url(#clip260)" d="M1901.55 1454.1 Q1897.94 1454.1 1896.11 1457.66 Q1894.31 1461.2 1894.31 1468.33 Q1894.31 1475.44 1896.11 1479.01 Q1897.94 1482.55 1901.55 1482.55 Q1905.19 1482.55 1906.99 1479.01 Q1908.82 1475.44 1908.82 1468.33 Q1908.82 1461.2 1906.99 1457.66 Q1905.19 1454.1 1901.55 1454.1 M1901.55 1450.39 Q1907.36 1450.39 1910.42 1455 Q1913.5 1459.58 1913.5 1468.33 Q1913.5 1477.06 1910.42 1481.67 Q1907.36 1486.25 1901.55 1486.25 Q1895.74 1486.25 1892.66 1481.67 Q1889.61 1477.06 1889.61 1468.33 Q1889.61 1459.58 1892.66 1455 Q1895.74 1450.39 1901.55 1450.39 Z" fill="#000000" fill-rule="nonzero" fill-opacity="1" /><path clip-path="url(#clip260)" d="M1931.71 1454.1 Q1928.1 1454.1 1926.27 1457.66 Q1924.47 1461.2 1924.47 1468.33 Q1924.47 1475.44 1926.27 1479.01 Q1928.1 1482.55 1931.71 1482.55 Q1935.35 1482.55 1937.15 1479.01 Q1938.98 1475.44 1938.98 1468.33 Q1938.98 1461.2 1937.15 1457.66 Q1935.35 1454.1 1931.71 1454.1 M1931.71 1450.39 Q1937.52 1450.39 1940.58 1455 Q1943.66 1459.58 1943.66 1468.33 Q1943.66 1477.06 1940.58 1481.67 Q1937.52 1486.25 1931.71 1486.25 Q1925.9 1486.25 1922.83 1481.67 Q1919.77 1477.06 1919.77 1468.33 Q1919.77 1459.58 1922.83 1455 Q1925.9 1450.39 1931.71 1450.39 Z" fill="#000000" fill-rule="nonzero" fill-opacity="1" /><path clip-path="url(#clip260)" d="M2242.7 1481.64 L2259.02 1481.64 L2259.02 1485.58 L2237.07 1485.58 L2237.07 1481.64 Q2239.73 1478.89 2244.32 1474.26 Q2248.92 1469.61 2250.1 1468.27 Q2252.35 1465.74 2253.23 1464.01 Q2254.13 1462.25 2254.13 1460.56 Q2254.13 1457.8 2252.19 1456.07 Q2250.27 1454.33 2247.16 1454.33 Q2244.96 1454.33 2242.51 1455.09 Q2240.08 1455.86 2237.3 1457.41 L2237.3 1452.69 Q2240.13 1451.55 2242.58 1450.97 Q2245.03 1450.39 2247.07 1450.39 Q2252.44 1450.39 2255.64 1453.08 Q2258.83 1455.77 2258.83 1460.26 Q2258.83 1462.39 2258.02 1464.31 Q2257.23 1466.2 2255.13 1468.8 Q2254.55 1469.47 2251.45 1472.69 Q2248.34 1475.88 2242.7 1481.64 Z" fill="#000000" fill-rule="nonzero" fill-opacity="1" /><path clip-path="url(#clip260)" d="M2268.88 1451.02 L2287.23 1451.02 L2287.23 1454.96 L2273.16 1454.96 L2273.16 1463.43 Q2274.18 1463.08 2275.2 1462.92 Q2276.21 1462.73 2277.23 1462.73 Q2283.02 1462.73 2286.4 1465.9 Q2289.78 1469.08 2289.78 1474.49 Q2289.78 1480.07 2286.31 1483.17 Q2282.83 1486.25 2276.52 1486.25 Q2274.34 1486.25 2272.07 1485.88 Q2269.83 1485.51 2267.42 1484.77 L2267.42 1480.07 Q2269.5 1481.2 2271.72 1481.76 Q2273.95 1482.32 2276.42 1482.32 Q2280.43 1482.32 2282.77 1480.21 Q2285.1 1478.1 2285.1 1474.49 Q2285.1 1470.88 2282.77 1468.77 Q2280.43 1466.67 2276.42 1466.67 Q2274.55 1466.67 2272.67 1467.08 Q2270.82 1467.5 2268.88 1468.38 L2268.88 1451.02 Z" fill="#000000" fill-rule="nonzero" fill-opacity="1" /><path clip-path="url(#clip260)" d="M2308.99 1454.1 Q2305.38 1454.1 2303.55 1457.66 Q2301.75 1461.2 2301.75 1468.33 Q2301.75 1475.44 2303.55 1479.01 Q2305.38 1482.55 2308.99 1482.55 Q2312.63 1482.55 2314.43 1479.01 Q2316.26 1475.44 2316.26 1468.33 Q2316.26 1461.2 2314.43 1457.66 Q2312.63 1454.1 2308.99 1454.1 M2308.99 1450.39 Q2314.8 1450.39 2317.86 1455 Q2320.94 1459.58 2320.94 1468.33 Q2320.94 1477.06 2317.86 1481.67 Q2314.8 1486.25 2308.99 1486.25 Q2303.18 1486.25 2300.1 1481.67 Q2297.05 1477.06 2297.05 1468.33 Q2297.05 1459.58 2300.1 1455 Q2303.18 1450.39 2308.99 1450.39 Z" fill="#000000" fill-rule="nonzero" fill-opacity="1" /><path clip-path="url(#clip260)" d="M2339.15 1454.1 Q2335.54 1454.1 2333.71 1457.66 Q2331.91 1461.2 2331.91 1468.33 Q2331.91 1475.44 2333.71 1479.01 Q2335.54 1482.55 2339.15 1482.55 Q2342.79 1482.55 2344.59 1479.01 Q2346.42 1475.44 2346.42 1468.33 Q2346.42 1461.2 2344.59 1457.66 Q2342.79 1454.1 2339.15 1454.1 M2339.15 1450.39 Q2344.96 1450.39 2348.02 1455 Q2351.1 1459.58 2351.1 1468.33 Q2351.1 1477.06 2348.02 1481.67 Q2344.96 1486.25 2339.15 1486.25 Q2333.34 1486.25 2330.26 1481.67 Q2327.21 1477.06 2327.21 1468.33 Q2327.21 1459.58 2330.26 1455 Q2333.34 1450.39 2339.15 1450.39 Z" fill="#000000" fill-rule="nonzero" fill-opacity="1" /><path clip-path="url(#clip260)" d="M1331.16 1546.53 L1331.16 1568.04 L1325.3 1568.04 L1325.3 1546.72 Q1325.3 1541.66 1323.33 1539.14 Q1321.35 1536.63 1317.41 1536.63 Q1312.67 1536.63 1309.93 1539.65 Q1307.19 1542.68 1307.19 1547.9 L1307.19 1568.04 L1301.3 1568.04 L1301.3 1532.4 L1307.19 1532.4 L1307.19 1537.93 Q1309.29 1534.72 1312.12 1533.13 Q1314.99 1531.54 1318.71 1531.54 Q1324.86 1531.54 1328.01 1535.36 Q1331.16 1539.14 1331.16 1546.53 Z" fill="#000000" fill-rule="nonzero" fill-opacity="1" /><polyline clip-path="url(#clip262)" style="stroke:#000000; stroke-linecap:round; stroke-linejoin:round; stroke-width:2; stroke-opacity:0.1; fill:none" points="279.704,1423.18 2352.76,1423.18 "/>
<polyline clip-path="url(#clip262)" style="stroke:#000000; stroke-linecap:round; stroke-linejoin:round; stroke-width:2; stroke-opacity:0.1; fill:none" points="279.704,1079.2 2352.76,1079.2 "/>
<polyline clip-path="url(#clip262)" style="stroke:#000000; stroke-linecap:round; stroke-linejoin:round; stroke-width:2; stroke-opacity:0.1; fill:none" points="279.704,735.212 2352.76,735.212 "/>
<polyline clip-path="url(#clip262)" style="stroke:#000000; stroke-linecap:round; stroke-linejoin:round; stroke-width:2; stroke-opacity:0.1; fill:none" points="279.704,391.228 2352.76,391.228 "/>
<polyline clip-path="url(#clip262)" style="stroke:#000000; stroke-linecap:round; stroke-linejoin:round; stroke-width:2; stroke-opacity:0.1; fill:none" points="279.704,47.2441 2352.76,47.2441 "/>
<polyline clip-path="url(#clip260)" style="stroke:#000000; stroke-linecap:round; stroke-linejoin:round; stroke-width:4; stroke-opacity:1; fill:none" points="279.704,1423.18 279.704,47.2441 "/>
<polyline clip-path="url(#clip260)" style="stroke:#000000; stroke-linecap:round; stroke-linejoin:round; stroke-width:4; stroke-opacity:1; fill:none" points="279.704,1423.18 298.602,1423.18 "/>
<polyline clip-path="url(#clip260)" style="stroke:#000000; stroke-linecap:round; stroke-linejoin:round; stroke-width:4; stroke-opacity:1; fill:none" points="279.704,1079.2 298.602,1079.2 "/>
<polyline clip-path="url(#clip260)" style="stroke:#000000; stroke-linecap:round; stroke-linejoin:round; stroke-width:4; stroke-opacity:1; fill:none" points="279.704,735.212 298.602,735.212 "/>
<polyline clip-path="url(#clip260)" style="stroke:#000000; stroke-linecap:round; stroke-linejoin:round; stroke-width:4; stroke-opacity:1; fill:none" points="279.704,391.228 298.602,391.228 "/>
<polyline clip-path="url(#clip260)" style="stroke:#000000; stroke-linecap:round; stroke-linejoin:round; stroke-width:4; stroke-opacity:1; fill:none" points="279.704,47.2441 298.602,47.2441 "/>
<path clip-path="url(#clip260)" d="M126.205 1408.98 Q122.593 1408.98 120.765 1412.54 Q118.959 1416.08 118.959 1423.21 Q118.959 1430.32 120.765 1433.89 Q122.593 1437.43 126.205 1437.43 Q129.839 1437.43 131.644 1433.89 Q133.473 1430.32 133.473 1423.21 Q133.473 1416.08 131.644 1412.54 Q129.839 1408.98 126.205 1408.98 M126.205 1405.27 Q132.015 1405.27 135.07 1409.88 Q138.149 1414.46 138.149 1423.21 Q138.149 1431.94 135.07 1436.55 Q132.015 1441.13 126.205 1441.13 Q120.394 1441.13 117.316 1436.55 Q114.26 1431.94 114.26 1423.21 Q114.26 1414.46 117.316 1409.88 Q120.394 1405.27 126.205 1405.27 Z" fill="#000000" fill-rule="nonzero" fill-opacity="1" /><path clip-path="url(#clip260)" d="M146.366 1434.58 L151.251 1434.58 L151.251 1440.46 L146.366 1440.46 L146.366 1434.58 Z" fill="#000000" fill-rule="nonzero" fill-opacity="1" /><path clip-path="url(#clip260)" d="M171.436 1408.98 Q167.825 1408.98 165.996 1412.54 Q164.19 1416.08 164.19 1423.21 Q164.19 1430.32 165.996 1433.89 Q167.825 1437.43 171.436 1437.43 Q175.07 1437.43 176.876 1433.89 Q178.704 1430.32 178.704 1423.21 Q178.704 1416.08 176.876 1412.54 Q175.07 1408.98 171.436 1408.98 M171.436 1405.27 Q177.246 1405.27 180.301 1409.88 Q183.38 1414.46 183.38 1423.21 Q183.38 1431.94 180.301 1436.55 Q177.246 1441.13 171.436 1441.13 Q165.626 1441.13 162.547 1436.55 Q159.491 1431.94 159.491 1423.21 Q159.491 1414.46 162.547 1409.88 Q165.626 1405.27 171.436 1405.27 Z" fill="#000000" fill-rule="nonzero" fill-opacity="1" /><path clip-path="url(#clip260)" d="M201.598 1408.98 Q197.987 1408.98 196.158 1412.54 Q194.352 1416.08 194.352 1423.21 Q194.352 1430.32 196.158 1433.89 Q197.987 1437.43 201.598 1437.43 Q205.232 1437.43 207.037 1433.89 Q208.866 1430.32 208.866 1423.21 Q208.866 1416.08 207.037 1412.54 Q205.232 1408.98 201.598 1408.98 M201.598 1405.27 Q207.408 1405.27 210.463 1409.88 Q213.542 1414.46 213.542 1423.21 Q213.542 1431.94 210.463 1436.55 Q207.408 1441.13 201.598 1441.13 Q195.787 1441.13 192.709 1436.55 Q189.653 1431.94 189.653 1423.21 Q189.653 1414.46 192.709 1409.88 Q195.787 1405.27 201.598 1405.27 Z" fill="#000000" fill-rule="nonzero" fill-opacity="1" /><path clip-path="url(#clip260)" d="M231.76 1408.98 Q228.148 1408.98 226.32 1412.54 Q224.514 1416.08 224.514 1423.21 Q224.514 1430.32 226.32 1433.89 Q228.148 1437.43 231.76 1437.43 Q235.394 1437.43 237.199 1433.89 Q239.028 1430.32 239.028 1423.21 Q239.028 1416.08 237.199 1412.54 Q235.394 1408.98 231.76 1408.98 M231.76 1405.27 Q237.57 1405.27 240.625 1409.88 Q243.704 1414.46 243.704 1423.21 Q243.704 1431.94 240.625 1436.55 Q237.57 1441.13 231.76 1441.13 Q225.949 1441.13 222.871 1436.55 Q219.815 1431.94 219.815 1423.21 Q219.815 1414.46 222.871 1409.88 Q225.949 1405.27 231.76 1405.27 Z" fill="#000000" fill-rule="nonzero" fill-opacity="1" /><path clip-path="url(#clip260)" d="M127.2 1064.99 Q123.589 1064.99 121.76 1068.56 Q119.955 1072.1 119.955 1079.23 Q119.955 1086.34 121.76 1089.9 Q123.589 1093.44 127.2 1093.44 Q130.834 1093.44 132.64 1089.9 Q134.468 1086.34 134.468 1079.23 Q134.468 1072.1 132.64 1068.56 Q130.834 1064.99 127.2 1064.99 M127.2 1061.29 Q133.01 1061.29 136.066 1065.9 Q139.144 1070.48 139.144 1079.23 Q139.144 1087.96 136.066 1092.56 Q133.01 1097.15 127.2 1097.15 Q121.39 1097.15 118.311 1092.56 Q115.256 1087.96 115.256 1079.23 Q115.256 1070.48 118.311 1065.9 Q121.39 1061.29 127.2 1061.29 Z" fill="#000000" fill-rule="nonzero" fill-opacity="1" /><path clip-path="url(#clip260)" d="M147.362 1090.6 L152.246 1090.6 L152.246 1096.48 L147.362 1096.48 L147.362 1090.6 Z" fill="#000000" fill-rule="nonzero" fill-opacity="1" /><path clip-path="url(#clip260)" d="M172.431 1064.99 Q168.82 1064.99 166.991 1068.56 Q165.186 1072.1 165.186 1079.23 Q165.186 1086.34 166.991 1089.9 Q168.82 1093.44 172.431 1093.44 Q176.065 1093.44 177.871 1089.9 Q179.7 1086.34 179.7 1079.23 Q179.7 1072.1 177.871 1068.56 Q176.065 1064.99 172.431 1064.99 M172.431 1061.29 Q178.241 1061.29 181.297 1065.9 Q184.376 1070.48 184.376 1079.23 Q184.376 1087.96 181.297 1092.56 Q178.241 1097.15 172.431 1097.15 Q166.621 1097.15 163.542 1092.56 Q160.487 1087.96 160.487 1079.23 Q160.487 1070.48 163.542 1065.9 Q166.621 1061.29 172.431 1061.29 Z" fill="#000000" fill-rule="nonzero" fill-opacity="1" /><path clip-path="url(#clip260)" d="M202.593 1064.99 Q198.982 1064.99 197.153 1068.56 Q195.348 1072.1 195.348 1079.23 Q195.348 1086.34 197.153 1089.9 Q198.982 1093.44 202.593 1093.44 Q206.227 1093.44 208.033 1089.9 Q209.861 1086.34 209.861 1079.23 Q209.861 1072.1 208.033 1068.56 Q206.227 1064.99 202.593 1064.99 M202.593 1061.29 Q208.403 1061.29 211.459 1065.9 Q214.537 1070.48 214.537 1079.23 Q214.537 1087.96 211.459 1092.56 Q208.403 1097.15 202.593 1097.15 Q196.783 1097.15 193.704 1092.56 Q190.649 1087.96 190.649 1079.23 Q190.649 1070.48 193.704 1065.9 Q196.783 1061.29 202.593 1061.29 Z" fill="#000000" fill-rule="nonzero" fill-opacity="1" /><path clip-path="url(#clip260)" d="M222.801 1061.92 L241.158 1061.92 L241.158 1065.85 L227.084 1065.85 L227.084 1074.32 Q228.102 1073.98 229.121 1073.81 Q230.139 1073.63 231.158 1073.63 Q236.945 1073.63 240.324 1076.8 Q243.704 1079.97 243.704 1085.39 Q243.704 1090.97 240.232 1094.07 Q236.76 1097.15 230.44 1097.15 Q228.264 1097.15 225.996 1096.78 Q223.75 1096.41 221.343 1095.67 L221.343 1090.97 Q223.426 1092.1 225.648 1092.66 Q227.871 1093.21 230.347 1093.21 Q234.352 1093.21 236.69 1091.11 Q239.028 1089 239.028 1085.39 Q239.028 1081.78 236.69 1079.67 Q234.352 1077.56 230.347 1077.56 Q228.473 1077.56 226.598 1077.98 Q224.746 1078.4 222.801 1079.28 L222.801 1061.92 Z" fill="#000000" fill-rule="nonzero" fill-opacity="1" /><path clip-path="url(#clip260)" d="M126.205 721.011 Q122.593 721.011 120.765 724.575 Q118.959 728.117 118.959 735.247 Q118.959 742.353 120.765 745.918 Q122.593 749.46 126.205 749.46 Q129.839 749.46 131.644 745.918 Q133.473 742.353 133.473 735.247 Q133.473 728.117 131.644 724.575 Q129.839 721.011 126.205 721.011 M126.205 717.307 Q132.015 717.307 135.07 721.913 Q138.149 726.497 138.149 735.247 Q138.149 743.973 135.07 748.58 Q132.015 753.163 126.205 753.163 Q120.394 753.163 117.316 748.58 Q114.26 743.973 114.26 735.247 Q114.26 726.497 117.316 721.913 Q120.394 717.307 126.205 717.307 Z" fill="#000000" fill-rule="nonzero" fill-opacity="1" /><path clip-path="url(#clip260)" d="M146.366 746.612 L151.251 746.612 L151.251 752.492 L146.366 752.492 L146.366 746.612 Z" fill="#000000" fill-rule="nonzero" fill-opacity="1" /><path clip-path="url(#clip260)" d="M171.436 721.011 Q167.825 721.011 165.996 724.575 Q164.19 728.117 164.19 735.247 Q164.19 742.353 165.996 745.918 Q167.825 749.46 171.436 749.46 Q175.07 749.46 176.876 745.918 Q178.704 742.353 178.704 735.247 Q178.704 728.117 176.876 724.575 Q175.07 721.011 171.436 721.011 M171.436 717.307 Q177.246 717.307 180.301 721.913 Q183.38 726.497 183.38 735.247 Q183.38 743.973 180.301 748.58 Q177.246 753.163 171.436 753.163 Q165.626 753.163 162.547 748.58 Q159.491 743.973 159.491 735.247 Q159.491 726.497 162.547 721.913 Q165.626 717.307 171.436 717.307 Z" fill="#000000" fill-rule="nonzero" fill-opacity="1" /><path clip-path="url(#clip260)" d="M192.408 748.557 L200.047 748.557 L200.047 722.191 L191.737 723.858 L191.737 719.599 L200 717.932 L204.676 717.932 L204.676 748.557 L212.315 748.557 L212.315 752.492 L192.408 752.492 L192.408 748.557 Z" fill="#000000" fill-rule="nonzero" fill-opacity="1" /><path clip-path="url(#clip260)" d="M231.76 721.011 Q228.148 721.011 226.32 724.575 Q224.514 728.117 224.514 735.247 Q224.514 742.353 226.32 745.918 Q228.148 749.46 231.76 749.46 Q235.394 749.46 237.199 745.918 Q239.028 742.353 239.028 735.247 Q239.028 728.117 237.199 724.575 Q235.394 721.011 231.76 721.011 M231.76 717.307 Q237.57 717.307 240.625 721.913 Q243.704 726.497 243.704 735.247 Q243.704 743.973 240.625 748.58 Q237.57 753.163 231.76 753.163 Q225.949 753.163 222.871 748.58 Q219.815 743.973 219.815 735.247 Q219.815 726.497 222.871 721.913 Q225.949 717.307 231.76 717.307 Z" fill="#000000" fill-rule="nonzero" fill-opacity="1" /><path clip-path="url(#clip260)" d="M127.2 377.027 Q123.589 377.027 121.76 380.592 Q119.955 384.133 119.955 391.263 Q119.955 398.369 121.76 401.934 Q123.589 405.476 127.2 405.476 Q130.834 405.476 132.64 401.934 Q134.468 398.369 134.468 391.263 Q134.468 384.133 132.64 380.592 Q130.834 377.027 127.2 377.027 M127.2 373.323 Q133.01 373.323 136.066 377.929 Q139.144 382.513 139.144 391.263 Q139.144 399.99 136.066 404.596 Q133.01 409.179 127.2 409.179 Q121.39 409.179 118.311 404.596 Q115.256 399.99 115.256 391.263 Q115.256 382.513 118.311 377.929 Q121.39 373.323 127.2 373.323 Z" fill="#000000" fill-rule="nonzero" fill-opacity="1" /><path clip-path="url(#clip260)" d="M147.362 402.628 L152.246 402.628 L152.246 408.508 L147.362 408.508 L147.362 402.628 Z" fill="#000000" fill-rule="nonzero" fill-opacity="1" /><path clip-path="url(#clip260)" d="M172.431 377.027 Q168.82 377.027 166.991 380.592 Q165.186 384.133 165.186 391.263 Q165.186 398.369 166.991 401.934 Q168.82 405.476 172.431 405.476 Q176.065 405.476 177.871 401.934 Q179.7 398.369 179.7 391.263 Q179.7 384.133 177.871 380.592 Q176.065 377.027 172.431 377.027 M172.431 373.323 Q178.241 373.323 181.297 377.929 Q184.376 382.513 184.376 391.263 Q184.376 399.99 181.297 404.596 Q178.241 409.179 172.431 409.179 Q166.621 409.179 163.542 404.596 Q160.487 399.99 160.487 391.263 Q160.487 382.513 163.542 377.929 Q166.621 373.323 172.431 373.323 Z" fill="#000000" fill-rule="nonzero" fill-opacity="1" /><path clip-path="url(#clip260)" d="M193.403 404.573 L201.042 404.573 L201.042 378.207 L192.732 379.874 L192.732 375.615 L200.996 373.948 L205.672 373.948 L205.672 404.573 L213.311 404.573 L213.311 408.508 L193.403 408.508 L193.403 404.573 Z" fill="#000000" fill-rule="nonzero" fill-opacity="1" /><path clip-path="url(#clip260)" d="M222.801 373.948 L241.158 373.948 L241.158 377.883 L227.084 377.883 L227.084 386.355 Q228.102 386.008 229.121 385.846 Q230.139 385.661 231.158 385.661 Q236.945 385.661 240.324 388.832 Q243.704 392.003 243.704 397.42 Q243.704 402.999 240.232 406.101 Q236.76 409.179 230.44 409.179 Q228.264 409.179 225.996 408.809 Q223.75 408.439 221.343 407.698 L221.343 402.999 Q223.426 404.133 225.648 404.689 Q227.871 405.244 230.347 405.244 Q234.352 405.244 236.69 403.138 Q239.028 401.031 239.028 397.42 Q239.028 393.809 236.69 391.703 Q234.352 389.596 230.347 389.596 Q228.473 389.596 226.598 390.013 Q224.746 390.429 222.801 391.309 L222.801 373.948 Z" fill="#000000" fill-rule="nonzero" fill-opacity="1" /><path clip-path="url(#clip260)" d="M126.205 33.0428 Q122.593 33.0428 120.765 36.6076 Q118.959 40.1492 118.959 47.2788 Q118.959 54.3853 120.765 57.9501 Q122.593 61.4917 126.205 61.4917 Q129.839 61.4917 131.644 57.9501 Q133.473 54.3853 133.473 47.2788 Q133.473 40.1492 131.644 36.6076 Q129.839 33.0428 126.205 33.0428 M126.205 29.3391 Q132.015 29.3391 135.07 33.9456 Q138.149 38.5289 138.149 47.2788 Q138.149 56.0056 135.07 60.6121 Q132.015 65.1954 126.205 65.1954 Q120.394 65.1954 117.316 60.6121 Q114.26 56.0056 114.26 47.2788 Q114.26 38.5289 117.316 33.9456 Q120.394 29.3391 126.205 29.3391 Z" fill="#000000" fill-rule="nonzero" fill-opacity="1" /><path clip-path="url(#clip260)" d="M146.366 58.6445 L151.251 58.6445 L151.251 64.5241 L146.366 64.5241 L146.366 58.6445 Z" fill="#000000" fill-rule="nonzero" fill-opacity="1" /><path clip-path="url(#clip260)" d="M171.436 33.0428 Q167.825 33.0428 165.996 36.6076 Q164.19 40.1492 164.19 47.2788 Q164.19 54.3853 165.996 57.9501 Q167.825 61.4917 171.436 61.4917 Q175.07 61.4917 176.876 57.9501 Q178.704 54.3853 178.704 47.2788 Q178.704 40.1492 176.876 36.6076 Q175.07 33.0428 171.436 33.0428 M171.436 29.3391 Q177.246 29.3391 180.301 33.9456 Q183.38 38.5289 183.38 47.2788 Q183.38 56.0056 180.301 60.6121 Q177.246 65.1954 171.436 65.1954 Q165.626 65.1954 162.547 60.6121 Q159.491 56.0056 159.491 47.2788 Q159.491 38.5289 162.547 33.9456 Q165.626 29.3391 171.436 29.3391 Z" fill="#000000" fill-rule="nonzero" fill-opacity="1" /><path clip-path="url(#clip260)" d="M195.625 60.5889 L211.945 60.5889 L211.945 64.5241 L190 64.5241 L190 60.5889 Q192.663 57.8343 197.246 53.2047 Q201.852 48.552 203.033 47.2094 Q205.278 44.6862 206.158 42.9501 Q207.061 41.1909 207.061 39.5011 Q207.061 36.7465 205.116 35.0104 Q203.195 33.2743 200.093 33.2743 Q197.894 33.2743 195.44 34.0381 Q193.01 34.802 190.232 36.3529 L190.232 31.6308 Q193.056 30.4965 195.51 29.9178 Q197.963 29.3391 200 29.3391 Q205.371 29.3391 208.565 32.0243 Q211.76 34.7094 211.76 39.2002 Q211.76 41.3298 210.949 43.2511 Q210.162 45.1492 208.056 47.7418 Q207.477 48.4131 204.375 51.6306 Q201.274 54.8251 195.625 60.5889 Z" fill="#000000" fill-rule="nonzero" fill-opacity="1" /><path clip-path="url(#clip260)" d="M231.76 33.0428 Q228.148 33.0428 226.32 36.6076 Q224.514 40.1492 224.514 47.2788 Q224.514 54.3853 226.32 57.9501 Q228.148 61.4917 231.76 61.4917 Q235.394 61.4917 237.199 57.9501 Q239.028 54.3853 239.028 47.2788 Q239.028 40.1492 237.199 36.6076 Q235.394 33.0428 231.76 33.0428 M231.76 29.3391 Q237.57 29.3391 240.625 33.9456 Q243.704 38.5289 243.704 47.2788 Q243.704 56.0056 240.625 60.6121 Q237.57 65.1954 231.76 65.1954 Q225.949 65.1954 222.871 60.6121 Q219.815 56.0056 219.815 47.2788 Q219.815 38.5289 222.871 33.9456 Q225.949 29.3391 231.76 29.3391 Z" fill="#000000" fill-rule="nonzero" fill-opacity="1" /><path clip-path="url(#clip260)" d="M20.1444 821.849 L26.9239 821.849 Q23.9002 825.096 22.4043 828.788 Q20.9083 832.448 20.9083 836.586 Q20.9083 844.734 25.9054 849.063 Q30.8707 853.391 40.2919 853.391 Q49.6813 853.391 54.6784 849.063 Q59.6436 844.734 59.6436 836.586 Q59.6436 832.448 58.1477 828.788 Q56.6518 825.096 53.6281 821.849 L60.3439 821.849 Q62.6355 825.223 63.7814 829.011 Q64.9272 832.766 64.9272 836.968 Q64.9272 847.758 58.3387 853.964 Q51.7183 860.171 40.2919 860.171 Q28.8336 860.171 22.2451 853.964 Q15.6248 847.758 15.6248 836.968 Q15.6248 832.703 16.7706 828.947 Q17.8846 825.159 20.1444 821.849 Z" fill="#000000" fill-rule="nonzero" fill-opacity="1" /><path clip-path="url(#clip260)" d="M28.3562 814.72 L28.3562 786.902 L33.7034 786.902 L59.3254 808.927 L59.3254 786.902 L64.0042 786.902 L64.0042 815.515 L58.657 815.515 L33.035 793.49 L33.035 814.72 L28.3562 814.72 Z" fill="#000000" fill-rule="nonzero" fill-opacity="1" /><path clip-path="url(#clip260)" d="M46.0847 761.757 Q46.0847 768.855 47.7079 771.592 Q49.3312 774.329 53.2461 774.329 Q56.3653 774.329 58.2114 772.292 Q60.0256 770.223 60.0256 766.69 Q60.0256 761.821 56.5881 758.892 Q53.1188 755.932 47.3897 755.932 L46.0847 755.932 L46.0847 761.757 M43.6657 750.076 L64.0042 750.076 L64.0042 755.932 L58.5933 755.932 Q61.8398 757.938 63.3994 760.929 Q64.9272 763.921 64.9272 768.25 Q64.9272 773.724 61.8716 776.971 Q58.7843 780.186 53.6281 780.186 Q47.6125 780.186 44.5569 776.175 Q41.5014 772.133 41.5014 764.144 L41.5014 755.932 L40.9285 755.932 Q36.8862 755.932 34.6901 758.606 Q32.4621 761.248 32.4621 766.054 Q32.4621 769.109 33.1941 772.006 Q33.9262 774.902 35.3903 777.576 L29.9795 777.576 Q28.7381 774.361 28.1334 771.337 Q27.4968 768.314 27.4968 765.449 Q27.4968 757.715 31.5072 753.895 Q35.5176 750.076 43.6657 750.076 Z" fill="#000000" fill-rule="nonzero" fill-opacity="1" /><path clip-path="url(#clip260)" d="M29.4065 715.287 L34.9447 715.287 Q33.6716 717.77 33.035 720.444 Q32.3984 723.117 32.3984 725.982 Q32.3984 730.342 33.7352 732.538 Q35.072 734.703 37.7456 734.703 Q39.7826 734.703 40.9603 733.143 Q42.1061 731.584 43.1565 726.873 L43.6021 724.868 Q44.9389 718.629 47.3897 716.019 Q49.8086 713.378 54.1691 713.378 Q59.1344 713.378 62.0308 717.324 Q64.9272 721.239 64.9272 728.114 Q64.9272 730.979 64.3543 734.098 Q63.8132 737.185 62.6992 740.623 L56.6518 740.623 Q58.3387 737.376 59.198 734.225 Q60.0256 731.074 60.0256 727.987 Q60.0256 723.849 58.6251 721.621 Q57.1929 719.393 54.6147 719.393 Q52.2276 719.393 50.9545 721.016 Q49.6813 722.608 48.5037 728.051 L48.0262 730.088 Q46.8804 735.53 44.5251 737.949 Q42.138 740.368 38.0002 740.368 Q32.9713 740.368 30.2341 736.803 Q27.4968 733.239 27.4968 726.682 Q27.4968 723.435 27.9743 720.571 Q28.4517 717.706 29.4065 715.287 Z" fill="#000000" fill-rule="nonzero" fill-opacity="1" /><path clip-path="url(#clip260)" d="M14.479 683.873 L14.479 670.377 L19.0304 670.377 L19.0304 678.016 L68.0464 678.016 L68.0464 670.377 L72.5979 670.377 L72.5979 683.873 L14.479 683.873 Z" fill="#000000" fill-rule="nonzero" fill-opacity="1" /><path clip-path="url(#clip260)" d="M29.4065 635.175 L34.9447 635.175 Q33.6716 637.658 33.035 640.331 Q32.3984 643.005 32.3984 645.869 Q32.3984 650.23 33.7352 652.426 Q35.072 654.59 37.7456 654.59 Q39.7826 654.59 40.9603 653.031 Q42.1061 651.471 43.1565 646.76 L43.6021 644.755 Q44.9389 638.517 47.3897 635.907 Q49.8086 633.265 54.1691 633.265 Q59.1344 633.265 62.0308 637.212 Q64.9272 641.127 64.9272 648.002 Q64.9272 650.866 64.3543 653.986 Q63.8132 657.073 62.6992 660.51 L56.6518 660.51 Q58.3387 657.264 59.198 654.113 Q60.0256 650.962 60.0256 647.874 Q60.0256 643.737 58.6251 641.509 Q57.1929 639.281 54.6147 639.281 Q52.2276 639.281 50.9545 640.904 Q49.6813 642.495 48.5037 647.938 L48.0262 649.975 Q46.8804 655.418 44.5251 657.837 Q42.138 660.256 38.0002 660.256 Q32.9713 660.256 30.2341 656.691 Q27.4968 653.126 27.4968 646.57 Q27.4968 643.323 27.9743 640.458 Q28.4517 637.594 29.4065 635.175 Z" fill="#000000" fill-rule="nonzero" fill-opacity="1" /><path clip-path="url(#clip260)" d="M14.479 610.253 L72.5979 610.253 L72.5979 623.748 L68.0464 623.748 L68.0464 616.141 L19.0304 616.141 L19.0304 623.748 L14.479 623.748 L14.479 610.253 Z" fill="#000000" fill-rule="nonzero" fill-opacity="1" /><polyline clip-path="url(#clip262)" style="stroke:#009af9; stroke-linecap:round; stroke-linejoin:round; stroke-width:4; stroke-opacity:1; fill:none" points="460.607,1422.71 664.327,1418.85 868.046,1413.88 1071.77,1413.07 1275.49,1408.93 1479.21,1404.51 1682.93,1402.86 1886.65,1400.12 2090.36,1397.4 2294.08,1398.05 "/>
<polyline clip-path="url(#clip262)" style="stroke:#e26f46; stroke-linecap:round; stroke-linejoin:round; stroke-width:4; stroke-opacity:1; fill:none" points="460.607,1421.89 664.327,1416.34 868.046,1416.64 1071.77,1416.48 1275.49,1413.75 1479.21,1410.5 1682.93,1406.66 1886.65,1405.93 2090.36,1401.99 2294.08,1393.73 "/>
<polyline clip-path="url(#clip262)" style="stroke:#3da44d; stroke-linecap:round; stroke-linejoin:round; stroke-width:4; stroke-opacity:1; fill:none" points="338.375,1403.56 419.863,1267.36 501.351,934.868 582.839,-185.195 664.327,-1379.12 "/>
<path clip-path="url(#clip260)" d="M1496.93 300.469 L2283.65 300.469 L2283.65 93.1086 L1496.93 93.1086  Z" fill="#ffffff" fill-rule="evenodd" fill-opacity="1"/>
<polyline clip-path="url(#clip260)" style="stroke:#000000; stroke-linecap:round; stroke-linejoin:round; stroke-width:4; stroke-opacity:1; fill:none" points="1496.93,300.469 2283.65,300.469 2283.65,93.1086 1496.93,93.1086 1496.93,300.469 "/>
<polyline clip-path="url(#clip260)" style="stroke:#009af9; stroke-linecap:round; stroke-linejoin:round; stroke-width:4; stroke-opacity:1; fill:none" points="1519.96,144.949 1658.17,144.949 "/>
<path clip-path="url(#clip260)" d="M1697.04 132.275 L1690.69 149.474 L1703.4 149.474 L1697.04 132.275 M1694.4 127.669 L1699.7 127.669 L1712.87 162.229 L1708.01 162.229 L1704.86 153.363 L1689.28 153.363 L1686.13 162.229 L1681.2 162.229 L1694.4 127.669 Z" fill="#000000" fill-rule="nonzero" fill-opacity="1" /><path clip-path="url(#clip260)" d="M1733.96 140.238 L1733.96 126.21 L1738.22 126.21 L1738.22 162.229 L1733.96 162.229 L1733.96 158.34 Q1732.61 160.655 1730.55 161.789 Q1728.52 162.9 1725.65 162.9 Q1720.95 162.9 1717.98 159.15 Q1715.04 155.4 1715.04 149.289 Q1715.04 143.178 1717.98 139.428 Q1720.95 135.678 1725.65 135.678 Q1728.52 135.678 1730.55 136.812 Q1732.61 137.923 1733.96 140.238 M1719.44 149.289 Q1719.44 153.988 1721.36 156.673 Q1723.31 159.335 1726.69 159.335 Q1730.07 159.335 1732.01 156.673 Q1733.96 153.988 1733.96 149.289 Q1733.96 144.59 1732.01 141.928 Q1730.07 139.243 1726.69 139.243 Q1723.31 139.243 1721.36 141.928 Q1719.44 144.59 1719.44 149.289 Z" fill="#000000" fill-rule="nonzero" fill-opacity="1" /><path clip-path="url(#clip260)" d="M1758.77 149.196 Q1753.61 149.196 1751.62 150.377 Q1749.63 151.557 1749.63 154.405 Q1749.63 156.673 1751.11 158.016 Q1752.61 159.335 1755.18 159.335 Q1758.72 159.335 1760.85 156.835 Q1763.01 154.312 1763.01 150.145 L1763.01 149.196 L1758.77 149.196 M1767.27 147.437 L1767.27 162.229 L1763.01 162.229 L1763.01 158.293 Q1761.55 160.655 1759.37 161.789 Q1757.2 162.9 1754.05 162.9 Q1750.07 162.9 1747.71 160.678 Q1745.37 158.432 1745.37 154.682 Q1745.37 150.307 1748.29 148.085 Q1751.22 145.863 1757.03 145.863 L1763.01 145.863 L1763.01 145.446 Q1763.01 142.507 1761.06 140.909 Q1759.14 139.289 1755.65 139.289 Q1753.42 139.289 1751.32 139.821 Q1749.21 140.354 1747.27 141.419 L1747.27 137.483 Q1749.6 136.581 1751.8 136.141 Q1754 135.678 1756.09 135.678 Q1761.71 135.678 1764.49 138.594 Q1767.27 141.511 1767.27 147.437 Z" fill="#000000" fill-rule="nonzero" fill-opacity="1" /><path clip-path="url(#clip260)" d="M1780.16 158.34 L1780.16 172.09 L1775.88 172.09 L1775.88 136.303 L1780.16 136.303 L1780.16 140.238 Q1781.5 137.923 1783.54 136.812 Q1785.6 135.678 1788.45 135.678 Q1793.17 135.678 1796.11 139.428 Q1799.07 143.178 1799.07 149.289 Q1799.07 155.4 1796.11 159.15 Q1793.17 162.9 1788.45 162.9 Q1785.6 162.9 1783.54 161.789 Q1781.5 160.655 1780.16 158.34 M1794.65 149.289 Q1794.65 144.59 1792.71 141.928 Q1790.78 139.243 1787.41 139.243 Q1784.03 139.243 1782.08 141.928 Q1780.16 144.59 1780.16 149.289 Q1780.16 153.988 1782.08 156.673 Q1784.03 159.335 1787.41 159.335 Q1790.78 159.335 1792.71 156.673 Q1794.65 153.988 1794.65 149.289 Z" fill="#000000" fill-rule="nonzero" fill-opacity="1" /><path clip-path="url(#clip260)" d="M1810.34 128.942 L1810.34 136.303 L1819.12 136.303 L1819.12 139.613 L1810.34 139.613 L1810.34 153.687 Q1810.34 156.858 1811.2 157.761 Q1812.08 158.664 1814.74 158.664 L1819.12 158.664 L1819.12 162.229 L1814.74 162.229 Q1809.81 162.229 1807.94 160.4 Q1806.06 158.548 1806.06 153.687 L1806.06 139.613 L1802.94 139.613 L1802.94 136.303 L1806.06 136.303 L1806.06 128.942 L1810.34 128.942 Z" fill="#000000" fill-rule="nonzero" fill-opacity="1" /><path clip-path="url(#clip260)" d="M1834.77 139.289 Q1831.34 139.289 1829.35 141.974 Q1827.36 144.636 1827.36 149.289 Q1827.36 153.942 1829.33 156.627 Q1831.32 159.289 1834.77 159.289 Q1838.17 159.289 1840.16 156.604 Q1842.15 153.918 1842.15 149.289 Q1842.15 144.682 1840.16 141.997 Q1838.17 139.289 1834.77 139.289 M1834.77 135.678 Q1840.32 135.678 1843.49 139.289 Q1846.66 142.9 1846.66 149.289 Q1846.66 155.655 1843.49 159.289 Q1840.32 162.9 1834.77 162.9 Q1829.19 162.9 1826.02 159.289 Q1822.87 155.655 1822.87 149.289 Q1822.87 142.9 1826.02 139.289 Q1829.19 135.678 1834.77 135.678 Z" fill="#000000" fill-rule="nonzero" fill-opacity="1" /><path clip-path="url(#clip260)" d="M1851.25 136.303 L1855.51 136.303 L1860.83 156.534 L1866.13 136.303 L1871.15 136.303 L1876.48 156.534 L1881.78 136.303 L1886.04 136.303 L1879.26 162.229 L1874.23 162.229 L1868.65 140.979 L1863.05 162.229 L1858.03 162.229 L1851.25 136.303 Z" fill="#000000" fill-rule="nonzero" fill-opacity="1" /><path clip-path="url(#clip260)" d="M1904.28 149.196 Q1899.12 149.196 1897.13 150.377 Q1895.14 151.557 1895.14 154.405 Q1895.14 156.673 1896.62 158.016 Q1898.12 159.335 1900.69 159.335 Q1904.23 159.335 1906.36 156.835 Q1908.52 154.312 1908.52 150.145 L1908.52 149.196 L1904.28 149.196 M1912.77 147.437 L1912.77 162.229 L1908.52 162.229 L1908.52 158.293 Q1907.06 160.655 1904.88 161.789 Q1902.71 162.9 1899.56 162.9 Q1895.58 162.9 1893.21 160.678 Q1890.88 158.432 1890.88 154.682 Q1890.88 150.307 1893.79 148.085 Q1896.73 145.863 1902.54 145.863 L1908.52 145.863 L1908.52 145.446 Q1908.52 142.507 1906.57 140.909 Q1904.65 139.289 1901.15 139.289 Q1898.93 139.289 1896.83 139.821 Q1894.72 140.354 1892.78 141.419 L1892.78 137.483 Q1895.11 136.581 1897.31 136.141 Q1899.51 135.678 1901.59 135.678 Q1907.22 135.678 1910 138.594 Q1912.77 141.511 1912.77 147.437 Z" fill="#000000" fill-rule="nonzero" fill-opacity="1" /><path clip-path="url(#clip260)" d="M1943.1 146.581 L1943.1 162.229 L1938.84 162.229 L1938.84 146.719 Q1938.84 143.039 1937.4 141.21 Q1935.97 139.382 1933.1 139.382 Q1929.65 139.382 1927.66 141.581 Q1925.67 143.78 1925.67 147.576 L1925.67 162.229 L1921.39 162.229 L1921.39 136.303 L1925.67 136.303 L1925.67 140.331 Q1927.2 137.993 1929.26 136.835 Q1931.34 135.678 1934.05 135.678 Q1938.52 135.678 1940.81 138.456 Q1943.1 141.21 1943.1 146.581 Z" fill="#000000" fill-rule="nonzero" fill-opacity="1" /><path clip-path="url(#clip260)" d="M1962.38 164.636 Q1960.58 169.266 1958.86 170.678 Q1957.15 172.09 1954.28 172.09 L1950.88 172.09 L1950.88 168.525 L1953.38 168.525 Q1955.14 168.525 1956.11 167.692 Q1957.08 166.858 1958.26 163.756 L1959.02 161.812 L1948.54 136.303 L1953.05 136.303 L1961.15 156.581 L1969.26 136.303 L1973.77 136.303 L1962.38 164.636 Z" fill="#000000" fill-rule="nonzero" fill-opacity="1" /><path clip-path="url(#clip260)" d="M2013.33 149.289 Q2013.33 144.59 2011.39 141.928 Q2009.46 139.243 2006.08 139.243 Q2002.7 139.243 2000.76 141.928 Q1998.84 144.59 1998.84 149.289 Q1998.84 153.988 2000.76 156.673 Q2002.7 159.335 2006.08 159.335 Q2009.46 159.335 2011.39 156.673 Q2013.33 153.988 2013.33 149.289 M1998.84 140.238 Q2000.18 137.923 2002.22 136.812 Q2004.28 135.678 2007.13 135.678 Q2011.85 135.678 2014.79 139.428 Q2017.75 143.178 2017.75 149.289 Q2017.75 155.4 2014.79 159.15 Q2011.85 162.9 2007.13 162.9 Q2004.28 162.9 2002.22 161.789 Q2000.18 160.655 1998.84 158.34 L1998.84 162.229 L1994.56 162.229 L1994.56 126.21 L1998.84 126.21 L1998.84 140.238 Z" fill="#000000" fill-rule="nonzero" fill-opacity="1" /><path clip-path="url(#clip260)" d="M2046.99 148.201 L2046.99 150.284 L2027.4 150.284 Q2027.68 154.682 2030.04 156.997 Q2032.43 159.289 2036.66 159.289 Q2039.12 159.289 2041.41 158.687 Q2043.72 158.085 2045.99 156.881 L2045.99 160.909 Q2043.7 161.881 2041.29 162.391 Q2038.89 162.9 2036.41 162.9 Q2030.2 162.9 2026.57 159.289 Q2022.96 155.678 2022.96 149.52 Q2022.96 143.155 2026.39 139.428 Q2029.83 135.678 2035.67 135.678 Q2040.9 135.678 2043.93 139.057 Q2046.99 142.414 2046.99 148.201 M2042.73 146.951 Q2042.68 143.456 2040.76 141.372 Q2038.86 139.289 2035.71 139.289 Q2032.15 139.289 2030 141.303 Q2027.87 143.317 2027.54 146.974 L2042.73 146.951 Z" fill="#000000" fill-rule="nonzero" fill-opacity="1" /><path clip-path="url(#clip260)" d="M2052.13 136.303 L2072.36 136.303 L2072.36 140.192 L2056.34 158.826 L2072.36 158.826 L2072.36 162.229 L2051.55 162.229 L2051.55 158.34 L2067.57 139.706 L2052.13 139.706 L2052.13 136.303 Z" fill="#000000" fill-rule="nonzero" fill-opacity="1" /><path clip-path="url(#clip260)" d="M2091.45 136.303 L2095.71 136.303 L2101.04 156.534 L2106.34 136.303 L2111.36 136.303 L2116.69 156.534 L2121.99 136.303 L2126.25 136.303 L2119.46 162.229 L2114.44 162.229 L2108.86 140.979 L2103.26 162.229 L2098.24 162.229 L2091.45 136.303 Z" fill="#000000" fill-rule="nonzero" fill-opacity="1" /><path clip-path="url(#clip260)" d="M2143.49 164.636 Q2141.69 169.266 2139.97 170.678 Q2138.26 172.09 2135.39 172.09 L2131.99 172.09 L2131.99 168.525 L2134.49 168.525 Q2136.25 168.525 2137.22 167.692 Q2138.19 166.858 2139.37 163.756 L2140.13 161.812 L2129.65 136.303 L2134.16 136.303 L2142.26 156.581 L2150.37 136.303 L2154.88 136.303 L2143.49 164.636 Z" fill="#000000" fill-rule="nonzero" fill-opacity="1" /><path clip-path="url(#clip260)" d="M2179.37 149.289 Q2179.37 144.59 2177.43 141.928 Q2175.5 139.243 2172.13 139.243 Q2168.75 139.243 2166.8 141.928 Q2164.88 144.59 2164.88 149.289 Q2164.88 153.988 2166.8 156.673 Q2168.75 159.335 2172.13 159.335 Q2175.5 159.335 2177.43 156.673 Q2179.37 153.988 2179.37 149.289 M2164.88 140.238 Q2166.22 137.923 2168.26 136.812 Q2170.32 135.678 2173.17 135.678 Q2177.89 135.678 2180.83 139.428 Q2183.79 143.178 2183.79 149.289 Q2183.79 155.4 2180.83 159.15 Q2177.89 162.9 2173.17 162.9 Q2170.32 162.9 2168.26 161.789 Q2166.22 160.655 2164.88 158.34 L2164.88 162.229 L2160.6 162.229 L2160.6 126.21 L2164.88 126.21 L2164.88 140.238 Z" fill="#000000" fill-rule="nonzero" fill-opacity="1" /><path clip-path="url(#clip260)" d="M2200.9 139.289 Q2197.47 139.289 2195.48 141.974 Q2193.49 144.636 2193.49 149.289 Q2193.49 153.942 2195.46 156.627 Q2197.45 159.289 2200.9 159.289 Q2204.3 159.289 2206.29 156.604 Q2208.28 153.918 2208.28 149.289 Q2208.28 144.682 2206.29 141.997 Q2204.3 139.289 2200.9 139.289 M2200.9 135.678 Q2206.45 135.678 2209.63 139.289 Q2212.8 142.9 2212.8 149.289 Q2212.8 155.655 2209.63 159.289 Q2206.45 162.9 2200.9 162.9 Q2195.32 162.9 2192.15 159.289 Q2189 155.655 2189 149.289 Q2189 142.9 2192.15 139.289 Q2195.32 135.678 2200.9 135.678 Z" fill="#000000" fill-rule="nonzero" fill-opacity="1" /><path clip-path="url(#clip260)" d="M2234.88 140.284 Q2234.16 139.868 2233.31 139.682 Q2232.47 139.474 2231.45 139.474 Q2227.84 139.474 2225.9 141.835 Q2223.98 144.173 2223.98 148.571 L2223.98 162.229 L2219.69 162.229 L2219.69 136.303 L2223.98 136.303 L2223.98 140.331 Q2225.32 137.969 2227.47 136.835 Q2229.63 135.678 2232.7 135.678 Q2233.14 135.678 2233.68 135.747 Q2234.21 135.794 2234.86 135.909 L2234.88 140.284 Z" fill="#000000" fill-rule="nonzero" fill-opacity="1" /><path clip-path="url(#clip260)" d="M2238.91 151.997 L2238.91 136.303 L2243.17 136.303 L2243.17 151.835 Q2243.17 155.516 2244.6 157.368 Q2246.04 159.196 2248.91 159.196 Q2252.36 159.196 2254.35 156.997 Q2256.36 154.798 2256.36 151.002 L2256.36 136.303 L2260.62 136.303 L2260.62 162.229 L2256.36 162.229 L2256.36 158.247 Q2254.81 160.608 2252.75 161.766 Q2250.71 162.9 2248 162.9 Q2243.54 162.9 2241.22 160.122 Q2238.91 157.344 2238.91 151.997 M2249.62 135.678 L2249.62 135.678 Z" fill="#000000" fill-rule="nonzero" fill-opacity="1" /><polyline clip-path="url(#clip260)" style="stroke:#e26f46; stroke-linecap:round; stroke-linejoin:round; stroke-width:4; stroke-opacity:1; fill:none" points="1519.96,196.789 1658.17,196.789 "/>
<path clip-path="url(#clip260)" d="M1697.04 184.115 L1690.69 201.314 L1703.4 201.314 L1697.04 184.115 M1694.4 179.509 L1699.7 179.509 L1712.87 214.069 L1708.01 214.069 L1704.86 205.203 L1689.28 205.203 L1686.13 214.069 L1681.2 214.069 L1694.4 179.509 Z" fill="#000000" fill-rule="nonzero" fill-opacity="1" /><path clip-path="url(#clip260)" d="M1733.96 192.078 L1733.96 178.05 L1738.22 178.05 L1738.22 214.069 L1733.96 214.069 L1733.96 210.18 Q1732.61 212.495 1730.55 213.629 Q1728.52 214.74 1725.65 214.74 Q1720.95 214.74 1717.98 210.99 Q1715.04 207.24 1715.04 201.129 Q1715.04 195.018 1717.98 191.268 Q1720.95 187.518 1725.65 187.518 Q1728.52 187.518 1730.55 188.652 Q1732.61 189.763 1733.96 192.078 M1719.44 201.129 Q1719.44 205.828 1721.36 208.513 Q1723.31 211.175 1726.69 211.175 Q1730.07 211.175 1732.01 208.513 Q1733.96 205.828 1733.96 201.129 Q1733.96 196.43 1732.01 193.768 Q1730.07 191.083 1726.69 191.083 Q1723.31 191.083 1721.36 193.768 Q1719.44 196.43 1719.44 201.129 Z" fill="#000000" fill-rule="nonzero" fill-opacity="1" /><path clip-path="url(#clip260)" d="M1758.77 201.036 Q1753.61 201.036 1751.62 202.217 Q1749.63 203.397 1749.63 206.245 Q1749.63 208.513 1751.11 209.856 Q1752.61 211.175 1755.18 211.175 Q1758.72 211.175 1760.85 208.675 Q1763.01 206.152 1763.01 201.985 L1763.01 201.036 L1758.77 201.036 M1767.27 199.277 L1767.27 214.069 L1763.01 214.069 L1763.01 210.133 Q1761.55 212.495 1759.37 213.629 Q1757.2 214.74 1754.05 214.74 Q1750.07 214.74 1747.71 212.518 Q1745.37 210.272 1745.37 206.522 Q1745.37 202.147 1748.29 199.925 Q1751.22 197.703 1757.03 197.703 L1763.01 197.703 L1763.01 197.286 Q1763.01 194.347 1761.06 192.749 Q1759.14 191.129 1755.65 191.129 Q1753.42 191.129 1751.32 191.661 Q1749.21 192.194 1747.27 193.259 L1747.27 189.323 Q1749.6 188.421 1751.8 187.981 Q1754 187.518 1756.09 187.518 Q1761.71 187.518 1764.49 190.434 Q1767.27 193.351 1767.27 199.277 Z" fill="#000000" fill-rule="nonzero" fill-opacity="1" /><path clip-path="url(#clip260)" d="M1780.16 210.18 L1780.16 223.93 L1775.88 223.93 L1775.88 188.143 L1780.16 188.143 L1780.16 192.078 Q1781.5 189.763 1783.54 188.652 Q1785.6 187.518 1788.45 187.518 Q1793.17 187.518 1796.11 191.268 Q1799.07 195.018 1799.07 201.129 Q1799.07 207.24 1796.11 210.99 Q1793.17 214.74 1788.45 214.74 Q1785.6 214.74 1783.54 213.629 Q1781.5 212.495 1780.16 210.18 M1794.65 201.129 Q1794.65 196.43 1792.71 193.768 Q1790.78 191.083 1787.41 191.083 Q1784.03 191.083 1782.08 193.768 Q1780.16 196.43 1780.16 201.129 Q1780.16 205.828 1782.08 208.513 Q1784.03 211.175 1787.41 211.175 Q1790.78 211.175 1792.71 208.513 Q1794.65 205.828 1794.65 201.129 Z" fill="#000000" fill-rule="nonzero" fill-opacity="1" /><path clip-path="url(#clip260)" d="M1810.34 180.782 L1810.34 188.143 L1819.12 188.143 L1819.12 191.453 L1810.34 191.453 L1810.34 205.527 Q1810.34 208.698 1811.2 209.601 Q1812.08 210.504 1814.74 210.504 L1819.12 210.504 L1819.12 214.069 L1814.74 214.069 Q1809.81 214.069 1807.94 212.24 Q1806.06 210.388 1806.06 205.527 L1806.06 191.453 L1802.94 191.453 L1802.94 188.143 L1806.06 188.143 L1806.06 180.782 L1810.34 180.782 Z" fill="#000000" fill-rule="nonzero" fill-opacity="1" /><path clip-path="url(#clip260)" d="M1834.77 191.129 Q1831.34 191.129 1829.35 193.814 Q1827.36 196.476 1827.36 201.129 Q1827.36 205.782 1829.33 208.467 Q1831.32 211.129 1834.77 211.129 Q1838.17 211.129 1840.16 208.444 Q1842.15 205.758 1842.15 201.129 Q1842.15 196.522 1840.16 193.837 Q1838.17 191.129 1834.77 191.129 M1834.77 187.518 Q1840.32 187.518 1843.49 191.129 Q1846.66 194.74 1846.66 201.129 Q1846.66 207.495 1843.49 211.129 Q1840.32 214.74 1834.77 214.74 Q1829.19 214.74 1826.02 211.129 Q1822.87 207.495 1822.87 201.129 Q1822.87 194.74 1826.02 191.129 Q1829.19 187.518 1834.77 187.518 Z" fill="#000000" fill-rule="nonzero" fill-opacity="1" /><path clip-path="url(#clip260)" d="M1851.25 188.143 L1855.51 188.143 L1860.83 208.374 L1866.13 188.143 L1871.15 188.143 L1876.48 208.374 L1881.78 188.143 L1886.04 188.143 L1879.26 214.069 L1874.23 214.069 L1868.65 192.819 L1863.05 214.069 L1858.03 214.069 L1851.25 188.143 Z" fill="#000000" fill-rule="nonzero" fill-opacity="1" /><path clip-path="url(#clip260)" d="M1904.28 201.036 Q1899.12 201.036 1897.13 202.217 Q1895.14 203.397 1895.14 206.245 Q1895.14 208.513 1896.62 209.856 Q1898.12 211.175 1900.69 211.175 Q1904.23 211.175 1906.36 208.675 Q1908.52 206.152 1908.52 201.985 L1908.52 201.036 L1904.28 201.036 M1912.77 199.277 L1912.77 214.069 L1908.52 214.069 L1908.52 210.133 Q1907.06 212.495 1904.88 213.629 Q1902.71 214.74 1899.56 214.74 Q1895.58 214.74 1893.21 212.518 Q1890.88 210.272 1890.88 206.522 Q1890.88 202.147 1893.79 199.925 Q1896.73 197.703 1902.54 197.703 L1908.52 197.703 L1908.52 197.286 Q1908.52 194.347 1906.57 192.749 Q1904.65 191.129 1901.15 191.129 Q1898.93 191.129 1896.83 191.661 Q1894.72 192.194 1892.78 193.259 L1892.78 189.323 Q1895.11 188.421 1897.31 187.981 Q1899.51 187.518 1901.59 187.518 Q1907.22 187.518 1910 190.434 Q1912.77 193.351 1912.77 199.277 Z" fill="#000000" fill-rule="nonzero" fill-opacity="1" /><path clip-path="url(#clip260)" d="M1943.1 198.421 L1943.1 214.069 L1938.84 214.069 L1938.84 198.559 Q1938.84 194.879 1937.4 193.05 Q1935.97 191.222 1933.1 191.222 Q1929.65 191.222 1927.66 193.421 Q1925.67 195.62 1925.67 199.416 L1925.67 214.069 L1921.39 214.069 L1921.39 188.143 L1925.67 188.143 L1925.67 192.171 Q1927.2 189.833 1929.26 188.675 Q1931.34 187.518 1934.05 187.518 Q1938.52 187.518 1940.81 190.296 Q1943.1 193.05 1943.1 198.421 Z" fill="#000000" fill-rule="nonzero" fill-opacity="1" /><path clip-path="url(#clip260)" d="M1962.38 216.476 Q1960.58 221.106 1958.86 222.518 Q1957.15 223.93 1954.28 223.93 L1950.88 223.93 L1950.88 220.365 L1953.38 220.365 Q1955.14 220.365 1956.11 219.532 Q1957.08 218.698 1958.26 215.596 L1959.02 213.652 L1948.54 188.143 L1953.05 188.143 L1961.15 208.421 L1969.26 188.143 L1973.77 188.143 L1962.38 216.476 Z" fill="#000000" fill-rule="nonzero" fill-opacity="1" /><path clip-path="url(#clip260)" d="M1992.87 188.143 L2013.1 188.143 L2013.1 192.032 L1997.08 210.666 L2013.1 210.666 L2013.1 214.069 L1992.29 214.069 L1992.29 210.18 L2008.31 191.546 L1992.87 191.546 L1992.87 188.143 Z" fill="#000000" fill-rule="nonzero" fill-opacity="1" /><path clip-path="url(#clip260)" d="M2032.2 188.143 L2036.45 188.143 L2041.78 208.374 L2047.08 188.143 L2052.1 188.143 L2057.43 208.374 L2062.73 188.143 L2066.99 188.143 L2060.2 214.069 L2055.18 214.069 L2049.6 192.819 L2044 214.069 L2038.98 214.069 L2032.2 188.143 Z" fill="#000000" fill-rule="nonzero" fill-opacity="1" /><path clip-path="url(#clip260)" d="M2084.23 216.476 Q2082.43 221.106 2080.71 222.518 Q2079 223.93 2076.13 223.93 L2072.73 223.93 L2072.73 220.365 L2075.23 220.365 Q2076.99 220.365 2077.96 219.532 Q2078.93 218.698 2080.11 215.596 L2080.88 213.652 L2070.39 188.143 L2074.9 188.143 L2083.01 208.421 L2091.11 188.143 L2095.62 188.143 L2084.23 216.476 Z" fill="#000000" fill-rule="nonzero" fill-opacity="1" /><path clip-path="url(#clip260)" d="M2120.11 201.129 Q2120.11 196.43 2118.17 193.768 Q2116.25 191.083 2112.87 191.083 Q2109.49 191.083 2107.54 193.768 Q2105.62 196.43 2105.62 201.129 Q2105.62 205.828 2107.54 208.513 Q2109.49 211.175 2112.87 211.175 Q2116.25 211.175 2118.17 208.513 Q2120.11 205.828 2120.11 201.129 M2105.62 192.078 Q2106.96 189.763 2109 188.652 Q2111.06 187.518 2113.91 187.518 Q2118.63 187.518 2121.57 191.268 Q2124.53 195.018 2124.53 201.129 Q2124.53 207.24 2121.57 210.99 Q2118.63 214.74 2113.91 214.74 Q2111.06 214.74 2109 213.629 Q2106.96 212.495 2105.62 210.18 L2105.62 214.069 L2101.34 214.069 L2101.34 178.05 L2105.62 178.05 L2105.62 192.078 Z" fill="#000000" fill-rule="nonzero" fill-opacity="1" /><path clip-path="url(#clip260)" d="M2141.64 191.129 Q2138.21 191.129 2136.22 193.814 Q2134.23 196.476 2134.23 201.129 Q2134.23 205.782 2136.2 208.467 Q2138.19 211.129 2141.64 211.129 Q2145.04 211.129 2147.03 208.444 Q2149.02 205.758 2149.02 201.129 Q2149.02 196.522 2147.03 193.837 Q2145.04 191.129 2141.64 191.129 M2141.64 187.518 Q2147.19 187.518 2150.37 191.129 Q2153.54 194.74 2153.54 201.129 Q2153.54 207.495 2150.37 211.129 Q2147.19 214.74 2141.64 214.74 Q2136.06 214.74 2132.89 211.129 Q2129.74 207.495 2129.74 201.129 Q2129.74 194.74 2132.89 191.129 Q2136.06 187.518 2141.64 187.518 Z" fill="#000000" fill-rule="nonzero" fill-opacity="1" /><path clip-path="url(#clip260)" d="M2175.62 192.124 Q2174.9 191.708 2174.05 191.522 Q2173.21 191.314 2172.19 191.314 Q2168.58 191.314 2166.64 193.675 Q2164.72 196.013 2164.72 200.411 L2164.72 214.069 L2160.44 214.069 L2160.44 188.143 L2164.72 188.143 L2164.72 192.171 Q2166.06 189.809 2168.21 188.675 Q2170.37 187.518 2173.44 187.518 Q2173.88 187.518 2174.42 187.587 Q2174.95 187.634 2175.6 187.749 L2175.62 192.124 Z" fill="#000000" fill-rule="nonzero" fill-opacity="1" /><path clip-path="url(#clip260)" d="M2201.22 200.041 L2201.22 202.124 L2181.64 202.124 Q2181.92 206.522 2184.28 208.837 Q2186.66 211.129 2190.9 211.129 Q2193.35 211.129 2195.64 210.527 Q2197.96 209.925 2200.23 208.721 L2200.23 212.749 Q2197.94 213.721 2195.53 214.231 Q2193.12 214.74 2190.64 214.74 Q2184.44 214.74 2180.81 211.129 Q2177.19 207.518 2177.19 201.36 Q2177.19 194.995 2180.62 191.268 Q2184.07 187.518 2189.9 187.518 Q2195.13 187.518 2198.17 190.897 Q2201.22 194.254 2201.22 200.041 M2196.96 198.791 Q2196.92 195.296 2195 193.212 Q2193.1 191.129 2189.95 191.129 Q2186.38 191.129 2184.23 193.143 Q2182.1 195.157 2181.78 198.814 L2196.96 198.791 Z" fill="#000000" fill-rule="nonzero" fill-opacity="1" /><path clip-path="url(#clip260)" d="M2228.4 193.12 Q2230 190.249 2232.22 188.884 Q2234.44 187.518 2237.45 187.518 Q2241.5 187.518 2243.7 190.365 Q2245.9 193.189 2245.9 198.421 L2245.9 214.069 L2241.62 214.069 L2241.62 198.559 Q2241.62 194.833 2240.3 193.027 Q2238.98 191.222 2236.27 191.222 Q2232.96 191.222 2231.04 193.421 Q2229.12 195.62 2229.12 199.416 L2229.12 214.069 L2224.83 214.069 L2224.83 198.559 Q2224.83 194.809 2223.51 193.027 Q2222.19 191.222 2219.44 191.222 Q2216.18 191.222 2214.25 193.444 Q2212.33 195.643 2212.33 199.416 L2212.33 214.069 L2208.05 214.069 L2208.05 188.143 L2212.33 188.143 L2212.33 192.171 Q2213.79 189.786 2215.83 188.652 Q2217.87 187.518 2220.67 187.518 Q2223.49 187.518 2225.46 188.953 Q2227.45 190.388 2228.4 193.12 Z" fill="#000000" fill-rule="nonzero" fill-opacity="1" /><polyline clip-path="url(#clip260)" style="stroke:#3da44d; stroke-linecap:round; stroke-linejoin:round; stroke-width:4; stroke-opacity:1; fill:none" points="1519.96,248.629 1658.17,248.629 "/>
<path clip-path="url(#clip260)" d="M1681.2 231.349 L1710.44 231.349 L1710.44 235.284 L1698.17 235.284 L1698.17 265.909 L1693.47 265.909 L1693.47 235.284 L1681.2 235.284 L1681.2 231.349 Z" fill="#000000" fill-rule="nonzero" fill-opacity="1" /><path clip-path="url(#clip260)" d="M1722.82 243.964 Q1722.1 243.548 1721.25 243.362 Q1720.41 243.154 1719.4 243.154 Q1715.79 243.154 1713.84 245.515 Q1711.92 247.853 1711.92 252.251 L1711.92 265.909 L1707.64 265.909 L1707.64 239.983 L1711.92 239.983 L1711.92 244.011 Q1713.26 241.649 1715.41 240.515 Q1717.57 239.358 1720.65 239.358 Q1721.09 239.358 1721.62 239.427 Q1722.15 239.474 1722.8 239.589 L1722.82 243.964 Z" fill="#000000" fill-rule="nonzero" fill-opacity="1" /><path clip-path="url(#clip260)" d="M1739.07 252.876 Q1733.91 252.876 1731.92 254.057 Q1729.93 255.237 1729.93 258.085 Q1729.93 260.353 1731.41 261.696 Q1732.91 263.015 1735.48 263.015 Q1739.03 263.015 1741.16 260.515 Q1743.31 257.992 1743.31 253.825 L1743.31 252.876 L1739.07 252.876 M1747.57 251.117 L1747.57 265.909 L1743.31 265.909 L1743.31 261.973 Q1741.85 264.335 1739.67 265.469 Q1737.5 266.58 1734.35 266.58 Q1730.37 266.58 1728.01 264.358 Q1725.67 262.112 1725.67 258.362 Q1725.67 253.987 1728.59 251.765 Q1731.53 249.543 1737.34 249.543 L1743.31 249.543 L1743.31 249.126 Q1743.31 246.187 1741.36 244.589 Q1739.44 242.969 1735.95 242.969 Q1733.72 242.969 1731.62 243.501 Q1729.51 244.034 1727.57 245.099 L1727.57 241.163 Q1729.91 240.261 1732.1 239.821 Q1734.3 239.358 1736.39 239.358 Q1742.01 239.358 1744.79 242.274 Q1747.57 245.191 1747.57 251.117 Z" fill="#000000" fill-rule="nonzero" fill-opacity="1" /><path clip-path="url(#clip260)" d="M1773.4 243.918 L1773.4 229.89 L1777.66 229.89 L1777.66 265.909 L1773.4 265.909 L1773.4 262.02 Q1772.06 264.335 1770 265.469 Q1767.96 266.58 1765.09 266.58 Q1760.39 266.58 1757.43 262.83 Q1754.49 259.08 1754.49 252.969 Q1754.49 246.858 1757.43 243.108 Q1760.39 239.358 1765.09 239.358 Q1767.96 239.358 1770 240.492 Q1772.06 241.603 1773.4 243.918 M1758.89 252.969 Q1758.89 257.668 1760.81 260.353 Q1762.75 263.015 1766.13 263.015 Q1769.51 263.015 1771.46 260.353 Q1773.4 257.668 1773.4 252.969 Q1773.4 248.27 1771.46 245.608 Q1769.51 242.923 1766.13 242.923 Q1762.75 242.923 1760.81 245.608 Q1758.89 248.27 1758.89 252.969 Z" fill="#000000" fill-rule="nonzero" fill-opacity="1" /><path clip-path="url(#clip260)" d="M1797.22 268.316 Q1795.41 272.946 1793.7 274.358 Q1791.99 275.77 1789.12 275.77 L1785.72 275.77 L1785.72 272.205 L1788.22 272.205 Q1789.97 272.205 1790.95 271.372 Q1791.92 270.538 1793.1 267.436 L1793.86 265.492 L1783.38 239.983 L1787.89 239.983 L1795.99 260.261 L1804.09 239.983 L1808.61 239.983 L1797.22 268.316 Z" fill="#000000" fill-rule="nonzero" fill-opacity="1" /><path clip-path="url(#clip260)" d="M1833.15 240.978 L1833.15 244.96 Q1831.34 243.964 1829.51 243.478 Q1827.71 242.969 1825.85 242.969 Q1821.71 242.969 1819.42 245.608 Q1817.13 248.224 1817.13 252.969 Q1817.13 257.714 1819.42 260.353 Q1821.71 262.969 1825.85 262.969 Q1827.71 262.969 1829.51 262.483 Q1831.34 261.973 1833.15 260.978 L1833.15 264.913 Q1831.36 265.747 1829.44 266.163 Q1827.54 266.58 1825.39 266.58 Q1819.53 266.58 1816.09 262.899 Q1812.64 259.219 1812.64 252.969 Q1812.64 246.626 1816.11 242.992 Q1819.6 239.358 1825.67 239.358 Q1827.64 239.358 1829.51 239.775 Q1831.39 240.168 1833.15 240.978 Z" fill="#000000" fill-rule="nonzero" fill-opacity="1" /><path clip-path="url(#clip260)" d="M1851.34 268.316 Q1849.53 272.946 1847.82 274.358 Q1846.11 275.77 1843.24 275.77 L1839.84 275.77 L1839.84 272.205 L1842.34 272.205 Q1844.09 272.205 1845.07 271.372 Q1846.04 270.538 1847.22 267.436 L1847.98 265.492 L1837.5 239.983 L1842.01 239.983 L1850.11 260.261 L1858.22 239.983 L1862.73 239.983 L1851.34 268.316 Z" fill="#000000" fill-rule="nonzero" fill-opacity="1" /><path clip-path="url(#clip260)" d="M1868.61 239.983 L1872.87 239.983 L1872.87 266.372 Q1872.87 271.325 1870.97 273.547 Q1869.09 275.77 1864.9 275.77 L1863.28 275.77 L1863.28 272.159 L1864.42 272.159 Q1866.85 272.159 1867.73 271.024 Q1868.61 269.913 1868.61 266.372 L1868.61 239.983 M1868.61 229.89 L1872.87 229.89 L1872.87 235.284 L1868.61 235.284 L1868.61 229.89 Z" fill="#000000" fill-rule="nonzero" fill-opacity="1" /><path clip-path="url(#clip260)" d="M1903.33 250.261 L1903.33 265.909 L1899.07 265.909 L1899.07 250.399 Q1899.07 246.719 1897.64 244.89 Q1896.2 243.062 1893.33 243.062 Q1889.88 243.062 1887.89 245.261 Q1885.9 247.46 1885.9 251.256 L1885.9 265.909 L1881.62 265.909 L1881.62 239.983 L1885.9 239.983 L1885.9 244.011 Q1887.43 241.673 1889.49 240.515 Q1891.57 239.358 1894.28 239.358 Q1898.75 239.358 1901.04 242.136 Q1903.33 244.89 1903.33 250.261 Z" fill="#000000" fill-rule="nonzero" fill-opacity="1" /><path clip-path="url(#clip260)" d="M1922.61 268.316 Q1920.81 272.946 1919.09 274.358 Q1917.38 275.77 1914.51 275.77 L1911.11 275.77 L1911.11 272.205 L1913.61 272.205 Q1915.37 272.205 1916.34 271.372 Q1917.31 270.538 1918.49 267.436 L1919.26 265.492 L1908.77 239.983 L1913.28 239.983 L1921.39 260.261 L1929.49 239.983 L1934 239.983 L1922.61 268.316 Z" fill="#000000" fill-rule="nonzero" fill-opacity="1" /><path clip-path="url(#clip260)" d="M1973.56 252.969 Q1973.56 248.27 1971.62 245.608 Q1969.7 242.923 1966.32 242.923 Q1962.94 242.923 1960.99 245.608 Q1959.07 248.27 1959.07 252.969 Q1959.07 257.668 1960.99 260.353 Q1962.94 263.015 1966.32 263.015 Q1969.7 263.015 1971.62 260.353 Q1973.56 257.668 1973.56 252.969 M1959.07 243.918 Q1960.41 241.603 1962.45 240.492 Q1964.51 239.358 1967.36 239.358 Q1972.08 239.358 1975.02 243.108 Q1977.98 246.858 1977.98 252.969 Q1977.98 259.08 1975.02 262.83 Q1972.08 266.58 1967.36 266.58 Q1964.51 266.58 1962.45 265.469 Q1960.41 264.335 1959.07 262.02 L1959.07 265.909 L1954.79 265.909 L1954.79 229.89 L1959.07 229.89 L1959.07 243.918 Z" fill="#000000" fill-rule="nonzero" fill-opacity="1" /><path clip-path="url(#clip260)" d="M2007.22 251.881 L2007.22 253.964 L1987.64 253.964 Q1987.91 258.362 1990.27 260.677 Q1992.66 262.969 1996.89 262.969 Q1999.35 262.969 2001.64 262.367 Q2003.95 261.765 2006.22 260.561 L2006.22 264.589 Q2003.93 265.561 2001.52 266.071 Q1999.12 266.58 1996.64 266.58 Q1990.44 266.58 1986.8 262.969 Q1983.19 259.358 1983.19 253.2 Q1983.19 246.835 1986.62 243.108 Q1990.07 239.358 1995.9 239.358 Q2001.13 239.358 2004.16 242.737 Q2007.22 246.094 2007.22 251.881 M2002.96 250.631 Q2002.91 247.136 2000.99 245.052 Q1999.09 242.969 1995.95 242.969 Q1992.38 242.969 1990.23 244.983 Q1988.1 246.997 1987.77 250.654 L2002.96 250.631 Z" fill="#000000" fill-rule="nonzero" fill-opacity="1" /><path clip-path="url(#clip260)" d="M2012.36 239.983 L2032.59 239.983 L2032.59 243.872 L2016.57 262.506 L2032.59 262.506 L2032.59 265.909 L2011.78 265.909 L2011.78 262.02 L2027.8 243.386 L2012.36 243.386 L2012.36 239.983 Z" fill="#000000" fill-rule="nonzero" fill-opacity="1" /><path clip-path="url(#clip260)" d="M2051.69 239.983 L2055.95 239.983 L2061.27 260.214 L2066.57 239.983 L2071.59 239.983 L2076.92 260.214 L2082.22 239.983 L2086.48 239.983 L2079.7 265.909 L2074.67 265.909 L2069.09 244.659 L2063.49 265.909 L2058.47 265.909 L2051.69 239.983 Z" fill="#000000" fill-rule="nonzero" fill-opacity="1" /><path clip-path="url(#clip260)" d="M2103.72 268.316 Q2101.92 272.946 2100.2 274.358 Q2098.49 275.77 2095.62 275.77 L2092.22 275.77 L2092.22 272.205 L2094.72 272.205 Q2096.48 272.205 2097.45 271.372 Q2098.42 270.538 2099.6 267.436 L2100.37 265.492 L2089.88 239.983 L2094.39 239.983 L2102.5 260.261 L2110.6 239.983 L2115.11 239.983 L2103.72 268.316 Z" fill="#000000" fill-rule="nonzero" fill-opacity="1" /><path clip-path="url(#clip260)" d="M2139.6 252.969 Q2139.6 248.27 2137.66 245.608 Q2135.74 242.923 2132.36 242.923 Q2128.98 242.923 2127.03 245.608 Q2125.11 248.27 2125.11 252.969 Q2125.11 257.668 2127.03 260.353 Q2128.98 263.015 2132.36 263.015 Q2135.74 263.015 2137.66 260.353 Q2139.6 257.668 2139.6 252.969 M2125.11 243.918 Q2126.45 241.603 2128.49 240.492 Q2130.55 239.358 2133.4 239.358 Q2138.12 239.358 2141.06 243.108 Q2144.02 246.858 2144.02 252.969 Q2144.02 259.08 2141.06 262.83 Q2138.12 266.58 2133.4 266.58 Q2130.55 266.58 2128.49 265.469 Q2126.45 264.335 2125.11 262.02 L2125.11 265.909 L2120.83 265.909 L2120.83 229.89 L2125.11 229.89 L2125.11 243.918 Z" fill="#000000" fill-rule="nonzero" fill-opacity="1" /><path clip-path="url(#clip260)" d="M2161.13 242.969 Q2157.7 242.969 2155.71 245.654 Q2153.72 248.316 2153.72 252.969 Q2153.72 257.622 2155.69 260.307 Q2157.68 262.969 2161.13 262.969 Q2164.53 262.969 2166.52 260.284 Q2168.51 257.598 2168.51 252.969 Q2168.51 248.362 2166.52 245.677 Q2164.53 242.969 2161.13 242.969 M2161.13 239.358 Q2166.69 239.358 2169.86 242.969 Q2173.03 246.58 2173.03 252.969 Q2173.03 259.335 2169.86 262.969 Q2166.69 266.58 2161.13 266.58 Q2155.55 266.58 2152.38 262.969 Q2149.23 259.335 2149.23 252.969 Q2149.23 246.58 2152.38 242.969 Q2155.55 239.358 2161.13 239.358 Z" fill="#000000" fill-rule="nonzero" fill-opacity="1" /><path clip-path="url(#clip260)" d="M2195.11 243.964 Q2194.39 243.548 2193.54 243.362 Q2192.7 243.154 2191.69 243.154 Q2188.07 243.154 2186.13 245.515 Q2184.21 247.853 2184.21 252.251 L2184.21 265.909 L2179.93 265.909 L2179.93 239.983 L2184.21 239.983 L2184.21 244.011 Q2185.55 241.649 2187.7 240.515 Q2189.86 239.358 2192.94 239.358 Q2193.38 239.358 2193.91 239.427 Q2194.44 239.474 2195.09 239.589 L2195.11 243.964 Z" fill="#000000" fill-rule="nonzero" fill-opacity="1" /><path clip-path="url(#clip260)" d="M2199.14 255.677 L2199.14 239.983 L2203.4 239.983 L2203.4 255.515 Q2203.4 259.196 2204.83 261.048 Q2206.27 262.876 2209.14 262.876 Q2212.59 262.876 2214.58 260.677 Q2216.59 258.478 2216.59 254.682 L2216.59 239.983 L2220.85 239.983 L2220.85 265.909 L2216.59 265.909 L2216.59 261.927 Q2215.04 264.288 2212.98 265.446 Q2210.94 266.58 2208.24 266.58 Q2203.77 266.58 2201.45 263.802 Q2199.14 261.024 2199.14 255.677 M2209.86 239.358 L2209.86 239.358 Z" fill="#000000" fill-rule="nonzero" fill-opacity="1" /></svg>
