<?xml version="1.0" encoding="utf-8"?>
<svg xmlns="http://www.w3.org/2000/svg" xmlns:xlink="http://www.w3.org/1999/xlink" width="600" height="400" viewBox="0 0 2400 1600">
<defs>
  <clipPath id="clip550">
    <rect x="0" y="0" width="2400" height="1600"/>
  </clipPath>
</defs>
<path clip-path="url(#clip550)" d="M0 1600 L2400 1600 L2400 0 L0 0  Z" fill="#ffffff" fill-rule="evenodd" fill-opacity="1"/>
<defs>
  <clipPath id="clip551">
    <rect x="480" y="0" width="1681" height="1600"/>
  </clipPath>
</defs>
<path clip-path="url(#clip550)" d="M277.27 1410.9 L2352.76 1410.9 L2352.76 47.2441 L277.27 47.2441  Z" fill="#ffffff" fill-rule="evenodd" fill-opacity="1"/>
<defs>
  <clipPath id="clip552">
    <rect x="277" y="47" width="2076" height="1365"/>
  </clipPath>
</defs>
<polyline clip-path="url(#clip552)" style="stroke:#000000; stroke-linecap:round; stroke-linejoin:round; stroke-width:2; stroke-opacity:0.1; fill:none" points="335.948,1410.9 335.948,47.2441 "/>
<polyline clip-path="url(#clip552)" style="stroke:#000000; stroke-linecap:round; stroke-linejoin:round; stroke-width:2; stroke-opacity:0.1; fill:none" points="727.562,1410.9 727.562,47.2441 "/>
<polyline clip-path="url(#clip552)" style="stroke:#000000; stroke-linecap:round; stroke-linejoin:round; stroke-width:2; stroke-opacity:0.1; fill:none" points="1119.18,1410.9 1119.18,47.2441 "/>
<polyline clip-path="url(#clip552)" style="stroke:#000000; stroke-linecap:round; stroke-linejoin:round; stroke-width:2; stroke-opacity:0.1; fill:none" points="1510.79,1410.9 1510.79,47.2441 "/>
<polyline clip-path="url(#clip552)" style="stroke:#000000; stroke-linecap:round; stroke-linejoin:round; stroke-width:2; stroke-opacity:0.1; fill:none" points="1902.4,1410.9 1902.4,47.2441 "/>
<polyline clip-path="url(#clip552)" style="stroke:#000000; stroke-linecap:round; stroke-linejoin:round; stroke-width:2; stroke-opacity:0.1; fill:none" points="2294.02,1410.9 2294.02,47.2441 "/>
<polyline clip-path="url(#clip550)" style="stroke:#000000; stroke-linecap:round; stroke-linejoin:round; stroke-width:4; stroke-opacity:1; fill:none" points="277.27,1410.9 2352.76,1410.9 "/>
<polyline clip-path="url(#clip550)" style="stroke:#000000; stroke-linecap:round; stroke-linejoin:round; stroke-width:4; stroke-opacity:1; fill:none" points="335.948,1410.9 335.948,1392 "/>
<polyline clip-path="url(#clip550)" style="stroke:#000000; stroke-linecap:round; stroke-linejoin:round; stroke-width:4; stroke-opacity:1; fill:none" points="727.562,1410.9 727.562,1392 "/>
<polyline clip-path="url(#clip550)" style="stroke:#000000; stroke-linecap:round; stroke-linejoin:round; stroke-width:4; stroke-opacity:1; fill:none" points="1119.18,1410.9 1119.18,1392 "/>
<polyline clip-path="url(#clip550)" style="stroke:#000000; stroke-linecap:round; stroke-linejoin:round; stroke-width:4; stroke-opacity:1; fill:none" points="1510.79,1410.9 1510.79,1392 "/>
<polyline clip-path="url(#clip550)" style="stroke:#000000; stroke-linecap:round; stroke-linejoin:round; stroke-width:4; stroke-opacity:1; fill:none" points="1902.4,1410.9 1902.4,1392 "/>
<polyline clip-path="url(#clip550)" style="stroke:#000000; stroke-linecap:round; stroke-linejoin:round; stroke-width:4; stroke-opacity:1; fill:none" points="2294.02,1410.9 2294.02,1392 "/>
<path clip-path="url(#clip550)" d="M335.948 1441.82 Q332.337 1441.82 330.508 1445.38 Q328.703 1448.92 328.703 1456.05 Q328.703 1463.16 330.508 1466.72 Q332.337 1470.26 335.948 1470.26 Q339.582 1470.26 341.388 1466.72 Q343.216 1463.16 343.216 1456.05 Q343.216 1448.92 341.388 1445.38 Q339.582 1441.82 335.948 1441.82 M335.948 1438.11 Q341.758 1438.11 344.814 1442.72 Q347.892 1447.3 347.892 1456.05 Q347.892 1464.78 344.814 1469.38 Q341.758 1473.97 335.948 1473.97 Q330.138 1473.97 327.059 1469.38 Q324.004 1464.78 324.004 1456.05 Q324.004 1447.3 327.059 1442.72 Q330.138 1438.11 335.948 1438.11 Z" fill="#000000" fill-rule="nonzero" fill-opacity="1" /><path clip-path="url(#clip550)" d="M635.607 1485.02 L643.246 1485.02 L643.246 1458.66 L634.936 1460.32 L634.936 1456.06 L643.2 1454.4 L647.876 1454.4 L647.876 1485.02 L655.515 1485.02 L655.515 1488.96 L635.607 1488.96 L635.607 1485.02 Z" fill="#000000" fill-rule="nonzero" fill-opacity="1" /><path clip-path="url(#clip550)" d="M664.959 1483.08 L669.843 1483.08 L669.843 1488.96 L664.959 1488.96 L664.959 1483.08 Z" fill="#000000" fill-rule="nonzero" fill-opacity="1" /><path clip-path="url(#clip550)" d="M690.028 1457.48 Q686.417 1457.48 684.589 1461.04 Q682.783 1464.58 682.783 1471.71 Q682.783 1478.82 684.589 1482.38 Q686.417 1485.92 690.028 1485.92 Q693.663 1485.92 695.468 1482.38 Q697.297 1478.82 697.297 1471.71 Q697.297 1464.58 695.468 1461.04 Q693.663 1457.48 690.028 1457.48 M690.028 1453.77 Q695.839 1453.77 698.894 1458.38 Q701.973 1462.96 701.973 1471.71 Q701.973 1480.44 698.894 1485.04 Q695.839 1489.63 690.028 1489.63 Q684.218 1489.63 681.14 1485.04 Q678.084 1480.44 678.084 1471.71 Q678.084 1462.96 681.14 1458.38 Q684.218 1453.77 690.028 1453.77 Z" fill="#000000" fill-rule="nonzero" fill-opacity="1" /><path clip-path="url(#clip550)" d="M738.362 1463.49 L727.783 1474.12 L738.362 1484.7 L735.607 1487.5 L724.982 1476.87 L714.357 1487.5 L711.626 1484.7 L722.181 1474.12 L711.626 1463.49 L714.357 1460.69 L724.982 1471.32 L735.607 1460.69 L738.362 1463.49 Z" fill="#000000" fill-rule="nonzero" fill-opacity="1" /><path clip-path="url(#clip550)" d="M750.723 1485.02 L758.361 1485.02 L758.361 1458.66 L750.051 1460.32 L750.051 1456.06 L758.315 1454.4 L762.991 1454.4 L762.991 1485.02 L770.63 1485.02 L770.63 1488.96 L750.723 1488.96 L750.723 1485.02 Z" fill="#000000" fill-rule="nonzero" fill-opacity="1" /><path clip-path="url(#clip550)" d="M790.074 1457.48 Q786.463 1457.48 784.634 1461.04 Q782.829 1464.58 782.829 1471.71 Q782.829 1478.82 784.634 1482.38 Q786.463 1485.92 790.074 1485.92 Q793.708 1485.92 795.514 1482.38 Q797.343 1478.82 797.343 1471.71 Q797.343 1464.58 795.514 1461.04 Q793.708 1457.48 790.074 1457.48 M790.074 1453.77 Q795.884 1453.77 798.94 1458.38 Q802.019 1462.96 802.019 1471.71 Q802.019 1480.44 798.94 1485.04 Q795.884 1489.63 790.074 1489.63 Q784.264 1489.63 781.185 1485.04 Q778.13 1480.44 778.13 1471.71 Q778.13 1462.96 781.185 1458.38 Q784.264 1453.77 790.074 1453.77 Z" fill="#000000" fill-rule="nonzero" fill-opacity="1" /><path clip-path="url(#clip550)" d="M803.203 1433.47 L818.118 1433.47 L818.118 1436.66 L806.683 1436.66 L806.683 1443.55 Q807.51 1443.27 808.338 1443.13 Q809.166 1442.98 809.993 1442.98 Q814.695 1442.98 817.441 1445.56 Q820.187 1448.14 820.187 1452.54 Q820.187 1457.07 817.366 1459.59 Q814.545 1462.09 809.41 1462.09 Q807.642 1462.09 805.799 1461.79 Q803.975 1461.49 802.019 1460.89 L802.019 1457.07 Q803.711 1457.99 805.517 1458.44 Q807.322 1458.89 809.335 1458.89 Q812.589 1458.89 814.488 1457.18 Q816.388 1455.47 816.388 1452.54 Q816.388 1449.6 814.488 1447.89 Q812.589 1446.18 809.335 1446.18 Q807.811 1446.18 806.288 1446.52 Q804.783 1446.86 803.203 1447.57 L803.203 1433.47 Z" fill="#000000" fill-rule="nonzero" fill-opacity="1" /><path clip-path="url(#clip550)" d="M1031.31 1485.02 L1047.63 1485.02 L1047.63 1488.96 L1025.68 1488.96 L1025.68 1485.02 Q1028.34 1482.27 1032.93 1477.64 Q1037.53 1472.98 1038.71 1471.64 Q1040.96 1469.12 1041.84 1467.38 Q1042.74 1465.62 1042.74 1463.93 Q1042.74 1461.18 1040.8 1459.44 Q1038.88 1457.71 1035.77 1457.71 Q1033.58 1457.71 1031.12 1458.47 Q1028.69 1459.23 1025.91 1460.79 L1025.91 1456.06 Q1028.74 1454.93 1031.19 1454.35 Q1033.64 1453.77 1035.68 1453.77 Q1041.05 1453.77 1044.25 1456.46 Q1047.44 1459.14 1047.44 1463.63 Q1047.44 1465.76 1046.63 1467.68 Q1045.84 1469.58 1043.74 1472.17 Q1043.16 1472.85 1040.06 1476.06 Q1036.95 1479.26 1031.31 1485.02 Z" fill="#000000" fill-rule="nonzero" fill-opacity="1" /><path clip-path="url(#clip550)" d="M1057.44 1483.08 L1062.32 1483.08 L1062.32 1488.96 L1057.44 1488.96 L1057.44 1483.08 Z" fill="#000000" fill-rule="nonzero" fill-opacity="1" /><path clip-path="url(#clip550)" d="M1082.51 1457.48 Q1078.9 1457.48 1077.07 1461.04 Q1075.26 1464.58 1075.26 1471.71 Q1075.26 1478.82 1077.07 1482.38 Q1078.9 1485.92 1082.51 1485.92 Q1086.14 1485.92 1087.95 1482.38 Q1089.78 1478.82 1089.78 1471.71 Q1089.78 1464.58 1087.95 1461.04 Q1086.14 1457.48 1082.51 1457.48 M1082.51 1453.77 Q1088.32 1453.77 1091.38 1458.38 Q1094.45 1462.96 1094.45 1471.71 Q1094.45 1480.44 1091.38 1485.04 Q1088.32 1489.63 1082.51 1489.63 Q1076.7 1489.63 1073.62 1485.04 Q1070.57 1480.44 1070.57 1471.71 Q1070.57 1462.96 1073.62 1458.38 Q1076.7 1453.77 1082.51 1453.77 Z" fill="#000000" fill-rule="nonzero" fill-opacity="1" /><path clip-path="url(#clip550)" d="M1130.84 1463.49 L1120.26 1474.12 L1130.84 1484.7 L1128.09 1487.5 L1117.46 1476.87 L1106.84 1487.5 L1104.11 1484.7 L1114.66 1474.12 L1104.11 1463.49 L1106.84 1460.69 L1117.46 1471.32 L1128.09 1460.69 L1130.84 1463.49 Z" fill="#000000" fill-rule="nonzero" fill-opacity="1" /><path clip-path="url(#clip550)" d="M1143.2 1485.02 L1150.84 1485.02 L1150.84 1458.66 L1142.53 1460.32 L1142.53 1456.06 L1150.8 1454.4 L1155.47 1454.4 L1155.47 1485.02 L1163.11 1485.02 L1163.11 1488.96 L1143.2 1488.96 L1143.2 1485.02 Z" fill="#000000" fill-rule="nonzero" fill-opacity="1" /><path clip-path="url(#clip550)" d="M1182.56 1457.48 Q1178.94 1457.48 1177.12 1461.04 Q1175.31 1464.58 1175.31 1471.71 Q1175.31 1478.82 1177.12 1482.38 Q1178.94 1485.92 1182.56 1485.92 Q1186.19 1485.92 1188 1482.38 Q1189.82 1478.82 1189.82 1471.71 Q1189.82 1464.58 1188 1461.04 Q1186.19 1457.48 1182.56 1457.48 M1182.56 1453.77 Q1188.37 1453.77 1191.42 1458.38 Q1194.5 1462.96 1194.5 1471.71 Q1194.5 1480.44 1191.42 1485.04 Q1188.37 1489.63 1182.56 1489.63 Q1176.75 1489.63 1173.67 1485.04 Q1170.61 1480.44 1170.61 1471.71 Q1170.61 1462.96 1173.67 1458.38 Q1176.75 1453.77 1182.56 1453.77 Z" fill="#000000" fill-rule="nonzero" fill-opacity="1" /><path clip-path="url(#clip550)" d="M1195.69 1433.47 L1210.6 1433.47 L1210.6 1436.66 L1199.16 1436.66 L1199.16 1443.55 Q1199.99 1443.27 1200.82 1443.13 Q1201.65 1442.98 1202.47 1442.98 Q1207.18 1442.98 1209.92 1445.56 Q1212.67 1448.14 1212.67 1452.54 Q1212.67 1457.07 1209.85 1459.59 Q1207.03 1462.09 1201.89 1462.09 Q1200.12 1462.09 1198.28 1461.79 Q1196.46 1461.49 1194.5 1460.89 L1194.5 1457.07 Q1196.19 1457.99 1198 1458.44 Q1199.8 1458.89 1201.82 1458.89 Q1205.07 1458.89 1206.97 1457.18 Q1208.87 1455.47 1208.87 1452.54 Q1208.87 1449.6 1206.97 1447.89 Q1205.07 1446.18 1201.82 1446.18 Q1200.29 1446.18 1198.77 1446.52 Q1197.26 1446.86 1195.69 1447.57 L1195.69 1433.47 Z" fill="#000000" fill-rule="nonzero" fill-opacity="1" /><path clip-path="url(#clip550)" d="M1432.99 1470.32 Q1436.35 1471.04 1438.22 1473.31 Q1440.12 1475.58 1440.12 1478.91 Q1440.12 1484.03 1436.6 1486.83 Q1433.08 1489.63 1426.6 1489.63 Q1424.42 1489.63 1422.11 1489.19 Q1419.82 1488.77 1417.36 1487.91 L1417.36 1483.4 Q1419.31 1484.54 1421.62 1485.11 Q1423.94 1485.69 1426.46 1485.69 Q1430.86 1485.69 1433.15 1483.96 Q1435.47 1482.22 1435.47 1478.91 Q1435.47 1475.85 1433.31 1474.14 Q1431.18 1472.41 1427.36 1472.41 L1423.34 1472.41 L1423.34 1468.56 L1427.55 1468.56 Q1431 1468.56 1432.83 1467.2 Q1434.66 1465.81 1434.66 1463.22 Q1434.66 1460.55 1432.76 1459.14 Q1430.88 1457.71 1427.36 1457.71 Q1425.44 1457.71 1423.24 1458.12 Q1421.05 1458.54 1418.41 1459.42 L1418.41 1455.25 Q1421.07 1454.51 1423.38 1454.14 Q1425.72 1453.77 1427.78 1453.77 Q1433.11 1453.77 1436.21 1456.2 Q1439.31 1458.61 1439.31 1462.73 Q1439.31 1465.6 1437.67 1467.59 Q1436.02 1469.56 1432.99 1470.32 Z" fill="#000000" fill-rule="nonzero" fill-opacity="1" /><path clip-path="url(#clip550)" d="M1448.98 1483.08 L1453.87 1483.08 L1453.87 1488.96 L1448.98 1488.96 L1448.98 1483.08 Z" fill="#000000" fill-rule="nonzero" fill-opacity="1" /><path clip-path="url(#clip550)" d="M1474.05 1457.48 Q1470.44 1457.48 1468.61 1461.04 Q1466.81 1464.58 1466.81 1471.71 Q1466.81 1478.82 1468.61 1482.38 Q1470.44 1485.92 1474.05 1485.92 Q1477.69 1485.92 1479.49 1482.38 Q1481.32 1478.82 1481.32 1471.71 Q1481.32 1464.58 1479.49 1461.04 Q1477.69 1457.48 1474.05 1457.48 M1474.05 1453.77 Q1479.86 1453.77 1482.92 1458.38 Q1486 1462.96 1486 1471.71 Q1486 1480.44 1482.92 1485.04 Q1479.86 1489.63 1474.05 1489.63 Q1468.24 1489.63 1465.17 1485.04 Q1462.11 1480.44 1462.11 1471.71 Q1462.11 1462.96 1465.17 1458.38 Q1468.24 1453.77 1474.05 1453.77 Z" fill="#000000" fill-rule="nonzero" fill-opacity="1" /><path clip-path="url(#clip550)" d="M1522.39 1463.49 L1511.81 1474.12 L1522.39 1484.7 L1519.63 1487.5 L1509.01 1476.87 L1498.38 1487.5 L1495.65 1484.7 L1506.21 1474.12 L1495.65 1463.49 L1498.38 1460.69 L1509.01 1471.32 L1519.63 1460.69 L1522.39 1463.49 Z" fill="#000000" fill-rule="nonzero" fill-opacity="1" /><path clip-path="url(#clip550)" d="M1534.75 1485.02 L1542.39 1485.02 L1542.39 1458.66 L1534.08 1460.32 L1534.08 1456.06 L1542.34 1454.4 L1547.02 1454.4 L1547.02 1485.02 L1554.66 1485.02 L1554.66 1488.96 L1534.75 1488.96 L1534.75 1485.02 Z" fill="#000000" fill-rule="nonzero" fill-opacity="1" /><path clip-path="url(#clip550)" d="M1574.1 1457.48 Q1570.49 1457.48 1568.66 1461.04 Q1566.85 1464.58 1566.85 1471.71 Q1566.85 1478.82 1568.66 1482.38 Q1570.49 1485.92 1574.1 1485.92 Q1577.73 1485.92 1579.54 1482.38 Q1581.37 1478.82 1581.37 1471.71 Q1581.37 1464.58 1579.54 1461.04 Q1577.73 1457.48 1574.1 1457.48 M1574.1 1453.77 Q1579.91 1453.77 1582.97 1458.38 Q1586.04 1462.96 1586.04 1471.71 Q1586.04 1480.44 1582.97 1485.04 Q1579.91 1489.63 1574.1 1489.63 Q1568.29 1489.63 1565.21 1485.04 Q1562.16 1480.44 1562.16 1471.71 Q1562.16 1462.96 1565.21 1458.38 Q1568.29 1453.77 1574.1 1453.77 Z" fill="#000000" fill-rule="nonzero" fill-opacity="1" /><path clip-path="url(#clip550)" d="M1587.23 1433.47 L1602.14 1433.47 L1602.14 1436.66 L1590.71 1436.66 L1590.71 1443.55 Q1591.54 1443.27 1592.36 1443.13 Q1593.19 1442.98 1594.02 1442.98 Q1598.72 1442.98 1601.47 1445.56 Q1604.21 1448.14 1604.21 1452.54 Q1604.21 1457.07 1601.39 1459.59 Q1598.57 1462.09 1593.44 1462.09 Q1591.67 1462.09 1589.82 1461.79 Q1588 1461.49 1586.04 1460.89 L1586.04 1457.07 Q1587.74 1457.99 1589.54 1458.44 Q1591.35 1458.89 1593.36 1458.89 Q1596.61 1458.89 1598.51 1457.18 Q1600.41 1455.47 1600.41 1452.54 Q1600.41 1449.6 1598.51 1447.89 Q1596.61 1446.18 1593.36 1446.18 Q1591.84 1446.18 1590.31 1446.52 Q1588.81 1446.86 1587.23 1447.57 L1587.23 1433.47 Z" fill="#000000" fill-rule="nonzero" fill-opacity="1" /><path clip-path="url(#clip550)" d="M1823.93 1458.47 L1812.13 1476.92 L1823.93 1476.92 L1823.93 1458.47 M1822.7 1454.4 L1828.58 1454.4 L1828.58 1476.92 L1833.52 1476.92 L1833.52 1480.81 L1828.58 1480.81 L1828.58 1488.96 L1823.93 1488.96 L1823.93 1480.81 L1808.33 1480.81 L1808.33 1476.29 L1822.7 1454.4 Z" fill="#000000" fill-rule="nonzero" fill-opacity="1" /><path clip-path="url(#clip550)" d="M1841.25 1483.08 L1846.13 1483.08 L1846.13 1488.96 L1841.25 1488.96 L1841.25 1483.08 Z" fill="#000000" fill-rule="nonzero" fill-opacity="1" /><path clip-path="url(#clip550)" d="M1866.32 1457.48 Q1862.7 1457.48 1860.88 1461.04 Q1859.07 1464.58 1859.07 1471.71 Q1859.07 1478.82 1860.88 1482.38 Q1862.7 1485.92 1866.32 1485.92 Q1869.95 1485.92 1871.76 1482.38 Q1873.58 1478.82 1873.58 1471.71 Q1873.58 1464.58 1871.76 1461.04 Q1869.95 1457.48 1866.32 1457.48 M1866.32 1453.77 Q1872.13 1453.77 1875.18 1458.38 Q1878.26 1462.96 1878.26 1471.71 Q1878.26 1480.44 1875.18 1485.04 Q1872.13 1489.63 1866.32 1489.63 Q1860.51 1489.63 1857.43 1485.04 Q1854.37 1480.44 1854.37 1471.71 Q1854.37 1462.96 1857.43 1458.38 Q1860.51 1453.77 1866.32 1453.77 Z" fill="#000000" fill-rule="nonzero" fill-opacity="1" /><path clip-path="url(#clip550)" d="M1914.65 1463.49 L1904.07 1474.12 L1914.65 1484.7 L1911.89 1487.5 L1901.27 1476.87 L1890.64 1487.5 L1887.91 1484.7 L1898.47 1474.12 L1887.91 1463.49 L1890.64 1460.69 L1901.27 1471.32 L1911.89 1460.69 L1914.65 1463.49 Z" fill="#000000" fill-rule="nonzero" fill-opacity="1" /><path clip-path="url(#clip550)" d="M1927.01 1485.02 L1934.65 1485.02 L1934.65 1458.66 L1926.34 1460.32 L1926.34 1456.06 L1934.6 1454.4 L1939.28 1454.4 L1939.28 1485.02 L1946.92 1485.02 L1946.92 1488.96 L1927.01 1488.96 L1927.01 1485.02 Z" fill="#000000" fill-rule="nonzero" fill-opacity="1" /><path clip-path="url(#clip550)" d="M1966.36 1457.48 Q1962.75 1457.48 1960.92 1461.04 Q1959.12 1464.58 1959.12 1471.71 Q1959.12 1478.82 1960.92 1482.38 Q1962.75 1485.92 1966.36 1485.92 Q1970 1485.92 1971.8 1482.38 Q1973.63 1478.82 1973.63 1471.71 Q1973.63 1464.58 1971.8 1461.04 Q1970 1457.48 1966.36 1457.48 M1966.36 1453.77 Q1972.17 1453.77 1975.23 1458.38 Q1978.31 1462.96 1978.31 1471.71 Q1978.31 1480.44 1975.23 1485.04 Q1972.17 1489.63 1966.36 1489.63 Q1960.55 1489.63 1957.47 1485.04 Q1954.42 1480.44 1954.42 1471.71 Q1954.42 1462.96 1957.47 1458.38 Q1960.55 1453.77 1966.36 1453.77 Z" fill="#000000" fill-rule="nonzero" fill-opacity="1" /><path clip-path="url(#clip550)" d="M1979.49 1433.47 L1994.41 1433.47 L1994.41 1436.66 L1982.97 1436.66 L1982.97 1443.55 Q1983.8 1443.27 1984.63 1443.13 Q1985.45 1442.98 1986.28 1442.98 Q1990.98 1442.98 1993.73 1445.56 Q1996.47 1448.14 1996.47 1452.54 Q1996.47 1457.07 1993.65 1459.59 Q1990.83 1462.09 1985.7 1462.09 Q1983.93 1462.09 1982.09 1461.79 Q1980.26 1461.49 1978.31 1460.89 L1978.31 1457.07 Q1980 1457.99 1981.8 1458.44 Q1983.61 1458.89 1985.62 1458.89 Q1988.88 1458.89 1990.78 1457.18 Q1992.68 1455.47 1992.68 1452.54 Q1992.68 1449.6 1990.78 1447.89 Q1988.88 1446.18 1985.62 1446.18 Q1984.1 1446.18 1982.58 1446.52 Q1981.07 1446.86 1979.49 1447.57 L1979.49 1433.47 Z" fill="#000000" fill-rule="nonzero" fill-opacity="1" /><path clip-path="url(#clip550)" d="M2202.07 1454.4 L2220.43 1454.4 L2220.43 1458.33 L2206.36 1458.33 L2206.36 1466.8 Q2207.37 1466.46 2208.39 1466.29 Q2209.41 1466.11 2210.43 1466.11 Q2216.22 1466.11 2219.6 1469.28 Q2222.98 1472.45 2222.98 1477.87 Q2222.98 1483.45 2219.5 1486.55 Q2216.03 1489.63 2209.71 1489.63 Q2207.54 1489.63 2205.27 1489.26 Q2203.02 1488.89 2200.61 1488.15 L2200.61 1483.45 Q2202.7 1484.58 2204.92 1485.14 Q2207.14 1485.69 2209.62 1485.69 Q2213.62 1485.69 2215.96 1483.59 Q2218.3 1481.48 2218.3 1477.87 Q2218.3 1474.26 2215.96 1472.15 Q2213.62 1470.04 2209.62 1470.04 Q2207.74 1470.04 2205.87 1470.46 Q2204.02 1470.88 2202.07 1471.76 L2202.07 1454.4 Z" fill="#000000" fill-rule="nonzero" fill-opacity="1" /><path clip-path="url(#clip550)" d="M2232.19 1483.08 L2237.07 1483.08 L2237.07 1488.96 L2232.19 1488.96 L2232.19 1483.08 Z" fill="#000000" fill-rule="nonzero" fill-opacity="1" /><path clip-path="url(#clip550)" d="M2257.26 1457.48 Q2253.65 1457.48 2251.82 1461.04 Q2250.01 1464.58 2250.01 1471.71 Q2250.01 1478.82 2251.82 1482.38 Q2253.65 1485.92 2257.26 1485.92 Q2260.89 1485.92 2262.7 1482.38 Q2264.53 1478.82 2264.53 1471.71 Q2264.53 1464.58 2262.7 1461.04 Q2260.89 1457.48 2257.26 1457.48 M2257.26 1453.77 Q2263.07 1453.77 2266.12 1458.38 Q2269.2 1462.96 2269.2 1471.71 Q2269.2 1480.44 2266.12 1485.04 Q2263.07 1489.63 2257.26 1489.63 Q2251.45 1489.63 2248.37 1485.04 Q2245.31 1480.44 2245.31 1471.71 Q2245.31 1462.96 2248.37 1458.38 Q2251.45 1453.77 2257.26 1453.77 Z" fill="#000000" fill-rule="nonzero" fill-opacity="1" /><path clip-path="url(#clip550)" d="M2305.59 1463.49 L2295.01 1474.12 L2305.59 1484.7 L2302.84 1487.5 L2292.21 1476.87 L2281.59 1487.5 L2278.86 1484.7 L2289.41 1474.12 L2278.86 1463.49 L2281.59 1460.69 L2292.21 1471.32 L2302.84 1460.69 L2305.59 1463.49 Z" fill="#000000" fill-rule="nonzero" fill-opacity="1" /><path clip-path="url(#clip550)" d="M2317.95 1485.02 L2325.59 1485.02 L2325.59 1458.66 L2317.28 1460.32 L2317.28 1456.06 L2325.54 1454.4 L2330.22 1454.4 L2330.22 1485.02 L2337.86 1485.02 L2337.86 1488.96 L2317.95 1488.96 L2317.95 1485.02 Z" fill="#000000" fill-rule="nonzero" fill-opacity="1" /><path clip-path="url(#clip550)" d="M2357.3 1457.48 Q2353.69 1457.48 2351.86 1461.04 Q2350.06 1464.58 2350.06 1471.71 Q2350.06 1478.82 2351.86 1482.38 Q2353.69 1485.92 2357.3 1485.92 Q2360.94 1485.92 2362.74 1482.38 Q2364.57 1478.82 2364.57 1471.71 Q2364.57 1464.58 2362.74 1461.04 Q2360.94 1457.48 2357.3 1457.48 M2357.3 1453.77 Q2363.11 1453.77 2366.17 1458.38 Q2369.25 1462.96 2369.25 1471.71 Q2369.25 1480.44 2366.17 1485.04 Q2363.11 1489.63 2357.3 1489.63 Q2351.49 1489.63 2348.42 1485.04 Q2345.36 1480.44 2345.36 1471.71 Q2345.36 1462.96 2348.42 1458.38 Q2351.49 1453.77 2357.3 1453.77 Z" fill="#000000" fill-rule="nonzero" fill-opacity="1" /><path clip-path="url(#clip550)" d="M2370.43 1433.47 L2385.35 1433.47 L2385.35 1436.66 L2373.91 1436.66 L2373.91 1443.55 Q2374.74 1443.27 2375.57 1443.13 Q2376.4 1442.98 2377.22 1442.98 Q2381.92 1442.98 2384.67 1445.56 Q2387.42 1448.14 2387.42 1452.54 Q2387.42 1457.07 2384.6 1459.59 Q2381.77 1462.09 2376.64 1462.09 Q2374.87 1462.09 2373.03 1461.79 Q2371.2 1461.49 2369.25 1460.89 L2369.25 1457.07 Q2370.94 1457.99 2372.75 1458.44 Q2374.55 1458.89 2376.56 1458.89 Q2379.82 1458.89 2381.72 1457.18 Q2383.62 1455.47 2383.62 1452.54 Q2383.62 1449.6 2381.72 1447.89 Q2379.82 1446.18 2376.56 1446.18 Q2375.04 1446.18 2373.52 1446.52 Q2372.01 1446.86 2370.43 1447.57 L2370.43 1433.47 Z" fill="#000000" fill-rule="nonzero" fill-opacity="1" /><path clip-path="url(#clip550)" d="M1329.94 1552.67 L1329.94 1574.19 L1324.08 1574.19 L1324.08 1552.86 Q1324.08 1547.8 1322.11 1545.29 Q1320.14 1542.77 1316.19 1542.77 Q1311.45 1542.77 1308.71 1545.79 Q1305.97 1548.82 1305.97 1554.04 L1305.97 1574.19 L1300.09 1574.19 L1300.09 1538.54 L1305.97 1538.54 L1305.97 1544.08 Q1308.07 1540.86 1310.91 1539.27 Q1313.77 1537.68 1317.5 1537.68 Q1323.64 1537.68 1326.79 1541.5 Q1329.94 1545.29 1329.94 1552.67 Z" fill="#000000" fill-rule="nonzero" fill-opacity="1" /><polyline clip-path="url(#clip552)" style="stroke:#000000; stroke-linecap:round; stroke-linejoin:round; stroke-width:2; stroke-opacity:0.1; fill:none" points="277.27,1410.9 2352.76,1410.9 "/>
<polyline clip-path="url(#clip552)" style="stroke:#000000; stroke-linecap:round; stroke-linejoin:round; stroke-width:2; stroke-opacity:0.1; fill:none" points="277.27,1069.98 2352.76,1069.98 "/>
<polyline clip-path="url(#clip552)" style="stroke:#000000; stroke-linecap:round; stroke-linejoin:round; stroke-width:2; stroke-opacity:0.1; fill:none" points="277.27,729.07 2352.76,729.07 "/>
<polyline clip-path="url(#clip552)" style="stroke:#000000; stroke-linecap:round; stroke-linejoin:round; stroke-width:2; stroke-opacity:0.1; fill:none" points="277.27,388.157 2352.76,388.157 "/>
<polyline clip-path="url(#clip552)" style="stroke:#000000; stroke-linecap:round; stroke-linejoin:round; stroke-width:2; stroke-opacity:0.1; fill:none" points="277.27,47.2441 2352.76,47.2441 "/>
<polyline clip-path="url(#clip550)" style="stroke:#000000; stroke-linecap:round; stroke-linejoin:round; stroke-width:4; stroke-opacity:1; fill:none" points="277.27,1410.9 277.27,47.2441 "/>
<polyline clip-path="url(#clip550)" style="stroke:#000000; stroke-linecap:round; stroke-linejoin:round; stroke-width:4; stroke-opacity:1; fill:none" points="277.27,1410.9 296.168,1410.9 "/>
<polyline clip-path="url(#clip550)" style="stroke:#000000; stroke-linecap:round; stroke-linejoin:round; stroke-width:4; stroke-opacity:1; fill:none" points="277.27,1069.98 296.168,1069.98 "/>
<polyline clip-path="url(#clip550)" style="stroke:#000000; stroke-linecap:round; stroke-linejoin:round; stroke-width:4; stroke-opacity:1; fill:none" points="277.27,729.07 296.168,729.07 "/>
<polyline clip-path="url(#clip550)" style="stroke:#000000; stroke-linecap:round; stroke-linejoin:round; stroke-width:4; stroke-opacity:1; fill:none" points="277.27,388.157 296.168,388.157 "/>
<polyline clip-path="url(#clip550)" style="stroke:#000000; stroke-linecap:round; stroke-linejoin:round; stroke-width:4; stroke-opacity:1; fill:none" points="277.27,47.2441 296.168,47.2441 "/>
<path clip-path="url(#clip550)" d="M115.195 1430.69 L122.834 1430.69 L122.834 1404.32 L114.523 1405.99 L114.523 1401.73 L122.787 1400.06 L127.463 1400.06 L127.463 1430.69 L135.102 1430.69 L135.102 1434.62 L115.195 1434.62 L115.195 1430.69 Z" fill="#000000" fill-rule="nonzero" fill-opacity="1" /><path clip-path="url(#clip550)" d="M154.546 1403.14 Q150.935 1403.14 149.107 1406.71 Q147.301 1410.25 147.301 1417.38 Q147.301 1424.49 149.107 1428.05 Q150.935 1431.59 154.546 1431.59 Q158.181 1431.59 159.986 1428.05 Q161.815 1424.49 161.815 1417.38 Q161.815 1410.25 159.986 1406.71 Q158.181 1403.14 154.546 1403.14 M154.546 1399.44 Q160.357 1399.44 163.412 1404.05 Q166.491 1408.63 166.491 1417.38 Q166.491 1426.11 163.412 1430.71 Q160.357 1435.3 154.546 1435.3 Q148.736 1435.3 145.658 1430.71 Q142.602 1426.11 142.602 1417.38 Q142.602 1408.63 145.658 1404.05 Q148.736 1399.44 154.546 1399.44 Z" fill="#000000" fill-rule="nonzero" fill-opacity="1" /><path clip-path="url(#clip550)" d="M166.491 1393.54 L190.602 1393.54 L190.602 1396.74 L166.491 1396.74 L166.491 1393.54 Z" fill="#000000" fill-rule="nonzero" fill-opacity="1" /><path clip-path="url(#clip550)" d="M199.461 1404.02 L205.667 1404.02 L205.667 1382.59 L198.915 1383.95 L198.915 1380.49 L205.63 1379.13 L209.429 1379.13 L209.429 1404.02 L215.635 1404.02 L215.635 1407.21 L199.461 1407.21 L199.461 1404.02 Z" fill="#000000" fill-rule="nonzero" fill-opacity="1" /><path clip-path="url(#clip550)" d="M231.904 1391.66 Q229.346 1391.66 227.842 1393.41 Q226.356 1395.16 226.356 1398.2 Q226.356 1401.23 227.842 1403 Q229.346 1404.75 231.904 1404.75 Q234.462 1404.75 235.948 1403 Q237.452 1401.23 237.452 1398.2 Q237.452 1395.16 235.948 1393.41 Q234.462 1391.66 231.904 1391.66 M239.446 1379.75 L239.446 1383.22 Q238.017 1382.54 236.55 1382.18 Q235.102 1381.82 233.672 1381.82 Q229.911 1381.82 227.917 1384.36 Q225.942 1386.9 225.66 1392.04 Q226.77 1390.4 228.444 1389.53 Q230.117 1388.65 232.13 1388.65 Q236.362 1388.65 238.807 1391.23 Q241.27 1393.79 241.27 1398.2 Q241.27 1402.53 238.713 1405.14 Q236.155 1407.76 231.904 1407.76 Q227.033 1407.76 224.456 1404.04 Q221.88 1400.29 221.88 1393.2 Q221.88 1386.54 225.039 1382.59 Q228.199 1378.63 233.522 1378.63 Q234.951 1378.63 236.399 1378.91 Q237.866 1379.19 239.446 1379.75 Z" fill="#000000" fill-rule="nonzero" fill-opacity="1" /><path clip-path="url(#clip550)" d="M116.135 1089.78 L123.774 1089.78 L123.774 1063.41 L115.464 1065.08 L115.464 1060.82 L123.728 1059.15 L128.404 1059.15 L128.404 1089.78 L136.042 1089.78 L136.042 1093.71 L116.135 1093.71 L116.135 1089.78 Z" fill="#000000" fill-rule="nonzero" fill-opacity="1" /><path clip-path="url(#clip550)" d="M155.487 1062.23 Q151.876 1062.23 150.047 1065.79 Q148.241 1069.34 148.241 1076.47 Q148.241 1083.57 150.047 1087.14 Q151.876 1090.68 155.487 1090.68 Q159.121 1090.68 160.927 1087.14 Q162.755 1083.57 162.755 1076.47 Q162.755 1069.34 160.927 1065.79 Q159.121 1062.23 155.487 1062.23 M155.487 1058.53 Q161.297 1058.53 164.352 1063.13 Q167.431 1067.72 167.431 1076.47 Q167.431 1085.19 164.352 1089.8 Q161.297 1094.38 155.487 1094.38 Q149.677 1094.38 146.598 1089.8 Q143.542 1085.19 143.542 1076.47 Q143.542 1067.72 146.598 1063.13 Q149.677 1058.53 155.487 1058.53 Z" fill="#000000" fill-rule="nonzero" fill-opacity="1" /><path clip-path="url(#clip550)" d="M167.431 1052.63 L191.543 1052.63 L191.543 1055.82 L167.431 1055.82 L167.431 1052.63 Z" fill="#000000" fill-rule="nonzero" fill-opacity="1" /><path clip-path="url(#clip550)" d="M200.401 1063.1 L206.608 1063.1 L206.608 1041.68 L199.856 1043.04 L199.856 1039.57 L206.57 1038.22 L210.369 1038.22 L210.369 1063.1 L216.576 1063.1 L216.576 1066.3 L200.401 1066.3 L200.401 1063.1 Z" fill="#000000" fill-rule="nonzero" fill-opacity="1" /><path clip-path="url(#clip550)" d="M224.287 1038.22 L239.202 1038.22 L239.202 1041.42 L227.766 1041.42 L227.766 1048.3 Q228.594 1048.02 229.422 1047.89 Q230.249 1047.74 231.077 1047.74 Q235.779 1047.74 238.525 1050.31 Q241.27 1052.89 241.27 1057.29 Q241.27 1061.82 238.449 1064.34 Q235.628 1066.85 230.494 1066.85 Q228.726 1066.85 226.883 1066.55 Q225.058 1066.24 223.102 1065.64 L223.102 1061.82 Q224.795 1062.75 226.6 1063.2 Q228.406 1063.65 230.418 1063.65 Q233.672 1063.65 235.572 1061.94 Q237.471 1060.23 237.471 1057.29 Q237.471 1054.36 235.572 1052.65 Q233.672 1050.93 230.418 1050.93 Q228.895 1050.93 227.372 1051.27 Q225.867 1051.61 224.287 1052.33 L224.287 1038.22 Z" fill="#000000" fill-rule="nonzero" fill-opacity="1" /><path clip-path="url(#clip550)" d="M114.931 748.863 L122.57 748.863 L122.57 722.497 L114.26 724.164 L114.26 719.905 L122.524 718.238 L127.2 718.238 L127.2 748.863 L134.839 748.863 L134.839 752.798 L114.931 752.798 L114.931 748.863 Z" fill="#000000" fill-rule="nonzero" fill-opacity="1" /><path clip-path="url(#clip550)" d="M154.283 721.317 Q150.672 721.317 148.843 724.881 Q147.038 728.423 147.038 735.553 Q147.038 742.659 148.843 746.224 Q150.672 749.766 154.283 749.766 Q157.917 749.766 159.723 746.224 Q161.552 742.659 161.552 735.553 Q161.552 728.423 159.723 724.881 Q157.917 721.317 154.283 721.317 M154.283 717.613 Q160.093 717.613 163.149 722.219 Q166.227 726.803 166.227 735.553 Q166.227 744.279 163.149 748.886 Q160.093 753.469 154.283 753.469 Q148.473 753.469 145.394 748.886 Q142.339 744.279 142.339 735.553 Q142.339 726.803 145.394 722.219 Q148.473 717.613 154.283 717.613 Z" fill="#000000" fill-rule="nonzero" fill-opacity="1" /><path clip-path="url(#clip550)" d="M166.227 711.714 L190.339 711.714 L190.339 714.912 L166.227 714.912 L166.227 711.714 Z" fill="#000000" fill-rule="nonzero" fill-opacity="1" /><path clip-path="url(#clip550)" d="M199.197 722.19 L205.404 722.19 L205.404 700.768 L198.652 702.122 L198.652 698.662 L205.366 697.308 L209.166 697.308 L209.166 722.19 L215.372 722.19 L215.372 725.388 L199.197 725.388 L199.197 722.19 Z" fill="#000000" fill-rule="nonzero" fill-opacity="1" /><path clip-path="url(#clip550)" d="M233.484 700.618 L223.892 715.608 L233.484 715.608 L233.484 700.618 M232.487 697.308 L237.264 697.308 L237.264 715.608 L241.27 715.608 L241.27 718.767 L237.264 718.767 L237.264 725.388 L233.484 725.388 L233.484 718.767 L220.808 718.767 L220.808 715.1 L232.487 697.308 Z" fill="#000000" fill-rule="nonzero" fill-opacity="1" /><path clip-path="url(#clip550)" d="M115.853 407.95 L123.492 407.95 L123.492 381.584 L115.182 383.251 L115.182 378.991 L123.446 377.325 L128.121 377.325 L128.121 407.95 L135.76 407.95 L135.76 411.885 L115.853 411.885 L115.853 407.95 Z" fill="#000000" fill-rule="nonzero" fill-opacity="1" /><path clip-path="url(#clip550)" d="M155.205 380.404 Q151.594 380.404 149.765 383.968 Q147.959 387.51 147.959 394.64 Q147.959 401.746 149.765 405.311 Q151.594 408.852 155.205 408.852 Q158.839 408.852 160.644 405.311 Q162.473 401.746 162.473 394.64 Q162.473 387.51 160.644 383.968 Q158.839 380.404 155.205 380.404 M155.205 376.7 Q161.015 376.7 164.07 381.306 Q167.149 385.89 167.149 394.64 Q167.149 403.366 164.07 407.973 Q161.015 412.556 155.205 412.556 Q149.395 412.556 146.316 407.973 Q143.26 403.366 143.26 394.64 Q143.26 385.89 146.316 381.306 Q149.395 376.7 155.205 376.7 Z" fill="#000000" fill-rule="nonzero" fill-opacity="1" /><path clip-path="url(#clip550)" d="M167.149 370.801 L191.261 370.801 L191.261 373.999 L167.149 373.999 L167.149 370.801 Z" fill="#000000" fill-rule="nonzero" fill-opacity="1" /><path clip-path="url(#clip550)" d="M200.119 381.277 L206.326 381.277 L206.326 359.855 L199.574 361.209 L199.574 357.749 L206.288 356.394 L210.087 356.394 L210.087 381.277 L216.294 381.277 L216.294 384.474 L200.119 384.474 L200.119 381.277 Z" fill="#000000" fill-rule="nonzero" fill-opacity="1" /><path clip-path="url(#clip550)" d="M235.478 369.334 Q238.205 369.917 239.728 371.76 Q241.27 373.604 241.27 376.312 Q241.27 380.468 238.412 382.744 Q235.553 385.02 230.287 385.02 Q228.519 385.02 226.638 384.663 Q224.776 384.324 222.782 383.628 L222.782 379.961 Q224.362 380.882 226.243 381.352 Q228.124 381.823 230.174 381.823 Q233.747 381.823 235.609 380.412 Q237.49 379.001 237.49 376.312 Q237.49 373.829 235.741 372.437 Q234.011 371.027 230.907 371.027 L227.635 371.027 L227.635 367.905 L231.058 367.905 Q233.86 367.905 235.346 366.795 Q236.832 365.667 236.832 363.56 Q236.832 361.397 235.29 360.25 Q233.766 359.084 230.907 359.084 Q229.346 359.084 227.56 359.422 Q225.773 359.761 223.629 360.476 L223.629 357.09 Q225.792 356.488 227.672 356.188 Q229.572 355.887 231.246 355.887 Q235.572 355.887 238.092 357.861 Q240.612 359.817 240.612 363.165 Q240.612 365.497 239.277 367.115 Q237.941 368.714 235.478 369.334 Z" fill="#000000" fill-rule="nonzero" fill-opacity="1" /><path clip-path="url(#clip550)" d="M116.624 67.0365 L124.263 67.0365 L124.263 40.6709 L115.953 42.3376 L115.953 38.0784 L124.217 36.4117 L128.893 36.4117 L128.893 67.0365 L136.531 67.0365 L136.531 70.9717 L116.624 70.9717 L116.624 67.0365 Z" fill="#000000" fill-rule="nonzero" fill-opacity="1" /><path clip-path="url(#clip550)" d="M155.976 39.4904 Q152.365 39.4904 150.536 43.0552 Q148.73 46.5968 148.73 53.7264 Q148.73 60.8329 150.536 64.3977 Q152.365 67.9393 155.976 67.9393 Q159.61 67.9393 161.416 64.3977 Q163.244 60.8329 163.244 53.7264 Q163.244 46.5968 161.416 43.0552 Q159.61 39.4904 155.976 39.4904 M155.976 35.7867 Q161.786 35.7867 164.841 40.3932 Q167.92 44.9765 167.92 53.7264 Q167.92 62.4532 164.841 67.0597 Q161.786 71.643 155.976 71.643 Q150.166 71.643 147.087 67.0597 Q144.031 62.4532 144.031 53.7264 Q144.031 44.9765 147.087 40.3932 Q150.166 35.7867 155.976 35.7867 Z" fill="#000000" fill-rule="nonzero" fill-opacity="1" /><path clip-path="url(#clip550)" d="M167.92 29.888 L192.032 29.888 L192.032 33.0854 L167.92 33.0854 L167.92 29.888 Z" fill="#000000" fill-rule="nonzero" fill-opacity="1" /><path clip-path="url(#clip550)" d="M200.89 40.364 L207.097 40.364 L207.097 18.9419 L200.345 20.2961 L200.345 16.8355 L207.059 15.4813 L210.858 15.4813 L210.858 40.364 L217.065 40.364 L217.065 43.5613 L200.89 43.5613 L200.89 40.364 Z" fill="#000000" fill-rule="nonzero" fill-opacity="1" /><path clip-path="url(#clip550)" d="M228.011 40.364 L241.27 40.364 L241.27 43.5613 L223.441 43.5613 L223.441 40.364 Q225.604 38.1258 229.328 34.3643 Q233.07 30.5839 234.029 29.4931 Q235.854 27.443 236.569 26.0325 Q237.302 24.6031 237.302 23.2301 Q237.302 20.992 235.722 19.5814 Q234.161 18.1708 231.641 18.1708 Q229.854 18.1708 227.861 18.7915 Q225.886 19.4121 223.629 20.6722 L223.629 16.8355 Q225.923 15.9139 227.917 15.4437 Q229.911 14.9735 231.566 14.9735 Q235.929 14.9735 238.525 17.1552 Q241.12 19.3369 241.12 22.9856 Q241.12 24.7159 240.462 26.277 Q239.822 27.8192 238.111 29.9257 Q237.641 30.4711 235.12 33.0854 Q232.6 35.6808 228.011 40.364 Z" fill="#000000" fill-rule="nonzero" fill-opacity="1" /><path clip-path="url(#clip550)" d="M41.3104 955.308 L58.7206 955.308 L58.7206 944.995 Q58.7206 939.807 56.5881 937.324 Q54.4238 934.81 49.9996 934.81 Q45.5436 934.81 43.4429 937.324 Q41.3104 939.807 41.3104 944.995 L41.3104 955.308 M21.7677 955.308 L36.0905 955.308 L36.0905 945.791 Q36.0905 941.08 34.34 938.789 Q32.5576 936.465 28.9291 936.465 Q25.3325 936.465 23.5501 938.789 Q21.7677 941.08 21.7677 945.791 L21.7677 955.308 M16.4842 961.737 L16.4842 945.313 Q16.4842 937.961 19.5397 933.982 Q22.5952 930.004 28.2289 930.004 Q32.5894 930.004 35.1675 932.041 Q37.7456 934.078 38.3822 938.025 Q39.4007 933.282 42.6472 930.672 Q45.8619 928.031 50.6998 928.031 Q57.0655 928.031 60.5348 932.359 Q64.0042 936.688 64.0042 944.677 L64.0042 961.737 L16.4842 961.737 Z" fill="#000000" fill-rule="nonzero" fill-opacity="1" /><path clip-path="url(#clip550)" d="M14.479 917.082 L14.479 911.225 L33.6397 911.225 L30.7752 907.246 L34.149 904.828 L38.6368 911.225 L64.0042 911.225 L64.0042 917.082 L42.8064 917.082 L45.6073 920.996 L42.2334 923.352 L37.7456 917.082 L14.479 917.082 Z" fill="#000000" fill-rule="nonzero" fill-opacity="1" /><path clip-path="url(#clip550)" d="M46.0847 882.548 Q46.0847 889.645 47.7079 892.383 Q49.3312 895.12 53.2461 895.12 Q56.3653 895.12 58.2114 893.083 Q60.0256 891.014 60.0256 887.481 Q60.0256 882.611 56.5881 879.683 Q53.1188 876.723 47.3897 876.723 L46.0847 876.723 L46.0847 882.548 M43.6657 870.866 L64.0042 870.866 L64.0042 876.723 L58.5933 876.723 Q61.8398 878.728 63.3994 881.72 Q64.9272 884.712 64.9272 889.041 Q64.9272 894.515 61.8716 897.762 Q58.7843 900.976 53.6281 900.976 Q47.6125 900.976 44.5569 896.966 Q41.5014 892.924 41.5014 884.935 L41.5014 876.723 L40.9285 876.723 Q36.8862 876.723 34.6901 879.397 Q32.4621 882.038 32.4621 886.844 Q32.4621 889.9 33.1941 892.796 Q33.9262 895.693 35.3903 898.366 L29.9795 898.366 Q28.7381 895.152 28.1334 892.128 Q27.4968 889.104 27.4968 886.24 Q27.4968 878.505 31.5072 874.686 Q35.5176 870.866 43.6657 870.866 M64.0042 876.659 L64.0042 872.872 Q65.9457 874.304 67.3462 875.004 Q68.7466 875.673 69.7333 875.673 Q71.1974 875.673 71.9295 874.813 Q72.6615 873.922 72.6615 872.203 Q72.6615 871.185 72.4069 870.198 Q72.1841 869.211 71.7067 868.225 L75.9399 868.225 Q76.2581 869.434 76.4173 870.516 Q76.5764 871.599 76.5764 872.553 Q76.5764 876.436 75.176 878.283 Q73.8073 880.097 70.8473 880.097 Q69.3195 880.097 67.6326 879.269 Q65.9775 878.41 64.0042 876.659 Z" fill="#000000" fill-rule="nonzero" fill-opacity="1" /><path clip-path="url(#clip550)" d="M33.7671 835.346 L14.479 835.346 L14.479 829.489 L64.0042 829.489 L64.0042 835.346 L58.657 835.346 Q61.8398 837.192 63.3994 840.025 Q64.9272 842.826 64.9272 846.772 Q64.9272 853.233 59.771 857.308 Q54.6147 861.35 46.212 861.35 Q37.8093 861.35 32.6531 857.308 Q27.4968 853.233 27.4968 846.772 Q27.4968 842.826 29.0564 840.025 Q30.5842 837.192 33.7671 835.346 M46.212 855.302 Q52.6732 855.302 56.3653 852.661 Q60.0256 849.987 60.0256 845.34 Q60.0256 840.693 56.3653 838.019 Q52.6732 835.346 46.212 835.346 Q39.7508 835.346 36.0905 838.019 Q32.3984 840.693 32.3984 845.34 Q32.3984 849.987 36.0905 852.661 Q39.7508 855.302 46.212 855.302 Z" fill="#000000" fill-rule="nonzero" fill-opacity="1" /><path clip-path="url(#clip550)" d="M28.3562 800.112 L28.3562 794.255 L56.1743 786.935 L28.3562 779.646 L28.3562 772.739 L56.1743 765.419 L28.3562 758.13 L28.3562 752.273 L64.0042 761.599 L64.0042 768.506 L34.7856 776.177 L64.0042 783.879 L64.0042 790.786 L28.3562 800.112 Z" fill="#000000" fill-rule="nonzero" fill-opacity="1" /><path clip-path="url(#clip550)" d="M28.3562 745.939 L28.3562 718.121 L33.7034 718.121 L59.3254 740.147 L59.3254 718.121 L64.0042 718.121 L64.0042 746.735 L58.657 746.735 L33.035 724.71 L33.035 745.939 L28.3562 745.939 Z" fill="#000000" fill-rule="nonzero" fill-opacity="1" /><path clip-path="url(#clip550)" d="M45.7664 685.72 Q39.4007 685.72 35.8996 688.362 Q32.3984 690.972 32.3984 695.714 Q32.3984 700.425 35.8996 703.066 Q39.4007 705.676 45.7664 705.676 Q52.1003 705.676 55.6014 703.066 Q59.1026 700.425 59.1026 695.714 Q59.1026 690.972 55.6014 688.362 Q52.1003 685.72 45.7664 685.72 M59.58 679.863 Q68.683 679.863 73.1071 683.906 Q77.5631 687.948 77.5631 696.287 Q77.5631 699.374 77.0857 702.112 Q76.6401 704.849 75.6852 707.427 L69.9879 707.427 Q71.3884 704.849 72.0568 702.334 Q72.7252 699.82 72.7252 697.21 Q72.7252 691.449 69.7015 688.584 Q66.7096 685.72 60.6303 685.72 L57.7339 685.72 Q60.885 687.534 62.4446 690.367 Q64.0042 693.2 64.0042 697.146 Q64.0042 703.703 59.0071 707.713 Q54.01 711.724 45.7664 711.724 Q37.491 711.724 32.4939 707.713 Q27.4968 703.703 27.4968 697.146 Q27.4968 693.2 29.0564 690.367 Q30.616 687.534 33.7671 685.72 L28.3562 685.72 L28.3562 679.863 L59.58 679.863 Z" fill="#000000" fill-rule="nonzero" fill-opacity="1" /><path clip-path="url(#clip550)" d="M14.479 667.8 L14.479 661.944 L64.0042 661.944 L64.0042 667.8 L14.479 667.8 Z" fill="#000000" fill-rule="nonzero" fill-opacity="1" /><path clip-path="url(#clip550)" d="M44.7161 619.198 L47.5806 619.198 L47.5806 646.125 Q53.6281 645.743 56.8109 642.497 Q59.9619 639.218 59.9619 633.394 Q59.9619 630.02 59.1344 626.869 Q58.3069 623.686 56.6518 620.567 L62.1899 620.567 Q63.5267 623.718 64.227 627.028 Q64.9272 630.338 64.9272 633.744 Q64.9272 642.274 59.9619 647.271 Q54.9967 652.236 46.5303 652.236 Q37.7774 652.236 32.6531 647.526 Q27.4968 642.783 27.4968 634.762 Q27.4968 627.569 32.1438 623.4 Q36.7589 619.198 44.7161 619.198 M42.9973 625.055 Q38.1912 625.118 35.3266 627.76 Q32.4621 630.37 32.4621 634.699 Q32.4621 639.6 35.2312 642.56 Q38.0002 645.489 43.0292 645.934 L42.9973 625.055 M64.0042 629.861 L64.0042 626.073 Q65.9457 627.506 67.3462 628.206 Q68.7466 628.874 69.7333 628.874 Q71.1974 628.874 71.9295 628.015 Q72.6615 627.124 72.6615 625.405 Q72.6615 624.386 72.4069 623.4 Q72.1841 622.413 71.7067 621.426 L75.9399 621.426 Q76.2581 622.636 76.4173 623.718 Q76.5764 624.8 76.5764 625.755 Q76.5764 629.638 75.176 631.484 Q73.8073 633.298 70.8473 633.298 Q69.3195 633.298 67.6326 632.471 Q65.9775 631.611 64.0042 629.861 Z" fill="#000000" fill-rule="nonzero" fill-opacity="1" /><path clip-path="url(#clip550)" d="M33.7671 586.128 L14.479 586.128 L14.479 580.272 L64.0042 580.272 L64.0042 586.128 L58.657 586.128 Q61.8398 587.974 63.3994 590.807 Q64.9272 593.608 64.9272 597.555 Q64.9272 604.016 59.771 608.09 Q54.6147 612.132 46.212 612.132 Q37.8093 612.132 32.6531 608.09 Q27.4968 604.016 27.4968 597.555 Q27.4968 593.608 29.0564 590.807 Q30.5842 587.974 33.7671 586.128 M46.212 606.085 Q52.6732 606.085 56.3653 603.443 Q60.0256 600.77 60.0256 596.123 Q60.0256 591.476 56.3653 588.802 Q52.6732 586.128 46.212 586.128 Q39.7508 586.128 36.0905 588.802 Q32.3984 591.476 32.3984 596.123 Q32.3984 600.77 36.0905 603.443 Q39.7508 606.085 46.212 606.085 Z" fill="#000000" fill-rule="nonzero" fill-opacity="1" /><path clip-path="url(#clip550)" d="M42.4881 538.577 L64.0042 538.577 L64.0042 544.433 L42.679 544.433 Q37.6183 544.433 35.1038 546.406 Q32.5894 548.38 32.5894 552.327 Q32.5894 557.069 35.6131 559.806 Q38.6368 562.543 43.8567 562.543 L64.0042 562.543 L64.0042 568.432 L28.3562 568.432 L28.3562 562.543 L33.8944 562.543 Q30.6797 560.443 29.0883 557.61 Q27.4968 554.745 27.4968 551.022 Q27.4968 544.879 31.3163 541.728 Q35.1038 538.577 42.4881 538.577 Z" fill="#000000" fill-rule="nonzero" fill-opacity="1" /><path clip-path="url(#clip550)" d="M67.3143 512.063 Q73.68 514.546 75.6216 516.901 Q77.5631 519.257 77.5631 523.203 L77.5631 527.882 L72.6615 527.882 L72.6615 524.445 Q72.6615 522.026 71.5157 520.689 Q70.3699 519.352 66.1048 517.729 L63.4312 516.679 L28.3562 531.097 L28.3562 524.89 L56.238 513.75 L28.3562 502.61 L28.3562 496.404 L67.3143 512.063 Z" fill="#000000" fill-rule="nonzero" fill-opacity="1" /><polyline clip-path="url(#clip552)" style="stroke:#009af9; stroke-linecap:round; stroke-linejoin:round; stroke-width:4; stroke-opacity:1; fill:none" points="336.011,730.315 375.109,466.948 531.755,371.251 727.562,465.21 1510.79,185.674 2294.02,359.304 "/>
<polyline clip-path="url(#clip552)" style="stroke:#e26f46; stroke-linecap:round; stroke-linejoin:round; stroke-width:4; stroke-opacity:1; fill:none" points="336.011,1176.96 375.109,1219.41 531.755,1200.78 727.562,1241.19 1510.79,1202.12 2294.02,1202.82 "/>
<path clip-path="url(#clip550)" d="M1807.88 248.219 L2283.57 248.219 L2283.57 92.6992 L1807.88 92.6992  Z" fill="#ffffff" fill-rule="evenodd" fill-opacity="1"/>
<polyline clip-path="url(#clip550)" style="stroke:#000000; stroke-linecap:round; stroke-linejoin:round; stroke-width:4; stroke-opacity:1; fill:none" points="1807.88,248.219 2283.57,248.219 2283.57,92.6992 1807.88,92.6992 1807.88,248.219 "/>
<polyline clip-path="url(#clip550)" style="stroke:#009af9; stroke-linecap:round; stroke-linejoin:round; stroke-width:4; stroke-opacity:1; fill:none" points="1830.94,144.539 1969.3,144.539 "/>
<path clip-path="url(#clip550)" d="M1997.04 145.315 L1997.04 157.977 L2004.54 157.977 Q2008.31 157.977 2010.12 156.426 Q2011.95 154.852 2011.95 151.634 Q2011.95 148.393 2010.12 146.866 Q2008.31 145.315 2004.54 145.315 L1997.04 145.315 M1997.04 131.102 L1997.04 141.518 L2003.96 141.518 Q2007.39 141.518 2009.06 140.245 Q2010.74 138.949 2010.74 136.31 Q2010.74 133.694 2009.06 132.398 Q2007.39 131.102 2003.96 131.102 L1997.04 131.102 M1992.37 127.259 L2004.31 127.259 Q2009.66 127.259 2012.55 129.481 Q2015.44 131.704 2015.44 135.801 Q2015.44 138.972 2013.96 140.847 Q2012.48 142.722 2009.61 143.185 Q2013.06 143.926 2014.96 146.287 Q2016.88 148.625 2016.88 152.143 Q2016.88 156.773 2013.73 159.296 Q2010.58 161.819 2004.77 161.819 L1992.37 161.819 L1992.37 127.259 Z" fill="#000000" fill-rule="nonzero" fill-opacity="1" /><path clip-path="url(#clip550)" d="M2046.88 147.791 L2046.88 149.875 L2027.3 149.875 Q2027.57 154.273 2029.93 156.588 Q2032.32 158.879 2036.55 158.879 Q2039.01 158.879 2041.3 158.278 Q2043.62 157.676 2045.88 156.472 L2045.88 160.5 Q2043.59 161.472 2041.18 161.981 Q2038.78 162.49 2036.3 162.49 Q2030.1 162.49 2026.46 158.879 Q2022.85 155.268 2022.85 149.111 Q2022.85 142.745 2026.28 139.018 Q2029.73 135.268 2035.56 135.268 Q2040.79 135.268 2043.82 138.648 Q2046.88 142.004 2046.88 147.791 M2042.62 146.541 Q2042.57 143.046 2040.65 140.963 Q2038.75 138.879 2035.61 138.879 Q2032.04 138.879 2029.89 140.893 Q2027.76 142.907 2027.43 146.565 L2042.62 146.541 Z" fill="#000000" fill-rule="nonzero" fill-opacity="1" /><path clip-path="url(#clip550)" d="M2052.02 135.893 L2072.25 135.893 L2072.25 139.782 L2056.23 158.416 L2072.25 158.416 L2072.25 161.819 L2051.44 161.819 L2051.44 157.93 L2067.46 139.296 L2052.02 139.296 L2052.02 135.893 Z" fill="#000000" fill-rule="nonzero" fill-opacity="1" /><path clip-path="url(#clip550)" d="M2091.35 135.893 L2095.61 135.893 L2100.93 156.125 L2106.23 135.893 L2111.25 135.893 L2116.58 156.125 L2121.88 135.893 L2126.14 135.893 L2119.36 161.819 L2114.33 161.819 L2108.75 140.569 L2103.15 161.819 L2098.13 161.819 L2091.35 135.893 Z" fill="#000000" fill-rule="nonzero" fill-opacity="1" /><path clip-path="url(#clip550)" d="M2143.38 164.227 Q2141.58 168.856 2139.86 170.268 Q2138.15 171.68 2135.28 171.68 L2131.88 171.68 L2131.88 168.115 L2134.38 168.115 Q2136.14 168.115 2137.11 167.282 Q2138.08 166.449 2139.26 163.347 L2140.03 161.403 L2129.54 135.893 L2134.05 135.893 L2142.16 156.171 L2150.26 135.893 L2154.77 135.893 L2143.38 164.227 Z" fill="#000000" fill-rule="nonzero" fill-opacity="1" /><path clip-path="url(#clip550)" d="M2179.26 148.879 Q2179.26 144.18 2177.32 141.518 Q2175.4 138.833 2172.02 138.833 Q2168.64 138.833 2166.69 141.518 Q2164.77 144.18 2164.77 148.879 Q2164.77 153.578 2166.69 156.264 Q2168.64 158.926 2172.02 158.926 Q2175.4 158.926 2177.32 156.264 Q2179.26 153.578 2179.26 148.879 M2164.77 139.829 Q2166.11 137.514 2168.15 136.403 Q2170.21 135.268 2173.06 135.268 Q2177.78 135.268 2180.72 139.018 Q2183.68 142.768 2183.68 148.879 Q2183.68 154.991 2180.72 158.74 Q2177.78 162.49 2173.06 162.49 Q2170.21 162.49 2168.15 161.379 Q2166.11 160.245 2164.77 157.93 L2164.77 161.819 L2160.49 161.819 L2160.49 125.801 L2164.77 125.801 L2164.77 139.829 Z" fill="#000000" fill-rule="nonzero" fill-opacity="1" /><path clip-path="url(#clip550)" d="M2200.79 138.879 Q2197.36 138.879 2195.37 141.565 Q2193.38 144.227 2193.38 148.879 Q2193.38 153.532 2195.35 156.217 Q2197.34 158.879 2200.79 158.879 Q2204.19 158.879 2206.18 156.194 Q2208.17 153.509 2208.17 148.879 Q2208.17 144.273 2206.18 141.588 Q2204.19 138.879 2200.79 138.879 M2200.79 135.268 Q2206.35 135.268 2209.52 138.879 Q2212.69 142.491 2212.69 148.879 Q2212.69 155.245 2209.52 158.879 Q2206.35 162.49 2200.79 162.49 Q2195.21 162.49 2192.04 158.879 Q2188.89 155.245 2188.89 148.879 Q2188.89 142.491 2192.04 138.879 Q2195.21 135.268 2200.79 135.268 Z" fill="#000000" fill-rule="nonzero" fill-opacity="1" /><path clip-path="url(#clip550)" d="M2234.77 139.875 Q2234.05 139.458 2233.2 139.273 Q2232.36 139.065 2231.35 139.065 Q2227.73 139.065 2225.79 141.426 Q2223.87 143.764 2223.87 148.162 L2223.87 161.819 L2219.59 161.819 L2219.59 135.893 L2223.87 135.893 L2223.87 139.921 Q2225.21 137.56 2227.36 136.426 Q2229.52 135.268 2232.6 135.268 Q2233.04 135.268 2233.57 135.338 Q2234.1 135.384 2234.75 135.5 L2234.77 139.875 Z" fill="#000000" fill-rule="nonzero" fill-opacity="1" /><path clip-path="url(#clip550)" d="M2238.8 151.588 L2238.8 135.893 L2243.06 135.893 L2243.06 151.426 Q2243.06 155.106 2244.49 156.958 Q2245.93 158.787 2248.8 158.787 Q2252.25 158.787 2254.24 156.588 Q2256.25 154.389 2256.25 150.592 L2256.25 135.893 L2260.51 135.893 L2260.51 161.819 L2256.25 161.819 L2256.25 157.838 Q2254.7 160.199 2252.64 161.356 Q2250.6 162.49 2247.9 162.49 Q2243.43 162.49 2241.11 159.713 Q2238.8 156.935 2238.8 151.588 M2249.52 135.268 L2249.52 135.268 Z" fill="#000000" fill-rule="nonzero" fill-opacity="1" /><polyline clip-path="url(#clip550)" style="stroke:#e26f46; stroke-linecap:round; stroke-linejoin:round; stroke-width:4; stroke-opacity:1; fill:none" points="1830.94,196.379 1969.3,196.379 "/>
<path clip-path="url(#clip550)" d="M1992.9 179.099 L2020.05 179.099 L2020.05 182.664 L1998.2 209.724 L2020.58 209.724 L2020.58 213.659 L1992.37 213.659 L1992.37 210.094 L2014.22 183.034 L1992.9 183.034 L1992.9 179.099 Z" fill="#000000" fill-rule="nonzero" fill-opacity="1" /><path clip-path="url(#clip550)" d="M2039.77 187.733 L2044.03 187.733 L2049.36 207.965 L2054.66 187.733 L2059.68 187.733 L2065 207.965 L2070.3 187.733 L2074.56 187.733 L2067.78 213.659 L2062.76 213.659 L2057.18 192.409 L2051.58 213.659 L2046.55 213.659 L2039.77 187.733 Z" fill="#000000" fill-rule="nonzero" fill-opacity="1" /><path clip-path="url(#clip550)" d="M2091.81 216.067 Q2090 220.696 2088.29 222.108 Q2086.58 223.52 2083.71 223.52 L2080.3 223.52 L2080.3 219.955 L2082.8 219.955 Q2084.56 219.955 2085.54 219.122 Q2086.51 218.289 2087.69 215.187 L2088.45 213.243 L2077.97 187.733 L2082.48 187.733 L2090.58 208.011 L2098.68 187.733 L2103.2 187.733 L2091.81 216.067 Z" fill="#000000" fill-rule="nonzero" fill-opacity="1" /><path clip-path="url(#clip550)" d="M2127.69 200.719 Q2127.69 196.02 2125.74 193.358 Q2123.82 190.673 2120.44 190.673 Q2117.06 190.673 2115.12 193.358 Q2113.2 196.02 2113.2 200.719 Q2113.2 205.418 2115.12 208.104 Q2117.06 210.766 2120.44 210.766 Q2123.82 210.766 2125.74 208.104 Q2127.69 205.418 2127.69 200.719 M2113.2 191.669 Q2114.54 189.354 2116.58 188.243 Q2118.64 187.108 2121.49 187.108 Q2126.21 187.108 2129.15 190.858 Q2132.11 194.608 2132.11 200.719 Q2132.11 206.831 2129.15 210.58 Q2126.21 214.33 2121.49 214.33 Q2118.64 214.33 2116.58 213.219 Q2114.54 212.085 2113.2 209.77 L2113.2 213.659 L2108.92 213.659 L2108.92 177.641 L2113.2 177.641 L2113.2 191.669 Z" fill="#000000" fill-rule="nonzero" fill-opacity="1" /><path clip-path="url(#clip550)" d="M2149.22 190.719 Q2145.79 190.719 2143.8 193.405 Q2141.81 196.067 2141.81 200.719 Q2141.81 205.372 2143.78 208.057 Q2145.77 210.719 2149.22 210.719 Q2152.62 210.719 2154.61 208.034 Q2156.6 205.349 2156.6 200.719 Q2156.6 196.113 2154.61 193.428 Q2152.62 190.719 2149.22 190.719 M2149.22 187.108 Q2154.77 187.108 2157.94 190.719 Q2161.11 194.331 2161.11 200.719 Q2161.11 207.085 2157.94 210.719 Q2154.77 214.33 2149.22 214.33 Q2143.64 214.33 2140.47 210.719 Q2137.32 207.085 2137.32 200.719 Q2137.32 194.331 2140.47 190.719 Q2143.64 187.108 2149.22 187.108 Z" fill="#000000" fill-rule="nonzero" fill-opacity="1" /><path clip-path="url(#clip550)" d="M2183.2 191.715 Q2182.48 191.298 2181.62 191.113 Q2180.79 190.905 2179.77 190.905 Q2176.16 190.905 2174.22 193.266 Q2172.29 195.604 2172.29 200.002 L2172.29 213.659 L2168.01 213.659 L2168.01 187.733 L2172.29 187.733 L2172.29 191.761 Q2173.64 189.4 2175.79 188.266 Q2177.94 187.108 2181.02 187.108 Q2181.46 187.108 2181.99 187.178 Q2182.53 187.224 2183.17 187.34 L2183.2 191.715 Z" fill="#000000" fill-rule="nonzero" fill-opacity="1" /><path clip-path="url(#clip550)" d="M2208.8 199.631 L2208.8 201.715 L2189.22 201.715 Q2189.49 206.113 2191.86 208.428 Q2194.24 210.719 2198.48 210.719 Q2200.93 210.719 2203.22 210.118 Q2205.54 209.516 2207.8 208.312 L2207.8 212.34 Q2205.51 213.312 2203.11 213.821 Q2200.7 214.33 2198.22 214.33 Q2192.02 214.33 2188.38 210.719 Q2184.77 207.108 2184.77 200.951 Q2184.77 194.585 2188.2 190.858 Q2191.65 187.108 2197.48 187.108 Q2202.71 187.108 2205.74 190.488 Q2208.8 193.844 2208.8 199.631 M2204.54 198.381 Q2204.49 194.886 2202.57 192.803 Q2200.67 190.719 2197.53 190.719 Q2193.96 190.719 2191.81 192.733 Q2189.68 194.747 2189.36 198.405 L2204.54 198.381 Z" fill="#000000" fill-rule="nonzero" fill-opacity="1" /><path clip-path="url(#clip550)" d="M2235.98 192.71 Q2237.57 189.84 2239.79 188.474 Q2242.02 187.108 2245.03 187.108 Q2249.08 187.108 2251.28 189.956 Q2253.48 192.78 2253.48 198.011 L2253.48 213.659 L2249.19 213.659 L2249.19 198.15 Q2249.19 194.423 2247.87 192.618 Q2246.55 190.812 2243.85 190.812 Q2240.54 190.812 2238.61 193.011 Q2236.69 195.21 2236.69 199.006 L2236.69 213.659 L2232.41 213.659 L2232.41 198.15 Q2232.41 194.4 2231.09 192.618 Q2229.77 190.812 2227.02 190.812 Q2223.75 190.812 2221.83 193.034 Q2219.91 195.233 2219.91 199.006 L2219.91 213.659 L2215.63 213.659 L2215.63 187.733 L2219.91 187.733 L2219.91 191.761 Q2221.37 189.377 2223.41 188.243 Q2225.44 187.108 2228.24 187.108 Q2231.07 187.108 2233.04 188.544 Q2235.03 189.979 2235.98 192.71 Z" fill="#000000" fill-rule="nonzero" fill-opacity="1" /></svg>
