<?xml version="1.0" encoding="utf-8"?>
<svg xmlns="http://www.w3.org/2000/svg" xmlns:xlink="http://www.w3.org/1999/xlink" width="600" height="400" viewBox="0 0 2400 1600">
<defs>
  <clipPath id="clip680">
    <rect x="0" y="0" width="2400" height="1600"/>
  </clipPath>
</defs>
<path clip-path="url(#clip680)" d="M0 1600 L2400 1600 L2400 0 L0 0  Z" fill="#ffffff" fill-rule="evenodd" fill-opacity="1"/>
<defs>
  <clipPath id="clip681">
    <rect x="480" y="0" width="1681" height="1600"/>
  </clipPath>
</defs>
<path clip-path="url(#clip680)" d="M249.542 1410.9 L2352.76 1410.9 L2352.76 47.2441 L249.542 47.2441  Z" fill="#ffffff" fill-rule="evenodd" fill-opacity="1"/>
<defs>
  <clipPath id="clip682">
    <rect x="249" y="47" width="2104" height="1365"/>
  </clipPath>
</defs>
<polyline clip-path="url(#clip682)" style="stroke:#000000; stroke-linecap:round; stroke-linejoin:round; stroke-width:2; stroke-opacity:0.1; fill:none" points="309.003,1410.9 309.003,47.2441 "/>
<polyline clip-path="url(#clip682)" style="stroke:#000000; stroke-linecap:round; stroke-linejoin:round; stroke-width:2; stroke-opacity:0.1; fill:none" points="705.849,1410.9 705.849,47.2441 "/>
<polyline clip-path="url(#clip682)" style="stroke:#000000; stroke-linecap:round; stroke-linejoin:round; stroke-width:2; stroke-opacity:0.1; fill:none" points="1102.69,1410.9 1102.69,47.2441 "/>
<polyline clip-path="url(#clip682)" style="stroke:#000000; stroke-linecap:round; stroke-linejoin:round; stroke-width:2; stroke-opacity:0.1; fill:none" points="1499.54,1410.9 1499.54,47.2441 "/>
<polyline clip-path="url(#clip682)" style="stroke:#000000; stroke-linecap:round; stroke-linejoin:round; stroke-width:2; stroke-opacity:0.1; fill:none" points="1896.39,1410.9 1896.39,47.2441 "/>
<polyline clip-path="url(#clip682)" style="stroke:#000000; stroke-linecap:round; stroke-linejoin:round; stroke-width:2; stroke-opacity:0.1; fill:none" points="2293.23,1410.9 2293.23,47.2441 "/>
<polyline clip-path="url(#clip680)" style="stroke:#000000; stroke-linecap:round; stroke-linejoin:round; stroke-width:4; stroke-opacity:1; fill:none" points="249.542,1410.9 2352.76,1410.9 "/>
<polyline clip-path="url(#clip680)" style="stroke:#000000; stroke-linecap:round; stroke-linejoin:round; stroke-width:4; stroke-opacity:1; fill:none" points="309.003,1410.9 309.003,1392 "/>
<polyline clip-path="url(#clip680)" style="stroke:#000000; stroke-linecap:round; stroke-linejoin:round; stroke-width:4; stroke-opacity:1; fill:none" points="705.849,1410.9 705.849,1392 "/>
<polyline clip-path="url(#clip680)" style="stroke:#000000; stroke-linecap:round; stroke-linejoin:round; stroke-width:4; stroke-opacity:1; fill:none" points="1102.69,1410.9 1102.69,1392 "/>
<polyline clip-path="url(#clip680)" style="stroke:#000000; stroke-linecap:round; stroke-linejoin:round; stroke-width:4; stroke-opacity:1; fill:none" points="1499.54,1410.9 1499.54,1392 "/>
<polyline clip-path="url(#clip680)" style="stroke:#000000; stroke-linecap:round; stroke-linejoin:round; stroke-width:4; stroke-opacity:1; fill:none" points="1896.39,1410.9 1896.39,1392 "/>
<polyline clip-path="url(#clip680)" style="stroke:#000000; stroke-linecap:round; stroke-linejoin:round; stroke-width:4; stroke-opacity:1; fill:none" points="2293.23,1410.9 2293.23,1392 "/>
<path clip-path="url(#clip680)" d="M309.003 1441.82 Q305.392 1441.82 303.564 1445.38 Q301.758 1448.92 301.758 1456.05 Q301.758 1463.16 303.564 1466.72 Q305.392 1470.26 309.003 1470.26 Q312.638 1470.26 314.443 1466.72 Q316.272 1463.16 316.272 1456.05 Q316.272 1448.92 314.443 1445.38 Q312.638 1441.82 309.003 1441.82 M309.003 1438.11 Q314.814 1438.11 317.869 1442.72 Q320.948 1447.3 320.948 1456.05 Q320.948 1464.78 317.869 1469.38 Q314.814 1473.97 309.003 1473.97 Q303.193 1473.97 300.115 1469.38 Q297.059 1464.78 297.059 1456.05 Q297.059 1447.3 300.115 1442.72 Q303.193 1438.11 309.003 1438.11 Z" fill="#000000" fill-rule="nonzero" fill-opacity="1" /><path clip-path="url(#clip680)" d="M613.895 1485.02 L621.534 1485.02 L621.534 1458.66 L613.224 1460.32 L613.224 1456.06 L621.487 1454.4 L626.163 1454.4 L626.163 1485.02 L633.802 1485.02 L633.802 1488.96 L613.895 1488.96 L613.895 1485.02 Z" fill="#000000" fill-rule="nonzero" fill-opacity="1" /><path clip-path="url(#clip680)" d="M643.247 1483.08 L648.131 1483.08 L648.131 1488.96 L643.247 1488.96 L643.247 1483.08 Z" fill="#000000" fill-rule="nonzero" fill-opacity="1" /><path clip-path="url(#clip680)" d="M668.316 1457.48 Q664.705 1457.48 662.876 1461.04 Q661.071 1464.58 661.071 1471.71 Q661.071 1478.82 662.876 1482.38 Q664.705 1485.92 668.316 1485.92 Q671.95 1485.92 673.756 1482.38 Q675.584 1478.82 675.584 1471.71 Q675.584 1464.58 673.756 1461.04 Q671.95 1457.48 668.316 1457.48 M668.316 1453.77 Q674.126 1453.77 677.182 1458.38 Q680.26 1462.96 680.26 1471.71 Q680.26 1480.44 677.182 1485.04 Q674.126 1489.63 668.316 1489.63 Q662.506 1489.63 659.427 1485.04 Q656.372 1480.44 656.372 1471.71 Q656.372 1462.96 659.427 1458.38 Q662.506 1453.77 668.316 1453.77 Z" fill="#000000" fill-rule="nonzero" fill-opacity="1" /><path clip-path="url(#clip680)" d="M716.649 1463.49 L706.07 1474.12 L716.649 1484.7 L713.894 1487.5 L703.269 1476.87 L692.644 1487.5 L689.913 1484.7 L700.468 1474.12 L689.913 1463.49 L692.644 1460.69 L703.269 1471.32 L713.894 1460.69 L716.649 1463.49 Z" fill="#000000" fill-rule="nonzero" fill-opacity="1" /><path clip-path="url(#clip680)" d="M729.01 1485.02 L736.649 1485.02 L736.649 1458.66 L728.339 1460.32 L728.339 1456.06 L736.603 1454.4 L741.278 1454.4 L741.278 1485.02 L748.917 1485.02 L748.917 1488.96 L729.01 1488.96 L729.01 1485.02 Z" fill="#000000" fill-rule="nonzero" fill-opacity="1" /><path clip-path="url(#clip680)" d="M768.362 1457.48 Q764.751 1457.48 762.922 1461.04 Q761.116 1464.58 761.116 1471.71 Q761.116 1478.82 762.922 1482.38 Q764.751 1485.92 768.362 1485.92 Q771.996 1485.92 773.801 1482.38 Q775.63 1478.82 775.63 1471.71 Q775.63 1464.58 773.801 1461.04 Q771.996 1457.48 768.362 1457.48 M768.362 1453.77 Q774.172 1453.77 777.227 1458.38 Q780.306 1462.96 780.306 1471.71 Q780.306 1480.44 777.227 1485.04 Q774.172 1489.63 768.362 1489.63 Q762.551 1489.63 759.473 1485.04 Q756.417 1480.44 756.417 1471.71 Q756.417 1462.96 759.473 1458.38 Q762.551 1453.77 768.362 1453.77 Z" fill="#000000" fill-rule="nonzero" fill-opacity="1" /><path clip-path="url(#clip680)" d="M781.491 1433.47 L796.405 1433.47 L796.405 1436.66 L784.97 1436.66 L784.97 1443.55 Q785.798 1443.27 786.625 1443.13 Q787.453 1442.98 788.281 1442.98 Q792.982 1442.98 795.728 1445.56 Q798.474 1448.14 798.474 1452.54 Q798.474 1457.07 795.653 1459.59 Q792.832 1462.09 787.697 1462.09 Q785.93 1462.09 784.086 1461.79 Q782.262 1461.49 780.306 1460.89 L780.306 1457.07 Q781.999 1457.99 783.804 1458.44 Q785.61 1458.89 787.622 1458.89 Q790.876 1458.89 792.776 1457.18 Q794.675 1455.47 794.675 1452.54 Q794.675 1449.6 792.776 1447.89 Q790.876 1446.18 787.622 1446.18 Q786.099 1446.18 784.575 1446.52 Q783.071 1446.86 781.491 1447.57 L781.491 1433.47 Z" fill="#000000" fill-rule="nonzero" fill-opacity="1" /><path clip-path="url(#clip680)" d="M1014.83 1485.02 L1031.15 1485.02 L1031.15 1488.96 L1009.2 1488.96 L1009.2 1485.02 Q1011.86 1482.27 1016.45 1477.64 Q1021.05 1472.98 1022.23 1471.64 Q1024.48 1469.12 1025.36 1467.38 Q1026.26 1465.62 1026.26 1463.93 Q1026.26 1461.18 1024.32 1459.44 Q1022.4 1457.71 1019.29 1457.71 Q1017.09 1457.71 1014.64 1458.47 Q1012.21 1459.23 1009.43 1460.79 L1009.43 1456.06 Q1012.26 1454.93 1014.71 1454.35 Q1017.16 1453.77 1019.2 1453.77 Q1024.57 1453.77 1027.77 1456.46 Q1030.96 1459.14 1030.96 1463.63 Q1030.96 1465.76 1030.15 1467.68 Q1029.36 1469.58 1027.26 1472.17 Q1026.68 1472.85 1023.58 1476.06 Q1020.47 1479.26 1014.83 1485.02 Z" fill="#000000" fill-rule="nonzero" fill-opacity="1" /><path clip-path="url(#clip680)" d="M1040.96 1483.08 L1045.84 1483.08 L1045.84 1488.96 L1040.96 1488.96 L1040.96 1483.08 Z" fill="#000000" fill-rule="nonzero" fill-opacity="1" /><path clip-path="url(#clip680)" d="M1066.03 1457.48 Q1062.42 1457.48 1060.59 1461.04 Q1058.78 1464.58 1058.78 1471.71 Q1058.78 1478.82 1060.59 1482.38 Q1062.42 1485.92 1066.03 1485.92 Q1069.66 1485.92 1071.47 1482.38 Q1073.3 1478.82 1073.3 1471.71 Q1073.3 1464.58 1071.47 1461.04 Q1069.66 1457.48 1066.03 1457.48 M1066.03 1453.77 Q1071.84 1453.77 1074.9 1458.38 Q1077.97 1462.96 1077.97 1471.71 Q1077.97 1480.44 1074.9 1485.04 Q1071.84 1489.63 1066.03 1489.63 Q1060.22 1489.63 1057.14 1485.04 Q1054.09 1480.44 1054.09 1471.71 Q1054.09 1462.96 1057.14 1458.38 Q1060.22 1453.77 1066.03 1453.77 Z" fill="#000000" fill-rule="nonzero" fill-opacity="1" /><path clip-path="url(#clip680)" d="M1114.36 1463.49 L1103.78 1474.12 L1114.36 1484.7 L1111.61 1487.5 L1100.98 1476.87 L1090.36 1487.5 L1087.63 1484.7 L1098.18 1474.12 L1087.63 1463.49 L1090.36 1460.69 L1100.98 1471.32 L1111.61 1460.69 L1114.36 1463.49 Z" fill="#000000" fill-rule="nonzero" fill-opacity="1" /><path clip-path="url(#clip680)" d="M1126.72 1485.02 L1134.36 1485.02 L1134.36 1458.66 L1126.05 1460.32 L1126.05 1456.06 L1134.32 1454.4 L1138.99 1454.4 L1138.99 1485.02 L1146.63 1485.02 L1146.63 1488.96 L1126.72 1488.96 L1126.72 1485.02 Z" fill="#000000" fill-rule="nonzero" fill-opacity="1" /><path clip-path="url(#clip680)" d="M1166.08 1457.48 Q1162.46 1457.48 1160.64 1461.04 Q1158.83 1464.58 1158.83 1471.71 Q1158.83 1478.82 1160.64 1482.38 Q1162.46 1485.92 1166.08 1485.92 Q1169.71 1485.92 1171.51 1482.38 Q1173.34 1478.82 1173.34 1471.71 Q1173.34 1464.58 1171.51 1461.04 Q1169.71 1457.48 1166.08 1457.48 M1166.08 1453.77 Q1171.89 1453.77 1174.94 1458.38 Q1178.02 1462.96 1178.02 1471.71 Q1178.02 1480.44 1174.94 1485.04 Q1171.89 1489.63 1166.08 1489.63 Q1160.27 1489.63 1157.19 1485.04 Q1154.13 1480.44 1154.13 1471.71 Q1154.13 1462.96 1157.19 1458.38 Q1160.27 1453.77 1166.08 1453.77 Z" fill="#000000" fill-rule="nonzero" fill-opacity="1" /><path clip-path="url(#clip680)" d="M1179.2 1433.47 L1194.12 1433.47 L1194.12 1436.66 L1182.68 1436.66 L1182.68 1443.55 Q1183.51 1443.27 1184.34 1443.13 Q1185.17 1442.98 1185.99 1442.98 Q1190.7 1442.98 1193.44 1445.56 Q1196.19 1448.14 1196.19 1452.54 Q1196.19 1457.07 1193.37 1459.59 Q1190.55 1462.09 1185.41 1462.09 Q1183.64 1462.09 1181.8 1461.79 Q1179.98 1461.49 1178.02 1460.89 L1178.02 1457.07 Q1179.71 1457.99 1181.52 1458.44 Q1183.32 1458.89 1185.34 1458.89 Q1188.59 1458.89 1190.49 1457.18 Q1192.39 1455.47 1192.39 1452.54 Q1192.39 1449.6 1190.49 1447.89 Q1188.59 1446.18 1185.34 1446.18 Q1183.81 1446.18 1182.29 1446.52 Q1180.78 1446.86 1179.2 1447.57 L1179.2 1433.47 Z" fill="#000000" fill-rule="nonzero" fill-opacity="1" /><path clip-path="url(#clip680)" d="M1421.74 1470.32 Q1425.1 1471.04 1426.97 1473.31 Q1428.87 1475.58 1428.87 1478.91 Q1428.87 1484.03 1425.35 1486.83 Q1421.83 1489.63 1415.35 1489.63 Q1413.18 1489.63 1410.86 1489.19 Q1408.57 1488.77 1406.12 1487.91 L1406.12 1483.4 Q1408.06 1484.54 1410.38 1485.11 Q1412.69 1485.69 1415.21 1485.69 Q1419.61 1485.69 1421.9 1483.96 Q1424.22 1482.22 1424.22 1478.91 Q1424.22 1475.85 1422.06 1474.14 Q1419.94 1472.41 1416.12 1472.41 L1412.09 1472.41 L1412.09 1468.56 L1416.3 1468.56 Q1419.75 1468.56 1421.58 1467.2 Q1423.41 1465.81 1423.41 1463.22 Q1423.41 1460.55 1421.51 1459.14 Q1419.63 1457.71 1416.12 1457.71 Q1414.19 1457.71 1412 1458.12 Q1409.8 1458.54 1407.16 1459.42 L1407.16 1455.25 Q1409.82 1454.51 1412.13 1454.14 Q1414.47 1453.77 1416.53 1453.77 Q1421.86 1453.77 1424.96 1456.2 Q1428.06 1458.61 1428.06 1462.73 Q1428.06 1465.6 1426.42 1467.59 Q1424.77 1469.56 1421.74 1470.32 Z" fill="#000000" fill-rule="nonzero" fill-opacity="1" /><path clip-path="url(#clip680)" d="M1437.74 1483.08 L1442.62 1483.08 L1442.62 1488.96 L1437.74 1488.96 L1437.74 1483.08 Z" fill="#000000" fill-rule="nonzero" fill-opacity="1" /><path clip-path="url(#clip680)" d="M1462.81 1457.48 Q1459.19 1457.48 1457.37 1461.04 Q1455.56 1464.58 1455.56 1471.71 Q1455.56 1478.82 1457.37 1482.38 Q1459.19 1485.92 1462.81 1485.92 Q1466.44 1485.92 1468.25 1482.38 Q1470.07 1478.82 1470.07 1471.71 Q1470.07 1464.58 1468.25 1461.04 Q1466.44 1457.48 1462.81 1457.48 M1462.81 1453.77 Q1468.62 1453.77 1471.67 1458.38 Q1474.75 1462.96 1474.75 1471.71 Q1474.75 1480.44 1471.67 1485.04 Q1468.62 1489.63 1462.81 1489.63 Q1457 1489.63 1453.92 1485.04 Q1450.86 1480.44 1450.86 1471.71 Q1450.86 1462.96 1453.92 1458.38 Q1457 1453.77 1462.81 1453.77 Z" fill="#000000" fill-rule="nonzero" fill-opacity="1" /><path clip-path="url(#clip680)" d="M1511.14 1463.49 L1500.56 1474.12 L1511.14 1484.7 L1508.38 1487.5 L1497.76 1476.87 L1487.13 1487.5 L1484.4 1484.7 L1494.96 1474.12 L1484.4 1463.49 L1487.13 1460.69 L1497.76 1471.32 L1508.38 1460.69 L1511.14 1463.49 Z" fill="#000000" fill-rule="nonzero" fill-opacity="1" /><path clip-path="url(#clip680)" d="M1523.5 1485.02 L1531.14 1485.02 L1531.14 1458.66 L1522.83 1460.32 L1522.83 1456.06 L1531.09 1454.4 L1535.77 1454.4 L1535.77 1485.02 L1543.41 1485.02 L1543.41 1488.96 L1523.5 1488.96 L1523.5 1485.02 Z" fill="#000000" fill-rule="nonzero" fill-opacity="1" /><path clip-path="url(#clip680)" d="M1562.85 1457.48 Q1559.24 1457.48 1557.41 1461.04 Q1555.61 1464.58 1555.61 1471.71 Q1555.61 1478.82 1557.41 1482.38 Q1559.24 1485.92 1562.85 1485.92 Q1566.49 1485.92 1568.29 1482.38 Q1570.12 1478.82 1570.12 1471.71 Q1570.12 1464.58 1568.29 1461.04 Q1566.49 1457.48 1562.85 1457.48 M1562.85 1453.77 Q1568.66 1453.77 1571.72 1458.38 Q1574.8 1462.96 1574.8 1471.71 Q1574.8 1480.44 1571.72 1485.04 Q1568.66 1489.63 1562.85 1489.63 Q1557.04 1489.63 1553.96 1485.04 Q1550.91 1480.44 1550.91 1471.71 Q1550.91 1462.96 1553.96 1458.38 Q1557.04 1453.77 1562.85 1453.77 Z" fill="#000000" fill-rule="nonzero" fill-opacity="1" /><path clip-path="url(#clip680)" d="M1575.98 1433.47 L1590.9 1433.47 L1590.9 1436.66 L1579.46 1436.66 L1579.46 1443.55 Q1580.29 1443.27 1581.12 1443.13 Q1581.94 1442.98 1582.77 1442.98 Q1587.47 1442.98 1590.22 1445.56 Q1592.96 1448.14 1592.96 1452.54 Q1592.96 1457.07 1590.14 1459.59 Q1587.32 1462.09 1582.19 1462.09 Q1580.42 1462.09 1578.58 1461.79 Q1576.75 1461.49 1574.8 1460.89 L1574.8 1457.07 Q1576.49 1457.99 1578.29 1458.44 Q1580.1 1458.89 1582.11 1458.89 Q1585.37 1458.89 1587.27 1457.18 Q1589.16 1455.47 1589.16 1452.54 Q1589.16 1449.6 1587.27 1447.89 Q1585.37 1446.18 1582.11 1446.18 Q1580.59 1446.18 1579.07 1446.52 Q1577.56 1446.86 1575.98 1447.57 L1575.98 1433.47 Z" fill="#000000" fill-rule="nonzero" fill-opacity="1" /><path clip-path="url(#clip680)" d="M1817.92 1458.47 L1806.11 1476.92 L1817.92 1476.92 L1817.92 1458.47 M1816.69 1454.4 L1822.57 1454.4 L1822.57 1476.92 L1827.5 1476.92 L1827.5 1480.81 L1822.57 1480.81 L1822.57 1488.96 L1817.92 1488.96 L1817.92 1480.81 L1802.31 1480.81 L1802.31 1476.29 L1816.69 1454.4 Z" fill="#000000" fill-rule="nonzero" fill-opacity="1" /><path clip-path="url(#clip680)" d="M1835.23 1483.08 L1840.11 1483.08 L1840.11 1488.96 L1835.23 1488.96 L1835.23 1483.08 Z" fill="#000000" fill-rule="nonzero" fill-opacity="1" /><path clip-path="url(#clip680)" d="M1860.3 1457.48 Q1856.69 1457.48 1854.86 1461.04 Q1853.05 1464.58 1853.05 1471.71 Q1853.05 1478.82 1854.86 1482.38 Q1856.69 1485.92 1860.3 1485.92 Q1863.93 1485.92 1865.74 1482.38 Q1867.57 1478.82 1867.57 1471.71 Q1867.57 1464.58 1865.74 1461.04 Q1863.93 1457.48 1860.3 1457.48 M1860.3 1453.77 Q1866.11 1453.77 1869.16 1458.38 Q1872.24 1462.96 1872.24 1471.71 Q1872.24 1480.44 1869.16 1485.04 Q1866.11 1489.63 1860.3 1489.63 Q1854.49 1489.63 1851.41 1485.04 Q1848.35 1480.44 1848.35 1471.71 Q1848.35 1462.96 1851.41 1458.38 Q1854.49 1453.77 1860.3 1453.77 Z" fill="#000000" fill-rule="nonzero" fill-opacity="1" /><path clip-path="url(#clip680)" d="M1908.63 1463.49 L1898.05 1474.12 L1908.63 1484.7 L1905.88 1487.5 L1895.25 1476.87 L1884.63 1487.5 L1881.9 1484.7 L1892.45 1474.12 L1881.9 1463.49 L1884.63 1460.69 L1895.25 1471.32 L1905.88 1460.69 L1908.63 1463.49 Z" fill="#000000" fill-rule="nonzero" fill-opacity="1" /><path clip-path="url(#clip680)" d="M1920.99 1485.02 L1928.63 1485.02 L1928.63 1458.66 L1920.32 1460.32 L1920.32 1456.06 L1928.59 1454.4 L1933.26 1454.4 L1933.26 1485.02 L1940.9 1485.02 L1940.9 1488.96 L1920.99 1488.96 L1920.99 1485.02 Z" fill="#000000" fill-rule="nonzero" fill-opacity="1" /><path clip-path="url(#clip680)" d="M1960.34 1457.48 Q1956.73 1457.48 1954.91 1461.04 Q1953.1 1464.58 1953.1 1471.71 Q1953.1 1478.82 1954.91 1482.38 Q1956.73 1485.92 1960.34 1485.92 Q1963.98 1485.92 1965.78 1482.38 Q1967.61 1478.82 1967.61 1471.71 Q1967.61 1464.58 1965.78 1461.04 Q1963.98 1457.48 1960.34 1457.48 M1960.34 1453.77 Q1966.16 1453.77 1969.21 1458.38 Q1972.29 1462.96 1972.29 1471.71 Q1972.29 1480.44 1969.21 1485.04 Q1966.16 1489.63 1960.34 1489.63 Q1954.53 1489.63 1951.46 1485.04 Q1948.4 1480.44 1948.4 1471.71 Q1948.4 1462.96 1951.46 1458.38 Q1954.53 1453.77 1960.34 1453.77 Z" fill="#000000" fill-rule="nonzero" fill-opacity="1" /><path clip-path="url(#clip680)" d="M1973.47 1433.47 L1988.39 1433.47 L1988.39 1436.66 L1976.95 1436.66 L1976.95 1443.55 Q1977.78 1443.27 1978.61 1443.13 Q1979.44 1442.98 1980.26 1442.98 Q1984.97 1442.98 1987.71 1445.56 Q1990.46 1448.14 1990.46 1452.54 Q1990.46 1457.07 1987.64 1459.59 Q1984.82 1462.09 1979.68 1462.09 Q1977.91 1462.09 1976.07 1461.79 Q1974.25 1461.49 1972.29 1460.89 L1972.29 1457.07 Q1973.98 1457.99 1975.79 1458.44 Q1977.59 1458.89 1979.61 1458.89 Q1982.86 1458.89 1984.76 1457.18 Q1986.66 1455.47 1986.66 1452.54 Q1986.66 1449.6 1984.76 1447.89 Q1982.86 1446.18 1979.61 1446.18 Q1978.08 1446.18 1976.56 1446.52 Q1975.05 1446.86 1973.47 1447.57 L1973.47 1433.47 Z" fill="#000000" fill-rule="nonzero" fill-opacity="1" /><path clip-path="url(#clip680)" d="M2201.29 1454.4 L2219.64 1454.4 L2219.64 1458.33 L2205.57 1458.33 L2205.57 1466.8 Q2206.59 1466.46 2207.61 1466.29 Q2208.63 1466.11 2209.64 1466.11 Q2215.43 1466.11 2218.81 1469.28 Q2222.19 1472.45 2222.19 1477.87 Q2222.19 1483.45 2218.72 1486.55 Q2215.25 1489.63 2208.93 1489.63 Q2206.75 1489.63 2204.48 1489.26 Q2202.24 1488.89 2199.83 1488.15 L2199.83 1483.45 Q2201.91 1484.58 2204.14 1485.14 Q2206.36 1485.69 2208.83 1485.69 Q2212.84 1485.69 2215.18 1483.59 Q2217.52 1481.48 2217.52 1477.87 Q2217.52 1474.26 2215.18 1472.15 Q2212.84 1470.04 2208.83 1470.04 Q2206.96 1470.04 2205.08 1470.46 Q2203.23 1470.88 2201.29 1471.76 L2201.29 1454.4 Z" fill="#000000" fill-rule="nonzero" fill-opacity="1" /><path clip-path="url(#clip680)" d="M2231.4 1483.08 L2236.29 1483.08 L2236.29 1488.96 L2231.4 1488.96 L2231.4 1483.08 Z" fill="#000000" fill-rule="nonzero" fill-opacity="1" /><path clip-path="url(#clip680)" d="M2256.47 1457.48 Q2252.86 1457.48 2251.03 1461.04 Q2249.23 1464.58 2249.23 1471.71 Q2249.23 1478.82 2251.03 1482.38 Q2252.86 1485.92 2256.47 1485.92 Q2260.11 1485.92 2261.91 1482.38 Q2263.74 1478.82 2263.74 1471.71 Q2263.74 1464.58 2261.91 1461.04 Q2260.11 1457.48 2256.47 1457.48 M2256.47 1453.77 Q2262.28 1453.77 2265.34 1458.38 Q2268.42 1462.96 2268.42 1471.71 Q2268.42 1480.44 2265.34 1485.04 Q2262.28 1489.63 2256.47 1489.63 Q2250.66 1489.63 2247.58 1485.04 Q2244.53 1480.44 2244.53 1471.71 Q2244.53 1462.96 2247.58 1458.38 Q2250.66 1453.77 2256.47 1453.77 Z" fill="#000000" fill-rule="nonzero" fill-opacity="1" /><path clip-path="url(#clip680)" d="M2304.81 1463.49 L2294.23 1474.12 L2304.81 1484.7 L2302.05 1487.5 L2291.43 1476.87 L2280.8 1487.5 L2278.07 1484.7 L2288.63 1474.12 L2278.07 1463.49 L2280.8 1460.69 L2291.43 1471.32 L2302.05 1460.69 L2304.81 1463.49 Z" fill="#000000" fill-rule="nonzero" fill-opacity="1" /><path clip-path="url(#clip680)" d="M2317.17 1485.02 L2324.81 1485.02 L2324.81 1458.66 L2316.5 1460.32 L2316.5 1456.06 L2324.76 1454.4 L2329.44 1454.4 L2329.44 1485.02 L2337.07 1485.02 L2337.07 1488.96 L2317.17 1488.96 L2317.17 1485.02 Z" fill="#000000" fill-rule="nonzero" fill-opacity="1" /><path clip-path="url(#clip680)" d="M2356.52 1457.48 Q2352.91 1457.48 2351.08 1461.04 Q2349.27 1464.58 2349.27 1471.71 Q2349.27 1478.82 2351.08 1482.38 Q2352.91 1485.92 2356.52 1485.92 Q2360.15 1485.92 2361.96 1482.38 Q2363.79 1478.82 2363.79 1471.71 Q2363.79 1464.58 2361.96 1461.04 Q2360.15 1457.48 2356.52 1457.48 M2356.52 1453.77 Q2362.33 1453.77 2365.38 1458.38 Q2368.46 1462.96 2368.46 1471.71 Q2368.46 1480.44 2365.38 1485.04 Q2362.33 1489.63 2356.52 1489.63 Q2350.71 1489.63 2347.63 1485.04 Q2344.57 1480.44 2344.57 1471.71 Q2344.57 1462.96 2347.63 1458.38 Q2350.71 1453.77 2356.52 1453.77 Z" fill="#000000" fill-rule="nonzero" fill-opacity="1" /><path clip-path="url(#clip680)" d="M2369.65 1433.47 L2384.56 1433.47 L2384.56 1436.66 L2373.13 1436.66 L2373.13 1443.55 Q2373.96 1443.27 2374.78 1443.13 Q2375.61 1442.98 2376.44 1442.98 Q2381.14 1442.98 2383.89 1445.56 Q2386.63 1448.14 2386.63 1452.54 Q2386.63 1457.07 2383.81 1459.59 Q2380.99 1462.09 2375.85 1462.09 Q2374.09 1462.09 2372.24 1461.79 Q2370.42 1461.49 2368.46 1460.89 L2368.46 1457.07 Q2370.16 1457.99 2371.96 1458.44 Q2373.77 1458.89 2375.78 1458.89 Q2379.03 1458.89 2380.93 1457.18 Q2382.83 1455.47 2382.83 1452.54 Q2382.83 1449.6 2380.93 1447.89 Q2379.03 1446.18 2375.78 1446.18 Q2374.26 1446.18 2372.73 1446.52 Q2371.23 1446.86 2369.65 1447.57 L2369.65 1433.47 Z" fill="#000000" fill-rule="nonzero" fill-opacity="1" /><path clip-path="url(#clip680)" d="M1316.08 1552.67 L1316.08 1574.19 L1310.22 1574.19 L1310.22 1552.86 Q1310.22 1547.8 1308.25 1545.29 Q1306.27 1542.77 1302.33 1542.77 Q1297.58 1542.77 1294.85 1545.79 Q1292.11 1548.82 1292.11 1554.04 L1292.11 1574.19 L1286.22 1574.19 L1286.22 1538.54 L1292.11 1538.54 L1292.11 1544.08 Q1294.21 1540.86 1297.04 1539.27 Q1299.91 1537.68 1303.63 1537.68 Q1309.77 1537.68 1312.93 1541.5 Q1316.08 1545.29 1316.08 1552.67 Z" fill="#000000" fill-rule="nonzero" fill-opacity="1" /><polyline clip-path="url(#clip682)" style="stroke:#000000; stroke-linecap:round; stroke-linejoin:round; stroke-width:2; stroke-opacity:0.1; fill:none" points="249.542,1372.34 2352.76,1372.34 "/>
<polyline clip-path="url(#clip682)" style="stroke:#000000; stroke-linecap:round; stroke-linejoin:round; stroke-width:2; stroke-opacity:0.1; fill:none" points="249.542,1051.8 2352.76,1051.8 "/>
<polyline clip-path="url(#clip682)" style="stroke:#000000; stroke-linecap:round; stroke-linejoin:round; stroke-width:2; stroke-opacity:0.1; fill:none" points="249.542,731.25 2352.76,731.25 "/>
<polyline clip-path="url(#clip682)" style="stroke:#000000; stroke-linecap:round; stroke-linejoin:round; stroke-width:2; stroke-opacity:0.1; fill:none" points="249.542,410.705 2352.76,410.705 "/>
<polyline clip-path="url(#clip682)" style="stroke:#000000; stroke-linecap:round; stroke-linejoin:round; stroke-width:2; stroke-opacity:0.1; fill:none" points="249.542,90.1602 2352.76,90.1602 "/>
<polyline clip-path="url(#clip680)" style="stroke:#000000; stroke-linecap:round; stroke-linejoin:round; stroke-width:4; stroke-opacity:1; fill:none" points="249.542,1410.9 249.542,47.2441 "/>
<polyline clip-path="url(#clip680)" style="stroke:#000000; stroke-linecap:round; stroke-linejoin:round; stroke-width:4; stroke-opacity:1; fill:none" points="249.542,1372.34 268.44,1372.34 "/>
<polyline clip-path="url(#clip680)" style="stroke:#000000; stroke-linecap:round; stroke-linejoin:round; stroke-width:4; stroke-opacity:1; fill:none" points="249.542,1051.8 268.44,1051.8 "/>
<polyline clip-path="url(#clip680)" style="stroke:#000000; stroke-linecap:round; stroke-linejoin:round; stroke-width:4; stroke-opacity:1; fill:none" points="249.542,731.25 268.44,731.25 "/>
<polyline clip-path="url(#clip680)" style="stroke:#000000; stroke-linecap:round; stroke-linejoin:round; stroke-width:4; stroke-opacity:1; fill:none" points="249.542,410.705 268.44,410.705 "/>
<polyline clip-path="url(#clip680)" style="stroke:#000000; stroke-linecap:round; stroke-linejoin:round; stroke-width:4; stroke-opacity:1; fill:none" points="249.542,90.1602 268.44,90.1602 "/>
<path clip-path="url(#clip680)" d="M126.205 1358.14 Q122.593 1358.14 120.765 1361.7 Q118.959 1365.25 118.959 1372.37 Q118.959 1379.48 120.765 1383.05 Q122.593 1386.59 126.205 1386.59 Q129.839 1386.59 131.644 1383.05 Q133.473 1379.48 133.473 1372.37 Q133.473 1365.25 131.644 1361.7 Q129.839 1358.14 126.205 1358.14 M126.205 1354.44 Q132.015 1354.44 135.07 1359.04 Q138.149 1363.62 138.149 1372.37 Q138.149 1381.1 135.07 1385.71 Q132.015 1390.29 126.205 1390.29 Q120.394 1390.29 117.316 1385.71 Q114.26 1381.1 114.26 1372.37 Q114.26 1363.62 117.316 1359.04 Q120.394 1354.44 126.205 1354.44 Z" fill="#000000" fill-rule="nonzero" fill-opacity="1" /><path clip-path="url(#clip680)" d="M146.366 1383.74 L151.251 1383.74 L151.251 1389.62 L146.366 1389.62 L146.366 1383.74 Z" fill="#000000" fill-rule="nonzero" fill-opacity="1" /><path clip-path="url(#clip680)" d="M171.436 1358.14 Q167.825 1358.14 165.996 1361.7 Q164.19 1365.25 164.19 1372.37 Q164.19 1379.48 165.996 1383.05 Q167.825 1386.59 171.436 1386.59 Q175.07 1386.59 176.876 1383.05 Q178.704 1379.48 178.704 1372.37 Q178.704 1365.25 176.876 1361.7 Q175.07 1358.14 171.436 1358.14 M171.436 1354.44 Q177.246 1354.44 180.301 1359.04 Q183.38 1363.62 183.38 1372.37 Q183.38 1381.1 180.301 1385.71 Q177.246 1390.29 171.436 1390.29 Q165.626 1390.29 162.547 1385.71 Q159.491 1381.1 159.491 1372.37 Q159.491 1363.62 162.547 1359.04 Q165.626 1354.44 171.436 1354.44 Z" fill="#000000" fill-rule="nonzero" fill-opacity="1" /><path clip-path="url(#clip680)" d="M201.598 1358.14 Q197.987 1358.14 196.158 1361.7 Q194.352 1365.25 194.352 1372.37 Q194.352 1379.48 196.158 1383.05 Q197.987 1386.59 201.598 1386.59 Q205.232 1386.59 207.037 1383.05 Q208.866 1379.48 208.866 1372.37 Q208.866 1365.25 207.037 1361.7 Q205.232 1358.14 201.598 1358.14 M201.598 1354.44 Q207.408 1354.44 210.463 1359.04 Q213.542 1363.62 213.542 1372.37 Q213.542 1381.1 210.463 1385.71 Q207.408 1390.29 201.598 1390.29 Q195.787 1390.29 192.709 1385.71 Q189.653 1381.1 189.653 1372.37 Q189.653 1363.62 192.709 1359.04 Q195.787 1354.44 201.598 1354.44 Z" fill="#000000" fill-rule="nonzero" fill-opacity="1" /><path clip-path="url(#clip680)" d="M127.2 1037.59 Q123.589 1037.59 121.76 1041.16 Q119.955 1044.7 119.955 1051.83 Q119.955 1058.94 121.76 1062.5 Q123.589 1066.04 127.2 1066.04 Q130.834 1066.04 132.64 1062.5 Q134.468 1058.94 134.468 1051.83 Q134.468 1044.7 132.64 1041.16 Q130.834 1037.59 127.2 1037.59 M127.2 1033.89 Q133.01 1033.89 136.066 1038.5 Q139.144 1043.08 139.144 1051.83 Q139.144 1060.56 136.066 1065.16 Q133.01 1069.75 127.2 1069.75 Q121.39 1069.75 118.311 1065.16 Q115.256 1060.56 115.256 1051.83 Q115.256 1043.08 118.311 1038.5 Q121.39 1033.89 127.2 1033.89 Z" fill="#000000" fill-rule="nonzero" fill-opacity="1" /><path clip-path="url(#clip680)" d="M147.362 1063.2 L152.246 1063.2 L152.246 1069.08 L147.362 1069.08 L147.362 1063.2 Z" fill="#000000" fill-rule="nonzero" fill-opacity="1" /><path clip-path="url(#clip680)" d="M172.431 1037.59 Q168.82 1037.59 166.991 1041.16 Q165.186 1044.7 165.186 1051.83 Q165.186 1058.94 166.991 1062.5 Q168.82 1066.04 172.431 1066.04 Q176.065 1066.04 177.871 1062.5 Q179.7 1058.94 179.7 1051.83 Q179.7 1044.7 177.871 1041.16 Q176.065 1037.59 172.431 1037.59 M172.431 1033.89 Q178.241 1033.89 181.297 1038.5 Q184.376 1043.08 184.376 1051.83 Q184.376 1060.56 181.297 1065.16 Q178.241 1069.75 172.431 1069.75 Q166.621 1069.75 163.542 1065.16 Q160.487 1060.56 160.487 1051.83 Q160.487 1043.08 163.542 1038.5 Q166.621 1033.89 172.431 1033.89 Z" fill="#000000" fill-rule="nonzero" fill-opacity="1" /><path clip-path="url(#clip680)" d="M192.639 1034.52 L210.996 1034.52 L210.996 1038.45 L196.922 1038.45 L196.922 1046.92 Q197.94 1046.58 198.959 1046.41 Q199.977 1046.23 200.996 1046.23 Q206.783 1046.23 210.162 1049.4 Q213.542 1052.57 213.542 1057.99 Q213.542 1063.57 210.07 1066.67 Q206.598 1069.75 200.278 1069.75 Q198.102 1069.75 195.834 1069.38 Q193.588 1069.01 191.181 1068.26 L191.181 1063.57 Q193.264 1064.7 195.487 1065.26 Q197.709 1065.81 200.186 1065.81 Q204.19 1065.81 206.528 1063.7 Q208.866 1061.6 208.866 1057.99 Q208.866 1054.38 206.528 1052.27 Q204.19 1050.16 200.186 1050.16 Q198.311 1050.16 196.436 1050.58 Q194.584 1051 192.639 1051.88 L192.639 1034.52 Z" fill="#000000" fill-rule="nonzero" fill-opacity="1" /><path clip-path="url(#clip680)" d="M126.205 717.049 Q122.593 717.049 120.765 720.614 Q118.959 724.155 118.959 731.285 Q118.959 738.391 120.765 741.956 Q122.593 745.498 126.205 745.498 Q129.839 745.498 131.644 741.956 Q133.473 738.391 133.473 731.285 Q133.473 724.155 131.644 720.614 Q129.839 717.049 126.205 717.049 M126.205 713.345 Q132.015 713.345 135.07 717.952 Q138.149 722.535 138.149 731.285 Q138.149 740.012 135.07 744.618 Q132.015 749.201 126.205 749.201 Q120.394 749.201 117.316 744.618 Q114.26 740.012 114.26 731.285 Q114.26 722.535 117.316 717.952 Q120.394 713.345 126.205 713.345 Z" fill="#000000" fill-rule="nonzero" fill-opacity="1" /><path clip-path="url(#clip680)" d="M146.366 742.651 L151.251 742.651 L151.251 748.53 L146.366 748.53 L146.366 742.651 Z" fill="#000000" fill-rule="nonzero" fill-opacity="1" /><path clip-path="url(#clip680)" d="M162.246 744.595 L169.885 744.595 L169.885 718.229 L161.575 719.896 L161.575 715.637 L169.839 713.97 L174.514 713.97 L174.514 744.595 L182.153 744.595 L182.153 748.53 L162.246 748.53 L162.246 744.595 Z" fill="#000000" fill-rule="nonzero" fill-opacity="1" /><path clip-path="url(#clip680)" d="M201.598 717.049 Q197.987 717.049 196.158 720.614 Q194.352 724.155 194.352 731.285 Q194.352 738.391 196.158 741.956 Q197.987 745.498 201.598 745.498 Q205.232 745.498 207.037 741.956 Q208.866 738.391 208.866 731.285 Q208.866 724.155 207.037 720.614 Q205.232 717.049 201.598 717.049 M201.598 713.345 Q207.408 713.345 210.463 717.952 Q213.542 722.535 213.542 731.285 Q213.542 740.012 210.463 744.618 Q207.408 749.201 201.598 749.201 Q195.787 749.201 192.709 744.618 Q189.653 740.012 189.653 731.285 Q189.653 722.535 192.709 717.952 Q195.787 713.345 201.598 713.345 Z" fill="#000000" fill-rule="nonzero" fill-opacity="1" /><path clip-path="url(#clip680)" d="M127.2 396.504 Q123.589 396.504 121.76 400.069 Q119.955 403.61 119.955 410.74 Q119.955 417.846 121.76 421.411 Q123.589 424.953 127.2 424.953 Q130.834 424.953 132.64 421.411 Q134.468 417.846 134.468 410.74 Q134.468 403.61 132.64 400.069 Q130.834 396.504 127.2 396.504 M127.2 392.8 Q133.01 392.8 136.066 397.407 Q139.144 401.99 139.144 410.74 Q139.144 419.467 136.066 424.073 Q133.01 428.656 127.2 428.656 Q121.39 428.656 118.311 424.073 Q115.256 419.467 115.256 410.74 Q115.256 401.99 118.311 397.407 Q121.39 392.8 127.2 392.8 Z" fill="#000000" fill-rule="nonzero" fill-opacity="1" /><path clip-path="url(#clip680)" d="M147.362 422.106 L152.246 422.106 L152.246 427.985 L147.362 427.985 L147.362 422.106 Z" fill="#000000" fill-rule="nonzero" fill-opacity="1" /><path clip-path="url(#clip680)" d="M163.241 424.05 L170.88 424.05 L170.88 397.684 L162.57 399.351 L162.57 395.092 L170.834 393.425 L175.51 393.425 L175.51 424.05 L183.149 424.05 L183.149 427.985 L163.241 427.985 L163.241 424.05 Z" fill="#000000" fill-rule="nonzero" fill-opacity="1" /><path clip-path="url(#clip680)" d="M192.639 393.425 L210.996 393.425 L210.996 397.36 L196.922 397.36 L196.922 405.833 Q197.94 405.485 198.959 405.323 Q199.977 405.138 200.996 405.138 Q206.783 405.138 210.162 408.309 Q213.542 411.481 213.542 416.897 Q213.542 422.476 210.07 425.578 Q206.598 428.656 200.278 428.656 Q198.102 428.656 195.834 428.286 Q193.588 427.916 191.181 427.175 L191.181 422.476 Q193.264 423.61 195.487 424.166 Q197.709 424.721 200.186 424.721 Q204.19 424.721 206.528 422.615 Q208.866 420.508 208.866 416.897 Q208.866 413.286 206.528 411.18 Q204.19 409.073 200.186 409.073 Q198.311 409.073 196.436 409.49 Q194.584 409.907 192.639 410.786 L192.639 393.425 Z" fill="#000000" fill-rule="nonzero" fill-opacity="1" /><path clip-path="url(#clip680)" d="M126.205 75.9589 Q122.593 75.9589 120.765 79.5237 Q118.959 83.0653 118.959 90.1949 Q118.959 97.3014 120.765 100.866 Q122.593 104.408 126.205 104.408 Q129.839 104.408 131.644 100.866 Q133.473 97.3014 133.473 90.1949 Q133.473 83.0653 131.644 79.5237 Q129.839 75.9589 126.205 75.9589 M126.205 72.2552 Q132.015 72.2552 135.07 76.8617 Q138.149 81.445 138.149 90.1949 Q138.149 98.9217 135.07 103.528 Q132.015 108.111 126.205 108.111 Q120.394 108.111 117.316 103.528 Q114.26 98.9217 114.26 90.1949 Q114.26 81.445 117.316 76.8617 Q120.394 72.2552 126.205 72.2552 Z" fill="#000000" fill-rule="nonzero" fill-opacity="1" /><path clip-path="url(#clip680)" d="M146.366 101.561 L151.251 101.561 L151.251 107.44 L146.366 107.44 L146.366 101.561 Z" fill="#000000" fill-rule="nonzero" fill-opacity="1" /><path clip-path="url(#clip680)" d="M165.464 103.505 L181.783 103.505 L181.783 107.44 L159.839 107.44 L159.839 103.505 Q162.501 100.75 167.084 96.1208 Q171.69 91.4681 172.871 90.1255 Q175.116 87.6023 175.996 85.8662 Q176.899 84.107 176.899 82.4172 Q176.899 79.6626 174.954 77.9265 Q173.033 76.1904 169.931 76.1904 Q167.732 76.1904 165.278 76.9543 Q162.848 77.7181 160.07 79.2691 L160.07 74.5469 Q162.894 73.4126 165.348 72.8339 Q167.802 72.2552 169.839 72.2552 Q175.209 72.2552 178.403 74.9404 Q181.598 77.6256 181.598 82.1163 Q181.598 84.2459 180.788 86.1672 Q180.001 88.0653 177.894 90.6579 Q177.315 91.3292 174.214 94.5468 Q171.112 97.7412 165.464 103.505 Z" fill="#000000" fill-rule="nonzero" fill-opacity="1" /><path clip-path="url(#clip680)" d="M201.598 75.9589 Q197.987 75.9589 196.158 79.5237 Q194.352 83.0653 194.352 90.1949 Q194.352 97.3014 196.158 100.866 Q197.987 104.408 201.598 104.408 Q205.232 104.408 207.037 100.866 Q208.866 97.3014 208.866 90.1949 Q208.866 83.0653 207.037 79.5237 Q205.232 75.9589 201.598 75.9589 M201.598 72.2552 Q207.408 72.2552 210.463 76.8617 Q213.542 81.445 213.542 90.1949 Q213.542 98.9217 210.463 103.528 Q207.408 108.111 201.598 108.111 Q195.787 108.111 192.709 103.528 Q189.653 98.9217 189.653 90.1949 Q189.653 81.445 192.709 76.8617 Q195.787 72.2552 201.598 72.2552 Z" fill="#000000" fill-rule="nonzero" fill-opacity="1" /><path clip-path="url(#clip680)" d="M20.1444 815.708 L26.9239 815.708 Q23.9002 818.954 22.4043 822.646 Q20.9083 826.307 20.9083 830.444 Q20.9083 838.592 25.9054 842.921 Q30.8707 847.25 40.2919 847.25 Q49.6813 847.25 54.6784 842.921 Q59.6436 838.592 59.6436 830.444 Q59.6436 826.307 58.1477 822.646 Q56.6518 818.954 53.6281 815.708 L60.3439 815.708 Q62.6355 819.081 63.7814 822.869 Q64.9272 826.625 64.9272 830.826 Q64.9272 841.616 58.3387 847.823 Q51.7183 854.029 40.2919 854.029 Q28.8336 854.029 22.2451 847.823 Q15.6248 841.616 15.6248 830.826 Q15.6248 826.561 16.7706 822.805 Q17.8846 819.018 20.1444 815.708 Z" fill="#000000" fill-rule="nonzero" fill-opacity="1" /><path clip-path="url(#clip680)" d="M28.3562 808.578 L28.3562 780.76 L33.7034 780.76 L59.3254 802.785 L59.3254 780.76 L64.0042 780.76 L64.0042 809.374 L58.657 809.374 L33.035 787.348 L33.035 808.578 L28.3562 808.578 Z" fill="#000000" fill-rule="nonzero" fill-opacity="1" /><path clip-path="url(#clip680)" d="M46.0847 755.615 Q46.0847 762.713 47.7079 765.45 Q49.3312 768.188 53.2461 768.188 Q56.3653 768.188 58.2114 766.151 Q60.0256 764.082 60.0256 760.549 Q60.0256 755.679 56.5881 752.751 Q53.1188 749.791 47.3897 749.791 L46.0847 749.791 L46.0847 755.615 M43.6657 743.934 L64.0042 743.934 L64.0042 749.791 L58.5933 749.791 Q61.8398 751.796 63.3994 754.788 Q64.9272 757.78 64.9272 762.108 Q64.9272 767.583 61.8716 770.829 Q58.7843 774.044 53.6281 774.044 Q47.6125 774.044 44.5569 770.034 Q41.5014 765.991 41.5014 758.003 L41.5014 749.791 L40.9285 749.791 Q36.8862 749.791 34.6901 752.464 Q32.4621 755.106 32.4621 759.912 Q32.4621 762.968 33.1941 765.864 Q33.9262 768.761 35.3903 771.434 L29.9795 771.434 Q28.7381 768.219 28.1334 765.196 Q27.4968 762.172 27.4968 759.307 Q27.4968 751.573 31.5072 747.754 Q35.5176 743.934 43.6657 743.934 Z" fill="#000000" fill-rule="nonzero" fill-opacity="1" /><path clip-path="url(#clip680)" d="M29.4065 709.146 L34.9447 709.146 Q33.6716 711.628 33.035 714.302 Q32.3984 716.976 32.3984 719.84 Q32.3984 724.201 33.7352 726.397 Q35.072 728.561 37.7456 728.561 Q39.7826 728.561 40.9603 727.002 Q42.1061 725.442 43.1565 720.731 L43.6021 718.726 Q44.9389 712.488 47.3897 709.878 Q49.8086 707.236 54.1691 707.236 Q59.1344 707.236 62.0308 711.183 Q64.9272 715.098 64.9272 721.973 Q64.9272 724.837 64.3543 727.956 Q63.8132 731.044 62.6992 734.481 L56.6518 734.481 Q58.3387 731.235 59.198 728.084 Q60.0256 724.933 60.0256 721.845 Q60.0256 717.708 58.6251 715.48 Q57.1929 713.252 54.6147 713.252 Q52.2276 713.252 50.9545 714.875 Q49.6813 716.466 48.5037 721.909 L48.0262 723.946 Q46.8804 729.389 44.5251 731.808 Q42.138 734.227 38.0002 734.227 Q32.9713 734.227 30.2341 730.662 Q27.4968 727.097 27.4968 720.54 Q27.4968 717.294 27.9743 714.429 Q28.4517 711.565 29.4065 709.146 Z" fill="#000000" fill-rule="nonzero" fill-opacity="1" /><path clip-path="url(#clip680)" d="M14.479 677.731 L14.479 664.236 L19.0304 664.236 L19.0304 671.874 L68.0464 671.874 L68.0464 664.236 L72.5979 664.236 L72.5979 677.731 L14.479 677.731 Z" fill="#000000" fill-rule="nonzero" fill-opacity="1" /><path clip-path="url(#clip680)" d="M29.4065 629.033 L34.9447 629.033 Q33.6716 631.516 33.035 634.19 Q32.3984 636.863 32.3984 639.728 Q32.3984 644.088 33.7352 646.284 Q35.072 648.449 37.7456 648.449 Q39.7826 648.449 40.9603 646.889 Q42.1061 645.329 43.1565 640.619 L43.6021 638.614 Q44.9389 632.375 47.3897 629.765 Q49.8086 627.124 54.1691 627.124 Q59.1344 627.124 62.0308 631.07 Q64.9272 634.985 64.9272 641.86 Q64.9272 644.725 64.3543 647.844 Q63.8132 650.931 62.6992 654.369 L56.6518 654.369 Q58.3387 651.122 59.198 647.971 Q60.0256 644.82 60.0256 641.733 Q60.0256 637.595 58.6251 635.367 Q57.1929 633.139 54.6147 633.139 Q52.2276 633.139 50.9545 634.762 Q49.6813 636.354 48.5037 641.797 L48.0262 643.834 Q46.8804 649.276 44.5251 651.695 Q42.138 654.114 38.0002 654.114 Q32.9713 654.114 30.2341 650.549 Q27.4968 646.985 27.4968 640.428 Q27.4968 637.181 27.9743 634.317 Q28.4517 631.452 29.4065 629.033 Z" fill="#000000" fill-rule="nonzero" fill-opacity="1" /><path clip-path="url(#clip680)" d="M14.479 604.112 L72.5979 604.112 L72.5979 617.607 L68.0464 617.607 L68.0464 610 L19.0304 610 L19.0304 617.607 L14.479 617.607 L14.479 604.112 Z" fill="#000000" fill-rule="nonzero" fill-opacity="1" /><polyline clip-path="url(#clip682)" style="stroke:#009af9; stroke-linecap:round; stroke-linejoin:round; stroke-width:4; stroke-opacity:1; fill:none" points="309.067,1372.3 348.688,1334.86 507.426,1311.89 705.849,1198.2 1499.54,993.438 2293.23,723.003 "/>
<polyline clip-path="url(#clip682)" style="stroke:#e26f46; stroke-linecap:round; stroke-linejoin:round; stroke-width:4; stroke-opacity:1; fill:none" points="309.067,1372.29 348.688,1343.96 507.426,1231.48 705.849,1065.83 1499.54,704.379 2293.23,85.838 "/>
<path clip-path="url(#clip680)" d="M319.649 248.219 L798.117 248.219 L798.117 92.6992 L319.649 92.6992  Z" fill="#ffffff" fill-rule="evenodd" fill-opacity="1"/>
<polyline clip-path="url(#clip680)" style="stroke:#000000; stroke-linecap:round; stroke-linejoin:round; stroke-width:4; stroke-opacity:1; fill:none" points="319.649,248.219 798.117,248.219 798.117,92.6992 319.649,92.6992 319.649,248.219 "/>
<polyline clip-path="url(#clip680)" style="stroke:#009af9; stroke-linecap:round; stroke-linejoin:round; stroke-width:4; stroke-opacity:1; fill:none" points="343.018,144.539 483.232,144.539 "/>
<path clip-path="url(#clip680)" d="M511.277 145.315 L511.277 157.977 L518.777 157.977 Q522.55 157.977 524.356 156.426 Q526.185 154.852 526.185 151.634 Q526.185 148.393 524.356 146.866 Q522.55 145.315 518.777 145.315 L511.277 145.315 M511.277 131.102 L511.277 141.518 L518.199 141.518 Q521.625 141.518 523.291 140.245 Q524.981 138.949 524.981 136.31 Q524.981 133.694 523.291 132.398 Q521.625 131.102 518.199 131.102 L511.277 131.102 M506.602 127.259 L518.546 127.259 Q523.893 127.259 526.787 129.481 Q529.68 131.704 529.68 135.801 Q529.68 138.972 528.199 140.847 Q526.717 142.722 523.847 143.185 Q527.296 143.926 529.194 146.287 Q531.115 148.625 531.115 152.143 Q531.115 156.773 527.967 159.296 Q524.819 161.819 519.009 161.819 L506.602 161.819 L506.602 127.259 Z" fill="#000000" fill-rule="nonzero" fill-opacity="1" /><path clip-path="url(#clip680)" d="M561.115 147.791 L561.115 149.875 L541.532 149.875 Q541.81 154.273 544.171 156.588 Q546.555 158.879 550.791 158.879 Q553.245 158.879 555.536 158.278 Q557.851 157.676 560.12 156.472 L560.12 160.5 Q557.828 161.472 555.421 161.981 Q553.013 162.49 550.536 162.49 Q544.333 162.49 540.699 158.879 Q537.087 155.268 537.087 149.111 Q537.087 142.745 540.513 139.018 Q543.962 135.268 549.796 135.268 Q555.027 135.268 558.06 138.648 Q561.115 142.004 561.115 147.791 M556.856 146.541 Q556.81 143.046 554.888 140.963 Q552.99 138.879 549.842 138.879 Q546.277 138.879 544.124 140.893 Q541.995 142.907 541.671 146.565 L556.856 146.541 Z" fill="#000000" fill-rule="nonzero" fill-opacity="1" /><path clip-path="url(#clip680)" d="M566.254 135.893 L586.485 135.893 L586.485 139.782 L570.467 158.416 L586.485 158.416 L586.485 161.819 L565.675 161.819 L565.675 157.93 L581.694 139.296 L566.254 139.296 L566.254 135.893 Z" fill="#000000" fill-rule="nonzero" fill-opacity="1" /><path clip-path="url(#clip680)" d="M605.582 135.893 L609.842 135.893 L615.166 156.125 L620.467 135.893 L625.49 135.893 L630.814 156.125 L636.115 135.893 L640.374 135.893 L633.592 161.819 L628.568 161.819 L622.99 140.569 L617.388 161.819 L612.365 161.819 L605.582 135.893 Z" fill="#000000" fill-rule="nonzero" fill-opacity="1" /><path clip-path="url(#clip680)" d="M657.619 164.227 Q655.814 168.856 654.101 170.268 Q652.388 171.68 649.517 171.68 L646.115 171.68 L646.115 168.115 L648.615 168.115 Q650.374 168.115 651.346 167.282 Q652.318 166.449 653.499 163.347 L654.263 161.403 L643.777 135.893 L648.291 135.893 L656.392 156.171 L664.494 135.893 L669.008 135.893 L657.619 164.227 Z" fill="#000000" fill-rule="nonzero" fill-opacity="1" /><path clip-path="url(#clip680)" d="M693.499 148.879 Q693.499 144.18 691.554 141.518 Q689.633 138.833 686.253 138.833 Q682.874 138.833 680.929 141.518 Q679.008 144.18 679.008 148.879 Q679.008 153.578 680.929 156.264 Q682.874 158.926 686.253 158.926 Q689.633 158.926 691.554 156.264 Q693.499 153.578 693.499 148.879 M679.008 139.829 Q680.351 137.514 682.388 136.403 Q684.448 135.268 687.295 135.268 Q692.017 135.268 694.957 139.018 Q697.92 142.768 697.92 148.879 Q697.92 154.991 694.957 158.74 Q692.017 162.49 687.295 162.49 Q684.448 162.49 682.388 161.379 Q680.351 160.245 679.008 157.93 L679.008 161.819 L674.726 161.819 L674.726 125.801 L679.008 125.801 L679.008 139.829 Z" fill="#000000" fill-rule="nonzero" fill-opacity="1" /><path clip-path="url(#clip680)" d="M715.026 138.879 Q711.6 138.879 709.61 141.565 Q707.619 144.227 707.619 148.879 Q707.619 153.532 709.587 156.217 Q711.577 158.879 715.026 158.879 Q718.429 158.879 720.42 156.194 Q722.411 153.509 722.411 148.879 Q722.411 144.273 720.42 141.588 Q718.429 138.879 715.026 138.879 M715.026 135.268 Q720.582 135.268 723.753 138.879 Q726.924 142.491 726.924 148.879 Q726.924 155.245 723.753 158.879 Q720.582 162.49 715.026 162.49 Q709.448 162.49 706.276 158.879 Q703.128 155.245 703.128 148.879 Q703.128 142.491 706.276 138.879 Q709.448 135.268 715.026 135.268 Z" fill="#000000" fill-rule="nonzero" fill-opacity="1" /><path clip-path="url(#clip680)" d="M749.008 139.875 Q748.29 139.458 747.434 139.273 Q746.6 139.065 745.582 139.065 Q741.971 139.065 740.026 141.426 Q738.105 143.764 738.105 148.162 L738.105 161.819 L733.823 161.819 L733.823 135.893 L738.105 135.893 L738.105 139.921 Q739.447 137.56 741.6 136.426 Q743.753 135.268 746.832 135.268 Q747.272 135.268 747.804 135.338 Q748.336 135.384 748.984 135.5 L749.008 139.875 Z" fill="#000000" fill-rule="nonzero" fill-opacity="1" /><path clip-path="url(#clip680)" d="M753.035 151.588 L753.035 135.893 L757.295 135.893 L757.295 151.426 Q757.295 155.106 758.73 156.958 Q760.165 158.787 763.035 158.787 Q766.484 158.787 768.475 156.588 Q770.489 154.389 770.489 150.592 L770.489 135.893 L774.748 135.893 L774.748 161.819 L770.489 161.819 L770.489 157.838 Q768.938 160.199 766.878 161.356 Q764.841 162.49 762.133 162.49 Q757.665 162.49 755.35 159.713 Q753.035 156.935 753.035 151.588 M763.753 135.268 L763.753 135.268 Z" fill="#000000" fill-rule="nonzero" fill-opacity="1" /><polyline clip-path="url(#clip680)" style="stroke:#e26f46; stroke-linecap:round; stroke-linejoin:round; stroke-width:4; stroke-opacity:1; fill:none" points="343.018,196.379 483.232,196.379 "/>
<path clip-path="url(#clip680)" d="M507.134 179.099 L534.287 179.099 L534.287 182.664 L512.435 209.724 L534.819 209.724 L534.819 213.659 L506.602 213.659 L506.602 210.094 L528.453 183.034 L507.134 183.034 L507.134 179.099 Z" fill="#000000" fill-rule="nonzero" fill-opacity="1" /><path clip-path="url(#clip680)" d="M554.009 187.733 L558.268 187.733 L563.592 207.965 L568.893 187.733 L573.916 187.733 L579.24 207.965 L584.541 187.733 L588.8 187.733 L582.018 213.659 L576.995 213.659 L571.416 192.409 L565.814 213.659 L560.791 213.659 L554.009 187.733 Z" fill="#000000" fill-rule="nonzero" fill-opacity="1" /><path clip-path="url(#clip680)" d="M606.045 216.067 Q604.24 220.696 602.527 222.108 Q600.814 223.52 597.944 223.52 L594.541 223.52 L594.541 219.955 L597.041 219.955 Q598.8 219.955 599.772 219.122 Q600.745 218.289 601.925 215.187 L602.689 213.243 L592.203 187.733 L596.717 187.733 L604.819 208.011 L612.92 187.733 L617.434 187.733 L606.045 216.067 Z" fill="#000000" fill-rule="nonzero" fill-opacity="1" /><path clip-path="url(#clip680)" d="M641.925 200.719 Q641.925 196.02 639.98 193.358 Q638.059 190.673 634.68 190.673 Q631.3 190.673 629.355 193.358 Q627.434 196.02 627.434 200.719 Q627.434 205.418 629.355 208.104 Q631.3 210.766 634.68 210.766 Q638.059 210.766 639.98 208.104 Q641.925 205.418 641.925 200.719 M627.434 191.669 Q628.777 189.354 630.814 188.243 Q632.874 187.108 635.721 187.108 Q640.443 187.108 643.383 190.858 Q646.346 194.608 646.346 200.719 Q646.346 206.831 643.383 210.58 Q640.443 214.33 635.721 214.33 Q632.874 214.33 630.814 213.219 Q628.777 212.085 627.434 209.77 L627.434 213.659 L623.152 213.659 L623.152 177.641 L627.434 177.641 L627.434 191.669 Z" fill="#000000" fill-rule="nonzero" fill-opacity="1" /><path clip-path="url(#clip680)" d="M663.453 190.719 Q660.027 190.719 658.036 193.405 Q656.045 196.067 656.045 200.719 Q656.045 205.372 658.013 208.057 Q660.003 210.719 663.453 210.719 Q666.855 210.719 668.846 208.034 Q670.837 205.349 670.837 200.719 Q670.837 196.113 668.846 193.428 Q666.855 190.719 663.453 190.719 M663.453 187.108 Q669.008 187.108 672.179 190.719 Q675.351 194.331 675.351 200.719 Q675.351 207.085 672.179 210.719 Q669.008 214.33 663.453 214.33 Q657.874 214.33 654.703 210.719 Q651.554 207.085 651.554 200.719 Q651.554 194.331 654.703 190.719 Q657.874 187.108 663.453 187.108 Z" fill="#000000" fill-rule="nonzero" fill-opacity="1" /><path clip-path="url(#clip680)" d="M697.434 191.715 Q696.716 191.298 695.86 191.113 Q695.026 190.905 694.008 190.905 Q690.397 190.905 688.452 193.266 Q686.531 195.604 686.531 200.002 L686.531 213.659 L682.249 213.659 L682.249 187.733 L686.531 187.733 L686.531 191.761 Q687.874 189.4 690.026 188.266 Q692.179 187.108 695.258 187.108 Q695.698 187.108 696.23 187.178 Q696.763 187.224 697.411 187.34 L697.434 191.715 Z" fill="#000000" fill-rule="nonzero" fill-opacity="1" /><path clip-path="url(#clip680)" d="M723.036 199.631 L723.036 201.715 L703.452 201.715 Q703.73 206.113 706.091 208.428 Q708.475 210.719 712.712 210.719 Q715.165 210.719 717.457 210.118 Q719.772 209.516 722.04 208.312 L722.04 212.34 Q719.749 213.312 717.341 213.821 Q714.934 214.33 712.457 214.33 Q706.253 214.33 702.619 210.719 Q699.008 207.108 699.008 200.951 Q699.008 194.585 702.434 190.858 Q705.883 187.108 711.716 187.108 Q716.948 187.108 719.98 190.488 Q723.036 193.844 723.036 199.631 M718.776 198.381 Q718.73 194.886 716.809 192.803 Q714.911 190.719 711.762 190.719 Q708.198 190.719 706.045 192.733 Q703.915 194.747 703.591 198.405 L718.776 198.381 Z" fill="#000000" fill-rule="nonzero" fill-opacity="1" /><path clip-path="url(#clip680)" d="M750.211 192.71 Q751.809 189.84 754.031 188.474 Q756.253 187.108 759.262 187.108 Q763.313 187.108 765.512 189.956 Q767.711 192.78 767.711 198.011 L767.711 213.659 L763.429 213.659 L763.429 198.15 Q763.429 194.423 762.109 192.618 Q760.79 190.812 758.082 190.812 Q754.771 190.812 752.85 193.011 Q750.929 195.21 750.929 199.006 L750.929 213.659 L746.647 213.659 L746.647 198.15 Q746.647 194.4 745.327 192.618 Q744.008 190.812 741.253 190.812 Q737.989 190.812 736.068 193.034 Q734.147 195.233 734.147 199.006 L734.147 213.659 L729.864 213.659 L729.864 187.733 L734.147 187.733 L734.147 191.761 Q735.605 189.377 737.642 188.243 Q739.679 187.108 742.48 187.108 Q745.304 187.108 747.272 188.544 Q749.262 189.979 750.211 192.71 Z" fill="#000000" fill-rule="nonzero" fill-opacity="1" /></svg>
