<?xml version="1.0" encoding="utf-8"?>
<svg xmlns="http://www.w3.org/2000/svg" xmlns:xlink="http://www.w3.org/1999/xlink" width="600" height="400" viewBox="0 0 2400 1600">
<defs>
  <clipPath id="clip040">
    <rect x="0" y="0" width="2400" height="1600"/>
  </clipPath>
</defs>
<path clip-path="url(#clip040)" d="M0 1600 L2400 1600 L2400 0 L0 0  Z" fill="#ffffff" fill-rule="evenodd" fill-opacity="1"/>
<defs>
  <clipPath id="clip041">
    <rect x="480" y="0" width="1681" height="1600"/>
  </clipPath>
</defs>
<path clip-path="url(#clip040)" d="M310.352 1423.18 L2352.76 1423.18 L2352.76 47.2441 L310.352 47.2441  Z" fill="#ffffff" fill-rule="evenodd" fill-opacity="1"/>
<defs>
  <clipPath id="clip042">
    <rect x="310" y="47" width="2043" height="1377"/>
  </clipPath>
</defs>
<polyline clip-path="url(#clip042)" style="stroke:#000000; stroke-linecap:round; stroke-linejoin:round; stroke-width:2; stroke-opacity:0.1; fill:none" points="582.244,1423.18 582.244,47.2441 "/>
<polyline clip-path="url(#clip042)" style="stroke:#000000; stroke-linecap:round; stroke-linejoin:round; stroke-width:2; stroke-opacity:0.1; fill:none" points="1010.42,1423.18 1010.42,47.2441 "/>
<polyline clip-path="url(#clip042)" style="stroke:#000000; stroke-linecap:round; stroke-linejoin:round; stroke-width:2; stroke-opacity:0.1; fill:none" points="1438.6,1423.18 1438.6,47.2441 "/>
<polyline clip-path="url(#clip042)" style="stroke:#000000; stroke-linecap:round; stroke-linejoin:round; stroke-width:2; stroke-opacity:0.1; fill:none" points="1866.78,1423.18 1866.78,47.2441 "/>
<polyline clip-path="url(#clip042)" style="stroke:#000000; stroke-linecap:round; stroke-linejoin:round; stroke-width:2; stroke-opacity:0.1; fill:none" points="2294.95,1423.18 2294.95,47.2441 "/>
<polyline clip-path="url(#clip040)" style="stroke:#000000; stroke-linecap:round; stroke-linejoin:round; stroke-width:4; stroke-opacity:1; fill:none" points="310.352,1423.18 2352.76,1423.18 "/>
<polyline clip-path="url(#clip040)" style="stroke:#000000; stroke-linecap:round; stroke-linejoin:round; stroke-width:4; stroke-opacity:1; fill:none" points="582.244,1423.18 582.244,1404.28 "/>
<polyline clip-path="url(#clip040)" style="stroke:#000000; stroke-linecap:round; stroke-linejoin:round; stroke-width:4; stroke-opacity:1; fill:none" points="1010.42,1423.18 1010.42,1404.28 "/>
<polyline clip-path="url(#clip040)" style="stroke:#000000; stroke-linecap:round; stroke-linejoin:round; stroke-width:4; stroke-opacity:1; fill:none" points="1438.6,1423.18 1438.6,1404.28 "/>
<polyline clip-path="url(#clip040)" style="stroke:#000000; stroke-linecap:round; stroke-linejoin:round; stroke-width:4; stroke-opacity:1; fill:none" points="1866.78,1423.18 1866.78,1404.28 "/>
<polyline clip-path="url(#clip040)" style="stroke:#000000; stroke-linecap:round; stroke-linejoin:round; stroke-width:4; stroke-opacity:1; fill:none" points="2294.95,1423.18 2294.95,1404.28 "/>
<path clip-path="url(#clip040)" d="M541.863 1451.02 L560.219 1451.02 L560.219 1454.96 L546.145 1454.96 L546.145 1463.43 Q547.163 1463.08 548.182 1462.92 Q549.2 1462.73 550.219 1462.73 Q556.006 1462.73 559.386 1465.9 Q562.765 1469.08 562.765 1474.49 Q562.765 1480.07 559.293 1483.17 Q555.821 1486.25 549.501 1486.25 Q547.325 1486.25 545.057 1485.88 Q542.812 1485.51 540.404 1484.77 L540.404 1480.07 Q542.488 1481.2 544.71 1481.76 Q546.932 1482.32 549.409 1482.32 Q553.413 1482.32 555.751 1480.21 Q558.089 1478.1 558.089 1474.49 Q558.089 1470.88 555.751 1468.77 Q553.413 1466.67 549.409 1466.67 Q547.534 1466.67 545.659 1467.08 Q543.807 1467.5 541.863 1468.38 L541.863 1451.02 Z" fill="#000000" fill-rule="nonzero" fill-opacity="1" /><path clip-path="url(#clip040)" d="M581.978 1454.1 Q578.367 1454.1 576.538 1457.66 Q574.733 1461.2 574.733 1468.33 Q574.733 1475.44 576.538 1479.01 Q578.367 1482.55 581.978 1482.55 Q585.612 1482.55 587.418 1479.01 Q589.247 1475.44 589.247 1468.33 Q589.247 1461.2 587.418 1457.66 Q585.612 1454.1 581.978 1454.1 M581.978 1450.39 Q587.788 1450.39 590.844 1455 Q593.922 1459.58 593.922 1468.33 Q593.922 1477.06 590.844 1481.67 Q587.788 1486.25 581.978 1486.25 Q576.168 1486.25 573.089 1481.67 Q570.034 1477.06 570.034 1468.33 Q570.034 1459.58 573.089 1455 Q576.168 1450.39 581.978 1450.39 Z" fill="#000000" fill-rule="nonzero" fill-opacity="1" /><path clip-path="url(#clip040)" d="M612.14 1454.1 Q608.529 1454.1 606.7 1457.66 Q604.895 1461.2 604.895 1468.33 Q604.895 1475.44 606.7 1479.01 Q608.529 1482.55 612.14 1482.55 Q615.774 1482.55 617.58 1479.01 Q619.408 1475.44 619.408 1468.33 Q619.408 1461.2 617.58 1457.66 Q615.774 1454.1 612.14 1454.1 M612.14 1450.39 Q617.95 1450.39 621.006 1455 Q624.084 1459.58 624.084 1468.33 Q624.084 1477.06 621.006 1481.67 Q617.95 1486.25 612.14 1486.25 Q606.33 1486.25 603.251 1481.67 Q600.196 1477.06 600.196 1468.33 Q600.196 1459.58 603.251 1455 Q606.33 1450.39 612.14 1450.39 Z" fill="#000000" fill-rule="nonzero" fill-opacity="1" /><path clip-path="url(#clip040)" d="M954.947 1481.64 L962.586 1481.64 L962.586 1455.28 L954.276 1456.95 L954.276 1452.69 L962.54 1451.02 L967.215 1451.02 L967.215 1481.64 L974.854 1481.64 L974.854 1485.58 L954.947 1485.58 L954.947 1481.64 Z" fill="#000000" fill-rule="nonzero" fill-opacity="1" /><path clip-path="url(#clip040)" d="M994.299 1454.1 Q990.688 1454.1 988.859 1457.66 Q987.053 1461.2 987.053 1468.33 Q987.053 1475.44 988.859 1479.01 Q990.688 1482.55 994.299 1482.55 Q997.933 1482.55 999.738 1479.01 Q1001.57 1475.44 1001.57 1468.33 Q1001.57 1461.2 999.738 1457.66 Q997.933 1454.1 994.299 1454.1 M994.299 1450.39 Q1000.11 1450.39 1003.16 1455 Q1006.24 1459.58 1006.24 1468.33 Q1006.24 1477.06 1003.16 1481.67 Q1000.11 1486.25 994.299 1486.25 Q988.488 1486.25 985.41 1481.67 Q982.354 1477.06 982.354 1468.33 Q982.354 1459.58 985.41 1455 Q988.488 1450.39 994.299 1450.39 Z" fill="#000000" fill-rule="nonzero" fill-opacity="1" /><path clip-path="url(#clip040)" d="M1024.46 1454.1 Q1020.85 1454.1 1019.02 1457.66 Q1017.22 1461.2 1017.22 1468.33 Q1017.22 1475.44 1019.02 1479.01 Q1020.85 1482.55 1024.46 1482.55 Q1028.09 1482.55 1029.9 1479.01 Q1031.73 1475.44 1031.73 1468.33 Q1031.73 1461.2 1029.9 1457.66 Q1028.09 1454.1 1024.46 1454.1 M1024.46 1450.39 Q1030.27 1450.39 1033.33 1455 Q1036.4 1459.58 1036.4 1468.33 Q1036.4 1477.06 1033.33 1481.67 Q1030.27 1486.25 1024.46 1486.25 Q1018.65 1486.25 1015.57 1481.67 Q1012.52 1477.06 1012.52 1468.33 Q1012.52 1459.58 1015.57 1455 Q1018.65 1450.39 1024.46 1450.39 Z" fill="#000000" fill-rule="nonzero" fill-opacity="1" /><path clip-path="url(#clip040)" d="M1054.62 1454.1 Q1051.01 1454.1 1049.18 1457.66 Q1047.38 1461.2 1047.38 1468.33 Q1047.38 1475.44 1049.18 1479.01 Q1051.01 1482.55 1054.62 1482.55 Q1058.26 1482.55 1060.06 1479.01 Q1061.89 1475.44 1061.89 1468.33 Q1061.89 1461.2 1060.06 1457.66 Q1058.26 1454.1 1054.62 1454.1 M1054.62 1450.39 Q1060.43 1450.39 1063.49 1455 Q1066.57 1459.58 1066.57 1468.33 Q1066.57 1477.06 1063.49 1481.67 Q1060.43 1486.25 1054.62 1486.25 Q1048.81 1486.25 1045.73 1481.67 Q1042.68 1477.06 1042.68 1468.33 Q1042.68 1459.58 1045.73 1455 Q1048.81 1450.39 1054.62 1450.39 Z" fill="#000000" fill-rule="nonzero" fill-opacity="1" /><path clip-path="url(#clip040)" d="M1383.12 1481.64 L1390.76 1481.64 L1390.76 1455.28 L1382.45 1456.95 L1382.45 1452.69 L1390.72 1451.02 L1395.39 1451.02 L1395.39 1481.64 L1403.03 1481.64 L1403.03 1485.58 L1383.12 1485.58 L1383.12 1481.64 Z" fill="#000000" fill-rule="nonzero" fill-opacity="1" /><path clip-path="url(#clip040)" d="M1412.52 1451.02 L1430.88 1451.02 L1430.88 1454.96 L1416.8 1454.96 L1416.8 1463.43 Q1417.82 1463.08 1418.84 1462.92 Q1419.86 1462.73 1420.88 1462.73 Q1426.67 1462.73 1430.04 1465.9 Q1433.42 1469.08 1433.42 1474.49 Q1433.42 1480.07 1429.95 1483.17 Q1426.48 1486.25 1420.16 1486.25 Q1417.98 1486.25 1415.72 1485.88 Q1413.47 1485.51 1411.06 1484.77 L1411.06 1480.07 Q1413.15 1481.2 1415.37 1481.76 Q1417.59 1482.32 1420.07 1482.32 Q1424.07 1482.32 1426.41 1480.21 Q1428.75 1478.1 1428.75 1474.49 Q1428.75 1470.88 1426.41 1468.77 Q1424.07 1466.67 1420.07 1466.67 Q1418.19 1466.67 1416.32 1467.08 Q1414.47 1467.5 1412.52 1468.38 L1412.52 1451.02 Z" fill="#000000" fill-rule="nonzero" fill-opacity="1" /><path clip-path="url(#clip040)" d="M1452.64 1454.1 Q1449.03 1454.1 1447.2 1457.66 Q1445.39 1461.2 1445.39 1468.33 Q1445.39 1475.44 1447.2 1479.01 Q1449.03 1482.55 1452.64 1482.55 Q1456.27 1482.55 1458.08 1479.01 Q1459.91 1475.44 1459.91 1468.33 Q1459.91 1461.2 1458.08 1457.66 Q1456.27 1454.1 1452.64 1454.1 M1452.64 1450.39 Q1458.45 1450.39 1461.5 1455 Q1464.58 1459.58 1464.58 1468.33 Q1464.58 1477.06 1461.5 1481.67 Q1458.45 1486.25 1452.64 1486.25 Q1446.83 1486.25 1443.75 1481.67 Q1440.69 1477.06 1440.69 1468.33 Q1440.69 1459.58 1443.75 1455 Q1446.83 1450.39 1452.64 1450.39 Z" fill="#000000" fill-rule="nonzero" fill-opacity="1" /><path clip-path="url(#clip040)" d="M1482.8 1454.1 Q1479.19 1454.1 1477.36 1457.66 Q1475.55 1461.2 1475.55 1468.33 Q1475.55 1475.44 1477.36 1479.01 Q1479.19 1482.55 1482.8 1482.55 Q1486.43 1482.55 1488.24 1479.01 Q1490.07 1475.44 1490.07 1468.33 Q1490.07 1461.2 1488.24 1457.66 Q1486.43 1454.1 1482.8 1454.1 M1482.8 1450.39 Q1488.61 1450.39 1491.66 1455 Q1494.74 1459.58 1494.74 1468.33 Q1494.74 1477.06 1491.66 1481.67 Q1488.61 1486.25 1482.8 1486.25 Q1476.99 1486.25 1473.91 1481.67 Q1470.85 1477.06 1470.85 1468.33 Q1470.85 1459.58 1473.91 1455 Q1476.99 1450.39 1482.8 1450.39 Z" fill="#000000" fill-rule="nonzero" fill-opacity="1" /><path clip-path="url(#clip040)" d="M1815.39 1481.64 L1831.71 1481.64 L1831.71 1485.58 L1809.76 1485.58 L1809.76 1481.64 Q1812.42 1478.89 1817.01 1474.26 Q1821.61 1469.61 1822.79 1468.27 Q1825.04 1465.74 1825.92 1464.01 Q1826.82 1462.25 1826.82 1460.56 Q1826.82 1457.8 1824.88 1456.07 Q1822.96 1454.33 1819.85 1454.33 Q1817.65 1454.33 1815.2 1455.09 Q1812.77 1455.86 1809.99 1457.41 L1809.99 1452.69 Q1812.82 1451.55 1815.27 1450.97 Q1817.72 1450.39 1819.76 1450.39 Q1825.13 1450.39 1828.33 1453.08 Q1831.52 1455.77 1831.52 1460.26 Q1831.52 1462.39 1830.71 1464.31 Q1829.92 1466.2 1827.82 1468.8 Q1827.24 1469.47 1824.14 1472.69 Q1821.03 1475.88 1815.39 1481.64 Z" fill="#000000" fill-rule="nonzero" fill-opacity="1" /><path clip-path="url(#clip040)" d="M1851.52 1454.1 Q1847.91 1454.1 1846.08 1457.66 Q1844.28 1461.2 1844.28 1468.33 Q1844.28 1475.44 1846.08 1479.01 Q1847.91 1482.55 1851.52 1482.55 Q1855.15 1482.55 1856.96 1479.01 Q1858.79 1475.44 1858.79 1468.33 Q1858.79 1461.2 1856.96 1457.66 Q1855.15 1454.1 1851.52 1454.1 M1851.52 1450.39 Q1857.33 1450.39 1860.39 1455 Q1863.46 1459.58 1863.46 1468.33 Q1863.46 1477.06 1860.39 1481.67 Q1857.33 1486.25 1851.52 1486.25 Q1845.71 1486.25 1842.63 1481.67 Q1839.58 1477.06 1839.58 1468.33 Q1839.58 1459.58 1842.63 1455 Q1845.71 1450.39 1851.52 1450.39 Z" fill="#000000" fill-rule="nonzero" fill-opacity="1" /><path clip-path="url(#clip040)" d="M1881.68 1454.1 Q1878.07 1454.1 1876.24 1457.66 Q1874.44 1461.2 1874.44 1468.33 Q1874.44 1475.44 1876.24 1479.01 Q1878.07 1482.55 1881.68 1482.55 Q1885.32 1482.55 1887.12 1479.01 Q1888.95 1475.44 1888.95 1468.33 Q1888.95 1461.2 1887.12 1457.66 Q1885.32 1454.1 1881.68 1454.1 M1881.68 1450.39 Q1887.49 1450.39 1890.55 1455 Q1893.63 1459.58 1893.63 1468.33 Q1893.63 1477.06 1890.55 1481.67 Q1887.49 1486.25 1881.68 1486.25 Q1875.87 1486.25 1872.79 1481.67 Q1869.74 1477.06 1869.74 1468.33 Q1869.74 1459.58 1872.79 1455 Q1875.87 1450.39 1881.68 1450.39 Z" fill="#000000" fill-rule="nonzero" fill-opacity="1" /><path clip-path="url(#clip040)" d="M1911.84 1454.1 Q1908.23 1454.1 1906.4 1457.66 Q1904.6 1461.2 1904.6 1468.33 Q1904.6 1475.44 1906.4 1479.01 Q1908.23 1482.55 1911.84 1482.55 Q1915.48 1482.55 1917.28 1479.01 Q1919.11 1475.44 1919.11 1468.33 Q1919.11 1461.2 1917.28 1457.66 Q1915.48 1454.1 1911.84 1454.1 M1911.84 1450.39 Q1917.65 1450.39 1920.71 1455 Q1923.79 1459.58 1923.79 1468.33 Q1923.79 1477.06 1920.71 1481.67 Q1917.65 1486.25 1911.84 1486.25 Q1906.03 1486.25 1902.96 1481.67 Q1899.9 1477.06 1899.9 1468.33 Q1899.9 1459.58 1902.96 1455 Q1906.03 1450.39 1911.84 1450.39 Z" fill="#000000" fill-rule="nonzero" fill-opacity="1" /><path clip-path="url(#clip040)" d="M2243.56 1481.64 L2259.88 1481.64 L2259.88 1485.58 L2237.94 1485.58 L2237.94 1481.64 Q2240.6 1478.89 2245.18 1474.26 Q2249.79 1469.61 2250.97 1468.27 Q2253.22 1465.74 2254.1 1464.01 Q2255 1462.25 2255 1460.56 Q2255 1457.8 2253.05 1456.07 Q2251.13 1454.33 2248.03 1454.33 Q2245.83 1454.33 2243.38 1455.09 Q2240.95 1455.86 2238.17 1457.41 L2238.17 1452.69 Q2240.99 1451.55 2243.45 1450.97 Q2245.9 1450.39 2247.94 1450.39 Q2253.31 1450.39 2256.5 1453.08 Q2259.7 1455.77 2259.7 1460.26 Q2259.7 1462.39 2258.89 1464.31 Q2258.1 1466.2 2255.99 1468.8 Q2255.42 1469.47 2252.31 1472.69 Q2249.21 1475.88 2243.56 1481.64 Z" fill="#000000" fill-rule="nonzero" fill-opacity="1" /><path clip-path="url(#clip040)" d="M2269.74 1451.02 L2288.1 1451.02 L2288.1 1454.96 L2274.03 1454.96 L2274.03 1463.43 Q2275.04 1463.08 2276.06 1462.92 Q2277.08 1462.73 2278.1 1462.73 Q2283.89 1462.73 2287.27 1465.9 Q2290.65 1469.08 2290.65 1474.49 Q2290.65 1480.07 2287.17 1483.17 Q2283.7 1486.25 2277.38 1486.25 Q2275.21 1486.25 2272.94 1485.88 Q2270.69 1485.51 2268.29 1484.77 L2268.29 1480.07 Q2270.37 1481.2 2272.59 1481.76 Q2274.81 1482.32 2277.29 1482.32 Q2281.29 1482.32 2283.63 1480.21 Q2285.97 1478.1 2285.97 1474.49 Q2285.97 1470.88 2283.63 1468.77 Q2281.29 1466.67 2277.29 1466.67 Q2275.42 1466.67 2273.54 1467.08 Q2271.69 1467.5 2269.74 1468.38 L2269.74 1451.02 Z" fill="#000000" fill-rule="nonzero" fill-opacity="1" /><path clip-path="url(#clip040)" d="M2309.86 1454.1 Q2306.25 1454.1 2304.42 1457.66 Q2302.61 1461.2 2302.61 1468.33 Q2302.61 1475.44 2304.42 1479.01 Q2306.25 1482.55 2309.86 1482.55 Q2313.49 1482.55 2315.3 1479.01 Q2317.13 1475.44 2317.13 1468.33 Q2317.13 1461.2 2315.3 1457.66 Q2313.49 1454.1 2309.86 1454.1 M2309.86 1450.39 Q2315.67 1450.39 2318.73 1455 Q2321.8 1459.58 2321.8 1468.33 Q2321.8 1477.06 2318.73 1481.67 Q2315.67 1486.25 2309.86 1486.25 Q2304.05 1486.25 2300.97 1481.67 Q2297.91 1477.06 2297.91 1468.33 Q2297.91 1459.58 2300.97 1455 Q2304.05 1450.39 2309.86 1450.39 Z" fill="#000000" fill-rule="nonzero" fill-opacity="1" /><path clip-path="url(#clip040)" d="M2340.02 1454.1 Q2336.41 1454.1 2334.58 1457.66 Q2332.78 1461.2 2332.78 1468.33 Q2332.78 1475.44 2334.58 1479.01 Q2336.41 1482.55 2340.02 1482.55 Q2343.66 1482.55 2345.46 1479.01 Q2347.29 1475.44 2347.29 1468.33 Q2347.29 1461.2 2345.46 1457.66 Q2343.66 1454.1 2340.02 1454.1 M2340.02 1450.39 Q2345.83 1450.39 2348.89 1455 Q2351.97 1459.58 2351.97 1468.33 Q2351.97 1477.06 2348.89 1481.67 Q2345.83 1486.25 2340.02 1486.25 Q2334.21 1486.25 2331.13 1481.67 Q2328.08 1477.06 2328.08 1468.33 Q2328.08 1459.58 2331.13 1455 Q2334.21 1450.39 2340.02 1450.39 Z" fill="#000000" fill-rule="nonzero" fill-opacity="1" /><path clip-path="url(#clip040)" d="M1346.48 1546.53 L1346.48 1568.04 L1340.63 1568.04 L1340.63 1546.72 Q1340.63 1541.66 1338.65 1539.14 Q1336.68 1536.63 1332.73 1536.63 Q1327.99 1536.63 1325.25 1539.65 Q1322.51 1542.68 1322.51 1547.9 L1322.51 1568.04 L1316.63 1568.04 L1316.63 1532.4 L1322.51 1532.4 L1322.51 1537.93 Q1324.62 1534.72 1327.45 1533.13 Q1330.31 1531.54 1334.04 1531.54 Q1340.18 1531.54 1343.33 1535.36 Q1346.48 1539.14 1346.48 1546.53 Z" fill="#000000" fill-rule="nonzero" fill-opacity="1" /><polyline clip-path="url(#clip042)" style="stroke:#000000; stroke-linecap:round; stroke-linejoin:round; stroke-width:2; stroke-opacity:0.1; fill:none" points="310.352,1412.19 2352.76,1412.19 "/>
<polyline clip-path="url(#clip042)" style="stroke:#000000; stroke-linecap:round; stroke-linejoin:round; stroke-width:2; stroke-opacity:0.1; fill:none" points="310.352,1167.29 2352.76,1167.29 "/>
<polyline clip-path="url(#clip042)" style="stroke:#000000; stroke-linecap:round; stroke-linejoin:round; stroke-width:2; stroke-opacity:0.1; fill:none" points="310.352,922.387 2352.76,922.387 "/>
<polyline clip-path="url(#clip042)" style="stroke:#000000; stroke-linecap:round; stroke-linejoin:round; stroke-width:2; stroke-opacity:0.1; fill:none" points="310.352,677.486 2352.76,677.486 "/>
<polyline clip-path="url(#clip042)" style="stroke:#000000; stroke-linecap:round; stroke-linejoin:round; stroke-width:2; stroke-opacity:0.1; fill:none" points="310.352,432.585 2352.76,432.585 "/>
<polyline clip-path="url(#clip042)" style="stroke:#000000; stroke-linecap:round; stroke-linejoin:round; stroke-width:2; stroke-opacity:0.1; fill:none" points="310.352,187.684 2352.76,187.684 "/>
<polyline clip-path="url(#clip040)" style="stroke:#000000; stroke-linecap:round; stroke-linejoin:round; stroke-width:4; stroke-opacity:1; fill:none" points="310.352,1423.18 310.352,47.2441 "/>
<polyline clip-path="url(#clip040)" style="stroke:#000000; stroke-linecap:round; stroke-linejoin:round; stroke-width:4; stroke-opacity:1; fill:none" points="310.352,1412.19 329.25,1412.19 "/>
<polyline clip-path="url(#clip040)" style="stroke:#000000; stroke-linecap:round; stroke-linejoin:round; stroke-width:4; stroke-opacity:1; fill:none" points="310.352,1167.29 329.25,1167.29 "/>
<polyline clip-path="url(#clip040)" style="stroke:#000000; stroke-linecap:round; stroke-linejoin:round; stroke-width:4; stroke-opacity:1; fill:none" points="310.352,922.387 329.25,922.387 "/>
<polyline clip-path="url(#clip040)" style="stroke:#000000; stroke-linecap:round; stroke-linejoin:round; stroke-width:4; stroke-opacity:1; fill:none" points="310.352,677.486 329.25,677.486 "/>
<polyline clip-path="url(#clip040)" style="stroke:#000000; stroke-linecap:round; stroke-linejoin:round; stroke-width:4; stroke-opacity:1; fill:none" points="310.352,432.585 329.25,432.585 "/>
<polyline clip-path="url(#clip040)" style="stroke:#000000; stroke-linecap:round; stroke-linejoin:round; stroke-width:4; stroke-opacity:1; fill:none" points="310.352,187.684 329.25,187.684 "/>
<path clip-path="url(#clip040)" d="M126.691 1397.99 Q123.08 1397.99 121.251 1401.55 Q119.445 1405.09 119.445 1412.22 Q119.445 1419.33 121.251 1422.9 Q123.08 1426.44 126.691 1426.44 Q130.325 1426.44 132.13 1422.9 Q133.959 1419.33 133.959 1412.22 Q133.959 1405.09 132.13 1401.55 Q130.325 1397.99 126.691 1397.99 M126.691 1394.28 Q132.501 1394.28 135.556 1398.89 Q138.635 1403.47 138.635 1412.22 Q138.635 1420.95 135.556 1425.56 Q132.501 1430.14 126.691 1430.14 Q120.88 1430.14 117.802 1425.56 Q114.746 1420.95 114.746 1412.22 Q114.746 1403.47 117.802 1398.89 Q120.88 1394.28 126.691 1394.28 Z" fill="#000000" fill-rule="nonzero" fill-opacity="1" /><path clip-path="url(#clip040)" d="M146.853 1423.59 L151.737 1423.59 L151.737 1429.47 L146.853 1429.47 L146.853 1423.59 Z" fill="#000000" fill-rule="nonzero" fill-opacity="1" /><path clip-path="url(#clip040)" d="M171.922 1397.99 Q168.311 1397.99 166.482 1401.55 Q164.677 1405.09 164.677 1412.22 Q164.677 1419.33 166.482 1422.9 Q168.311 1426.44 171.922 1426.44 Q175.556 1426.44 177.362 1422.9 Q179.19 1419.33 179.19 1412.22 Q179.19 1405.09 177.362 1401.55 Q175.556 1397.99 171.922 1397.99 M171.922 1394.28 Q177.732 1394.28 180.788 1398.89 Q183.866 1403.47 183.866 1412.22 Q183.866 1420.95 180.788 1425.56 Q177.732 1430.14 171.922 1430.14 Q166.112 1430.14 163.033 1425.56 Q159.978 1420.95 159.978 1412.22 Q159.978 1403.47 163.033 1398.89 Q166.112 1394.28 171.922 1394.28 Z" fill="#000000" fill-rule="nonzero" fill-opacity="1" /><path clip-path="url(#clip040)" d="M202.084 1397.99 Q198.473 1397.99 196.644 1401.55 Q194.838 1405.09 194.838 1412.22 Q194.838 1419.33 196.644 1422.9 Q198.473 1426.44 202.084 1426.44 Q205.718 1426.44 207.524 1422.9 Q209.352 1419.33 209.352 1412.22 Q209.352 1405.09 207.524 1401.55 Q205.718 1397.99 202.084 1397.99 M202.084 1394.28 Q207.894 1394.28 210.949 1398.89 Q214.028 1403.47 214.028 1412.22 Q214.028 1420.95 210.949 1425.56 Q207.894 1430.14 202.084 1430.14 Q196.274 1430.14 193.195 1425.56 Q190.139 1420.95 190.139 1412.22 Q190.139 1403.47 193.195 1398.89 Q196.274 1394.28 202.084 1394.28 Z" fill="#000000" fill-rule="nonzero" fill-opacity="1" /><path clip-path="url(#clip040)" d="M232.246 1397.99 Q228.635 1397.99 226.806 1401.55 Q225 1405.09 225 1412.22 Q225 1419.33 226.806 1422.9 Q228.635 1426.44 232.246 1426.44 Q235.88 1426.44 237.685 1422.9 Q239.514 1419.33 239.514 1412.22 Q239.514 1405.09 237.685 1401.55 Q235.88 1397.99 232.246 1397.99 M232.246 1394.28 Q238.056 1394.28 241.111 1398.89 Q244.19 1403.47 244.19 1412.22 Q244.19 1420.95 241.111 1425.56 Q238.056 1430.14 232.246 1430.14 Q226.435 1430.14 223.357 1425.56 Q220.301 1420.95 220.301 1412.22 Q220.301 1403.47 223.357 1398.89 Q226.435 1394.28 232.246 1394.28 Z" fill="#000000" fill-rule="nonzero" fill-opacity="1" /><path clip-path="url(#clip040)" d="M262.408 1397.99 Q258.796 1397.99 256.968 1401.55 Q255.162 1405.09 255.162 1412.22 Q255.162 1419.33 256.968 1422.9 Q258.796 1426.44 262.408 1426.44 Q266.042 1426.44 267.847 1422.9 Q269.676 1419.33 269.676 1412.22 Q269.676 1405.09 267.847 1401.55 Q266.042 1397.99 262.408 1397.99 M262.408 1394.28 Q268.218 1394.28 271.273 1398.89 Q274.352 1403.47 274.352 1412.22 Q274.352 1420.95 271.273 1425.56 Q268.218 1430.14 262.408 1430.14 Q256.597 1430.14 253.519 1425.56 Q250.463 1420.95 250.463 1412.22 Q250.463 1403.47 253.519 1398.89 Q256.597 1394.28 262.408 1394.28 Z" fill="#000000" fill-rule="nonzero" fill-opacity="1" /><path clip-path="url(#clip040)" d="M127.917 1153.09 Q124.306 1153.09 122.478 1156.65 Q120.672 1160.19 120.672 1167.32 Q120.672 1174.43 122.478 1177.99 Q124.306 1181.54 127.917 1181.54 Q131.552 1181.54 133.357 1177.99 Q135.186 1174.43 135.186 1167.32 Q135.186 1160.19 133.357 1156.65 Q131.552 1153.09 127.917 1153.09 M127.917 1149.38 Q133.728 1149.38 136.783 1153.99 Q139.862 1158.57 139.862 1167.32 Q139.862 1176.05 136.783 1180.66 Q133.728 1185.24 127.917 1185.24 Q122.107 1185.24 119.029 1180.66 Q115.973 1176.05 115.973 1167.32 Q115.973 1158.57 119.029 1153.99 Q122.107 1149.38 127.917 1149.38 Z" fill="#000000" fill-rule="nonzero" fill-opacity="1" /><path clip-path="url(#clip040)" d="M148.079 1178.69 L152.964 1178.69 L152.964 1184.57 L148.079 1184.57 L148.079 1178.69 Z" fill="#000000" fill-rule="nonzero" fill-opacity="1" /><path clip-path="url(#clip040)" d="M173.149 1153.09 Q169.538 1153.09 167.709 1156.65 Q165.903 1160.19 165.903 1167.32 Q165.903 1174.43 167.709 1177.99 Q169.538 1181.54 173.149 1181.54 Q176.783 1181.54 178.589 1177.99 Q180.417 1174.43 180.417 1167.32 Q180.417 1160.19 178.589 1156.65 Q176.783 1153.09 173.149 1153.09 M173.149 1149.38 Q178.959 1149.38 182.014 1153.99 Q185.093 1158.57 185.093 1167.32 Q185.093 1176.05 182.014 1180.66 Q178.959 1185.24 173.149 1185.24 Q167.339 1185.24 164.26 1180.66 Q161.204 1176.05 161.204 1167.32 Q161.204 1158.57 164.26 1153.99 Q167.339 1149.38 173.149 1149.38 Z" fill="#000000" fill-rule="nonzero" fill-opacity="1" /><path clip-path="url(#clip040)" d="M203.311 1153.09 Q199.7 1153.09 197.871 1156.65 Q196.065 1160.19 196.065 1167.32 Q196.065 1174.43 197.871 1177.99 Q199.7 1181.54 203.311 1181.54 Q206.945 1181.54 208.75 1177.99 Q210.579 1174.43 210.579 1167.32 Q210.579 1160.19 208.75 1156.65 Q206.945 1153.09 203.311 1153.09 M203.311 1149.38 Q209.121 1149.38 212.176 1153.99 Q215.255 1158.57 215.255 1167.32 Q215.255 1176.05 212.176 1180.66 Q209.121 1185.24 203.311 1185.24 Q197.5 1185.24 194.422 1180.66 Q191.366 1176.05 191.366 1167.32 Q191.366 1158.57 194.422 1153.99 Q197.5 1149.38 203.311 1149.38 Z" fill="#000000" fill-rule="nonzero" fill-opacity="1" /><path clip-path="url(#clip040)" d="M233.472 1153.09 Q229.861 1153.09 228.033 1156.65 Q226.227 1160.19 226.227 1167.32 Q226.227 1174.43 228.033 1177.99 Q229.861 1181.54 233.472 1181.54 Q237.107 1181.54 238.912 1177.99 Q240.741 1174.43 240.741 1167.32 Q240.741 1160.19 238.912 1156.65 Q237.107 1153.09 233.472 1153.09 M233.472 1149.38 Q239.283 1149.38 242.338 1153.99 Q245.417 1158.57 245.417 1167.32 Q245.417 1176.05 242.338 1180.66 Q239.283 1185.24 233.472 1185.24 Q227.662 1185.24 224.584 1180.66 Q221.528 1176.05 221.528 1167.32 Q221.528 1158.57 224.584 1153.99 Q227.662 1149.38 233.472 1149.38 Z" fill="#000000" fill-rule="nonzero" fill-opacity="1" /><path clip-path="url(#clip040)" d="M254.445 1180.63 L262.083 1180.63 L262.083 1154.27 L253.773 1155.93 L253.773 1151.68 L262.037 1150.01 L266.713 1150.01 L266.713 1180.63 L274.352 1180.63 L274.352 1184.57 L254.445 1184.57 L254.445 1180.63 Z" fill="#000000" fill-rule="nonzero" fill-opacity="1" /><path clip-path="url(#clip040)" d="M128.288 908.186 Q124.677 908.186 122.848 911.751 Q121.043 915.292 121.043 922.422 Q121.043 929.528 122.848 933.093 Q124.677 936.635 128.288 936.635 Q131.922 936.635 133.728 933.093 Q135.556 929.528 135.556 922.422 Q135.556 915.292 133.728 911.751 Q131.922 908.186 128.288 908.186 M128.288 904.482 Q134.098 904.482 137.154 909.089 Q140.232 913.672 140.232 922.422 Q140.232 931.149 137.154 935.755 Q134.098 940.338 128.288 940.338 Q122.478 940.338 119.399 935.755 Q116.343 931.149 116.343 922.422 Q116.343 913.672 119.399 909.089 Q122.478 904.482 128.288 904.482 Z" fill="#000000" fill-rule="nonzero" fill-opacity="1" /><path clip-path="url(#clip040)" d="M148.45 933.788 L153.334 933.788 L153.334 939.667 L148.45 939.667 L148.45 933.788 Z" fill="#000000" fill-rule="nonzero" fill-opacity="1" /><path clip-path="url(#clip040)" d="M173.519 908.186 Q169.908 908.186 168.079 911.751 Q166.274 915.292 166.274 922.422 Q166.274 929.528 168.079 933.093 Q169.908 936.635 173.519 936.635 Q177.153 936.635 178.959 933.093 Q180.788 929.528 180.788 922.422 Q180.788 915.292 178.959 911.751 Q177.153 908.186 173.519 908.186 M173.519 904.482 Q179.329 904.482 182.385 909.089 Q185.463 913.672 185.463 922.422 Q185.463 931.149 182.385 935.755 Q179.329 940.338 173.519 940.338 Q167.709 940.338 164.63 935.755 Q161.575 931.149 161.575 922.422 Q161.575 913.672 164.63 909.089 Q167.709 904.482 173.519 904.482 Z" fill="#000000" fill-rule="nonzero" fill-opacity="1" /><path clip-path="url(#clip040)" d="M203.681 908.186 Q200.07 908.186 198.241 911.751 Q196.436 915.292 196.436 922.422 Q196.436 929.528 198.241 933.093 Q200.07 936.635 203.681 936.635 Q207.315 936.635 209.121 933.093 Q210.949 929.528 210.949 922.422 Q210.949 915.292 209.121 911.751 Q207.315 908.186 203.681 908.186 M203.681 904.482 Q209.491 904.482 212.547 909.089 Q215.625 913.672 215.625 922.422 Q215.625 931.149 212.547 935.755 Q209.491 940.338 203.681 940.338 Q197.871 940.338 194.792 935.755 Q191.737 931.149 191.737 922.422 Q191.737 913.672 194.792 909.089 Q197.871 904.482 203.681 904.482 Z" fill="#000000" fill-rule="nonzero" fill-opacity="1" /><path clip-path="url(#clip040)" d="M233.843 908.186 Q230.232 908.186 228.403 911.751 Q226.598 915.292 226.598 922.422 Q226.598 929.528 228.403 933.093 Q230.232 936.635 233.843 936.635 Q237.477 936.635 239.283 933.093 Q241.111 929.528 241.111 922.422 Q241.111 915.292 239.283 911.751 Q237.477 908.186 233.843 908.186 M233.843 904.482 Q239.653 904.482 242.709 909.089 Q245.787 913.672 245.787 922.422 Q245.787 931.149 242.709 935.755 Q239.653 940.338 233.843 940.338 Q228.033 940.338 224.954 935.755 Q221.898 931.149 221.898 922.422 Q221.898 913.672 224.954 909.089 Q228.033 904.482 233.843 904.482 Z" fill="#000000" fill-rule="nonzero" fill-opacity="1" /><path clip-path="url(#clip040)" d="M258.033 935.732 L274.352 935.732 L274.352 939.667 L252.408 939.667 L252.408 935.732 Q255.07 932.977 259.653 928.348 Q264.259 923.695 265.44 922.352 Q267.685 919.829 268.565 918.093 Q269.468 916.334 269.468 914.644 Q269.468 911.89 267.523 910.153 Q265.602 908.417 262.5 908.417 Q260.301 908.417 257.847 909.181 Q255.417 909.945 252.639 911.496 L252.639 906.774 Q255.463 905.64 257.917 905.061 Q260.37 904.482 262.408 904.482 Q267.778 904.482 270.972 907.167 Q274.167 909.853 274.167 914.343 Q274.167 916.473 273.357 918.394 Q272.569 920.292 270.463 922.885 Q269.884 923.556 266.782 926.774 Q263.681 929.968 258.033 935.732 Z" fill="#000000" fill-rule="nonzero" fill-opacity="1" /><path clip-path="url(#clip040)" d="M127.339 663.285 Q123.728 663.285 121.899 666.849 Q120.093 670.391 120.093 677.521 Q120.093 684.627 121.899 688.192 Q123.728 691.734 127.339 691.734 Q130.973 691.734 132.779 688.192 Q134.607 684.627 134.607 677.521 Q134.607 670.391 132.779 666.849 Q130.973 663.285 127.339 663.285 M127.339 659.581 Q133.149 659.581 136.204 664.187 Q139.283 668.771 139.283 677.521 Q139.283 686.248 136.204 690.854 Q133.149 695.437 127.339 695.437 Q121.529 695.437 118.45 690.854 Q115.394 686.248 115.394 677.521 Q115.394 668.771 118.45 664.187 Q121.529 659.581 127.339 659.581 Z" fill="#000000" fill-rule="nonzero" fill-opacity="1" /><path clip-path="url(#clip040)" d="M147.501 688.886 L152.385 688.886 L152.385 694.766 L147.501 694.766 L147.501 688.886 Z" fill="#000000" fill-rule="nonzero" fill-opacity="1" /><path clip-path="url(#clip040)" d="M172.57 663.285 Q168.959 663.285 167.13 666.849 Q165.325 670.391 165.325 677.521 Q165.325 684.627 167.13 688.192 Q168.959 691.734 172.57 691.734 Q176.204 691.734 178.01 688.192 Q179.839 684.627 179.839 677.521 Q179.839 670.391 178.01 666.849 Q176.204 663.285 172.57 663.285 M172.57 659.581 Q178.38 659.581 181.436 664.187 Q184.514 668.771 184.514 677.521 Q184.514 686.248 181.436 690.854 Q178.38 695.437 172.57 695.437 Q166.76 695.437 163.681 690.854 Q160.626 686.248 160.626 677.521 Q160.626 668.771 163.681 664.187 Q166.76 659.581 172.57 659.581 Z" fill="#000000" fill-rule="nonzero" fill-opacity="1" /><path clip-path="url(#clip040)" d="M202.732 663.285 Q199.121 663.285 197.292 666.849 Q195.487 670.391 195.487 677.521 Q195.487 684.627 197.292 688.192 Q199.121 691.734 202.732 691.734 Q206.366 691.734 208.172 688.192 Q210 684.627 210 677.521 Q210 670.391 208.172 666.849 Q206.366 663.285 202.732 663.285 M202.732 659.581 Q208.542 659.581 211.598 664.187 Q214.676 668.771 214.676 677.521 Q214.676 686.248 211.598 690.854 Q208.542 695.437 202.732 695.437 Q196.922 695.437 193.843 690.854 Q190.788 686.248 190.788 677.521 Q190.788 668.771 193.843 664.187 Q196.922 659.581 202.732 659.581 Z" fill="#000000" fill-rule="nonzero" fill-opacity="1" /><path clip-path="url(#clip040)" d="M232.894 663.285 Q229.283 663.285 227.454 666.849 Q225.648 670.391 225.648 677.521 Q225.648 684.627 227.454 688.192 Q229.283 691.734 232.894 691.734 Q236.528 691.734 238.334 688.192 Q240.162 684.627 240.162 677.521 Q240.162 670.391 238.334 666.849 Q236.528 663.285 232.894 663.285 M232.894 659.581 Q238.704 659.581 241.759 664.187 Q244.838 668.771 244.838 677.521 Q244.838 686.248 241.759 690.854 Q238.704 695.437 232.894 695.437 Q227.084 695.437 224.005 690.854 Q220.949 686.248 220.949 677.521 Q220.949 668.771 224.005 664.187 Q227.084 659.581 232.894 659.581 Z" fill="#000000" fill-rule="nonzero" fill-opacity="1" /><path clip-path="url(#clip040)" d="M267.222 676.132 Q270.579 676.849 272.454 679.118 Q274.352 681.386 274.352 684.72 Q274.352 689.835 270.833 692.636 Q267.315 695.437 260.833 695.437 Q258.658 695.437 256.343 694.997 Q254.051 694.581 251.597 693.724 L251.597 689.21 Q253.542 690.345 255.857 690.923 Q258.171 691.502 260.695 691.502 Q265.093 691.502 267.384 689.766 Q269.699 688.03 269.699 684.72 Q269.699 681.664 267.546 679.951 Q265.417 678.215 261.597 678.215 L257.57 678.215 L257.57 674.373 L261.783 674.373 Q265.232 674.373 267.06 673.007 Q268.889 671.618 268.889 669.025 Q268.889 666.363 266.991 664.951 Q265.116 663.516 261.597 663.516 Q259.676 663.516 257.477 663.933 Q255.278 664.349 252.639 665.229 L252.639 661.062 Q255.301 660.322 257.616 659.951 Q259.954 659.581 262.014 659.581 Q267.338 659.581 270.44 662.012 Q273.542 664.419 273.542 668.539 Q273.542 671.41 271.898 673.4 Q270.255 675.368 267.222 676.132 Z" fill="#000000" fill-rule="nonzero" fill-opacity="1" /><path clip-path="url(#clip040)" d="M126.205 418.383 Q122.593 418.383 120.765 421.948 Q118.959 425.49 118.959 432.62 Q118.959 439.726 120.765 443.291 Q122.593 446.832 126.205 446.832 Q129.839 446.832 131.644 443.291 Q133.473 439.726 133.473 432.62 Q133.473 425.49 131.644 421.948 Q129.839 418.383 126.205 418.383 M126.205 414.68 Q132.015 414.68 135.07 419.286 Q138.149 423.87 138.149 432.62 Q138.149 441.346 135.07 445.953 Q132.015 450.536 126.205 450.536 Q120.394 450.536 117.316 445.953 Q114.26 441.346 114.26 432.62 Q114.26 423.87 117.316 419.286 Q120.394 414.68 126.205 414.68 Z" fill="#000000" fill-rule="nonzero" fill-opacity="1" /><path clip-path="url(#clip040)" d="M146.366 443.985 L151.251 443.985 L151.251 449.865 L146.366 449.865 L146.366 443.985 Z" fill="#000000" fill-rule="nonzero" fill-opacity="1" /><path clip-path="url(#clip040)" d="M171.436 418.383 Q167.825 418.383 165.996 421.948 Q164.19 425.49 164.19 432.62 Q164.19 439.726 165.996 443.291 Q167.825 446.832 171.436 446.832 Q175.07 446.832 176.876 443.291 Q178.704 439.726 178.704 432.62 Q178.704 425.49 176.876 421.948 Q175.07 418.383 171.436 418.383 M171.436 414.68 Q177.246 414.68 180.301 419.286 Q183.38 423.87 183.38 432.62 Q183.38 441.346 180.301 445.953 Q177.246 450.536 171.436 450.536 Q165.626 450.536 162.547 445.953 Q159.491 441.346 159.491 432.62 Q159.491 423.87 162.547 419.286 Q165.626 414.68 171.436 414.68 Z" fill="#000000" fill-rule="nonzero" fill-opacity="1" /><path clip-path="url(#clip040)" d="M201.598 418.383 Q197.987 418.383 196.158 421.948 Q194.352 425.49 194.352 432.62 Q194.352 439.726 196.158 443.291 Q197.987 446.832 201.598 446.832 Q205.232 446.832 207.037 443.291 Q208.866 439.726 208.866 432.62 Q208.866 425.49 207.037 421.948 Q205.232 418.383 201.598 418.383 M201.598 414.68 Q207.408 414.68 210.463 419.286 Q213.542 423.87 213.542 432.62 Q213.542 441.346 210.463 445.953 Q207.408 450.536 201.598 450.536 Q195.787 450.536 192.709 445.953 Q189.653 441.346 189.653 432.62 Q189.653 423.87 192.709 419.286 Q195.787 414.68 201.598 414.68 Z" fill="#000000" fill-rule="nonzero" fill-opacity="1" /><path clip-path="url(#clip040)" d="M231.76 418.383 Q228.148 418.383 226.32 421.948 Q224.514 425.49 224.514 432.62 Q224.514 439.726 226.32 443.291 Q228.148 446.832 231.76 446.832 Q235.394 446.832 237.199 443.291 Q239.028 439.726 239.028 432.62 Q239.028 425.49 237.199 421.948 Q235.394 418.383 231.76 418.383 M231.76 414.68 Q237.57 414.68 240.625 419.286 Q243.704 423.87 243.704 432.62 Q243.704 441.346 240.625 445.953 Q237.57 450.536 231.76 450.536 Q225.949 450.536 222.871 445.953 Q219.815 441.346 219.815 432.62 Q219.815 423.87 222.871 419.286 Q225.949 414.68 231.76 414.68 Z" fill="#000000" fill-rule="nonzero" fill-opacity="1" /><path clip-path="url(#clip040)" d="M264.769 419.379 L252.963 437.828 L264.769 437.828 L264.769 419.379 M263.542 415.305 L269.421 415.305 L269.421 437.828 L274.352 437.828 L274.352 441.717 L269.421 441.717 L269.421 449.865 L264.769 449.865 L264.769 441.717 L249.167 441.717 L249.167 437.203 L263.542 415.305 Z" fill="#000000" fill-rule="nonzero" fill-opacity="1" /><path clip-path="url(#clip040)" d="M127.686 173.482 Q124.075 173.482 122.246 177.047 Q120.441 180.589 120.441 187.718 Q120.441 194.825 122.246 198.39 Q124.075 201.931 127.686 201.931 Q131.32 201.931 133.126 198.39 Q134.954 194.825 134.954 187.718 Q134.954 180.589 133.126 177.047 Q131.32 173.482 127.686 173.482 M127.686 169.779 Q133.496 169.779 136.552 174.385 Q139.63 178.968 139.63 187.718 Q139.63 196.445 136.552 201.052 Q133.496 205.635 127.686 205.635 Q121.876 205.635 118.797 201.052 Q115.742 196.445 115.742 187.718 Q115.742 178.968 118.797 174.385 Q121.876 169.779 127.686 169.779 Z" fill="#000000" fill-rule="nonzero" fill-opacity="1" /><path clip-path="url(#clip040)" d="M147.848 199.084 L152.732 199.084 L152.732 204.964 L147.848 204.964 L147.848 199.084 Z" fill="#000000" fill-rule="nonzero" fill-opacity="1" /><path clip-path="url(#clip040)" d="M172.917 173.482 Q169.306 173.482 167.477 177.047 Q165.672 180.589 165.672 187.718 Q165.672 194.825 167.477 198.39 Q169.306 201.931 172.917 201.931 Q176.551 201.931 178.357 198.39 Q180.186 194.825 180.186 187.718 Q180.186 180.589 178.357 177.047 Q176.551 173.482 172.917 173.482 M172.917 169.779 Q178.727 169.779 181.783 174.385 Q184.862 178.968 184.862 187.718 Q184.862 196.445 181.783 201.052 Q178.727 205.635 172.917 205.635 Q167.107 205.635 164.028 201.052 Q160.973 196.445 160.973 187.718 Q160.973 178.968 164.028 174.385 Q167.107 169.779 172.917 169.779 Z" fill="#000000" fill-rule="nonzero" fill-opacity="1" /><path clip-path="url(#clip040)" d="M203.079 173.482 Q199.468 173.482 197.639 177.047 Q195.834 180.589 195.834 187.718 Q195.834 194.825 197.639 198.39 Q199.468 201.931 203.079 201.931 Q206.713 201.931 208.519 198.39 Q210.348 194.825 210.348 187.718 Q210.348 180.589 208.519 177.047 Q206.713 173.482 203.079 173.482 M203.079 169.779 Q208.889 169.779 211.945 174.385 Q215.024 178.968 215.024 187.718 Q215.024 196.445 211.945 201.052 Q208.889 205.635 203.079 205.635 Q197.269 205.635 194.19 201.052 Q191.135 196.445 191.135 187.718 Q191.135 178.968 194.19 174.385 Q197.269 169.779 203.079 169.779 Z" fill="#000000" fill-rule="nonzero" fill-opacity="1" /><path clip-path="url(#clip040)" d="M233.241 173.482 Q229.63 173.482 227.801 177.047 Q225.996 180.589 225.996 187.718 Q225.996 194.825 227.801 198.39 Q229.63 201.931 233.241 201.931 Q236.875 201.931 238.681 198.39 Q240.509 194.825 240.509 187.718 Q240.509 180.589 238.681 177.047 Q236.875 173.482 233.241 173.482 M233.241 169.779 Q239.051 169.779 242.107 174.385 Q245.185 178.968 245.185 187.718 Q245.185 196.445 242.107 201.052 Q239.051 205.635 233.241 205.635 Q227.431 205.635 224.352 201.052 Q221.297 196.445 221.297 187.718 Q221.297 178.968 224.352 174.385 Q227.431 169.779 233.241 169.779 Z" fill="#000000" fill-rule="nonzero" fill-opacity="1" /><path clip-path="url(#clip040)" d="M253.449 170.404 L271.806 170.404 L271.806 174.339 L257.732 174.339 L257.732 182.811 Q258.75 182.464 259.769 182.302 Q260.787 182.117 261.806 182.117 Q267.593 182.117 270.972 185.288 Q274.352 188.459 274.352 193.876 Q274.352 199.454 270.88 202.556 Q267.407 205.635 261.088 205.635 Q258.912 205.635 256.644 205.265 Q254.398 204.894 251.991 204.153 L251.991 199.454 Q254.074 200.589 256.296 201.144 Q258.519 201.7 260.995 201.7 Q265 201.7 267.338 199.593 Q269.676 197.487 269.676 193.876 Q269.676 190.265 267.338 188.158 Q265 186.052 260.995 186.052 Q259.12 186.052 257.246 186.468 Q255.394 186.885 253.449 187.765 L253.449 170.404 Z" fill="#000000" fill-rule="nonzero" fill-opacity="1" /><path clip-path="url(#clip040)" d="M20.1444 821.849 L26.9239 821.849 Q23.9002 825.096 22.4043 828.788 Q20.9083 832.448 20.9083 836.586 Q20.9083 844.734 25.9054 849.063 Q30.8707 853.391 40.2919 853.391 Q49.6813 853.391 54.6784 849.063 Q59.6436 844.734 59.6436 836.586 Q59.6436 832.448 58.1477 828.788 Q56.6518 825.096 53.6281 821.849 L60.3439 821.849 Q62.6355 825.223 63.7814 829.011 Q64.9272 832.766 64.9272 836.968 Q64.9272 847.758 58.3387 853.964 Q51.7183 860.171 40.2919 860.171 Q28.8336 860.171 22.2451 853.964 Q15.6248 847.758 15.6248 836.968 Q15.6248 832.703 16.7706 828.947 Q17.8846 825.159 20.1444 821.849 Z" fill="#000000" fill-rule="nonzero" fill-opacity="1" /><path clip-path="url(#clip040)" d="M28.3562 814.72 L28.3562 786.902 L33.7034 786.902 L59.3254 808.927 L59.3254 786.902 L64.0042 786.902 L64.0042 815.515 L58.657 815.515 L33.035 793.49 L33.035 814.72 L28.3562 814.72 Z" fill="#000000" fill-rule="nonzero" fill-opacity="1" /><path clip-path="url(#clip040)" d="M46.0847 761.757 Q46.0847 768.855 47.7079 771.592 Q49.3312 774.329 53.2461 774.329 Q56.3653 774.329 58.2114 772.292 Q60.0256 770.223 60.0256 766.69 Q60.0256 761.821 56.5881 758.892 Q53.1188 755.932 47.3897 755.932 L46.0847 755.932 L46.0847 761.757 M43.6657 750.076 L64.0042 750.076 L64.0042 755.932 L58.5933 755.932 Q61.8398 757.938 63.3994 760.929 Q64.9272 763.921 64.9272 768.25 Q64.9272 773.724 61.8716 776.971 Q58.7843 780.186 53.6281 780.186 Q47.6125 780.186 44.5569 776.175 Q41.5014 772.133 41.5014 764.144 L41.5014 755.932 L40.9285 755.932 Q36.8862 755.932 34.6901 758.606 Q32.4621 761.248 32.4621 766.054 Q32.4621 769.109 33.1941 772.006 Q33.9262 774.902 35.3903 777.576 L29.9795 777.576 Q28.7381 774.361 28.1334 771.337 Q27.4968 768.314 27.4968 765.449 Q27.4968 757.715 31.5072 753.895 Q35.5176 750.076 43.6657 750.076 Z" fill="#000000" fill-rule="nonzero" fill-opacity="1" /><path clip-path="url(#clip040)" d="M29.4065 715.287 L34.9447 715.287 Q33.6716 717.77 33.035 720.444 Q32.3984 723.117 32.3984 725.982 Q32.3984 730.342 33.7352 732.538 Q35.072 734.703 37.7456 734.703 Q39.7826 734.703 40.9603 733.143 Q42.1061 731.584 43.1565 726.873 L43.6021 724.868 Q44.9389 718.629 47.3897 716.019 Q49.8086 713.378 54.1691 713.378 Q59.1344 713.378 62.0308 717.324 Q64.9272 721.239 64.9272 728.114 Q64.9272 730.979 64.3543 734.098 Q63.8132 737.185 62.6992 740.623 L56.6518 740.623 Q58.3387 737.376 59.198 734.225 Q60.0256 731.074 60.0256 727.987 Q60.0256 723.849 58.6251 721.621 Q57.1929 719.393 54.6147 719.393 Q52.2276 719.393 50.9545 721.016 Q49.6813 722.608 48.5037 728.051 L48.0262 730.088 Q46.8804 735.53 44.5251 737.949 Q42.138 740.368 38.0002 740.368 Q32.9713 740.368 30.2341 736.803 Q27.4968 733.239 27.4968 726.682 Q27.4968 723.435 27.9743 720.571 Q28.4517 717.706 29.4065 715.287 Z" fill="#000000" fill-rule="nonzero" fill-opacity="1" /><path clip-path="url(#clip040)" d="M14.479 683.873 L14.479 670.377 L19.0304 670.377 L19.0304 678.016 L68.0464 678.016 L68.0464 670.377 L72.5979 670.377 L72.5979 683.873 L14.479 683.873 Z" fill="#000000" fill-rule="nonzero" fill-opacity="1" /><path clip-path="url(#clip040)" d="M29.4065 635.175 L34.9447 635.175 Q33.6716 637.658 33.035 640.331 Q32.3984 643.005 32.3984 645.869 Q32.3984 650.23 33.7352 652.426 Q35.072 654.59 37.7456 654.59 Q39.7826 654.59 40.9603 653.031 Q42.1061 651.471 43.1565 646.76 L43.6021 644.755 Q44.9389 638.517 47.3897 635.907 Q49.8086 633.265 54.1691 633.265 Q59.1344 633.265 62.0308 637.212 Q64.9272 641.127 64.9272 648.002 Q64.9272 650.866 64.3543 653.986 Q63.8132 657.073 62.6992 660.51 L56.6518 660.51 Q58.3387 657.264 59.198 654.113 Q60.0256 650.962 60.0256 647.874 Q60.0256 643.737 58.6251 641.509 Q57.1929 639.281 54.6147 639.281 Q52.2276 639.281 50.9545 640.904 Q49.6813 642.495 48.5037 647.938 L48.0262 649.975 Q46.8804 655.418 44.5251 657.837 Q42.138 660.256 38.0002 660.256 Q32.9713 660.256 30.2341 656.691 Q27.4968 653.126 27.4968 646.57 Q27.4968 643.323 27.9743 640.458 Q28.4517 637.594 29.4065 635.175 Z" fill="#000000" fill-rule="nonzero" fill-opacity="1" /><path clip-path="url(#clip040)" d="M14.479 610.253 L72.5979 610.253 L72.5979 623.748 L68.0464 623.748 L68.0464 616.141 L19.0304 616.141 L19.0304 623.748 L14.479 623.748 L14.479 610.253 Z" fill="#000000" fill-rule="nonzero" fill-opacity="1" /><polyline clip-path="url(#clip042)" style="stroke:#009af9; stroke-linecap:round; stroke-linejoin:round; stroke-width:4; stroke-opacity:1; fill:none" points="368.156,1384.24 582.244,1015.12 796.333,1053.56 1010.42,1094.77 1224.51,989.794 1438.6,624.065 1652.69,619.971 1866.78,258.069 2080.86,170.347 2294.95,86.1857 "/>
<polyline clip-path="url(#clip042)" style="stroke:#e26f46; stroke-linecap:round; stroke-linejoin:round; stroke-width:4; stroke-opacity:1; fill:none" points="368.156,1375.28 582.244,1107.62 796.333,937.789 1010.42,1013.42 1224.51,834.607 1438.6,525.845 1652.69,287.129 1866.78,276.269 2080.86,129.035 2294.95,254.734 "/>
<path clip-path="url(#clip040)" d="M378.432 248.629 L1162.09 248.629 L1162.09 93.1086 L378.432 93.1086  Z" fill="#ffffff" fill-rule="evenodd" fill-opacity="1"/>
<polyline clip-path="url(#clip040)" style="stroke:#000000; stroke-linecap:round; stroke-linejoin:round; stroke-width:4; stroke-opacity:1; fill:none" points="378.432,248.629 1162.09,248.629 1162.09,93.1086 378.432,93.1086 378.432,248.629 "/>
<polyline clip-path="url(#clip040)" style="stroke:#009af9; stroke-linecap:round; stroke-linejoin:round; stroke-width:4; stroke-opacity:1; fill:none" points="401.125,144.949 537.286,144.949 "/>
<path clip-path="url(#clip040)" d="M575.812 132.275 L569.47 149.474 L582.178 149.474 L575.812 132.275 M573.173 127.669 L578.474 127.669 L591.646 162.229 L586.784 162.229 L583.636 153.363 L568.058 153.363 L564.91 162.229 L559.979 162.229 L573.173 127.669 Z" fill="#000000" fill-rule="nonzero" fill-opacity="1" /><path clip-path="url(#clip040)" d="M612.733 140.238 L612.733 126.21 L616.993 126.21 L616.993 162.229 L612.733 162.229 L612.733 158.34 Q611.391 160.655 609.331 161.789 Q607.294 162.9 604.423 162.9 Q599.724 162.9 596.761 159.15 Q593.821 155.4 593.821 149.289 Q593.821 143.178 596.761 139.428 Q599.724 135.678 604.423 135.678 Q607.294 135.678 609.331 136.812 Q611.391 137.923 612.733 140.238 M598.22 149.289 Q598.22 153.988 600.141 156.673 Q602.085 159.335 605.465 159.335 Q608.845 159.335 610.789 156.673 Q612.733 153.988 612.733 149.289 Q612.733 144.59 610.789 141.928 Q608.845 139.243 605.465 139.243 Q602.085 139.243 600.141 141.928 Q598.22 144.59 598.22 149.289 Z" fill="#000000" fill-rule="nonzero" fill-opacity="1" /><path clip-path="url(#clip040)" d="M637.548 149.196 Q632.386 149.196 630.395 150.377 Q628.405 151.557 628.405 154.405 Q628.405 156.673 629.886 158.016 Q631.391 159.335 633.96 159.335 Q637.502 159.335 639.631 156.835 Q641.784 154.312 641.784 150.145 L641.784 149.196 L637.548 149.196 M646.043 147.437 L646.043 162.229 L641.784 162.229 L641.784 158.293 Q640.326 160.655 638.15 161.789 Q635.974 162.9 632.826 162.9 Q628.844 162.9 626.483 160.678 Q624.145 158.432 624.145 154.682 Q624.145 150.307 627.062 148.085 Q630.002 145.863 635.812 145.863 L641.784 145.863 L641.784 145.446 Q641.784 142.507 639.84 140.909 Q637.918 139.289 634.423 139.289 Q632.201 139.289 630.094 139.821 Q627.988 140.354 626.044 141.419 L626.044 137.483 Q628.381 136.581 630.581 136.141 Q632.78 135.678 634.863 135.678 Q640.488 135.678 643.266 138.594 Q646.043 141.511 646.043 147.437 Z" fill="#000000" fill-rule="nonzero" fill-opacity="1" /><path clip-path="url(#clip040)" d="M658.937 158.34 L658.937 172.09 L654.654 172.09 L654.654 136.303 L658.937 136.303 L658.937 140.238 Q660.279 137.923 662.316 136.812 Q664.377 135.678 667.224 135.678 Q671.946 135.678 674.886 139.428 Q677.849 143.178 677.849 149.289 Q677.849 155.4 674.886 159.15 Q671.946 162.9 667.224 162.9 Q664.377 162.9 662.316 161.789 Q660.279 160.655 658.937 158.34 M673.428 149.289 Q673.428 144.59 671.483 141.928 Q669.562 139.243 666.182 139.243 Q662.803 139.243 660.858 141.928 Q658.937 144.59 658.937 149.289 Q658.937 153.988 660.858 156.673 Q662.803 159.335 666.182 159.335 Q669.562 159.335 671.483 156.673 Q673.428 153.988 673.428 149.289 Z" fill="#000000" fill-rule="nonzero" fill-opacity="1" /><path clip-path="url(#clip040)" d="M689.122 128.942 L689.122 136.303 L697.895 136.303 L697.895 139.613 L689.122 139.613 L689.122 153.687 Q689.122 156.858 689.978 157.761 Q690.858 158.664 693.52 158.664 L697.895 158.664 L697.895 162.229 L693.52 162.229 Q688.589 162.229 686.714 160.4 Q684.839 158.548 684.839 153.687 L684.839 139.613 L681.715 139.613 L681.715 136.303 L684.839 136.303 L684.839 128.942 L689.122 128.942 Z" fill="#000000" fill-rule="nonzero" fill-opacity="1" /><path clip-path="url(#clip040)" d="M713.543 139.289 Q710.117 139.289 708.126 141.974 Q706.136 144.636 706.136 149.289 Q706.136 153.942 708.103 156.627 Q710.094 159.289 713.543 159.289 Q716.946 159.289 718.937 156.604 Q720.927 153.918 720.927 149.289 Q720.927 144.682 718.937 141.997 Q716.946 139.289 713.543 139.289 M713.543 135.678 Q719.099 135.678 722.27 139.289 Q725.441 142.9 725.441 149.289 Q725.441 155.655 722.27 159.289 Q719.099 162.9 713.543 162.9 Q707.964 162.9 704.793 159.289 Q701.645 155.655 701.645 149.289 Q701.645 142.9 704.793 139.289 Q707.964 135.678 713.543 135.678 Z" fill="#000000" fill-rule="nonzero" fill-opacity="1" /><path clip-path="url(#clip040)" d="M730.024 136.303 L734.284 136.303 L739.608 156.534 L744.909 136.303 L749.932 136.303 L755.256 156.534 L760.557 136.303 L764.816 136.303 L758.034 162.229 L753.01 162.229 L747.432 140.979 L741.83 162.229 L736.807 162.229 L730.024 136.303 Z" fill="#000000" fill-rule="nonzero" fill-opacity="1" /><path clip-path="url(#clip040)" d="M783.057 149.196 Q777.895 149.196 775.904 150.377 Q773.913 151.557 773.913 154.405 Q773.913 156.673 775.395 158.016 Q776.899 159.335 779.469 159.335 Q783.01 159.335 785.14 156.835 Q787.293 154.312 787.293 150.145 L787.293 149.196 L783.057 149.196 M791.552 147.437 L791.552 162.229 L787.293 162.229 L787.293 158.293 Q785.834 160.655 783.658 161.789 Q781.482 162.9 778.334 162.9 Q774.353 162.9 771.992 160.678 Q769.654 158.432 769.654 154.682 Q769.654 150.307 772.571 148.085 Q775.51 145.863 781.32 145.863 L787.293 145.863 L787.293 145.446 Q787.293 142.507 785.348 140.909 Q783.427 139.289 779.932 139.289 Q777.709 139.289 775.603 139.821 Q773.496 140.354 771.552 141.419 L771.552 137.483 Q773.89 136.581 776.089 136.141 Q778.288 135.678 780.371 135.678 Q785.996 135.678 788.774 138.594 Q791.552 141.511 791.552 147.437 Z" fill="#000000" fill-rule="nonzero" fill-opacity="1" /><path clip-path="url(#clip040)" d="M821.876 146.581 L821.876 162.229 L817.617 162.229 L817.617 146.719 Q817.617 143.039 816.181 141.21 Q814.746 139.382 811.876 139.382 Q808.427 139.382 806.436 141.581 Q804.445 143.78 804.445 147.576 L804.445 162.229 L800.163 162.229 L800.163 136.303 L804.445 136.303 L804.445 140.331 Q805.973 137.993 808.033 136.835 Q810.117 135.678 812.825 135.678 Q817.292 135.678 819.584 138.456 Q821.876 141.21 821.876 146.581 Z" fill="#000000" fill-rule="nonzero" fill-opacity="1" /><path clip-path="url(#clip040)" d="M841.158 164.636 Q839.353 169.266 837.64 170.678 Q835.927 172.09 833.056 172.09 L829.654 172.09 L829.654 168.525 L832.154 168.525 Q833.913 168.525 834.885 167.692 Q835.857 166.858 837.038 163.756 L837.802 161.812 L827.316 136.303 L831.829 136.303 L839.931 156.581 L848.033 136.303 L852.547 136.303 L841.158 164.636 Z" fill="#000000" fill-rule="nonzero" fill-opacity="1" /><path clip-path="url(#clip040)" d="M892.107 149.289 Q892.107 144.59 890.162 141.928 Q888.241 139.243 884.862 139.243 Q881.482 139.243 879.538 141.928 Q877.616 144.59 877.616 149.289 Q877.616 153.988 879.538 156.673 Q881.482 159.335 884.862 159.335 Q888.241 159.335 890.162 156.673 Q892.107 153.988 892.107 149.289 M877.616 140.238 Q878.959 137.923 880.996 136.812 Q883.056 135.678 885.903 135.678 Q890.625 135.678 893.565 139.428 Q896.528 143.178 896.528 149.289 Q896.528 155.4 893.565 159.15 Q890.625 162.9 885.903 162.9 Q883.056 162.9 880.996 161.789 Q878.959 160.655 877.616 158.34 L877.616 162.229 L873.334 162.229 L873.334 126.21 L877.616 126.21 L877.616 140.238 Z" fill="#000000" fill-rule="nonzero" fill-opacity="1" /><path clip-path="url(#clip040)" d="M925.764 148.201 L925.764 150.284 L906.181 150.284 Q906.459 154.682 908.82 156.997 Q911.204 159.289 915.44 159.289 Q917.894 159.289 920.185 158.687 Q922.5 158.085 924.769 156.881 L924.769 160.909 Q922.477 161.881 920.07 162.391 Q917.662 162.9 915.185 162.9 Q908.982 162.9 905.348 159.289 Q901.736 155.678 901.736 149.52 Q901.736 143.155 905.162 139.428 Q908.611 135.678 914.445 135.678 Q919.676 135.678 922.709 139.057 Q925.764 142.414 925.764 148.201 M921.505 146.951 Q921.459 143.456 919.537 141.372 Q917.639 139.289 914.491 139.289 Q910.926 139.289 908.773 141.303 Q906.644 143.317 906.32 146.974 L921.505 146.951 Z" fill="#000000" fill-rule="nonzero" fill-opacity="1" /><path clip-path="url(#clip040)" d="M930.903 136.303 L951.134 136.303 L951.134 140.192 L935.116 158.826 L951.134 158.826 L951.134 162.229 L930.324 162.229 L930.324 158.34 L946.343 139.706 L930.903 139.706 L930.903 136.303 Z" fill="#000000" fill-rule="nonzero" fill-opacity="1" /><path clip-path="url(#clip040)" d="M970.231 136.303 L974.491 136.303 L979.815 156.534 L985.116 136.303 L990.139 136.303 L995.463 156.534 L1000.76 136.303 L1005.02 136.303 L998.241 162.229 L993.217 162.229 L987.639 140.979 L982.037 162.229 L977.014 162.229 L970.231 136.303 Z" fill="#000000" fill-rule="nonzero" fill-opacity="1" /><path clip-path="url(#clip040)" d="M1022.27 164.636 Q1020.46 169.266 1018.75 170.678 Q1017.04 172.09 1014.17 172.09 L1010.76 172.09 L1010.76 168.525 L1013.26 168.525 Q1015.02 168.525 1016 167.692 Q1016.97 166.858 1018.15 163.756 L1018.91 161.812 L1008.43 136.303 L1012.94 136.303 L1021.04 156.581 L1029.14 136.303 L1033.66 136.303 L1022.27 164.636 Z" fill="#000000" fill-rule="nonzero" fill-opacity="1" /><path clip-path="url(#clip040)" d="M1058.15 149.289 Q1058.15 144.59 1056.2 141.928 Q1054.28 139.243 1050.9 139.243 Q1047.52 139.243 1045.58 141.928 Q1043.66 144.59 1043.66 149.289 Q1043.66 153.988 1045.58 156.673 Q1047.52 159.335 1050.9 159.335 Q1054.28 159.335 1056.2 156.673 Q1058.15 153.988 1058.15 149.289 M1043.66 140.238 Q1045 137.923 1047.04 136.812 Q1049.1 135.678 1051.94 135.678 Q1056.67 135.678 1059.61 139.428 Q1062.57 143.178 1062.57 149.289 Q1062.57 155.4 1059.61 159.15 Q1056.67 162.9 1051.94 162.9 Q1049.1 162.9 1047.04 161.789 Q1045 160.655 1043.66 158.34 L1043.66 162.229 L1039.37 162.229 L1039.37 126.21 L1043.66 126.21 L1043.66 140.238 Z" fill="#000000" fill-rule="nonzero" fill-opacity="1" /><path clip-path="url(#clip040)" d="M1079.68 139.289 Q1076.25 139.289 1074.26 141.974 Q1072.27 144.636 1072.27 149.289 Q1072.27 153.942 1074.24 156.627 Q1076.23 159.289 1079.68 159.289 Q1083.08 159.289 1085.07 156.604 Q1087.06 153.918 1087.06 149.289 Q1087.06 144.682 1085.07 141.997 Q1083.08 139.289 1079.68 139.289 M1079.68 135.678 Q1085.23 135.678 1088.4 139.289 Q1091.57 142.9 1091.57 149.289 Q1091.57 155.655 1088.4 159.289 Q1085.23 162.9 1079.68 162.9 Q1074.1 162.9 1070.93 159.289 Q1067.78 155.655 1067.78 149.289 Q1067.78 142.9 1070.93 139.289 Q1074.1 135.678 1079.68 135.678 Z" fill="#000000" fill-rule="nonzero" fill-opacity="1" /><path clip-path="url(#clip040)" d="M1113.66 140.284 Q1112.94 139.868 1112.08 139.682 Q1111.25 139.474 1110.23 139.474 Q1106.62 139.474 1104.68 141.835 Q1102.75 144.173 1102.75 148.571 L1102.75 162.229 L1098.47 162.229 L1098.47 136.303 L1102.75 136.303 L1102.75 140.331 Q1104.1 137.969 1106.25 136.835 Q1108.4 135.678 1111.48 135.678 Q1111.92 135.678 1112.45 135.747 Q1112.99 135.794 1113.63 135.909 L1113.66 140.284 Z" fill="#000000" fill-rule="nonzero" fill-opacity="1" /><path clip-path="url(#clip040)" d="M1117.68 151.997 L1117.68 136.303 L1121.94 136.303 L1121.94 151.835 Q1121.94 155.516 1123.38 157.368 Q1124.81 159.196 1127.68 159.196 Q1131.13 159.196 1133.12 156.997 Q1135.14 154.798 1135.14 151.002 L1135.14 136.303 L1139.4 136.303 L1139.4 162.229 L1135.14 162.229 L1135.14 158.247 Q1133.59 160.608 1131.53 161.766 Q1129.49 162.9 1126.78 162.9 Q1122.31 162.9 1120 160.122 Q1117.68 157.344 1117.68 151.997 M1128.4 135.678 L1128.4 135.678 Z" fill="#000000" fill-rule="nonzero" fill-opacity="1" /><polyline clip-path="url(#clip040)" style="stroke:#e26f46; stroke-linecap:round; stroke-linejoin:round; stroke-width:4; stroke-opacity:1; fill:none" points="401.125,196.789 537.286,196.789 "/>
<path clip-path="url(#clip040)" d="M575.812 184.115 L569.47 201.314 L582.178 201.314 L575.812 184.115 M573.173 179.509 L578.474 179.509 L591.646 214.069 L586.784 214.069 L583.636 205.203 L568.058 205.203 L564.91 214.069 L559.979 214.069 L573.173 179.509 Z" fill="#000000" fill-rule="nonzero" fill-opacity="1" /><path clip-path="url(#clip040)" d="M612.733 192.078 L612.733 178.05 L616.993 178.05 L616.993 214.069 L612.733 214.069 L612.733 210.18 Q611.391 212.495 609.331 213.629 Q607.294 214.74 604.423 214.74 Q599.724 214.74 596.761 210.99 Q593.821 207.24 593.821 201.129 Q593.821 195.018 596.761 191.268 Q599.724 187.518 604.423 187.518 Q607.294 187.518 609.331 188.652 Q611.391 189.763 612.733 192.078 M598.22 201.129 Q598.22 205.828 600.141 208.513 Q602.085 211.175 605.465 211.175 Q608.845 211.175 610.789 208.513 Q612.733 205.828 612.733 201.129 Q612.733 196.43 610.789 193.768 Q608.845 191.083 605.465 191.083 Q602.085 191.083 600.141 193.768 Q598.22 196.43 598.22 201.129 Z" fill="#000000" fill-rule="nonzero" fill-opacity="1" /><path clip-path="url(#clip040)" d="M637.548 201.036 Q632.386 201.036 630.395 202.217 Q628.405 203.397 628.405 206.245 Q628.405 208.513 629.886 209.856 Q631.391 211.175 633.96 211.175 Q637.502 211.175 639.631 208.675 Q641.784 206.152 641.784 201.985 L641.784 201.036 L637.548 201.036 M646.043 199.277 L646.043 214.069 L641.784 214.069 L641.784 210.133 Q640.326 212.495 638.15 213.629 Q635.974 214.74 632.826 214.74 Q628.844 214.74 626.483 212.518 Q624.145 210.272 624.145 206.522 Q624.145 202.147 627.062 199.925 Q630.002 197.703 635.812 197.703 L641.784 197.703 L641.784 197.286 Q641.784 194.347 639.84 192.749 Q637.918 191.129 634.423 191.129 Q632.201 191.129 630.094 191.661 Q627.988 192.194 626.044 193.259 L626.044 189.323 Q628.381 188.421 630.581 187.981 Q632.78 187.518 634.863 187.518 Q640.488 187.518 643.266 190.434 Q646.043 193.351 646.043 199.277 Z" fill="#000000" fill-rule="nonzero" fill-opacity="1" /><path clip-path="url(#clip040)" d="M658.937 210.18 L658.937 223.93 L654.654 223.93 L654.654 188.143 L658.937 188.143 L658.937 192.078 Q660.279 189.763 662.316 188.652 Q664.377 187.518 667.224 187.518 Q671.946 187.518 674.886 191.268 Q677.849 195.018 677.849 201.129 Q677.849 207.24 674.886 210.99 Q671.946 214.74 667.224 214.74 Q664.377 214.74 662.316 213.629 Q660.279 212.495 658.937 210.18 M673.428 201.129 Q673.428 196.43 671.483 193.768 Q669.562 191.083 666.182 191.083 Q662.803 191.083 660.858 193.768 Q658.937 196.43 658.937 201.129 Q658.937 205.828 660.858 208.513 Q662.803 211.175 666.182 211.175 Q669.562 211.175 671.483 208.513 Q673.428 205.828 673.428 201.129 Z" fill="#000000" fill-rule="nonzero" fill-opacity="1" /><path clip-path="url(#clip040)" d="M689.122 180.782 L689.122 188.143 L697.895 188.143 L697.895 191.453 L689.122 191.453 L689.122 205.527 Q689.122 208.698 689.978 209.601 Q690.858 210.504 693.52 210.504 L697.895 210.504 L697.895 214.069 L693.52 214.069 Q688.589 214.069 686.714 212.24 Q684.839 210.388 684.839 205.527 L684.839 191.453 L681.715 191.453 L681.715 188.143 L684.839 188.143 L684.839 180.782 L689.122 180.782 Z" fill="#000000" fill-rule="nonzero" fill-opacity="1" /><path clip-path="url(#clip040)" d="M713.543 191.129 Q710.117 191.129 708.126 193.814 Q706.136 196.476 706.136 201.129 Q706.136 205.782 708.103 208.467 Q710.094 211.129 713.543 211.129 Q716.946 211.129 718.937 208.444 Q720.927 205.758 720.927 201.129 Q720.927 196.522 718.937 193.837 Q716.946 191.129 713.543 191.129 M713.543 187.518 Q719.099 187.518 722.27 191.129 Q725.441 194.74 725.441 201.129 Q725.441 207.495 722.27 211.129 Q719.099 214.74 713.543 214.74 Q707.964 214.74 704.793 211.129 Q701.645 207.495 701.645 201.129 Q701.645 194.74 704.793 191.129 Q707.964 187.518 713.543 187.518 Z" fill="#000000" fill-rule="nonzero" fill-opacity="1" /><path clip-path="url(#clip040)" d="M730.024 188.143 L734.284 188.143 L739.608 208.374 L744.909 188.143 L749.932 188.143 L755.256 208.374 L760.557 188.143 L764.816 188.143 L758.034 214.069 L753.01 214.069 L747.432 192.819 L741.83 214.069 L736.807 214.069 L730.024 188.143 Z" fill="#000000" fill-rule="nonzero" fill-opacity="1" /><path clip-path="url(#clip040)" d="M783.057 201.036 Q777.895 201.036 775.904 202.217 Q773.913 203.397 773.913 206.245 Q773.913 208.513 775.395 209.856 Q776.899 211.175 779.469 211.175 Q783.01 211.175 785.14 208.675 Q787.293 206.152 787.293 201.985 L787.293 201.036 L783.057 201.036 M791.552 199.277 L791.552 214.069 L787.293 214.069 L787.293 210.133 Q785.834 212.495 783.658 213.629 Q781.482 214.74 778.334 214.74 Q774.353 214.74 771.992 212.518 Q769.654 210.272 769.654 206.522 Q769.654 202.147 772.571 199.925 Q775.51 197.703 781.32 197.703 L787.293 197.703 L787.293 197.286 Q787.293 194.347 785.348 192.749 Q783.427 191.129 779.932 191.129 Q777.709 191.129 775.603 191.661 Q773.496 192.194 771.552 193.259 L771.552 189.323 Q773.89 188.421 776.089 187.981 Q778.288 187.518 780.371 187.518 Q785.996 187.518 788.774 190.434 Q791.552 193.351 791.552 199.277 Z" fill="#000000" fill-rule="nonzero" fill-opacity="1" /><path clip-path="url(#clip040)" d="M821.876 198.421 L821.876 214.069 L817.617 214.069 L817.617 198.559 Q817.617 194.879 816.181 193.05 Q814.746 191.222 811.876 191.222 Q808.427 191.222 806.436 193.421 Q804.445 195.62 804.445 199.416 L804.445 214.069 L800.163 214.069 L800.163 188.143 L804.445 188.143 L804.445 192.171 Q805.973 189.833 808.033 188.675 Q810.117 187.518 812.825 187.518 Q817.292 187.518 819.584 190.296 Q821.876 193.05 821.876 198.421 Z" fill="#000000" fill-rule="nonzero" fill-opacity="1" /><path clip-path="url(#clip040)" d="M841.158 216.476 Q839.353 221.106 837.64 222.518 Q835.927 223.93 833.056 223.93 L829.654 223.93 L829.654 220.365 L832.154 220.365 Q833.913 220.365 834.885 219.532 Q835.857 218.698 837.038 215.596 L837.802 213.652 L827.316 188.143 L831.829 188.143 L839.931 208.421 L848.033 188.143 L852.547 188.143 L841.158 216.476 Z" fill="#000000" fill-rule="nonzero" fill-opacity="1" /><path clip-path="url(#clip040)" d="M871.644 188.143 L891.875 188.143 L891.875 192.032 L875.857 210.666 L891.875 210.666 L891.875 214.069 L871.065 214.069 L871.065 210.18 L887.084 191.546 L871.644 191.546 L871.644 188.143 Z" fill="#000000" fill-rule="nonzero" fill-opacity="1" /><path clip-path="url(#clip040)" d="M910.973 188.143 L915.232 188.143 L920.556 208.374 L925.857 188.143 L930.88 188.143 L936.204 208.374 L941.505 188.143 L945.764 188.143 L938.982 214.069 L933.959 214.069 L928.38 192.819 L922.778 214.069 L917.755 214.069 L910.973 188.143 Z" fill="#000000" fill-rule="nonzero" fill-opacity="1" /><path clip-path="url(#clip040)" d="M963.009 216.476 Q961.204 221.106 959.491 222.518 Q957.778 223.93 954.907 223.93 L951.505 223.93 L951.505 220.365 L954.005 220.365 Q955.764 220.365 956.736 219.532 Q957.708 218.698 958.889 215.596 L959.653 213.652 L949.167 188.143 L953.681 188.143 L961.782 208.421 L969.884 188.143 L974.398 188.143 L963.009 216.476 Z" fill="#000000" fill-rule="nonzero" fill-opacity="1" /><path clip-path="url(#clip040)" d="M998.889 201.129 Q998.889 196.43 996.944 193.768 Q995.023 191.083 991.643 191.083 Q988.264 191.083 986.319 193.768 Q984.398 196.43 984.398 201.129 Q984.398 205.828 986.319 208.513 Q988.264 211.175 991.643 211.175 Q995.023 211.175 996.944 208.513 Q998.889 205.828 998.889 201.129 M984.398 192.078 Q985.741 189.763 987.778 188.652 Q989.838 187.518 992.685 187.518 Q997.407 187.518 1000.35 191.268 Q1003.31 195.018 1003.31 201.129 Q1003.31 207.24 1000.35 210.99 Q997.407 214.74 992.685 214.74 Q989.838 214.74 987.778 213.629 Q985.741 212.495 984.398 210.18 L984.398 214.069 L980.116 214.069 L980.116 178.05 L984.398 178.05 L984.398 192.078 Z" fill="#000000" fill-rule="nonzero" fill-opacity="1" /><path clip-path="url(#clip040)" d="M1020.42 191.129 Q1016.99 191.129 1015 193.814 Q1013.01 196.476 1013.01 201.129 Q1013.01 205.782 1014.98 208.467 Q1016.97 211.129 1020.42 211.129 Q1023.82 211.129 1025.81 208.444 Q1027.8 205.758 1027.8 201.129 Q1027.8 196.522 1025.81 193.837 Q1023.82 191.129 1020.42 191.129 M1020.42 187.518 Q1025.97 187.518 1029.14 191.129 Q1032.31 194.74 1032.31 201.129 Q1032.31 207.495 1029.14 211.129 Q1025.97 214.74 1020.42 214.74 Q1014.84 214.74 1011.67 211.129 Q1008.52 207.495 1008.52 201.129 Q1008.52 194.74 1011.67 191.129 Q1014.84 187.518 1020.42 187.518 Z" fill="#000000" fill-rule="nonzero" fill-opacity="1" /><path clip-path="url(#clip040)" d="M1054.4 192.124 Q1053.68 191.708 1052.82 191.522 Q1051.99 191.314 1050.97 191.314 Q1047.36 191.314 1045.42 193.675 Q1043.49 196.013 1043.49 200.411 L1043.49 214.069 L1039.21 214.069 L1039.21 188.143 L1043.49 188.143 L1043.49 192.171 Q1044.84 189.809 1046.99 188.675 Q1049.14 187.518 1052.22 187.518 Q1052.66 187.518 1053.19 187.587 Q1053.73 187.634 1054.37 187.749 L1054.4 192.124 Z" fill="#000000" fill-rule="nonzero" fill-opacity="1" /><path clip-path="url(#clip040)" d="M1080 200.041 L1080 202.124 L1060.42 202.124 Q1060.69 206.522 1063.06 208.837 Q1065.44 211.129 1069.68 211.129 Q1072.13 211.129 1074.42 210.527 Q1076.74 209.925 1079 208.721 L1079 212.749 Q1076.71 213.721 1074.3 214.231 Q1071.9 214.74 1069.42 214.74 Q1063.22 214.74 1059.58 211.129 Q1055.97 207.518 1055.97 201.36 Q1055.97 194.995 1059.4 191.268 Q1062.85 187.518 1068.68 187.518 Q1073.91 187.518 1076.94 190.897 Q1080 194.254 1080 200.041 M1075.74 198.791 Q1075.69 195.296 1073.77 193.212 Q1071.87 191.129 1068.73 191.129 Q1065.16 191.129 1063.01 193.143 Q1060.88 195.157 1060.56 198.814 L1075.74 198.791 Z" fill="#000000" fill-rule="nonzero" fill-opacity="1" /><path clip-path="url(#clip040)" d="M1107.18 193.12 Q1108.77 190.249 1110.99 188.884 Q1113.22 187.518 1116.23 187.518 Q1120.28 187.518 1122.48 190.365 Q1124.68 193.189 1124.68 198.421 L1124.68 214.069 L1120.39 214.069 L1120.39 198.559 Q1120.39 194.833 1119.07 193.027 Q1117.75 191.222 1115.05 191.222 Q1111.74 191.222 1109.81 193.421 Q1107.89 195.62 1107.89 199.416 L1107.89 214.069 L1103.61 214.069 L1103.61 198.559 Q1103.61 194.809 1102.29 193.027 Q1100.97 191.222 1098.22 191.222 Q1094.95 191.222 1093.03 193.444 Q1091.11 195.643 1091.11 199.416 L1091.11 214.069 L1086.83 214.069 L1086.83 188.143 L1091.11 188.143 L1091.11 192.171 Q1092.57 189.786 1094.61 188.652 Q1096.64 187.518 1099.44 187.518 Q1102.27 187.518 1104.24 188.953 Q1106.23 190.388 1107.18 193.12 Z" fill="#000000" fill-rule="nonzero" fill-opacity="1" /></svg>
