<?xml version="1.0" encoding="utf-8"?>
<svg xmlns="http://www.w3.org/2000/svg" xmlns:xlink="http://www.w3.org/1999/xlink" width="600" height="400" viewBox="0 0 2400 1600">
<defs>
  <clipPath id="clip780">
    <rect x="0" y="0" width="2400" height="1600"/>
  </clipPath>
</defs>
<path clip-path="url(#clip780)" d="M0 1600 L2400 1600 L2400 0 L0 0  Z" fill="#ffffff" fill-rule="evenodd" fill-opacity="1"/>
<defs>
  <clipPath id="clip781">
    <rect x="480" y="0" width="1681" height="1600"/>
  </clipPath>
</defs>
<path clip-path="url(#clip780)" d="M313.551 1423.18 L2352.76 1423.18 L2352.76 47.2441 L313.551 47.2441  Z" fill="#ffffff" fill-rule="evenodd" fill-opacity="1"/>
<defs>
  <clipPath id="clip782">
    <rect x="313" y="47" width="2040" height="1377"/>
  </clipPath>
</defs>
<polyline clip-path="url(#clip782)" style="stroke:#000000; stroke-linecap:round; stroke-linejoin:round; stroke-width:2; stroke-opacity:0.1; fill:none" points="585.017,1423.18 585.017,47.2441 "/>
<polyline clip-path="url(#clip782)" style="stroke:#000000; stroke-linecap:round; stroke-linejoin:round; stroke-width:2; stroke-opacity:0.1; fill:none" points="1012.52,1423.18 1012.52,47.2441 "/>
<polyline clip-path="url(#clip782)" style="stroke:#000000; stroke-linecap:round; stroke-linejoin:round; stroke-width:2; stroke-opacity:0.1; fill:none" points="1440.03,1423.18 1440.03,47.2441 "/>
<polyline clip-path="url(#clip782)" style="stroke:#000000; stroke-linecap:round; stroke-linejoin:round; stroke-width:2; stroke-opacity:0.1; fill:none" points="1867.54,1423.18 1867.54,47.2441 "/>
<polyline clip-path="url(#clip782)" style="stroke:#000000; stroke-linecap:round; stroke-linejoin:round; stroke-width:2; stroke-opacity:0.1; fill:none" points="2295.04,1423.18 2295.04,47.2441 "/>
<polyline clip-path="url(#clip780)" style="stroke:#000000; stroke-linecap:round; stroke-linejoin:round; stroke-width:4; stroke-opacity:1; fill:none" points="313.551,1423.18 2352.76,1423.18 "/>
<polyline clip-path="url(#clip780)" style="stroke:#000000; stroke-linecap:round; stroke-linejoin:round; stroke-width:4; stroke-opacity:1; fill:none" points="585.017,1423.18 585.017,1404.28 "/>
<polyline clip-path="url(#clip780)" style="stroke:#000000; stroke-linecap:round; stroke-linejoin:round; stroke-width:4; stroke-opacity:1; fill:none" points="1012.52,1423.18 1012.52,1404.28 "/>
<polyline clip-path="url(#clip780)" style="stroke:#000000; stroke-linecap:round; stroke-linejoin:round; stroke-width:4; stroke-opacity:1; fill:none" points="1440.03,1423.18 1440.03,1404.28 "/>
<polyline clip-path="url(#clip780)" style="stroke:#000000; stroke-linecap:round; stroke-linejoin:round; stroke-width:4; stroke-opacity:1; fill:none" points="1867.54,1423.18 1867.54,1404.28 "/>
<polyline clip-path="url(#clip780)" style="stroke:#000000; stroke-linecap:round; stroke-linejoin:round; stroke-width:4; stroke-opacity:1; fill:none" points="2295.04,1423.18 2295.04,1404.28 "/>
<path clip-path="url(#clip780)" d="M544.635 1451.02 L562.992 1451.02 L562.992 1454.96 L548.918 1454.96 L548.918 1463.43 Q549.936 1463.08 550.955 1462.92 Q551.973 1462.73 552.992 1462.73 Q558.779 1462.73 562.159 1465.9 Q565.538 1469.08 565.538 1474.49 Q565.538 1480.07 562.066 1483.17 Q558.594 1486.25 552.274 1486.25 Q550.098 1486.25 547.83 1485.88 Q545.585 1485.51 543.177 1484.77 L543.177 1480.07 Q545.26 1481.2 547.483 1481.76 Q549.705 1482.32 552.182 1482.32 Q556.186 1482.32 558.524 1480.21 Q560.862 1478.1 560.862 1474.49 Q560.862 1470.88 558.524 1468.77 Q556.186 1466.67 552.182 1466.67 Q550.307 1466.67 548.432 1467.08 Q546.58 1467.5 544.635 1468.38 L544.635 1451.02 Z" fill="#000000" fill-rule="nonzero" fill-opacity="1" /><path clip-path="url(#clip780)" d="M584.751 1454.1 Q581.14 1454.1 579.311 1457.66 Q577.506 1461.2 577.506 1468.33 Q577.506 1475.44 579.311 1479.01 Q581.14 1482.55 584.751 1482.55 Q588.385 1482.55 590.191 1479.01 Q592.019 1475.44 592.019 1468.33 Q592.019 1461.2 590.191 1457.66 Q588.385 1454.1 584.751 1454.1 M584.751 1450.39 Q590.561 1450.39 593.617 1455 Q596.695 1459.58 596.695 1468.33 Q596.695 1477.06 593.617 1481.67 Q590.561 1486.25 584.751 1486.25 Q578.941 1486.25 575.862 1481.67 Q572.807 1477.06 572.807 1468.33 Q572.807 1459.58 575.862 1455 Q578.941 1450.39 584.751 1450.39 Z" fill="#000000" fill-rule="nonzero" fill-opacity="1" /><path clip-path="url(#clip780)" d="M614.913 1454.1 Q611.302 1454.1 609.473 1457.66 Q607.668 1461.2 607.668 1468.33 Q607.668 1475.44 609.473 1479.01 Q611.302 1482.55 614.913 1482.55 Q618.547 1482.55 620.353 1479.01 Q622.181 1475.44 622.181 1468.33 Q622.181 1461.2 620.353 1457.66 Q618.547 1454.1 614.913 1454.1 M614.913 1450.39 Q620.723 1450.39 623.779 1455 Q626.857 1459.58 626.857 1468.33 Q626.857 1477.06 623.779 1481.67 Q620.723 1486.25 614.913 1486.25 Q609.103 1486.25 606.024 1481.67 Q602.968 1477.06 602.968 1468.33 Q602.968 1459.58 606.024 1455 Q609.103 1450.39 614.913 1450.39 Z" fill="#000000" fill-rule="nonzero" fill-opacity="1" /><path clip-path="url(#clip780)" d="M957.049 1481.64 L964.688 1481.64 L964.688 1455.28 L956.378 1456.95 L956.378 1452.69 L964.642 1451.02 L969.318 1451.02 L969.318 1481.64 L976.957 1481.64 L976.957 1485.58 L957.049 1485.58 L957.049 1481.64 Z" fill="#000000" fill-rule="nonzero" fill-opacity="1" /><path clip-path="url(#clip780)" d="M996.401 1454.1 Q992.79 1454.1 990.961 1457.66 Q989.156 1461.2 989.156 1468.33 Q989.156 1475.44 990.961 1479.01 Q992.79 1482.55 996.401 1482.55 Q1000.04 1482.55 1001.84 1479.01 Q1003.67 1475.44 1003.67 1468.33 Q1003.67 1461.2 1001.84 1457.66 Q1000.04 1454.1 996.401 1454.1 M996.401 1450.39 Q1002.21 1450.39 1005.27 1455 Q1008.35 1459.58 1008.35 1468.33 Q1008.35 1477.06 1005.27 1481.67 Q1002.21 1486.25 996.401 1486.25 Q990.591 1486.25 987.512 1481.67 Q984.457 1477.06 984.457 1468.33 Q984.457 1459.58 987.512 1455 Q990.591 1450.39 996.401 1450.39 Z" fill="#000000" fill-rule="nonzero" fill-opacity="1" /><path clip-path="url(#clip780)" d="M1026.56 1454.1 Q1022.95 1454.1 1021.12 1457.66 Q1019.32 1461.2 1019.32 1468.33 Q1019.32 1475.44 1021.12 1479.01 Q1022.95 1482.55 1026.56 1482.55 Q1030.2 1482.55 1032 1479.01 Q1033.83 1475.44 1033.83 1468.33 Q1033.83 1461.2 1032 1457.66 Q1030.2 1454.1 1026.56 1454.1 M1026.56 1450.39 Q1032.37 1450.39 1035.43 1455 Q1038.51 1459.58 1038.51 1468.33 Q1038.51 1477.06 1035.43 1481.67 Q1032.37 1486.25 1026.56 1486.25 Q1020.75 1486.25 1017.67 1481.67 Q1014.62 1477.06 1014.62 1468.33 Q1014.62 1459.58 1017.67 1455 Q1020.75 1450.39 1026.56 1450.39 Z" fill="#000000" fill-rule="nonzero" fill-opacity="1" /><path clip-path="url(#clip780)" d="M1056.72 1454.1 Q1053.11 1454.1 1051.28 1457.66 Q1049.48 1461.2 1049.48 1468.33 Q1049.48 1475.44 1051.28 1479.01 Q1053.11 1482.55 1056.72 1482.55 Q1060.36 1482.55 1062.16 1479.01 Q1063.99 1475.44 1063.99 1468.33 Q1063.99 1461.2 1062.16 1457.66 Q1060.36 1454.1 1056.72 1454.1 M1056.72 1450.39 Q1062.53 1450.39 1065.59 1455 Q1068.67 1459.58 1068.67 1468.33 Q1068.67 1477.06 1065.59 1481.67 Q1062.53 1486.25 1056.72 1486.25 Q1050.91 1486.25 1047.84 1481.67 Q1044.78 1477.06 1044.78 1468.33 Q1044.78 1459.58 1047.84 1455 Q1050.91 1450.39 1056.72 1450.39 Z" fill="#000000" fill-rule="nonzero" fill-opacity="1" /><path clip-path="url(#clip780)" d="M1384.56 1481.64 L1392.19 1481.64 L1392.19 1455.28 L1383.88 1456.95 L1383.88 1452.69 L1392.15 1451.02 L1396.82 1451.02 L1396.82 1481.64 L1404.46 1481.64 L1404.46 1485.58 L1384.56 1485.58 L1384.56 1481.64 Z" fill="#000000" fill-rule="nonzero" fill-opacity="1" /><path clip-path="url(#clip780)" d="M1413.95 1451.02 L1432.31 1451.02 L1432.31 1454.96 L1418.24 1454.96 L1418.24 1463.43 Q1419.25 1463.08 1420.27 1462.92 Q1421.29 1462.73 1422.31 1462.73 Q1428.1 1462.73 1431.48 1465.9 Q1434.86 1469.08 1434.86 1474.49 Q1434.86 1480.07 1431.38 1483.17 Q1427.91 1486.25 1421.59 1486.25 Q1419.42 1486.25 1417.15 1485.88 Q1414.9 1485.51 1412.5 1484.77 L1412.5 1480.07 Q1414.58 1481.2 1416.8 1481.76 Q1419.02 1482.32 1421.5 1482.32 Q1425.5 1482.32 1427.84 1480.21 Q1430.18 1478.1 1430.18 1474.49 Q1430.18 1470.88 1427.84 1468.77 Q1425.5 1466.67 1421.5 1466.67 Q1419.62 1466.67 1417.75 1467.08 Q1415.9 1467.5 1413.95 1468.38 L1413.95 1451.02 Z" fill="#000000" fill-rule="nonzero" fill-opacity="1" /><path clip-path="url(#clip780)" d="M1454.07 1454.1 Q1450.46 1454.1 1448.63 1457.66 Q1446.82 1461.2 1446.82 1468.33 Q1446.82 1475.44 1448.63 1479.01 Q1450.46 1482.55 1454.07 1482.55 Q1457.7 1482.55 1459.51 1479.01 Q1461.34 1475.44 1461.34 1468.33 Q1461.34 1461.2 1459.51 1457.66 Q1457.7 1454.1 1454.07 1454.1 M1454.07 1450.39 Q1459.88 1450.39 1462.93 1455 Q1466.01 1459.58 1466.01 1468.33 Q1466.01 1477.06 1462.93 1481.67 Q1459.88 1486.25 1454.07 1486.25 Q1448.26 1486.25 1445.18 1481.67 Q1442.12 1477.06 1442.12 1468.33 Q1442.12 1459.58 1445.18 1455 Q1448.26 1450.39 1454.07 1450.39 Z" fill="#000000" fill-rule="nonzero" fill-opacity="1" /><path clip-path="url(#clip780)" d="M1484.23 1454.1 Q1480.62 1454.1 1478.79 1457.66 Q1476.99 1461.2 1476.99 1468.33 Q1476.99 1475.44 1478.79 1479.01 Q1480.62 1482.55 1484.23 1482.55 Q1487.87 1482.55 1489.67 1479.01 Q1491.5 1475.44 1491.5 1468.33 Q1491.5 1461.2 1489.67 1457.66 Q1487.87 1454.1 1484.23 1454.1 M1484.23 1450.39 Q1490.04 1450.39 1493.1 1455 Q1496.18 1459.58 1496.18 1468.33 Q1496.18 1477.06 1493.1 1481.67 Q1490.04 1486.25 1484.23 1486.25 Q1478.42 1486.25 1475.34 1481.67 Q1472.29 1477.06 1472.29 1468.33 Q1472.29 1459.58 1475.34 1455 Q1478.42 1450.39 1484.23 1450.39 Z" fill="#000000" fill-rule="nonzero" fill-opacity="1" /><path clip-path="url(#clip780)" d="M1816.15 1481.64 L1832.47 1481.64 L1832.47 1485.58 L1810.52 1485.58 L1810.52 1481.64 Q1813.18 1478.89 1817.77 1474.26 Q1822.37 1469.61 1823.55 1468.27 Q1825.8 1465.74 1826.68 1464.01 Q1827.58 1462.25 1827.58 1460.56 Q1827.58 1457.8 1825.64 1456.07 Q1823.72 1454.33 1820.62 1454.33 Q1818.42 1454.33 1815.96 1455.09 Q1813.53 1455.86 1810.75 1457.41 L1810.75 1452.69 Q1813.58 1451.55 1816.03 1450.97 Q1818.49 1450.39 1820.52 1450.39 Q1825.89 1450.39 1829.09 1453.08 Q1832.28 1455.77 1832.28 1460.26 Q1832.28 1462.39 1831.47 1464.31 Q1830.68 1466.2 1828.58 1468.8 Q1828 1469.47 1824.9 1472.69 Q1821.8 1475.88 1816.15 1481.64 Z" fill="#000000" fill-rule="nonzero" fill-opacity="1" /><path clip-path="url(#clip780)" d="M1852.28 1454.1 Q1848.67 1454.1 1846.84 1457.66 Q1845.04 1461.2 1845.04 1468.33 Q1845.04 1475.44 1846.84 1479.01 Q1848.67 1482.55 1852.28 1482.55 Q1855.92 1482.55 1857.72 1479.01 Q1859.55 1475.44 1859.55 1468.33 Q1859.55 1461.2 1857.72 1457.66 Q1855.92 1454.1 1852.28 1454.1 M1852.28 1450.39 Q1858.09 1450.39 1861.15 1455 Q1864.23 1459.58 1864.23 1468.33 Q1864.23 1477.06 1861.15 1481.67 Q1858.09 1486.25 1852.28 1486.25 Q1846.47 1486.25 1843.39 1481.67 Q1840.34 1477.06 1840.34 1468.33 Q1840.34 1459.58 1843.39 1455 Q1846.47 1450.39 1852.28 1450.39 Z" fill="#000000" fill-rule="nonzero" fill-opacity="1" /><path clip-path="url(#clip780)" d="M1882.44 1454.1 Q1878.83 1454.1 1877 1457.66 Q1875.2 1461.2 1875.2 1468.33 Q1875.2 1475.44 1877 1479.01 Q1878.83 1482.55 1882.44 1482.55 Q1886.08 1482.55 1887.88 1479.01 Q1889.71 1475.44 1889.71 1468.33 Q1889.71 1461.2 1887.88 1457.66 Q1886.08 1454.1 1882.44 1454.1 M1882.44 1450.39 Q1888.25 1450.39 1891.31 1455 Q1894.39 1459.58 1894.39 1468.33 Q1894.39 1477.06 1891.31 1481.67 Q1888.25 1486.25 1882.44 1486.25 Q1876.63 1486.25 1873.55 1481.67 Q1870.5 1477.06 1870.5 1468.33 Q1870.5 1459.58 1873.55 1455 Q1876.63 1450.39 1882.44 1450.39 Z" fill="#000000" fill-rule="nonzero" fill-opacity="1" /><path clip-path="url(#clip780)" d="M1912.61 1454.1 Q1908.99 1454.1 1907.17 1457.66 Q1905.36 1461.2 1905.36 1468.33 Q1905.36 1475.44 1907.17 1479.01 Q1908.99 1482.55 1912.61 1482.55 Q1916.24 1482.55 1918.05 1479.01 Q1919.87 1475.44 1919.87 1468.33 Q1919.87 1461.2 1918.05 1457.66 Q1916.24 1454.1 1912.61 1454.1 M1912.61 1450.39 Q1918.42 1450.39 1921.47 1455 Q1924.55 1459.58 1924.55 1468.33 Q1924.55 1477.06 1921.47 1481.67 Q1918.42 1486.25 1912.61 1486.25 Q1906.8 1486.25 1903.72 1481.67 Q1900.66 1477.06 1900.66 1468.33 Q1900.66 1459.58 1903.72 1455 Q1906.8 1450.39 1912.61 1450.39 Z" fill="#000000" fill-rule="nonzero" fill-opacity="1" /><path clip-path="url(#clip780)" d="M2243.65 1481.64 L2259.97 1481.64 L2259.97 1485.58 L2238.03 1485.58 L2238.03 1481.64 Q2240.69 1478.89 2245.27 1474.26 Q2249.88 1469.61 2251.06 1468.27 Q2253.31 1465.74 2254.19 1464.01 Q2255.09 1462.25 2255.09 1460.56 Q2255.09 1457.8 2253.14 1456.07 Q2251.22 1454.33 2248.12 1454.33 Q2245.92 1454.33 2243.47 1455.09 Q2241.04 1455.86 2238.26 1457.41 L2238.26 1452.69 Q2241.08 1451.55 2243.54 1450.97 Q2245.99 1450.39 2248.03 1450.39 Q2253.4 1450.39 2256.59 1453.08 Q2259.79 1455.77 2259.79 1460.26 Q2259.79 1462.39 2258.98 1464.31 Q2258.19 1466.2 2256.08 1468.8 Q2255.51 1469.47 2252.4 1472.69 Q2249.3 1475.88 2243.65 1481.64 Z" fill="#000000" fill-rule="nonzero" fill-opacity="1" /><path clip-path="url(#clip780)" d="M2269.83 1451.02 L2288.19 1451.02 L2288.19 1454.96 L2274.12 1454.96 L2274.12 1463.43 Q2275.14 1463.08 2276.15 1462.92 Q2277.17 1462.73 2278.19 1462.73 Q2283.98 1462.73 2287.36 1465.9 Q2290.74 1469.08 2290.74 1474.49 Q2290.74 1480.07 2287.26 1483.17 Q2283.79 1486.25 2277.47 1486.25 Q2275.3 1486.25 2273.03 1485.88 Q2270.78 1485.51 2268.38 1484.77 L2268.38 1480.07 Q2270.46 1481.2 2272.68 1481.76 Q2274.9 1482.32 2277.38 1482.32 Q2281.39 1482.32 2283.72 1480.21 Q2286.06 1478.1 2286.06 1474.49 Q2286.06 1470.88 2283.72 1468.77 Q2281.39 1466.67 2277.38 1466.67 Q2275.51 1466.67 2273.63 1467.08 Q2271.78 1467.5 2269.83 1468.38 L2269.83 1451.02 Z" fill="#000000" fill-rule="nonzero" fill-opacity="1" /><path clip-path="url(#clip780)" d="M2309.95 1454.1 Q2306.34 1454.1 2304.51 1457.66 Q2302.7 1461.2 2302.7 1468.33 Q2302.7 1475.44 2304.51 1479.01 Q2306.34 1482.55 2309.95 1482.55 Q2313.58 1482.55 2315.39 1479.01 Q2317.22 1475.44 2317.22 1468.33 Q2317.22 1461.2 2315.39 1457.66 Q2313.58 1454.1 2309.95 1454.1 M2309.95 1450.39 Q2315.76 1450.39 2318.82 1455 Q2321.89 1459.58 2321.89 1468.33 Q2321.89 1477.06 2318.82 1481.67 Q2315.76 1486.25 2309.95 1486.25 Q2304.14 1486.25 2301.06 1481.67 Q2298.01 1477.06 2298.01 1468.33 Q2298.01 1459.58 2301.06 1455 Q2304.14 1450.39 2309.95 1450.39 Z" fill="#000000" fill-rule="nonzero" fill-opacity="1" /><path clip-path="url(#clip780)" d="M2340.11 1454.1 Q2336.5 1454.1 2334.67 1457.66 Q2332.87 1461.2 2332.87 1468.33 Q2332.87 1475.44 2334.67 1479.01 Q2336.5 1482.55 2340.11 1482.55 Q2343.75 1482.55 2345.55 1479.01 Q2347.38 1475.44 2347.38 1468.33 Q2347.38 1461.2 2345.55 1457.66 Q2343.75 1454.1 2340.11 1454.1 M2340.11 1450.39 Q2345.92 1450.39 2348.98 1455 Q2352.06 1459.58 2352.06 1468.33 Q2352.06 1477.06 2348.98 1481.67 Q2345.92 1486.25 2340.11 1486.25 Q2334.3 1486.25 2331.22 1481.67 Q2328.17 1477.06 2328.17 1468.33 Q2328.17 1459.58 2331.22 1455 Q2334.3 1450.39 2340.11 1450.39 Z" fill="#000000" fill-rule="nonzero" fill-opacity="1" /><path clip-path="url(#clip780)" d="M1348.08 1546.53 L1348.08 1568.04 L1342.22 1568.04 L1342.22 1546.72 Q1342.22 1541.66 1340.25 1539.14 Q1338.28 1536.63 1334.33 1536.63 Q1329.59 1536.63 1326.85 1539.65 Q1324.11 1542.68 1324.11 1547.9 L1324.11 1568.04 L1318.23 1568.04 L1318.23 1532.4 L1324.11 1532.4 L1324.11 1537.93 Q1326.21 1534.72 1329.05 1533.13 Q1331.91 1531.54 1335.64 1531.54 Q1341.78 1531.54 1344.93 1535.36 Q1348.08 1539.14 1348.08 1546.53 Z" fill="#000000" fill-rule="nonzero" fill-opacity="1" /><polyline clip-path="url(#clip782)" style="stroke:#000000; stroke-linecap:round; stroke-linejoin:round; stroke-width:2; stroke-opacity:0.1; fill:none" points="313.551,1311.01 2352.76,1311.01 "/>
<polyline clip-path="url(#clip782)" style="stroke:#000000; stroke-linecap:round; stroke-linejoin:round; stroke-width:2; stroke-opacity:0.1; fill:none" points="313.551,986.471 2352.76,986.471 "/>
<polyline clip-path="url(#clip782)" style="stroke:#000000; stroke-linecap:round; stroke-linejoin:round; stroke-width:2; stroke-opacity:0.1; fill:none" points="313.551,661.931 2352.76,661.931 "/>
<polyline clip-path="url(#clip782)" style="stroke:#000000; stroke-linecap:round; stroke-linejoin:round; stroke-width:2; stroke-opacity:0.1; fill:none" points="313.551,337.39 2352.76,337.39 "/>
<polyline clip-path="url(#clip780)" style="stroke:#000000; stroke-linecap:round; stroke-linejoin:round; stroke-width:4; stroke-opacity:1; fill:none" points="313.551,1423.18 313.551,47.2441 "/>
<polyline clip-path="url(#clip780)" style="stroke:#000000; stroke-linecap:round; stroke-linejoin:round; stroke-width:4; stroke-opacity:1; fill:none" points="313.551,1311.01 332.448,1311.01 "/>
<polyline clip-path="url(#clip780)" style="stroke:#000000; stroke-linecap:round; stroke-linejoin:round; stroke-width:4; stroke-opacity:1; fill:none" points="313.551,986.471 332.448,986.471 "/>
<polyline clip-path="url(#clip780)" style="stroke:#000000; stroke-linecap:round; stroke-linejoin:round; stroke-width:4; stroke-opacity:1; fill:none" points="313.551,661.931 332.448,661.931 "/>
<polyline clip-path="url(#clip780)" style="stroke:#000000; stroke-linecap:round; stroke-linejoin:round; stroke-width:4; stroke-opacity:1; fill:none" points="313.551,337.39 332.448,337.39 "/>
<path clip-path="url(#clip780)" d="M115.853 1330.8 L123.492 1330.8 L123.492 1304.44 L115.182 1306.1 L115.182 1301.85 L123.446 1300.18 L128.121 1300.18 L128.121 1330.8 L135.76 1330.8 L135.76 1334.74 L115.853 1334.74 L115.853 1330.8 Z" fill="#000000" fill-rule="nonzero" fill-opacity="1" /><path clip-path="url(#clip780)" d="M155.205 1303.26 Q151.594 1303.26 149.765 1306.82 Q147.959 1310.36 147.959 1317.49 Q147.959 1324.6 149.765 1328.16 Q151.594 1331.71 155.205 1331.71 Q158.839 1331.71 160.644 1328.16 Q162.473 1324.6 162.473 1317.49 Q162.473 1310.36 160.644 1306.82 Q158.839 1303.26 155.205 1303.26 M155.205 1299.55 Q161.015 1299.55 164.07 1304.16 Q167.149 1308.74 167.149 1317.49 Q167.149 1326.22 164.07 1330.83 Q161.015 1335.41 155.205 1335.41 Q149.395 1335.41 146.316 1330.83 Q143.26 1326.22 143.26 1317.49 Q143.26 1308.74 146.316 1304.16 Q149.395 1299.55 155.205 1299.55 Z" fill="#000000" fill-rule="nonzero" fill-opacity="1" /><path clip-path="url(#clip780)" d="M167.149 1293.66 L191.261 1293.66 L191.261 1296.85 L167.149 1296.85 L167.149 1293.66 Z" fill="#000000" fill-rule="nonzero" fill-opacity="1" /><path clip-path="url(#clip780)" d="M200.119 1304.13 L206.326 1304.13 L206.326 1282.71 L199.574 1284.06 L199.574 1280.6 L206.288 1279.25 L210.087 1279.25 L210.087 1304.13 L216.294 1304.13 L216.294 1307.33 L200.119 1307.33 L200.119 1304.13 Z" fill="#000000" fill-rule="nonzero" fill-opacity="1" /><path clip-path="url(#clip780)" d="M234.406 1282.56 L224.814 1297.55 L234.406 1297.55 L234.406 1282.56 M233.409 1279.25 L238.186 1279.25 L238.186 1297.55 L242.192 1297.55 L242.192 1300.71 L238.186 1300.71 L238.186 1307.33 L234.406 1307.33 L234.406 1300.71 L221.729 1300.71 L221.729 1297.04 L233.409 1279.25 Z" fill="#000000" fill-rule="nonzero" fill-opacity="1" /><path clip-path="url(#clip780)" d="M248.474 1302.55 L252.442 1302.55 L252.442 1307.33 L248.474 1307.33 L248.474 1302.55 Z" fill="#000000" fill-rule="nonzero" fill-opacity="1" /><path clip-path="url(#clip780)" d="M261.376 1304.13 L267.583 1304.13 L267.583 1282.71 L260.831 1284.06 L260.831 1280.6 L267.545 1279.25 L271.344 1279.25 L271.344 1304.13 L277.551 1304.13 L277.551 1307.33 L261.376 1307.33 L261.376 1304.13 Z" fill="#000000" fill-rule="nonzero" fill-opacity="1" /><path clip-path="url(#clip780)" d="M114.931 1006.26 L122.57 1006.26 L122.57 979.898 L114.26 981.564 L114.26 977.305 L122.524 975.639 L127.2 975.639 L127.2 1006.26 L134.839 1006.26 L134.839 1010.2 L114.931 1010.2 L114.931 1006.26 Z" fill="#000000" fill-rule="nonzero" fill-opacity="1" /><path clip-path="url(#clip780)" d="M154.283 978.717 Q150.672 978.717 148.843 982.282 Q147.038 985.824 147.038 992.953 Q147.038 1000.06 148.843 1003.62 Q150.672 1007.17 154.283 1007.17 Q157.917 1007.17 159.723 1003.62 Q161.552 1000.06 161.552 992.953 Q161.552 985.824 159.723 982.282 Q157.917 978.717 154.283 978.717 M154.283 975.014 Q160.093 975.014 163.149 979.62 Q166.227 984.203 166.227 992.953 Q166.227 1001.68 163.149 1006.29 Q160.093 1010.87 154.283 1010.87 Q148.473 1010.87 145.394 1006.29 Q142.339 1001.68 142.339 992.953 Q142.339 984.203 145.394 979.62 Q148.473 975.014 154.283 975.014 Z" fill="#000000" fill-rule="nonzero" fill-opacity="1" /><path clip-path="url(#clip780)" d="M166.227 969.115 L190.339 969.115 L190.339 972.312 L166.227 972.312 L166.227 969.115 Z" fill="#000000" fill-rule="nonzero" fill-opacity="1" /><path clip-path="url(#clip780)" d="M199.197 979.591 L205.404 979.591 L205.404 958.169 L198.652 959.523 L198.652 956.062 L205.366 954.708 L209.166 954.708 L209.166 979.591 L215.372 979.591 L215.372 982.788 L199.197 982.788 L199.197 979.591 Z" fill="#000000" fill-rule="nonzero" fill-opacity="1" /><path clip-path="url(#clip780)" d="M234.556 967.648 Q237.283 968.231 238.807 970.074 Q240.349 971.917 240.349 974.626 Q240.349 978.782 237.49 981.058 Q234.631 983.334 229.365 983.334 Q227.597 983.334 225.716 982.976 Q223.854 982.638 221.861 981.942 L221.861 978.274 Q223.441 979.196 225.321 979.666 Q227.202 980.136 229.252 980.136 Q232.826 980.136 234.688 978.726 Q236.569 977.315 236.569 974.626 Q236.569 972.143 234.819 970.751 Q233.089 969.341 229.986 969.341 L226.713 969.341 L226.713 966.218 L230.136 966.218 Q232.939 966.218 234.424 965.109 Q235.91 963.98 235.91 961.874 Q235.91 959.711 234.368 958.564 Q232.845 957.398 229.986 957.398 Q228.425 957.398 226.638 957.736 Q224.851 958.075 222.707 958.789 L222.707 955.404 Q224.87 954.802 226.751 954.501 Q228.65 954.2 230.324 954.2 Q234.65 954.2 237.17 956.175 Q239.691 958.131 239.691 961.479 Q239.691 963.811 238.355 965.429 Q237.02 967.027 234.556 967.648 Z" fill="#000000" fill-rule="nonzero" fill-opacity="1" /><path clip-path="url(#clip780)" d="M247.552 978.011 L251.521 978.011 L251.521 982.788 L247.552 982.788 L247.552 978.011 Z" fill="#000000" fill-rule="nonzero" fill-opacity="1" /><path clip-path="url(#clip780)" d="M267.921 969.453 Q265.213 969.453 263.652 970.902 Q262.109 972.35 262.109 974.889 Q262.109 977.428 263.652 978.876 Q265.213 980.324 267.921 980.324 Q270.629 980.324 272.19 978.876 Q273.751 977.409 273.751 974.889 Q273.751 972.35 272.19 970.902 Q270.648 969.453 267.921 969.453 M264.122 967.836 Q261.677 967.234 260.304 965.56 Q258.95 963.886 258.95 961.479 Q258.95 958.112 261.338 956.156 Q263.746 954.2 267.921 954.2 Q272.115 954.2 274.504 956.156 Q276.892 958.112 276.892 961.479 Q276.892 963.886 275.519 965.56 Q274.165 967.234 271.739 967.836 Q274.485 968.475 276.008 970.337 Q277.551 972.199 277.551 974.889 Q277.551 978.97 275.049 981.152 Q272.567 983.334 267.921 983.334 Q263.276 983.334 260.774 981.152 Q258.292 978.97 258.292 974.889 Q258.292 972.199 259.834 970.337 Q261.376 968.475 264.122 967.836 M262.73 961.836 Q262.73 964.018 264.084 965.24 Q265.457 966.463 267.921 966.463 Q270.366 966.463 271.739 965.24 Q273.131 964.018 273.131 961.836 Q273.131 959.655 271.739 958.432 Q270.366 957.21 267.921 957.21 Q265.457 957.21 264.084 958.432 Q262.73 959.655 262.73 961.836 Z" fill="#000000" fill-rule="nonzero" fill-opacity="1" /><path clip-path="url(#clip780)" d="M115.665 681.723 L123.304 681.723 L123.304 655.357 L114.994 657.024 L114.994 652.765 L123.258 651.098 L127.933 651.098 L127.933 681.723 L135.572 681.723 L135.572 685.658 L115.665 685.658 L115.665 681.723 Z" fill="#000000" fill-rule="nonzero" fill-opacity="1" /><path clip-path="url(#clip780)" d="M155.017 654.177 Q151.406 654.177 149.577 657.742 Q147.771 661.283 147.771 668.413 Q147.771 675.519 149.577 679.084 Q151.406 682.626 155.017 682.626 Q158.651 682.626 160.456 679.084 Q162.285 675.519 162.285 668.413 Q162.285 661.283 160.456 657.742 Q158.651 654.177 155.017 654.177 M155.017 650.473 Q160.827 650.473 163.882 655.08 Q166.961 659.663 166.961 668.413 Q166.961 677.14 163.882 681.746 Q160.827 686.33 155.017 686.33 Q149.206 686.33 146.128 681.746 Q143.072 677.14 143.072 668.413 Q143.072 659.663 146.128 655.08 Q149.206 650.473 155.017 650.473 Z" fill="#000000" fill-rule="nonzero" fill-opacity="1" /><path clip-path="url(#clip780)" d="M166.961 644.575 L191.073 644.575 L191.073 647.772 L166.961 647.772 L166.961 644.575 Z" fill="#000000" fill-rule="nonzero" fill-opacity="1" /><path clip-path="url(#clip780)" d="M199.931 655.051 L206.138 655.051 L206.138 633.628 L199.386 634.983 L199.386 631.522 L206.1 630.168 L209.899 630.168 L209.899 655.051 L216.106 655.051 L216.106 658.248 L199.931 658.248 L199.931 655.051 Z" fill="#000000" fill-rule="nonzero" fill-opacity="1" /><path clip-path="url(#clip780)" d="M235.29 643.108 Q238.017 643.691 239.54 645.534 Q241.082 647.377 241.082 650.085 Q241.082 654.242 238.224 656.518 Q235.365 658.793 230.099 658.793 Q228.331 658.793 226.45 658.436 Q224.588 658.097 222.594 657.401 L222.594 653.734 Q224.174 654.656 226.055 655.126 Q227.936 655.596 229.986 655.596 Q233.559 655.596 235.421 654.185 Q237.302 652.775 237.302 650.085 Q237.302 647.603 235.553 646.211 Q233.823 644.8 230.719 644.8 L227.447 644.8 L227.447 641.678 L230.87 641.678 Q233.672 641.678 235.158 640.569 Q236.644 639.44 236.644 637.334 Q236.644 635.171 235.102 634.023 Q233.578 632.857 230.719 632.857 Q229.158 632.857 227.372 633.196 Q225.585 633.534 223.441 634.249 L223.441 630.864 Q225.604 630.262 227.484 629.961 Q229.384 629.66 231.058 629.66 Q235.384 629.66 237.904 631.635 Q240.424 633.591 240.424 636.939 Q240.424 639.271 239.089 640.888 Q237.753 642.487 235.29 643.108 Z" fill="#000000" fill-rule="nonzero" fill-opacity="1" /><path clip-path="url(#clip780)" d="M248.286 653.471 L252.254 653.471 L252.254 658.248 L248.286 658.248 L248.286 653.471 Z" fill="#000000" fill-rule="nonzero" fill-opacity="1" /><path clip-path="url(#clip780)" d="M260.567 630.168 L275.482 630.168 L275.482 633.365 L264.047 633.365 L264.047 640.249 Q264.874 639.967 265.702 639.835 Q266.529 639.685 267.357 639.685 Q272.059 639.685 274.805 642.261 Q277.551 644.838 277.551 649.239 Q277.551 653.772 274.729 656.292 Q271.908 658.793 266.774 658.793 Q265.006 658.793 263.163 658.492 Q261.338 658.191 259.382 657.59 L259.382 653.772 Q261.075 654.693 262.881 655.145 Q264.686 655.596 266.699 655.596 Q269.952 655.596 271.852 653.884 Q273.751 652.173 273.751 649.239 Q273.751 646.305 271.852 644.593 Q269.952 642.882 266.699 642.882 Q265.175 642.882 263.652 643.22 Q262.147 643.559 260.567 644.274 L260.567 630.168 Z" fill="#000000" fill-rule="nonzero" fill-opacity="1" /><path clip-path="url(#clip780)" d="M116.154 357.183 L123.793 357.183 L123.793 330.817 L115.483 332.484 L115.483 328.225 L123.747 326.558 L128.422 326.558 L128.422 357.183 L136.061 357.183 L136.061 361.118 L116.154 361.118 L116.154 357.183 Z" fill="#000000" fill-rule="nonzero" fill-opacity="1" /><path clip-path="url(#clip780)" d="M155.506 329.637 Q151.895 329.637 150.066 333.201 Q148.26 336.743 148.26 343.873 Q148.26 350.979 150.066 354.544 Q151.895 358.086 155.506 358.086 Q159.14 358.086 160.945 354.544 Q162.774 350.979 162.774 343.873 Q162.774 336.743 160.945 333.201 Q159.14 329.637 155.506 329.637 M155.506 325.933 Q161.316 325.933 164.371 330.539 Q167.45 335.123 167.45 343.873 Q167.45 352.599 164.371 357.206 Q161.316 361.789 155.506 361.789 Q149.695 361.789 146.617 357.206 Q143.561 352.599 143.561 343.873 Q143.561 335.123 146.617 330.539 Q149.695 325.933 155.506 325.933 Z" fill="#000000" fill-rule="nonzero" fill-opacity="1" /><path clip-path="url(#clip780)" d="M167.45 320.034 L191.562 320.034 L191.562 323.232 L167.45 323.232 L167.45 320.034 Z" fill="#000000" fill-rule="nonzero" fill-opacity="1" /><path clip-path="url(#clip780)" d="M200.42 330.51 L206.627 330.51 L206.627 309.088 L199.875 310.442 L199.875 306.982 L206.589 305.628 L210.388 305.628 L210.388 330.51 L216.595 330.51 L216.595 333.708 L200.42 333.708 L200.42 330.51 Z" fill="#000000" fill-rule="nonzero" fill-opacity="1" /><path clip-path="url(#clip780)" d="M235.779 318.567 Q238.506 319.15 240.029 320.994 Q241.571 322.837 241.571 325.545 Q241.571 329.702 238.713 331.977 Q235.854 334.253 230.588 334.253 Q228.82 334.253 226.939 333.896 Q225.077 333.557 223.083 332.861 L223.083 329.194 Q224.663 330.115 226.544 330.585 Q228.425 331.056 230.475 331.056 Q234.048 331.056 235.91 329.645 Q237.791 328.235 237.791 325.545 Q237.791 323.062 236.042 321.671 Q234.312 320.26 231.208 320.26 L227.936 320.26 L227.936 317.138 L231.359 317.138 Q234.161 317.138 235.647 316.028 Q237.133 314.9 237.133 312.793 Q237.133 310.63 235.591 309.483 Q234.067 308.317 231.208 308.317 Q229.647 308.317 227.861 308.656 Q226.074 308.994 223.93 309.709 L223.93 306.323 Q226.093 305.722 227.973 305.421 Q229.873 305.12 231.547 305.12 Q235.873 305.12 238.393 307.095 Q240.913 309.051 240.913 312.398 Q240.913 314.731 239.578 316.348 Q238.242 317.947 235.779 318.567 Z" fill="#000000" fill-rule="nonzero" fill-opacity="1" /><path clip-path="url(#clip780)" d="M248.775 328.93 L252.743 328.93 L252.743 333.708 L248.775 333.708 L248.775 328.93 Z" fill="#000000" fill-rule="nonzero" fill-opacity="1" /><path clip-path="url(#clip780)" d="M264.291 330.51 L277.551 330.51 L277.551 333.708 L259.721 333.708 L259.721 330.51 Q261.884 328.272 265.608 324.511 Q269.35 320.73 270.31 319.639 Q272.134 317.589 272.849 316.179 Q273.582 314.749 273.582 313.376 Q273.582 311.138 272.002 309.728 Q270.441 308.317 267.921 308.317 Q266.134 308.317 264.141 308.938 Q262.166 309.558 259.909 310.819 L259.909 306.982 Q262.204 306.06 264.197 305.59 Q266.191 305.12 267.846 305.12 Q272.209 305.12 274.805 307.301 Q277.4 309.483 277.4 313.132 Q277.4 314.862 276.742 316.423 Q276.102 317.965 274.391 320.072 Q273.921 320.617 271.401 323.232 Q268.88 325.827 264.291 330.51 Z" fill="#000000" fill-rule="nonzero" fill-opacity="1" /><path clip-path="url(#clip780)" d="M41.3104 961.449 L58.7206 961.449 L58.7206 951.137 Q58.7206 945.949 56.5881 943.466 Q54.4238 940.952 49.9996 940.952 Q45.5436 940.952 43.4429 943.466 Q41.3104 945.949 41.3104 951.137 L41.3104 961.449 M21.7677 961.449 L36.0905 961.449 L36.0905 951.932 Q36.0905 947.222 34.34 944.93 Q32.5576 942.607 28.9291 942.607 Q25.3325 942.607 23.5501 944.93 Q21.7677 947.222 21.7677 951.932 L21.7677 961.449 M16.4842 967.879 L16.4842 951.455 Q16.4842 944.103 19.5397 940.124 Q22.5952 936.145 28.2289 936.145 Q32.5894 936.145 35.1675 938.183 Q37.7456 940.22 38.3822 944.166 Q39.4007 939.424 42.6472 936.814 Q45.8619 934.172 50.6998 934.172 Q57.0655 934.172 60.5348 938.501 Q64.0042 942.829 64.0042 950.818 L64.0042 967.879 L16.4842 967.879 Z" fill="#000000" fill-rule="nonzero" fill-opacity="1" /><path clip-path="url(#clip780)" d="M14.479 923.223 L14.479 917.367 L33.6397 917.367 L30.7752 913.388 L34.149 910.969 L38.6368 917.367 L64.0042 917.367 L64.0042 923.223 L42.8064 923.223 L45.6073 927.138 L42.2334 929.493 L37.7456 923.223 L14.479 923.223 Z" fill="#000000" fill-rule="nonzero" fill-opacity="1" /><path clip-path="url(#clip780)" d="M46.0847 888.689 Q46.0847 895.787 47.7079 898.524 Q49.3312 901.261 53.2461 901.261 Q56.3653 901.261 58.2114 899.224 Q60.0256 897.156 60.0256 893.623 Q60.0256 888.753 56.5881 885.825 Q53.1188 882.865 47.3897 882.865 L46.0847 882.865 L46.0847 888.689 M43.6657 877.008 L64.0042 877.008 L64.0042 882.865 L58.5933 882.865 Q61.8398 884.87 63.3994 887.862 Q64.9272 890.853 64.9272 895.182 Q64.9272 900.657 61.8716 903.903 Q58.7843 907.118 53.6281 907.118 Q47.6125 907.118 44.5569 903.107 Q41.5014 899.065 41.5014 891.076 L41.5014 882.865 L40.9285 882.865 Q36.8862 882.865 34.6901 885.538 Q32.4621 888.18 32.4621 892.986 Q32.4621 896.042 33.1941 898.938 Q33.9262 901.834 35.3903 904.508 L29.9795 904.508 Q28.7381 901.293 28.1334 898.27 Q27.4968 895.246 27.4968 892.381 Q27.4968 884.647 31.5072 880.828 Q35.5176 877.008 43.6657 877.008 M64.0042 882.801 L64.0042 879.013 Q65.9457 880.446 67.3462 881.146 Q68.7466 881.814 69.7333 881.814 Q71.1974 881.814 71.9295 880.955 Q72.6615 880.064 72.6615 878.345 Q72.6615 877.326 72.4069 876.34 Q72.1841 875.353 71.7067 874.366 L75.9399 874.366 Q76.2581 875.576 76.4173 876.658 Q76.5764 877.74 76.5764 878.695 Q76.5764 882.578 75.176 884.424 Q73.8073 886.238 70.8473 886.238 Q69.3195 886.238 67.6326 885.411 Q65.9775 884.551 64.0042 882.801 Z" fill="#000000" fill-rule="nonzero" fill-opacity="1" /><path clip-path="url(#clip780)" d="M33.7671 841.487 L14.479 841.487 L14.479 835.631 L64.0042 835.631 L64.0042 841.487 L58.657 841.487 Q61.8398 843.333 63.3994 846.166 Q64.9272 848.967 64.9272 852.914 Q64.9272 859.375 59.771 863.449 Q54.6147 867.491 46.212 867.491 Q37.8093 867.491 32.6531 863.449 Q27.4968 859.375 27.4968 852.914 Q27.4968 848.967 29.0564 846.166 Q30.5842 843.333 33.7671 841.487 M46.212 861.444 Q52.6732 861.444 56.3653 858.802 Q60.0256 856.129 60.0256 851.482 Q60.0256 846.835 56.3653 844.161 Q52.6732 841.487 46.212 841.487 Q39.7508 841.487 36.0905 844.161 Q32.3984 846.835 32.3984 851.482 Q32.3984 856.129 36.0905 858.802 Q39.7508 861.444 46.212 861.444 Z" fill="#000000" fill-rule="nonzero" fill-opacity="1" /><path clip-path="url(#clip780)" d="M28.3562 806.253 L28.3562 800.397 L56.1743 793.076 L28.3562 785.788 L28.3562 778.881 L56.1743 771.56 L28.3562 764.271 L28.3562 758.415 L64.0042 767.741 L64.0042 774.648 L34.7856 782.318 L64.0042 790.021 L64.0042 796.927 L28.3562 806.253 Z" fill="#000000" fill-rule="nonzero" fill-opacity="1" /><path clip-path="url(#clip780)" d="M28.3562 752.081 L28.3562 724.263 L33.7034 724.263 L59.3254 746.288 L59.3254 724.263 L64.0042 724.263 L64.0042 752.877 L58.657 752.877 L33.035 730.851 L33.035 752.081 L28.3562 752.081 Z" fill="#000000" fill-rule="nonzero" fill-opacity="1" /><path clip-path="url(#clip780)" d="M45.7664 691.862 Q39.4007 691.862 35.8996 694.503 Q32.3984 697.113 32.3984 701.856 Q32.3984 706.566 35.8996 709.208 Q39.4007 711.818 45.7664 711.818 Q52.1003 711.818 55.6014 709.208 Q59.1026 706.566 59.1026 701.856 Q59.1026 697.113 55.6014 694.503 Q52.1003 691.862 45.7664 691.862 M59.58 686.005 Q68.683 686.005 73.1071 690.047 Q77.5631 694.09 77.5631 702.429 Q77.5631 705.516 77.0857 708.253 Q76.6401 710.99 75.6852 713.569 L69.9879 713.569 Q71.3884 710.99 72.0568 708.476 Q72.7252 705.962 72.7252 703.352 Q72.7252 697.591 69.7015 694.726 Q66.7096 691.862 60.6303 691.862 L57.7339 691.862 Q60.885 693.676 62.4446 696.508 Q64.0042 699.341 64.0042 703.288 Q64.0042 709.845 59.0071 713.855 Q54.01 717.865 45.7664 717.865 Q37.491 717.865 32.4939 713.855 Q27.4968 709.845 27.4968 703.288 Q27.4968 699.341 29.0564 696.508 Q30.616 693.676 33.7671 691.862 L28.3562 691.862 L28.3562 686.005 L59.58 686.005 Z" fill="#000000" fill-rule="nonzero" fill-opacity="1" /><path clip-path="url(#clip780)" d="M14.479 673.942 L14.479 668.086 L64.0042 668.086 L64.0042 673.942 L14.479 673.942 Z" fill="#000000" fill-rule="nonzero" fill-opacity="1" /><path clip-path="url(#clip780)" d="M44.7161 625.34 L47.5806 625.34 L47.5806 652.267 Q53.6281 651.885 56.8109 648.638 Q59.9619 645.36 59.9619 639.535 Q59.9619 636.162 59.1344 633.011 Q58.3069 629.828 56.6518 626.708 L62.1899 626.708 Q63.5267 629.86 64.227 633.17 Q64.9272 636.48 64.9272 639.886 Q64.9272 648.416 59.9619 653.413 Q54.9967 658.378 46.5303 658.378 Q37.7774 658.378 32.6531 653.667 Q27.4968 648.925 27.4968 640.904 Q27.4968 633.711 32.1438 629.541 Q36.7589 625.34 44.7161 625.34 M42.9973 631.196 Q38.1912 631.26 35.3266 633.902 Q32.4621 636.512 32.4621 640.84 Q32.4621 645.742 35.2312 648.702 Q38.0002 651.63 43.0292 652.076 L42.9973 631.196 M64.0042 636.002 L64.0042 632.215 Q65.9457 633.647 67.3462 634.347 Q68.7466 635.016 69.7333 635.016 Q71.1974 635.016 71.9295 634.156 Q72.6615 633.265 72.6615 631.546 Q72.6615 630.528 72.4069 629.541 Q72.1841 628.555 71.7067 627.568 L75.9399 627.568 Q76.2581 628.777 76.4173 629.86 Q76.5764 630.942 76.5764 631.897 Q76.5764 635.78 75.176 637.626 Q73.8073 639.44 70.8473 639.44 Q69.3195 639.44 67.6326 638.612 Q65.9775 637.753 64.0042 636.002 Z" fill="#000000" fill-rule="nonzero" fill-opacity="1" /><path clip-path="url(#clip780)" d="M33.7671 592.27 L14.479 592.27 L14.479 586.414 L64.0042 586.414 L64.0042 592.27 L58.657 592.27 Q61.8398 594.116 63.3994 596.949 Q64.9272 599.75 64.9272 603.696 Q64.9272 610.158 59.771 614.232 Q54.6147 618.274 46.212 618.274 Q37.8093 618.274 32.6531 614.232 Q27.4968 610.158 27.4968 603.696 Q27.4968 599.75 29.0564 596.949 Q30.5842 594.116 33.7671 592.27 M46.212 612.227 Q52.6732 612.227 56.3653 609.585 Q60.0256 606.911 60.0256 602.264 Q60.0256 597.617 56.3653 594.944 Q52.6732 592.27 46.212 592.27 Q39.7508 592.27 36.0905 594.944 Q32.3984 597.617 32.3984 602.264 Q32.3984 606.911 36.0905 609.585 Q39.7508 612.227 46.212 612.227 Z" fill="#000000" fill-rule="nonzero" fill-opacity="1" /><path clip-path="url(#clip780)" d="M42.4881 544.718 L64.0042 544.718 L64.0042 550.575 L42.679 550.575 Q37.6183 550.575 35.1038 552.548 Q32.5894 554.521 32.5894 558.468 Q32.5894 563.211 35.6131 565.948 Q38.6368 568.685 43.8567 568.685 L64.0042 568.685 L64.0042 574.573 L28.3562 574.573 L28.3562 568.685 L33.8944 568.685 Q30.6797 566.584 29.0883 563.752 Q27.4968 560.887 27.4968 557.163 Q27.4968 551.02 31.3163 547.869 Q35.1038 544.718 42.4881 544.718 Z" fill="#000000" fill-rule="nonzero" fill-opacity="1" /><path clip-path="url(#clip780)" d="M67.3143 518.205 Q73.68 520.688 75.6216 523.043 Q77.5631 525.398 77.5631 529.345 L77.5631 534.024 L72.6615 534.024 L72.6615 530.586 Q72.6615 528.167 71.5157 526.831 Q70.3699 525.494 66.1048 523.871 L63.4312 522.82 L28.3562 537.238 L28.3562 531.032 L56.238 519.892 L28.3562 508.752 L28.3562 502.545 L67.3143 518.205 Z" fill="#000000" fill-rule="nonzero" fill-opacity="1" /><polyline clip-path="url(#clip782)" style="stroke:#009af9; stroke-linecap:round; stroke-linejoin:round; stroke-width:4; stroke-opacity:1; fill:none" points="371.264,86.1857 585.017,247.333 798.77,342.532 1012.52,408.555 1226.28,459.31 1440.03,501.894 1653.78,536.817 1867.54,568.104 2081.29,574.799 2295.04,599.324 "/>
<polyline clip-path="url(#clip782)" style="stroke:#e26f46; stroke-linecap:round; stroke-linejoin:round; stroke-width:4; stroke-opacity:1; fill:none" points="371.264,1384.24 585.017,1251.14 798.77,1156.42 1012.52,1110.21 1226.28,1066.05 1440.03,1023.77 1653.78,994.513 1867.54,964.047 2081.29,935.445 2295.04,912.637 "/>
<path clip-path="url(#clip780)" d="M1501.44 248.629 L2284.78 248.629 L2284.78 93.1086 L1501.44 93.1086  Z" fill="#ffffff" fill-rule="evenodd" fill-opacity="1"/>
<polyline clip-path="url(#clip780)" style="stroke:#000000; stroke-linecap:round; stroke-linejoin:round; stroke-width:4; stroke-opacity:1; fill:none" points="1501.44,248.629 2284.78,248.629 2284.78,93.1086 1501.44,93.1086 1501.44,248.629 "/>
<polyline clip-path="url(#clip780)" style="stroke:#009af9; stroke-linecap:round; stroke-linejoin:round; stroke-width:4; stroke-opacity:1; fill:none" points="1524.1,144.949 1660.05,144.949 "/>
<path clip-path="url(#clip780)" d="M1698.54 132.275 L1692.2 149.474 L1704.91 149.474 L1698.54 132.275 M1695.9 127.669 L1701.2 127.669 L1714.37 162.229 L1709.51 162.229 L1706.36 153.363 L1690.79 153.363 L1687.64 162.229 L1682.71 162.229 L1695.9 127.669 Z" fill="#000000" fill-rule="nonzero" fill-opacity="1" /><path clip-path="url(#clip780)" d="M1735.46 140.238 L1735.46 126.21 L1739.72 126.21 L1739.72 162.229 L1735.46 162.229 L1735.46 158.34 Q1734.12 160.655 1732.06 161.789 Q1730.02 162.9 1727.15 162.9 Q1722.45 162.9 1719.49 159.15 Q1716.55 155.4 1716.55 149.289 Q1716.55 143.178 1719.49 139.428 Q1722.45 135.678 1727.15 135.678 Q1730.02 135.678 1732.06 136.812 Q1734.12 137.923 1735.46 140.238 M1720.95 149.289 Q1720.95 153.988 1722.87 156.673 Q1724.81 159.335 1728.19 159.335 Q1731.57 159.335 1733.52 156.673 Q1735.46 153.988 1735.46 149.289 Q1735.46 144.59 1733.52 141.928 Q1731.57 139.243 1728.19 139.243 Q1724.81 139.243 1722.87 141.928 Q1720.95 144.59 1720.95 149.289 Z" fill="#000000" fill-rule="nonzero" fill-opacity="1" /><path clip-path="url(#clip780)" d="M1760.28 149.196 Q1755.11 149.196 1753.12 150.377 Q1751.13 151.557 1751.13 154.405 Q1751.13 156.673 1752.61 158.016 Q1754.12 159.335 1756.69 159.335 Q1760.23 159.335 1762.36 156.835 Q1764.51 154.312 1764.51 150.145 L1764.51 149.196 L1760.28 149.196 M1768.77 147.437 L1768.77 162.229 L1764.51 162.229 L1764.51 158.293 Q1763.05 160.655 1760.88 161.789 Q1758.7 162.9 1755.55 162.9 Q1751.57 162.9 1749.21 160.678 Q1746.87 158.432 1746.87 154.682 Q1746.87 150.307 1749.79 148.085 Q1752.73 145.863 1758.54 145.863 L1764.51 145.863 L1764.51 145.446 Q1764.51 142.507 1762.57 140.909 Q1760.65 139.289 1757.15 139.289 Q1754.93 139.289 1752.82 139.821 Q1750.72 140.354 1748.77 141.419 L1748.77 137.483 Q1751.11 136.581 1753.31 136.141 Q1755.51 135.678 1757.59 135.678 Q1763.22 135.678 1765.99 138.594 Q1768.77 141.511 1768.77 147.437 Z" fill="#000000" fill-rule="nonzero" fill-opacity="1" /><path clip-path="url(#clip780)" d="M1781.66 158.34 L1781.66 172.09 L1777.38 172.09 L1777.38 136.303 L1781.66 136.303 L1781.66 140.238 Q1783.01 137.923 1785.04 136.812 Q1787.1 135.678 1789.95 135.678 Q1794.67 135.678 1797.61 139.428 Q1800.58 143.178 1800.58 149.289 Q1800.58 155.4 1797.61 159.15 Q1794.67 162.9 1789.95 162.9 Q1787.1 162.9 1785.04 161.789 Q1783.01 160.655 1781.66 158.34 M1796.15 149.289 Q1796.15 144.59 1794.21 141.928 Q1792.29 139.243 1788.91 139.243 Q1785.53 139.243 1783.59 141.928 Q1781.66 144.59 1781.66 149.289 Q1781.66 153.988 1783.59 156.673 Q1785.53 159.335 1788.91 159.335 Q1792.29 159.335 1794.21 156.673 Q1796.15 153.988 1796.15 149.289 Z" fill="#000000" fill-rule="nonzero" fill-opacity="1" /><path clip-path="url(#clip780)" d="M1811.85 128.942 L1811.85 136.303 L1820.62 136.303 L1820.62 139.613 L1811.85 139.613 L1811.85 153.687 Q1811.85 156.858 1812.71 157.761 Q1813.59 158.664 1816.25 158.664 L1820.62 158.664 L1820.62 162.229 L1816.25 162.229 Q1811.32 162.229 1809.44 160.4 Q1807.57 158.548 1807.57 153.687 L1807.57 139.613 L1804.44 139.613 L1804.44 136.303 L1807.57 136.303 L1807.57 128.942 L1811.85 128.942 Z" fill="#000000" fill-rule="nonzero" fill-opacity="1" /><path clip-path="url(#clip780)" d="M1836.27 139.289 Q1832.84 139.289 1830.85 141.974 Q1828.86 144.636 1828.86 149.289 Q1828.86 153.942 1830.83 156.627 Q1832.82 159.289 1836.27 159.289 Q1839.67 159.289 1841.66 156.604 Q1843.65 153.918 1843.65 149.289 Q1843.65 144.682 1841.66 141.997 Q1839.67 139.289 1836.27 139.289 M1836.27 135.678 Q1841.83 135.678 1845 139.289 Q1848.17 142.9 1848.17 149.289 Q1848.17 155.655 1845 159.289 Q1841.83 162.9 1836.27 162.9 Q1830.69 162.9 1827.52 159.289 Q1824.37 155.655 1824.37 149.289 Q1824.37 142.9 1827.52 139.289 Q1830.69 135.678 1836.27 135.678 Z" fill="#000000" fill-rule="nonzero" fill-opacity="1" /><path clip-path="url(#clip780)" d="M1852.75 136.303 L1857.01 136.303 L1862.34 156.534 L1867.64 136.303 L1872.66 136.303 L1877.98 156.534 L1883.28 136.303 L1887.54 136.303 L1880.76 162.229 L1875.74 162.229 L1870.16 140.979 L1864.56 162.229 L1859.53 162.229 L1852.75 136.303 Z" fill="#000000" fill-rule="nonzero" fill-opacity="1" /><path clip-path="url(#clip780)" d="M1905.78 149.196 Q1900.62 149.196 1898.63 150.377 Q1896.64 151.557 1896.64 154.405 Q1896.64 156.673 1898.12 158.016 Q1899.63 159.335 1902.2 159.335 Q1905.74 159.335 1907.87 156.835 Q1910.02 154.312 1910.02 150.145 L1910.02 149.196 L1905.78 149.196 M1914.28 147.437 L1914.28 162.229 L1910.02 162.229 L1910.02 158.293 Q1908.56 160.655 1906.39 161.789 Q1904.21 162.9 1901.06 162.9 Q1897.08 162.9 1894.72 160.678 Q1892.38 158.432 1892.38 154.682 Q1892.38 150.307 1895.3 148.085 Q1898.24 145.863 1904.05 145.863 L1910.02 145.863 L1910.02 145.446 Q1910.02 142.507 1908.08 140.909 Q1906.15 139.289 1902.66 139.289 Q1900.44 139.289 1898.33 139.821 Q1896.22 140.354 1894.28 141.419 L1894.28 137.483 Q1896.62 136.581 1898.82 136.141 Q1901.02 135.678 1903.1 135.678 Q1908.72 135.678 1911.5 138.594 Q1914.28 141.511 1914.28 147.437 Z" fill="#000000" fill-rule="nonzero" fill-opacity="1" /><path clip-path="url(#clip780)" d="M1944.6 146.581 L1944.6 162.229 L1940.34 162.229 L1940.34 146.719 Q1940.34 143.039 1938.91 141.21 Q1937.47 139.382 1934.6 139.382 Q1931.15 139.382 1929.16 141.581 Q1927.17 143.78 1927.17 147.576 L1927.17 162.229 L1922.89 162.229 L1922.89 136.303 L1927.17 136.303 L1927.17 140.331 Q1928.7 137.993 1930.76 136.835 Q1932.84 135.678 1935.55 135.678 Q1940.02 135.678 1942.31 138.456 Q1944.6 141.21 1944.6 146.581 Z" fill="#000000" fill-rule="nonzero" fill-opacity="1" /><path clip-path="url(#clip780)" d="M1963.89 164.636 Q1962.08 169.266 1960.37 170.678 Q1958.65 172.09 1955.78 172.09 L1952.38 172.09 L1952.38 168.525 L1954.88 168.525 Q1956.64 168.525 1957.61 167.692 Q1958.58 166.858 1959.77 163.756 L1960.53 161.812 L1950.04 136.303 L1954.56 136.303 L1962.66 156.581 L1970.76 136.303 L1975.27 136.303 L1963.89 164.636 Z" fill="#000000" fill-rule="nonzero" fill-opacity="1" /><path clip-path="url(#clip780)" d="M2014.83 149.289 Q2014.83 144.59 2012.89 141.928 Q2010.97 139.243 2007.59 139.243 Q2004.21 139.243 2002.26 141.928 Q2000.34 144.59 2000.34 149.289 Q2000.34 153.988 2002.26 156.673 Q2004.21 159.335 2007.59 159.335 Q2010.97 159.335 2012.89 156.673 Q2014.83 153.988 2014.83 149.289 M2000.34 140.238 Q2001.69 137.923 2003.72 136.812 Q2005.78 135.678 2008.63 135.678 Q2013.35 135.678 2016.29 139.428 Q2019.26 143.178 2019.26 149.289 Q2019.26 155.4 2016.29 159.15 Q2013.35 162.9 2008.63 162.9 Q2005.78 162.9 2003.72 161.789 Q2001.69 160.655 2000.34 158.34 L2000.34 162.229 L1996.06 162.229 L1996.06 126.21 L2000.34 126.21 L2000.34 140.238 Z" fill="#000000" fill-rule="nonzero" fill-opacity="1" /><path clip-path="url(#clip780)" d="M2048.49 148.201 L2048.49 150.284 L2028.91 150.284 Q2029.19 154.682 2031.55 156.997 Q2033.93 159.289 2038.17 159.289 Q2040.62 159.289 2042.91 158.687 Q2045.23 158.085 2047.5 156.881 L2047.5 160.909 Q2045.2 161.881 2042.8 162.391 Q2040.39 162.9 2037.91 162.9 Q2031.71 162.9 2028.07 159.289 Q2024.46 155.678 2024.46 149.52 Q2024.46 143.155 2027.89 139.428 Q2031.34 135.678 2037.17 135.678 Q2042.4 135.678 2045.44 139.057 Q2048.49 142.414 2048.49 148.201 M2044.23 146.951 Q2044.19 143.456 2042.26 141.372 Q2040.37 139.289 2037.22 139.289 Q2033.65 139.289 2031.5 141.303 Q2029.37 143.317 2029.05 146.974 L2044.23 146.951 Z" fill="#000000" fill-rule="nonzero" fill-opacity="1" /><path clip-path="url(#clip780)" d="M2053.63 136.303 L2073.86 136.303 L2073.86 140.192 L2057.84 158.826 L2073.86 158.826 L2073.86 162.229 L2053.05 162.229 L2053.05 158.34 L2069.07 139.706 L2053.63 139.706 L2053.63 136.303 Z" fill="#000000" fill-rule="nonzero" fill-opacity="1" /><path clip-path="url(#clip780)" d="M2092.96 136.303 L2097.22 136.303 L2102.54 156.534 L2107.84 136.303 L2112.87 136.303 L2118.19 156.534 L2123.49 136.303 L2127.75 136.303 L2120.97 162.229 L2115.94 162.229 L2110.37 140.979 L2104.76 162.229 L2099.74 162.229 L2092.96 136.303 Z" fill="#000000" fill-rule="nonzero" fill-opacity="1" /><path clip-path="url(#clip780)" d="M2145 164.636 Q2143.19 169.266 2141.48 170.678 Q2139.76 172.09 2136.89 172.09 L2133.49 172.09 L2133.49 168.525 L2135.99 168.525 Q2137.75 168.525 2138.72 167.692 Q2139.69 166.858 2140.88 163.756 L2141.64 161.812 L2131.15 136.303 L2135.67 136.303 L2143.77 156.581 L2151.87 136.303 L2156.38 136.303 L2145 164.636 Z" fill="#000000" fill-rule="nonzero" fill-opacity="1" /><path clip-path="url(#clip780)" d="M2180.87 149.289 Q2180.87 144.59 2178.93 141.928 Q2177.01 139.243 2173.63 139.243 Q2170.25 139.243 2168.31 141.928 Q2166.38 144.59 2166.38 149.289 Q2166.38 153.988 2168.31 156.673 Q2170.25 159.335 2173.63 159.335 Q2177.01 159.335 2178.93 156.673 Q2180.87 153.988 2180.87 149.289 M2166.38 140.238 Q2167.73 137.923 2169.76 136.812 Q2171.82 135.678 2174.67 135.678 Q2179.39 135.678 2182.33 139.428 Q2185.3 143.178 2185.3 149.289 Q2185.3 155.4 2182.33 159.15 Q2179.39 162.9 2174.67 162.9 Q2171.82 162.9 2169.76 161.789 Q2167.73 160.655 2166.38 158.34 L2166.38 162.229 L2162.1 162.229 L2162.1 126.21 L2166.38 126.21 L2166.38 140.238 Z" fill="#000000" fill-rule="nonzero" fill-opacity="1" /><path clip-path="url(#clip780)" d="M2202.4 139.289 Q2198.98 139.289 2196.99 141.974 Q2195 144.636 2195 149.289 Q2195 153.942 2196.96 156.627 Q2198.95 159.289 2202.4 159.289 Q2205.81 159.289 2207.8 156.604 Q2209.79 153.918 2209.79 149.289 Q2209.79 144.682 2207.8 141.997 Q2205.81 139.289 2202.4 139.289 M2202.4 135.678 Q2207.96 135.678 2211.13 139.289 Q2214.3 142.9 2214.3 149.289 Q2214.3 155.655 2211.13 159.289 Q2207.96 162.9 2202.4 162.9 Q2196.82 162.9 2193.65 159.289 Q2190.5 155.655 2190.5 149.289 Q2190.5 142.9 2193.65 139.289 Q2196.82 135.678 2202.4 135.678 Z" fill="#000000" fill-rule="nonzero" fill-opacity="1" /><path clip-path="url(#clip780)" d="M2236.38 140.284 Q2235.67 139.868 2234.81 139.682 Q2233.98 139.474 2232.96 139.474 Q2229.35 139.474 2227.4 141.835 Q2225.48 144.173 2225.48 148.571 L2225.48 162.229 L2221.2 162.229 L2221.2 136.303 L2225.48 136.303 L2225.48 140.331 Q2226.82 137.969 2228.98 136.835 Q2231.13 135.678 2234.21 135.678 Q2234.65 135.678 2235.18 135.747 Q2235.71 135.794 2236.36 135.909 L2236.38 140.284 Z" fill="#000000" fill-rule="nonzero" fill-opacity="1" /><path clip-path="url(#clip780)" d="M2240.41 151.997 L2240.41 136.303 L2244.67 136.303 L2244.67 151.835 Q2244.67 155.516 2246.11 157.368 Q2247.54 159.196 2250.41 159.196 Q2253.86 159.196 2255.85 156.997 Q2257.87 154.798 2257.87 151.002 L2257.87 136.303 L2262.12 136.303 L2262.12 162.229 L2257.87 162.229 L2257.87 158.247 Q2256.31 160.608 2254.25 161.766 Q2252.22 162.9 2249.51 162.9 Q2245.04 162.9 2242.73 160.122 Q2240.41 157.344 2240.41 151.997 M2251.13 135.678 L2251.13 135.678 Z" fill="#000000" fill-rule="nonzero" fill-opacity="1" /><polyline clip-path="url(#clip780)" style="stroke:#e26f46; stroke-linecap:round; stroke-linejoin:round; stroke-width:4; stroke-opacity:1; fill:none" points="1524.1,196.789 1660.05,196.789 "/>
<path clip-path="url(#clip780)" d="M1698.54 184.115 L1692.2 201.314 L1704.91 201.314 L1698.54 184.115 M1695.9 179.509 L1701.2 179.509 L1714.37 214.069 L1709.51 214.069 L1706.36 205.203 L1690.79 205.203 L1687.64 214.069 L1682.71 214.069 L1695.9 179.509 Z" fill="#000000" fill-rule="nonzero" fill-opacity="1" /><path clip-path="url(#clip780)" d="M1735.46 192.078 L1735.46 178.05 L1739.72 178.05 L1739.72 214.069 L1735.46 214.069 L1735.46 210.18 Q1734.12 212.495 1732.06 213.629 Q1730.02 214.74 1727.15 214.74 Q1722.45 214.74 1719.49 210.99 Q1716.55 207.24 1716.55 201.129 Q1716.55 195.018 1719.49 191.268 Q1722.45 187.518 1727.15 187.518 Q1730.02 187.518 1732.06 188.652 Q1734.12 189.763 1735.46 192.078 M1720.95 201.129 Q1720.95 205.828 1722.87 208.513 Q1724.81 211.175 1728.19 211.175 Q1731.57 211.175 1733.52 208.513 Q1735.46 205.828 1735.46 201.129 Q1735.46 196.43 1733.52 193.768 Q1731.57 191.083 1728.19 191.083 Q1724.81 191.083 1722.87 193.768 Q1720.95 196.43 1720.95 201.129 Z" fill="#000000" fill-rule="nonzero" fill-opacity="1" /><path clip-path="url(#clip780)" d="M1760.28 201.036 Q1755.11 201.036 1753.12 202.217 Q1751.13 203.397 1751.13 206.245 Q1751.13 208.513 1752.61 209.856 Q1754.12 211.175 1756.69 211.175 Q1760.23 211.175 1762.36 208.675 Q1764.51 206.152 1764.51 201.985 L1764.51 201.036 L1760.28 201.036 M1768.77 199.277 L1768.77 214.069 L1764.51 214.069 L1764.51 210.133 Q1763.05 212.495 1760.88 213.629 Q1758.7 214.74 1755.55 214.74 Q1751.57 214.74 1749.21 212.518 Q1746.87 210.272 1746.87 206.522 Q1746.87 202.147 1749.79 199.925 Q1752.73 197.703 1758.54 197.703 L1764.51 197.703 L1764.51 197.286 Q1764.51 194.347 1762.57 192.749 Q1760.65 191.129 1757.15 191.129 Q1754.93 191.129 1752.82 191.661 Q1750.72 192.194 1748.77 193.259 L1748.77 189.323 Q1751.11 188.421 1753.31 187.981 Q1755.51 187.518 1757.59 187.518 Q1763.22 187.518 1765.99 190.434 Q1768.77 193.351 1768.77 199.277 Z" fill="#000000" fill-rule="nonzero" fill-opacity="1" /><path clip-path="url(#clip780)" d="M1781.66 210.18 L1781.66 223.93 L1777.38 223.93 L1777.38 188.143 L1781.66 188.143 L1781.66 192.078 Q1783.01 189.763 1785.04 188.652 Q1787.1 187.518 1789.95 187.518 Q1794.67 187.518 1797.61 191.268 Q1800.58 195.018 1800.58 201.129 Q1800.58 207.24 1797.61 210.99 Q1794.67 214.74 1789.95 214.74 Q1787.1 214.74 1785.04 213.629 Q1783.01 212.495 1781.66 210.18 M1796.15 201.129 Q1796.15 196.43 1794.21 193.768 Q1792.29 191.083 1788.91 191.083 Q1785.53 191.083 1783.59 193.768 Q1781.66 196.43 1781.66 201.129 Q1781.66 205.828 1783.59 208.513 Q1785.53 211.175 1788.91 211.175 Q1792.29 211.175 1794.21 208.513 Q1796.15 205.828 1796.15 201.129 Z" fill="#000000" fill-rule="nonzero" fill-opacity="1" /><path clip-path="url(#clip780)" d="M1811.85 180.782 L1811.85 188.143 L1820.62 188.143 L1820.62 191.453 L1811.85 191.453 L1811.85 205.527 Q1811.85 208.698 1812.71 209.601 Q1813.59 210.504 1816.25 210.504 L1820.62 210.504 L1820.62 214.069 L1816.25 214.069 Q1811.32 214.069 1809.44 212.24 Q1807.57 210.388 1807.57 205.527 L1807.57 191.453 L1804.44 191.453 L1804.44 188.143 L1807.57 188.143 L1807.57 180.782 L1811.85 180.782 Z" fill="#000000" fill-rule="nonzero" fill-opacity="1" /><path clip-path="url(#clip780)" d="M1836.27 191.129 Q1832.84 191.129 1830.85 193.814 Q1828.86 196.476 1828.86 201.129 Q1828.86 205.782 1830.83 208.467 Q1832.82 211.129 1836.27 211.129 Q1839.67 211.129 1841.66 208.444 Q1843.65 205.758 1843.65 201.129 Q1843.65 196.522 1841.66 193.837 Q1839.67 191.129 1836.27 191.129 M1836.27 187.518 Q1841.83 187.518 1845 191.129 Q1848.17 194.74 1848.17 201.129 Q1848.17 207.495 1845 211.129 Q1841.83 214.74 1836.27 214.74 Q1830.69 214.74 1827.52 211.129 Q1824.37 207.495 1824.37 201.129 Q1824.37 194.74 1827.52 191.129 Q1830.69 187.518 1836.27 187.518 Z" fill="#000000" fill-rule="nonzero" fill-opacity="1" /><path clip-path="url(#clip780)" d="M1852.75 188.143 L1857.01 188.143 L1862.34 208.374 L1867.64 188.143 L1872.66 188.143 L1877.98 208.374 L1883.28 188.143 L1887.54 188.143 L1880.76 214.069 L1875.74 214.069 L1870.16 192.819 L1864.56 214.069 L1859.53 214.069 L1852.75 188.143 Z" fill="#000000" fill-rule="nonzero" fill-opacity="1" /><path clip-path="url(#clip780)" d="M1905.78 201.036 Q1900.62 201.036 1898.63 202.217 Q1896.64 203.397 1896.64 206.245 Q1896.64 208.513 1898.12 209.856 Q1899.63 211.175 1902.2 211.175 Q1905.74 211.175 1907.87 208.675 Q1910.02 206.152 1910.02 201.985 L1910.02 201.036 L1905.78 201.036 M1914.28 199.277 L1914.28 214.069 L1910.02 214.069 L1910.02 210.133 Q1908.56 212.495 1906.39 213.629 Q1904.21 214.74 1901.06 214.74 Q1897.08 214.74 1894.72 212.518 Q1892.38 210.272 1892.38 206.522 Q1892.38 202.147 1895.3 199.925 Q1898.24 197.703 1904.05 197.703 L1910.02 197.703 L1910.02 197.286 Q1910.02 194.347 1908.08 192.749 Q1906.15 191.129 1902.66 191.129 Q1900.44 191.129 1898.33 191.661 Q1896.22 192.194 1894.28 193.259 L1894.28 189.323 Q1896.62 188.421 1898.82 187.981 Q1901.02 187.518 1903.1 187.518 Q1908.72 187.518 1911.5 190.434 Q1914.28 193.351 1914.28 199.277 Z" fill="#000000" fill-rule="nonzero" fill-opacity="1" /><path clip-path="url(#clip780)" d="M1944.6 198.421 L1944.6 214.069 L1940.34 214.069 L1940.34 198.559 Q1940.34 194.879 1938.91 193.05 Q1937.47 191.222 1934.6 191.222 Q1931.15 191.222 1929.16 193.421 Q1927.17 195.62 1927.17 199.416 L1927.17 214.069 L1922.89 214.069 L1922.89 188.143 L1927.17 188.143 L1927.17 192.171 Q1928.7 189.833 1930.76 188.675 Q1932.84 187.518 1935.55 187.518 Q1940.02 187.518 1942.31 190.296 Q1944.6 193.05 1944.6 198.421 Z" fill="#000000" fill-rule="nonzero" fill-opacity="1" /><path clip-path="url(#clip780)" d="M1963.89 216.476 Q1962.08 221.106 1960.37 222.518 Q1958.65 223.93 1955.78 223.93 L1952.38 223.93 L1952.38 220.365 L1954.88 220.365 Q1956.64 220.365 1957.61 219.532 Q1958.58 218.698 1959.77 215.596 L1960.53 213.652 L1950.04 188.143 L1954.56 188.143 L1962.66 208.421 L1970.76 188.143 L1975.27 188.143 L1963.89 216.476 Z" fill="#000000" fill-rule="nonzero" fill-opacity="1" /><path clip-path="url(#clip780)" d="M1994.37 188.143 L2014.6 188.143 L2014.6 192.032 L1998.58 210.666 L2014.6 210.666 L2014.6 214.069 L1993.79 214.069 L1993.79 210.18 L2009.81 191.546 L1994.37 191.546 L1994.37 188.143 Z" fill="#000000" fill-rule="nonzero" fill-opacity="1" /><path clip-path="url(#clip780)" d="M2033.7 188.143 L2037.96 188.143 L2043.28 208.374 L2048.58 188.143 L2053.61 188.143 L2058.93 208.374 L2064.23 188.143 L2068.49 188.143 L2061.71 214.069 L2056.69 214.069 L2051.11 192.819 L2045.51 214.069 L2040.48 214.069 L2033.7 188.143 Z" fill="#000000" fill-rule="nonzero" fill-opacity="1" /><path clip-path="url(#clip780)" d="M2085.74 216.476 Q2083.93 221.106 2082.22 222.518 Q2080.51 223.93 2077.63 223.93 L2074.23 223.93 L2074.23 220.365 L2076.73 220.365 Q2078.49 220.365 2079.46 219.532 Q2080.44 218.698 2081.62 215.596 L2082.38 213.652 L2071.89 188.143 L2076.41 188.143 L2084.51 208.421 L2092.61 188.143 L2097.13 188.143 L2085.74 216.476 Z" fill="#000000" fill-rule="nonzero" fill-opacity="1" /><path clip-path="url(#clip780)" d="M2121.62 201.129 Q2121.62 196.43 2119.67 193.768 Q2117.75 191.083 2114.37 191.083 Q2110.99 191.083 2109.05 193.768 Q2107.13 196.43 2107.13 201.129 Q2107.13 205.828 2109.05 208.513 Q2110.99 211.175 2114.37 211.175 Q2117.75 211.175 2119.67 208.513 Q2121.62 205.828 2121.62 201.129 M2107.13 192.078 Q2108.47 189.763 2110.51 188.652 Q2112.57 187.518 2115.41 187.518 Q2120.13 187.518 2123.07 191.268 Q2126.04 195.018 2126.04 201.129 Q2126.04 207.24 2123.07 210.99 Q2120.13 214.74 2115.41 214.74 Q2112.57 214.74 2110.51 213.629 Q2108.47 212.495 2107.13 210.18 L2107.13 214.069 L2102.84 214.069 L2102.84 178.05 L2107.13 178.05 L2107.13 192.078 Z" fill="#000000" fill-rule="nonzero" fill-opacity="1" /><path clip-path="url(#clip780)" d="M2143.14 191.129 Q2139.72 191.129 2137.73 193.814 Q2135.74 196.476 2135.74 201.129 Q2135.74 205.782 2137.7 208.467 Q2139.69 211.129 2143.14 211.129 Q2146.55 211.129 2148.54 208.444 Q2150.53 205.758 2150.53 201.129 Q2150.53 196.522 2148.54 193.837 Q2146.55 191.129 2143.14 191.129 M2143.14 187.518 Q2148.7 187.518 2151.87 191.129 Q2155.04 194.74 2155.04 201.129 Q2155.04 207.495 2151.87 211.129 Q2148.7 214.74 2143.14 214.74 Q2137.57 214.74 2134.39 211.129 Q2131.25 207.495 2131.25 201.129 Q2131.25 194.74 2134.39 191.129 Q2137.57 187.518 2143.14 187.518 Z" fill="#000000" fill-rule="nonzero" fill-opacity="1" /><path clip-path="url(#clip780)" d="M2177.13 192.124 Q2176.41 191.708 2175.55 191.522 Q2174.72 191.314 2173.7 191.314 Q2170.09 191.314 2168.14 193.675 Q2166.22 196.013 2166.22 200.411 L2166.22 214.069 L2161.94 214.069 L2161.94 188.143 L2166.22 188.143 L2166.22 192.171 Q2167.56 189.809 2169.72 188.675 Q2171.87 187.518 2174.95 187.518 Q2175.39 187.518 2175.92 187.587 Q2176.45 187.634 2177.1 187.749 L2177.13 192.124 Z" fill="#000000" fill-rule="nonzero" fill-opacity="1" /><path clip-path="url(#clip780)" d="M2202.73 200.041 L2202.73 202.124 L2183.14 202.124 Q2183.42 206.522 2185.78 208.837 Q2188.17 211.129 2192.4 211.129 Q2194.86 211.129 2197.15 210.527 Q2199.46 209.925 2201.73 208.721 L2201.73 212.749 Q2199.44 213.721 2197.03 214.231 Q2194.62 214.74 2192.15 214.74 Q2185.94 214.74 2182.31 211.129 Q2178.7 207.518 2178.7 201.36 Q2178.7 194.995 2182.12 191.268 Q2185.57 187.518 2191.41 187.518 Q2196.64 187.518 2199.67 190.897 Q2202.73 194.254 2202.73 200.041 M2198.47 198.791 Q2198.42 195.296 2196.5 193.212 Q2194.6 191.129 2191.45 191.129 Q2187.89 191.129 2185.74 193.143 Q2183.61 195.157 2183.28 198.814 L2198.47 198.791 Z" fill="#000000" fill-rule="nonzero" fill-opacity="1" /><path clip-path="url(#clip780)" d="M2229.9 193.12 Q2231.5 190.249 2233.72 188.884 Q2235.94 187.518 2238.95 187.518 Q2243 187.518 2245.2 190.365 Q2247.4 193.189 2247.4 198.421 L2247.4 214.069 L2243.12 214.069 L2243.12 198.559 Q2243.12 194.833 2241.8 193.027 Q2240.48 191.222 2237.77 191.222 Q2234.46 191.222 2232.54 193.421 Q2230.62 195.62 2230.62 199.416 L2230.62 214.069 L2226.34 214.069 L2226.34 198.559 Q2226.34 194.809 2225.02 193.027 Q2223.7 191.222 2220.94 191.222 Q2217.68 191.222 2215.76 193.444 Q2213.84 195.643 2213.84 199.416 L2213.84 214.069 L2209.56 214.069 L2209.56 188.143 L2213.84 188.143 L2213.84 192.171 Q2215.3 189.786 2217.33 188.652 Q2219.37 187.518 2222.17 187.518 Q2225 187.518 2226.96 188.953 Q2228.95 190.388 2229.9 193.12 Z" fill="#000000" fill-rule="nonzero" fill-opacity="1" /></svg>
