<?xml version="1.0" encoding="utf-8"?>
<svg xmlns="http://www.w3.org/2000/svg" xmlns:xlink="http://www.w3.org/1999/xlink" width="600" height="400" viewBox="0 0 2400 1600">
<defs>
  <clipPath id="clip450">
    <rect x="0" y="0" width="2400" height="1600"/>
  </clipPath>
</defs>
<path clip-path="url(#clip450)" d="M0 1600 L2400 1600 L2400 0 L0 0  Z" fill="#ffffff" fill-rule="evenodd" fill-opacity="1"/>
<defs>
  <clipPath id="clip451">
    <rect x="480" y="0" width="1681" height="1600"/>
  </clipPath>
</defs>
<path clip-path="url(#clip450)" d="M263.283 1423.18 L2352.76 1423.18 L2352.76 47.2441 L263.283 47.2441  Z" fill="#ffffff" fill-rule="evenodd" fill-opacity="1"/>
<defs>
  <clipPath id="clip452">
    <rect x="263" y="47" width="2090" height="1377"/>
  </clipPath>
</defs>
<polyline clip-path="url(#clip452)" style="stroke:#000000; stroke-linecap:round; stroke-linejoin:round; stroke-width:2; stroke-opacity:0.1; fill:none" points="322.419,1423.18 322.419,47.2441 "/>
<polyline clip-path="url(#clip452)" style="stroke:#000000; stroke-linecap:round; stroke-linejoin:round; stroke-width:2; stroke-opacity:0.1; fill:none" points="687.456,1423.18 687.456,47.2441 "/>
<polyline clip-path="url(#clip452)" style="stroke:#000000; stroke-linecap:round; stroke-linejoin:round; stroke-width:2; stroke-opacity:0.1; fill:none" points="1052.49,1423.18 1052.49,47.2441 "/>
<polyline clip-path="url(#clip452)" style="stroke:#000000; stroke-linecap:round; stroke-linejoin:round; stroke-width:2; stroke-opacity:0.1; fill:none" points="1417.53,1423.18 1417.53,47.2441 "/>
<polyline clip-path="url(#clip452)" style="stroke:#000000; stroke-linecap:round; stroke-linejoin:round; stroke-width:2; stroke-opacity:0.1; fill:none" points="1782.57,1423.18 1782.57,47.2441 "/>
<polyline clip-path="url(#clip452)" style="stroke:#000000; stroke-linecap:round; stroke-linejoin:round; stroke-width:2; stroke-opacity:0.1; fill:none" points="2147.61,1423.18 2147.61,47.2441 "/>
<polyline clip-path="url(#clip450)" style="stroke:#000000; stroke-linecap:round; stroke-linejoin:round; stroke-width:4; stroke-opacity:1; fill:none" points="263.283,1423.18 2352.76,1423.18 "/>
<polyline clip-path="url(#clip450)" style="stroke:#000000; stroke-linecap:round; stroke-linejoin:round; stroke-width:4; stroke-opacity:1; fill:none" points="322.419,1423.18 322.419,1404.28 "/>
<polyline clip-path="url(#clip450)" style="stroke:#000000; stroke-linecap:round; stroke-linejoin:round; stroke-width:4; stroke-opacity:1; fill:none" points="687.456,1423.18 687.456,1404.28 "/>
<polyline clip-path="url(#clip450)" style="stroke:#000000; stroke-linecap:round; stroke-linejoin:round; stroke-width:4; stroke-opacity:1; fill:none" points="1052.49,1423.18 1052.49,1404.28 "/>
<polyline clip-path="url(#clip450)" style="stroke:#000000; stroke-linecap:round; stroke-linejoin:round; stroke-width:4; stroke-opacity:1; fill:none" points="1417.53,1423.18 1417.53,1404.28 "/>
<polyline clip-path="url(#clip450)" style="stroke:#000000; stroke-linecap:round; stroke-linejoin:round; stroke-width:4; stroke-opacity:1; fill:none" points="1782.57,1423.18 1782.57,1404.28 "/>
<polyline clip-path="url(#clip450)" style="stroke:#000000; stroke-linecap:round; stroke-linejoin:round; stroke-width:4; stroke-opacity:1; fill:none" points="2147.61,1423.18 2147.61,1404.28 "/>
<path clip-path="url(#clip450)" d="M322.419 1454.1 Q318.808 1454.1 316.979 1457.66 Q315.174 1461.2 315.174 1468.33 Q315.174 1475.44 316.979 1479.01 Q318.808 1482.55 322.419 1482.55 Q326.053 1482.55 327.859 1479.01 Q329.688 1475.44 329.688 1468.33 Q329.688 1461.2 327.859 1457.66 Q326.053 1454.1 322.419 1454.1 M322.419 1450.39 Q328.229 1450.39 331.285 1455 Q334.363 1459.58 334.363 1468.33 Q334.363 1477.06 331.285 1481.67 Q328.229 1486.25 322.419 1486.25 Q316.609 1486.25 313.53 1481.67 Q310.475 1477.06 310.475 1468.33 Q310.475 1459.58 313.53 1455 Q316.609 1450.39 322.419 1450.39 Z" fill="#000000" fill-rule="nonzero" fill-opacity="1" /><path clip-path="url(#clip450)" d="M662.144 1481.64 L669.783 1481.64 L669.783 1455.28 L661.473 1456.95 L661.473 1452.69 L669.736 1451.02 L674.412 1451.02 L674.412 1481.64 L682.051 1481.64 L682.051 1485.58 L662.144 1485.58 L662.144 1481.64 Z" fill="#000000" fill-rule="nonzero" fill-opacity="1" /><path clip-path="url(#clip450)" d="M701.496 1454.1 Q697.884 1454.1 696.056 1457.66 Q694.25 1461.2 694.25 1468.33 Q694.25 1475.44 696.056 1479.01 Q697.884 1482.55 701.496 1482.55 Q705.13 1482.55 706.935 1479.01 Q708.764 1475.44 708.764 1468.33 Q708.764 1461.2 706.935 1457.66 Q705.13 1454.1 701.496 1454.1 M701.496 1450.39 Q707.306 1450.39 710.361 1455 Q713.44 1459.58 713.44 1468.33 Q713.44 1477.06 710.361 1481.67 Q707.306 1486.25 701.496 1486.25 Q695.685 1486.25 692.607 1481.67 Q689.551 1477.06 689.551 1468.33 Q689.551 1459.58 692.607 1455 Q695.685 1450.39 701.496 1450.39 Z" fill="#000000" fill-rule="nonzero" fill-opacity="1" /><path clip-path="url(#clip450)" d="M1031.27 1481.64 L1047.59 1481.64 L1047.59 1485.58 L1025.64 1485.58 L1025.64 1481.64 Q1028.3 1478.89 1032.89 1474.26 Q1037.49 1469.61 1038.67 1468.27 Q1040.92 1465.74 1041.8 1464.01 Q1042.7 1462.25 1042.7 1460.56 Q1042.7 1457.8 1040.76 1456.07 Q1038.84 1454.33 1035.73 1454.33 Q1033.54 1454.33 1031.08 1455.09 Q1028.65 1455.86 1025.87 1457.41 L1025.87 1452.69 Q1028.7 1451.55 1031.15 1450.97 Q1033.6 1450.39 1035.64 1450.39 Q1041.01 1450.39 1044.21 1453.08 Q1047.4 1455.77 1047.4 1460.26 Q1047.4 1462.39 1046.59 1464.31 Q1045.8 1466.2 1043.7 1468.8 Q1043.12 1469.47 1040.02 1472.69 Q1036.91 1475.88 1031.27 1481.64 Z" fill="#000000" fill-rule="nonzero" fill-opacity="1" /><path clip-path="url(#clip450)" d="M1067.4 1454.1 Q1063.79 1454.1 1061.96 1457.66 Q1060.16 1461.2 1060.16 1468.33 Q1060.16 1475.44 1061.96 1479.01 Q1063.79 1482.55 1067.4 1482.55 Q1071.04 1482.55 1072.84 1479.01 Q1074.67 1475.44 1074.67 1468.33 Q1074.67 1461.2 1072.84 1457.66 Q1071.04 1454.1 1067.4 1454.1 M1067.4 1450.39 Q1073.21 1450.39 1076.27 1455 Q1079.35 1459.58 1079.35 1468.33 Q1079.35 1477.06 1076.27 1481.67 Q1073.21 1486.25 1067.4 1486.25 Q1061.59 1486.25 1058.51 1481.67 Q1055.46 1477.06 1055.46 1468.33 Q1055.46 1459.58 1058.51 1455 Q1061.59 1450.39 1067.4 1450.39 Z" fill="#000000" fill-rule="nonzero" fill-opacity="1" /><path clip-path="url(#clip450)" d="M1406.37 1466.95 Q1409.73 1467.66 1411.6 1469.93 Q1413.5 1472.2 1413.5 1475.53 Q1413.5 1480.65 1409.98 1483.45 Q1406.47 1486.25 1399.98 1486.25 Q1397.81 1486.25 1395.49 1485.81 Q1393.2 1485.39 1390.75 1484.54 L1390.75 1480.02 Q1392.69 1481.16 1395.01 1481.74 Q1397.32 1482.32 1399.85 1482.32 Q1404.24 1482.32 1406.54 1480.58 Q1408.85 1478.84 1408.85 1475.53 Q1408.85 1472.48 1406.7 1470.77 Q1404.57 1469.03 1400.75 1469.03 L1396.72 1469.03 L1396.72 1465.19 L1400.93 1465.19 Q1404.38 1465.19 1406.21 1463.82 Q1408.04 1462.43 1408.04 1459.84 Q1408.04 1457.18 1406.14 1455.77 Q1404.27 1454.33 1400.75 1454.33 Q1398.83 1454.33 1396.63 1454.75 Q1394.43 1455.16 1391.79 1456.04 L1391.79 1451.88 Q1394.45 1451.14 1396.77 1450.77 Q1399.1 1450.39 1401.16 1450.39 Q1406.49 1450.39 1409.59 1452.83 Q1412.69 1455.23 1412.69 1459.35 Q1412.69 1462.22 1411.05 1464.21 Q1409.41 1466.18 1406.37 1466.95 Z" fill="#000000" fill-rule="nonzero" fill-opacity="1" /><path clip-path="url(#clip450)" d="M1432.37 1454.1 Q1428.76 1454.1 1426.93 1457.66 Q1425.12 1461.2 1425.12 1468.33 Q1425.12 1475.44 1426.93 1479.01 Q1428.76 1482.55 1432.37 1482.55 Q1436 1482.55 1437.81 1479.01 Q1439.64 1475.44 1439.64 1468.33 Q1439.64 1461.2 1437.81 1457.66 Q1436 1454.1 1432.37 1454.1 M1432.37 1450.39 Q1438.18 1450.39 1441.23 1455 Q1444.31 1459.58 1444.31 1468.33 Q1444.31 1477.06 1441.23 1481.67 Q1438.18 1486.25 1432.37 1486.25 Q1426.56 1486.25 1423.48 1481.67 Q1420.42 1477.06 1420.42 1468.33 Q1420.42 1459.58 1423.48 1455 Q1426.56 1450.39 1432.37 1450.39 Z" fill="#000000" fill-rule="nonzero" fill-opacity="1" /><path clip-path="url(#clip450)" d="M1770.74 1455.09 L1758.93 1473.54 L1770.74 1473.54 L1770.74 1455.09 M1769.51 1451.02 L1775.39 1451.02 L1775.39 1473.54 L1780.32 1473.54 L1780.32 1477.43 L1775.39 1477.43 L1775.39 1485.58 L1770.74 1485.58 L1770.74 1477.43 L1755.14 1477.43 L1755.14 1472.92 L1769.51 1451.02 Z" fill="#000000" fill-rule="nonzero" fill-opacity="1" /><path clip-path="url(#clip450)" d="M1798.05 1454.1 Q1794.44 1454.1 1792.61 1457.66 Q1790.81 1461.2 1790.81 1468.33 Q1790.81 1475.44 1792.61 1479.01 Q1794.44 1482.55 1798.05 1482.55 Q1801.69 1482.55 1803.49 1479.01 Q1805.32 1475.44 1805.32 1468.33 Q1805.32 1461.2 1803.49 1457.66 Q1801.69 1454.1 1798.05 1454.1 M1798.05 1450.39 Q1803.86 1450.39 1806.92 1455 Q1810 1459.58 1810 1468.33 Q1810 1477.06 1806.92 1481.67 Q1803.86 1486.25 1798.05 1486.25 Q1792.24 1486.25 1789.17 1481.67 Q1786.11 1477.06 1786.11 1468.33 Q1786.11 1459.58 1789.17 1455 Q1792.24 1450.39 1798.05 1450.39 Z" fill="#000000" fill-rule="nonzero" fill-opacity="1" /><path clip-path="url(#clip450)" d="M2122.3 1451.02 L2140.66 1451.02 L2140.66 1454.96 L2126.59 1454.96 L2126.59 1463.43 Q2127.61 1463.08 2128.62 1462.92 Q2129.64 1462.73 2130.66 1462.73 Q2136.45 1462.73 2139.83 1465.9 Q2143.21 1469.08 2143.21 1474.49 Q2143.21 1480.07 2139.73 1483.17 Q2136.26 1486.25 2129.94 1486.25 Q2127.77 1486.25 2125.5 1485.88 Q2123.25 1485.51 2120.85 1484.77 L2120.85 1480.07 Q2122.93 1481.2 2125.15 1481.76 Q2127.37 1482.32 2129.85 1482.32 Q2133.86 1482.32 2136.19 1480.21 Q2138.53 1478.1 2138.53 1474.49 Q2138.53 1470.88 2136.19 1468.77 Q2133.86 1466.67 2129.85 1466.67 Q2127.98 1466.67 2126.1 1467.08 Q2124.25 1467.5 2122.3 1468.38 L2122.3 1451.02 Z" fill="#000000" fill-rule="nonzero" fill-opacity="1" /><path clip-path="url(#clip450)" d="M2162.42 1454.1 Q2158.81 1454.1 2156.98 1457.66 Q2155.17 1461.2 2155.17 1468.33 Q2155.17 1475.44 2156.98 1479.01 Q2158.81 1482.55 2162.42 1482.55 Q2166.05 1482.55 2167.86 1479.01 Q2169.69 1475.44 2169.69 1468.33 Q2169.69 1461.2 2167.86 1457.66 Q2166.05 1454.1 2162.42 1454.1 M2162.42 1450.39 Q2168.23 1450.39 2171.29 1455 Q2174.36 1459.58 2174.36 1468.33 Q2174.36 1477.06 2171.29 1481.67 Q2168.23 1486.25 2162.42 1486.25 Q2156.61 1486.25 2153.53 1481.67 Q2150.48 1477.06 2150.48 1468.33 Q2150.48 1459.58 2153.53 1455 Q2156.61 1450.39 2162.42 1450.39 Z" fill="#000000" fill-rule="nonzero" fill-opacity="1" /><path clip-path="url(#clip450)" d="M1324.18 1544.17 Q1324.18 1544.42 1323.89 1545.42 Q1323.6 1546.42 1322.89 1547.97 Q1322.22 1549.51 1321.28 1550.93 Q1320.35 1552.31 1318.8 1553.34 Q1317.29 1554.34 1315.55 1554.34 Q1313.23 1554.34 1311.69 1552.8 Q1310.14 1551.25 1310.14 1548.93 Q1310.14 1547.64 1310.82 1545.87 Q1315.1 1534.44 1315.1 1530.51 Q1315.1 1525.91 1311.53 1525.91 Q1309.75 1525.91 1308.08 1526.58 Q1306.44 1527.23 1305.31 1528.13 Q1304.18 1529.03 1303.15 1530.29 Q1302.15 1531.51 1301.64 1532.35 Q1301.16 1533.15 1300.77 1533.96 L1299.93 1537.24 Q1299.74 1538.14 1298.8 1541.65 L1297.35 1547.61 Q1296.32 1552.06 1296.1 1552.47 Q1295.78 1553.38 1295.07 1553.86 Q1294.36 1554.34 1293.65 1554.34 Q1292.85 1554.34 1292.3 1553.86 Q1291.75 1553.38 1291.75 1552.54 Q1291.75 1552.41 1291.85 1551.93 Q1291.94 1551.44 1292.11 1550.77 Q1292.27 1550.09 1292.33 1549.71 L1296.16 1534.47 Q1296.87 1531.7 1297.03 1530.83 Q1297.23 1529.93 1297.23 1528.93 Q1297.23 1525.91 1295.16 1525.91 Q1293.49 1525.91 1292.4 1527.9 Q1291.3 1529.9 1290.37 1533.76 Q1290.08 1534.83 1289.88 1535.05 Q1289.72 1535.28 1289.24 1535.28 Q1288.43 1535.24 1288.43 1534.6 Q1288.43 1534.44 1288.69 1533.38 Q1288.95 1532.31 1289.43 1530.8 Q1289.95 1529.25 1290.43 1528.22 Q1290.85 1527.45 1291.07 1527.1 Q1291.33 1526.71 1291.94 1525.97 Q1292.59 1525.2 1293.43 1524.84 Q1294.3 1524.46 1295.36 1524.46 Q1297.74 1524.46 1299.48 1526 Q1301.22 1527.52 1301.44 1530.19 Q1305.73 1524.46 1311.72 1524.46 Q1315.26 1524.46 1317.29 1526.32 Q1319.32 1528.19 1319.32 1531.51 Q1319.32 1532.28 1319.16 1533.28 Q1319.03 1534.25 1318.71 1535.47 Q1318.42 1536.69 1318.16 1537.63 Q1317.9 1538.56 1317.39 1540.08 Q1316.87 1541.56 1316.65 1542.2 Q1316.42 1542.85 1315.87 1544.36 Q1315.36 1545.84 1315.29 1546 Q1314.1 1549 1314.1 1550.7 Q1314.1 1551.83 1314.46 1552.35 Q1314.84 1552.86 1315.68 1552.86 Q1317.93 1552.86 1319.61 1550.64 Q1321.32 1548.38 1322.41 1544.71 Q1322.67 1543.91 1322.8 1543.71 Q1322.96 1543.52 1323.41 1543.52 Q1324.18 1543.52 1324.18 1544.17 Z" fill="#000000" fill-rule="nonzero" fill-opacity="1" /><polyline clip-path="url(#clip452)" style="stroke:#000000; stroke-linecap:round; stroke-linejoin:round; stroke-width:2; stroke-opacity:0.1; fill:none" points="263.283,1384.24 2352.76,1384.24 "/>
<polyline clip-path="url(#clip452)" style="stroke:#000000; stroke-linecap:round; stroke-linejoin:round; stroke-width:2; stroke-opacity:0.1; fill:none" points="263.283,1126.48 2352.76,1126.48 "/>
<polyline clip-path="url(#clip452)" style="stroke:#000000; stroke-linecap:round; stroke-linejoin:round; stroke-width:2; stroke-opacity:0.1; fill:none" points="263.283,868.727 2352.76,868.727 "/>
<polyline clip-path="url(#clip452)" style="stroke:#000000; stroke-linecap:round; stroke-linejoin:round; stroke-width:2; stroke-opacity:0.1; fill:none" points="263.283,610.971 2352.76,610.971 "/>
<polyline clip-path="url(#clip452)" style="stroke:#000000; stroke-linecap:round; stroke-linejoin:round; stroke-width:2; stroke-opacity:0.1; fill:none" points="263.283,353.215 2352.76,353.215 "/>
<polyline clip-path="url(#clip452)" style="stroke:#000000; stroke-linecap:round; stroke-linejoin:round; stroke-width:2; stroke-opacity:0.1; fill:none" points="263.283,95.4593 2352.76,95.4593 "/>
<polyline clip-path="url(#clip450)" style="stroke:#000000; stroke-linecap:round; stroke-linejoin:round; stroke-width:4; stroke-opacity:1; fill:none" points="263.283,1423.18 263.283,47.2441 "/>
<polyline clip-path="url(#clip450)" style="stroke:#000000; stroke-linecap:round; stroke-linejoin:round; stroke-width:4; stroke-opacity:1; fill:none" points="263.283,1384.24 282.181,1384.24 "/>
<polyline clip-path="url(#clip450)" style="stroke:#000000; stroke-linecap:round; stroke-linejoin:round; stroke-width:4; stroke-opacity:1; fill:none" points="263.283,1126.48 282.181,1126.48 "/>
<polyline clip-path="url(#clip450)" style="stroke:#000000; stroke-linecap:round; stroke-linejoin:round; stroke-width:4; stroke-opacity:1; fill:none" points="263.283,868.727 282.181,868.727 "/>
<polyline clip-path="url(#clip450)" style="stroke:#000000; stroke-linecap:round; stroke-linejoin:round; stroke-width:4; stroke-opacity:1; fill:none" points="263.283,610.971 282.181,610.971 "/>
<polyline clip-path="url(#clip450)" style="stroke:#000000; stroke-linecap:round; stroke-linejoin:round; stroke-width:4; stroke-opacity:1; fill:none" points="263.283,353.215 282.181,353.215 "/>
<polyline clip-path="url(#clip450)" style="stroke:#000000; stroke-linecap:round; stroke-linejoin:round; stroke-width:4; stroke-opacity:1; fill:none" points="263.283,95.4593 282.181,95.4593 "/>
<path clip-path="url(#clip450)" d="M121.335 1384.69 L151.01 1384.69 L151.01 1388.62 L121.335 1388.62 L121.335 1384.69 Z" fill="#000000" fill-rule="nonzero" fill-opacity="1" /><path clip-path="url(#clip450)" d="M171.103 1370.04 Q167.492 1370.04 165.663 1373.6 Q163.857 1377.14 163.857 1384.27 Q163.857 1391.38 165.663 1394.94 Q167.492 1398.49 171.103 1398.49 Q174.737 1398.49 176.543 1394.94 Q178.371 1391.38 178.371 1384.27 Q178.371 1377.14 176.543 1373.6 Q174.737 1370.04 171.103 1370.04 M171.103 1366.33 Q176.913 1366.33 179.968 1370.94 Q183.047 1375.52 183.047 1384.27 Q183.047 1393 179.968 1397.61 Q176.913 1402.19 171.103 1402.19 Q165.293 1402.19 162.214 1397.61 Q159.158 1393 159.158 1384.27 Q159.158 1375.52 162.214 1370.94 Q165.293 1366.33 171.103 1366.33 Z" fill="#000000" fill-rule="nonzero" fill-opacity="1" /><path clip-path="url(#clip450)" d="M191.265 1395.64 L196.149 1395.64 L196.149 1401.52 L191.265 1401.52 L191.265 1395.64 Z" fill="#000000" fill-rule="nonzero" fill-opacity="1" /><path clip-path="url(#clip450)" d="M206.38 1366.96 L224.737 1366.96 L224.737 1370.89 L210.663 1370.89 L210.663 1379.37 Q211.681 1379.02 212.7 1378.86 Q213.718 1378.67 214.737 1378.67 Q220.524 1378.67 223.903 1381.84 Q227.283 1385.01 227.283 1390.43 Q227.283 1396.01 223.811 1399.11 Q220.339 1402.19 214.019 1402.19 Q211.843 1402.19 209.575 1401.82 Q207.329 1401.45 204.922 1400.71 L204.922 1396.01 Q207.005 1397.14 209.228 1397.7 Q211.45 1398.25 213.927 1398.25 Q217.931 1398.25 220.269 1396.15 Q222.607 1394.04 222.607 1390.43 Q222.607 1386.82 220.269 1384.71 Q217.931 1382.61 213.927 1382.61 Q212.052 1382.61 210.177 1383.02 Q208.325 1383.44 206.38 1384.32 L206.38 1366.96 Z" fill="#000000" fill-rule="nonzero" fill-opacity="1" /><path clip-path="url(#clip450)" d="M170.107 1112.28 Q166.496 1112.28 164.668 1115.85 Q162.862 1119.39 162.862 1126.52 Q162.862 1133.62 164.668 1137.19 Q166.496 1140.73 170.107 1140.73 Q173.742 1140.73 175.547 1137.19 Q177.376 1133.62 177.376 1126.52 Q177.376 1119.39 175.547 1115.85 Q173.742 1112.28 170.107 1112.28 M170.107 1108.58 Q175.918 1108.58 178.973 1113.18 Q182.052 1117.77 182.052 1126.52 Q182.052 1135.24 178.973 1139.85 Q175.918 1144.43 170.107 1144.43 Q164.297 1144.43 161.219 1139.85 Q158.163 1135.24 158.163 1126.52 Q158.163 1117.77 161.219 1113.18 Q164.297 1108.58 170.107 1108.58 Z" fill="#000000" fill-rule="nonzero" fill-opacity="1" /><path clip-path="url(#clip450)" d="M190.269 1137.88 L195.154 1137.88 L195.154 1143.76 L190.269 1143.76 L190.269 1137.88 Z" fill="#000000" fill-rule="nonzero" fill-opacity="1" /><path clip-path="url(#clip450)" d="M215.339 1112.28 Q211.728 1112.28 209.899 1115.85 Q208.093 1119.39 208.093 1126.52 Q208.093 1133.62 209.899 1137.19 Q211.728 1140.73 215.339 1140.73 Q218.973 1140.73 220.778 1137.19 Q222.607 1133.62 222.607 1126.52 Q222.607 1119.39 220.778 1115.85 Q218.973 1112.28 215.339 1112.28 M215.339 1108.58 Q221.149 1108.58 224.204 1113.18 Q227.283 1117.77 227.283 1126.52 Q227.283 1135.24 224.204 1139.85 Q221.149 1144.43 215.339 1144.43 Q209.529 1144.43 206.45 1139.85 Q203.394 1135.24 203.394 1126.52 Q203.394 1117.77 206.45 1113.18 Q209.529 1108.58 215.339 1108.58 Z" fill="#000000" fill-rule="nonzero" fill-opacity="1" /><path clip-path="url(#clip450)" d="M171.103 854.525 Q167.492 854.525 165.663 858.09 Q163.857 861.632 163.857 868.761 Q163.857 875.868 165.663 879.433 Q167.492 882.974 171.103 882.974 Q174.737 882.974 176.543 879.433 Q178.371 875.868 178.371 868.761 Q178.371 861.632 176.543 858.09 Q174.737 854.525 171.103 854.525 M171.103 850.822 Q176.913 850.822 179.968 855.428 Q183.047 860.011 183.047 868.761 Q183.047 877.488 179.968 882.095 Q176.913 886.678 171.103 886.678 Q165.293 886.678 162.214 882.095 Q159.158 877.488 159.158 868.761 Q159.158 860.011 162.214 855.428 Q165.293 850.822 171.103 850.822 Z" fill="#000000" fill-rule="nonzero" fill-opacity="1" /><path clip-path="url(#clip450)" d="M191.265 880.127 L196.149 880.127 L196.149 886.007 L191.265 886.007 L191.265 880.127 Z" fill="#000000" fill-rule="nonzero" fill-opacity="1" /><path clip-path="url(#clip450)" d="M206.38 851.447 L224.737 851.447 L224.737 855.382 L210.663 855.382 L210.663 863.854 Q211.681 863.507 212.7 863.345 Q213.718 863.16 214.737 863.16 Q220.524 863.16 223.903 866.331 Q227.283 869.502 227.283 874.919 Q227.283 880.497 223.811 883.599 Q220.339 886.678 214.019 886.678 Q211.843 886.678 209.575 886.308 Q207.329 885.937 204.922 885.197 L204.922 880.497 Q207.005 881.632 209.228 882.187 Q211.45 882.743 213.927 882.743 Q217.931 882.743 220.269 880.636 Q222.607 878.53 222.607 874.919 Q222.607 871.308 220.269 869.201 Q217.931 867.095 213.927 867.095 Q212.052 867.095 210.177 867.511 Q208.325 867.928 206.38 868.808 L206.38 851.447 Z" fill="#000000" fill-rule="nonzero" fill-opacity="1" /><path clip-path="url(#clip450)" d="M160.918 624.316 L168.557 624.316 L168.557 597.95 L160.246 599.617 L160.246 595.358 L168.51 593.691 L173.186 593.691 L173.186 624.316 L180.825 624.316 L180.825 628.251 L160.918 628.251 L160.918 624.316 Z" fill="#000000" fill-rule="nonzero" fill-opacity="1" /><path clip-path="url(#clip450)" d="M190.269 622.371 L195.154 622.371 L195.154 628.251 L190.269 628.251 L190.269 622.371 Z" fill="#000000" fill-rule="nonzero" fill-opacity="1" /><path clip-path="url(#clip450)" d="M215.339 596.77 Q211.728 596.77 209.899 600.334 Q208.093 603.876 208.093 611.006 Q208.093 618.112 209.899 621.677 Q211.728 625.219 215.339 625.219 Q218.973 625.219 220.778 621.677 Q222.607 618.112 222.607 611.006 Q222.607 603.876 220.778 600.334 Q218.973 596.77 215.339 596.77 M215.339 593.066 Q221.149 593.066 224.204 597.672 Q227.283 602.256 227.283 611.006 Q227.283 619.732 224.204 624.339 Q221.149 628.922 215.339 628.922 Q209.529 628.922 206.45 624.339 Q203.394 619.732 203.394 611.006 Q203.394 602.256 206.45 597.672 Q209.529 593.066 215.339 593.066 Z" fill="#000000" fill-rule="nonzero" fill-opacity="1" /><path clip-path="url(#clip450)" d="M161.913 366.56 L169.552 366.56 L169.552 340.194 L161.242 341.861 L161.242 337.602 L169.506 335.935 L174.181 335.935 L174.181 366.56 L181.82 366.56 L181.82 370.495 L161.913 370.495 L161.913 366.56 Z" fill="#000000" fill-rule="nonzero" fill-opacity="1" /><path clip-path="url(#clip450)" d="M191.265 364.616 L196.149 364.616 L196.149 370.495 L191.265 370.495 L191.265 364.616 Z" fill="#000000" fill-rule="nonzero" fill-opacity="1" /><path clip-path="url(#clip450)" d="M206.38 335.935 L224.737 335.935 L224.737 339.87 L210.663 339.87 L210.663 348.342 Q211.681 347.995 212.7 347.833 Q213.718 347.648 214.737 347.648 Q220.524 347.648 223.903 350.819 Q227.283 353.991 227.283 359.407 Q227.283 364.986 223.811 368.088 Q220.339 371.166 214.019 371.166 Q211.843 371.166 209.575 370.796 Q207.329 370.426 204.922 369.685 L204.922 364.986 Q207.005 366.12 209.228 366.676 Q211.45 367.231 213.927 367.231 Q217.931 367.231 220.269 365.125 Q222.607 363.018 222.607 359.407 Q222.607 355.796 220.269 353.69 Q217.931 351.583 213.927 351.583 Q212.052 351.583 210.177 352 Q208.325 352.417 206.38 353.296 L206.38 335.935 Z" fill="#000000" fill-rule="nonzero" fill-opacity="1" /><path clip-path="url(#clip450)" d="M164.135 108.804 L180.455 108.804 L180.455 112.739 L158.51 112.739 L158.51 108.804 Q161.172 106.05 165.756 101.42 Q170.362 96.7672 171.543 95.4246 Q173.788 92.9015 174.668 91.1654 Q175.57 89.4061 175.57 87.7163 Q175.57 84.9617 173.626 83.2256 Q171.705 81.4895 168.603 81.4895 Q166.404 81.4895 163.95 82.2534 Q161.52 83.0173 158.742 84.5682 L158.742 79.846 Q161.566 78.7117 164.019 78.133 Q166.473 77.5543 168.51 77.5543 Q173.881 77.5543 177.075 80.2395 Q180.269 82.9247 180.269 87.4154 Q180.269 89.545 179.459 91.4663 Q178.672 93.3644 176.566 95.957 Q175.987 96.6283 172.885 99.8459 Q169.783 103.04 164.135 108.804 Z" fill="#000000" fill-rule="nonzero" fill-opacity="1" /><path clip-path="url(#clip450)" d="M190.269 106.86 L195.154 106.86 L195.154 112.739 L190.269 112.739 L190.269 106.86 Z" fill="#000000" fill-rule="nonzero" fill-opacity="1" /><path clip-path="url(#clip450)" d="M215.339 81.258 Q211.728 81.258 209.899 84.8228 Q208.093 88.3645 208.093 95.494 Q208.093 102.6 209.899 106.165 Q211.728 109.707 215.339 109.707 Q218.973 109.707 220.778 106.165 Q222.607 102.6 222.607 95.494 Q222.607 88.3645 220.778 84.8228 Q218.973 81.258 215.339 81.258 M215.339 77.5543 Q221.149 77.5543 224.204 82.1608 Q227.283 86.7441 227.283 95.494 Q227.283 104.221 224.204 108.827 Q221.149 113.411 215.339 113.411 Q209.529 113.411 206.45 108.827 Q203.394 104.221 203.394 95.494 Q203.394 86.7441 206.45 82.1608 Q209.529 77.5543 215.339 77.5543 Z" fill="#000000" fill-rule="nonzero" fill-opacity="1" /><path clip-path="url(#clip450)" d="M11.8624 791.682 Q11.9075 791.682 11.9526 791.727 Q14.3423 792.02 15.6724 792.584 Q16.9799 793.147 17.5886 794.41 Q18.0395 795.334 18.0395 796.484 Q18.0395 798.22 16.8897 800.722 Q16.8446 800.812 16.6192 801.308 Q16.3938 801.804 16.3261 801.985 Q16.2585 802.165 16.1232 802.548 Q15.9654 802.932 15.9203 803.225 Q15.8753 803.518 15.8753 803.811 Q15.8753 804.442 16.1458 804.983 Q16.6868 806.088 17.4984 806.764 Q18.2875 807.463 19.7077 807.643 Q19.8881 807.688 20.0234 807.846 Q20.1586 808.004 20.1586 808.207 Q20.1586 808.41 20.0008 808.59 Q19.843 808.771 19.6176 808.771 Q19.5725 808.771 19.5274 808.725 Q17.1377 808.432 15.8302 807.869 Q14.5001 807.305 13.8914 806.043 Q13.4179 805.051 13.4179 803.969 Q13.4179 802.278 14.5902 799.708 Q14.6353 799.618 14.8608 799.122 Q15.0862 798.626 15.1538 798.445 Q15.2215 798.265 15.3793 797.882 Q15.5145 797.498 15.5596 797.205 Q15.6047 796.912 15.6047 796.619 Q15.6047 796.056 15.3116 795.47 Q14.7706 794.365 13.9815 793.666 Q13.1925 792.967 11.7722 792.787 Q11.5919 792.742 11.4566 792.584 Q11.2988 792.426 11.2988 792.223 Q11.2988 792.02 11.4792 791.84 Q11.637 791.682 11.8624 791.682 Z" fill="#000000" fill-rule="nonzero" fill-opacity="1" /><path clip-path="url(#clip450)" d="M31.5423 788.197 Q33.3136 788.197 34.4086 789.324 Q35.5036 790.419 35.5036 791.804 Q35.5036 792.802 34.8917 793.543 Q34.2798 794.251 33.217 794.251 Q32.122 794.251 30.9626 793.414 Q29.8031 792.577 29.6421 790.676 Q28.4505 791.932 28.4505 793.929 Q28.4505 794.928 29.0946 795.765 Q29.7065 796.57 30.7049 797.021 Q31.7355 797.504 37.5648 798.599 Q39.4649 798.953 41.3006 799.275 Q43.1364 799.597 45.0687 799.984 L45.0687 794.509 Q45.0687 793.8 45.1009 793.511 Q45.1331 793.221 45.2942 792.995 Q45.4552 792.738 45.8095 792.738 Q46.7112 792.738 46.9367 793.156 Q47.1299 793.543 47.1299 794.702 L47.1299 800.37 L68.0315 804.332 Q68.6434 804.428 70.5758 804.847 Q72.4759 805.233 75.5999 806.167 Q78.7561 807.101 80.624 808.035 Q81.6868 808.551 82.6852 809.227 Q83.7158 809.871 84.7463 810.805 Q85.7769 811.739 86.3888 812.963 Q87.033 814.187 87.033 815.475 Q87.033 817.665 85.8091 819.372 Q84.5853 821.079 82.4919 821.079 Q80.7206 821.079 79.6256 819.984 Q78.5306 818.857 78.5306 817.472 Q78.5306 816.473 79.1425 815.765 Q79.7544 815.024 80.8172 815.024 Q81.2681 815.024 81.7834 815.185 Q82.2987 815.346 82.8784 815.7 Q83.4903 816.055 83.909 816.828 Q84.3277 817.6 84.3921 818.663 Q85.5837 817.407 85.5837 815.475 Q85.5837 814.863 85.3261 814.315 Q85.1006 813.768 84.5209 813.317 Q83.9412 812.834 83.3615 812.48 Q82.814 812.125 81.7512 811.771 Q80.7206 811.417 79.9477 811.192 Q79.1747 810.966 77.7899 810.676 Q76.405 810.354 75.5677 810.193 Q74.7625 810.032 73.1844 809.742 L47.1299 804.815 L47.1299 809.163 Q47.1299 809.935 47.0977 810.258 Q47.0655 810.547 46.9045 810.773 Q46.7112 810.998 46.3248 810.998 Q45.7128 810.998 45.4552 810.741 Q45.1653 810.451 45.1331 810.129 Q45.0687 809.807 45.0687 809.034 L45.0687 804.461 Q36.9206 802.915 34.7306 802.303 Q32.4118 801.594 30.8015 800.499 Q29.159 799.404 28.3861 798.18 Q27.6131 796.957 27.3233 795.958 Q27.0012 794.928 27.0012 793.929 Q27.0012 791.675 28.2251 789.936 Q29.4167 788.197 31.5423 788.197 Z" fill="#000000" fill-rule="nonzero" fill-opacity="1" /><path clip-path="url(#clip450)" d="M29.7065 783.001 Q28.064 783.001 27.3877 782.002 Q26.6792 781.004 26.6792 779.941 Q26.6792 778.621 27.4843 777.783 Q28.2573 776.914 29.7065 776.914 Q30.3506 776.914 30.7049 776.978 L50.6081 779.168 L50.6081 780.682 L30.7049 782.936 Q30.3506 783.001 29.7065 783.001 Z" fill="#000000" fill-rule="nonzero" fill-opacity="1" /><path clip-path="url(#clip450)" d="M57.0171 764.85 Q45.8739 764.85 36.8884 760.696 Q33.1204 758.924 29.9642 756.445 Q26.808 753.965 25.4232 752.322 Q24.0383 750.68 24.0383 750.229 Q24.0383 749.585 24.6824 749.553 Q25.0045 749.553 25.8096 750.422 Q36.6308 761.05 57.0171 761.018 Q77.4678 761.018 87.8703 750.68 Q88.9975 749.553 89.3518 749.553 Q89.9959 749.553 89.9959 750.229 Q89.9959 750.68 88.6755 752.258 Q87.355 753.836 84.3277 756.284 Q81.3003 758.731 77.5966 760.503 Q68.6112 764.85 57.0171 764.85 Z" fill="#000000" fill-rule="nonzero" fill-opacity="1" /><path clip-path="url(#clip450)" d="M48.708 706.673 Q50.5115 706.673 51.5421 707.8 Q52.5405 708.927 52.5405 710.216 Q52.5405 711.439 51.832 712.084 Q51.1234 712.728 50.2217 712.728 Q48.9978 712.728 47.935 711.826 Q46.8723 710.924 46.6468 709.571 Q45.8095 710.892 45.8095 712.856 Q45.8095 714.145 46.4858 715.272 Q47.1621 716.367 48.0317 717.043 Q48.9012 717.687 50.1573 718.267 Q51.3811 718.815 52.1218 719.04 Q52.8303 719.233 53.6033 719.394 L62.6209 721.649 Q66.9043 722.744 68.418 722.744 Q70.2859 722.744 71.5419 721.842 Q72.7658 720.94 72.7658 719.137 Q72.7658 718.428 72.5725 717.623 Q72.3471 716.818 71.7674 715.787 Q71.1555 714.724 70.2537 713.79 Q69.3197 712.824 67.7417 711.89 Q66.1636 710.956 64.1346 710.344 Q63.4261 710.151 63.4261 709.507 Q63.4261 708.702 64.0702 708.702 Q64.6177 708.702 65.7771 709.153 Q66.9043 709.571 68.3858 710.505 Q69.835 711.407 71.1555 712.599 Q72.4437 713.79 73.3455 715.562 Q74.2472 717.333 74.2472 719.265 Q74.2472 722.035 72.7658 723.871 Q71.2843 725.707 69.2231 726.383 Q69.513 726.544 69.8994 726.769 Q70.2859 726.995 71.1555 727.671 Q71.9928 728.315 72.6369 729.056 Q73.2489 729.797 73.7319 730.956 Q74.2472 732.083 74.2472 733.307 Q74.2472 734.853 73.7964 736.238 Q73.3455 737.591 72.3149 738.557 Q71.2843 739.523 69.8672 739.523 Q68.2892 739.523 67.1942 738.46 Q66.0669 737.365 66.0669 735.884 Q66.0669 734.95 66.6144 734.209 Q67.1619 733.436 68.3536 733.436 Q69.674 733.436 70.6724 734.338 Q71.6708 735.24 71.9284 736.528 Q72.7658 735.207 72.7658 733.243 Q72.7658 731.117 70.8978 729.442 Q69.0299 727.768 65.9059 726.963 Q58.402 724.966 55.0525 724.193 Q51.6709 723.42 50.2217 723.42 Q48.869 723.42 47.935 723.774 Q47.0011 724.129 46.5824 724.74 Q46.1315 725.32 45.9705 725.868 Q45.8095 726.383 45.8095 726.963 Q45.8095 727.929 46.1959 729.024 Q46.5824 730.087 47.4842 731.375 Q48.3537 732.631 50.1573 733.822 Q51.9608 735.014 54.4406 735.819 Q55.1814 735.98 55.1814 736.689 Q55.1492 737.462 54.505 737.462 Q53.9575 737.462 52.8303 737.043 Q51.6709 736.592 50.2217 735.69 Q48.7724 734.756 47.4842 733.565 Q46.1637 732.341 45.262 730.57 Q44.3602 728.766 44.3602 726.834 Q44.3602 725.964 44.5534 725.127 Q44.7145 724.257 45.1975 723.227 Q45.6806 722.164 46.7434 721.23 Q47.8062 720.296 49.3521 719.716 Q48.6114 719.33 47.9028 718.815 Q47.1943 718.267 46.3248 717.43 Q45.423 716.56 44.9077 715.369 Q44.3602 714.145 44.3602 712.792 Q44.3602 711.472 44.7145 710.183 Q45.0365 708.895 46.0993 707.8 Q47.1299 706.673 48.708 706.673 Z" fill="#000000" fill-rule="nonzero" fill-opacity="1" /><path clip-path="url(#clip450)" d="M77.7511 699.952 Q70.9653 699.952 67.268 698.238 Q61.7673 695.849 61.7673 690.213 Q61.7673 689.018 62.1054 687.778 Q62.4211 686.515 63.661 684.937 Q64.9009 683.337 66.9299 682.367 Q70.8526 680.519 77.7511 680.519 Q84.4917 680.519 88.1664 682.232 Q93.5319 684.734 93.5319 690.258 Q93.5319 692.332 92.4724 694.451 Q91.4128 696.548 88.8653 697.878 Q85.0553 699.952 77.7511 699.952 M77.1874 696.119 Q84.1536 696.119 86.9265 695.623 Q89.9249 695.06 91.2324 693.527 Q92.5174 691.971 92.5174 690.258 Q92.5174 688.409 91.1422 686.876 Q89.7445 685.321 86.7461 684.847 Q83.7929 684.329 77.1874 684.351 Q70.7624 684.351 68.1924 684.802 Q65.194 685.411 63.9991 687.034 Q62.7818 688.635 62.7818 690.258 Q62.7818 690.866 62.9621 691.52 Q63.1425 692.151 63.661 693.076 Q64.1795 694 65.4645 694.721 Q66.7495 695.42 68.6883 695.758 Q71.1907 696.119 77.1874 696.119 Z" fill="#000000" fill-rule="nonzero" fill-opacity="1" /><path clip-path="url(#clip450)" d="M89.3518 673.673 Q89.0297 673.673 88.2246 672.835 Q77.4034 662.207 57.0171 662.207 Q36.5664 662.207 26.2283 672.417 Q25.0367 673.673 24.6824 673.673 Q24.0383 673.673 24.0383 673.029 Q24.0383 672.578 25.3587 671 Q26.6792 669.389 29.7065 666.974 Q32.7339 664.526 36.4376 662.723 Q45.423 658.375 57.0171 658.375 Q68.1603 658.375 77.1458 662.529 Q80.9138 664.301 84.07 666.781 Q87.2262 669.26 88.6111 670.903 Q89.9959 672.545 89.9959 673.029 Q89.9959 673.673 89.3518 673.673 Z" fill="#000000" fill-rule="nonzero" fill-opacity="1" /><circle clip-path="url(#clip452)" cx="322.419" cy="86.1857" r="14.4" fill="#009af9" fill-rule="evenodd" fill-opacity="1" stroke="#000000" stroke-opacity="1" stroke-width="3.2"/>
<circle clip-path="url(#clip452)" cx="358.923" cy="162.248" r="14.4" fill="#009af9" fill-rule="evenodd" fill-opacity="1" stroke="#000000" stroke-opacity="1" stroke-width="3.2"/>
<circle clip-path="url(#clip452)" cx="395.427" cy="555.405" r="14.4" fill="#009af9" fill-rule="evenodd" fill-opacity="1" stroke="#000000" stroke-opacity="1" stroke-width="3.2"/>
<circle clip-path="url(#clip452)" cx="431.93" cy="805.194" r="14.4" fill="#009af9" fill-rule="evenodd" fill-opacity="1" stroke="#000000" stroke-opacity="1" stroke-width="3.2"/>
<circle clip-path="url(#clip452)" cx="468.434" cy="935.537" r="14.4" fill="#009af9" fill-rule="evenodd" fill-opacity="1" stroke="#000000" stroke-opacity="1" stroke-width="3.2"/>
<circle clip-path="url(#clip452)" cx="504.938" cy="1000.98" r="14.4" fill="#009af9" fill-rule="evenodd" fill-opacity="1" stroke="#000000" stroke-opacity="1" stroke-width="3.2"/>
<circle clip-path="url(#clip452)" cx="541.441" cy="1033.64" r="14.4" fill="#009af9" fill-rule="evenodd" fill-opacity="1" stroke="#000000" stroke-opacity="1" stroke-width="3.2"/>
<circle clip-path="url(#clip452)" cx="577.945" cy="1049.93" r="14.4" fill="#009af9" fill-rule="evenodd" fill-opacity="1" stroke="#000000" stroke-opacity="1" stroke-width="3.2"/>
<circle clip-path="url(#clip452)" cx="614.449" cy="1058.07" r="14.4" fill="#009af9" fill-rule="evenodd" fill-opacity="1" stroke="#000000" stroke-opacity="1" stroke-width="3.2"/>
<circle clip-path="url(#clip452)" cx="650.953" cy="1062.13" r="14.4" fill="#009af9" fill-rule="evenodd" fill-opacity="1" stroke="#000000" stroke-opacity="1" stroke-width="3.2"/>
<circle clip-path="url(#clip452)" cx="687.456" cy="1064.17" r="14.4" fill="#009af9" fill-rule="evenodd" fill-opacity="1" stroke="#000000" stroke-opacity="1" stroke-width="3.2"/>
<circle clip-path="url(#clip452)" cx="723.96" cy="1065.18" r="14.4" fill="#009af9" fill-rule="evenodd" fill-opacity="1" stroke="#000000" stroke-opacity="1" stroke-width="3.2"/>
<circle clip-path="url(#clip452)" cx="760.464" cy="1065.69" r="14.4" fill="#009af9" fill-rule="evenodd" fill-opacity="1" stroke="#000000" stroke-opacity="1" stroke-width="3.2"/>
<circle clip-path="url(#clip452)" cx="796.967" cy="1065.94" r="14.4" fill="#009af9" fill-rule="evenodd" fill-opacity="1" stroke="#000000" stroke-opacity="1" stroke-width="3.2"/>
<circle clip-path="url(#clip452)" cx="833.471" cy="1066.07" r="14.4" fill="#009af9" fill-rule="evenodd" fill-opacity="1" stroke="#000000" stroke-opacity="1" stroke-width="3.2"/>
<circle clip-path="url(#clip452)" cx="869.975" cy="1066.13" r="14.4" fill="#009af9" fill-rule="evenodd" fill-opacity="1" stroke="#000000" stroke-opacity="1" stroke-width="3.2"/>
<circle clip-path="url(#clip452)" cx="906.479" cy="1066.17" r="14.4" fill="#009af9" fill-rule="evenodd" fill-opacity="1" stroke="#000000" stroke-opacity="1" stroke-width="3.2"/>
<circle clip-path="url(#clip452)" cx="942.982" cy="1066.18" r="14.4" fill="#009af9" fill-rule="evenodd" fill-opacity="1" stroke="#000000" stroke-opacity="1" stroke-width="3.2"/>
<circle clip-path="url(#clip452)" cx="979.486" cy="1066.19" r="14.4" fill="#009af9" fill-rule="evenodd" fill-opacity="1" stroke="#000000" stroke-opacity="1" stroke-width="3.2"/>
<circle clip-path="url(#clip452)" cx="1015.99" cy="1066.19" r="14.4" fill="#009af9" fill-rule="evenodd" fill-opacity="1" stroke="#000000" stroke-opacity="1" stroke-width="3.2"/>
<circle clip-path="url(#clip452)" cx="1052.49" cy="1066.2" r="14.4" fill="#009af9" fill-rule="evenodd" fill-opacity="1" stroke="#000000" stroke-opacity="1" stroke-width="3.2"/>
<circle clip-path="url(#clip452)" cx="1089" cy="1066.2" r="14.4" fill="#009af9" fill-rule="evenodd" fill-opacity="1" stroke="#000000" stroke-opacity="1" stroke-width="3.2"/>
<circle clip-path="url(#clip452)" cx="1125.5" cy="1066.2" r="14.4" fill="#009af9" fill-rule="evenodd" fill-opacity="1" stroke="#000000" stroke-opacity="1" stroke-width="3.2"/>
<circle clip-path="url(#clip452)" cx="1162" cy="1066.2" r="14.4" fill="#009af9" fill-rule="evenodd" fill-opacity="1" stroke="#000000" stroke-opacity="1" stroke-width="3.2"/>
<circle clip-path="url(#clip452)" cx="1198.51" cy="1066.2" r="14.4" fill="#009af9" fill-rule="evenodd" fill-opacity="1" stroke="#000000" stroke-opacity="1" stroke-width="3.2"/>
<circle clip-path="url(#clip452)" cx="1235.01" cy="1066.2" r="14.4" fill="#009af9" fill-rule="evenodd" fill-opacity="1" stroke="#000000" stroke-opacity="1" stroke-width="3.2"/>
<circle clip-path="url(#clip452)" cx="1271.52" cy="1066.2" r="14.4" fill="#009af9" fill-rule="evenodd" fill-opacity="1" stroke="#000000" stroke-opacity="1" stroke-width="3.2"/>
<circle clip-path="url(#clip452)" cx="1308.02" cy="1066.2" r="14.4" fill="#009af9" fill-rule="evenodd" fill-opacity="1" stroke="#000000" stroke-opacity="1" stroke-width="3.2"/>
<circle clip-path="url(#clip452)" cx="1344.52" cy="1066.2" r="14.4" fill="#009af9" fill-rule="evenodd" fill-opacity="1" stroke="#000000" stroke-opacity="1" stroke-width="3.2"/>
<circle clip-path="url(#clip452)" cx="1381.03" cy="1066.2" r="14.4" fill="#009af9" fill-rule="evenodd" fill-opacity="1" stroke="#000000" stroke-opacity="1" stroke-width="3.2"/>
<circle clip-path="url(#clip452)" cx="1417.53" cy="1066.2" r="14.4" fill="#009af9" fill-rule="evenodd" fill-opacity="1" stroke="#000000" stroke-opacity="1" stroke-width="3.2"/>
<circle clip-path="url(#clip452)" cx="1454.03" cy="1066.2" r="14.4" fill="#009af9" fill-rule="evenodd" fill-opacity="1" stroke="#000000" stroke-opacity="1" stroke-width="3.2"/>
<circle clip-path="url(#clip452)" cx="1490.54" cy="1066.2" r="14.4" fill="#009af9" fill-rule="evenodd" fill-opacity="1" stroke="#000000" stroke-opacity="1" stroke-width="3.2"/>
<circle clip-path="url(#clip452)" cx="1527.04" cy="1066.2" r="14.4" fill="#009af9" fill-rule="evenodd" fill-opacity="1" stroke="#000000" stroke-opacity="1" stroke-width="3.2"/>
<circle clip-path="url(#clip452)" cx="1563.55" cy="1066.2" r="14.4" fill="#009af9" fill-rule="evenodd" fill-opacity="1" stroke="#000000" stroke-opacity="1" stroke-width="3.2"/>
<circle clip-path="url(#clip452)" cx="1600.05" cy="1066.2" r="14.4" fill="#009af9" fill-rule="evenodd" fill-opacity="1" stroke="#000000" stroke-opacity="1" stroke-width="3.2"/>
<circle clip-path="url(#clip452)" cx="1636.55" cy="1066.2" r="14.4" fill="#009af9" fill-rule="evenodd" fill-opacity="1" stroke="#000000" stroke-opacity="1" stroke-width="3.2"/>
<circle clip-path="url(#clip452)" cx="1673.06" cy="1066.2" r="14.4" fill="#009af9" fill-rule="evenodd" fill-opacity="1" stroke="#000000" stroke-opacity="1" stroke-width="3.2"/>
<circle clip-path="url(#clip452)" cx="1709.56" cy="1066.2" r="14.4" fill="#009af9" fill-rule="evenodd" fill-opacity="1" stroke="#000000" stroke-opacity="1" stroke-width="3.2"/>
<circle clip-path="url(#clip452)" cx="1746.06" cy="1066.23" r="14.4" fill="#009af9" fill-rule="evenodd" fill-opacity="1" stroke="#000000" stroke-opacity="1" stroke-width="3.2"/>
<circle clip-path="url(#clip452)" cx="1782.57" cy="1066.26" r="14.4" fill="#009af9" fill-rule="evenodd" fill-opacity="1" stroke="#000000" stroke-opacity="1" stroke-width="3.2"/>
<circle clip-path="url(#clip452)" cx="1819.07" cy="1066.2" r="14.4" fill="#009af9" fill-rule="evenodd" fill-opacity="1" stroke="#000000" stroke-opacity="1" stroke-width="3.2"/>
<circle clip-path="url(#clip452)" cx="1855.58" cy="1066.32" r="14.4" fill="#009af9" fill-rule="evenodd" fill-opacity="1" stroke="#000000" stroke-opacity="1" stroke-width="3.2"/>
<circle clip-path="url(#clip452)" cx="1892.08" cy="1066.57" r="14.4" fill="#009af9" fill-rule="evenodd" fill-opacity="1" stroke="#000000" stroke-opacity="1" stroke-width="3.2"/>
<circle clip-path="url(#clip452)" cx="1928.58" cy="1066.07" r="14.4" fill="#009af9" fill-rule="evenodd" fill-opacity="1" stroke="#000000" stroke-opacity="1" stroke-width="3.2"/>
<circle clip-path="url(#clip452)" cx="1965.09" cy="1068.08" r="14.4" fill="#009af9" fill-rule="evenodd" fill-opacity="1" stroke="#000000" stroke-opacity="1" stroke-width="3.2"/>
<circle clip-path="url(#clip452)" cx="2001.59" cy="1070.1" r="14.4" fill="#009af9" fill-rule="evenodd" fill-opacity="1" stroke="#000000" stroke-opacity="1" stroke-width="3.2"/>
<circle clip-path="url(#clip452)" cx="2038.09" cy="1070.1" r="14.4" fill="#009af9" fill-rule="evenodd" fill-opacity="1" stroke="#000000" stroke-opacity="1" stroke-width="3.2"/>
<circle clip-path="url(#clip452)" cx="2074.6" cy="1078.15" r="14.4" fill="#009af9" fill-rule="evenodd" fill-opacity="1" stroke="#000000" stroke-opacity="1" stroke-width="3.2"/>
<circle clip-path="url(#clip452)" cx="2111.1" cy="1062.04" r="14.4" fill="#009af9" fill-rule="evenodd" fill-opacity="1" stroke="#000000" stroke-opacity="1" stroke-width="3.2"/>
<circle clip-path="url(#clip452)" cx="2147.61" cy="1126.48" r="14.4" fill="#009af9" fill-rule="evenodd" fill-opacity="1" stroke="#000000" stroke-opacity="1" stroke-width="3.2"/>
<circle clip-path="url(#clip452)" cx="2184.11" cy="1126.48" r="14.4" fill="#009af9" fill-rule="evenodd" fill-opacity="1" stroke="#000000" stroke-opacity="1" stroke-width="3.2"/>
<circle clip-path="url(#clip452)" cx="2220.61" cy="1384.24" r="14.4" fill="#009af9" fill-rule="evenodd" fill-opacity="1" stroke="#000000" stroke-opacity="1" stroke-width="3.2"/>
<circle clip-path="url(#clip452)" cx="2257.12" cy="1126.48" r="14.4" fill="#009af9" fill-rule="evenodd" fill-opacity="1" stroke="#000000" stroke-opacity="1" stroke-width="3.2"/>
<circle clip-path="url(#clip452)" cx="2293.62" cy="1126.48" r="14.4" fill="#009af9" fill-rule="evenodd" fill-opacity="1" stroke="#000000" stroke-opacity="1" stroke-width="3.2"/>
</svg>
