<?xml version="1.0" encoding="utf-8"?>
<svg xmlns="http://www.w3.org/2000/svg" xmlns:xlink="http://www.w3.org/1999/xlink" width="600" height="400" viewBox="0 0 2400 1600">
<defs>
  <clipPath id="clip490">
    <rect x="0" y="0" width="2400" height="1600"/>
  </clipPath>
</defs>
<path clip-path="url(#clip490)" d="M0 1600 L2400 1600 L2400 0 L0 0  Z" fill="#ffffff" fill-rule="evenodd" fill-opacity="1"/>
<defs>
  <clipPath id="clip491">
    <rect x="480" y="0" width="1681" height="1600"/>
  </clipPath>
</defs>
<path clip-path="url(#clip490)" d="M258.635 1423.18 L2352.76 1423.18 L2352.76 47.2441 L258.635 47.2441  Z" fill="#ffffff" fill-rule="evenodd" fill-opacity="1"/>
<defs>
  <clipPath id="clip492">
    <rect x="258" y="47" width="2095" height="1377"/>
  </clipPath>
</defs>
<polyline clip-path="url(#clip492)" style="stroke:#000000; stroke-linecap:round; stroke-linejoin:round; stroke-width:2; stroke-opacity:0.1; fill:none" points="317.902,1423.18 317.902,47.2441 "/>
<polyline clip-path="url(#clip492)" style="stroke:#000000; stroke-linecap:round; stroke-linejoin:round; stroke-width:2; stroke-opacity:0.1; fill:none" points="683.751,1423.18 683.751,47.2441 "/>
<polyline clip-path="url(#clip492)" style="stroke:#000000; stroke-linecap:round; stroke-linejoin:round; stroke-width:2; stroke-opacity:0.1; fill:none" points="1049.6,1423.18 1049.6,47.2441 "/>
<polyline clip-path="url(#clip492)" style="stroke:#000000; stroke-linecap:round; stroke-linejoin:round; stroke-width:2; stroke-opacity:0.1; fill:none" points="1415.45,1423.18 1415.45,47.2441 "/>
<polyline clip-path="url(#clip492)" style="stroke:#000000; stroke-linecap:round; stroke-linejoin:round; stroke-width:2; stroke-opacity:0.1; fill:none" points="1781.3,1423.18 1781.3,47.2441 "/>
<polyline clip-path="url(#clip492)" style="stroke:#000000; stroke-linecap:round; stroke-linejoin:round; stroke-width:2; stroke-opacity:0.1; fill:none" points="2147.15,1423.18 2147.15,47.2441 "/>
<polyline clip-path="url(#clip490)" style="stroke:#000000; stroke-linecap:round; stroke-linejoin:round; stroke-width:4; stroke-opacity:1; fill:none" points="258.635,1423.18 2352.76,1423.18 "/>
<polyline clip-path="url(#clip490)" style="stroke:#000000; stroke-linecap:round; stroke-linejoin:round; stroke-width:4; stroke-opacity:1; fill:none" points="317.902,1423.18 317.902,1404.28 "/>
<polyline clip-path="url(#clip490)" style="stroke:#000000; stroke-linecap:round; stroke-linejoin:round; stroke-width:4; stroke-opacity:1; fill:none" points="683.751,1423.18 683.751,1404.28 "/>
<polyline clip-path="url(#clip490)" style="stroke:#000000; stroke-linecap:round; stroke-linejoin:round; stroke-width:4; stroke-opacity:1; fill:none" points="1049.6,1423.18 1049.6,1404.28 "/>
<polyline clip-path="url(#clip490)" style="stroke:#000000; stroke-linecap:round; stroke-linejoin:round; stroke-width:4; stroke-opacity:1; fill:none" points="1415.45,1423.18 1415.45,1404.28 "/>
<polyline clip-path="url(#clip490)" style="stroke:#000000; stroke-linecap:round; stroke-linejoin:round; stroke-width:4; stroke-opacity:1; fill:none" points="1781.3,1423.18 1781.3,1404.28 "/>
<polyline clip-path="url(#clip490)" style="stroke:#000000; stroke-linecap:round; stroke-linejoin:round; stroke-width:4; stroke-opacity:1; fill:none" points="2147.15,1423.18 2147.15,1404.28 "/>
<path clip-path="url(#clip490)" d="M317.902 1454.1 Q314.291 1454.1 312.462 1457.66 Q310.657 1461.2 310.657 1468.33 Q310.657 1475.44 312.462 1479.01 Q314.291 1482.55 317.902 1482.55 Q321.536 1482.55 323.342 1479.01 Q325.171 1475.44 325.171 1468.33 Q325.171 1461.2 323.342 1457.66 Q321.536 1454.1 317.902 1454.1 M317.902 1450.39 Q323.712 1450.39 326.768 1455 Q329.847 1459.58 329.847 1468.33 Q329.847 1477.06 326.768 1481.67 Q323.712 1486.25 317.902 1486.25 Q312.092 1486.25 309.013 1481.67 Q305.958 1477.06 305.958 1468.33 Q305.958 1459.58 309.013 1455 Q312.092 1450.39 317.902 1450.39 Z" fill="#000000" fill-rule="nonzero" fill-opacity="1" /><path clip-path="url(#clip490)" d="M658.439 1481.64 L666.078 1481.64 L666.078 1455.28 L657.768 1456.95 L657.768 1452.69 L666.032 1451.02 L670.708 1451.02 L670.708 1481.64 L678.346 1481.64 L678.346 1485.58 L658.439 1485.58 L658.439 1481.64 Z" fill="#000000" fill-rule="nonzero" fill-opacity="1" /><path clip-path="url(#clip490)" d="M697.791 1454.1 Q694.18 1454.1 692.351 1457.66 Q690.545 1461.2 690.545 1468.33 Q690.545 1475.44 692.351 1479.01 Q694.18 1482.55 697.791 1482.55 Q701.425 1482.55 703.231 1479.01 Q705.059 1475.44 705.059 1468.33 Q705.059 1461.2 703.231 1457.66 Q701.425 1454.1 697.791 1454.1 M697.791 1450.39 Q703.601 1450.39 706.656 1455 Q709.735 1459.58 709.735 1468.33 Q709.735 1477.06 706.656 1481.67 Q703.601 1486.25 697.791 1486.25 Q691.981 1486.25 688.902 1481.67 Q685.846 1477.06 685.846 1468.33 Q685.846 1459.58 688.902 1455 Q691.981 1450.39 697.791 1450.39 Z" fill="#000000" fill-rule="nonzero" fill-opacity="1" /><path clip-path="url(#clip490)" d="M1028.37 1481.64 L1044.69 1481.64 L1044.69 1485.58 L1022.75 1485.58 L1022.75 1481.64 Q1025.41 1478.89 1029.99 1474.26 Q1034.6 1469.61 1035.78 1468.27 Q1038.03 1465.74 1038.91 1464.01 Q1039.81 1462.25 1039.81 1460.56 Q1039.81 1457.8 1037.86 1456.07 Q1035.94 1454.33 1032.84 1454.33 Q1030.64 1454.33 1028.19 1455.09 Q1025.76 1455.86 1022.98 1457.41 L1022.98 1452.69 Q1025.8 1451.55 1028.26 1450.97 Q1030.71 1450.39 1032.75 1450.39 Q1038.12 1450.39 1041.31 1453.08 Q1044.51 1455.77 1044.51 1460.26 Q1044.51 1462.39 1043.7 1464.31 Q1042.91 1466.2 1040.8 1468.8 Q1040.23 1469.47 1037.12 1472.69 Q1034.02 1475.88 1028.37 1481.64 Z" fill="#000000" fill-rule="nonzero" fill-opacity="1" /><path clip-path="url(#clip490)" d="M1064.51 1454.1 Q1060.9 1454.1 1059.07 1457.66 Q1057.26 1461.2 1057.26 1468.33 Q1057.26 1475.44 1059.07 1479.01 Q1060.9 1482.55 1064.51 1482.55 Q1068.14 1482.55 1069.95 1479.01 Q1071.78 1475.44 1071.78 1468.33 Q1071.78 1461.2 1069.95 1457.66 Q1068.14 1454.1 1064.51 1454.1 M1064.51 1450.39 Q1070.32 1450.39 1073.37 1455 Q1076.45 1459.58 1076.45 1468.33 Q1076.45 1477.06 1073.37 1481.67 Q1070.32 1486.25 1064.51 1486.25 Q1058.7 1486.25 1055.62 1481.67 Q1052.56 1477.06 1052.56 1468.33 Q1052.56 1459.58 1055.62 1455 Q1058.7 1450.39 1064.51 1450.39 Z" fill="#000000" fill-rule="nonzero" fill-opacity="1" /><path clip-path="url(#clip490)" d="M1404.29 1466.95 Q1407.65 1467.66 1409.52 1469.93 Q1411.42 1472.2 1411.42 1475.53 Q1411.42 1480.65 1407.9 1483.45 Q1404.39 1486.25 1397.9 1486.25 Q1395.73 1486.25 1393.41 1485.81 Q1391.12 1485.39 1388.67 1484.54 L1388.67 1480.02 Q1390.61 1481.16 1392.93 1481.74 Q1395.24 1482.32 1397.76 1482.32 Q1402.16 1482.32 1404.45 1480.58 Q1406.77 1478.84 1406.77 1475.53 Q1406.77 1472.48 1404.62 1470.77 Q1402.49 1469.03 1398.67 1469.03 L1394.64 1469.03 L1394.64 1465.19 L1398.85 1465.19 Q1402.3 1465.19 1404.13 1463.82 Q1405.96 1462.43 1405.96 1459.84 Q1405.96 1457.18 1404.06 1455.77 Q1402.19 1454.33 1398.67 1454.33 Q1396.75 1454.33 1394.55 1454.75 Q1392.35 1455.16 1389.71 1456.04 L1389.71 1451.88 Q1392.37 1451.14 1394.69 1450.77 Q1397.02 1450.39 1399.08 1450.39 Q1404.41 1450.39 1407.51 1452.83 Q1410.61 1455.23 1410.61 1459.35 Q1410.61 1462.22 1408.97 1464.21 Q1407.33 1466.18 1404.29 1466.95 Z" fill="#000000" fill-rule="nonzero" fill-opacity="1" /><path clip-path="url(#clip490)" d="M1430.29 1454.1 Q1426.68 1454.1 1424.85 1457.66 Q1423.04 1461.2 1423.04 1468.33 Q1423.04 1475.44 1424.85 1479.01 Q1426.68 1482.55 1430.29 1482.55 Q1433.92 1482.55 1435.73 1479.01 Q1437.56 1475.44 1437.56 1468.33 Q1437.56 1461.2 1435.73 1457.66 Q1433.92 1454.1 1430.29 1454.1 M1430.29 1450.39 Q1436.1 1450.39 1439.15 1455 Q1442.23 1459.58 1442.23 1468.33 Q1442.23 1477.06 1439.15 1481.67 Q1436.1 1486.25 1430.29 1486.25 Q1424.48 1486.25 1421.4 1481.67 Q1418.34 1477.06 1418.34 1468.33 Q1418.34 1459.58 1421.4 1455 Q1424.48 1450.39 1430.29 1450.39 Z" fill="#000000" fill-rule="nonzero" fill-opacity="1" /><path clip-path="url(#clip490)" d="M1769.47 1455.09 L1757.67 1473.54 L1769.47 1473.54 L1769.47 1455.09 M1768.24 1451.02 L1774.12 1451.02 L1774.12 1473.54 L1779.05 1473.54 L1779.05 1477.43 L1774.12 1477.43 L1774.12 1485.58 L1769.47 1485.58 L1769.47 1477.43 L1753.87 1477.43 L1753.87 1472.92 L1768.24 1451.02 Z" fill="#000000" fill-rule="nonzero" fill-opacity="1" /><path clip-path="url(#clip490)" d="M1796.79 1454.1 Q1793.17 1454.1 1791.35 1457.66 Q1789.54 1461.2 1789.54 1468.33 Q1789.54 1475.44 1791.35 1479.01 Q1793.17 1482.55 1796.79 1482.55 Q1800.42 1482.55 1802.23 1479.01 Q1804.05 1475.44 1804.05 1468.33 Q1804.05 1461.2 1802.23 1457.66 Q1800.42 1454.1 1796.79 1454.1 M1796.79 1450.39 Q1802.6 1450.39 1805.65 1455 Q1808.73 1459.58 1808.73 1468.33 Q1808.73 1477.06 1805.65 1481.67 Q1802.6 1486.25 1796.79 1486.25 Q1790.98 1486.25 1787.9 1481.67 Q1784.84 1477.06 1784.84 1468.33 Q1784.84 1459.58 1787.9 1455 Q1790.98 1450.39 1796.79 1450.39 Z" fill="#000000" fill-rule="nonzero" fill-opacity="1" /><path clip-path="url(#clip490)" d="M2121.85 1451.02 L2140.2 1451.02 L2140.2 1454.96 L2126.13 1454.96 L2126.13 1463.43 Q2127.15 1463.08 2128.17 1462.92 Q2129.19 1462.73 2130.2 1462.73 Q2135.99 1462.73 2139.37 1465.9 Q2142.75 1469.08 2142.75 1474.49 Q2142.75 1480.07 2139.28 1483.17 Q2135.81 1486.25 2129.49 1486.25 Q2127.31 1486.25 2125.04 1485.88 Q2122.8 1485.51 2120.39 1484.77 L2120.39 1480.07 Q2122.47 1481.2 2124.7 1481.76 Q2126.92 1482.32 2129.39 1482.32 Q2133.4 1482.32 2135.74 1480.21 Q2138.07 1478.1 2138.07 1474.49 Q2138.07 1470.88 2135.74 1468.77 Q2133.4 1466.67 2129.39 1466.67 Q2127.52 1466.67 2125.64 1467.08 Q2123.79 1467.5 2121.85 1468.38 L2121.85 1451.02 Z" fill="#000000" fill-rule="nonzero" fill-opacity="1" /><path clip-path="url(#clip490)" d="M2161.96 1454.1 Q2158.35 1454.1 2156.52 1457.66 Q2154.72 1461.2 2154.72 1468.33 Q2154.72 1475.44 2156.52 1479.01 Q2158.35 1482.55 2161.96 1482.55 Q2165.6 1482.55 2167.4 1479.01 Q2169.23 1475.44 2169.23 1468.33 Q2169.23 1461.2 2167.4 1457.66 Q2165.6 1454.1 2161.96 1454.1 M2161.96 1450.39 Q2167.77 1450.39 2170.83 1455 Q2173.91 1459.58 2173.91 1468.33 Q2173.91 1477.06 2170.83 1481.67 Q2167.77 1486.25 2161.96 1486.25 Q2156.15 1486.25 2153.07 1481.67 Q2150.02 1477.06 2150.02 1468.33 Q2150.02 1459.58 2153.07 1455 Q2156.15 1450.39 2161.96 1450.39 Z" fill="#000000" fill-rule="nonzero" fill-opacity="1" /><path clip-path="url(#clip490)" d="M1321.86 1544.17 Q1321.86 1544.42 1321.57 1545.42 Q1321.28 1546.42 1320.57 1547.97 Q1319.89 1549.51 1318.96 1550.93 Q1318.03 1552.31 1316.48 1553.34 Q1314.97 1554.34 1313.23 1554.34 Q1310.91 1554.34 1309.36 1552.8 Q1307.82 1551.25 1307.82 1548.93 Q1307.82 1547.64 1308.49 1545.87 Q1312.78 1534.44 1312.78 1530.51 Q1312.78 1525.91 1309.2 1525.91 Q1307.43 1525.91 1305.76 1526.58 Q1304.11 1527.23 1302.99 1528.13 Q1301.86 1529.03 1300.83 1530.29 Q1299.83 1531.51 1299.31 1532.35 Q1298.83 1533.15 1298.44 1533.96 L1297.61 1537.24 Q1297.41 1538.14 1296.48 1541.65 L1295.03 1547.61 Q1294 1552.06 1293.77 1552.47 Q1293.45 1553.38 1292.74 1553.86 Q1292.04 1554.34 1291.33 1554.34 Q1290.52 1554.34 1289.97 1553.86 Q1289.43 1553.38 1289.43 1552.54 Q1289.43 1552.41 1289.52 1551.93 Q1289.62 1551.44 1289.78 1550.77 Q1289.94 1550.09 1290.01 1549.71 L1293.84 1534.47 Q1294.55 1531.7 1294.71 1530.83 Q1294.9 1529.93 1294.9 1528.93 Q1294.9 1525.91 1292.84 1525.91 Q1291.17 1525.91 1290.07 1527.9 Q1288.98 1529.9 1288.04 1533.76 Q1287.75 1534.83 1287.56 1535.05 Q1287.4 1535.28 1286.91 1535.28 Q1286.11 1535.24 1286.11 1534.6 Q1286.11 1534.44 1286.37 1533.38 Q1286.62 1532.31 1287.11 1530.8 Q1287.62 1529.25 1288.11 1528.22 Q1288.53 1527.45 1288.75 1527.1 Q1289.01 1526.71 1289.62 1525.97 Q1290.26 1525.2 1291.1 1524.84 Q1291.97 1524.46 1293.03 1524.46 Q1295.42 1524.46 1297.16 1526 Q1298.9 1527.52 1299.12 1530.19 Q1303.4 1524.46 1309.39 1524.46 Q1312.94 1524.46 1314.97 1526.32 Q1317 1528.19 1317 1531.51 Q1317 1532.28 1316.83 1533.28 Q1316.71 1534.25 1316.38 1535.47 Q1316.09 1536.69 1315.84 1537.63 Q1315.58 1538.56 1315.06 1540.08 Q1314.55 1541.56 1314.32 1542.2 Q1314.1 1542.85 1313.55 1544.36 Q1313.03 1545.84 1312.97 1546 Q1311.78 1549 1311.78 1550.7 Q1311.78 1551.83 1312.13 1552.35 Q1312.52 1552.86 1313.36 1552.86 Q1315.61 1552.86 1317.28 1550.64 Q1318.99 1548.38 1320.09 1544.71 Q1320.34 1543.91 1320.47 1543.71 Q1320.63 1543.52 1321.09 1543.52 Q1321.86 1543.52 1321.86 1544.17 Z" fill="#000000" fill-rule="nonzero" fill-opacity="1" /><polyline clip-path="url(#clip492)" style="stroke:#000000; stroke-linecap:round; stroke-linejoin:round; stroke-width:2; stroke-opacity:0.1; fill:none" points="258.635,883.21 2352.76,883.21 "/>
<polyline clip-path="url(#clip492)" style="stroke:#000000; stroke-linecap:round; stroke-linejoin:round; stroke-width:2; stroke-opacity:0.1; fill:none" points="258.635,128.308 2352.76,128.308 "/>
<polyline clip-path="url(#clip490)" style="stroke:#000000; stroke-linecap:round; stroke-linejoin:round; stroke-width:4; stroke-opacity:1; fill:none" points="258.635,1423.18 258.635,47.2441 "/>
<polyline clip-path="url(#clip490)" style="stroke:#000000; stroke-linecap:round; stroke-linejoin:round; stroke-width:4; stroke-opacity:1; fill:none" points="258.635,883.21 277.532,883.21 "/>
<polyline clip-path="url(#clip490)" style="stroke:#000000; stroke-linecap:round; stroke-linejoin:round; stroke-width:4; stroke-opacity:1; fill:none" points="258.635,128.308 277.532,128.308 "/>
<path clip-path="url(#clip490)" d="M122.006 903.002 L129.645 903.002 L129.645 876.637 L121.335 878.303 L121.335 874.044 L129.598 872.377 L134.274 872.377 L134.274 903.002 L141.913 903.002 L141.913 906.937 L122.006 906.937 L122.006 903.002 Z" fill="#000000" fill-rule="nonzero" fill-opacity="1" /><path clip-path="url(#clip490)" d="M161.357 875.456 Q157.746 875.456 155.918 879.021 Q154.112 882.563 154.112 889.692 Q154.112 896.799 155.918 900.363 Q157.746 903.905 161.357 903.905 Q164.992 903.905 166.797 900.363 Q168.626 896.799 168.626 889.692 Q168.626 882.563 166.797 879.021 Q164.992 875.456 161.357 875.456 M161.357 871.752 Q167.168 871.752 170.223 876.359 Q173.302 880.942 173.302 889.692 Q173.302 898.419 170.223 903.025 Q167.168 907.609 161.357 907.609 Q155.547 907.609 152.469 903.025 Q149.413 898.419 149.413 889.692 Q149.413 880.942 152.469 876.359 Q155.547 871.752 161.357 871.752 Z" fill="#000000" fill-rule="nonzero" fill-opacity="1" /><path clip-path="url(#clip490)" d="M173.302 865.854 L197.413 865.854 L197.413 869.051 L173.302 869.051 L173.302 865.854 Z" fill="#000000" fill-rule="nonzero" fill-opacity="1" /><path clip-path="url(#clip490)" d="M205.651 851.447 L220.566 851.447 L220.566 854.644 L209.131 854.644 L209.131 861.528 Q209.958 861.246 210.786 861.114 Q211.613 860.964 212.441 860.964 Q217.143 860.964 219.889 863.54 Q222.635 866.117 222.635 870.518 Q222.635 875.051 219.813 877.571 Q216.992 880.073 211.858 880.073 Q210.09 880.073 208.247 879.772 Q206.422 879.471 204.466 878.869 L204.466 875.051 Q206.159 875.972 207.965 876.424 Q209.77 876.875 211.783 876.875 Q215.036 876.875 216.936 875.164 Q218.835 873.452 218.835 870.518 Q218.835 867.584 216.936 865.873 Q215.036 864.161 211.783 864.161 Q210.259 864.161 208.736 864.5 Q207.231 864.838 205.651 865.553 L205.651 851.447 Z" fill="#000000" fill-rule="nonzero" fill-opacity="1" /><path clip-path="url(#clip490)" d="M151.929 148.101 L159.568 148.101 L159.568 121.735 L151.258 123.402 L151.258 119.142 L159.522 117.476 L164.197 117.476 L164.197 148.101 L171.836 148.101 L171.836 152.036 L151.929 152.036 L151.929 148.101 Z" fill="#000000" fill-rule="nonzero" fill-opacity="1" /><path clip-path="url(#clip490)" d="M191.281 120.554 Q187.67 120.554 185.841 124.119 Q184.035 127.661 184.035 134.79 Q184.035 141.897 185.841 145.462 Q187.67 149.003 191.281 149.003 Q194.915 149.003 196.72 145.462 Q198.549 141.897 198.549 134.79 Q198.549 127.661 196.72 124.119 Q194.915 120.554 191.281 120.554 M191.281 116.851 Q197.091 116.851 200.146 121.457 Q203.225 126.04 203.225 134.79 Q203.225 143.517 200.146 148.124 Q197.091 152.707 191.281 152.707 Q185.47 152.707 182.392 148.124 Q179.336 143.517 179.336 134.79 Q179.336 126.04 182.392 121.457 Q185.47 116.851 191.281 116.851 Z" fill="#000000" fill-rule="nonzero" fill-opacity="1" /><path clip-path="url(#clip490)" d="M212.93 99.0467 Q209.996 99.0467 208.51 101.943 Q207.043 104.821 207.043 110.614 Q207.043 116.388 208.51 119.284 Q209.996 122.161 212.93 122.161 Q215.883 122.161 217.35 119.284 Q218.835 116.388 218.835 110.614 Q218.835 104.821 217.35 101.943 Q215.883 99.0467 212.93 99.0467 M212.93 96.0375 Q217.651 96.0375 220.133 99.7802 Q222.635 103.504 222.635 110.614 Q222.635 117.704 220.133 121.447 Q217.651 125.171 212.93 125.171 Q208.209 125.171 205.708 121.447 Q203.225 117.704 203.225 110.614 Q203.225 103.504 205.708 99.7802 Q208.209 96.0375 212.93 96.0375 Z" fill="#000000" fill-rule="nonzero" fill-opacity="1" /><path clip-path="url(#clip490)" d="M87.9669 973.541 L26.5504 973.541 Q24.1027 973.541 24.1027 972.221 Q24.1027 970.9 26.0673 970.9 L87.4838 970.9 Q89.9315 970.9 89.9315 972.221 Q89.9315 973.541 87.9669 973.541 Z" fill="#000000" fill-rule="nonzero" fill-opacity="1" /><path clip-path="url(#clip490)" d="M31.5423 927.954 Q33.3136 927.954 34.4086 929.081 Q35.5036 930.176 35.5036 931.561 Q35.5036 932.559 34.8917 933.3 Q34.2798 934.008 33.217 934.008 Q32.122 934.008 30.9626 933.171 Q29.8031 932.334 29.6421 930.434 Q28.4505 931.69 28.4505 933.686 Q28.4505 934.685 29.0946 935.522 Q29.7065 936.327 30.7049 936.778 Q31.7355 937.261 37.5648 938.356 Q39.4649 938.71 41.3006 939.033 Q43.1364 939.355 45.0687 939.741 L45.0687 934.266 Q45.0687 933.558 45.1009 933.268 Q45.1331 932.978 45.2942 932.752 Q45.4552 932.495 45.8095 932.495 Q46.7112 932.495 46.9367 932.913 Q47.1299 933.3 47.1299 934.459 L47.1299 940.128 L68.0315 944.089 Q68.6434 944.185 70.5758 944.604 Q72.4759 944.991 75.5999 945.925 Q78.7561 946.859 80.624 947.793 Q81.6868 948.308 82.6852 948.984 Q83.7158 949.628 84.7463 950.562 Q85.7769 951.496 86.3888 952.72 Q87.033 953.944 87.033 955.232 Q87.033 957.422 85.8091 959.129 Q84.5853 960.836 82.4919 960.836 Q80.7206 960.836 79.6256 959.741 Q78.5306 958.614 78.5306 957.229 Q78.5306 956.23 79.1425 955.522 Q79.7544 954.781 80.8172 954.781 Q81.2681 954.781 81.7834 954.942 Q82.2987 955.103 82.8784 955.458 Q83.4903 955.812 83.909 956.585 Q84.3277 957.358 84.3921 958.42 Q85.5837 957.164 85.5837 955.232 Q85.5837 954.62 85.3261 954.073 Q85.1006 953.525 84.5209 953.074 Q83.9412 952.591 83.3615 952.237 Q82.814 951.883 81.7512 951.528 Q80.7206 951.174 79.9477 950.949 Q79.1747 950.723 77.7899 950.433 Q76.405 950.111 75.5677 949.95 Q74.7625 949.789 73.1844 949.499 L47.1299 944.572 L47.1299 948.92 Q47.1299 949.693 47.0977 950.015 Q47.0655 950.305 46.9045 950.53 Q46.7112 950.755 46.3248 950.755 Q45.7128 950.755 45.4552 950.498 Q45.1653 950.208 45.1331 949.886 Q45.0687 949.564 45.0687 948.791 L45.0687 944.218 Q36.9206 942.672 34.7306 942.06 Q32.4118 941.351 30.8015 940.256 Q29.159 939.161 28.3861 937.938 Q27.6131 936.714 27.3233 935.715 Q27.0012 934.685 27.0012 933.686 Q27.0012 931.432 28.2251 929.693 Q29.4167 927.954 31.5423 927.954 Z" fill="#000000" fill-rule="nonzero" fill-opacity="1" /><path clip-path="url(#clip490)" d="M29.7065 923.612 Q28.064 923.612 27.3877 922.614 Q26.6792 921.616 26.6792 920.553 Q26.6792 919.232 27.4843 918.395 Q28.2573 917.526 29.7065 917.526 Q30.3506 917.526 30.7049 917.59 L50.6081 919.78 L50.6081 921.294 L30.7049 923.548 Q30.3506 923.612 29.7065 923.612 Z" fill="#000000" fill-rule="nonzero" fill-opacity="1" /><path clip-path="url(#clip490)" d="M57.0171 905.462 Q45.8739 905.462 36.8884 901.308 Q33.1204 899.536 29.9642 897.056 Q26.808 894.577 25.4232 892.934 Q24.0383 891.292 24.0383 890.841 Q24.0383 890.197 24.6824 890.164 Q25.0045 890.164 25.8096 891.034 Q36.6308 901.662 57.0171 901.63 Q77.4678 901.63 87.8703 891.292 Q88.9975 890.164 89.3518 890.164 Q89.9959 890.164 89.9959 890.841 Q89.9959 891.292 88.6755 892.87 Q87.355 894.448 84.3277 896.895 Q81.3003 899.343 77.5966 901.114 Q68.6112 905.462 57.0171 905.462 Z" fill="#000000" fill-rule="nonzero" fill-opacity="1" /><path clip-path="url(#clip490)" d="M48.708 847.285 Q50.5115 847.285 51.5421 848.412 Q52.5405 849.539 52.5405 850.827 Q52.5405 852.051 51.832 852.695 Q51.1234 853.339 50.2217 853.339 Q48.9978 853.339 47.935 852.438 Q46.8723 851.536 46.6468 850.183 Q45.8095 851.504 45.8095 853.468 Q45.8095 854.757 46.4858 855.884 Q47.1621 856.979 48.0317 857.655 Q48.9012 858.299 50.1573 858.879 Q51.3811 859.426 52.1218 859.652 Q52.8303 859.845 53.6033 860.006 L62.6209 862.261 Q66.9043 863.356 68.418 863.356 Q70.2859 863.356 71.5419 862.454 Q72.7658 861.552 72.7658 859.748 Q72.7658 859.04 72.5725 858.235 Q72.3471 857.43 71.7674 856.399 Q71.1555 855.336 70.2537 854.402 Q69.3197 853.436 67.7417 852.502 Q66.1636 851.568 64.1346 850.956 Q63.4261 850.763 63.4261 850.119 Q63.4261 849.314 64.0702 849.314 Q64.6177 849.314 65.7771 849.765 Q66.9043 850.183 68.3858 851.117 Q69.835 852.019 71.1555 853.211 Q72.4437 854.402 73.3455 856.174 Q74.2472 857.945 74.2472 859.877 Q74.2472 862.647 72.7658 864.483 Q71.2843 866.318 69.2231 866.995 Q69.513 867.156 69.8994 867.381 Q70.2859 867.607 71.1555 868.283 Q71.9928 868.927 72.6369 869.668 Q73.2489 870.409 73.7319 871.568 Q74.2472 872.695 74.2472 873.919 Q74.2472 875.465 73.7964 876.85 Q73.3455 878.202 72.3149 879.169 Q71.2843 880.135 69.8672 880.135 Q68.2892 880.135 67.1942 879.072 Q66.0669 877.977 66.0669 876.496 Q66.0669 875.562 66.6144 874.821 Q67.1619 874.048 68.3536 874.048 Q69.674 874.048 70.6724 874.95 Q71.6708 875.851 71.9284 877.14 Q72.7658 875.819 72.7658 873.855 Q72.7658 871.729 70.8978 870.054 Q69.0299 868.38 65.9059 867.574 Q58.402 865.578 55.0525 864.805 Q51.6709 864.032 50.2217 864.032 Q48.869 864.032 47.935 864.386 Q47.0011 864.74 46.5824 865.352 Q46.1315 865.932 45.9705 866.479 Q45.8095 866.995 45.8095 867.574 Q45.8095 868.541 46.1959 869.636 Q46.5824 870.698 47.4842 871.987 Q48.3537 873.243 50.1573 874.434 Q51.9608 875.626 54.4406 876.431 Q55.1814 876.592 55.1814 877.301 Q55.1492 878.074 54.505 878.074 Q53.9575 878.074 52.8303 877.655 Q51.6709 877.204 50.2217 876.302 Q48.7724 875.368 47.4842 874.177 Q46.1637 872.953 45.262 871.182 Q44.3602 869.378 44.3602 867.446 Q44.3602 866.576 44.5534 865.739 Q44.7145 864.869 45.1975 863.839 Q45.6806 862.776 46.7434 861.842 Q47.8062 860.908 49.3521 860.328 Q48.6114 859.942 47.9028 859.426 Q47.1943 858.879 46.3248 858.042 Q45.423 857.172 44.9077 855.98 Q44.3602 854.757 44.3602 853.404 Q44.3602 852.083 44.7145 850.795 Q45.0365 849.507 46.0993 848.412 Q47.1299 847.285 48.708 847.285 Z" fill="#000000" fill-rule="nonzero" fill-opacity="1" /><path clip-path="url(#clip490)" d="M77.7511 840.564 Q70.9653 840.564 67.268 838.85 Q61.7673 836.46 61.7673 830.824 Q61.7673 829.63 62.1054 828.39 Q62.4211 827.127 63.661 825.549 Q64.9009 823.949 66.9299 822.979 Q70.8526 821.131 77.7511 821.131 Q84.4917 821.131 88.1664 822.844 Q93.5319 825.346 93.5319 830.87 Q93.5319 832.944 92.4724 835.063 Q91.4128 837.159 88.8653 838.489 Q85.0553 840.564 77.7511 840.564 M77.1874 836.731 Q84.1536 836.731 86.9265 836.235 Q89.9249 835.671 91.2324 834.138 Q92.5174 832.583 92.5174 830.87 Q92.5174 829.021 91.1422 827.488 Q89.7445 825.932 86.7461 825.459 Q83.7929 824.94 77.1874 824.963 Q70.7624 824.963 68.1924 825.414 Q65.194 826.023 63.9991 827.646 Q62.7818 829.246 62.7818 830.87 Q62.7818 831.478 62.9621 832.132 Q63.1425 832.763 63.661 833.688 Q64.1795 834.612 65.4645 835.333 Q66.7495 836.032 68.6883 836.37 Q71.1907 836.731 77.1874 836.731 Z" fill="#000000" fill-rule="nonzero" fill-opacity="1" /><path clip-path="url(#clip490)" d="M89.3518 814.284 Q89.0297 814.284 88.2246 813.447 Q77.4034 802.819 57.0171 802.819 Q36.5664 802.819 26.2283 813.028 Q25.0367 814.284 24.6824 814.284 Q24.0383 814.284 24.0383 813.64 Q24.0383 813.189 25.3587 811.611 Q26.6792 810.001 29.7065 807.586 Q32.7339 805.138 36.4376 803.334 Q45.423 798.987 57.0171 798.987 Q68.1603 798.987 77.1458 803.141 Q80.9138 804.913 84.07 807.392 Q87.2262 809.872 88.6111 811.515 Q89.9959 813.157 89.9959 813.64 Q89.9959 814.284 89.3518 814.284 Z" fill="#000000" fill-rule="nonzero" fill-opacity="1" /><path clip-path="url(#clip490)" d="M56.0831 727.112 Q56.4696 726.726 57.0171 726.726 Q57.5646 726.726 57.9511 727.112 Q58.3375 727.499 58.3375 728.046 L58.3375 769.334 Q58.3375 769.882 57.9511 770.268 Q57.5646 770.654 57.0171 770.654 Q56.4696 770.654 56.0831 770.268 Q55.6967 769.882 55.6967 769.334 L55.6967 728.046 Q55.6967 727.499 56.0831 727.112 Z" fill="#000000" fill-rule="nonzero" fill-opacity="1" /><path clip-path="url(#clip490)" d="M11.8624 671.141 Q11.9075 671.141 11.9526 671.186 Q14.3423 671.479 15.6724 672.043 Q16.9799 672.606 17.5886 673.869 Q18.0395 674.793 18.0395 675.943 Q18.0395 677.679 16.8897 680.181 Q16.8446 680.271 16.6192 680.767 Q16.3938 681.263 16.3261 681.444 Q16.2585 681.624 16.1232 682.007 Q15.9654 682.39 15.9203 682.683 Q15.8753 682.977 15.8753 683.27 Q15.8753 683.901 16.1458 684.442 Q16.6868 685.547 17.4984 686.223 Q18.2875 686.922 19.7077 687.102 Q19.8881 687.147 20.0234 687.305 Q20.1586 687.463 20.1586 687.666 Q20.1586 687.869 20.0008 688.049 Q19.843 688.229 19.6176 688.229 Q19.5725 688.229 19.5274 688.184 Q17.1377 687.891 15.8302 687.328 Q14.5001 686.764 13.8914 685.501 Q13.4179 684.51 13.4179 683.427 Q13.4179 681.737 14.5902 679.167 Q14.6353 679.076 14.8608 678.58 Q15.0862 678.084 15.1538 677.904 Q15.2215 677.724 15.3793 677.341 Q15.5145 676.957 15.5596 676.664 Q15.6047 676.371 15.6047 676.078 Q15.6047 675.514 15.3116 674.928 Q14.7706 673.824 13.9815 673.125 Q13.1925 672.426 11.7722 672.246 Q11.5919 672.2 11.4566 672.043 Q11.2988 671.885 11.2988 671.682 Q11.2988 671.479 11.4792 671.299 Q11.637 671.141 11.8624 671.141 Z" fill="#000000" fill-rule="nonzero" fill-opacity="1" /><path clip-path="url(#clip490)" d="M31.5423 667.655 Q33.3136 667.655 34.4086 668.783 Q35.5036 669.878 35.5036 671.262 Q35.5036 672.261 34.8917 673.002 Q34.2798 673.71 33.217 673.71 Q32.122 673.71 30.9626 672.873 Q29.8031 672.035 29.6421 670.135 Q28.4505 671.391 28.4505 673.388 Q28.4505 674.386 29.0946 675.224 Q29.7065 676.029 30.7049 676.48 Q31.7355 676.963 37.5648 678.058 Q39.4649 678.412 41.3006 678.734 Q43.1364 679.056 45.0687 679.443 L45.0687 673.968 Q45.0687 673.259 45.1009 672.969 Q45.1331 672.679 45.2942 672.454 Q45.4552 672.196 45.8095 672.196 Q46.7112 672.196 46.9367 672.615 Q47.1299 673.002 47.1299 674.161 L47.1299 679.829 L68.0315 683.79 Q68.6434 683.887 70.5758 684.306 Q72.4759 684.692 75.5999 685.626 Q78.7561 686.56 80.624 687.494 Q81.6868 688.009 82.6852 688.686 Q83.7158 689.33 84.7463 690.264 Q85.7769 691.198 86.3888 692.422 Q87.033 693.645 87.033 694.934 Q87.033 697.124 85.8091 698.831 Q84.5853 700.538 82.4919 700.538 Q80.7206 700.538 79.6256 699.443 Q78.5306 698.315 78.5306 696.93 Q78.5306 695.932 79.1425 695.224 Q79.7544 694.483 80.8172 694.483 Q81.2681 694.483 81.7834 694.644 Q82.2987 694.805 82.8784 695.159 Q83.4903 695.513 83.909 696.286 Q84.3277 697.059 84.3921 698.122 Q85.5837 696.866 85.5837 694.934 Q85.5837 694.322 85.3261 693.774 Q85.1006 693.227 84.5209 692.776 Q83.9412 692.293 83.3615 691.939 Q82.814 691.584 81.7512 691.23 Q80.7206 690.876 79.9477 690.65 Q79.1747 690.425 77.7899 690.135 Q76.405 689.813 75.5677 689.652 Q74.7625 689.491 73.1844 689.201 L47.1299 684.274 L47.1299 688.621 Q47.1299 689.394 47.0977 689.716 Q47.0655 690.006 46.9045 690.232 Q46.7112 690.457 46.3248 690.457 Q45.7128 690.457 45.4552 690.199 Q45.1653 689.91 45.1331 689.588 Q45.0687 689.265 45.0687 688.493 L45.0687 683.919 Q36.9206 682.373 34.7306 681.762 Q32.4118 681.053 30.8015 679.958 Q29.159 678.863 28.3861 677.639 Q27.6131 676.415 27.3233 675.417 Q27.0012 674.386 27.0012 673.388 Q27.0012 671.134 28.2251 669.394 Q29.4167 667.655 31.5423 667.655 Z" fill="#000000" fill-rule="nonzero" fill-opacity="1" /><path clip-path="url(#clip490)" d="M29.7065 662.459 Q28.064 662.459 27.3877 661.461 Q26.6792 660.463 26.6792 659.4 Q26.6792 658.079 27.4843 657.242 Q28.2573 656.372 29.7065 656.372 Q30.3506 656.372 30.7049 656.437 L50.6081 658.627 L50.6081 660.141 L30.7049 662.395 Q30.3506 662.459 29.7065 662.459 Z" fill="#000000" fill-rule="nonzero" fill-opacity="1" /><path clip-path="url(#clip490)" d="M57.0171 644.309 Q45.8739 644.309 36.8884 640.155 Q33.1204 638.383 29.9642 635.903 Q26.808 633.424 25.4232 631.781 Q24.0383 630.139 24.0383 629.688 Q24.0383 629.044 24.6824 629.011 Q25.0045 629.011 25.8096 629.881 Q36.6308 640.509 57.0171 640.477 Q77.4678 640.477 87.8703 630.139 Q88.9975 629.011 89.3518 629.011 Q89.9959 629.011 89.9959 629.688 Q89.9959 630.139 88.6755 631.717 Q87.355 633.295 84.3277 635.742 Q81.3003 638.19 77.5966 639.961 Q68.6112 644.309 57.0171 644.309 Z" fill="#000000" fill-rule="nonzero" fill-opacity="1" /><path clip-path="url(#clip490)" d="M48.708 586.132 Q50.5115 586.132 51.5421 587.259 Q52.5405 588.386 52.5405 589.674 Q52.5405 590.898 51.832 591.542 Q51.1234 592.186 50.2217 592.186 Q48.9978 592.186 47.935 591.285 Q46.8723 590.383 46.6468 589.03 Q45.8095 590.351 45.8095 592.315 Q45.8095 593.604 46.4858 594.731 Q47.1621 595.826 48.0317 596.502 Q48.9012 597.146 50.1573 597.726 Q51.3811 598.273 52.1218 598.499 Q52.8303 598.692 53.6033 598.853 L62.6209 601.107 Q66.9043 602.202 68.418 602.202 Q70.2859 602.202 71.5419 601.301 Q72.7658 600.399 72.7658 598.595 Q72.7658 597.887 72.5725 597.082 Q72.3471 596.277 71.7674 595.246 Q71.1555 594.183 70.2537 593.249 Q69.3197 592.283 67.7417 591.349 Q66.1636 590.415 64.1346 589.803 Q63.4261 589.61 63.4261 588.966 Q63.4261 588.161 64.0702 588.161 Q64.6177 588.161 65.7771 588.612 Q66.9043 589.03 68.3858 589.964 Q69.835 590.866 71.1555 592.058 Q72.4437 593.249 73.3455 595.021 Q74.2472 596.792 74.2472 598.724 Q74.2472 601.494 72.7658 603.33 Q71.2843 605.165 69.2231 605.842 Q69.513 606.003 69.8994 606.228 Q70.2859 606.454 71.1555 607.13 Q71.9928 607.774 72.6369 608.515 Q73.2489 609.256 73.7319 610.415 Q74.2472 611.542 74.2472 612.766 Q74.2472 614.312 73.7964 615.697 Q73.3455 617.049 72.3149 618.016 Q71.2843 618.982 69.8672 618.982 Q68.2892 618.982 67.1942 617.919 Q66.0669 616.824 66.0669 615.342 Q66.0669 614.409 66.6144 613.668 Q67.1619 612.895 68.3536 612.895 Q69.674 612.895 70.6724 613.797 Q71.6708 614.698 71.9284 615.987 Q72.7658 614.666 72.7658 612.702 Q72.7658 610.576 70.8978 608.901 Q69.0299 607.227 65.9059 606.421 Q58.402 604.425 55.0525 603.652 Q51.6709 602.879 50.2217 602.879 Q48.869 602.879 47.935 603.233 Q47.0011 603.587 46.5824 604.199 Q46.1315 604.779 45.9705 605.326 Q45.8095 605.842 45.8095 606.421 Q45.8095 607.388 46.1959 608.483 Q46.5824 609.545 47.4842 610.834 Q48.3537 612.09 50.1573 613.281 Q51.9608 614.473 54.4406 615.278 Q55.1814 615.439 55.1814 616.148 Q55.1492 616.921 54.505 616.921 Q53.9575 616.921 52.8303 616.502 Q51.6709 616.051 50.2217 615.149 Q48.7724 614.215 47.4842 613.024 Q46.1637 611.8 45.262 610.029 Q44.3602 608.225 44.3602 606.293 Q44.3602 605.423 44.5534 604.586 Q44.7145 603.716 45.1975 602.686 Q45.6806 601.623 46.7434 600.689 Q47.8062 599.755 49.3521 599.175 Q48.6114 598.789 47.9028 598.273 Q47.1943 597.726 46.3248 596.889 Q45.423 596.019 44.9077 594.827 Q44.3602 593.604 44.3602 592.251 Q44.3602 590.93 44.7145 589.642 Q45.0365 588.354 46.0993 587.259 Q47.1299 586.132 48.708 586.132 Z" fill="#000000" fill-rule="nonzero" fill-opacity="1" /><path clip-path="url(#clip490)" d="M77.7511 579.41 Q70.9653 579.41 67.268 577.697 Q61.7673 575.307 61.7673 569.671 Q61.7673 568.477 62.1054 567.237 Q62.4211 565.974 63.661 564.396 Q64.9009 562.795 66.9299 561.826 Q70.8526 559.977 77.7511 559.977 Q84.4917 559.977 88.1664 561.691 Q93.5319 564.193 93.5319 569.717 Q93.5319 571.791 92.4724 573.91 Q91.4128 576.006 88.8653 577.336 Q85.0553 579.41 77.7511 579.41 M77.1874 575.578 Q84.1536 575.578 86.9265 575.082 Q89.9249 574.518 91.2324 572.985 Q92.5174 571.43 92.5174 569.717 Q92.5174 567.868 91.1422 566.335 Q89.7445 564.779 86.7461 564.306 Q83.7929 563.787 77.1874 563.81 Q70.7624 563.81 68.1924 564.261 Q65.194 564.87 63.9991 566.493 Q62.7818 568.093 62.7818 569.717 Q62.7818 570.325 62.9621 570.979 Q63.1425 571.61 63.661 572.535 Q64.1795 573.459 65.4645 574.18 Q66.7495 574.879 68.6883 575.217 Q71.1907 575.578 77.1874 575.578 Z" fill="#000000" fill-rule="nonzero" fill-opacity="1" /><path clip-path="url(#clip490)" d="M89.3518 553.131 Q89.0297 553.131 88.2246 552.294 Q77.4034 541.666 57.0171 541.666 Q36.5664 541.666 26.2283 551.875 Q25.0367 553.131 24.6824 553.131 Q24.0383 553.131 24.0383 552.487 Q24.0383 552.036 25.3587 550.458 Q26.6792 548.848 29.7065 546.433 Q32.7339 543.985 36.4376 542.181 Q45.423 537.834 57.0171 537.834 Q68.1603 537.834 77.1458 541.988 Q80.9138 543.76 84.07 546.239 Q87.2262 548.719 88.6111 550.362 Q89.9959 552.004 89.9959 552.487 Q89.9959 553.131 89.3518 553.131 Z" fill="#000000" fill-rule="nonzero" fill-opacity="1" /><path clip-path="url(#clip490)" d="M87.9669 524.108 L26.5504 524.108 Q24.1027 524.108 24.1027 522.788 Q24.1027 521.467 26.0673 521.467 L87.4838 521.467 Q89.9315 521.467 89.9315 522.788 Q89.9315 524.108 87.9669 524.108 Z" fill="#000000" fill-rule="nonzero" fill-opacity="1" /><circle clip-path="url(#clip492)" cx="317.902" cy="86.1857" r="14.4" fill="#009af9" fill-rule="evenodd" fill-opacity="1" stroke="#000000" stroke-opacity="1" stroke-width="3.2"/>
<circle clip-path="url(#clip492)" cx="354.487" cy="91.4832" r="14.4" fill="#009af9" fill-rule="evenodd" fill-opacity="1" stroke="#000000" stroke-opacity="1" stroke-width="3.2"/>
<circle clip-path="url(#clip492)" cx="391.072" cy="128.911" r="14.4" fill="#009af9" fill-rule="evenodd" fill-opacity="1" stroke="#000000" stroke-opacity="1" stroke-width="3.2"/>
<circle clip-path="url(#clip492)" cx="427.657" cy="172.937" r="14.4" fill="#009af9" fill-rule="evenodd" fill-opacity="1" stroke="#000000" stroke-opacity="1" stroke-width="3.2"/>
<circle clip-path="url(#clip492)" cx="464.242" cy="218.307" r="14.4" fill="#009af9" fill-rule="evenodd" fill-opacity="1" stroke="#000000" stroke-opacity="1" stroke-width="3.2"/>
<circle clip-path="url(#clip492)" cx="500.827" cy="263.874" r="14.4" fill="#009af9" fill-rule="evenodd" fill-opacity="1" stroke="#000000" stroke-opacity="1" stroke-width="3.2"/>
<circle clip-path="url(#clip492)" cx="537.412" cy="309.423" r="14.4" fill="#009af9" fill-rule="evenodd" fill-opacity="1" stroke="#000000" stroke-opacity="1" stroke-width="3.2"/>
<circle clip-path="url(#clip492)" cx="573.997" cy="354.932" r="14.4" fill="#009af9" fill-rule="evenodd" fill-opacity="1" stroke="#000000" stroke-opacity="1" stroke-width="3.2"/>
<circle clip-path="url(#clip492)" cx="610.582" cy="400.413" r="14.4" fill="#009af9" fill-rule="evenodd" fill-opacity="1" stroke="#000000" stroke-opacity="1" stroke-width="3.2"/>
<circle clip-path="url(#clip492)" cx="647.167" cy="445.88" r="14.4" fill="#009af9" fill-rule="evenodd" fill-opacity="1" stroke="#000000" stroke-opacity="1" stroke-width="3.2"/>
<circle clip-path="url(#clip492)" cx="683.751" cy="491.338" r="14.4" fill="#009af9" fill-rule="evenodd" fill-opacity="1" stroke="#000000" stroke-opacity="1" stroke-width="3.2"/>
<circle clip-path="url(#clip492)" cx="720.336" cy="536.792" r="14.4" fill="#009af9" fill-rule="evenodd" fill-opacity="1" stroke="#000000" stroke-opacity="1" stroke-width="3.2"/>
<circle clip-path="url(#clip492)" cx="756.921" cy="582.243" r="14.4" fill="#009af9" fill-rule="evenodd" fill-opacity="1" stroke="#000000" stroke-opacity="1" stroke-width="3.2"/>
<circle clip-path="url(#clip492)" cx="793.506" cy="627.694" r="14.4" fill="#009af9" fill-rule="evenodd" fill-opacity="1" stroke="#000000" stroke-opacity="1" stroke-width="3.2"/>
<circle clip-path="url(#clip492)" cx="830.091" cy="673.144" r="14.4" fill="#009af9" fill-rule="evenodd" fill-opacity="1" stroke="#000000" stroke-opacity="1" stroke-width="3.2"/>
<circle clip-path="url(#clip492)" cx="866.676" cy="718.594" r="14.4" fill="#009af9" fill-rule="evenodd" fill-opacity="1" stroke="#000000" stroke-opacity="1" stroke-width="3.2"/>
<circle clip-path="url(#clip492)" cx="903.261" cy="764.044" r="14.4" fill="#009af9" fill-rule="evenodd" fill-opacity="1" stroke="#000000" stroke-opacity="1" stroke-width="3.2"/>
<circle clip-path="url(#clip492)" cx="939.846" cy="809.494" r="14.4" fill="#009af9" fill-rule="evenodd" fill-opacity="1" stroke="#000000" stroke-opacity="1" stroke-width="3.2"/>
<circle clip-path="url(#clip492)" cx="976.431" cy="854.943" r="14.4" fill="#009af9" fill-rule="evenodd" fill-opacity="1" stroke="#000000" stroke-opacity="1" stroke-width="3.2"/>
<circle clip-path="url(#clip492)" cx="1013.02" cy="900.393" r="14.4" fill="#009af9" fill-rule="evenodd" fill-opacity="1" stroke="#000000" stroke-opacity="1" stroke-width="3.2"/>
<circle clip-path="url(#clip492)" cx="1049.6" cy="945.843" r="14.4" fill="#009af9" fill-rule="evenodd" fill-opacity="1" stroke="#000000" stroke-opacity="1" stroke-width="3.2"/>
<circle clip-path="url(#clip492)" cx="1086.19" cy="991.296" r="14.4" fill="#009af9" fill-rule="evenodd" fill-opacity="1" stroke="#000000" stroke-opacity="1" stroke-width="3.2"/>
<circle clip-path="url(#clip492)" cx="1122.77" cy="1036.78" r="14.4" fill="#009af9" fill-rule="evenodd" fill-opacity="1" stroke="#000000" stroke-opacity="1" stroke-width="3.2"/>
<circle clip-path="url(#clip492)" cx="1159.36" cy="1082.22" r="14.4" fill="#009af9" fill-rule="evenodd" fill-opacity="1" stroke="#000000" stroke-opacity="1" stroke-width="3.2"/>
<circle clip-path="url(#clip492)" cx="1195.94" cy="1127.9" r="14.4" fill="#009af9" fill-rule="evenodd" fill-opacity="1" stroke="#000000" stroke-opacity="1" stroke-width="3.2"/>
<circle clip-path="url(#clip492)" cx="1232.53" cy="1175.12" r="14.4" fill="#009af9" fill-rule="evenodd" fill-opacity="1" stroke="#000000" stroke-opacity="1" stroke-width="3.2"/>
<circle clip-path="url(#clip492)" cx="1269.11" cy="1222.08" r="14.4" fill="#009af9" fill-rule="evenodd" fill-opacity="1" stroke="#000000" stroke-opacity="1" stroke-width="3.2"/>
<circle clip-path="url(#clip492)" cx="1305.7" cy="1254.75" r="14.4" fill="#009af9" fill-rule="evenodd" fill-opacity="1" stroke="#000000" stroke-opacity="1" stroke-width="3.2"/>
<circle clip-path="url(#clip492)" cx="1342.28" cy="1384.24" r="14.4" fill="#009af9" fill-rule="evenodd" fill-opacity="1" stroke="#000000" stroke-opacity="1" stroke-width="3.2"/>
<circle clip-path="url(#clip492)" cx="1378.87" cy="1224.61" r="14.4" fill="#009af9" fill-rule="evenodd" fill-opacity="1" stroke="#000000" stroke-opacity="1" stroke-width="3.2"/>
<circle clip-path="url(#clip492)" cx="1415.45" cy="1176.35" r="14.4" fill="#009af9" fill-rule="evenodd" fill-opacity="1" stroke="#000000" stroke-opacity="1" stroke-width="3.2"/>
<circle clip-path="url(#clip492)" cx="1452.03" cy="1176.35" r="14.4" fill="#009af9" fill-rule="evenodd" fill-opacity="1" stroke="#000000" stroke-opacity="1" stroke-width="3.2"/>
<circle clip-path="url(#clip492)" cx="1488.62" cy="1102.5" r="14.4" fill="#009af9" fill-rule="evenodd" fill-opacity="1" stroke="#000000" stroke-opacity="1" stroke-width="3.2"/>
<circle clip-path="url(#clip492)" cx="1525.2" cy="1046.43" r="14.4" fill="#009af9" fill-rule="evenodd" fill-opacity="1" stroke="#000000" stroke-opacity="1" stroke-width="3.2"/>
<circle clip-path="url(#clip492)" cx="1561.79" cy="1046.43" r="14.4" fill="#009af9" fill-rule="evenodd" fill-opacity="1" stroke="#000000" stroke-opacity="1" stroke-width="3.2"/>
<circle clip-path="url(#clip492)" cx="1598.37" cy="968.17" r="14.4" fill="#009af9" fill-rule="evenodd" fill-opacity="1" stroke="#000000" stroke-opacity="1" stroke-width="3.2"/>
<circle clip-path="url(#clip492)" cx="1634.96" cy="1029.28" r="14.4" fill="#009af9" fill-rule="evenodd" fill-opacity="1" stroke="#000000" stroke-opacity="1" stroke-width="3.2"/>
<circle clip-path="url(#clip492)" cx="1671.54" cy="860.305" r="14.4" fill="#009af9" fill-rule="evenodd" fill-opacity="1" stroke="#000000" stroke-opacity="1" stroke-width="3.2"/>
<circle clip-path="url(#clip492)" cx="1708.13" cy="1029.28" r="14.4" fill="#009af9" fill-rule="evenodd" fill-opacity="1" stroke="#000000" stroke-opacity="1" stroke-width="3.2"/>
<circle clip-path="url(#clip492)" cx="1744.71" cy="765.771" r="14.4" fill="#009af9" fill-rule="evenodd" fill-opacity="1" stroke="#000000" stroke-opacity="1" stroke-width="3.2"/>
<circle clip-path="url(#clip492)" cx="1781.3" cy="719.735" r="14.4" fill="#009af9" fill-rule="evenodd" fill-opacity="1" stroke="#000000" stroke-opacity="1" stroke-width="3.2"/>
<circle clip-path="url(#clip492)" cx="1817.88" cy="1029.28" r="14.4" fill="#009af9" fill-rule="evenodd" fill-opacity="1" stroke="#000000" stroke-opacity="1" stroke-width="3.2"/>
<circle clip-path="url(#clip492)" cx="1854.47" cy="673.994" r="14.4" fill="#009af9" fill-rule="evenodd" fill-opacity="1" stroke="#000000" stroke-opacity="1" stroke-width="3.2"/>
<circle clip-path="url(#clip492)" cx="1891.05" cy="601.764" r="14.4" fill="#009af9" fill-rule="evenodd" fill-opacity="1" stroke="#000000" stroke-opacity="1" stroke-width="3.2"/>
<circle clip-path="url(#clip492)" cx="1927.64" cy="673.415" r="14.4" fill="#009af9" fill-rule="evenodd" fill-opacity="1" stroke="#000000" stroke-opacity="1" stroke-width="3.2"/>
<circle clip-path="url(#clip492)" cx="1964.22" cy="496.156" r="14.4" fill="#009af9" fill-rule="evenodd" fill-opacity="1" stroke="#000000" stroke-opacity="1" stroke-width="3.2"/>
<circle clip-path="url(#clip492)" cx="2000.81" cy="448.547" r="14.4" fill="#009af9" fill-rule="evenodd" fill-opacity="1" stroke="#000000" stroke-opacity="1" stroke-width="3.2"/>
<circle clip-path="url(#clip492)" cx="2037.39" cy="448.547" r="14.4" fill="#009af9" fill-rule="evenodd" fill-opacity="1" stroke="#000000" stroke-opacity="1" stroke-width="3.2"/>
<circle clip-path="url(#clip492)" cx="2073.98" cy="375.109" r="14.4" fill="#009af9" fill-rule="evenodd" fill-opacity="1" stroke="#000000" stroke-opacity="1" stroke-width="3.2"/>
<circle clip-path="url(#clip492)" cx="2110.56" cy="444.429" r="14.4" fill="#009af9" fill-rule="evenodd" fill-opacity="1" stroke="#000000" stroke-opacity="1" stroke-width="3.2"/>
<circle clip-path="url(#clip492)" cx="2147.15" cy="269.026" r="14.4" fill="#009af9" fill-rule="evenodd" fill-opacity="1" stroke="#000000" stroke-opacity="1" stroke-width="3.2"/>
<circle clip-path="url(#clip492)" cx="2183.73" cy="269.026" r="14.4" fill="#009af9" fill-rule="evenodd" fill-opacity="1" stroke="#000000" stroke-opacity="1" stroke-width="3.2"/>
<circle clip-path="url(#clip492)" cx="2220.32" cy="159.977" r="14.4" fill="#009af9" fill-rule="evenodd" fill-opacity="1" stroke="#000000" stroke-opacity="1" stroke-width="3.2"/>
<circle clip-path="url(#clip492)" cx="2256.9" cy="269.026" r="14.4" fill="#009af9" fill-rule="evenodd" fill-opacity="1" stroke="#000000" stroke-opacity="1" stroke-width="3.2"/>
<circle clip-path="url(#clip492)" cx="2293.49" cy="269.026" r="14.4" fill="#009af9" fill-rule="evenodd" fill-opacity="1" stroke="#000000" stroke-opacity="1" stroke-width="3.2"/>
</svg>
