<?xml version="1.0" encoding="utf-8"?>
<svg xmlns="http://www.w3.org/2000/svg" xmlns:xlink="http://www.w3.org/1999/xlink" width="600" height="400" viewBox="0 0 2400 1600">
<defs>
  <clipPath id="clip360">
    <rect x="0" y="0" width="2400" height="1600"/>
  </clipPath>
</defs>
<path clip-path="url(#clip360)" d="M0 1600 L2400 1600 L2400 0 L0 0  Z" fill="#ffffff" fill-rule="evenodd" fill-opacity="1"/>
<defs>
  <clipPath id="clip361">
    <rect x="480" y="0" width="1681" height="1600"/>
  </clipPath>
</defs>
<path clip-path="url(#clip360)" d="M192.339 1486.45 L2352.76 1486.45 L2352.76 47.2441 L192.339 47.2441  Z" fill="#ffffff" fill-rule="evenodd" fill-opacity="1"/>
<defs>
  <clipPath id="clip362">
    <rect x="192" y="47" width="2161" height="1440"/>
  </clipPath>
</defs>
<polyline clip-path="url(#clip362)" style="stroke:#000000; stroke-linecap:round; stroke-linejoin:round; stroke-width:2; stroke-opacity:0.1; fill:none" points="253.483,1486.45 253.483,47.2441 "/>
<polyline clip-path="url(#clip362)" style="stroke:#000000; stroke-linecap:round; stroke-linejoin:round; stroke-width:2; stroke-opacity:0.1; fill:none" points="835.805,1486.45 835.805,47.2441 "/>
<polyline clip-path="url(#clip362)" style="stroke:#000000; stroke-linecap:round; stroke-linejoin:round; stroke-width:2; stroke-opacity:0.1; fill:none" points="1418.13,1486.45 1418.13,47.2441 "/>
<polyline clip-path="url(#clip362)" style="stroke:#000000; stroke-linecap:round; stroke-linejoin:round; stroke-width:2; stroke-opacity:0.1; fill:none" points="2000.45,1486.45 2000.45,47.2441 "/>
<polyline clip-path="url(#clip360)" style="stroke:#000000; stroke-linecap:round; stroke-linejoin:round; stroke-width:4; stroke-opacity:1; fill:none" points="192.339,1486.45 2352.76,1486.45 "/>
<polyline clip-path="url(#clip360)" style="stroke:#000000; stroke-linecap:round; stroke-linejoin:round; stroke-width:2; stroke-opacity:0.5; fill:none" points="192.339,47.2441 2352.76,47.2441 "/>
<polyline clip-path="url(#clip360)" style="stroke:#000000; stroke-linecap:round; stroke-linejoin:round; stroke-width:4; stroke-opacity:1; fill:none" points="253.483,1486.45 253.483,1467.55 "/>
<polyline clip-path="url(#clip360)" style="stroke:#000000; stroke-linecap:round; stroke-linejoin:round; stroke-width:4; stroke-opacity:1; fill:none" points="835.805,1486.45 835.805,1467.55 "/>
<polyline clip-path="url(#clip360)" style="stroke:#000000; stroke-linecap:round; stroke-linejoin:round; stroke-width:4; stroke-opacity:1; fill:none" points="1418.13,1486.45 1418.13,1467.55 "/>
<polyline clip-path="url(#clip360)" style="stroke:#000000; stroke-linecap:round; stroke-linejoin:round; stroke-width:4; stroke-opacity:1; fill:none" points="2000.45,1486.45 2000.45,1467.55 "/>
<path clip-path="url(#clip360)" d="M220.393 1544.91 L228.031 1544.91 L228.031 1518.55 L219.721 1520.21 L219.721 1515.95 L227.985 1514.29 L232.661 1514.29 L232.661 1544.91 L240.3 1544.91 L240.3 1548.85 L220.393 1548.85 L220.393 1544.91 Z" fill="#000000" fill-rule="nonzero" fill-opacity="1" /><path clip-path="url(#clip360)" d="M249.744 1542.97 L254.628 1542.97 L254.628 1548.85 L249.744 1548.85 L249.744 1542.97 Z" fill="#000000" fill-rule="nonzero" fill-opacity="1" /><path clip-path="url(#clip360)" d="M277.661 1518.36 L265.855 1536.81 L277.661 1536.81 L277.661 1518.36 M276.434 1514.29 L282.314 1514.29 L282.314 1536.81 L287.244 1536.81 L287.244 1540.7 L282.314 1540.7 L282.314 1548.85 L277.661 1548.85 L277.661 1540.7 L262.059 1540.7 L262.059 1536.19 L276.434 1514.29 Z" fill="#000000" fill-rule="nonzero" fill-opacity="1" /><path clip-path="url(#clip360)" d="M802.877 1544.91 L810.516 1544.91 L810.516 1518.55 L802.206 1520.21 L802.206 1515.95 L810.47 1514.29 L815.146 1514.29 L815.146 1544.91 L822.785 1544.91 L822.785 1548.85 L802.877 1548.85 L802.877 1544.91 Z" fill="#000000" fill-rule="nonzero" fill-opacity="1" /><path clip-path="url(#clip360)" d="M832.229 1542.97 L837.113 1542.97 L837.113 1548.85 L832.229 1548.85 L832.229 1542.97 Z" fill="#000000" fill-rule="nonzero" fill-opacity="1" /><path clip-path="url(#clip360)" d="M857.877 1529.7 Q854.729 1529.7 852.877 1531.86 Q851.048 1534.01 851.048 1537.76 Q851.048 1541.49 852.877 1543.66 Q854.729 1545.82 857.877 1545.82 Q861.025 1545.82 862.854 1543.66 Q864.706 1541.49 864.706 1537.76 Q864.706 1534.01 862.854 1531.86 Q861.025 1529.7 857.877 1529.7 M867.159 1515.05 L867.159 1519.31 Q865.4 1518.48 863.595 1518.04 Q861.812 1517.6 860.053 1517.6 Q855.423 1517.6 852.97 1520.72 Q850.539 1523.85 850.192 1530.17 Q851.558 1528.15 853.618 1527.09 Q855.678 1526 858.155 1526 Q863.363 1526 866.372 1529.17 Q869.405 1532.32 869.405 1537.76 Q869.405 1543.08 866.257 1546.3 Q863.108 1549.52 857.877 1549.52 Q851.882 1549.52 848.71 1544.94 Q845.539 1540.33 845.539 1531.6 Q845.539 1523.41 849.428 1518.55 Q853.317 1513.66 859.868 1513.66 Q861.627 1513.66 863.409 1514.01 Q865.215 1514.36 867.159 1515.05 Z" fill="#000000" fill-rule="nonzero" fill-opacity="1" /><path clip-path="url(#clip360)" d="M1385.33 1544.91 L1392.97 1544.91 L1392.97 1518.55 L1384.66 1520.21 L1384.66 1515.95 L1392.92 1514.29 L1397.6 1514.29 L1397.6 1544.91 L1405.23 1544.91 L1405.23 1548.85 L1385.33 1548.85 L1385.33 1544.91 Z" fill="#000000" fill-rule="nonzero" fill-opacity="1" /><path clip-path="url(#clip360)" d="M1414.68 1542.97 L1419.56 1542.97 L1419.56 1548.85 L1414.68 1548.85 L1414.68 1542.97 Z" fill="#000000" fill-rule="nonzero" fill-opacity="1" /><path clip-path="url(#clip360)" d="M1439.75 1532.44 Q1436.41 1532.44 1434.49 1534.22 Q1432.6 1536 1432.6 1539.13 Q1432.6 1542.25 1434.49 1544.03 Q1436.41 1545.82 1439.75 1545.82 Q1443.08 1545.82 1445 1544.03 Q1446.92 1542.23 1446.92 1539.13 Q1446.92 1536 1445 1534.22 Q1443.1 1532.44 1439.75 1532.44 M1435.07 1530.45 Q1432.06 1529.7 1430.37 1527.64 Q1428.71 1525.58 1428.71 1522.62 Q1428.71 1518.48 1431.65 1516.07 Q1434.61 1513.66 1439.75 1513.66 Q1444.91 1513.66 1447.85 1516.07 Q1450.79 1518.48 1450.79 1522.62 Q1450.79 1525.58 1449.1 1527.64 Q1447.43 1529.7 1444.45 1530.45 Q1447.83 1531.23 1449.7 1533.52 Q1451.6 1535.82 1451.6 1539.13 Q1451.6 1544.15 1448.52 1546.83 Q1445.47 1549.52 1439.75 1549.52 Q1434.03 1549.52 1430.95 1546.83 Q1427.9 1544.15 1427.9 1539.13 Q1427.9 1535.82 1429.79 1533.52 Q1431.69 1531.23 1435.07 1530.45 M1433.36 1523.06 Q1433.36 1525.75 1435.03 1527.25 Q1436.72 1528.76 1439.75 1528.76 Q1442.76 1528.76 1444.45 1527.25 Q1446.16 1525.75 1446.16 1523.06 Q1446.16 1520.38 1444.45 1518.87 Q1442.76 1517.37 1439.75 1517.37 Q1436.72 1517.37 1435.03 1518.87 Q1433.36 1520.38 1433.36 1523.06 Z" fill="#000000" fill-rule="nonzero" fill-opacity="1" /><path clip-path="url(#clip360)" d="M1971.69 1544.91 L1988.01 1544.91 L1988.01 1548.85 L1966.06 1548.85 L1966.06 1544.91 Q1968.73 1542.16 1973.31 1537.53 Q1977.92 1532.88 1979.1 1531.53 Q1981.34 1529.01 1982.22 1527.27 Q1983.12 1525.51 1983.12 1523.82 Q1983.12 1521.07 1981.18 1519.33 Q1979.26 1517.6 1976.16 1517.6 Q1973.96 1517.6 1971.5 1518.36 Q1969.07 1519.13 1966.3 1520.68 L1966.3 1515.95 Q1969.12 1514.82 1971.57 1514.24 Q1974.03 1513.66 1976.06 1513.66 Q1981.43 1513.66 1984.63 1516.35 Q1987.82 1519.03 1987.82 1523.52 Q1987.82 1525.65 1987.01 1527.57 Q1986.23 1529.47 1984.12 1532.07 Q1983.54 1532.74 1980.44 1535.95 Q1977.34 1539.15 1971.69 1544.91 Z" fill="#000000" fill-rule="nonzero" fill-opacity="1" /><path clip-path="url(#clip360)" d="M1997.82 1542.97 L2002.71 1542.97 L2002.71 1548.85 L1997.82 1548.85 L1997.82 1542.97 Z" fill="#000000" fill-rule="nonzero" fill-opacity="1" /><path clip-path="url(#clip360)" d="M2022.89 1517.37 Q2019.28 1517.37 2017.45 1520.93 Q2015.65 1524.47 2015.65 1531.6 Q2015.65 1538.71 2017.45 1542.27 Q2019.28 1545.82 2022.89 1545.82 Q2026.53 1545.82 2028.33 1542.27 Q2030.16 1538.71 2030.16 1531.6 Q2030.16 1524.47 2028.33 1520.93 Q2026.53 1517.37 2022.89 1517.37 M2022.89 1513.66 Q2028.7 1513.66 2031.76 1518.27 Q2034.84 1522.85 2034.84 1531.6 Q2034.84 1540.33 2031.76 1544.94 Q2028.7 1549.52 2022.89 1549.52 Q2017.08 1549.52 2014 1544.94 Q2010.95 1540.33 2010.95 1531.6 Q2010.95 1522.85 2014 1518.27 Q2017.08 1513.66 2022.89 1513.66 Z" fill="#000000" fill-rule="nonzero" fill-opacity="1" /><polyline clip-path="url(#clip362)" style="stroke:#000000; stroke-linecap:round; stroke-linejoin:round; stroke-width:2; stroke-opacity:0.1; fill:none" points="192.339,1373.11 2352.76,1373.11 "/>
<polyline clip-path="url(#clip362)" style="stroke:#000000; stroke-linecap:round; stroke-linejoin:round; stroke-width:2; stroke-opacity:0.1; fill:none" points="192.339,1003.53 2352.76,1003.53 "/>
<polyline clip-path="url(#clip362)" style="stroke:#000000; stroke-linecap:round; stroke-linejoin:round; stroke-width:2; stroke-opacity:0.1; fill:none" points="192.339,633.943 2352.76,633.943 "/>
<polyline clip-path="url(#clip362)" style="stroke:#000000; stroke-linecap:round; stroke-linejoin:round; stroke-width:2; stroke-opacity:0.1; fill:none" points="192.339,264.359 2352.76,264.359 "/>
<polyline clip-path="url(#clip360)" style="stroke:#000000; stroke-linecap:round; stroke-linejoin:round; stroke-width:4; stroke-opacity:1; fill:none" points="192.339,1486.45 192.339,47.2441 "/>
<polyline clip-path="url(#clip360)" style="stroke:#000000; stroke-linecap:round; stroke-linejoin:round; stroke-width:2; stroke-opacity:0.5; fill:none" points="2352.76,1486.45 2352.76,47.2441 "/>
<polyline clip-path="url(#clip360)" style="stroke:#000000; stroke-linecap:round; stroke-linejoin:round; stroke-width:4; stroke-opacity:1; fill:none" points="192.339,1373.11 211.236,1373.11 "/>
<polyline clip-path="url(#clip360)" style="stroke:#000000; stroke-linecap:round; stroke-linejoin:round; stroke-width:4; stroke-opacity:1; fill:none" points="192.339,1003.53 211.236,1003.53 "/>
<polyline clip-path="url(#clip360)" style="stroke:#000000; stroke-linecap:round; stroke-linejoin:round; stroke-width:4; stroke-opacity:1; fill:none" points="192.339,633.943 211.236,633.943 "/>
<polyline clip-path="url(#clip360)" style="stroke:#000000; stroke-linecap:round; stroke-linejoin:round; stroke-width:4; stroke-opacity:1; fill:none" points="192.339,264.359 211.236,264.359 "/>
<path clip-path="url(#clip360)" d="M50.9921 1373.56 L80.6679 1373.56 L80.6679 1377.5 L50.9921 1377.5 L50.9921 1373.56 Z" fill="#000000" fill-rule="nonzero" fill-opacity="1" /><path clip-path="url(#clip360)" d="M100.76 1358.91 Q97.1493 1358.91 95.3206 1362.47 Q93.515 1366.01 93.515 1373.14 Q93.515 1380.25 95.3206 1383.82 Q97.1493 1387.36 100.76 1387.36 Q104.395 1387.36 106.2 1383.82 Q108.029 1380.25 108.029 1373.14 Q108.029 1366.01 106.2 1362.47 Q104.395 1358.91 100.76 1358.91 M100.76 1355.2 Q106.571 1355.2 109.626 1359.81 Q112.705 1364.39 112.705 1373.14 Q112.705 1381.87 109.626 1386.48 Q106.571 1391.06 100.76 1391.06 Q94.9502 1391.06 91.8715 1386.48 Q88.816 1381.87 88.816 1373.14 Q88.816 1364.39 91.8715 1359.81 Q94.9502 1355.2 100.76 1355.2 Z" fill="#000000" fill-rule="nonzero" fill-opacity="1" /><path clip-path="url(#clip360)" d="M120.922 1384.51 L125.807 1384.51 L125.807 1390.39 L120.922 1390.39 L120.922 1384.51 Z" fill="#000000" fill-rule="nonzero" fill-opacity="1" /><path clip-path="url(#clip360)" d="M140.019 1386.45 L156.339 1386.45 L156.339 1390.39 L134.394 1390.39 L134.394 1386.45 Q137.056 1383.7 141.64 1379.07 Q146.246 1374.42 147.427 1373.08 Q149.672 1370.55 150.552 1368.82 Q151.455 1367.06 151.455 1365.37 Q151.455 1362.61 149.51 1360.88 Q147.589 1359.14 144.487 1359.14 Q142.288 1359.14 139.834 1359.9 Q137.404 1360.67 134.626 1362.22 L134.626 1357.5 Q137.45 1356.36 139.904 1355.78 Q142.357 1355.2 144.394 1355.2 Q149.765 1355.2 152.959 1357.89 Q156.154 1360.58 156.154 1365.07 Q156.154 1367.2 155.343 1369.12 Q154.556 1371.01 152.45 1373.61 Q151.871 1374.28 148.769 1377.5 Q145.668 1380.69 140.019 1386.45 Z" fill="#000000" fill-rule="nonzero" fill-opacity="1" /><path clip-path="url(#clip360)" d="M99.1632 989.325 Q95.5521 989.325 93.7234 992.89 Q91.9178 996.432 91.9178 1003.56 Q91.9178 1010.67 93.7234 1014.23 Q95.5521 1017.77 99.1632 1017.77 Q102.797 1017.77 104.603 1014.23 Q106.432 1010.67 106.432 1003.56 Q106.432 996.432 104.603 992.89 Q102.797 989.325 99.1632 989.325 M99.1632 985.621 Q104.973 985.621 108.029 990.228 Q111.108 994.811 111.108 1003.56 Q111.108 1012.29 108.029 1016.89 Q104.973 1021.48 99.1632 1021.48 Q93.353 1021.48 90.2743 1016.89 Q87.2188 1012.29 87.2188 1003.56 Q87.2188 994.811 90.2743 990.228 Q93.353 985.621 99.1632 985.621 Z" fill="#000000" fill-rule="nonzero" fill-opacity="1" /><path clip-path="url(#clip360)" d="M119.325 1014.93 L124.209 1014.93 L124.209 1020.81 L119.325 1020.81 L119.325 1014.93 Z" fill="#000000" fill-rule="nonzero" fill-opacity="1" /><path clip-path="url(#clip360)" d="M144.394 989.325 Q140.783 989.325 138.955 992.89 Q137.149 996.432 137.149 1003.56 Q137.149 1010.67 138.955 1014.23 Q140.783 1017.77 144.394 1017.77 Q148.029 1017.77 149.834 1014.23 Q151.663 1010.67 151.663 1003.56 Q151.663 996.432 149.834 992.89 Q148.029 989.325 144.394 989.325 M144.394 985.621 Q150.205 985.621 153.26 990.228 Q156.339 994.811 156.339 1003.56 Q156.339 1012.29 153.26 1016.89 Q150.205 1021.48 144.394 1021.48 Q138.584 1021.48 135.506 1016.89 Q132.45 1012.29 132.45 1003.56 Q132.45 994.811 135.506 990.228 Q138.584 985.621 144.394 985.621 Z" fill="#000000" fill-rule="nonzero" fill-opacity="1" /><path clip-path="url(#clip360)" d="M100.76 619.742 Q97.1493 619.742 95.3206 623.306 Q93.515 626.848 93.515 633.978 Q93.515 641.084 95.3206 644.649 Q97.1493 648.191 100.76 648.191 Q104.395 648.191 106.2 644.649 Q108.029 641.084 108.029 633.978 Q108.029 626.848 106.2 623.306 Q104.395 619.742 100.76 619.742 M100.76 616.038 Q106.571 616.038 109.626 620.644 Q112.705 625.228 112.705 633.978 Q112.705 642.704 109.626 647.311 Q106.571 651.894 100.76 651.894 Q94.9502 651.894 91.8715 647.311 Q88.816 642.704 88.816 633.978 Q88.816 625.228 91.8715 620.644 Q94.9502 616.038 100.76 616.038 Z" fill="#000000" fill-rule="nonzero" fill-opacity="1" /><path clip-path="url(#clip360)" d="M120.922 645.343 L125.807 645.343 L125.807 651.223 L120.922 651.223 L120.922 645.343 Z" fill="#000000" fill-rule="nonzero" fill-opacity="1" /><path clip-path="url(#clip360)" d="M140.019 647.288 L156.339 647.288 L156.339 651.223 L134.394 651.223 L134.394 647.288 Q137.056 644.533 141.64 639.904 Q146.246 635.251 147.427 633.908 Q149.672 631.385 150.552 629.649 Q151.455 627.89 151.455 626.2 Q151.455 623.445 149.51 621.709 Q147.589 619.973 144.487 619.973 Q142.288 619.973 139.834 620.737 Q137.404 621.501 134.626 623.052 L134.626 618.33 Q137.45 617.195 139.904 616.617 Q142.357 616.038 144.394 616.038 Q149.765 616.038 152.959 618.723 Q156.154 621.408 156.154 625.899 Q156.154 628.029 155.343 629.95 Q154.556 631.848 152.45 634.441 Q151.871 635.112 148.769 638.329 Q145.668 641.524 140.019 647.288 Z" fill="#000000" fill-rule="nonzero" fill-opacity="1" /><path clip-path="url(#clip360)" d="M98.6771 250.158 Q95.066 250.158 93.2373 253.723 Q91.4317 257.265 91.4317 264.394 Q91.4317 271.501 93.2373 275.065 Q95.066 278.607 98.6771 278.607 Q102.311 278.607 104.117 275.065 Q105.946 271.501 105.946 264.394 Q105.946 257.265 104.117 253.723 Q102.311 250.158 98.6771 250.158 M98.6771 246.454 Q104.487 246.454 107.543 251.061 Q110.621 255.644 110.621 264.394 Q110.621 273.121 107.543 277.727 Q104.487 282.311 98.6771 282.311 Q92.8669 282.311 89.7882 277.727 Q86.7327 273.121 86.7327 264.394 Q86.7327 255.644 89.7882 251.061 Q92.8669 246.454 98.6771 246.454 Z" fill="#000000" fill-rule="nonzero" fill-opacity="1" /><path clip-path="url(#clip360)" d="M118.839 275.76 L123.723 275.76 L123.723 281.639 L118.839 281.639 L118.839 275.76 Z" fill="#000000" fill-rule="nonzero" fill-opacity="1" /><path clip-path="url(#clip360)" d="M146.756 251.154 L134.95 269.603 L146.756 269.603 L146.756 251.154 M145.529 247.079 L151.408 247.079 L151.408 269.603 L156.339 269.603 L156.339 273.491 L151.408 273.491 L151.408 281.639 L146.756 281.639 L146.756 273.491 L131.154 273.491 L131.154 268.978 L145.529 247.079 Z" fill="#000000" fill-rule="nonzero" fill-opacity="1" /><polyline clip-path="url(#clip362)" style="stroke:#0000ff; stroke-linecap:round; stroke-linejoin:round; stroke-width:4; stroke-opacity:1; fill:none" points="253.483,87.9763 274.07,94.9704 294.657,102.102 315.244,109.371 335.831,116.777 356.418,124.321 377.006,132.003 397.593,139.823 418.18,147.78 438.767,155.876 459.354,164.109 479.941,172.481 500.529,180.991 521.116,189.639 541.703,198.425 562.29,207.35 582.877,216.413 603.464,225.615 624.052,234.954 644.639,244.433 665.226,254.05 685.813,263.806 706.4,273.7 726.987,283.732 747.575,293.904 768.162,304.213 788.749,314.662 809.336,325.249 829.923,335.974 850.51,346.838 871.098,357.841 891.685,368.982 912.272,380.262 932.859,391.68 953.446,403.236 974.033,414.931 994.621,426.764 1015.21,438.735 1035.79,450.845 1056.38,463.092 1076.97,475.478 1097.56,488.002 1118.14,500.663 1138.73,513.463 1159.32,526.4 1179.91,539.475 1200.49,552.688 1221.08,566.038 1241.67,579.525 1262.25,593.15 1282.84,606.911 1303.43,620.81 1324.02,634.846 1344.6,649.019 1365.19,663.328 1385.78,677.774 1406.36,692.356 1426.95,707.074 1447.54,721.929 1468.13,736.919 1488.71,752.045 1509.3,767.307 1529.89,782.704 1550.47,798.237 1571.06,813.905 1591.65,829.707 1612.24,845.645 1632.82,861.717 1653.41,877.923 1674,894.264 1694.58,910.738 1715.17,927.346 1735.76,944.088 1756.35,960.963 1776.93,977.972 1797.52,995.113 1818.11,1012.39 1838.69,1029.79 1859.28,1047.33 1879.87,1065 1900.46,1082.8 1921.04,1100.74 1941.63,1118.8 1962.22,1137 1982.8,1155.32 2003.39,1173.78 2023.98,1192.37 2044.57,1211.09 2065.15,1229.93 2085.74,1248.91 2106.33,1268.01 2126.91,1287.25 2147.5,1306.61 2168.09,1326.1 2188.68,1345.72 2209.26,1365.46 2229.85,1385.34 2250.44,1405.34 2271.02,1425.46 2291.61,1445.72 "/>
<polyline clip-path="url(#clip362)" style="stroke:#000000; stroke-linecap:round; stroke-linejoin:round; stroke-width:4; stroke-opacity:1; fill:none" stroke-dasharray="16, 10" points="253.483,1003.53 2291.61,1003.53 "/>
<polyline clip-path="url(#clip362)" style="stroke:#000000; stroke-linecap:round; stroke-linejoin:round; stroke-width:4; stroke-opacity:1; fill:none" points="544.644,286.315 2000.45,286.315 "/>
<line clip-path="url(#clip362)" x1="544.644" y1="302.315" x2="544.644" y2="270.315" style="stroke:#000000; stroke-width:4; stroke-opacity:1"/>
<line clip-path="url(#clip362)" x1="2000.45" y1="302.315" x2="2000.45" y2="270.315" style="stroke:#000000; stroke-width:4; stroke-opacity:1"/>
<polyline clip-path="url(#clip362)" style="stroke:#000000; stroke-linecap:round; stroke-linejoin:round; stroke-width:2; stroke-opacity:1; fill:none" stroke-dasharray="8, 5" points="544.644,1003.53 544.644,286.315 "/>
<polyline clip-path="url(#clip362)" style="stroke:#000000; stroke-linecap:round; stroke-linejoin:round; stroke-width:2; stroke-opacity:1; fill:none" stroke-dasharray="8, 5" points="2000.45,1003.53 2000.45,286.315 "/>
<circle clip-path="url(#clip362)" cx="1272.55" cy="286.315" r="7.2" fill="#000000" fill-rule="evenodd" fill-opacity="1" stroke="none"/>
<polyline clip-path="url(#clip362)" style="stroke:#000000; stroke-linecap:round; stroke-linejoin:round; stroke-width:4; stroke-opacity:1; fill:none" points="1272.55,388.773 2000.45,388.773 "/>
<line clip-path="url(#clip362)" x1="1272.55" y1="404.773" x2="1272.55" y2="372.773" style="stroke:#000000; stroke-width:4; stroke-opacity:1"/>
<line clip-path="url(#clip362)" x1="2000.45" y1="404.773" x2="2000.45" y2="372.773" style="stroke:#000000; stroke-width:4; stroke-opacity:1"/>
<polyline clip-path="url(#clip362)" style="stroke:#000000; stroke-linecap:round; stroke-linejoin:round; stroke-width:2; stroke-opacity:1; fill:none" stroke-dasharray="8, 5" points="1272.55,1003.53 1272.55,388.773 "/>
<polyline clip-path="url(#clip362)" style="stroke:#000000; stroke-linecap:round; stroke-linejoin:round; stroke-width:2; stroke-opacity:1; fill:none" stroke-dasharray="8, 5" points="2000.45,1003.53 2000.45,388.773 "/>
<circle clip-path="url(#clip362)" cx="1636.5" cy="388.773" r="7.2" fill="#000000" fill-rule="evenodd" fill-opacity="1" stroke="none"/>
<polyline clip-path="url(#clip362)" style="stroke:#000000; stroke-linecap:round; stroke-linejoin:round; stroke-width:4; stroke-opacity:1; fill:none" points="1636.5,491.232 2000.45,491.232 "/>
<line clip-path="url(#clip362)" x1="1636.5" y1="507.232" x2="1636.5" y2="475.232" style="stroke:#000000; stroke-width:4; stroke-opacity:1"/>
<line clip-path="url(#clip362)" x1="2000.45" y1="507.232" x2="2000.45" y2="475.232" style="stroke:#000000; stroke-width:4; stroke-opacity:1"/>
<polyline clip-path="url(#clip362)" style="stroke:#000000; stroke-linecap:round; stroke-linejoin:round; stroke-width:2; stroke-opacity:1; fill:none" stroke-dasharray="8, 5" points="1636.5,1003.53 1636.5,491.232 "/>
<polyline clip-path="url(#clip362)" style="stroke:#000000; stroke-linecap:round; stroke-linejoin:round; stroke-width:2; stroke-opacity:1; fill:none" stroke-dasharray="8, 5" points="2000.45,1003.53 2000.45,491.232 "/>
<circle clip-path="url(#clip362)" cx="1818.47" cy="491.232" r="7.2" fill="#000000" fill-rule="evenodd" fill-opacity="1" stroke="none"/>
<polyline clip-path="url(#clip362)" style="stroke:#000000; stroke-linecap:round; stroke-linejoin:round; stroke-width:4; stroke-opacity:1; fill:none" points="1636.5,593.691 1818.47,593.691 "/>
<line clip-path="url(#clip362)" x1="1636.5" y1="609.691" x2="1636.5" y2="577.691" style="stroke:#000000; stroke-width:4; stroke-opacity:1"/>
<line clip-path="url(#clip362)" x1="1818.47" y1="609.691" x2="1818.47" y2="577.691" style="stroke:#000000; stroke-width:4; stroke-opacity:1"/>
<polyline clip-path="url(#clip362)" style="stroke:#000000; stroke-linecap:round; stroke-linejoin:round; stroke-width:2; stroke-opacity:1; fill:none" stroke-dasharray="8, 5" points="1636.5,1003.53 1636.5,593.691 "/>
<polyline clip-path="url(#clip362)" style="stroke:#000000; stroke-linecap:round; stroke-linejoin:round; stroke-width:2; stroke-opacity:1; fill:none" stroke-dasharray="8, 5" points="1818.47,1003.53 1818.47,593.691 "/>
<circle clip-path="url(#clip362)" cx="1727.49" cy="593.691" r="7.2" fill="#000000" fill-rule="evenodd" fill-opacity="1" stroke="none"/>
<polyline clip-path="url(#clip362)" style="stroke:#000000; stroke-linecap:round; stroke-linejoin:round; stroke-width:4; stroke-opacity:1; fill:none" points="1727.49,696.15 1818.47,696.15 "/>
<line clip-path="url(#clip362)" x1="1727.49" y1="712.15" x2="1727.49" y2="680.15" style="stroke:#000000; stroke-width:4; stroke-opacity:1"/>
<line clip-path="url(#clip362)" x1="1818.47" y1="712.15" x2="1818.47" y2="680.15" style="stroke:#000000; stroke-width:4; stroke-opacity:1"/>
<polyline clip-path="url(#clip362)" style="stroke:#000000; stroke-linecap:round; stroke-linejoin:round; stroke-width:2; stroke-opacity:1; fill:none" stroke-dasharray="8, 5" points="1727.49,1003.53 1727.49,696.15 "/>
<polyline clip-path="url(#clip362)" style="stroke:#000000; stroke-linecap:round; stroke-linejoin:round; stroke-width:2; stroke-opacity:1; fill:none" stroke-dasharray="8, 5" points="1818.47,1003.53 1818.47,696.15 "/>
<circle clip-path="url(#clip362)" cx="1772.98" cy="696.15" r="7.2" fill="#000000" fill-rule="evenodd" fill-opacity="1" stroke="none"/>
<polyline clip-path="url(#clip362)" style="stroke:#000000; stroke-linecap:round; stroke-linejoin:round; stroke-width:4; stroke-opacity:1; fill:none" points="1772.98,798.609 1818.47,798.609 "/>
<line clip-path="url(#clip362)" x1="1772.98" y1="814.609" x2="1772.98" y2="782.609" style="stroke:#000000; stroke-width:4; stroke-opacity:1"/>
<line clip-path="url(#clip362)" x1="1818.47" y1="814.609" x2="1818.47" y2="782.609" style="stroke:#000000; stroke-width:4; stroke-opacity:1"/>
<polyline clip-path="url(#clip362)" style="stroke:#000000; stroke-linecap:round; stroke-linejoin:round; stroke-width:2; stroke-opacity:1; fill:none" stroke-dasharray="8, 5" points="1772.98,1003.53 1772.98,798.609 "/>
<polyline clip-path="url(#clip362)" style="stroke:#000000; stroke-linecap:round; stroke-linejoin:round; stroke-width:2; stroke-opacity:1; fill:none" stroke-dasharray="8, 5" points="1818.47,1003.53 1818.47,798.609 "/>
<circle clip-path="url(#clip362)" cx="1795.73" cy="798.609" r="7.2" fill="#000000" fill-rule="evenodd" fill-opacity="1" stroke="none"/>
<polyline clip-path="url(#clip362)" style="stroke:#000000; stroke-linecap:round; stroke-linejoin:round; stroke-width:4; stroke-opacity:1; fill:none" points="1795.73,901.068 1818.47,901.068 "/>
<line clip-path="url(#clip362)" x1="1795.73" y1="917.068" x2="1795.73" y2="885.068" style="stroke:#000000; stroke-width:4; stroke-opacity:1"/>
<line clip-path="url(#clip362)" x1="1818.47" y1="917.068" x2="1818.47" y2="885.068" style="stroke:#000000; stroke-width:4; stroke-opacity:1"/>
<polyline clip-path="url(#clip362)" style="stroke:#000000; stroke-linecap:round; stroke-linejoin:round; stroke-width:2; stroke-opacity:1; fill:none" stroke-dasharray="8, 5" points="1795.73,1003.53 1795.73,901.068 "/>
<polyline clip-path="url(#clip362)" style="stroke:#000000; stroke-linecap:round; stroke-linejoin:round; stroke-width:2; stroke-opacity:1; fill:none" stroke-dasharray="8, 5" points="1818.47,1003.53 1818.47,901.068 "/>
<circle clip-path="url(#clip362)" cx="1807.1" cy="901.068" r="7.2" fill="#000000" fill-rule="evenodd" fill-opacity="1" stroke="none"/>
<polyline clip-path="url(#clip362)" style="stroke:#000000; stroke-linecap:round; stroke-linejoin:round; stroke-width:4; stroke-opacity:1; fill:none" points="1807.1,1003.53 1818.47,1003.53 "/>
<line clip-path="url(#clip362)" x1="1807.1" y1="1019.53" x2="1807.1" y2="987.526" style="stroke:#000000; stroke-width:4; stroke-opacity:1"/>
<line clip-path="url(#clip362)" x1="1818.47" y1="1019.53" x2="1818.47" y2="987.526" style="stroke:#000000; stroke-width:4; stroke-opacity:1"/>
<polyline clip-path="url(#clip362)" style="stroke:#000000; stroke-linecap:round; stroke-linejoin:round; stroke-width:2; stroke-opacity:1; fill:none" stroke-dasharray="8, 5" points="1807.1,1003.53 1807.1,1003.53 "/>
<polyline clip-path="url(#clip362)" style="stroke:#000000; stroke-linecap:round; stroke-linejoin:round; stroke-width:2; stroke-opacity:1; fill:none" stroke-dasharray="8, 5" points="1818.47,1003.53 1818.47,1003.53 "/>
<circle clip-path="url(#clip362)" cx="1812.79" cy="1003.53" r="7.2" fill="#000000" fill-rule="evenodd" fill-opacity="1" stroke="none"/>
<path clip-path="url(#clip360)" d="M486.533 280.574 Q485.426 285.862 483.992 288.895 Q481.696 293.527 477.802 293.527 Q474.851 293.527 472.76 291.724 Q470.67 289.92 470.178 287.215 Q464.809 293.527 459.234 293.527 Q454.315 293.527 451.2 289.797 Q448.085 286.026 448.085 280.083 Q448.085 274.098 451.036 268.36 Q454.028 262.621 458.742 259.055 Q463.456 255.489 468.293 255.489 Q473.416 255.489 476.04 260.859 Q476.245 259.383 477.187 258.276 Q478.13 257.17 479.565 257.17 Q480.671 257.17 481.327 257.784 Q481.983 258.358 481.983 259.424 Q481.983 259.957 481.409 262.293 L478.376 274.016 L476.531 281.599 Q475.835 284.387 475.63 285.411 Q475.466 286.436 475.466 287.789 Q475.466 291.642 477.966 291.642 Q479.196 291.642 480.18 290.863 Q481.163 290.084 481.942 288.444 Q482.721 286.805 483.213 285.288 Q483.705 283.731 484.36 281.271 Q484.565 280.288 484.729 280.042 Q484.934 279.755 485.508 279.755 Q486.533 279.755 486.533 280.574 M475.015 264.712 Q475.015 264.343 474.728 263.318 Q474.441 262.293 473.785 260.859 Q473.129 259.424 471.695 258.399 Q470.301 257.334 468.416 257.334 Q465.874 257.334 463.21 259.506 Q460.587 261.678 458.66 265.367 Q457.185 268.319 455.586 274.508 Q454.028 280.697 454.028 283.772 Q454.028 285.657 454.438 287.338 Q454.889 288.977 456.16 290.33 Q457.43 291.642 459.398 291.642 Q464.194 291.642 468.907 285.698 Q469.809 284.673 470.014 284.264 Q470.26 283.813 470.588 282.583 L474.769 266.146 Q475.015 264.917 475.015 264.712 Z" fill="#000000" fill-rule="nonzero" fill-opacity="1" /><path clip-path="url(#clip360)" d="M495.123 283.238 L495.123 281.402 Q502.181 281.402 505.825 277.643 Q506.83 277.643 507.002 277.872 Q507.174 278.102 507.174 279.163 L507.174 312.131 Q507.174 313.881 508.035 314.427 Q508.895 314.972 512.654 314.972 L514.519 314.972 L514.519 316.779 Q512.453 316.607 504.993 316.607 Q497.533 316.607 495.496 316.779 L495.496 314.972 L497.361 314.972 Q501.062 314.972 501.952 314.455 Q502.841 313.91 502.841 312.131 L502.841 281.688 Q499.771 283.238 495.123 283.238 Z" fill="#000000" fill-rule="nonzero" fill-opacity="1" /><path clip-path="url(#clip360)" d="M2046.55 279.369 Q2046.55 285.272 2043.56 291.051 Q2040.61 296.79 2035.85 300.397 Q2031.14 304.004 2026.3 304.004 Q2021.59 304.004 2018.6 300.397 Q2015.65 296.749 2015.65 290.805 Q2015.65 288.715 2015.89 287.239 Q2016.14 285.763 2017 282.32 L2023.89 254.94 Q2025.07 249.816 2025.07 249.775 Q2025.07 249.283 2024.87 249.037 Q2024.71 248.75 2023.72 248.545 Q2022.74 248.34 2020.85 248.34 Q2020.07 248.34 2019.7 248.299 Q2019.38 248.258 2019.09 248.053 Q2018.84 247.807 2018.84 247.316 Q2018.84 246.619 2019.13 246.25 Q2019.46 245.84 2019.7 245.758 Q2019.95 245.676 2020.44 245.635 Q2021.14 245.594 2023.48 245.389 Q2025.81 245.143 2027.82 244.979 Q2029.83 244.815 2030.69 244.815 Q2031.18 244.815 2031.43 245.061 Q2031.71 245.266 2031.71 245.512 L2031.76 245.717 L2025.57 271.007 Q2030.44 265.966 2035.4 265.966 Q2040.36 265.966 2043.44 269.778 Q2046.55 273.59 2046.55 279.369 M2040.49 275.68 Q2040.49 271.786 2039.01 269.819 Q2037.58 267.81 2035.2 267.81 Q2033.19 267.81 2030.57 269.327 Q2027.94 270.843 2025.16 274.532 Q2024.62 275.229 2024.42 275.639 Q2024.25 276.049 2023.89 277.443 L2022.04 285.19 Q2020.69 290.477 2020.69 293.674 Q2020.69 298.019 2022.29 300.069 Q2023.89 302.118 2026.3 302.118 Q2028.85 302.118 2031.51 299.864 Q2034.17 297.609 2036.22 293.51 Q2037.49 290.805 2038.97 284.985 Q2040.49 279.123 2040.49 275.68 Z" fill="#000000" fill-rule="nonzero" fill-opacity="1" /><path clip-path="url(#clip360)" d="M2055.22 293.714 L2055.22 291.878 Q2062.27 291.878 2065.92 288.119 Q2066.92 288.119 2067.09 288.349 Q2067.27 288.578 2067.27 289.64 L2067.27 322.608 Q2067.27 324.358 2068.13 324.903 Q2068.99 325.448 2072.75 325.448 L2074.61 325.448 L2074.61 327.256 Q2072.55 327.084 2065.09 327.084 Q2057.63 327.084 2055.59 327.256 L2055.59 325.448 L2057.45 325.448 Q2061.16 325.448 2062.05 324.932 Q2062.93 324.387 2062.93 322.608 L2062.93 292.165 Q2059.86 293.714 2055.22 293.714 Z" fill="#000000" fill-rule="nonzero" fill-opacity="1" /><path clip-path="url(#clip360)" d="M1214.44 383.033 Q1213.33 388.321 1211.89 391.354 Q1209.6 395.986 1205.71 395.986 Q1202.75 395.986 1200.66 394.182 Q1198.57 392.379 1198.08 389.674 Q1192.71 395.986 1187.14 395.986 Q1182.22 395.986 1179.1 392.256 Q1175.99 388.485 1175.99 382.541 Q1175.99 376.557 1178.94 370.819 Q1181.93 365.08 1186.65 361.514 Q1191.36 357.948 1196.2 357.948 Q1201.32 357.948 1203.94 363.317 Q1204.15 361.842 1205.09 360.735 Q1206.03 359.628 1207.47 359.628 Q1208.57 359.628 1209.23 360.243 Q1209.89 360.817 1209.89 361.883 Q1209.89 362.416 1209.31 364.752 L1206.28 376.475 L1204.43 384.058 Q1203.74 386.845 1203.53 387.87 Q1203.37 388.895 1203.37 390.247 Q1203.37 394.1 1205.87 394.1 Q1207.1 394.1 1208.08 393.322 Q1209.07 392.543 1209.85 390.903 Q1210.62 389.264 1211.12 387.747 Q1211.61 386.189 1212.26 383.73 Q1212.47 382.746 1212.63 382.5 Q1212.84 382.214 1213.41 382.214 Q1214.44 382.214 1214.44 383.033 M1202.92 367.17 Q1202.92 366.802 1202.63 365.777 Q1202.34 364.752 1201.69 363.317 Q1201.03 361.883 1199.6 360.858 Q1198.2 359.792 1196.32 359.792 Q1193.78 359.792 1191.11 361.965 Q1188.49 364.137 1186.56 367.826 Q1185.09 370.778 1183.49 376.967 Q1181.93 383.156 1181.93 386.23 Q1181.93 388.116 1182.34 389.797 Q1182.79 391.436 1184.06 392.789 Q1185.33 394.1 1187.3 394.1 Q1192.1 394.1 1196.81 388.157 Q1197.71 387.132 1197.92 386.722 Q1198.16 386.271 1198.49 385.042 L1202.67 368.605 Q1202.92 367.375 1202.92 367.17 Z" fill="#000000" fill-rule="nonzero" fill-opacity="1" /><path clip-path="url(#clip360)" d="M1223.03 419.238 Q1223.03 418.177 1223.11 417.861 Q1223.23 417.545 1223.69 417.058 L1234.96 404.49 Q1241.13 397.547 1241.13 391.493 Q1241.13 387.562 1239.07 384.75 Q1237.03 381.938 1233.27 381.938 Q1230.69 381.938 1228.51 383.516 Q1226.33 385.094 1225.32 387.906 Q1225.49 387.849 1226.1 387.849 Q1227.56 387.849 1228.36 388.767 Q1229.2 389.685 1229.2 390.919 Q1229.2 392.497 1228.16 393.271 Q1227.16 394.017 1226.15 394.017 Q1225.75 394.017 1225.21 393.931 Q1224.69 393.845 1223.86 393.042 Q1223.03 392.21 1223.03 390.747 Q1223.03 386.644 1226.13 383.373 Q1229.25 380.102 1234.02 380.102 Q1239.41 380.102 1242.94 383.315 Q1246.5 386.5 1246.5 391.493 Q1246.5 393.243 1245.95 394.85 Q1245.44 396.428 1244.72 397.661 Q1244.03 398.895 1242.14 400.875 Q1240.24 402.855 1238.72 404.261 Q1237.2 405.667 1233.79 408.651 L1227.56 414.705 L1238.15 414.705 Q1243.31 414.705 1243.71 414.246 Q1244.29 413.414 1245 409.024 L1246.5 409.024 L1244.83 419.238 L1223.03 419.238 Z" fill="#000000" fill-rule="nonzero" fill-opacity="1" /><path clip-path="url(#clip360)" d="M2046.55 381.828 Q2046.55 387.73 2043.56 393.51 Q2040.61 399.248 2035.85 402.855 Q2031.14 406.462 2026.3 406.462 Q2021.59 406.462 2018.6 402.855 Q2015.65 399.207 2015.65 393.264 Q2015.65 391.173 2015.89 389.698 Q2016.14 388.222 2017 384.779 L2023.89 357.398 Q2025.07 352.275 2025.07 352.234 Q2025.07 351.742 2024.87 351.496 Q2024.71 351.209 2023.72 351.004 Q2022.74 350.799 2020.85 350.799 Q2020.07 350.799 2019.7 350.758 Q2019.38 350.717 2019.09 350.512 Q2018.84 350.266 2018.84 349.774 Q2018.84 349.078 2019.13 348.709 Q2019.46 348.299 2019.7 348.217 Q2019.95 348.135 2020.44 348.094 Q2021.14 348.053 2023.48 347.848 Q2025.81 347.602 2027.82 347.438 Q2029.83 347.274 2030.69 347.274 Q2031.18 347.274 2031.43 347.52 Q2031.71 347.725 2031.71 347.971 L2031.76 348.176 L2025.57 373.466 Q2030.44 368.424 2035.4 368.424 Q2040.36 368.424 2043.44 372.236 Q2046.55 376.048 2046.55 381.828 M2040.49 378.139 Q2040.49 374.245 2039.01 372.277 Q2037.58 370.269 2035.2 370.269 Q2033.19 370.269 2030.57 371.786 Q2027.94 373.302 2025.16 376.991 Q2024.62 377.688 2024.42 378.098 Q2024.25 378.508 2023.89 379.901 L2022.04 387.648 Q2020.69 392.936 2020.69 396.133 Q2020.69 400.478 2022.29 402.528 Q2023.89 404.577 2026.3 404.577 Q2028.85 404.577 2031.51 402.323 Q2034.17 400.068 2036.22 395.969 Q2037.49 393.264 2038.97 387.443 Q2040.49 381.582 2040.49 378.139 Z" fill="#000000" fill-rule="nonzero" fill-opacity="1" /><path clip-path="url(#clip360)" d="M2055.22 429.715 Q2055.22 428.653 2055.3 428.337 Q2055.42 428.022 2055.88 427.534 L2067.15 414.967 Q2073.32 408.023 2073.32 401.969 Q2073.32 398.038 2071.26 395.226 Q2069.22 392.414 2065.46 392.414 Q2062.88 392.414 2060.7 393.993 Q2058.52 395.571 2057.51 398.383 Q2057.68 398.325 2058.29 398.325 Q2059.75 398.325 2060.55 399.243 Q2061.39 400.161 2061.39 401.395 Q2061.39 402.973 2060.35 403.748 Q2059.35 404.494 2058.34 404.494 Q2057.94 404.494 2057.4 404.408 Q2056.88 404.322 2056.05 403.518 Q2055.22 402.686 2055.22 401.223 Q2055.22 397.12 2058.31 393.849 Q2061.44 390.578 2066.21 390.578 Q2071.6 390.578 2075.13 393.792 Q2078.69 396.977 2078.69 401.969 Q2078.69 403.719 2078.14 405.326 Q2077.63 406.904 2076.91 408.138 Q2076.22 409.372 2074.33 411.352 Q2072.43 413.331 2070.91 414.737 Q2069.39 416.143 2065.98 419.127 L2059.75 425.181 L2070.34 425.181 Q2075.5 425.181 2075.9 424.722 Q2076.48 423.89 2077.19 419.5 L2078.69 419.5 L2077.02 429.715 L2055.22 429.715 Z" fill="#000000" fill-rule="nonzero" fill-opacity="1" /><path clip-path="url(#clip360)" d="M1578.39 484.852 Q1577.28 490.14 1575.85 493.173 Q1573.55 497.805 1569.66 497.805 Q1566.71 497.805 1564.62 496.001 Q1562.53 494.198 1562.03 491.493 Q1556.66 497.805 1551.09 497.805 Q1546.17 497.805 1543.06 494.075 Q1539.94 490.304 1539.94 484.36 Q1539.94 478.376 1542.89 472.637 Q1545.88 466.899 1550.6 463.333 Q1555.31 459.767 1560.15 459.767 Q1565.27 459.767 1567.89 465.136 Q1568.1 463.661 1569.04 462.554 Q1569.99 461.447 1571.42 461.447 Q1572.53 461.447 1573.18 462.062 Q1573.84 462.636 1573.84 463.702 Q1573.84 464.235 1573.26 466.571 L1570.23 478.294 L1568.39 485.877 Q1567.69 488.664 1567.48 489.689 Q1567.32 490.714 1567.32 492.066 Q1567.32 495.919 1569.82 495.919 Q1571.05 495.919 1572.03 495.141 Q1573.02 494.362 1573.8 492.722 Q1574.58 491.083 1575.07 489.566 Q1575.56 488.008 1576.22 485.549 Q1576.42 484.565 1576.58 484.319 Q1576.79 484.033 1577.36 484.033 Q1578.39 484.033 1578.39 484.852 M1566.87 468.989 Q1566.87 468.621 1566.58 467.596 Q1566.3 466.571 1565.64 465.136 Q1564.98 463.702 1563.55 462.677 Q1562.16 461.611 1560.27 461.611 Q1557.73 461.611 1555.06 463.784 Q1552.44 465.956 1550.52 469.645 Q1549.04 472.596 1547.44 478.786 Q1545.88 484.975 1545.88 488.049 Q1545.88 489.935 1546.29 491.616 Q1546.74 493.255 1548.01 494.608 Q1549.29 495.919 1551.25 495.919 Q1556.05 495.919 1560.76 489.976 Q1561.66 488.951 1561.87 488.541 Q1562.12 488.09 1562.44 486.861 L1566.62 470.424 Q1566.87 469.194 1566.87 468.989 Z" fill="#000000" fill-rule="nonzero" fill-opacity="1" /><path clip-path="url(#clip360)" d="M1586.98 513.138 Q1586.98 511.388 1587.98 510.556 Q1588.99 509.724 1590.28 509.724 Q1591.63 509.724 1592.57 510.613 Q1593.55 511.474 1593.55 512.995 Q1593.55 514.63 1592.4 515.548 Q1591.28 516.466 1589.68 516.237 Q1591.08 518.59 1593.66 519.651 Q1596.27 520.713 1598.68 520.713 Q1601.21 520.713 1603.25 518.532 Q1605.31 516.352 1605.31 511.015 Q1605.31 506.481 1603.53 503.87 Q1601.78 501.259 1598.31 501.259 L1595.73 501.259 Q1594.84 501.259 1594.58 501.173 Q1594.32 501.087 1594.32 500.599 Q1594.32 500.026 1595.21 499.911 Q1596.1 499.911 1597.51 499.739 Q1600.92 499.624 1602.73 496.669 Q1604.37 493.914 1604.37 489.983 Q1604.37 486.397 1602.64 484.905 Q1600.95 483.384 1598.74 483.384 Q1596.68 483.384 1594.41 484.245 Q1592.14 485.105 1590.91 487.028 Q1594.55 487.028 1594.55 489.983 Q1594.55 491.274 1593.72 492.135 Q1592.92 492.967 1591.57 492.967 Q1590.28 492.967 1589.42 492.164 Q1588.56 491.332 1588.56 489.926 Q1588.56 486.569 1591.54 484.245 Q1594.55 481.921 1598.97 481.921 Q1603.33 481.921 1606.55 484.216 Q1609.79 486.511 1609.79 490.041 Q1609.79 493.512 1607.49 496.353 Q1605.2 499.193 1601.55 500.37 Q1606.03 501.259 1608.7 504.301 Q1611.37 507.313 1611.37 511.015 Q1611.37 515.606 1607.75 518.991 Q1604.14 522.348 1598.86 522.348 Q1593.98 522.348 1590.48 519.709 Q1586.98 517.069 1586.98 513.138 Z" fill="#000000" fill-rule="nonzero" fill-opacity="1" /><path clip-path="url(#clip360)" d="M2046.55 483.647 Q2046.55 489.549 2043.56 495.329 Q2040.61 501.067 2035.85 504.674 Q2031.14 508.281 2026.3 508.281 Q2021.59 508.281 2018.6 504.674 Q2015.65 501.026 2015.65 495.083 Q2015.65 492.992 2015.89 491.517 Q2016.14 490.041 2017 486.598 L2023.89 459.217 Q2025.07 454.094 2025.07 454.053 Q2025.07 453.561 2024.87 453.315 Q2024.71 453.028 2023.72 452.823 Q2022.74 452.618 2020.85 452.618 Q2020.07 452.618 2019.7 452.577 Q2019.38 452.536 2019.09 452.331 Q2018.84 452.085 2018.84 451.593 Q2018.84 450.896 2019.13 450.528 Q2019.46 450.118 2019.7 450.036 Q2019.95 449.954 2020.44 449.913 Q2021.14 449.872 2023.48 449.667 Q2025.81 449.421 2027.82 449.257 Q2029.83 449.093 2030.69 449.093 Q2031.18 449.093 2031.43 449.339 Q2031.71 449.544 2031.71 449.79 L2031.76 449.995 L2025.57 475.285 Q2030.44 470.243 2035.4 470.243 Q2040.36 470.243 2043.44 474.055 Q2046.55 477.867 2046.55 483.647 M2040.49 479.958 Q2040.49 476.064 2039.01 474.096 Q2037.58 472.088 2035.2 472.088 Q2033.19 472.088 2030.57 473.605 Q2027.94 475.121 2025.16 478.81 Q2024.62 479.507 2024.42 479.917 Q2024.25 480.327 2023.89 481.72 L2022.04 489.467 Q2020.69 494.755 2020.69 497.952 Q2020.69 502.297 2022.29 504.346 Q2023.89 506.396 2026.3 506.396 Q2028.85 506.396 2031.51 504.142 Q2034.17 501.887 2036.22 497.788 Q2037.49 495.083 2038.97 489.262 Q2040.49 483.401 2040.49 479.958 Z" fill="#000000" fill-rule="nonzero" fill-opacity="1" /><path clip-path="url(#clip360)" d="M2055.22 523.615 Q2055.22 521.864 2056.22 521.032 Q2057.22 520.2 2058.52 520.2 Q2059.86 520.2 2060.81 521.09 Q2061.79 521.95 2061.79 523.471 Q2061.79 525.107 2060.64 526.025 Q2059.52 526.943 2057.91 526.713 Q2059.32 529.066 2061.9 530.128 Q2064.51 531.189 2066.92 531.189 Q2069.45 531.189 2071.48 529.009 Q2073.55 526.828 2073.55 521.491 Q2073.55 516.958 2071.77 514.347 Q2070.02 511.736 2066.55 511.736 L2063.97 511.736 Q2063.08 511.736 2062.82 511.65 Q2062.56 511.564 2062.56 511.076 Q2062.56 510.502 2063.45 510.387 Q2064.34 510.387 2065.75 510.215 Q2069.16 510.1 2070.97 507.145 Q2072.6 504.391 2072.6 500.46 Q2072.6 496.873 2070.88 495.381 Q2069.19 493.86 2066.98 493.86 Q2064.91 493.86 2062.65 494.721 Q2060.38 495.582 2059.15 497.504 Q2062.79 497.504 2062.79 500.46 Q2062.79 501.751 2061.96 502.612 Q2061.16 503.444 2059.81 503.444 Q2058.52 503.444 2057.66 502.64 Q2056.79 501.808 2056.79 500.402 Q2056.79 497.045 2059.78 494.721 Q2062.79 492.397 2067.21 492.397 Q2071.57 492.397 2074.78 494.693 Q2078.03 496.988 2078.03 500.517 Q2078.03 503.989 2075.73 506.829 Q2073.44 509.67 2069.79 510.846 Q2074.27 511.736 2076.94 514.777 Q2079.6 517.79 2079.6 521.491 Q2079.6 526.082 2075.99 529.468 Q2072.37 532.825 2067.09 532.825 Q2062.22 532.825 2058.72 530.185 Q2055.22 527.545 2055.22 523.615 Z" fill="#000000" fill-rule="nonzero" fill-opacity="1" /><path clip-path="url(#clip360)" d="M1578.39 587.754 Q1577.28 593.042 1575.85 596.075 Q1573.55 600.707 1569.66 600.707 Q1566.71 600.707 1564.62 598.903 Q1562.53 597.1 1562.03 594.394 Q1556.66 600.707 1551.09 600.707 Q1546.17 600.707 1543.06 596.977 Q1539.94 593.206 1539.94 587.262 Q1539.94 581.278 1542.89 575.539 Q1545.88 569.801 1550.6 566.235 Q1555.31 562.669 1560.15 562.669 Q1565.27 562.669 1567.89 568.038 Q1568.1 566.563 1569.04 565.456 Q1569.99 564.349 1571.42 564.349 Q1572.53 564.349 1573.18 564.964 Q1573.84 565.538 1573.84 566.604 Q1573.84 567.136 1573.26 569.473 L1570.23 581.196 L1568.39 588.779 Q1567.69 591.566 1567.48 592.591 Q1567.32 593.616 1567.32 594.968 Q1567.32 598.821 1569.82 598.821 Q1571.05 598.821 1572.03 598.042 Q1573.02 597.264 1573.8 595.624 Q1574.58 593.984 1575.07 592.468 Q1575.56 590.91 1576.22 588.451 Q1576.42 587.467 1576.58 587.221 Q1576.79 586.934 1577.36 586.934 Q1578.39 586.934 1578.39 587.754 M1566.87 571.891 Q1566.87 571.522 1566.58 570.498 Q1566.3 569.473 1565.64 568.038 Q1564.98 566.604 1563.55 565.579 Q1562.16 564.513 1560.27 564.513 Q1557.73 564.513 1555.06 566.686 Q1552.44 568.858 1550.52 572.547 Q1549.04 575.498 1547.44 581.688 Q1545.88 587.877 1545.88 590.951 Q1545.88 592.837 1546.29 594.517 Q1546.74 596.157 1548.01 597.51 Q1549.29 598.821 1551.25 598.821 Q1556.05 598.821 1560.76 592.878 Q1561.66 591.853 1561.87 591.443 Q1562.12 590.992 1562.44 589.763 L1566.62 573.326 Q1566.87 572.096 1566.87 571.891 Z" fill="#000000" fill-rule="nonzero" fill-opacity="1" /><path clip-path="url(#clip360)" d="M1586.98 614.655 L1586.98 612.847 L1605.03 585.274 Q1605.48 584.556 1606.2 584.585 Q1606.86 584.585 1607.01 584.843 Q1607.15 585.101 1607.15 586.106 L1607.15 612.847 L1613.03 612.847 L1613.03 614.655 L1607.15 614.655 L1607.15 619.762 Q1607.15 621.455 1607.84 622 Q1608.55 622.545 1611.6 622.545 L1612.83 622.545 L1612.83 624.353 Q1610.42 624.181 1604.85 624.181 Q1599.32 624.181 1596.91 624.353 L1596.91 622.545 L1598.14 622.545 Q1601.18 622.545 1601.9 622.029 Q1602.62 621.483 1602.62 619.762 L1602.62 614.655 L1586.98 614.655 M1588.64 612.847 L1602.96 612.847 L1602.96 590.926 L1588.64 612.847 Z" fill="#000000" fill-rule="nonzero" fill-opacity="1" /><path clip-path="url(#clip360)" d="M1864.58 586.549 Q1864.58 592.451 1861.58 598.231 Q1858.63 603.969 1853.88 607.576 Q1849.16 611.183 1844.33 611.183 Q1839.61 611.183 1836.62 607.576 Q1833.67 603.928 1833.67 597.985 Q1833.67 595.894 1833.92 594.419 Q1834.16 592.943 1835.02 589.5 L1841.91 562.119 Q1843.1 556.995 1843.1 556.954 Q1843.1 556.463 1842.89 556.217 Q1842.73 555.93 1841.75 555.725 Q1840.76 555.52 1838.88 555.52 Q1838.1 555.52 1837.73 555.479 Q1837.4 555.438 1837.11 555.233 Q1836.87 554.987 1836.87 554.495 Q1836.87 553.798 1837.16 553.429 Q1837.48 553.019 1837.73 552.937 Q1837.97 552.856 1838.47 552.815 Q1839.16 552.774 1841.5 552.569 Q1843.84 552.323 1845.84 552.159 Q1847.85 551.995 1848.71 551.995 Q1849.21 551.995 1849.45 552.241 Q1849.74 552.446 1849.74 552.692 L1849.78 552.896 L1843.59 578.187 Q1848.47 573.145 1853.43 573.145 Q1858.39 573.145 1861.46 576.957 Q1864.58 580.769 1864.58 586.549 M1858.51 582.86 Q1858.51 578.966 1857.03 576.998 Q1855.6 574.99 1853.22 574.99 Q1851.21 574.99 1848.59 576.506 Q1845.97 578.023 1843.18 581.712 Q1842.65 582.409 1842.44 582.819 Q1842.28 583.229 1841.91 584.622 L1840.07 592.369 Q1838.71 597.657 1838.71 600.854 Q1838.71 605.199 1840.31 607.248 Q1841.91 609.298 1844.33 609.298 Q1846.87 609.298 1849.53 607.043 Q1852.2 604.789 1854.25 600.69 Q1855.52 597.985 1856.99 592.164 Q1858.51 586.303 1858.51 582.86 Z" fill="#000000" fill-rule="nonzero" fill-opacity="1" /><path clip-path="url(#clip360)" d="M1873.24 625.131 L1873.24 623.324 L1891.29 595.75 Q1891.75 595.033 1892.46 595.061 Q1893.12 595.061 1893.27 595.32 Q1893.41 595.578 1893.41 596.582 L1893.41 623.324 L1899.29 623.324 L1899.29 625.131 L1893.41 625.131 L1893.41 630.238 Q1893.41 631.931 1894.1 632.476 Q1894.82 633.022 1897.86 633.022 L1899.09 633.022 L1899.09 634.829 Q1896.68 634.657 1891.12 634.657 Q1885.58 634.657 1883.17 634.829 L1883.17 633.022 L1884.4 633.022 Q1887.44 633.022 1888.16 632.505 Q1888.88 631.96 1888.88 630.238 L1888.88 625.131 L1873.24 625.131 M1874.9 623.324 L1889.22 623.324 L1889.22 601.402 L1874.9 623.324 Z" fill="#000000" fill-rule="nonzero" fill-opacity="1" /><path clip-path="url(#clip360)" d="M1669.38 689.77 Q1668.27 695.058 1666.83 698.091 Q1664.54 702.723 1660.65 702.723 Q1657.69 702.723 1655.6 700.919 Q1653.51 699.115 1653.02 696.41 Q1647.65 702.723 1642.08 702.723 Q1637.16 702.723 1634.04 698.993 Q1630.93 695.222 1630.93 689.278 Q1630.93 683.294 1633.88 677.555 Q1636.87 671.817 1641.59 668.251 Q1646.3 664.684 1651.14 664.684 Q1656.26 664.684 1658.88 670.054 Q1659.09 668.578 1660.03 667.472 Q1660.97 666.365 1662.41 666.365 Q1663.51 666.365 1664.17 666.98 Q1664.83 667.554 1664.83 668.619 Q1664.83 669.152 1664.25 671.489 L1661.22 683.212 L1659.37 690.795 Q1658.68 693.582 1658.47 694.607 Q1658.31 695.631 1658.31 696.984 Q1658.31 700.837 1660.81 700.837 Q1662.04 700.837 1663.02 700.058 Q1664.01 699.279 1664.78 697.64 Q1665.56 696 1666.06 694.484 Q1666.55 692.926 1667.2 690.467 Q1667.41 689.483 1667.57 689.237 Q1667.78 688.95 1668.35 688.95 Q1669.38 688.95 1669.38 689.77 M1657.86 673.907 Q1657.86 673.538 1657.57 672.513 Q1657.28 671.489 1656.63 670.054 Q1655.97 668.619 1654.54 667.595 Q1653.14 666.529 1651.26 666.529 Q1648.72 666.529 1646.05 668.701 Q1643.43 670.874 1641.5 674.563 Q1640.03 677.514 1638.43 683.704 Q1636.87 689.893 1636.87 692.967 Q1636.87 694.853 1637.28 696.533 Q1637.73 698.173 1639 699.525 Q1640.27 700.837 1642.24 700.837 Q1647.04 700.837 1651.75 694.894 Q1652.65 693.869 1652.86 693.459 Q1653.1 693.008 1653.43 691.778 L1657.61 675.342 Q1657.86 674.112 1657.86 673.907 Z" fill="#000000" fill-rule="nonzero" fill-opacity="1" /><path clip-path="url(#clip360)" d="M1677.97 716.506 Q1677.97 714.756 1678.91 714.096 Q1679.86 713.407 1680.86 713.407 Q1682.21 713.407 1682.99 714.268 Q1683.79 715.1 1683.79 716.277 Q1683.79 717.453 1682.99 718.314 Q1682.21 719.146 1680.86 719.146 Q1680.2 719.146 1679.86 719.031 Q1680.63 721.728 1682.99 723.679 Q1685.37 725.63 1688.5 725.63 Q1692.43 725.63 1694.78 721.814 Q1696.19 719.347 1696.19 713.752 Q1696.19 708.817 1695.12 706.349 Q1693.49 702.59 1690.13 702.59 Q1685.37 702.59 1682.56 706.693 Q1682.21 707.21 1681.81 707.239 Q1681.24 707.239 1681.09 706.923 Q1680.98 706.579 1680.98 705.689 L1680.98 688.302 Q1680.98 686.896 1681.55 686.896 Q1681.78 686.896 1682.27 687.068 Q1685.97 688.703 1690.07 688.732 Q1694.29 688.732 1698.08 687.01 Q1698.37 686.838 1698.54 686.838 Q1699.11 686.838 1699.14 687.498 Q1699.14 687.728 1698.65 688.416 Q1698.19 689.076 1697.19 689.966 Q1696.19 690.826 1694.89 691.659 Q1693.6 692.491 1691.71 693.064 Q1689.84 693.61 1687.78 693.61 Q1685.31 693.61 1682.79 692.835 L1682.79 704.283 Q1685.83 701.299 1690.25 701.299 Q1694.95 701.299 1698.19 705.087 Q1701.44 708.874 1701.44 714.153 Q1701.44 719.691 1697.59 723.479 Q1693.78 727.266 1688.61 727.266 Q1683.91 727.266 1680.92 723.909 Q1677.97 720.552 1677.97 716.506 Z" fill="#000000" fill-rule="nonzero" fill-opacity="1" /><path clip-path="url(#clip360)" d="M1864.58 688.565 Q1864.58 694.467 1861.58 700.246 Q1858.63 705.985 1853.88 709.592 Q1849.16 713.199 1844.33 713.199 Q1839.61 713.199 1836.62 709.592 Q1833.67 705.944 1833.67 700.001 Q1833.67 697.91 1833.92 696.434 Q1834.16 694.959 1835.02 691.516 L1841.91 664.135 Q1843.1 659.011 1843.1 658.97 Q1843.1 658.478 1842.89 658.232 Q1842.73 657.946 1841.75 657.741 Q1840.76 657.536 1838.88 657.536 Q1838.1 657.536 1837.73 657.495 Q1837.4 657.454 1837.11 657.249 Q1836.87 657.003 1836.87 656.511 Q1836.87 655.814 1837.16 655.445 Q1837.48 655.035 1837.73 654.953 Q1837.97 654.871 1838.47 654.83 Q1839.16 654.789 1841.5 654.584 Q1843.84 654.338 1845.84 654.175 Q1847.85 654.011 1848.71 654.011 Q1849.21 654.011 1849.45 654.257 Q1849.74 654.461 1849.74 654.707 L1849.78 654.912 L1843.59 680.203 Q1848.47 675.161 1853.43 675.161 Q1858.39 675.161 1861.46 678.973 Q1864.58 682.785 1864.58 688.565 M1858.51 684.876 Q1858.51 680.982 1857.03 679.014 Q1855.6 677.006 1853.22 677.006 Q1851.21 677.006 1848.59 678.522 Q1845.97 680.039 1843.18 683.728 Q1842.65 684.425 1842.44 684.835 Q1842.28 685.244 1841.91 686.638 L1840.07 694.385 Q1838.71 699.673 1838.71 702.87 Q1838.71 707.215 1840.31 709.264 Q1841.91 711.314 1844.33 711.314 Q1846.87 711.314 1849.53 709.059 Q1852.2 706.805 1854.25 702.706 Q1855.52 700.001 1856.99 694.18 Q1858.51 688.319 1858.51 684.876 Z" fill="#000000" fill-rule="nonzero" fill-opacity="1" /><path clip-path="url(#clip360)" d="M1873.24 726.983 Q1873.24 725.233 1874.19 724.573 Q1875.13 723.884 1876.14 723.884 Q1877.49 723.884 1878.26 724.745 Q1879.06 725.577 1879.06 726.753 Q1879.06 727.93 1878.26 728.79 Q1877.49 729.623 1876.14 729.623 Q1875.48 729.623 1875.13 729.508 Q1875.91 732.205 1878.26 734.156 Q1880.64 736.107 1883.77 736.107 Q1887.7 736.107 1890.05 732.291 Q1891.46 729.823 1891.46 724.228 Q1891.46 719.293 1890.4 716.826 Q1888.76 713.067 1885.41 713.067 Q1880.64 713.067 1877.83 717.17 Q1877.49 717.686 1877.09 717.715 Q1876.51 717.715 1876.37 717.4 Q1876.25 717.055 1876.25 716.166 L1876.25 698.778 Q1876.25 697.372 1876.83 697.372 Q1877.06 697.372 1877.54 697.544 Q1881.25 699.18 1885.35 699.208 Q1889.57 699.208 1893.35 697.487 Q1893.64 697.315 1893.81 697.315 Q1894.39 697.315 1894.42 697.975 Q1894.42 698.204 1893.93 698.893 Q1893.47 699.553 1892.46 700.442 Q1891.46 701.303 1890.17 702.135 Q1888.88 702.967 1886.98 703.541 Q1885.12 704.086 1883.05 704.086 Q1880.59 704.086 1878.06 703.312 L1878.06 714.76 Q1881.1 711.776 1885.52 711.776 Q1890.23 711.776 1893.47 715.563 Q1896.71 719.351 1896.71 724.63 Q1896.71 730.168 1892.87 733.955 Q1889.05 737.743 1883.89 737.743 Q1879.18 737.743 1876.2 734.385 Q1873.24 731.028 1873.24 726.983 Z" fill="#000000" fill-rule="nonzero" fill-opacity="1" /></svg>
