<?xml version="1.0" encoding="utf-8"?>
<svg xmlns="http://www.w3.org/2000/svg" xmlns:xlink="http://www.w3.org/1999/xlink" width="600" height="400" viewBox="0 0 2400 1600">
<defs>
  <clipPath id="clip420">
    <rect x="0" y="0" width="2400" height="1600"/>
  </clipPath>
</defs>
<path clip-path="url(#clip420)" d="M0 1600 L2400 1600 L2400 0 L0 0  Z" fill="#ffffff" fill-rule="evenodd" fill-opacity="1"/>
<defs>
  <clipPath id="clip421">
    <rect x="480" y="0" width="1681" height="1600"/>
  </clipPath>
</defs>
<path clip-path="url(#clip420)" d="M193.936 1486.45 L2352.76 1486.45 L2352.76 47.2441 L193.936 47.2441  Z" fill="#ffffff" fill-rule="evenodd" fill-opacity="1"/>
<defs>
  <clipPath id="clip422">
    <rect x="193" y="47" width="2160" height="1440"/>
  </clipPath>
</defs>
<polyline clip-path="url(#clip422)" style="stroke:#000000; stroke-linecap:round; stroke-linejoin:round; stroke-width:2; stroke-opacity:0.1; fill:none" points="347.608,1486.45 347.608,47.2441 "/>
<polyline clip-path="url(#clip422)" style="stroke:#000000; stroke-linecap:round; stroke-linejoin:round; stroke-width:2; stroke-opacity:0.1; fill:none" points="810.477,1486.45 810.477,47.2441 "/>
<polyline clip-path="url(#clip422)" style="stroke:#000000; stroke-linecap:round; stroke-linejoin:round; stroke-width:2; stroke-opacity:0.1; fill:none" points="1273.35,1486.45 1273.35,47.2441 "/>
<polyline clip-path="url(#clip422)" style="stroke:#000000; stroke-linecap:round; stroke-linejoin:round; stroke-width:2; stroke-opacity:0.1; fill:none" points="1736.21,1486.45 1736.21,47.2441 "/>
<polyline clip-path="url(#clip422)" style="stroke:#000000; stroke-linecap:round; stroke-linejoin:round; stroke-width:2; stroke-opacity:0.1; fill:none" points="2199.08,1486.45 2199.08,47.2441 "/>
<polyline clip-path="url(#clip420)" style="stroke:#000000; stroke-linecap:round; stroke-linejoin:round; stroke-width:4; stroke-opacity:1; fill:none" points="193.936,1486.45 2352.76,1486.45 "/>
<polyline clip-path="url(#clip420)" style="stroke:#000000; stroke-linecap:round; stroke-linejoin:round; stroke-width:2; stroke-opacity:0.5; fill:none" points="193.936,47.2441 2352.76,47.2441 "/>
<polyline clip-path="url(#clip420)" style="stroke:#000000; stroke-linecap:round; stroke-linejoin:round; stroke-width:4; stroke-opacity:1; fill:none" points="347.608,1486.45 347.608,1467.55 "/>
<polyline clip-path="url(#clip420)" style="stroke:#000000; stroke-linecap:round; stroke-linejoin:round; stroke-width:4; stroke-opacity:1; fill:none" points="810.477,1486.45 810.477,1467.55 "/>
<polyline clip-path="url(#clip420)" style="stroke:#000000; stroke-linecap:round; stroke-linejoin:round; stroke-width:4; stroke-opacity:1; fill:none" points="1273.35,1486.45 1273.35,1467.55 "/>
<polyline clip-path="url(#clip420)" style="stroke:#000000; stroke-linecap:round; stroke-linejoin:round; stroke-width:4; stroke-opacity:1; fill:none" points="1736.21,1486.45 1736.21,1467.55 "/>
<polyline clip-path="url(#clip420)" style="stroke:#000000; stroke-linecap:round; stroke-linejoin:round; stroke-width:4; stroke-opacity:1; fill:none" points="2199.08,1486.45 2199.08,1467.55 "/>
<path clip-path="url(#clip420)" d="M324.993 1517.37 Q321.382 1517.37 319.553 1520.93 Q317.747 1524.47 317.747 1531.6 Q317.747 1538.71 319.553 1542.27 Q321.382 1545.82 324.993 1545.82 Q328.627 1545.82 330.433 1542.27 Q332.261 1538.71 332.261 1531.6 Q332.261 1524.47 330.433 1520.93 Q328.627 1517.37 324.993 1517.37 M324.993 1513.66 Q330.803 1513.66 333.859 1518.27 Q336.937 1522.85 336.937 1531.6 Q336.937 1540.33 333.859 1544.94 Q330.803 1549.52 324.993 1549.52 Q319.183 1549.52 316.104 1544.94 Q313.048 1540.33 313.048 1531.6 Q313.048 1522.85 316.104 1518.27 Q319.183 1513.66 324.993 1513.66 Z" fill="#000000" fill-rule="nonzero" fill-opacity="1" /><path clip-path="url(#clip420)" d="M345.155 1542.97 L350.039 1542.97 L350.039 1548.85 L345.155 1548.85 L345.155 1542.97 Z" fill="#000000" fill-rule="nonzero" fill-opacity="1" /><path clip-path="url(#clip420)" d="M370.224 1517.37 Q366.613 1517.37 364.784 1520.93 Q362.979 1524.47 362.979 1531.6 Q362.979 1538.71 364.784 1542.27 Q366.613 1545.82 370.224 1545.82 Q373.858 1545.82 375.664 1542.27 Q377.493 1538.71 377.493 1531.6 Q377.493 1524.47 375.664 1520.93 Q373.858 1517.37 370.224 1517.37 M370.224 1513.66 Q376.034 1513.66 379.09 1518.27 Q382.168 1522.85 382.168 1531.6 Q382.168 1540.33 379.09 1544.94 Q376.034 1549.52 370.224 1549.52 Q364.414 1549.52 361.335 1544.94 Q358.28 1540.33 358.28 1531.6 Q358.28 1522.85 361.335 1518.27 Q364.414 1513.66 370.224 1513.66 Z" fill="#000000" fill-rule="nonzero" fill-opacity="1" /><path clip-path="url(#clip420)" d="M788.359 1517.37 Q784.748 1517.37 782.919 1520.93 Q781.114 1524.47 781.114 1531.6 Q781.114 1538.71 782.919 1542.27 Q784.748 1545.82 788.359 1545.82 Q791.993 1545.82 793.799 1542.27 Q795.628 1538.71 795.628 1531.6 Q795.628 1524.47 793.799 1520.93 Q791.993 1517.37 788.359 1517.37 M788.359 1513.66 Q794.169 1513.66 797.225 1518.27 Q800.304 1522.85 800.304 1531.6 Q800.304 1540.33 797.225 1544.94 Q794.169 1549.52 788.359 1549.52 Q782.549 1549.52 779.47 1544.94 Q776.415 1540.33 776.415 1531.6 Q776.415 1522.85 779.47 1518.27 Q782.549 1513.66 788.359 1513.66 Z" fill="#000000" fill-rule="nonzero" fill-opacity="1" /><path clip-path="url(#clip420)" d="M808.521 1542.97 L813.405 1542.97 L813.405 1548.85 L808.521 1548.85 L808.521 1542.97 Z" fill="#000000" fill-rule="nonzero" fill-opacity="1" /><path clip-path="url(#clip420)" d="M823.637 1514.29 L841.993 1514.29 L841.993 1518.22 L827.919 1518.22 L827.919 1526.7 Q828.938 1526.35 829.956 1526.19 Q830.975 1526 831.993 1526 Q837.78 1526 841.16 1529.17 Q844.54 1532.34 844.54 1537.76 Q844.54 1543.34 841.067 1546.44 Q837.595 1549.52 831.276 1549.52 Q829.1 1549.52 826.831 1549.15 Q824.586 1548.78 822.179 1548.04 L822.179 1543.34 Q824.262 1544.47 826.484 1545.03 Q828.706 1545.58 831.183 1545.58 Q835.188 1545.58 837.526 1543.48 Q839.864 1541.37 839.864 1537.76 Q839.864 1534.15 837.526 1532.04 Q835.188 1529.94 831.183 1529.94 Q829.308 1529.94 827.433 1530.35 Q825.581 1530.77 823.637 1531.65 L823.637 1514.29 Z" fill="#000000" fill-rule="nonzero" fill-opacity="1" /><path clip-path="url(#clip420)" d="M1240.5 1544.91 L1248.14 1544.91 L1248.14 1518.55 L1239.83 1520.21 L1239.83 1515.95 L1248.09 1514.29 L1252.77 1514.29 L1252.77 1544.91 L1260.41 1544.91 L1260.41 1548.85 L1240.5 1548.85 L1240.5 1544.91 Z" fill="#000000" fill-rule="nonzero" fill-opacity="1" /><path clip-path="url(#clip420)" d="M1269.85 1542.97 L1274.73 1542.97 L1274.73 1548.85 L1269.85 1548.85 L1269.85 1542.97 Z" fill="#000000" fill-rule="nonzero" fill-opacity="1" /><path clip-path="url(#clip420)" d="M1294.92 1517.37 Q1291.31 1517.37 1289.48 1520.93 Q1287.67 1524.47 1287.67 1531.6 Q1287.67 1538.71 1289.48 1542.27 Q1291.31 1545.82 1294.92 1545.82 Q1298.55 1545.82 1300.36 1542.27 Q1302.19 1538.71 1302.19 1531.6 Q1302.19 1524.47 1300.36 1520.93 Q1298.55 1517.37 1294.92 1517.37 M1294.92 1513.66 Q1300.73 1513.66 1303.79 1518.27 Q1306.86 1522.85 1306.86 1531.6 Q1306.86 1540.33 1303.79 1544.94 Q1300.73 1549.52 1294.92 1549.52 Q1289.11 1549.52 1286.03 1544.94 Q1282.98 1540.33 1282.98 1531.6 Q1282.98 1522.85 1286.03 1518.27 Q1289.11 1513.66 1294.92 1513.66 Z" fill="#000000" fill-rule="nonzero" fill-opacity="1" /><path clip-path="url(#clip420)" d="M1703.87 1544.91 L1711.5 1544.91 L1711.5 1518.55 L1703.19 1520.21 L1703.19 1515.95 L1711.46 1514.29 L1716.13 1514.29 L1716.13 1544.91 L1723.77 1544.91 L1723.77 1548.85 L1703.87 1548.85 L1703.87 1544.91 Z" fill="#000000" fill-rule="nonzero" fill-opacity="1" /><path clip-path="url(#clip420)" d="M1733.22 1542.97 L1738.1 1542.97 L1738.1 1548.85 L1733.22 1548.85 L1733.22 1542.97 Z" fill="#000000" fill-rule="nonzero" fill-opacity="1" /><path clip-path="url(#clip420)" d="M1748.33 1514.29 L1766.69 1514.29 L1766.69 1518.22 L1752.62 1518.22 L1752.62 1526.7 Q1753.63 1526.35 1754.65 1526.19 Q1755.67 1526 1756.69 1526 Q1762.48 1526 1765.86 1529.17 Q1769.24 1532.34 1769.24 1537.76 Q1769.24 1543.34 1765.76 1546.44 Q1762.29 1549.52 1755.97 1549.52 Q1753.8 1549.52 1751.53 1549.15 Q1749.28 1548.78 1746.87 1548.04 L1746.87 1543.34 Q1748.96 1544.47 1751.18 1545.03 Q1753.4 1545.58 1755.88 1545.58 Q1759.88 1545.58 1762.22 1543.48 Q1764.56 1541.37 1764.56 1537.76 Q1764.56 1534.15 1762.22 1532.04 Q1759.88 1529.94 1755.88 1529.94 Q1754 1529.94 1752.13 1530.35 Q1750.28 1530.77 1748.33 1531.65 L1748.33 1514.29 Z" fill="#000000" fill-rule="nonzero" fill-opacity="1" /><path clip-path="url(#clip420)" d="M2170.32 1544.91 L2186.64 1544.91 L2186.64 1548.85 L2164.7 1548.85 L2164.7 1544.91 Q2167.36 1542.16 2171.94 1537.53 Q2176.55 1532.88 2177.73 1531.53 Q2179.97 1529.01 2180.85 1527.27 Q2181.76 1525.51 2181.76 1523.82 Q2181.76 1521.07 2179.81 1519.33 Q2177.89 1517.6 2174.79 1517.6 Q2172.59 1517.6 2170.14 1518.36 Q2167.71 1519.13 2164.93 1520.68 L2164.93 1515.95 Q2167.75 1514.82 2170.21 1514.24 Q2172.66 1513.66 2174.7 1513.66 Q2180.07 1513.66 2183.26 1516.35 Q2186.46 1519.03 2186.46 1523.52 Q2186.46 1525.65 2185.65 1527.57 Q2184.86 1529.47 2182.75 1532.07 Q2182.17 1532.74 2179.07 1535.95 Q2175.97 1539.15 2170.32 1544.91 Z" fill="#000000" fill-rule="nonzero" fill-opacity="1" /><path clip-path="url(#clip420)" d="M2196.46 1542.97 L2201.34 1542.97 L2201.34 1548.85 L2196.46 1548.85 L2196.46 1542.97 Z" fill="#000000" fill-rule="nonzero" fill-opacity="1" /><path clip-path="url(#clip420)" d="M2221.53 1517.37 Q2217.91 1517.37 2216.09 1520.93 Q2214.28 1524.47 2214.28 1531.6 Q2214.28 1538.71 2216.09 1542.27 Q2217.91 1545.82 2221.53 1545.82 Q2225.16 1545.82 2226.97 1542.27 Q2228.79 1538.71 2228.79 1531.6 Q2228.79 1524.47 2226.97 1520.93 Q2225.16 1517.37 2221.53 1517.37 M2221.53 1513.66 Q2227.34 1513.66 2230.39 1518.27 Q2233.47 1522.85 2233.47 1531.6 Q2233.47 1540.33 2230.39 1544.94 Q2227.34 1549.52 2221.53 1549.52 Q2215.72 1549.52 2212.64 1544.94 Q2209.58 1540.33 2209.58 1531.6 Q2209.58 1522.85 2212.64 1518.27 Q2215.72 1513.66 2221.53 1513.66 Z" fill="#000000" fill-rule="nonzero" fill-opacity="1" /><polyline clip-path="url(#clip422)" style="stroke:#000000; stroke-linecap:round; stroke-linejoin:round; stroke-width:2; stroke-opacity:0.1; fill:none" points="193.936,1401.79 2352.76,1401.79 "/>
<polyline clip-path="url(#clip422)" style="stroke:#000000; stroke-linecap:round; stroke-linejoin:round; stroke-width:2; stroke-opacity:0.1; fill:none" points="193.936,1190.14 2352.76,1190.14 "/>
<polyline clip-path="url(#clip422)" style="stroke:#000000; stroke-linecap:round; stroke-linejoin:round; stroke-width:2; stroke-opacity:0.1; fill:none" points="193.936,978.494 2352.76,978.494 "/>
<polyline clip-path="url(#clip422)" style="stroke:#000000; stroke-linecap:round; stroke-linejoin:round; stroke-width:2; stroke-opacity:0.1; fill:none" points="193.936,766.846 2352.76,766.846 "/>
<polyline clip-path="url(#clip422)" style="stroke:#000000; stroke-linecap:round; stroke-linejoin:round; stroke-width:2; stroke-opacity:0.1; fill:none" points="193.936,555.198 2352.76,555.198 "/>
<polyline clip-path="url(#clip422)" style="stroke:#000000; stroke-linecap:round; stroke-linejoin:round; stroke-width:2; stroke-opacity:0.1; fill:none" points="193.936,343.551 2352.76,343.551 "/>
<polyline clip-path="url(#clip422)" style="stroke:#000000; stroke-linecap:round; stroke-linejoin:round; stroke-width:2; stroke-opacity:0.1; fill:none" points="193.936,131.903 2352.76,131.903 "/>
<polyline clip-path="url(#clip420)" style="stroke:#000000; stroke-linecap:round; stroke-linejoin:round; stroke-width:4; stroke-opacity:1; fill:none" points="193.936,1486.45 193.936,47.2441 "/>
<polyline clip-path="url(#clip420)" style="stroke:#000000; stroke-linecap:round; stroke-linejoin:round; stroke-width:2; stroke-opacity:0.5; fill:none" points="2352.76,1486.45 2352.76,47.2441 "/>
<polyline clip-path="url(#clip420)" style="stroke:#000000; stroke-linecap:round; stroke-linejoin:round; stroke-width:4; stroke-opacity:1; fill:none" points="193.936,1401.79 212.834,1401.79 "/>
<polyline clip-path="url(#clip420)" style="stroke:#000000; stroke-linecap:round; stroke-linejoin:round; stroke-width:4; stroke-opacity:1; fill:none" points="193.936,1190.14 212.834,1190.14 "/>
<polyline clip-path="url(#clip420)" style="stroke:#000000; stroke-linecap:round; stroke-linejoin:round; stroke-width:4; stroke-opacity:1; fill:none" points="193.936,978.494 212.834,978.494 "/>
<polyline clip-path="url(#clip420)" style="stroke:#000000; stroke-linecap:round; stroke-linejoin:round; stroke-width:4; stroke-opacity:1; fill:none" points="193.936,766.846 212.834,766.846 "/>
<polyline clip-path="url(#clip420)" style="stroke:#000000; stroke-linecap:round; stroke-linejoin:round; stroke-width:4; stroke-opacity:1; fill:none" points="193.936,555.198 212.834,555.198 "/>
<polyline clip-path="url(#clip420)" style="stroke:#000000; stroke-linecap:round; stroke-linejoin:round; stroke-width:4; stroke-opacity:1; fill:none" points="193.936,343.551 212.834,343.551 "/>
<polyline clip-path="url(#clip420)" style="stroke:#000000; stroke-linecap:round; stroke-linejoin:round; stroke-width:4; stroke-opacity:1; fill:none" points="193.936,131.903 212.834,131.903 "/>
<path clip-path="url(#clip420)" d="M51.9875 1402.24 L81.6633 1402.24 L81.6633 1406.18 L51.9875 1406.18 L51.9875 1402.24 Z" fill="#000000" fill-rule="nonzero" fill-opacity="1" /><path clip-path="url(#clip420)" d="M92.566 1415.13 L100.205 1415.13 L100.205 1388.77 L91.8947 1390.43 L91.8947 1386.18 L100.159 1384.51 L104.834 1384.51 L104.834 1415.13 L112.473 1415.13 L112.473 1419.07 L92.566 1419.07 L92.566 1415.13 Z" fill="#000000" fill-rule="nonzero" fill-opacity="1" /><path clip-path="url(#clip420)" d="M121.918 1413.19 L126.802 1413.19 L126.802 1419.07 L121.918 1419.07 L121.918 1413.19 Z" fill="#000000" fill-rule="nonzero" fill-opacity="1" /><path clip-path="url(#clip420)" d="M137.033 1384.51 L155.39 1384.51 L155.39 1388.44 L141.316 1388.44 L141.316 1396.92 Q142.334 1396.57 143.353 1396.41 Q144.371 1396.22 145.39 1396.22 Q151.177 1396.22 154.556 1399.39 Q157.936 1402.56 157.936 1407.98 Q157.936 1413.56 154.464 1416.66 Q150.992 1419.74 144.672 1419.74 Q142.496 1419.74 140.228 1419.37 Q137.982 1419 135.575 1418.26 L135.575 1413.56 Q137.658 1414.69 139.881 1415.25 Q142.103 1415.8 144.58 1415.8 Q148.584 1415.8 150.922 1413.7 Q153.26 1411.59 153.26 1407.98 Q153.26 1404.37 150.922 1402.26 Q148.584 1400.16 144.58 1400.16 Q142.705 1400.16 140.83 1400.57 Q138.978 1400.99 137.033 1401.87 L137.033 1384.51 Z" fill="#000000" fill-rule="nonzero" fill-opacity="1" /><path clip-path="url(#clip420)" d="M50.9921 1190.59 L80.6679 1190.59 L80.6679 1194.53 L50.9921 1194.53 L50.9921 1190.59 Z" fill="#000000" fill-rule="nonzero" fill-opacity="1" /><path clip-path="url(#clip420)" d="M91.5706 1203.49 L99.2095 1203.49 L99.2095 1177.12 L90.8993 1178.79 L90.8993 1174.53 L99.1632 1172.86 L103.839 1172.86 L103.839 1203.49 L111.478 1203.49 L111.478 1207.42 L91.5706 1207.42 L91.5706 1203.49 Z" fill="#000000" fill-rule="nonzero" fill-opacity="1" /><path clip-path="url(#clip420)" d="M120.922 1201.54 L125.807 1201.54 L125.807 1207.42 L120.922 1207.42 L120.922 1201.54 Z" fill="#000000" fill-rule="nonzero" fill-opacity="1" /><path clip-path="url(#clip420)" d="M145.992 1175.94 Q142.381 1175.94 140.552 1179.5 Q138.746 1183.05 138.746 1190.18 Q138.746 1197.28 140.552 1200.85 Q142.381 1204.39 145.992 1204.39 Q149.626 1204.39 151.431 1200.85 Q153.26 1197.28 153.26 1190.18 Q153.26 1183.05 151.431 1179.5 Q149.626 1175.94 145.992 1175.94 M145.992 1172.24 Q151.802 1172.24 154.857 1176.84 Q157.936 1181.43 157.936 1190.18 Q157.936 1198.9 154.857 1203.51 Q151.802 1208.09 145.992 1208.09 Q140.181 1208.09 137.103 1203.51 Q134.047 1198.9 134.047 1190.18 Q134.047 1181.43 137.103 1176.84 Q140.181 1172.24 145.992 1172.24 Z" fill="#000000" fill-rule="nonzero" fill-opacity="1" /><path clip-path="url(#clip420)" d="M51.9875 978.945 L81.6633 978.945 L81.6633 982.88 L51.9875 982.88 L51.9875 978.945 Z" fill="#000000" fill-rule="nonzero" fill-opacity="1" /><path clip-path="url(#clip420)" d="M101.756 964.292 Q98.1447 964.292 96.316 967.857 Q94.5104 971.399 94.5104 978.528 Q94.5104 985.635 96.316 989.2 Q98.1447 992.741 101.756 992.741 Q105.39 992.741 107.196 989.2 Q109.024 985.635 109.024 978.528 Q109.024 971.399 107.196 967.857 Q105.39 964.292 101.756 964.292 M101.756 960.589 Q107.566 960.589 110.621 965.195 Q113.7 969.778 113.7 978.528 Q113.7 987.255 110.621 991.862 Q107.566 996.445 101.756 996.445 Q95.9456 996.445 92.8669 991.862 Q89.8114 987.255 89.8114 978.528 Q89.8114 969.778 92.8669 965.195 Q95.9456 960.589 101.756 960.589 Z" fill="#000000" fill-rule="nonzero" fill-opacity="1" /><path clip-path="url(#clip420)" d="M121.918 989.894 L126.802 989.894 L126.802 995.774 L121.918 995.774 L121.918 989.894 Z" fill="#000000" fill-rule="nonzero" fill-opacity="1" /><path clip-path="url(#clip420)" d="M137.033 961.214 L155.39 961.214 L155.39 965.149 L141.316 965.149 L141.316 973.621 Q142.334 973.274 143.353 973.112 Q144.371 972.926 145.39 972.926 Q151.177 972.926 154.556 976.098 Q157.936 979.269 157.936 984.686 Q157.936 990.264 154.464 993.366 Q150.992 996.445 144.672 996.445 Q142.496 996.445 140.228 996.075 Q137.982 995.704 135.575 994.963 L135.575 990.264 Q137.658 991.399 139.881 991.954 Q142.103 992.51 144.58 992.51 Q148.584 992.51 150.922 990.403 Q153.26 988.297 153.26 984.686 Q153.26 981.075 150.922 978.968 Q148.584 976.862 144.58 976.862 Q142.705 976.862 140.83 977.278 Q138.978 977.695 137.033 978.575 L137.033 961.214 Z" fill="#000000" fill-rule="nonzero" fill-opacity="1" /><path clip-path="url(#clip420)" d="M100.76 752.645 Q97.1493 752.645 95.3206 756.209 Q93.515 759.751 93.515 766.881 Q93.515 773.987 95.3206 777.552 Q97.1493 781.094 100.76 781.094 Q104.395 781.094 106.2 777.552 Q108.029 773.987 108.029 766.881 Q108.029 759.751 106.2 756.209 Q104.395 752.645 100.76 752.645 M100.76 748.941 Q106.571 748.941 109.626 753.547 Q112.705 758.131 112.705 766.881 Q112.705 775.608 109.626 780.214 Q106.571 784.797 100.76 784.797 Q94.9502 784.797 91.8715 780.214 Q88.816 775.608 88.816 766.881 Q88.816 758.131 91.8715 753.547 Q94.9502 748.941 100.76 748.941 Z" fill="#000000" fill-rule="nonzero" fill-opacity="1" /><path clip-path="url(#clip420)" d="M120.922 778.246 L125.807 778.246 L125.807 784.126 L120.922 784.126 L120.922 778.246 Z" fill="#000000" fill-rule="nonzero" fill-opacity="1" /><path clip-path="url(#clip420)" d="M145.992 752.645 Q142.381 752.645 140.552 756.209 Q138.746 759.751 138.746 766.881 Q138.746 773.987 140.552 777.552 Q142.381 781.094 145.992 781.094 Q149.626 781.094 151.431 777.552 Q153.26 773.987 153.26 766.881 Q153.26 759.751 151.431 756.209 Q149.626 752.645 145.992 752.645 M145.992 748.941 Q151.802 748.941 154.857 753.547 Q157.936 758.131 157.936 766.881 Q157.936 775.608 154.857 780.214 Q151.802 784.797 145.992 784.797 Q140.181 784.797 137.103 780.214 Q134.047 775.608 134.047 766.881 Q134.047 758.131 137.103 753.547 Q140.181 748.941 145.992 748.941 Z" fill="#000000" fill-rule="nonzero" fill-opacity="1" /><path clip-path="url(#clip420)" d="M101.756 540.997 Q98.1447 540.997 96.316 544.562 Q94.5104 548.104 94.5104 555.233 Q94.5104 562.34 96.316 565.904 Q98.1447 569.446 101.756 569.446 Q105.39 569.446 107.196 565.904 Q109.024 562.34 109.024 555.233 Q109.024 548.104 107.196 544.562 Q105.39 540.997 101.756 540.997 M101.756 537.293 Q107.566 537.293 110.621 541.9 Q113.7 546.483 113.7 555.233 Q113.7 563.96 110.621 568.566 Q107.566 573.15 101.756 573.15 Q95.9456 573.15 92.8669 568.566 Q89.8114 563.96 89.8114 555.233 Q89.8114 546.483 92.8669 541.9 Q95.9456 537.293 101.756 537.293 Z" fill="#000000" fill-rule="nonzero" fill-opacity="1" /><path clip-path="url(#clip420)" d="M121.918 566.599 L126.802 566.599 L126.802 572.478 L121.918 572.478 L121.918 566.599 Z" fill="#000000" fill-rule="nonzero" fill-opacity="1" /><path clip-path="url(#clip420)" d="M137.033 537.918 L155.39 537.918 L155.39 541.854 L141.316 541.854 L141.316 550.326 Q142.334 549.978 143.353 549.816 Q144.371 549.631 145.39 549.631 Q151.177 549.631 154.556 552.803 Q157.936 555.974 157.936 561.39 Q157.936 566.969 154.464 570.071 Q150.992 573.15 144.672 573.15 Q142.496 573.15 140.228 572.779 Q137.982 572.409 135.575 571.668 L135.575 566.969 Q137.658 568.103 139.881 568.659 Q142.103 569.214 144.58 569.214 Q148.584 569.214 150.922 567.108 Q153.26 565.002 153.26 561.39 Q153.26 557.779 150.922 555.673 Q148.584 553.566 144.58 553.566 Q142.705 553.566 140.83 553.983 Q138.978 554.4 137.033 555.279 L137.033 537.918 Z" fill="#000000" fill-rule="nonzero" fill-opacity="1" /><path clip-path="url(#clip420)" d="M91.5706 356.896 L99.2095 356.896 L99.2095 330.53 L90.8993 332.197 L90.8993 327.937 L99.1632 326.271 L103.839 326.271 L103.839 356.896 L111.478 356.896 L111.478 360.831 L91.5706 360.831 L91.5706 356.896 Z" fill="#000000" fill-rule="nonzero" fill-opacity="1" /><path clip-path="url(#clip420)" d="M120.922 354.951 L125.807 354.951 L125.807 360.831 L120.922 360.831 L120.922 354.951 Z" fill="#000000" fill-rule="nonzero" fill-opacity="1" /><path clip-path="url(#clip420)" d="M145.992 329.349 Q142.381 329.349 140.552 332.914 Q138.746 336.456 138.746 343.585 Q138.746 350.692 140.552 354.257 Q142.381 357.798 145.992 357.798 Q149.626 357.798 151.431 354.257 Q153.26 350.692 153.26 343.585 Q153.26 336.456 151.431 332.914 Q149.626 329.349 145.992 329.349 M145.992 325.646 Q151.802 325.646 154.857 330.252 Q157.936 334.836 157.936 343.585 Q157.936 352.312 154.857 356.919 Q151.802 361.502 145.992 361.502 Q140.181 361.502 137.103 356.919 Q134.047 352.312 134.047 343.585 Q134.047 334.836 137.103 330.252 Q140.181 325.646 145.992 325.646 Z" fill="#000000" fill-rule="nonzero" fill-opacity="1" /><path clip-path="url(#clip420)" d="M92.566 145.248 L100.205 145.248 L100.205 118.882 L91.8947 120.549 L91.8947 116.29 L100.159 114.623 L104.834 114.623 L104.834 145.248 L112.473 145.248 L112.473 149.183 L92.566 149.183 L92.566 145.248 Z" fill="#000000" fill-rule="nonzero" fill-opacity="1" /><path clip-path="url(#clip420)" d="M121.918 143.304 L126.802 143.304 L126.802 149.183 L121.918 149.183 L121.918 143.304 Z" fill="#000000" fill-rule="nonzero" fill-opacity="1" /><path clip-path="url(#clip420)" d="M137.033 114.623 L155.39 114.623 L155.39 118.558 L141.316 118.558 L141.316 127.03 Q142.334 126.683 143.353 126.521 Q144.371 126.336 145.39 126.336 Q151.177 126.336 154.556 129.507 Q157.936 132.679 157.936 138.095 Q157.936 143.674 154.464 146.776 Q150.992 149.854 144.672 149.854 Q142.496 149.854 140.228 149.484 Q137.982 149.114 135.575 148.373 L135.575 143.674 Q137.658 144.808 139.881 145.364 Q142.103 145.919 144.58 145.919 Q148.584 145.919 150.922 143.813 Q153.26 141.706 153.26 138.095 Q153.26 134.484 150.922 132.378 Q148.584 130.271 144.58 130.271 Q142.705 130.271 140.83 130.688 Q138.978 131.105 137.033 131.984 L137.033 114.623 Z" fill="#000000" fill-rule="nonzero" fill-opacity="1" /><polyline clip-path="url(#clip422)" style="stroke:#0000ff; stroke-linecap:round; stroke-linejoin:round; stroke-width:4; stroke-opacity:1; fill:none" points="255.035,1276.85 275.607,1257.23 296.179,1237.82 316.751,1218.59 337.322,1199.57 357.894,1180.76 378.466,1162.16 399.038,1143.77 419.61,1125.61 440.182,1107.67 460.754,1089.96 481.326,1072.49 501.898,1055.26 522.47,1038.28 543.042,1021.55 563.614,1005.08 584.186,988.869 604.758,972.931 625.33,957.269 645.902,941.889 666.474,926.798 687.046,912.001 707.617,897.506 728.189,883.32 748.761,869.449 769.333,855.9 789.905,842.681 810.477,829.799 831.049,817.262 851.621,805.077 872.193,793.252 892.765,781.796 913.337,770.717 933.909,760.022 954.481,749.722 975.053,739.824 995.625,730.338 1016.2,721.273 1036.77,712.638 1057.34,704.443 1077.91,696.699 1098.48,689.414 1119.06,682.6 1139.63,676.267 1160.2,670.426 1180.77,665.087 1201.34,660.263 1221.92,655.964 1242.49,652.203 1263.06,648.992 1283.63,646.342 1304.2,644.267 1324.78,642.78 1345.35,641.893 1365.92,641.621 1386.49,641.976 1407.06,642.974 1427.64,644.628 1448.21,646.954 1468.78,649.965 1489.35,653.679 1509.92,658.11 1530.5,663.275 1551.07,669.19 1571.64,675.873 1592.21,683.339 1612.78,691.607 1633.35,700.695 1653.93,710.622 1674.5,721.406 1695.07,733.066 1715.64,745.622 1736.21,759.095 1756.79,773.505 1777.36,788.872 1797.93,805.219 1818.5,822.567 1839.07,840.939 1859.65,860.359 1880.22,880.848 1900.79,902.433 1921.36,925.136 1941.93,948.984 1962.51,974.002 1983.08,1000.22 2003.65,1027.65 2024.22,1056.34 2044.79,1086.31 2065.37,1117.58 2085.94,1150.19 2106.51,1184.17 2127.08,1219.55 2147.65,1256.35 2168.23,1294.62 2188.8,1334.38 2209.37,1375.66 2229.94,1418.51 2250.51,1462.96 2271.09,1509.04 2291.66,1556.79 "/>
<polyline clip-path="url(#clip422)" style="stroke:#000000; stroke-linecap:round; stroke-linejoin:round; stroke-width:4; stroke-opacity:1; fill:none" stroke-dasharray="16, 10" points="255.035,766.846 2291.66,766.846 "/>
<polyline clip-path="url(#clip422)" style="stroke:#000000; stroke-linecap:round; stroke-linejoin:round; stroke-width:4; stroke-opacity:1; fill:none" points="347.608,1379.89 1273.35,1379.89 "/>
<line clip-path="url(#clip422)" x1="347.608" y1="1395.89" x2="347.608" y2="1363.89" style="stroke:#000000; stroke-width:4; stroke-opacity:1"/>
<line clip-path="url(#clip422)" x1="1273.35" y1="1395.89" x2="1273.35" y2="1363.89" style="stroke:#000000; stroke-width:4; stroke-opacity:1"/>
<polyline clip-path="url(#clip422)" style="stroke:#000000; stroke-linecap:round; stroke-linejoin:round; stroke-width:2; stroke-opacity:1; fill:none" stroke-dasharray="8, 5" points="347.608,766.846 347.608,1379.89 "/>
<polyline clip-path="url(#clip422)" style="stroke:#000000; stroke-linecap:round; stroke-linejoin:round; stroke-width:2; stroke-opacity:1; fill:none" stroke-dasharray="8, 5" points="1273.35,766.846 1273.35,1379.89 "/>
<circle clip-path="url(#clip422)" cx="810.477" cy="1379.89" r="7.2" fill="#000000" fill-rule="evenodd" fill-opacity="1" stroke="none"/>
<polyline clip-path="url(#clip422)" style="stroke:#000000; stroke-linecap:round; stroke-linejoin:round; stroke-width:4; stroke-opacity:1; fill:none" points="810.477,1292.31 1273.35,1292.31 "/>
<line clip-path="url(#clip422)" x1="810.477" y1="1308.31" x2="810.477" y2="1276.31" style="stroke:#000000; stroke-width:4; stroke-opacity:1"/>
<line clip-path="url(#clip422)" x1="1273.35" y1="1308.31" x2="1273.35" y2="1276.31" style="stroke:#000000; stroke-width:4; stroke-opacity:1"/>
<polyline clip-path="url(#clip422)" style="stroke:#000000; stroke-linecap:round; stroke-linejoin:round; stroke-width:2; stroke-opacity:1; fill:none" stroke-dasharray="8, 5" points="810.477,766.846 810.477,1292.31 "/>
<polyline clip-path="url(#clip422)" style="stroke:#000000; stroke-linecap:round; stroke-linejoin:round; stroke-width:2; stroke-opacity:1; fill:none" stroke-dasharray="8, 5" points="1273.35,766.846 1273.35,1292.31 "/>
<circle clip-path="url(#clip422)" cx="1041.91" cy="1292.31" r="7.2" fill="#000000" fill-rule="evenodd" fill-opacity="1" stroke="none"/>
<polyline clip-path="url(#clip422)" style="stroke:#000000; stroke-linecap:round; stroke-linejoin:round; stroke-width:4; stroke-opacity:1; fill:none" points="810.477,1204.74 1041.91,1204.74 "/>
<line clip-path="url(#clip422)" x1="810.477" y1="1220.74" x2="810.477" y2="1188.74" style="stroke:#000000; stroke-width:4; stroke-opacity:1"/>
<line clip-path="url(#clip422)" x1="1041.91" y1="1220.74" x2="1041.91" y2="1188.74" style="stroke:#000000; stroke-width:4; stroke-opacity:1"/>
<polyline clip-path="url(#clip422)" style="stroke:#000000; stroke-linecap:round; stroke-linejoin:round; stroke-width:2; stroke-opacity:1; fill:none" stroke-dasharray="8, 5" points="810.477,766.846 810.477,1204.74 "/>
<polyline clip-path="url(#clip422)" style="stroke:#000000; stroke-linecap:round; stroke-linejoin:round; stroke-width:2; stroke-opacity:1; fill:none" stroke-dasharray="8, 5" points="1041.91,766.846 1041.91,1204.74 "/>
<circle clip-path="url(#clip422)" cx="926.194" cy="1204.74" r="7.2" fill="#000000" fill-rule="evenodd" fill-opacity="1" stroke="none"/>
<polyline clip-path="url(#clip422)" style="stroke:#000000; stroke-linecap:round; stroke-linejoin:round; stroke-width:4; stroke-opacity:1; fill:none" points="810.477,1117.16 926.194,1117.16 "/>
<line clip-path="url(#clip422)" x1="810.477" y1="1133.16" x2="810.477" y2="1101.16" style="stroke:#000000; stroke-width:4; stroke-opacity:1"/>
<line clip-path="url(#clip422)" x1="926.194" y1="1133.16" x2="926.194" y2="1101.16" style="stroke:#000000; stroke-width:4; stroke-opacity:1"/>
<polyline clip-path="url(#clip422)" style="stroke:#000000; stroke-linecap:round; stroke-linejoin:round; stroke-width:2; stroke-opacity:1; fill:none" stroke-dasharray="8, 5" points="810.477,766.846 810.477,1117.16 "/>
<polyline clip-path="url(#clip422)" style="stroke:#000000; stroke-linecap:round; stroke-linejoin:round; stroke-width:2; stroke-opacity:1; fill:none" stroke-dasharray="8, 5" points="926.194,766.846 926.194,1117.16 "/>
<circle clip-path="url(#clip422)" cx="868.336" cy="1117.16" r="7.2" fill="#000000" fill-rule="evenodd" fill-opacity="1" stroke="none"/>
<polyline clip-path="url(#clip422)" style="stroke:#000000; stroke-linecap:round; stroke-linejoin:round; stroke-width:4; stroke-opacity:1; fill:none" points="868.336,1029.58 926.194,1029.58 "/>
<line clip-path="url(#clip422)" x1="868.336" y1="1045.58" x2="868.336" y2="1013.58" style="stroke:#000000; stroke-width:4; stroke-opacity:1"/>
<line clip-path="url(#clip422)" x1="926.194" y1="1045.58" x2="926.194" y2="1013.58" style="stroke:#000000; stroke-width:4; stroke-opacity:1"/>
<polyline clip-path="url(#clip422)" style="stroke:#000000; stroke-linecap:round; stroke-linejoin:round; stroke-width:2; stroke-opacity:1; fill:none" stroke-dasharray="8, 5" points="868.336,766.846 868.336,1029.58 "/>
<polyline clip-path="url(#clip422)" style="stroke:#000000; stroke-linecap:round; stroke-linejoin:round; stroke-width:2; stroke-opacity:1; fill:none" stroke-dasharray="8, 5" points="926.194,766.846 926.194,1029.58 "/>
<circle clip-path="url(#clip422)" cx="897.265" cy="1029.58" r="7.2" fill="#000000" fill-rule="evenodd" fill-opacity="1" stroke="none"/>
<polyline clip-path="url(#clip422)" style="stroke:#000000; stroke-linecap:round; stroke-linejoin:round; stroke-width:4; stroke-opacity:1; fill:none" points="897.265,942.002 926.194,942.002 "/>
<line clip-path="url(#clip422)" x1="897.265" y1="958.002" x2="897.265" y2="926.002" style="stroke:#000000; stroke-width:4; stroke-opacity:1"/>
<line clip-path="url(#clip422)" x1="926.194" y1="958.002" x2="926.194" y2="926.002" style="stroke:#000000; stroke-width:4; stroke-opacity:1"/>
<polyline clip-path="url(#clip422)" style="stroke:#000000; stroke-linecap:round; stroke-linejoin:round; stroke-width:2; stroke-opacity:1; fill:none" stroke-dasharray="8, 5" points="897.265,766.846 897.265,942.002 "/>
<polyline clip-path="url(#clip422)" style="stroke:#000000; stroke-linecap:round; stroke-linejoin:round; stroke-width:2; stroke-opacity:1; fill:none" stroke-dasharray="8, 5" points="926.194,766.846 926.194,942.002 "/>
<circle clip-path="url(#clip422)" cx="911.73" cy="942.002" r="7.2" fill="#000000" fill-rule="evenodd" fill-opacity="1" stroke="none"/>
<polyline clip-path="url(#clip422)" style="stroke:#000000; stroke-linecap:round; stroke-linejoin:round; stroke-width:4; stroke-opacity:1; fill:none" points="911.73,854.424 926.194,854.424 "/>
<line clip-path="url(#clip422)" x1="911.73" y1="870.424" x2="911.73" y2="838.424" style="stroke:#000000; stroke-width:4; stroke-opacity:1"/>
<line clip-path="url(#clip422)" x1="926.194" y1="870.424" x2="926.194" y2="838.424" style="stroke:#000000; stroke-width:4; stroke-opacity:1"/>
<polyline clip-path="url(#clip422)" style="stroke:#000000; stroke-linecap:round; stroke-linejoin:round; stroke-width:2; stroke-opacity:1; fill:none" stroke-dasharray="8, 5" points="911.73,766.846 911.73,854.424 "/>
<polyline clip-path="url(#clip422)" style="stroke:#000000; stroke-linecap:round; stroke-linejoin:round; stroke-width:2; stroke-opacity:1; fill:none" stroke-dasharray="8, 5" points="926.194,766.846 926.194,854.424 "/>
<circle clip-path="url(#clip422)" cx="918.962" cy="854.424" r="7.2" fill="#000000" fill-rule="evenodd" fill-opacity="1" stroke="none"/>
<polyline clip-path="url(#clip422)" style="stroke:#000000; stroke-linecap:round; stroke-linejoin:round; stroke-width:4; stroke-opacity:1; fill:none" points="918.962,766.846 926.194,766.846 "/>
<line clip-path="url(#clip422)" x1="918.962" y1="782.846" x2="918.962" y2="750.846" style="stroke:#000000; stroke-width:4; stroke-opacity:1"/>
<line clip-path="url(#clip422)" x1="926.194" y1="782.846" x2="926.194" y2="750.846" style="stroke:#000000; stroke-width:4; stroke-opacity:1"/>
<polyline clip-path="url(#clip422)" style="stroke:#000000; stroke-linecap:round; stroke-linejoin:round; stroke-width:2; stroke-opacity:1; fill:none" stroke-dasharray="8, 5" points="918.962,766.846 918.962,766.846 "/>
<polyline clip-path="url(#clip422)" style="stroke:#000000; stroke-linecap:round; stroke-linejoin:round; stroke-width:2; stroke-opacity:1; fill:none" stroke-dasharray="8, 5" points="926.194,766.846 926.194,766.846 "/>
<circle clip-path="url(#clip422)" cx="922.578" cy="766.846" r="7.2" fill="#000000" fill-rule="evenodd" fill-opacity="1" stroke="none"/>
<polyline clip-path="url(#clip422)" style="stroke:#0000ff; stroke-linecap:round; stroke-linejoin:round; stroke-width:4; stroke-opacity:1; fill:none" points="255.035,1276.85 275.607,1257.23 296.179,1237.82 316.751,1218.59 337.322,1199.57 357.894,1180.76 378.466,1162.16 399.038,1143.77 419.61,1125.61 440.182,1107.67 460.754,1089.96 481.326,1072.49 501.898,1055.26 522.47,1038.28 543.042,1021.55 563.614,1005.08 584.186,988.869 604.758,972.931 625.33,957.269 645.902,941.889 666.474,926.798 687.046,912.001 707.617,897.506 728.189,883.32 748.761,869.449 769.333,855.9 789.905,842.681 810.477,829.799 831.049,817.262 851.621,805.077 872.193,793.252 892.765,781.796 913.337,770.717 933.909,760.022 954.481,749.722 975.053,739.824 995.625,730.338 1016.2,721.273 1036.77,712.638 1057.34,704.443 1077.91,696.699 1098.48,689.414 1119.06,682.6 1139.63,676.267 1160.2,670.426 1180.77,665.087 1201.34,660.263 1221.92,655.964 1242.49,652.203 1263.06,648.992 1283.63,646.342 1304.2,644.267 1324.78,642.78 1345.35,641.893 1365.92,641.621 1386.49,641.976 1407.06,642.974 1427.64,644.628 1448.21,646.954 1468.78,649.965 1489.35,653.679 1509.92,658.11 1530.5,663.275 1551.07,669.19 1571.64,675.873 1592.21,683.339 1612.78,691.607 1633.35,700.695 1653.93,710.622 1674.5,721.406 1695.07,733.066 1715.64,745.622 1736.21,759.095 1756.79,773.505 1777.36,788.872 1797.93,805.219 1818.5,822.567 1839.07,840.939 1859.65,860.359 1880.22,880.848 1900.79,902.433 1921.36,925.136 1941.93,948.984 1962.51,974.002 1983.08,1000.22 2003.65,1027.65 2024.22,1056.34 2044.79,1086.31 2065.37,1117.58 2085.94,1150.19 2106.51,1184.17 2127.08,1219.55 2147.65,1256.35 2168.23,1294.62 2188.8,1334.38 2209.37,1375.66 2229.94,1418.51 2250.51,1462.96 2271.09,1509.04 2291.66,1556.79 "/>
<polyline clip-path="url(#clip422)" style="stroke:#000000; stroke-linecap:round; stroke-linejoin:round; stroke-width:4; stroke-opacity:1; fill:none" stroke-dasharray="16, 10" points="255.035,766.846 2291.66,766.846 "/>
<polyline clip-path="url(#clip422)" style="stroke:#000000; stroke-linecap:round; stroke-linejoin:round; stroke-width:4; stroke-opacity:1; fill:none" points="1273.35,227.145 2199.08,227.145 "/>
<line clip-path="url(#clip422)" x1="1273.35" y1="243.145" x2="1273.35" y2="211.145" style="stroke:#000000; stroke-width:4; stroke-opacity:1"/>
<line clip-path="url(#clip422)" x1="2199.08" y1="243.145" x2="2199.08" y2="211.145" style="stroke:#000000; stroke-width:4; stroke-opacity:1"/>
<polyline clip-path="url(#clip422)" style="stroke:#000000; stroke-linecap:round; stroke-linejoin:round; stroke-width:2; stroke-opacity:1; fill:none" stroke-dasharray="8, 5" points="1273.35,766.846 1273.35,227.145 "/>
<polyline clip-path="url(#clip422)" style="stroke:#000000; stroke-linecap:round; stroke-linejoin:round; stroke-width:2; stroke-opacity:1; fill:none" stroke-dasharray="8, 5" points="2199.08,766.846 2199.08,227.145 "/>
<circle clip-path="url(#clip422)" cx="1736.21" cy="227.145" r="7.2" fill="#000000" fill-rule="evenodd" fill-opacity="1" stroke="none"/>
<polyline clip-path="url(#clip422)" style="stroke:#000000; stroke-linecap:round; stroke-linejoin:round; stroke-width:4; stroke-opacity:1; fill:none" points="1736.21,304.245 2199.08,304.245 "/>
<line clip-path="url(#clip422)" x1="1736.21" y1="320.245" x2="1736.21" y2="288.245" style="stroke:#000000; stroke-width:4; stroke-opacity:1"/>
<line clip-path="url(#clip422)" x1="2199.08" y1="320.245" x2="2199.08" y2="288.245" style="stroke:#000000; stroke-width:4; stroke-opacity:1"/>
<polyline clip-path="url(#clip422)" style="stroke:#000000; stroke-linecap:round; stroke-linejoin:round; stroke-width:2; stroke-opacity:1; fill:none" stroke-dasharray="8, 5" points="1736.21,766.846 1736.21,304.245 "/>
<polyline clip-path="url(#clip422)" style="stroke:#000000; stroke-linecap:round; stroke-linejoin:round; stroke-width:2; stroke-opacity:1; fill:none" stroke-dasharray="8, 5" points="2199.08,766.846 2199.08,304.245 "/>
<circle clip-path="url(#clip422)" cx="1967.65" cy="304.245" r="7.2" fill="#000000" fill-rule="evenodd" fill-opacity="1" stroke="none"/>
<polyline clip-path="url(#clip422)" style="stroke:#000000; stroke-linecap:round; stroke-linejoin:round; stroke-width:4; stroke-opacity:1; fill:none" points="1736.21,381.345 1967.65,381.345 "/>
<line clip-path="url(#clip422)" x1="1736.21" y1="397.345" x2="1736.21" y2="365.345" style="stroke:#000000; stroke-width:4; stroke-opacity:1"/>
<line clip-path="url(#clip422)" x1="1967.65" y1="397.345" x2="1967.65" y2="365.345" style="stroke:#000000; stroke-width:4; stroke-opacity:1"/>
<polyline clip-path="url(#clip422)" style="stroke:#000000; stroke-linecap:round; stroke-linejoin:round; stroke-width:2; stroke-opacity:1; fill:none" stroke-dasharray="8, 5" points="1736.21,766.846 1736.21,381.345 "/>
<polyline clip-path="url(#clip422)" style="stroke:#000000; stroke-linecap:round; stroke-linejoin:round; stroke-width:2; stroke-opacity:1; fill:none" stroke-dasharray="8, 5" points="1967.65,766.846 1967.65,381.345 "/>
<circle clip-path="url(#clip422)" cx="1851.93" cy="381.345" r="7.2" fill="#000000" fill-rule="evenodd" fill-opacity="1" stroke="none"/>
<polyline clip-path="url(#clip422)" style="stroke:#000000; stroke-linecap:round; stroke-linejoin:round; stroke-width:4; stroke-opacity:1; fill:none" points="1736.21,458.445 1851.93,458.445 "/>
<line clip-path="url(#clip422)" x1="1736.21" y1="474.445" x2="1736.21" y2="442.445" style="stroke:#000000; stroke-width:4; stroke-opacity:1"/>
<line clip-path="url(#clip422)" x1="1851.93" y1="474.445" x2="1851.93" y2="442.445" style="stroke:#000000; stroke-width:4; stroke-opacity:1"/>
<polyline clip-path="url(#clip422)" style="stroke:#000000; stroke-linecap:round; stroke-linejoin:round; stroke-width:2; stroke-opacity:1; fill:none" stroke-dasharray="8, 5" points="1736.21,766.846 1736.21,458.445 "/>
<polyline clip-path="url(#clip422)" style="stroke:#000000; stroke-linecap:round; stroke-linejoin:round; stroke-width:2; stroke-opacity:1; fill:none" stroke-dasharray="8, 5" points="1851.93,766.846 1851.93,458.445 "/>
<circle clip-path="url(#clip422)" cx="1794.07" cy="458.445" r="7.2" fill="#000000" fill-rule="evenodd" fill-opacity="1" stroke="none"/>
<polyline clip-path="url(#clip422)" style="stroke:#000000; stroke-linecap:round; stroke-linejoin:round; stroke-width:4; stroke-opacity:1; fill:none" points="1736.21,535.545 1794.07,535.545 "/>
<line clip-path="url(#clip422)" x1="1736.21" y1="551.545" x2="1736.21" y2="519.545" style="stroke:#000000; stroke-width:4; stroke-opacity:1"/>
<line clip-path="url(#clip422)" x1="1794.07" y1="551.545" x2="1794.07" y2="519.545" style="stroke:#000000; stroke-width:4; stroke-opacity:1"/>
<polyline clip-path="url(#clip422)" style="stroke:#000000; stroke-linecap:round; stroke-linejoin:round; stroke-width:2; stroke-opacity:1; fill:none" stroke-dasharray="8, 5" points="1736.21,766.846 1736.21,535.545 "/>
<polyline clip-path="url(#clip422)" style="stroke:#000000; stroke-linecap:round; stroke-linejoin:round; stroke-width:2; stroke-opacity:1; fill:none" stroke-dasharray="8, 5" points="1794.07,766.846 1794.07,535.545 "/>
<circle clip-path="url(#clip422)" cx="1765.14" cy="535.545" r="7.2" fill="#000000" fill-rule="evenodd" fill-opacity="1" stroke="none"/>
<polyline clip-path="url(#clip422)" style="stroke:#000000; stroke-linecap:round; stroke-linejoin:round; stroke-width:4; stroke-opacity:1; fill:none" points="1736.21,612.646 1765.14,612.646 "/>
<line clip-path="url(#clip422)" x1="1736.21" y1="628.646" x2="1736.21" y2="596.646" style="stroke:#000000; stroke-width:4; stroke-opacity:1"/>
<line clip-path="url(#clip422)" x1="1765.14" y1="628.646" x2="1765.14" y2="596.646" style="stroke:#000000; stroke-width:4; stroke-opacity:1"/>
<polyline clip-path="url(#clip422)" style="stroke:#000000; stroke-linecap:round; stroke-linejoin:round; stroke-width:2; stroke-opacity:1; fill:none" stroke-dasharray="8, 5" points="1736.21,766.846 1736.21,612.646 "/>
<polyline clip-path="url(#clip422)" style="stroke:#000000; stroke-linecap:round; stroke-linejoin:round; stroke-width:2; stroke-opacity:1; fill:none" stroke-dasharray="8, 5" points="1765.14,766.846 1765.14,612.646 "/>
<circle clip-path="url(#clip422)" cx="1750.68" cy="612.646" r="7.2" fill="#000000" fill-rule="evenodd" fill-opacity="1" stroke="none"/>
<polyline clip-path="url(#clip422)" style="stroke:#000000; stroke-linecap:round; stroke-linejoin:round; stroke-width:4; stroke-opacity:1; fill:none" points="1736.21,689.746 1750.68,689.746 "/>
<line clip-path="url(#clip422)" x1="1736.21" y1="705.746" x2="1736.21" y2="673.746" style="stroke:#000000; stroke-width:4; stroke-opacity:1"/>
<line clip-path="url(#clip422)" x1="1750.68" y1="705.746" x2="1750.68" y2="673.746" style="stroke:#000000; stroke-width:4; stroke-opacity:1"/>
<polyline clip-path="url(#clip422)" style="stroke:#000000; stroke-linecap:round; stroke-linejoin:round; stroke-width:2; stroke-opacity:1; fill:none" stroke-dasharray="8, 5" points="1736.21,766.846 1736.21,689.746 "/>
<polyline clip-path="url(#clip422)" style="stroke:#000000; stroke-linecap:round; stroke-linejoin:round; stroke-width:2; stroke-opacity:1; fill:none" stroke-dasharray="8, 5" points="1750.68,766.846 1750.68,689.746 "/>
<circle clip-path="url(#clip422)" cx="1743.45" cy="689.746" r="7.2" fill="#000000" fill-rule="evenodd" fill-opacity="1" stroke="none"/>
<polyline clip-path="url(#clip422)" style="stroke:#000000; stroke-linecap:round; stroke-linejoin:round; stroke-width:4; stroke-opacity:1; fill:none" points="1743.45,766.846 1750.68,766.846 "/>
<line clip-path="url(#clip422)" x1="1743.45" y1="782.846" x2="1743.45" y2="750.846" style="stroke:#000000; stroke-width:4; stroke-opacity:1"/>
<line clip-path="url(#clip422)" x1="1750.68" y1="782.846" x2="1750.68" y2="750.846" style="stroke:#000000; stroke-width:4; stroke-opacity:1"/>
<polyline clip-path="url(#clip422)" style="stroke:#000000; stroke-linecap:round; stroke-linejoin:round; stroke-width:2; stroke-opacity:1; fill:none" stroke-dasharray="8, 5" points="1743.45,766.846 1743.45,766.846 "/>
<polyline clip-path="url(#clip422)" style="stroke:#000000; stroke-linecap:round; stroke-linejoin:round; stroke-width:2; stroke-opacity:1; fill:none" stroke-dasharray="8, 5" points="1750.68,766.846 1750.68,766.846 "/>
<circle clip-path="url(#clip422)" cx="1747.06" cy="766.846" r="7.2" fill="#000000" fill-rule="evenodd" fill-opacity="1" stroke="none"/>
<path clip-path="url(#clip420)" d="M289.537 1374.15 Q288.43 1379.44 286.996 1382.47 Q284.7 1387.11 280.806 1387.11 Q277.855 1387.11 275.765 1385.3 Q273.674 1383.5 273.182 1380.79 Q267.813 1387.11 262.238 1387.11 Q257.32 1387.11 254.204 1383.38 Q251.089 1379.6 251.089 1373.66 Q251.089 1367.68 254.04 1361.94 Q257.033 1356.2 261.746 1352.63 Q266.46 1349.07 271.297 1349.07 Q276.421 1349.07 279.044 1354.44 Q279.249 1352.96 280.192 1351.85 Q281.134 1350.75 282.569 1350.75 Q283.676 1350.75 284.332 1351.36 Q284.987 1351.94 284.987 1353 Q284.987 1353.54 284.414 1355.87 L281.38 1367.59 L279.536 1375.18 Q278.839 1377.96 278.634 1378.99 Q278.47 1380.01 278.47 1381.37 Q278.47 1385.22 280.97 1385.22 Q282.2 1385.22 283.184 1384.44 Q284.168 1383.66 284.946 1382.02 Q285.725 1380.38 286.217 1378.87 Q286.709 1377.31 287.365 1374.85 Q287.57 1373.87 287.734 1373.62 Q287.939 1373.33 288.512 1373.33 Q289.537 1373.33 289.537 1374.15 M278.019 1358.29 Q278.019 1357.92 277.732 1356.9 Q277.445 1355.87 276.79 1354.44 Q276.134 1353 274.699 1351.98 Q273.305 1350.91 271.42 1350.91 Q268.879 1350.91 266.214 1353.08 Q263.591 1355.26 261.664 1358.95 Q260.189 1361.9 258.59 1368.09 Q257.033 1374.28 257.033 1377.35 Q257.033 1379.24 257.443 1380.92 Q257.893 1382.56 259.164 1383.91 Q260.435 1385.22 262.402 1385.22 Q267.198 1385.22 271.912 1379.28 Q272.814 1378.25 273.019 1377.84 Q273.264 1377.39 273.592 1376.16 L277.773 1359.72 Q278.019 1358.49 278.019 1358.29 Z" fill="#000000" fill-rule="nonzero" fill-opacity="1" /><path clip-path="url(#clip420)" d="M298.127 1376.82 L298.127 1374.98 Q305.186 1374.98 308.83 1371.22 Q309.834 1371.22 310.006 1371.45 Q310.178 1371.68 310.178 1372.74 L310.178 1405.71 Q310.178 1407.46 311.039 1408 Q311.9 1408.55 315.658 1408.55 L317.524 1408.55 L317.524 1410.36 Q315.458 1410.19 307.998 1410.19 Q300.538 1410.19 298.5 1410.36 L298.5 1408.55 L300.365 1408.55 Q304.067 1408.55 304.956 1408.03 Q305.846 1407.49 305.846 1405.71 L305.846 1375.27 Q302.776 1376.82 298.127 1376.82 Z" fill="#000000" fill-rule="nonzero" fill-opacity="1" /><path clip-path="url(#clip420)" d="M1319.41 1372.95 Q1319.41 1378.85 1316.42 1384.63 Q1313.46 1390.37 1308.71 1393.97 Q1304 1397.58 1299.16 1397.58 Q1294.45 1397.58 1291.45 1393.97 Q1288.5 1390.33 1288.5 1384.38 Q1288.5 1382.29 1288.75 1380.82 Q1288.99 1379.34 1289.85 1375.9 L1296.74 1348.52 Q1297.93 1343.39 1297.93 1343.35 Q1297.93 1342.86 1297.72 1342.62 Q1297.56 1342.33 1296.58 1342.12 Q1295.59 1341.92 1293.71 1341.92 Q1292.93 1341.92 1292.56 1341.88 Q1292.23 1341.84 1291.95 1341.63 Q1291.7 1341.39 1291.7 1340.89 Q1291.7 1340.2 1291.99 1339.83 Q1292.31 1339.42 1292.56 1339.34 Q1292.81 1339.25 1293.3 1339.21 Q1293.99 1339.17 1296.33 1338.97 Q1298.67 1338.72 1300.68 1338.56 Q1302.68 1338.39 1303.55 1338.39 Q1304.04 1338.39 1304.28 1338.64 Q1304.57 1338.84 1304.57 1339.09 L1304.61 1339.3 L1298.42 1364.59 Q1303.3 1359.54 1308.26 1359.54 Q1313.22 1359.54 1316.29 1363.36 Q1319.41 1367.17 1319.41 1372.95 M1313.34 1369.26 Q1313.34 1365.36 1311.87 1363.4 Q1310.43 1361.39 1308.05 1361.39 Q1306.05 1361.39 1303.42 1362.9 Q1300.8 1364.42 1298.01 1368.11 Q1297.48 1368.81 1297.27 1369.22 Q1297.11 1369.63 1296.74 1371.02 L1294.9 1378.77 Q1293.54 1384.06 1293.54 1387.25 Q1293.54 1391.6 1295.14 1393.65 Q1296.74 1395.7 1299.16 1395.7 Q1301.7 1395.7 1304.37 1393.44 Q1307.03 1391.19 1309.08 1387.09 Q1310.35 1384.38 1311.83 1378.56 Q1313.34 1372.7 1313.34 1369.26 Z" fill="#000000" fill-rule="nonzero" fill-opacity="1" /><path clip-path="url(#clip420)" d="M1328.07 1387.29 L1328.07 1385.46 Q1335.13 1385.46 1338.77 1381.7 Q1339.78 1381.7 1339.95 1381.93 Q1340.12 1382.16 1340.12 1383.22 L1340.12 1416.19 Q1340.12 1417.94 1340.98 1418.48 Q1341.84 1419.03 1345.6 1419.03 L1347.47 1419.03 L1347.47 1420.83 Q1345.4 1420.66 1337.94 1420.66 Q1330.48 1420.66 1328.44 1420.83 L1328.44 1419.03 L1330.31 1419.03 Q1334.01 1419.03 1334.9 1418.51 Q1335.79 1417.96 1335.79 1416.19 L1335.79 1385.74 Q1332.72 1387.29 1328.07 1387.29 Z" fill="#000000" fill-rule="nonzero" fill-opacity="1" /><path clip-path="url(#clip420)" d="M752.406 1286.57 Q751.299 1291.86 749.865 1294.9 Q747.569 1299.53 743.675 1299.53 Q740.724 1299.53 738.634 1297.72 Q736.543 1295.92 736.051 1293.21 Q730.682 1299.53 725.107 1299.53 Q720.188 1299.53 717.073 1295.8 Q713.958 1292.03 713.958 1286.08 Q713.958 1280.1 716.909 1274.36 Q719.901 1268.62 724.615 1265.06 Q729.329 1261.49 734.166 1261.49 Q739.289 1261.49 741.913 1266.86 Q742.118 1265.38 743.06 1264.28 Q744.003 1263.17 745.438 1263.17 Q746.544 1263.17 747.2 1263.78 Q747.856 1264.36 747.856 1265.42 Q747.856 1265.96 747.282 1268.29 L744.249 1280.02 L742.405 1287.6 Q741.708 1290.39 741.503 1291.41 Q741.339 1292.44 741.339 1293.79 Q741.339 1297.64 743.839 1297.64 Q745.069 1297.64 746.053 1296.86 Q747.036 1296.08 747.815 1294.44 Q748.594 1292.8 749.086 1291.29 Q749.578 1289.73 750.234 1287.27 Q750.438 1286.29 750.602 1286.04 Q750.807 1285.75 751.381 1285.75 Q752.406 1285.75 752.406 1286.57 M740.888 1270.71 Q740.888 1270.34 740.601 1269.32 Q740.314 1268.29 739.658 1266.86 Q739.002 1265.42 737.568 1264.4 Q736.174 1263.33 734.289 1263.33 Q731.747 1263.33 729.083 1265.51 Q726.46 1267.68 724.533 1271.37 Q723.058 1274.32 721.459 1280.51 Q719.901 1286.7 719.901 1289.77 Q719.901 1291.66 720.311 1293.34 Q720.762 1294.98 722.033 1296.33 Q723.304 1297.64 725.271 1297.64 Q730.067 1297.64 734.781 1291.7 Q735.682 1290.67 735.887 1290.26 Q736.133 1289.81 736.461 1288.58 L740.642 1272.15 Q740.888 1270.92 740.888 1270.71 Z" fill="#000000" fill-rule="nonzero" fill-opacity="1" /><path clip-path="url(#clip420)" d="M760.996 1322.78 Q760.996 1321.72 761.082 1321.4 Q761.197 1321.09 761.656 1320.6 L772.932 1308.03 Q779.101 1301.09 779.101 1295.03 Q779.101 1291.1 777.035 1288.29 Q774.998 1285.48 771.239 1285.48 Q768.657 1285.48 766.476 1287.06 Q764.296 1288.64 763.292 1291.45 Q763.464 1291.39 764.066 1291.39 Q765.53 1291.39 766.333 1292.31 Q767.165 1293.23 767.165 1294.46 Q767.165 1296.04 766.132 1296.81 Q765.128 1297.56 764.124 1297.56 Q763.722 1297.56 763.177 1297.47 Q762.66 1297.39 761.828 1296.58 Q760.996 1295.75 760.996 1294.29 Q760.996 1290.18 764.095 1286.91 Q767.222 1283.64 771.985 1283.64 Q777.38 1283.64 780.909 1286.86 Q784.467 1290.04 784.467 1295.03 Q784.467 1296.78 783.921 1298.39 Q783.405 1299.97 782.688 1301.2 Q781.999 1302.44 780.105 1304.42 Q778.212 1306.4 776.691 1307.8 Q775.17 1309.21 771.756 1312.19 L765.53 1318.25 L776.117 1318.25 Q781.282 1318.25 781.683 1317.79 Q782.257 1316.95 782.975 1312.56 L784.467 1312.56 L782.802 1322.78 L760.996 1322.78 Z" fill="#000000" fill-rule="nonzero" fill-opacity="1" /><path clip-path="url(#clip420)" d="M1319.41 1285.37 Q1319.41 1291.27 1316.42 1297.05 Q1313.46 1302.79 1308.71 1306.4 Q1304 1310 1299.16 1310 Q1294.45 1310 1291.45 1306.4 Q1288.5 1302.75 1288.5 1296.81 Q1288.5 1294.71 1288.75 1293.24 Q1288.99 1291.76 1289.85 1288.32 L1296.74 1260.94 Q1297.93 1255.82 1297.93 1255.77 Q1297.93 1255.28 1297.72 1255.04 Q1297.56 1254.75 1296.58 1254.55 Q1295.59 1254.34 1293.71 1254.34 Q1292.93 1254.34 1292.56 1254.3 Q1292.23 1254.26 1291.95 1254.05 Q1291.7 1253.81 1291.7 1253.32 Q1291.7 1252.62 1291.99 1252.25 Q1292.31 1251.84 1292.56 1251.76 Q1292.81 1251.68 1293.3 1251.63 Q1293.99 1251.59 1296.33 1251.39 Q1298.67 1251.14 1300.68 1250.98 Q1302.68 1250.82 1303.55 1250.82 Q1304.04 1250.82 1304.28 1251.06 Q1304.57 1251.27 1304.57 1251.51 L1304.61 1251.72 L1298.42 1277.01 Q1303.3 1271.97 1308.26 1271.97 Q1313.22 1271.97 1316.29 1275.78 Q1319.41 1279.59 1319.41 1285.37 M1313.34 1281.68 Q1313.34 1277.79 1311.87 1275.82 Q1310.43 1273.81 1308.05 1273.81 Q1306.05 1273.81 1303.42 1275.33 Q1300.8 1276.84 1298.01 1280.53 Q1297.48 1281.23 1297.27 1281.64 Q1297.11 1282.05 1296.74 1283.44 L1294.9 1291.19 Q1293.54 1296.48 1293.54 1299.67 Q1293.54 1304.02 1295.14 1306.07 Q1296.74 1308.12 1299.16 1308.12 Q1301.7 1308.12 1304.37 1305.86 Q1307.03 1303.61 1309.08 1299.51 Q1310.35 1296.81 1311.83 1290.98 Q1313.34 1285.12 1313.34 1281.68 Z" fill="#000000" fill-rule="nonzero" fill-opacity="1" /><path clip-path="url(#clip420)" d="M1328.07 1333.26 Q1328.07 1332.19 1328.16 1331.88 Q1328.27 1331.56 1328.73 1331.08 L1340.01 1318.51 Q1346.18 1311.56 1346.18 1305.51 Q1346.18 1301.58 1344.11 1298.77 Q1342.07 1295.96 1338.31 1295.96 Q1335.73 1295.96 1333.55 1297.53 Q1331.37 1299.11 1330.37 1301.92 Q1330.54 1301.87 1331.14 1301.87 Q1332.6 1301.87 1333.41 1302.78 Q1334.24 1303.7 1334.24 1304.94 Q1334.24 1306.51 1333.21 1307.29 Q1332.2 1308.04 1331.2 1308.04 Q1330.8 1308.04 1330.25 1307.95 Q1329.74 1307.86 1328.9 1307.06 Q1328.07 1306.23 1328.07 1304.76 Q1328.07 1300.66 1331.17 1297.39 Q1334.3 1294.12 1339.06 1294.12 Q1344.45 1294.12 1347.98 1297.33 Q1351.54 1300.52 1351.54 1305.51 Q1351.54 1307.26 1351 1308.87 Q1350.48 1310.45 1349.76 1311.68 Q1349.07 1312.91 1347.18 1314.89 Q1345.29 1316.87 1343.77 1318.28 Q1342.25 1319.68 1338.83 1322.67 L1332.6 1328.72 L1343.19 1328.72 Q1348.36 1328.72 1348.76 1328.26 Q1349.33 1327.43 1350.05 1323.04 L1351.54 1323.04 L1349.88 1333.26 L1328.07 1333.26 Z" fill="#000000" fill-rule="nonzero" fill-opacity="1" /><path clip-path="url(#clip420)" d="M752.406 1198.36 Q751.299 1203.64 749.865 1206.68 Q747.569 1211.31 743.675 1211.31 Q740.724 1211.31 738.634 1209.51 Q736.543 1207.7 736.051 1205 Q730.682 1211.31 725.107 1211.31 Q720.188 1211.31 717.073 1207.58 Q713.958 1203.81 713.958 1197.86 Q713.958 1191.88 716.909 1186.14 Q719.901 1180.4 724.615 1176.84 Q729.329 1173.27 734.166 1173.27 Q739.289 1173.27 741.913 1178.64 Q742.118 1177.17 743.06 1176.06 Q744.003 1174.95 745.438 1174.95 Q746.544 1174.95 747.2 1175.57 Q747.856 1176.14 747.856 1177.21 Q747.856 1177.74 747.282 1180.08 L744.249 1191.8 L742.405 1199.38 Q741.708 1202.17 741.503 1203.19 Q741.339 1204.22 741.339 1205.57 Q741.339 1209.42 743.839 1209.42 Q745.069 1209.42 746.053 1208.64 Q747.036 1207.87 747.815 1206.23 Q748.594 1204.59 749.086 1203.07 Q749.578 1201.51 750.234 1199.05 Q750.438 1198.07 750.602 1197.82 Q750.807 1197.54 751.381 1197.54 Q752.406 1197.54 752.406 1198.36 M740.888 1182.49 Q740.888 1182.12 740.601 1181.1 Q740.314 1180.08 739.658 1178.64 Q739.002 1177.21 737.568 1176.18 Q736.174 1175.12 734.289 1175.12 Q731.747 1175.12 729.083 1177.29 Q726.46 1179.46 724.533 1183.15 Q723.058 1186.1 721.459 1192.29 Q719.901 1198.48 719.901 1201.55 Q719.901 1203.44 720.311 1205.12 Q720.762 1206.76 722.033 1208.11 Q723.304 1209.42 725.271 1209.42 Q730.067 1209.42 734.781 1203.48 Q735.682 1202.46 735.887 1202.05 Q736.133 1201.59 736.461 1200.37 L740.642 1183.93 Q740.888 1182.7 740.888 1182.49 Z" fill="#000000" fill-rule="nonzero" fill-opacity="1" /><path clip-path="url(#clip420)" d="M760.996 1226.64 Q760.996 1224.89 762 1224.06 Q763.005 1223.23 764.296 1223.23 Q765.644 1223.23 766.591 1224.12 Q767.567 1224.98 767.567 1226.5 Q767.567 1228.13 766.419 1229.05 Q765.3 1229.97 763.693 1229.74 Q765.099 1232.09 767.681 1233.16 Q770.293 1234.22 772.703 1234.22 Q775.228 1234.22 777.265 1232.04 Q779.331 1229.86 779.331 1224.52 Q779.331 1219.99 777.552 1217.37 Q775.801 1214.76 772.33 1214.76 L769.747 1214.76 Q768.858 1214.76 768.6 1214.68 Q768.341 1214.59 768.341 1214.1 Q768.341 1213.53 769.231 1213.42 Q770.12 1213.42 771.526 1213.24 Q774.941 1213.13 776.748 1210.17 Q778.384 1207.42 778.384 1203.49 Q778.384 1199.9 776.662 1198.41 Q774.969 1196.89 772.76 1196.89 Q770.694 1196.89 768.428 1197.75 Q766.161 1198.61 764.927 1200.53 Q768.571 1200.53 768.571 1203.49 Q768.571 1204.78 767.739 1205.64 Q766.935 1206.47 765.587 1206.47 Q764.296 1206.47 763.435 1205.67 Q762.574 1204.84 762.574 1203.43 Q762.574 1200.07 765.558 1197.75 Q768.571 1195.42 772.99 1195.42 Q777.351 1195.42 780.564 1197.72 Q783.807 1200.02 783.807 1203.54 Q783.807 1207.02 781.511 1209.86 Q779.216 1212.7 775.572 1213.87 Q780.048 1214.76 782.716 1217.81 Q785.385 1220.82 785.385 1224.52 Q785.385 1229.11 781.77 1232.5 Q778.154 1235.85 772.875 1235.85 Q767.997 1235.85 764.497 1233.21 Q760.996 1230.57 760.996 1226.64 Z" fill="#000000" fill-rule="nonzero" fill-opacity="1" /><path clip-path="url(#clip420)" d="M1087.97 1197.15 Q1087.97 1203.05 1084.98 1208.83 Q1082.03 1214.57 1077.28 1218.18 Q1072.56 1221.79 1067.72 1221.79 Q1063.01 1221.79 1060.02 1218.18 Q1057.07 1214.53 1057.07 1208.59 Q1057.07 1206.5 1057.31 1205.02 Q1057.56 1203.55 1058.42 1200.1 L1065.31 1172.72 Q1066.5 1167.6 1066.5 1167.56 Q1066.5 1167.07 1066.29 1166.82 Q1066.13 1166.53 1065.14 1166.33 Q1064.16 1166.12 1062.27 1166.12 Q1061.49 1166.12 1061.13 1166.08 Q1060.8 1166.04 1060.51 1165.84 Q1060.26 1165.59 1060.26 1165.1 Q1060.26 1164.4 1060.55 1164.03 Q1060.88 1163.62 1061.13 1163.54 Q1061.37 1163.46 1061.86 1163.42 Q1062.56 1163.38 1064.9 1163.17 Q1067.23 1162.93 1069.24 1162.76 Q1071.25 1162.6 1072.11 1162.6 Q1072.6 1162.6 1072.85 1162.84 Q1073.14 1163.05 1073.14 1163.29 L1073.18 1163.5 L1066.99 1188.79 Q1071.86 1183.75 1076.82 1183.75 Q1081.78 1183.75 1084.86 1187.56 Q1087.97 1191.37 1087.97 1197.15 M1081.91 1193.46 Q1081.91 1189.57 1080.43 1187.6 Q1079 1185.59 1076.62 1185.59 Q1074.61 1185.59 1071.99 1187.11 Q1069.36 1188.63 1066.58 1192.31 Q1066.04 1193.01 1065.84 1193.42 Q1065.68 1193.83 1065.31 1195.22 L1063.46 1202.97 Q1062.11 1208.26 1062.11 1211.46 Q1062.11 1215.8 1063.71 1217.85 Q1065.31 1219.9 1067.72 1219.9 Q1070.27 1219.9 1072.93 1217.65 Q1075.59 1215.39 1077.64 1211.29 Q1078.92 1208.59 1080.39 1202.77 Q1081.91 1196.91 1081.91 1193.46 Z" fill="#000000" fill-rule="nonzero" fill-opacity="1" /><path clip-path="url(#clip420)" d="M1096.64 1237.12 Q1096.64 1235.37 1097.64 1234.54 Q1098.65 1233.7 1099.94 1233.7 Q1101.29 1233.7 1102.23 1234.59 Q1103.21 1235.45 1103.21 1236.98 Q1103.21 1238.61 1102.06 1239.53 Q1100.94 1240.45 1099.33 1240.22 Q1100.74 1242.57 1103.32 1243.63 Q1105.93 1244.69 1108.34 1244.69 Q1110.87 1244.69 1112.91 1242.51 Q1114.97 1240.33 1114.97 1235 Q1114.97 1230.46 1113.19 1227.85 Q1111.44 1225.24 1107.97 1225.24 L1105.39 1225.24 Q1104.5 1225.24 1104.24 1225.15 Q1103.98 1225.07 1103.98 1224.58 Q1103.98 1224.01 1104.87 1223.89 Q1105.76 1223.89 1107.17 1223.72 Q1110.58 1223.6 1112.39 1220.65 Q1114.02 1217.89 1114.02 1213.96 Q1114.02 1210.38 1112.3 1208.89 Q1110.61 1207.36 1108.4 1207.36 Q1106.34 1207.36 1104.07 1208.23 Q1101.8 1209.09 1100.57 1211.01 Q1104.21 1211.01 1104.21 1213.96 Q1104.21 1215.26 1103.38 1216.12 Q1102.58 1216.95 1101.23 1216.95 Q1099.94 1216.95 1099.08 1216.14 Q1098.22 1215.31 1098.22 1213.91 Q1098.22 1210.55 1101.2 1208.23 Q1104.21 1205.9 1108.63 1205.9 Q1112.99 1205.9 1116.21 1208.2 Q1119.45 1210.49 1119.45 1214.02 Q1119.45 1217.49 1117.15 1220.33 Q1114.86 1223.17 1111.21 1224.35 Q1115.69 1225.24 1118.36 1228.28 Q1121.03 1231.29 1121.03 1235 Q1121.03 1239.59 1117.41 1242.97 Q1113.8 1246.33 1108.52 1246.33 Q1103.64 1246.33 1100.14 1243.69 Q1096.64 1241.05 1096.64 1237.12 Z" fill="#000000" fill-rule="nonzero" fill-opacity="1" /><path clip-path="url(#clip420)" d="M752.406 1111.22 Q751.299 1116.51 749.865 1119.54 Q747.569 1124.17 743.675 1124.17 Q740.724 1124.17 738.634 1122.37 Q736.543 1120.57 736.051 1117.86 Q730.682 1124.17 725.107 1124.17 Q720.188 1124.17 717.073 1120.44 Q713.958 1116.67 713.958 1110.73 Q713.958 1104.75 716.909 1099.01 Q719.901 1093.27 724.615 1089.7 Q729.329 1086.14 734.166 1086.14 Q739.289 1086.14 741.913 1091.51 Q742.118 1090.03 743.06 1088.92 Q744.003 1087.82 745.438 1087.82 Q746.544 1087.82 747.2 1088.43 Q747.856 1089.01 747.856 1090.07 Q747.856 1090.6 747.282 1092.94 L744.249 1104.66 L742.405 1112.25 Q741.708 1115.03 741.503 1116.06 Q741.339 1117.08 741.339 1118.44 Q741.339 1122.29 743.839 1122.29 Q745.069 1122.29 746.053 1121.51 Q747.036 1120.73 747.815 1119.09 Q748.594 1117.45 749.086 1115.94 Q749.578 1114.38 750.234 1111.92 Q750.438 1110.93 750.602 1110.69 Q750.807 1110.4 751.381 1110.4 Q752.406 1110.4 752.406 1111.22 M740.888 1095.36 Q740.888 1094.99 740.601 1093.96 Q740.314 1092.94 739.658 1091.51 Q739.002 1090.07 737.568 1089.05 Q736.174 1087.98 734.289 1087.98 Q731.747 1087.98 729.083 1090.15 Q726.46 1092.33 724.533 1096.01 Q723.058 1098.97 721.459 1105.16 Q719.901 1111.34 719.901 1114.42 Q719.901 1116.3 720.311 1117.98 Q720.762 1119.62 722.033 1120.98 Q723.304 1122.29 725.271 1122.29 Q730.067 1122.29 734.781 1116.35 Q735.682 1115.32 735.887 1114.91 Q736.133 1114.46 736.461 1113.23 L740.642 1096.79 Q740.888 1095.56 740.888 1095.36 Z" fill="#000000" fill-rule="nonzero" fill-opacity="1" /><path clip-path="url(#clip420)" d="M760.996 1138.12 L760.996 1136.31 L779.044 1108.74 Q779.503 1108.02 780.22 1108.05 Q780.88 1108.05 781.024 1108.31 Q781.167 1108.57 781.167 1109.57 L781.167 1136.31 L787.049 1136.31 L787.049 1138.12 L781.167 1138.12 L781.167 1143.23 Q781.167 1144.92 781.856 1145.47 Q782.573 1146.01 785.614 1146.01 L786.848 1146.01 L786.848 1147.82 Q784.438 1147.65 778.872 1147.65 Q773.334 1147.65 770.924 1147.82 L770.924 1146.01 L772.158 1146.01 Q775.199 1146.01 775.916 1145.5 Q776.634 1144.95 776.634 1143.23 L776.634 1138.12 L760.996 1138.12 M762.66 1136.31 L776.978 1136.31 L776.978 1114.39 L762.66 1136.31 Z" fill="#000000" fill-rule="nonzero" fill-opacity="1" /><path clip-path="url(#clip420)" d="M972.256 1110.02 Q972.256 1115.92 969.264 1121.7 Q966.313 1127.44 961.558 1131.04 Q956.845 1134.65 952.008 1134.65 Q947.294 1134.65 944.302 1131.04 Q941.351 1127.4 941.351 1121.45 Q941.351 1119.36 941.597 1117.89 Q941.842 1116.41 942.703 1112.97 L949.589 1085.59 Q950.778 1080.46 950.778 1080.42 Q950.778 1079.93 950.573 1079.68 Q950.409 1079.4 949.425 1079.19 Q948.442 1078.99 946.556 1078.99 Q945.777 1078.99 945.409 1078.95 Q945.081 1078.91 944.794 1078.7 Q944.548 1078.45 944.548 1077.96 Q944.548 1077.27 944.835 1076.9 Q945.163 1076.49 945.409 1076.4 Q945.654 1076.32 946.146 1076.28 Q946.843 1076.24 949.18 1076.04 Q951.516 1075.79 953.524 1075.63 Q955.533 1075.46 956.394 1075.46 Q956.886 1075.46 957.131 1075.71 Q957.418 1075.91 957.418 1076.16 L957.459 1076.36 L951.27 1101.65 Q956.148 1096.61 961.107 1096.61 Q966.067 1096.61 969.141 1100.42 Q972.256 1104.24 972.256 1110.02 M966.19 1106.33 Q966.19 1102.43 964.714 1100.47 Q963.28 1098.46 960.902 1098.46 Q958.894 1098.46 956.271 1099.97 Q953.647 1101.49 950.86 1105.18 Q950.327 1105.88 950.122 1106.29 Q949.958 1106.7 949.589 1108.09 L947.745 1115.84 Q946.392 1121.12 946.392 1124.32 Q946.392 1128.67 947.991 1130.72 Q949.589 1132.77 952.008 1132.77 Q954.549 1132.77 957.213 1130.51 Q959.878 1128.26 961.927 1124.16 Q963.198 1121.45 964.673 1115.63 Q966.19 1109.77 966.19 1106.33 Z" fill="#000000" fill-rule="nonzero" fill-opacity="1" /><path clip-path="url(#clip420)" d="M980.92 1148.6 L980.92 1146.79 L998.968 1119.22 Q999.427 1118.5 1000.14 1118.53 Q1000.8 1118.53 1000.95 1118.79 Q1001.09 1119.05 1001.09 1120.05 L1001.09 1146.79 L1006.97 1146.79 L1006.97 1148.6 L1001.09 1148.6 L1001.09 1153.71 Q1001.09 1155.4 1001.78 1155.94 Q1002.5 1156.49 1005.54 1156.49 L1006.77 1156.49 L1006.77 1158.3 Q1004.36 1158.12 998.795 1158.12 Q993.258 1158.12 990.848 1158.3 L990.848 1156.49 L992.081 1156.49 Q995.123 1156.49 995.84 1155.97 Q996.557 1155.43 996.557 1153.71 L996.557 1148.6 L980.92 1148.6 M982.584 1146.79 L996.902 1146.79 L996.902 1124.87 L982.584 1146.79 Z" fill="#000000" fill-rule="nonzero" fill-opacity="1" /><path clip-path="url(#clip420)" d="M810.265 1023.2 Q809.158 1028.49 807.723 1031.52 Q805.428 1036.15 801.534 1036.15 Q798.583 1036.15 796.492 1034.35 Q794.402 1032.55 793.91 1029.84 Q788.54 1036.15 782.966 1036.15 Q778.047 1036.15 774.932 1032.42 Q771.817 1028.65 771.817 1022.71 Q771.817 1016.72 774.768 1010.99 Q777.76 1005.25 782.474 1001.68 Q787.188 998.115 792.024 998.115 Q797.148 998.115 799.771 1003.48 Q799.976 1002.01 800.919 1000.9 Q801.862 999.795 803.296 999.795 Q804.403 999.795 805.059 1000.41 Q805.715 1000.98 805.715 1002.05 Q805.715 1002.58 805.141 1004.92 L802.108 1016.64 L800.263 1024.23 Q799.566 1027.01 799.361 1028.04 Q799.197 1029.06 799.197 1030.41 Q799.197 1034.27 801.698 1034.27 Q802.927 1034.27 803.911 1033.49 Q804.895 1032.71 805.674 1031.07 Q806.453 1029.43 806.944 1027.91 Q807.436 1026.36 808.092 1023.9 Q808.297 1022.91 808.461 1022.67 Q808.666 1022.38 809.24 1022.38 Q810.265 1022.38 810.265 1023.2 M798.747 1007.34 Q798.747 1006.97 798.46 1005.94 Q798.173 1004.92 797.517 1003.48 Q796.861 1002.05 795.426 1001.03 Q794.033 999.959 792.147 999.959 Q789.606 999.959 786.942 1002.13 Q784.318 1004.3 782.392 1007.99 Q780.916 1010.94 779.318 1017.13 Q777.76 1023.32 777.76 1026.4 Q777.76 1028.28 778.17 1029.96 Q778.621 1031.6 779.892 1032.96 Q781.162 1034.27 783.13 1034.27 Q787.925 1034.27 792.639 1028.32 Q793.541 1027.3 793.746 1026.89 Q793.992 1026.44 794.32 1025.21 L798.501 1008.77 Q798.747 1007.54 798.747 1007.34 Z" fill="#000000" fill-rule="nonzero" fill-opacity="1" /><path clip-path="url(#clip420)" d="M818.855 1049.94 Q818.855 1048.19 819.802 1047.53 Q820.748 1046.84 821.753 1046.84 Q823.101 1046.84 823.876 1047.7 Q824.679 1048.53 824.679 1049.71 Q824.679 1050.88 823.876 1051.74 Q823.101 1052.58 821.753 1052.58 Q821.093 1052.58 820.748 1052.46 Q821.523 1055.16 823.876 1057.11 Q826.257 1059.06 829.385 1059.06 Q833.316 1059.06 835.669 1055.24 Q837.074 1052.78 837.074 1047.18 Q837.074 1042.25 836.013 1039.78 Q834.377 1036.02 831.02 1036.02 Q826.257 1036.02 823.446 1040.12 Q823.101 1040.64 822.7 1040.67 Q822.126 1040.67 821.982 1040.35 Q821.867 1040.01 821.867 1039.12 L821.867 1021.73 Q821.867 1020.33 822.441 1020.33 Q822.671 1020.33 823.159 1020.5 Q826.86 1022.13 830.963 1022.16 Q835.181 1022.16 838.968 1020.44 Q839.255 1020.27 839.427 1020.27 Q840.001 1020.27 840.03 1020.93 Q840.03 1021.16 839.542 1021.85 Q839.083 1022.51 838.079 1023.4 Q837.074 1024.26 835.783 1025.09 Q834.492 1025.92 832.598 1026.49 Q830.733 1027.04 828.668 1027.04 Q826.2 1027.04 823.675 1026.27 L823.675 1037.71 Q826.716 1034.73 831.135 1034.73 Q835.841 1034.73 839.083 1038.52 Q842.325 1042.3 842.325 1047.58 Q842.325 1053.12 838.48 1056.91 Q834.664 1060.7 829.5 1060.7 Q824.794 1060.7 821.81 1057.34 Q818.855 1053.98 818.855 1049.94 Z" fill="#000000" fill-rule="nonzero" fill-opacity="1" /><path clip-path="url(#clip420)" d="M972.256 1021.99 Q972.256 1027.9 969.264 1033.68 Q966.313 1039.42 961.558 1043.02 Q956.845 1046.63 952.008 1046.63 Q947.294 1046.63 944.302 1043.02 Q941.351 1039.37 941.351 1033.43 Q941.351 1031.34 941.597 1029.86 Q941.842 1028.39 942.703 1024.95 L949.589 997.565 Q950.778 992.442 950.778 992.401 Q950.778 991.909 950.573 991.663 Q950.409 991.376 949.425 991.171 Q948.442 990.966 946.556 990.966 Q945.777 990.966 945.409 990.925 Q945.081 990.884 944.794 990.679 Q944.548 990.433 944.548 989.941 Q944.548 989.245 944.835 988.876 Q945.163 988.466 945.409 988.384 Q945.654 988.302 946.146 988.261 Q946.843 988.22 949.18 988.015 Q951.516 987.769 953.524 987.605 Q955.533 987.441 956.394 987.441 Q956.886 987.441 957.131 987.687 Q957.418 987.892 957.418 988.138 L957.459 988.343 L951.27 1013.63 Q956.148 1008.59 961.107 1008.59 Q966.067 1008.59 969.141 1012.4 Q972.256 1016.22 972.256 1021.99 M966.19 1018.31 Q966.19 1014.41 964.714 1012.44 Q963.28 1010.44 960.902 1010.44 Q958.894 1010.44 956.271 1011.95 Q953.647 1013.47 950.86 1017.16 Q950.327 1017.86 950.122 1018.26 Q949.958 1018.67 949.589 1020.07 L947.745 1027.82 Q946.392 1033.1 946.392 1036.3 Q946.392 1040.65 947.991 1042.69 Q949.589 1044.74 952.008 1044.74 Q954.549 1044.74 957.213 1042.49 Q959.878 1040.24 961.927 1036.14 Q963.198 1033.43 964.673 1027.61 Q966.19 1021.75 966.19 1018.31 Z" fill="#000000" fill-rule="nonzero" fill-opacity="1" /><path clip-path="url(#clip420)" d="M980.92 1060.41 Q980.92 1058.66 981.867 1058 Q982.814 1057.31 983.818 1057.31 Q985.166 1057.31 985.941 1058.18 Q986.745 1059.01 986.745 1060.18 Q986.745 1061.36 985.941 1062.22 Q985.166 1063.05 983.818 1063.05 Q983.158 1063.05 982.814 1062.94 Q983.588 1065.64 985.941 1067.59 Q988.323 1069.54 991.45 1069.54 Q995.381 1069.54 997.734 1065.72 Q999.14 1063.25 999.14 1057.66 Q999.14 1052.72 998.078 1050.26 Q996.443 1046.5 993.086 1046.5 Q988.323 1046.5 985.511 1050.6 Q985.166 1051.12 984.765 1051.15 Q984.191 1051.15 984.047 1050.83 Q983.933 1050.49 983.933 1049.6 L983.933 1032.21 Q983.933 1030.8 984.507 1030.8 Q984.736 1030.8 985.224 1030.97 Q988.925 1032.61 993.028 1032.64 Q997.246 1032.64 1001.03 1030.92 Q1001.32 1030.75 1001.49 1030.75 Q1002.07 1030.75 1002.1 1031.41 Q1002.1 1031.63 1001.61 1032.32 Q1001.15 1032.98 1000.14 1033.87 Q999.14 1034.73 997.849 1035.57 Q996.557 1036.4 994.664 1036.97 Q992.799 1037.52 990.733 1037.52 Q988.265 1037.52 985.74 1036.74 L985.74 1048.19 Q988.782 1045.21 993.2 1045.21 Q997.906 1045.21 1001.15 1048.99 Q1004.39 1052.78 1004.39 1058.06 Q1004.39 1063.6 1000.55 1067.39 Q996.73 1071.17 991.565 1071.17 Q986.859 1071.17 983.875 1067.82 Q980.92 1064.46 980.92 1060.41 Z" fill="#000000" fill-rule="nonzero" fill-opacity="1" /><path clip-path="url(#clip420)" d="M1215.27 221.404 Q1214.17 226.692 1212.73 229.725 Q1210.44 234.357 1206.54 234.357 Q1203.59 234.357 1201.5 232.553 Q1199.41 230.75 1198.92 228.045 Q1193.55 234.357 1187.98 234.357 Q1183.06 234.357 1179.94 230.627 Q1176.83 226.856 1176.83 220.913 Q1176.83 214.928 1179.78 209.19 Q1182.77 203.451 1187.48 199.885 Q1192.2 196.319 1197.03 196.319 Q1202.16 196.319 1204.78 201.689 Q1204.99 200.213 1205.93 199.106 Q1206.87 198 1208.31 198 Q1209.41 198 1210.07 198.614 Q1210.72 199.188 1210.72 200.254 Q1210.72 200.787 1210.15 203.123 L1207.12 214.846 L1205.27 222.429 Q1204.58 225.216 1204.37 226.241 Q1204.21 227.266 1204.21 228.619 Q1204.21 232.472 1206.71 232.472 Q1207.94 232.472 1208.92 231.693 Q1209.91 230.914 1210.68 229.274 Q1211.46 227.635 1211.95 226.118 Q1212.45 224.561 1213.1 222.101 Q1213.31 221.117 1213.47 220.872 Q1213.68 220.585 1214.25 220.585 Q1215.27 220.585 1215.27 221.404 M1203.76 205.542 Q1203.76 205.173 1203.47 204.148 Q1203.18 203.123 1202.53 201.689 Q1201.87 200.254 1200.44 199.229 Q1199.04 198.163 1197.16 198.163 Q1194.62 198.163 1191.95 200.336 Q1189.33 202.508 1187.4 206.197 Q1185.93 209.149 1184.33 215.338 Q1182.77 221.527 1182.77 224.602 Q1182.77 226.487 1183.18 228.168 Q1183.63 229.807 1184.9 231.16 Q1186.17 232.472 1188.14 232.472 Q1192.94 232.472 1197.65 226.528 Q1198.55 225.503 1198.76 225.093 Q1199 224.643 1199.33 223.413 L1203.51 206.976 Q1203.76 205.746 1203.76 205.542 Z" fill="#000000" fill-rule="nonzero" fill-opacity="1" /><path clip-path="url(#clip420)" d="M1223.86 224.068 L1223.86 222.231 Q1230.92 222.231 1234.57 218.473 Q1235.57 218.473 1235.74 218.702 Q1235.92 218.932 1235.92 219.993 L1235.92 252.961 Q1235.92 254.711 1236.78 255.256 Q1237.64 255.802 1241.4 255.802 L1243.26 255.802 L1243.26 257.609 Q1241.2 257.437 1233.74 257.437 Q1226.28 257.437 1224.24 257.609 L1224.24 255.802 L1226.1 255.802 Q1229.8 255.802 1230.69 255.285 Q1231.58 254.74 1231.58 252.961 L1231.58 222.518 Q1228.51 224.068 1223.86 224.068 Z" fill="#000000" fill-rule="nonzero" fill-opacity="1" /><path clip-path="url(#clip420)" d="M2245.15 220.199 Q2245.15 226.101 2242.15 231.881 Q2239.2 237.619 2234.45 241.227 Q2229.73 244.834 2224.9 244.834 Q2220.18 244.834 2217.19 241.227 Q2214.24 237.578 2214.24 231.635 Q2214.24 229.545 2214.49 228.069 Q2214.73 226.593 2215.59 223.15 L2222.48 195.769 Q2223.67 190.646 2223.67 190.605 Q2223.67 190.113 2223.46 189.867 Q2223.3 189.58 2222.31 189.375 Q2221.33 189.17 2219.45 189.17 Q2218.67 189.17 2218.3 189.129 Q2217.97 189.088 2217.68 188.883 Q2217.44 188.637 2217.44 188.145 Q2217.44 187.449 2217.72 187.08 Q2218.05 186.67 2218.3 186.588 Q2218.54 186.506 2219.04 186.465 Q2219.73 186.424 2222.07 186.219 Q2224.41 185.973 2226.41 185.809 Q2228.42 185.645 2229.28 185.645 Q2229.77 185.645 2230.02 185.891 Q2230.31 186.096 2230.31 186.342 L2230.35 186.547 L2224.16 211.837 Q2229.04 206.796 2234 206.796 Q2238.96 206.796 2242.03 210.608 Q2245.15 214.42 2245.15 220.199 M2239.08 216.51 Q2239.08 212.616 2237.6 210.649 Q2236.17 208.64 2233.79 208.64 Q2231.78 208.64 2229.16 210.157 Q2226.54 211.673 2223.75 215.362 Q2223.22 216.059 2223.01 216.469 Q2222.85 216.879 2222.48 218.273 L2220.63 226.019 Q2219.28 231.307 2219.28 234.504 Q2219.28 238.849 2220.88 240.899 Q2222.48 242.948 2224.9 242.948 Q2227.44 242.948 2230.1 240.694 Q2232.77 238.439 2234.82 234.34 Q2236.09 231.635 2237.56 225.815 Q2239.08 219.953 2239.08 216.51 Z" fill="#000000" fill-rule="nonzero" fill-opacity="1" /><path clip-path="url(#clip420)" d="M2253.81 234.544 L2253.81 232.708 Q2260.87 232.708 2264.51 228.949 Q2265.52 228.949 2265.69 229.179 Q2265.86 229.408 2265.86 230.47 L2265.86 263.438 Q2265.86 265.188 2266.72 265.733 Q2267.58 266.278 2271.34 266.278 L2273.21 266.278 L2273.21 268.086 Q2271.14 267.914 2263.68 267.914 Q2256.22 267.914 2254.18 268.086 L2254.18 266.278 L2256.05 266.278 Q2259.75 266.278 2260.64 265.762 Q2261.53 265.217 2261.53 263.438 L2261.53 232.995 Q2258.46 234.544 2253.81 234.544 Z" fill="#000000" fill-rule="nonzero" fill-opacity="1" /><path clip-path="url(#clip420)" d="M1678.14 298.505 Q1677.04 303.792 1675.6 306.825 Q1673.31 311.457 1669.41 311.457 Q1666.46 311.457 1664.37 309.654 Q1662.28 307.85 1661.79 305.145 Q1656.42 311.457 1650.84 311.457 Q1645.93 311.457 1642.81 307.727 Q1639.7 303.956 1639.7 298.013 Q1639.7 292.028 1642.65 286.29 Q1645.64 280.551 1650.35 276.985 Q1655.07 273.419 1659.9 273.419 Q1665.03 273.419 1667.65 278.789 Q1667.86 277.313 1668.8 276.206 Q1669.74 275.1 1671.18 275.1 Q1672.28 275.1 1672.94 275.715 Q1673.59 276.288 1673.59 277.354 Q1673.59 277.887 1673.02 280.223 L1669.99 291.946 L1668.14 299.529 Q1667.45 302.317 1667.24 303.341 Q1667.08 304.366 1667.08 305.719 Q1667.08 309.572 1669.58 309.572 Q1670.81 309.572 1671.79 308.793 Q1672.77 308.014 1673.55 306.375 Q1674.33 304.735 1674.82 303.218 Q1675.32 301.661 1675.97 299.201 Q1676.18 298.218 1676.34 297.972 Q1676.54 297.685 1677.12 297.685 Q1678.14 297.685 1678.14 298.505 M1666.63 282.642 Q1666.63 282.273 1666.34 281.248 Q1666.05 280.223 1665.4 278.789 Q1664.74 277.354 1663.31 276.329 Q1661.91 275.264 1660.03 275.264 Q1657.48 275.264 1654.82 277.436 Q1652.2 279.609 1650.27 283.298 Q1648.8 286.249 1647.2 292.438 Q1645.64 298.628 1645.64 301.702 Q1645.64 303.587 1646.05 305.268 Q1646.5 306.907 1647.77 308.26 Q1649.04 309.572 1651.01 309.572 Q1655.8 309.572 1660.52 303.628 Q1661.42 302.604 1661.62 302.194 Q1661.87 301.743 1662.2 300.513 L1666.38 284.076 Q1666.63 282.847 1666.63 282.642 Z" fill="#000000" fill-rule="nonzero" fill-opacity="1" /><path clip-path="url(#clip420)" d="M1686.73 334.709 Q1686.73 333.648 1686.82 333.332 Q1686.93 333.017 1687.39 332.529 L1698.67 319.962 Q1704.84 313.018 1704.84 306.964 Q1704.84 303.033 1702.77 300.221 Q1700.74 297.409 1696.98 297.409 Q1694.39 297.409 1692.21 298.987 Q1690.03 300.565 1689.03 303.377 Q1689.2 303.32 1689.8 303.32 Q1691.27 303.32 1692.07 304.238 Q1692.9 305.156 1692.9 306.39 Q1692.9 307.968 1691.87 308.743 Q1690.87 309.489 1689.86 309.489 Q1689.46 309.489 1688.91 309.403 Q1688.4 309.317 1687.57 308.513 Q1686.73 307.681 1686.73 306.218 Q1686.73 302.115 1689.83 298.844 Q1692.96 295.573 1697.72 295.573 Q1703.12 295.573 1706.65 298.786 Q1710.2 301.971 1710.2 306.964 Q1710.2 308.714 1709.66 310.321 Q1709.14 311.899 1708.43 313.133 Q1707.74 314.366 1705.84 316.346 Q1703.95 318.326 1702.43 319.732 Q1700.91 321.138 1697.49 324.122 L1691.27 330.176 L1701.85 330.176 Q1707.02 330.176 1707.42 329.717 Q1707.99 328.885 1708.71 324.495 L1710.2 324.495 L1708.54 334.709 L1686.73 334.709 Z" fill="#000000" fill-rule="nonzero" fill-opacity="1" /><path clip-path="url(#clip420)" d="M2245.15 297.299 Q2245.15 303.202 2242.15 308.981 Q2239.2 314.72 2234.45 318.327 Q2229.73 321.934 2224.9 321.934 Q2220.18 321.934 2217.19 318.327 Q2214.24 314.679 2214.24 308.735 Q2214.24 306.645 2214.49 305.169 Q2214.73 303.694 2215.59 300.25 L2222.48 272.87 Q2223.67 267.746 2223.67 267.705 Q2223.67 267.213 2223.46 266.967 Q2223.3 266.68 2222.31 266.475 Q2221.33 266.27 2219.45 266.27 Q2218.67 266.27 2218.3 266.229 Q2217.97 266.188 2217.68 265.983 Q2217.44 265.737 2217.44 265.246 Q2217.44 264.549 2217.72 264.18 Q2218.05 263.77 2218.3 263.688 Q2218.54 263.606 2219.04 263.565 Q2219.73 263.524 2222.07 263.319 Q2224.41 263.073 2226.41 262.909 Q2228.42 262.745 2229.28 262.745 Q2229.77 262.745 2230.02 262.991 Q2230.31 263.196 2230.31 263.442 L2230.35 263.647 L2224.16 288.937 Q2229.04 283.896 2234 283.896 Q2238.96 283.896 2242.03 287.708 Q2245.15 291.52 2245.15 297.299 M2239.08 293.61 Q2239.08 289.716 2237.6 287.749 Q2236.17 285.74 2233.79 285.74 Q2231.78 285.74 2229.16 287.257 Q2226.54 288.773 2223.75 292.462 Q2223.22 293.159 2223.01 293.569 Q2222.85 293.979 2222.48 295.373 L2220.63 303.12 Q2219.28 308.407 2219.28 311.604 Q2219.28 315.949 2220.88 317.999 Q2222.48 320.048 2224.9 320.048 Q2227.44 320.048 2230.1 317.794 Q2232.77 315.539 2234.82 311.441 Q2236.09 308.735 2237.56 302.915 Q2239.08 297.053 2239.08 293.61 Z" fill="#000000" fill-rule="nonzero" fill-opacity="1" /><path clip-path="url(#clip420)" d="M2253.81 345.186 Q2253.81 344.124 2253.9 343.809 Q2254.01 343.493 2254.47 343.005 L2265.75 330.438 Q2271.91 323.494 2271.91 317.44 Q2271.91 313.51 2269.85 310.698 Q2267.81 307.886 2264.05 307.886 Q2261.47 307.886 2259.29 309.464 Q2257.11 311.042 2256.1 313.854 Q2256.28 313.796 2256.88 313.796 Q2258.34 313.796 2259.15 314.715 Q2259.98 315.633 2259.98 316.867 Q2259.98 318.445 2258.95 319.219 Q2257.94 319.965 2256.94 319.965 Q2256.53 319.965 2255.99 319.879 Q2255.47 319.793 2254.64 318.99 Q2253.81 318.158 2253.81 316.694 Q2253.81 312.591 2256.91 309.32 Q2260.04 306.049 2264.8 306.049 Q2270.19 306.049 2273.72 309.263 Q2277.28 312.448 2277.28 317.44 Q2277.28 319.191 2276.73 320.797 Q2276.22 322.375 2275.5 323.609 Q2274.81 324.843 2272.92 326.823 Q2271.02 328.803 2269.5 330.209 Q2267.98 331.614 2264.57 334.598 L2258.34 340.653 L2268.93 340.653 Q2274.09 340.653 2274.5 340.194 Q2275.07 339.361 2275.79 334.971 L2277.28 334.971 L2275.62 345.186 L2253.81 345.186 Z" fill="#000000" fill-rule="nonzero" fill-opacity="1" /><path clip-path="url(#clip420)" d="M1678.14 374.965 Q1677.04 380.253 1675.6 383.286 Q1673.31 387.918 1669.41 387.918 Q1666.46 387.918 1664.37 386.114 Q1662.28 384.311 1661.79 381.605 Q1656.42 387.918 1650.84 387.918 Q1645.93 387.918 1642.81 384.188 Q1639.7 380.417 1639.7 374.473 Q1639.7 368.489 1642.65 362.75 Q1645.64 357.012 1650.35 353.446 Q1655.07 349.88 1659.9 349.88 Q1665.03 349.88 1667.65 355.249 Q1667.86 353.774 1668.8 352.667 Q1669.74 351.56 1671.18 351.56 Q1672.28 351.56 1672.94 352.175 Q1673.59 352.749 1673.59 353.814 Q1673.59 354.347 1673.02 356.684 L1669.99 368.407 L1668.14 375.99 Q1667.45 378.777 1667.24 379.802 Q1667.08 380.826 1667.08 382.179 Q1667.08 386.032 1669.58 386.032 Q1670.81 386.032 1671.79 385.253 Q1672.77 384.474 1673.55 382.835 Q1674.33 381.195 1674.82 379.679 Q1675.32 378.121 1675.97 375.662 Q1676.18 374.678 1676.34 374.432 Q1676.54 374.145 1677.12 374.145 Q1678.14 374.145 1678.14 374.965 M1666.63 359.102 Q1666.63 358.733 1666.34 357.708 Q1666.05 356.684 1665.4 355.249 Q1664.74 353.814 1663.31 352.79 Q1661.91 351.724 1660.03 351.724 Q1657.48 351.724 1654.82 353.896 Q1652.2 356.069 1650.27 359.758 Q1648.8 362.709 1647.2 368.899 Q1645.64 375.088 1645.64 378.162 Q1645.64 380.048 1646.05 381.728 Q1646.5 383.368 1647.77 384.72 Q1649.04 386.032 1651.01 386.032 Q1655.8 386.032 1660.52 380.089 Q1661.42 379.064 1661.62 378.654 Q1661.87 378.203 1662.2 376.973 L1666.38 360.537 Q1666.63 359.307 1666.63 359.102 Z" fill="#000000" fill-rule="nonzero" fill-opacity="1" /><path clip-path="url(#clip420)" d="M1686.73 403.251 Q1686.73 401.5 1687.74 400.668 Q1688.74 399.836 1690.03 399.836 Q1691.38 399.836 1692.33 400.726 Q1693.3 401.587 1693.3 403.107 Q1693.3 404.743 1692.16 405.661 Q1691.04 406.579 1689.43 406.349 Q1690.84 408.702 1693.42 409.764 Q1696.03 410.826 1698.44 410.826 Q1700.97 410.826 1703 408.645 Q1705.07 406.464 1705.07 401.127 Q1705.07 396.594 1703.29 393.983 Q1701.54 391.372 1698.07 391.372 L1695.48 391.372 Q1694.6 391.372 1694.34 391.286 Q1694.08 391.2 1694.08 390.712 Q1694.08 390.138 1694.97 390.023 Q1695.86 390.023 1697.26 389.851 Q1700.68 389.737 1702.49 386.781 Q1704.12 384.027 1704.12 380.096 Q1704.12 376.509 1702.4 375.017 Q1700.71 373.497 1698.5 373.497 Q1696.43 373.497 1694.17 374.357 Q1691.9 375.218 1690.66 377.141 Q1694.31 377.141 1694.31 380.096 Q1694.31 381.387 1693.48 382.248 Q1692.67 383.08 1691.32 383.08 Q1690.03 383.08 1689.17 382.276 Q1688.31 381.444 1688.31 380.038 Q1688.31 376.681 1691.3 374.357 Q1694.31 372.033 1698.73 372.033 Q1703.09 372.033 1706.3 374.329 Q1709.54 376.624 1709.54 380.153 Q1709.54 383.625 1707.25 386.466 Q1704.95 389.306 1701.31 390.483 Q1705.79 391.372 1708.45 394.413 Q1711.12 397.426 1711.12 401.127 Q1711.12 405.718 1707.51 409.104 Q1703.89 412.461 1698.61 412.461 Q1693.73 412.461 1690.23 409.821 Q1686.73 407.182 1686.73 403.251 Z" fill="#000000" fill-rule="nonzero" fill-opacity="1" /><path clip-path="url(#clip420)" d="M2013.71 373.76 Q2013.71 379.662 2010.72 385.442 Q2007.77 391.18 2003.01 394.787 Q1998.3 398.394 1993.46 398.394 Q1988.75 398.394 1985.76 394.787 Q1982.81 391.139 1982.81 385.196 Q1982.81 383.105 1983.05 381.63 Q1983.3 380.154 1984.16 376.711 L1991.04 349.33 Q1992.23 344.206 1992.23 344.165 Q1992.23 343.673 1992.03 343.428 Q1991.86 343.141 1990.88 342.936 Q1989.9 342.731 1988.01 342.731 Q1987.23 342.731 1986.86 342.69 Q1986.54 342.649 1986.25 342.444 Q1986 342.198 1986 341.706 Q1986 341.009 1986.29 340.64 Q1986.62 340.23 1986.86 340.148 Q1987.11 340.066 1987.6 340.025 Q1988.3 339.984 1990.63 339.779 Q1992.97 339.534 1994.98 339.37 Q1996.99 339.206 1997.85 339.206 Q1998.34 339.206 1998.59 339.452 Q1998.87 339.656 1998.87 339.902 L1998.91 340.107 L1992.72 365.398 Q1997.6 360.356 2002.56 360.356 Q2007.52 360.356 2010.6 364.168 Q2013.71 367.98 2013.71 373.76 M2007.64 370.071 Q2007.64 366.177 2006.17 364.209 Q2004.73 362.201 2002.36 362.201 Q2000.35 362.201 1997.73 363.717 Q1995.1 365.234 1992.31 368.923 Q1991.78 369.62 1991.58 370.03 Q1991.41 370.439 1991.04 371.833 L1989.2 379.58 Q1987.85 384.868 1987.85 388.065 Q1987.85 392.41 1989.45 394.459 Q1991.04 396.509 1993.46 396.509 Q1996 396.509 1998.67 394.254 Q2001.33 392 2003.38 387.901 Q2004.65 385.196 2006.13 379.375 Q2007.64 373.514 2007.64 370.071 Z" fill="#000000" fill-rule="nonzero" fill-opacity="1" /><path clip-path="url(#clip420)" d="M2022.37 413.727 Q2022.37 411.977 2023.38 411.145 Q2024.38 410.313 2025.67 410.313 Q2027.02 410.313 2027.97 411.202 Q2028.95 412.063 2028.95 413.584 Q2028.95 415.219 2027.8 416.137 Q2026.68 417.056 2025.07 416.826 Q2026.48 419.179 2029.06 420.24 Q2031.67 421.302 2034.08 421.302 Q2036.61 421.302 2038.64 419.121 Q2040.71 416.941 2040.71 411.604 Q2040.71 407.071 2038.93 404.46 Q2037.18 401.849 2033.71 401.849 L2031.13 401.849 Q2030.24 401.849 2029.98 401.762 Q2029.72 401.676 2029.72 401.189 Q2029.72 400.615 2030.61 400.5 Q2031.5 400.5 2032.9 400.328 Q2036.32 400.213 2038.13 397.258 Q2039.76 394.503 2039.76 390.572 Q2039.76 386.986 2038.04 385.494 Q2036.35 383.973 2034.14 383.973 Q2032.07 383.973 2029.81 384.834 Q2027.54 385.695 2026.31 387.617 Q2029.95 387.617 2029.95 390.572 Q2029.95 391.864 2029.12 392.724 Q2028.31 393.556 2026.97 393.556 Q2025.67 393.556 2024.81 392.753 Q2023.95 391.921 2023.95 390.515 Q2023.95 387.158 2026.94 384.834 Q2029.95 382.51 2034.37 382.51 Q2038.73 382.51 2041.94 384.805 Q2045.19 387.101 2045.19 390.63 Q2045.19 394.102 2042.89 396.942 Q2040.59 399.783 2036.95 400.959 Q2041.43 401.849 2044.09 404.89 Q2046.76 407.903 2046.76 411.604 Q2046.76 416.195 2043.15 419.581 Q2039.53 422.938 2034.25 422.938 Q2029.38 422.938 2025.88 420.298 Q2022.37 417.658 2022.37 413.727 Z" fill="#000000" fill-rule="nonzero" fill-opacity="1" /><path clip-path="url(#clip420)" d="M1678.14 452.508 Q1677.04 457.796 1675.6 460.829 Q1673.31 465.461 1669.41 465.461 Q1666.46 465.461 1664.37 463.657 Q1662.28 461.854 1661.79 459.148 Q1656.42 465.461 1650.84 465.461 Q1645.93 465.461 1642.81 461.731 Q1639.7 457.96 1639.7 452.016 Q1639.7 446.032 1642.65 440.293 Q1645.64 434.555 1650.35 430.989 Q1655.07 427.423 1659.9 427.423 Q1665.03 427.423 1667.65 432.792 Q1667.86 431.317 1668.8 430.21 Q1669.74 429.103 1671.18 429.103 Q1672.28 429.103 1672.94 429.718 Q1673.59 430.292 1673.59 431.358 Q1673.59 431.891 1673.02 434.227 L1669.99 445.95 L1668.14 453.533 Q1667.45 456.32 1667.24 457.345 Q1667.08 458.37 1667.08 459.722 Q1667.08 463.575 1669.58 463.575 Q1670.81 463.575 1671.79 462.796 Q1672.77 462.018 1673.55 460.378 Q1674.33 458.738 1674.82 457.222 Q1675.32 455.664 1675.97 453.205 Q1676.18 452.221 1676.34 451.975 Q1676.54 451.688 1677.12 451.688 Q1678.14 451.688 1678.14 452.508 M1666.63 436.645 Q1666.63 436.276 1666.34 435.252 Q1666.05 434.227 1665.4 432.792 Q1664.74 431.358 1663.31 430.333 Q1661.91 429.267 1660.03 429.267 Q1657.48 429.267 1654.82 431.44 Q1652.2 433.612 1650.27 437.301 Q1648.8 440.252 1647.2 446.442 Q1645.64 452.631 1645.64 455.705 Q1645.64 457.591 1646.05 459.271 Q1646.5 460.911 1647.77 462.264 Q1649.04 463.575 1651.01 463.575 Q1655.8 463.575 1660.52 457.632 Q1661.42 456.607 1661.62 456.197 Q1661.87 455.746 1662.2 454.517 L1666.38 438.08 Q1666.63 436.85 1666.63 436.645 Z" fill="#000000" fill-rule="nonzero" fill-opacity="1" /><path clip-path="url(#clip420)" d="M1686.73 479.409 L1686.73 477.601 L1704.78 450.028 Q1705.24 449.31 1705.96 449.339 Q1706.62 449.339 1706.76 449.597 Q1706.9 449.855 1706.9 450.86 L1706.9 477.601 L1712.79 477.601 L1712.79 479.409 L1706.9 479.409 L1706.9 484.516 Q1706.9 486.209 1707.59 486.754 Q1708.31 487.299 1711.35 487.299 L1712.59 487.299 L1712.59 489.107 Q1710.18 488.935 1704.61 488.935 Q1699.07 488.935 1696.66 489.107 L1696.66 487.299 L1697.9 487.299 Q1700.94 487.299 1701.65 486.783 Q1702.37 486.237 1702.37 484.516 L1702.37 479.409 L1686.73 479.409 M1688.4 477.601 L1702.72 477.601 L1702.72 455.68 L1688.4 477.601 Z" fill="#000000" fill-rule="nonzero" fill-opacity="1" /><path clip-path="url(#clip420)" d="M1897.99 451.303 Q1897.99 457.205 1895 462.985 Q1892.05 468.723 1887.3 472.33 Q1882.58 475.937 1877.75 475.937 Q1873.03 475.937 1870.04 472.33 Q1867.09 468.682 1867.09 462.739 Q1867.09 460.648 1867.33 459.173 Q1867.58 457.697 1868.44 454.254 L1875.33 426.873 Q1876.52 421.749 1876.52 421.708 Q1876.52 421.217 1876.31 420.971 Q1876.15 420.684 1875.16 420.479 Q1874.18 420.274 1872.29 420.274 Q1871.51 420.274 1871.15 420.233 Q1870.82 420.192 1870.53 419.987 Q1870.29 419.741 1870.29 419.249 Q1870.29 418.552 1870.57 418.183 Q1870.9 417.774 1871.15 417.692 Q1871.39 417.61 1871.88 417.569 Q1872.58 417.528 1874.92 417.323 Q1877.25 417.077 1879.26 416.913 Q1881.27 416.749 1882.13 416.749 Q1882.62 416.749 1882.87 416.995 Q1883.16 417.2 1883.16 417.446 L1883.2 417.651 L1877.01 442.941 Q1881.89 437.899 1886.84 437.899 Q1891.8 437.899 1894.88 441.711 Q1897.99 445.523 1897.99 451.303 M1891.93 447.614 Q1891.93 443.72 1890.45 441.752 Q1889.02 439.744 1886.64 439.744 Q1884.63 439.744 1882.01 441.26 Q1879.38 442.777 1876.6 446.466 Q1876.06 447.163 1875.86 447.573 Q1875.7 447.983 1875.33 449.376 L1873.48 457.123 Q1872.13 462.411 1872.13 465.608 Q1872.13 469.953 1873.73 472.002 Q1875.33 474.052 1877.75 474.052 Q1880.29 474.052 1882.95 471.797 Q1885.62 469.543 1887.66 465.444 Q1888.94 462.739 1890.41 456.918 Q1891.93 451.057 1891.93 447.614 Z" fill="#000000" fill-rule="nonzero" fill-opacity="1" /><path clip-path="url(#clip420)" d="M1906.66 489.885 L1906.66 488.078 L1924.71 460.504 Q1925.16 459.787 1925.88 459.816 Q1926.54 459.816 1926.68 460.074 Q1926.83 460.332 1926.83 461.336 L1926.83 488.078 L1932.71 488.078 L1932.71 489.885 L1926.83 489.885 L1926.83 494.993 Q1926.83 496.685 1927.52 497.231 Q1928.23 497.776 1931.28 497.776 L1932.51 497.776 L1932.51 499.583 Q1930.1 499.411 1924.53 499.411 Q1919 499.411 1916.59 499.583 L1916.59 497.776 L1917.82 497.776 Q1920.86 497.776 1921.58 497.259 Q1922.29 496.714 1922.29 494.993 L1922.29 489.885 L1906.66 489.885 M1908.32 488.078 L1922.64 488.078 L1922.64 466.157 L1908.32 488.078 Z" fill="#000000" fill-rule="nonzero" fill-opacity="1" /><path clip-path="url(#clip420)" d="M1678.14 529.165 Q1677.04 534.453 1675.6 537.486 Q1673.31 542.118 1669.41 542.118 Q1666.46 542.118 1664.37 540.314 Q1662.28 538.511 1661.79 535.806 Q1656.42 542.118 1650.84 542.118 Q1645.93 542.118 1642.81 538.388 Q1639.7 534.617 1639.7 528.673 Q1639.7 522.689 1642.65 516.951 Q1645.64 511.212 1650.35 507.646 Q1655.07 504.08 1659.9 504.08 Q1665.03 504.08 1667.65 509.45 Q1667.86 507.974 1668.8 506.867 Q1669.74 505.76 1671.18 505.76 Q1672.28 505.76 1672.94 506.375 Q1673.59 506.949 1673.59 508.015 Q1673.59 508.548 1673.02 510.884 L1669.99 522.607 L1668.14 530.19 Q1667.45 532.977 1667.24 534.002 Q1667.08 535.027 1667.08 536.379 Q1667.08 540.232 1669.58 540.232 Q1670.81 540.232 1671.79 539.454 Q1672.77 538.675 1673.55 537.035 Q1674.33 535.396 1674.82 533.879 Q1675.32 532.322 1675.97 529.862 Q1676.18 528.878 1676.34 528.633 Q1676.54 528.346 1677.12 528.346 Q1678.14 528.346 1678.14 529.165 M1666.63 513.303 Q1666.63 512.934 1666.34 511.909 Q1666.05 510.884 1665.4 509.45 Q1664.74 508.015 1663.31 506.99 Q1661.91 505.924 1660.03 505.924 Q1657.48 505.924 1654.82 508.097 Q1652.2 510.269 1650.27 513.958 Q1648.8 516.91 1647.2 523.099 Q1645.64 529.288 1645.64 532.363 Q1645.64 534.248 1646.05 535.929 Q1646.5 537.568 1647.77 538.921 Q1649.04 540.232 1651.01 540.232 Q1655.8 540.232 1660.52 534.289 Q1661.42 533.264 1661.62 532.854 Q1661.87 532.404 1662.2 531.174 L1666.38 514.737 Q1666.63 513.507 1666.63 513.303 Z" fill="#000000" fill-rule="nonzero" fill-opacity="1" /><path clip-path="url(#clip420)" d="M1686.73 555.902 Q1686.73 554.151 1687.68 553.492 Q1688.63 552.803 1689.63 552.803 Q1690.98 552.803 1691.75 553.664 Q1692.56 554.496 1692.56 555.672 Q1692.56 556.849 1691.75 557.709 Q1690.98 558.541 1689.63 558.541 Q1688.97 558.541 1688.63 558.427 Q1689.4 561.124 1691.75 563.075 Q1694.14 565.026 1697.26 565.026 Q1701.19 565.026 1703.55 561.21 Q1704.95 558.742 1704.95 553.147 Q1704.95 548.212 1703.89 545.745 Q1702.26 541.986 1698.9 541.986 Q1694.14 541.986 1691.32 546.089 Q1690.98 546.605 1690.58 546.634 Q1690 546.634 1689.86 546.318 Q1689.75 545.974 1689.75 545.085 L1689.75 527.697 Q1689.75 526.291 1690.32 526.291 Q1690.55 526.291 1691.04 526.463 Q1694.74 528.099 1698.84 528.127 Q1703.06 528.127 1706.85 526.406 Q1707.13 526.234 1707.31 526.234 Q1707.88 526.234 1707.91 526.894 Q1707.91 527.123 1707.42 527.812 Q1706.96 528.472 1705.96 529.361 Q1704.95 530.222 1703.66 531.054 Q1702.37 531.886 1700.48 532.46 Q1698.61 533.005 1696.55 533.005 Q1694.08 533.005 1691.55 532.23 L1691.55 543.679 Q1694.6 540.695 1699.01 540.695 Q1703.72 540.695 1706.96 544.482 Q1710.2 548.269 1710.2 553.549 Q1710.2 559.087 1706.36 562.874 Q1702.54 566.661 1697.38 566.661 Q1692.67 566.661 1689.69 563.304 Q1686.73 559.947 1686.73 555.902 Z" fill="#000000" fill-rule="nonzero" fill-opacity="1" /><path clip-path="url(#clip420)" d="M1840.14 527.96 Q1840.14 533.862 1837.14 539.642 Q1834.19 545.38 1829.44 548.987 Q1824.72 552.595 1819.89 552.595 Q1815.17 552.595 1812.18 548.987 Q1809.23 545.339 1809.23 539.396 Q1809.23 537.306 1809.48 535.83 Q1809.72 534.354 1810.58 530.911 L1817.47 503.53 Q1818.66 498.407 1818.66 498.366 Q1818.66 497.874 1818.45 497.628 Q1818.29 497.341 1817.3 497.136 Q1816.32 496.931 1814.44 496.931 Q1813.66 496.931 1813.29 496.89 Q1812.96 496.849 1812.67 496.644 Q1812.43 496.398 1812.43 495.906 Q1812.43 495.21 1812.71 494.841 Q1813.04 494.431 1813.29 494.349 Q1813.53 494.267 1814.03 494.226 Q1814.72 494.185 1817.06 493.98 Q1819.39 493.734 1821.4 493.57 Q1823.41 493.406 1824.27 493.406 Q1824.76 493.406 1825.01 493.652 Q1825.3 493.857 1825.3 494.103 L1825.34 494.308 L1819.15 519.598 Q1824.03 514.556 1828.99 514.556 Q1833.95 514.556 1837.02 518.368 Q1840.14 522.18 1840.14 527.96 M1834.07 524.271 Q1834.07 520.377 1832.59 518.409 Q1831.16 516.401 1828.78 516.401 Q1826.77 516.401 1824.15 517.918 Q1821.53 519.434 1818.74 523.123 Q1818.21 523.82 1818 524.23 Q1817.84 524.64 1817.47 526.033 L1815.62 533.78 Q1814.27 539.068 1814.27 542.265 Q1814.27 546.61 1815.87 548.66 Q1817.47 550.709 1819.89 550.709 Q1822.43 550.709 1825.09 548.455 Q1827.76 546.2 1829.81 542.101 Q1831.08 539.396 1832.55 533.576 Q1834.07 527.714 1834.07 524.271 Z" fill="#000000" fill-rule="nonzero" fill-opacity="1" /><path clip-path="url(#clip420)" d="M1848.8 566.378 Q1848.8 564.628 1849.75 563.968 Q1850.69 563.279 1851.7 563.279 Q1853.05 563.279 1853.82 564.14 Q1854.62 564.972 1854.62 566.149 Q1854.62 567.325 1853.82 568.186 Q1853.05 569.018 1851.7 569.018 Q1851.04 569.018 1850.69 568.903 Q1851.47 571.6 1853.82 573.551 Q1856.2 575.502 1859.33 575.502 Q1863.26 575.502 1865.61 571.686 Q1867.02 569.219 1867.02 563.624 Q1867.02 558.689 1865.96 556.221 Q1864.32 552.462 1860.96 552.462 Q1856.2 552.462 1853.39 556.565 Q1853.05 557.082 1852.64 557.111 Q1852.07 557.111 1851.93 556.795 Q1851.81 556.451 1851.81 555.561 L1851.81 538.174 Q1851.81 536.768 1852.39 536.768 Q1852.61 536.768 1853.1 536.94 Q1856.8 538.575 1860.91 538.604 Q1865.12 538.604 1868.91 536.882 Q1869.2 536.71 1869.37 536.71 Q1869.95 536.71 1869.97 537.37 Q1869.97 537.6 1869.49 538.288 Q1869.03 538.948 1868.02 539.838 Q1867.02 540.698 1865.73 541.531 Q1864.44 542.363 1862.54 542.936 Q1860.68 543.482 1858.61 543.482 Q1856.14 543.482 1853.62 542.707 L1853.62 554.155 Q1856.66 551.171 1861.08 551.171 Q1865.78 551.171 1869.03 554.959 Q1872.27 558.746 1872.27 564.025 Q1872.27 569.563 1868.42 573.351 Q1864.61 577.138 1859.44 577.138 Q1854.74 577.138 1851.75 573.781 Q1848.8 570.424 1848.8 566.378 Z" fill="#000000" fill-rule="nonzero" fill-opacity="1" /></svg>
