<?xml version="1.0" encoding="utf-8"?>
<svg xmlns="http://www.w3.org/2000/svg" xmlns:xlink="http://www.w3.org/1999/xlink" width="600" height="400" viewBox="0 0 2400 1600">
<defs>
  <clipPath id="clip810">
    <rect x="0" y="0" width="2400" height="1600"/>
  </clipPath>
</defs>
<path clip-path="url(#clip810)" d="M0 1600 L2400 1600 L2400 0 L0 0  Z" fill="#ffffff" fill-rule="evenodd" fill-opacity="1"/>
<defs>
  <clipPath id="clip811">
    <rect x="480" y="0" width="1681" height="1600"/>
  </clipPath>
</defs>
<path clip-path="url(#clip810)" d="M147.108 1486.45 L2352.76 1486.45 L2352.76 47.2441 L147.108 47.2441  Z" fill="#ffffff" fill-rule="evenodd" fill-opacity="1"/>
<defs>
  <clipPath id="clip812">
    <rect x="147" y="47" width="2207" height="1440"/>
  </clipPath>
</defs>
<polyline clip-path="url(#clip812)" style="stroke:#000000; stroke-linecap:round; stroke-linejoin:round; stroke-width:2; stroke-opacity:0.1; fill:none" points="147.108,1486.45 147.108,47.2441 "/>
<polyline clip-path="url(#clip812)" style="stroke:#000000; stroke-linecap:round; stroke-linejoin:round; stroke-width:2; stroke-opacity:0.1; fill:none" points="462.2,1486.45 462.2,47.2441 "/>
<polyline clip-path="url(#clip812)" style="stroke:#000000; stroke-linecap:round; stroke-linejoin:round; stroke-width:2; stroke-opacity:0.1; fill:none" points="777.293,1486.45 777.293,47.2441 "/>
<polyline clip-path="url(#clip812)" style="stroke:#000000; stroke-linecap:round; stroke-linejoin:round; stroke-width:2; stroke-opacity:0.1; fill:none" points="1092.39,1486.45 1092.39,47.2441 "/>
<polyline clip-path="url(#clip812)" style="stroke:#000000; stroke-linecap:round; stroke-linejoin:round; stroke-width:2; stroke-opacity:0.1; fill:none" points="1407.48,1486.45 1407.48,47.2441 "/>
<polyline clip-path="url(#clip812)" style="stroke:#000000; stroke-linecap:round; stroke-linejoin:round; stroke-width:2; stroke-opacity:0.1; fill:none" points="1722.57,1486.45 1722.57,47.2441 "/>
<polyline clip-path="url(#clip812)" style="stroke:#000000; stroke-linecap:round; stroke-linejoin:round; stroke-width:2; stroke-opacity:0.1; fill:none" points="2037.66,1486.45 2037.66,47.2441 "/>
<polyline clip-path="url(#clip812)" style="stroke:#000000; stroke-linecap:round; stroke-linejoin:round; stroke-width:2; stroke-opacity:0.1; fill:none" points="2352.76,1486.45 2352.76,47.2441 "/>
<polyline clip-path="url(#clip810)" style="stroke:#000000; stroke-linecap:round; stroke-linejoin:round; stroke-width:4; stroke-opacity:1; fill:none" points="147.108,1486.45 2352.76,1486.45 "/>
<polyline clip-path="url(#clip810)" style="stroke:#000000; stroke-linecap:round; stroke-linejoin:round; stroke-width:4; stroke-opacity:1; fill:none" points="147.108,1486.45 147.108,1467.55 "/>
<polyline clip-path="url(#clip810)" style="stroke:#000000; stroke-linecap:round; stroke-linejoin:round; stroke-width:4; stroke-opacity:1; fill:none" points="462.2,1486.45 462.2,1467.55 "/>
<polyline clip-path="url(#clip810)" style="stroke:#000000; stroke-linecap:round; stroke-linejoin:round; stroke-width:4; stroke-opacity:1; fill:none" points="777.293,1486.45 777.293,1467.55 "/>
<polyline clip-path="url(#clip810)" style="stroke:#000000; stroke-linecap:round; stroke-linejoin:round; stroke-width:4; stroke-opacity:1; fill:none" points="1092.39,1486.45 1092.39,1467.55 "/>
<polyline clip-path="url(#clip810)" style="stroke:#000000; stroke-linecap:round; stroke-linejoin:round; stroke-width:4; stroke-opacity:1; fill:none" points="1407.48,1486.45 1407.48,1467.55 "/>
<polyline clip-path="url(#clip810)" style="stroke:#000000; stroke-linecap:round; stroke-linejoin:round; stroke-width:4; stroke-opacity:1; fill:none" points="1722.57,1486.45 1722.57,1467.55 "/>
<polyline clip-path="url(#clip810)" style="stroke:#000000; stroke-linecap:round; stroke-linejoin:round; stroke-width:4; stroke-opacity:1; fill:none" points="2037.66,1486.45 2037.66,1467.55 "/>
<polyline clip-path="url(#clip810)" style="stroke:#000000; stroke-linecap:round; stroke-linejoin:round; stroke-width:4; stroke-opacity:1; fill:none" points="2352.76,1486.45 2352.76,1467.55 "/>
<path clip-path="url(#clip810)" d="M117.05 1532.02 L146.726 1532.02 L146.726 1535.95 L117.05 1535.95 L117.05 1532.02 Z" fill="#000000" fill-rule="nonzero" fill-opacity="1" /><path clip-path="url(#clip810)" d="M160.846 1544.91 L177.165 1544.91 L177.165 1548.85 L155.221 1548.85 L155.221 1544.91 Q157.883 1542.16 162.466 1537.53 Q167.073 1532.88 168.253 1531.53 Q170.499 1529.01 171.378 1527.27 Q172.281 1525.51 172.281 1523.82 Q172.281 1521.07 170.337 1519.33 Q168.415 1517.6 165.313 1517.6 Q163.114 1517.6 160.661 1518.36 Q158.23 1519.13 155.452 1520.68 L155.452 1515.95 Q158.276 1514.82 160.73 1514.24 Q163.184 1513.66 165.221 1513.66 Q170.591 1513.66 173.786 1516.35 Q176.98 1519.03 176.98 1523.52 Q176.98 1525.65 176.17 1527.57 Q175.383 1529.47 173.276 1532.07 Q172.698 1532.74 169.596 1535.95 Q166.494 1539.15 160.846 1544.91 Z" fill="#000000" fill-rule="nonzero" fill-opacity="1" /><path clip-path="url(#clip810)" d="M431.957 1532.02 L461.633 1532.02 L461.633 1535.95 L431.957 1535.95 L431.957 1532.02 Z" fill="#000000" fill-rule="nonzero" fill-opacity="1" /><path clip-path="url(#clip810)" d="M472.536 1544.91 L480.175 1544.91 L480.175 1518.55 L471.864 1520.21 L471.864 1515.95 L480.128 1514.29 L484.804 1514.29 L484.804 1544.91 L492.443 1544.91 L492.443 1548.85 L472.536 1548.85 L472.536 1544.91 Z" fill="#000000" fill-rule="nonzero" fill-opacity="1" /><path clip-path="url(#clip810)" d="M777.293 1517.37 Q773.682 1517.37 771.853 1520.93 Q770.047 1524.47 770.047 1531.6 Q770.047 1538.71 771.853 1542.27 Q773.682 1545.82 777.293 1545.82 Q780.927 1545.82 782.733 1542.27 Q784.561 1538.71 784.561 1531.6 Q784.561 1524.47 782.733 1520.93 Q780.927 1517.37 777.293 1517.37 M777.293 1513.66 Q783.103 1513.66 786.158 1518.27 Q789.237 1522.85 789.237 1531.6 Q789.237 1540.33 786.158 1544.94 Q783.103 1549.52 777.293 1549.52 Q771.483 1549.52 768.404 1544.94 Q765.348 1540.33 765.348 1531.6 Q765.348 1522.85 768.404 1518.27 Q771.483 1513.66 777.293 1513.66 Z" fill="#000000" fill-rule="nonzero" fill-opacity="1" /><path clip-path="url(#clip810)" d="M1082.77 1544.91 L1090.41 1544.91 L1090.41 1518.55 L1082.1 1520.21 L1082.1 1515.95 L1090.36 1514.29 L1095.04 1514.29 L1095.04 1544.91 L1102.67 1544.91 L1102.67 1548.85 L1082.77 1548.85 L1082.77 1544.91 Z" fill="#000000" fill-rule="nonzero" fill-opacity="1" /><path clip-path="url(#clip810)" d="M1402.13 1544.91 L1418.45 1544.91 L1418.45 1548.85 L1396.51 1548.85 L1396.51 1544.91 Q1399.17 1542.16 1403.75 1537.53 Q1408.36 1532.88 1409.54 1531.53 Q1411.78 1529.01 1412.66 1527.27 Q1413.57 1525.51 1413.57 1523.82 Q1413.57 1521.07 1411.62 1519.33 Q1409.7 1517.6 1406.6 1517.6 Q1404.4 1517.6 1401.95 1518.36 Q1399.52 1519.13 1396.74 1520.68 L1396.74 1515.95 Q1399.56 1514.82 1402.02 1514.24 Q1404.47 1513.66 1406.51 1513.66 Q1411.88 1513.66 1415.07 1516.35 Q1418.27 1519.03 1418.27 1523.52 Q1418.27 1525.65 1417.45 1527.57 Q1416.67 1529.47 1414.56 1532.07 Q1413.98 1532.74 1410.88 1535.95 Q1407.78 1539.15 1402.13 1544.91 Z" fill="#000000" fill-rule="nonzero" fill-opacity="1" /><path clip-path="url(#clip810)" d="M1726.82 1530.21 Q1730.17 1530.93 1732.05 1533.2 Q1733.95 1535.47 1733.95 1538.8 Q1733.95 1543.92 1730.43 1546.72 Q1726.91 1549.52 1720.43 1549.52 Q1718.25 1549.52 1715.94 1549.08 Q1713.65 1548.66 1711.19 1547.81 L1711.19 1543.29 Q1713.14 1544.43 1715.45 1545.01 Q1717.77 1545.58 1720.29 1545.58 Q1724.69 1545.58 1726.98 1543.85 Q1729.3 1542.11 1729.3 1538.8 Q1729.3 1535.75 1727.14 1534.03 Q1725.01 1532.3 1721.19 1532.3 L1717.17 1532.3 L1717.17 1528.45 L1721.38 1528.45 Q1724.83 1528.45 1726.66 1527.09 Q1728.48 1525.7 1728.48 1523.11 Q1728.48 1520.45 1726.59 1519.03 Q1724.71 1517.6 1721.19 1517.6 Q1719.27 1517.6 1717.07 1518.01 Q1714.87 1518.43 1712.24 1519.31 L1712.24 1515.14 Q1714.9 1514.4 1717.21 1514.03 Q1719.55 1513.66 1721.61 1513.66 Q1726.93 1513.66 1730.04 1516.09 Q1733.14 1518.5 1733.14 1522.62 Q1733.14 1525.49 1731.49 1527.48 Q1729.85 1529.45 1726.82 1530.21 Z" fill="#000000" fill-rule="nonzero" fill-opacity="1" /><path clip-path="url(#clip810)" d="M2040.67 1518.36 L2028.87 1536.81 L2040.67 1536.81 L2040.67 1518.36 M2039.45 1514.29 L2045.33 1514.29 L2045.33 1536.81 L2050.26 1536.81 L2050.26 1540.7 L2045.33 1540.7 L2045.33 1548.85 L2040.67 1548.85 L2040.67 1540.7 L2025.07 1540.7 L2025.07 1536.19 L2039.45 1514.29 Z" fill="#000000" fill-rule="nonzero" fill-opacity="1" /><path clip-path="url(#clip810)" d="M2343.03 1514.29 L2361.39 1514.29 L2361.39 1518.22 L2347.32 1518.22 L2347.32 1526.7 Q2348.33 1526.35 2349.35 1526.19 Q2350.37 1526 2351.39 1526 Q2357.18 1526 2360.56 1529.17 Q2363.94 1532.34 2363.94 1537.76 Q2363.94 1543.34 2360.46 1546.44 Q2356.99 1549.52 2350.67 1549.52 Q2348.5 1549.52 2346.23 1549.15 Q2343.98 1548.78 2341.58 1548.04 L2341.58 1543.34 Q2343.66 1544.47 2345.88 1545.03 Q2348.1 1545.58 2350.58 1545.58 Q2354.58 1545.58 2356.92 1543.48 Q2359.26 1541.37 2359.26 1537.76 Q2359.26 1534.15 2356.92 1532.04 Q2354.58 1529.94 2350.58 1529.94 Q2348.71 1529.94 2346.83 1530.35 Q2344.98 1530.77 2343.03 1531.65 L2343.03 1514.29 Z" fill="#000000" fill-rule="nonzero" fill-opacity="1" /><polyline clip-path="url(#clip812)" style="stroke:#000000; stroke-linecap:round; stroke-linejoin:round; stroke-width:2; stroke-opacity:0.1; fill:none" points="147.108,1410.7 2352.76,1410.7 "/>
<polyline clip-path="url(#clip812)" style="stroke:#000000; stroke-linecap:round; stroke-linejoin:round; stroke-width:2; stroke-opacity:0.1; fill:none" points="147.108,1107.71 2352.76,1107.71 "/>
<polyline clip-path="url(#clip812)" style="stroke:#000000; stroke-linecap:round; stroke-linejoin:round; stroke-width:2; stroke-opacity:0.1; fill:none" points="147.108,804.72 2352.76,804.72 "/>
<polyline clip-path="url(#clip812)" style="stroke:#000000; stroke-linecap:round; stroke-linejoin:round; stroke-width:2; stroke-opacity:0.1; fill:none" points="147.108,501.729 2352.76,501.729 "/>
<polyline clip-path="url(#clip812)" style="stroke:#000000; stroke-linecap:round; stroke-linejoin:round; stroke-width:2; stroke-opacity:0.1; fill:none" points="147.108,198.739 2352.76,198.739 "/>
<polyline clip-path="url(#clip810)" style="stroke:#000000; stroke-linecap:round; stroke-linejoin:round; stroke-width:4; stroke-opacity:1; fill:none" points="147.108,1486.45 147.108,47.2441 "/>
<polyline clip-path="url(#clip810)" style="stroke:#000000; stroke-linecap:round; stroke-linejoin:round; stroke-width:4; stroke-opacity:1; fill:none" points="147.108,1410.7 166.005,1410.7 "/>
<polyline clip-path="url(#clip810)" style="stroke:#000000; stroke-linecap:round; stroke-linejoin:round; stroke-width:4; stroke-opacity:1; fill:none" points="147.108,1107.71 166.005,1107.71 "/>
<polyline clip-path="url(#clip810)" style="stroke:#000000; stroke-linecap:round; stroke-linejoin:round; stroke-width:4; stroke-opacity:1; fill:none" points="147.108,804.72 166.005,804.72 "/>
<polyline clip-path="url(#clip810)" style="stroke:#000000; stroke-linecap:round; stroke-linejoin:round; stroke-width:4; stroke-opacity:1; fill:none" points="147.108,501.729 166.005,501.729 "/>
<polyline clip-path="url(#clip810)" style="stroke:#000000; stroke-linecap:round; stroke-linejoin:round; stroke-width:4; stroke-opacity:1; fill:none" points="147.108,198.739 166.005,198.739 "/>
<path clip-path="url(#clip810)" d="M50.9921 1411.15 L80.6679 1411.15 L80.6679 1415.09 L50.9921 1415.09 L50.9921 1411.15 Z" fill="#000000" fill-rule="nonzero" fill-opacity="1" /><path clip-path="url(#clip810)" d="M94.7882 1424.05 L111.108 1424.05 L111.108 1427.98 L89.1632 1427.98 L89.1632 1424.05 Q91.8252 1421.29 96.4085 1416.66 Q101.015 1412.01 102.196 1410.67 Q104.441 1408.14 105.321 1406.41 Q106.223 1404.65 106.223 1402.96 Q106.223 1400.2 104.279 1398.47 Q102.358 1396.73 99.2558 1396.73 Q97.0567 1396.73 94.603 1397.49 Q92.1725 1398.26 89.3947 1399.81 L89.3947 1395.09 Q92.2188 1393.95 94.6724 1393.37 Q97.1261 1392.8 99.1632 1392.8 Q104.534 1392.8 107.728 1395.48 Q110.922 1398.17 110.922 1402.66 Q110.922 1404.79 110.112 1406.71 Q109.325 1408.61 107.219 1411.2 Q106.64 1411.87 103.538 1415.09 Q100.436 1418.28 94.7882 1424.05 Z" fill="#000000" fill-rule="nonzero" fill-opacity="1" /><path clip-path="url(#clip810)" d="M99.1632 1093.51 Q95.5521 1093.51 93.7234 1097.07 Q91.9178 1100.62 91.9178 1107.74 Q91.9178 1114.85 93.7234 1118.42 Q95.5521 1121.96 99.1632 1121.96 Q102.797 1121.96 104.603 1118.42 Q106.432 1114.85 106.432 1107.74 Q106.432 1100.62 104.603 1097.07 Q102.797 1093.51 99.1632 1093.51 M99.1632 1089.81 Q104.973 1089.81 108.029 1094.41 Q111.108 1098.99 111.108 1107.74 Q111.108 1116.47 108.029 1121.08 Q104.973 1125.66 99.1632 1125.66 Q93.353 1125.66 90.2743 1121.08 Q87.2188 1116.47 87.2188 1107.74 Q87.2188 1098.99 90.2743 1094.41 Q93.353 1089.81 99.1632 1089.81 Z" fill="#000000" fill-rule="nonzero" fill-opacity="1" /><path clip-path="url(#clip810)" d="M94.7882 818.065 L111.108 818.065 L111.108 822 L89.1632 822 L89.1632 818.065 Q91.8252 815.31 96.4085 810.68 Q101.015 806.028 102.196 804.685 Q104.441 802.162 105.321 800.426 Q106.223 798.667 106.223 796.977 Q106.223 794.222 104.279 792.486 Q102.358 790.75 99.2558 790.75 Q97.0567 790.75 94.603 791.514 Q92.1725 792.278 89.3947 793.829 L89.3947 789.106 Q92.2188 787.972 94.6724 787.393 Q97.1261 786.815 99.1632 786.815 Q104.534 786.815 107.728 789.5 Q110.922 792.185 110.922 796.676 Q110.922 798.805 110.112 800.727 Q109.325 802.625 107.219 805.217 Q106.64 805.889 103.538 809.106 Q100.436 812.301 94.7882 818.065 Z" fill="#000000" fill-rule="nonzero" fill-opacity="1" /><path clip-path="url(#clip810)" d="M101.524 488.524 L89.7188 506.973 L101.524 506.973 L101.524 488.524 M100.297 484.449 L106.177 484.449 L106.177 506.973 L111.108 506.973 L111.108 510.861 L106.177 510.861 L106.177 519.009 L101.524 519.009 L101.524 510.861 L85.9225 510.861 L85.9225 506.348 L100.297 484.449 Z" fill="#000000" fill-rule="nonzero" fill-opacity="1" /><path clip-path="url(#clip810)" d="M99.5798 196.876 Q96.4317 196.876 94.5799 199.029 Q92.7512 201.181 92.7512 204.931 Q92.7512 208.658 94.5799 210.834 Q96.4317 212.987 99.5798 212.987 Q102.728 212.987 104.557 210.834 Q106.408 208.658 106.408 204.931 Q106.408 201.181 104.557 199.029 Q102.728 196.876 99.5798 196.876 M108.862 182.223 L108.862 186.482 Q107.103 185.649 105.297 185.209 Q103.515 184.769 101.756 184.769 Q97.1261 184.769 94.6724 187.894 Q92.2419 191.019 91.8947 197.339 Q93.2604 195.325 95.3206 194.26 Q97.3808 193.172 99.8576 193.172 Q105.066 193.172 108.075 196.343 Q111.108 199.492 111.108 204.931 Q111.108 210.255 107.959 213.473 Q104.811 216.691 99.5798 216.691 Q93.5845 216.691 90.4132 212.107 Q87.2419 207.501 87.2419 198.774 Q87.2419 190.58 91.1308 185.718 Q95.0197 180.834 101.571 180.834 Q103.33 180.834 105.112 181.181 Q106.918 181.529 108.862 182.223 Z" fill="#000000" fill-rule="nonzero" fill-opacity="1" /><polyline clip-path="url(#clip812)" style="stroke:#0000ff; stroke-linecap:round; stroke-linejoin:round; stroke-width:6; stroke-opacity:1; fill:none" points="147.108,1309.7 156.656,1305.63 166.204,1301.56 175.752,1297.51 185.301,1293.47 194.849,1289.44 204.397,1285.42 213.945,1281.41 223.494,1277.42 233.042,1273.44 242.59,1269.47 252.138,1265.52 261.687,1261.58 271.235,1257.66 280.783,1253.75 290.331,1249.86 299.88,1245.99 309.428,1242.13 318.976,1238.29 328.525,1234.47 338.073,1230.67 347.621,1226.89 357.169,1223.13 366.718,1219.4 376.266,1215.68 385.814,1211.99 395.362,1208.33 404.911,1204.69 414.459,1201.08 424.007,1197.49 433.555,1193.94 443.104,1190.41 452.652,1186.92 462.2,1183.46 471.748,1180.03 481.297,1176.64 490.845,1173.29 500.393,1169.98 509.941,1166.71 519.49,1163.49 529.038,1160.31 538.586,1157.18 548.135,1154.1 557.683,1151.08 567.231,1148.11 576.779,1145.2 586.328,1142.36 595.876,1139.58 605.424,1136.87 614.972,1134.24 624.521,1131.69 634.069,1129.23 643.617,1126.85 653.165,1124.58 662.714,1122.4 672.262,1120.33 681.81,1118.39 691.358,1116.56 700.907,1114.88 710.455,1113.33 720.003,1111.95 729.551,1110.73 739.1,1109.7 748.648,1108.86 758.196,1108.23 767.745,1107.85 777.293,1107.71 786.841,1107.85 796.389,1108.3 805.938,1109.09 815.486,1110.24 825.034,1111.81 834.582,1113.83 844.131,1116.36 853.679,1119.46 863.227,1123.2 872.775,1127.67 882.324,1132.96 891.872,1139.19 901.42,1146.5 910.968,1155.07 920.517,1165.09 930.065,1176.84 939.613,1190.63 949.161,1206.87 958.71,1226.09 968.258,1248.96 977.806,1276.42 987.355,1309.7 996.903,1350.56 1006.45,1401.52 1016,1466.36 1025.55,1551.05 1035.1,1665.49 1044.64,1827.54 1054.19,2072.92 1063.74,2484.94 1073.29,3313.57 1082.84,5808.65 "/>
<polyline clip-path="url(#clip812)" style="stroke:#0000ff; stroke-linecap:round; stroke-linejoin:round; stroke-width:6; stroke-opacity:1; fill:none" points="1105.12,-2950.91 1117.85,-1082.27 1130.58,-463.478 1143.31,-157.14 1156.04,24.2138 1168.77,143.076 1181.5,226.229 1194.23,287.064 1206.96,333.019 1219.7,368.559 1232.43,396.525 1245.16,418.809 1257.89,436.723 1270.62,451.204 1283.35,462.938 1296.08,472.439 1308.81,480.103 1321.54,486.236 1334.27,491.078 1347.01,494.824 1359.74,497.631 1372.47,499.625 1385.2,500.914 1397.93,501.586 1410.66,501.714 1423.39,501.362 1436.12,500.582 1448.85,499.42 1461.58,497.917 1474.32,496.106 1487.05,494.017 1499.78,491.675 1512.51,489.105 1525.24,486.326 1537.97,483.356 1550.7,480.21 1563.43,476.904 1576.16,473.45 1588.9,469.859 1601.63,466.142 1614.36,462.307 1627.09,458.363 1639.82,454.318 1652.55,450.179 1665.28,445.952 1678.01,441.642 1690.74,437.255 1703.47,432.796 1716.21,428.27 1728.94,423.679 1741.67,419.028 1754.4,414.321 1767.13,409.561 1779.86,404.75 1792.59,399.891 1805.32,394.987 1818.05,390.041 1830.78,385.054 1843.52,380.029 1856.25,374.967 1868.98,369.871 1881.71,364.741 1894.44,359.58 1907.17,354.389 1919.9,349.169 1932.63,343.922 1945.36,338.649 1958.09,333.351 1970.83,328.029 1983.56,322.684 1996.29,317.318 2009.02,311.93 2021.75,306.523 2034.48,301.096 2047.21,295.65 2059.94,290.187 2072.67,284.707 2085.4,279.21 2098.14,273.697 2110.87,268.17 2123.6,262.627 2136.33,257.071 2149.06,251.501 2161.79,245.918 2174.52,240.322 2187.25,234.714 2199.98,229.094 2212.71,223.462 2225.45,217.82 2238.18,212.167 2250.91,206.504 2263.64,200.831 2276.37,195.148 2289.1,189.456 2301.83,183.755 2314.56,178.045 2327.29,172.327 2340.02,166.6 2352.76,160.865 "/>
<polyline clip-path="url(#clip812)" style="stroke:#ff0000; stroke-linecap:round; stroke-linejoin:round; stroke-width:6; stroke-opacity:1; fill:none" points="147.108,1410.7 169.387,1399.99 191.666,1389.28 213.945,1378.56 236.225,1367.85 258.504,1357.14 280.783,1346.43 303.062,1335.72 325.342,1325.01 347.621,1314.29 369.9,1303.58 392.18,1292.87 414.459,1282.16 436.738,1271.45 459.017,1260.74 481.297,1250.02 503.576,1239.31 525.855,1228.6 548.135,1217.89 570.414,1207.18 592.693,1196.46 614.972,1185.75 637.252,1175.04 659.531,1164.33 681.81,1153.62 704.089,1142.91 726.369,1132.19 748.648,1121.48 770.927,1110.77 793.207,1100.06 815.486,1089.35 837.765,1078.64 860.044,1067.92 882.324,1057.21 904.603,1046.5 926.882,1035.79 949.161,1025.08 971.441,1014.36 993.72,1003.65 1016,992.941 1038.28,982.229 1060.56,971.517 1082.84,960.806 1105.12,950.094 1127.4,939.382 1149.67,928.67 1171.95,917.959 1194.23,907.247 1216.51,896.535 1238.79,885.823 1261.07,875.111 1283.35,864.4 1305.63,853.688 1327.91,842.976 1350.19,832.264 1372.47,821.553 1394.75,810.841 1417.03,800.129 1439.31,789.417 1461.58,778.705 1483.86,767.994 1506.14,757.282 1528.42,746.57 1550.7,735.858 1572.98,725.147 1595.26,714.435 1617.54,703.723 1639.82,693.011 1662.1,682.299 1684.38,671.588 1706.66,660.876 1728.94,650.164 1751.22,639.452 1773.49,628.741 1795.77,618.029 1818.05,607.317 1840.33,596.605 1862.61,585.893 1884.89,575.182 1907.17,564.47 1929.45,553.758 1951.73,543.046 1974.01,532.335 1996.29,521.623 2018.57,510.911 2040.85,500.199 2063.13,489.487 2085.4,478.776 2107.68,468.064 2129.96,457.352 2152.24,446.64 2174.52,435.929 2196.8,425.217 2219.08,414.505 2241.36,403.793 2263.64,393.081 2285.92,382.37 2308.2,371.658 2330.48,360.946 2352.76,350.234 "/>
<polyline clip-path="url(#clip812)" style="stroke:#000000; stroke-linecap:round; stroke-linejoin:round; stroke-width:1.2; stroke-opacity:1; fill:none" stroke-dasharray="8, 5" points="997.858,1001.66 997.858,1355.15 "/>
<path clip-path="url(#clip812)" d="M997.858 1326.35 L1012.26 1326.35 L997.858 1355.15 L983.458 1326.35  Z" fill="#000000" fill-rule="evenodd" fill-opacity="1"/>
<polyline clip-path="url(#clip812)" style="stroke:#000000; stroke-linecap:round; stroke-linejoin:round; stroke-width:1.2; stroke-opacity:1; fill:none" stroke-dasharray="8, 5" points="997.858,1326.35 997.858,1001.66 "/>
<circle clip-path="url(#clip812)" cx="997.858" cy="1001.66" r="5.4" fill="#000000" fill-rule="evenodd" fill-opacity="1" stroke="none"/>
<circle clip-path="url(#clip812)" cx="997.858" cy="1355.15" r="5.4" fill="#000000" fill-rule="evenodd" fill-opacity="1" stroke="none"/>
<polyline clip-path="url(#clip812)" style="stroke:#000000; stroke-linecap:round; stroke-linejoin:round; stroke-width:1.2; stroke-opacity:1; fill:none" stroke-dasharray="8, 5" points="997.858,1355.15 262.642,1355.15 "/>
<path clip-path="url(#clip812)" d="M291.442 1355.15 L291.442 1369.55 L262.642 1355.15 L291.442 1340.75  Z" fill="#000000" fill-rule="evenodd" fill-opacity="1"/>
<polyline clip-path="url(#clip812)" style="stroke:#000000; stroke-linecap:round; stroke-linejoin:round; stroke-width:1.2; stroke-opacity:1; fill:none" stroke-dasharray="8, 5" points="291.442,1355.15 997.858,1355.15 "/>
<circle clip-path="url(#clip812)" cx="997.858" cy="1355.15" r="5.4" fill="#000000" fill-rule="evenodd" fill-opacity="1" stroke="none"/>
<circle clip-path="url(#clip812)" cx="262.642" cy="1355.15" r="5.4" fill="#000000" fill-rule="evenodd" fill-opacity="1" stroke="none"/>
<polyline clip-path="url(#clip812)" style="stroke:#000000; stroke-linecap:round; stroke-linejoin:round; stroke-width:1.2; stroke-opacity:1; fill:none" stroke-dasharray="8, 5" points="262.642,1355.15 262.642,1261.19 "/>
<path clip-path="url(#clip812)" d="M262.642 1289.99 L248.242 1289.99 L262.642 1261.19 L277.042 1289.99  Z" fill="#000000" fill-rule="evenodd" fill-opacity="1"/>
<polyline clip-path="url(#clip812)" style="stroke:#000000; stroke-linecap:round; stroke-linejoin:round; stroke-width:1.2; stroke-opacity:1; fill:none" stroke-dasharray="8, 5" points="262.642,1289.99 262.642,1355.15 "/>
<circle clip-path="url(#clip812)" cx="262.642" cy="1355.15" r="5.4" fill="#000000" fill-rule="evenodd" fill-opacity="1" stroke="none"/>
<circle clip-path="url(#clip812)" cx="262.642" cy="1261.19" r="5.4" fill="#000000" fill-rule="evenodd" fill-opacity="1" stroke="none"/>
<polyline clip-path="url(#clip812)" style="stroke:#000000; stroke-linecap:round; stroke-linejoin:round; stroke-width:1.2; stroke-opacity:1; fill:none" stroke-dasharray="8, 5" points="262.642,1261.19 458.079,1261.19 "/>
<path clip-path="url(#clip812)" d="M429.279 1261.19 L429.279 1246.79 L458.079 1261.19 L429.279 1275.59  Z" fill="#000000" fill-rule="evenodd" fill-opacity="1"/>
<polyline clip-path="url(#clip812)" style="stroke:#000000; stroke-linecap:round; stroke-linejoin:round; stroke-width:1.2; stroke-opacity:1; fill:none" stroke-dasharray="8, 5" points="429.279,1261.19 262.642,1261.19 "/>
<circle clip-path="url(#clip812)" cx="262.642" cy="1261.19" r="5.4" fill="#000000" fill-rule="evenodd" fill-opacity="1" stroke="none"/>
<circle clip-path="url(#clip812)" cx="458.079" cy="1261.19" r="5.4" fill="#000000" fill-rule="evenodd" fill-opacity="1" stroke="none"/>
<polyline clip-path="url(#clip812)" style="stroke:#000000; stroke-linecap:round; stroke-linejoin:round; stroke-width:1.2; stroke-opacity:1; fill:none" stroke-dasharray="8, 5" points="458.079,1261.19 458.079,1184.95 "/>
<path clip-path="url(#clip812)" d="M458.079 1213.75 L443.679 1213.75 L458.079 1184.95 L472.479 1213.75  Z" fill="#000000" fill-rule="evenodd" fill-opacity="1"/>
<polyline clip-path="url(#clip812)" style="stroke:#000000; stroke-linecap:round; stroke-linejoin:round; stroke-width:1.2; stroke-opacity:1; fill:none" stroke-dasharray="8, 5" points="458.079,1213.75 458.079,1261.19 "/>
<circle clip-path="url(#clip812)" cx="458.079" cy="1261.19" r="5.4" fill="#000000" fill-rule="evenodd" fill-opacity="1" stroke="none"/>
<circle clip-path="url(#clip812)" cx="458.079" cy="1184.95" r="5.4" fill="#000000" fill-rule="evenodd" fill-opacity="1" stroke="none"/>
<polyline clip-path="url(#clip812)" style="stroke:#000000; stroke-linecap:round; stroke-linejoin:round; stroke-width:1.2; stroke-opacity:1; fill:none" stroke-dasharray="8, 5" points="458.079,1184.95 616.649,1184.95 "/>
<path clip-path="url(#clip812)" d="M587.849 1184.95 L587.849 1170.55 L616.649 1184.95 L587.849 1199.35  Z" fill="#000000" fill-rule="evenodd" fill-opacity="1"/>
<polyline clip-path="url(#clip812)" style="stroke:#000000; stroke-linecap:round; stroke-linejoin:round; stroke-width:1.2; stroke-opacity:1; fill:none" stroke-dasharray="8, 5" points="587.849,1184.95 458.079,1184.95 "/>
<circle clip-path="url(#clip812)" cx="458.079" cy="1184.95" r="5.4" fill="#000000" fill-rule="evenodd" fill-opacity="1" stroke="none"/>
<circle clip-path="url(#clip812)" cx="616.649" cy="1184.95" r="5.4" fill="#000000" fill-rule="evenodd" fill-opacity="1" stroke="none"/>
<polyline clip-path="url(#clip812)" style="stroke:#000000; stroke-linecap:round; stroke-linejoin:round; stroke-width:1.2; stroke-opacity:1; fill:none" stroke-dasharray="8, 5" points="616.649,1184.95 616.649,1133.79 "/>
<path clip-path="url(#clip812)" d="M616.649 1162.59 L602.249 1162.59 L616.649 1133.79 L631.049 1162.59  Z" fill="#000000" fill-rule="evenodd" fill-opacity="1"/>
<polyline clip-path="url(#clip812)" style="stroke:#000000; stroke-linecap:round; stroke-linejoin:round; stroke-width:1.2; stroke-opacity:1; fill:none" stroke-dasharray="8, 5" points="616.649,1162.59 616.649,1184.95 "/>
<circle clip-path="url(#clip812)" cx="616.649" cy="1184.95" r="5.4" fill="#000000" fill-rule="evenodd" fill-opacity="1" stroke="none"/>
<circle clip-path="url(#clip812)" cx="616.649" cy="1133.79" r="5.4" fill="#000000" fill-rule="evenodd" fill-opacity="1" stroke="none"/>
<polyline clip-path="url(#clip812)" style="stroke:#000000; stroke-linecap:round; stroke-linejoin:round; stroke-width:1.2; stroke-opacity:1; fill:none" stroke-dasharray="8, 5" points="616.649,1133.79 723.047,1133.79 "/>
<path clip-path="url(#clip812)" d="M694.247 1133.79 L694.247 1119.39 L723.047 1133.79 L694.247 1148.19  Z" fill="#000000" fill-rule="evenodd" fill-opacity="1"/>
<polyline clip-path="url(#clip812)" style="stroke:#000000; stroke-linecap:round; stroke-linejoin:round; stroke-width:1.2; stroke-opacity:1; fill:none" stroke-dasharray="8, 5" points="694.247,1133.79 616.649,1133.79 "/>
<circle clip-path="url(#clip812)" cx="616.649" cy="1133.79" r="5.4" fill="#000000" fill-rule="evenodd" fill-opacity="1" stroke="none"/>
<circle clip-path="url(#clip812)" cx="723.047" cy="1133.79" r="5.4" fill="#000000" fill-rule="evenodd" fill-opacity="1" stroke="none"/>
<polyline clip-path="url(#clip812)" style="stroke:#000000; stroke-linecap:round; stroke-linejoin:round; stroke-width:1.2; stroke-opacity:1; fill:none" stroke-dasharray="8, 5" points="1407.48,804.72 1407.48,501.729 "/>
<path clip-path="url(#clip812)" d="M1407.48 530.529 L1393.08 530.529 L1407.48 501.729 L1421.88 530.529  Z" fill="#000000" fill-rule="evenodd" fill-opacity="1"/>
<polyline clip-path="url(#clip812)" style="stroke:#000000; stroke-linecap:round; stroke-linejoin:round; stroke-width:1.2; stroke-opacity:1; fill:none" stroke-dasharray="8, 5" points="1407.48,530.529 1407.48,804.72 "/>
<circle clip-path="url(#clip812)" cx="1407.48" cy="804.72" r="5.4" fill="#000000" fill-rule="evenodd" fill-opacity="1" stroke="none"/>
<circle clip-path="url(#clip812)" cx="1407.48" cy="501.729" r="5.4" fill="#000000" fill-rule="evenodd" fill-opacity="1" stroke="none"/>
<polyline clip-path="url(#clip812)" style="stroke:#000000; stroke-linecap:round; stroke-linejoin:round; stroke-width:1.2; stroke-opacity:1; fill:none" stroke-dasharray="8, 5" points="1407.48,501.729 2037.66,501.729 "/>
<path clip-path="url(#clip812)" d="M2008.86 501.729 L2008.86 487.329 L2037.66 501.729 L2008.86 516.129  Z" fill="#000000" fill-rule="evenodd" fill-opacity="1"/>
<polyline clip-path="url(#clip812)" style="stroke:#000000; stroke-linecap:round; stroke-linejoin:round; stroke-width:1.2; stroke-opacity:1; fill:none" stroke-dasharray="8, 5" points="2008.86,501.729 1407.48,501.729 "/>
<circle clip-path="url(#clip812)" cx="1407.48" cy="501.729" r="5.4" fill="#000000" fill-rule="evenodd" fill-opacity="1" stroke="none"/>
<circle clip-path="url(#clip812)" cx="2037.66" cy="501.729" r="5.4" fill="#000000" fill-rule="evenodd" fill-opacity="1" stroke="none"/>
<polyline clip-path="url(#clip812)" style="stroke:#000000; stroke-linecap:round; stroke-linejoin:round; stroke-width:1.2; stroke-opacity:1; fill:none" stroke-dasharray="8, 5" points="2037.66,501.729 2037.66,299.736 "/>
<path clip-path="url(#clip812)" d="M2037.66 328.536 L2023.26 328.536 L2037.66 299.736 L2052.06 328.536  Z" fill="#000000" fill-rule="evenodd" fill-opacity="1"/>
<polyline clip-path="url(#clip812)" style="stroke:#000000; stroke-linecap:round; stroke-linejoin:round; stroke-width:1.2; stroke-opacity:1; fill:none" stroke-dasharray="8, 5" points="2037.66,328.536 2037.66,501.729 "/>
<circle clip-path="url(#clip812)" cx="2037.66" cy="501.729" r="5.4" fill="#000000" fill-rule="evenodd" fill-opacity="1" stroke="none"/>
<circle clip-path="url(#clip812)" cx="2037.66" cy="299.736" r="5.4" fill="#000000" fill-rule="evenodd" fill-opacity="1" stroke="none"/>
<polyline clip-path="url(#clip812)" style="stroke:#000000; stroke-linecap:round; stroke-linejoin:round; stroke-width:1.2; stroke-opacity:1; fill:none" stroke-dasharray="8, 5" points="2037.66,299.736 2457.79,299.736 "/>
<path clip-path="url(#clip812)" d="M2428.99 299.736 L2428.99 285.336 L2457.79 299.736 L2428.99 314.136  Z" fill="#000000" fill-rule="evenodd" fill-opacity="1"/>
<polyline clip-path="url(#clip812)" style="stroke:#000000; stroke-linecap:round; stroke-linejoin:round; stroke-width:1.2; stroke-opacity:1; fill:none" stroke-dasharray="8, 5" points="2428.99,299.736 2037.66,299.736 "/>
<circle clip-path="url(#clip812)" cx="2037.66" cy="299.736" r="5.4" fill="#000000" fill-rule="evenodd" fill-opacity="1" stroke="none"/>
<polyline clip-path="url(#clip812)" style="stroke:#000000; stroke-linecap:round; stroke-linejoin:round; stroke-width:1.2; stroke-opacity:1; fill:none" stroke-dasharray="8, 5" points="2457.79,299.736 2457.79,113.28 "/>
<path clip-path="url(#clip812)" d="M2457.79 142.08 L2443.39 142.08 L2457.79 113.28 L2472.19 142.08  Z" fill="#000000" fill-rule="evenodd" fill-opacity="1"/>
<polyline clip-path="url(#clip812)" style="stroke:#000000; stroke-linecap:round; stroke-linejoin:round; stroke-width:1.2; stroke-opacity:1; fill:none" stroke-dasharray="8, 5" points="2457.79,142.08 2457.79,299.736 "/>
<polyline clip-path="url(#clip812)" style="stroke:#000000; stroke-linecap:round; stroke-linejoin:round; stroke-width:1.2; stroke-opacity:1; fill:none" stroke-dasharray="8, 5" points="2457.79,113.28 2845.59,113.28 "/>
<path clip-path="url(#clip812)" d="M2816.79 113.28 L2816.79 98.8804 L2845.59 113.28 L2816.79 127.68  Z" fill="#000000" fill-rule="evenodd" fill-opacity="1"/>
<polyline clip-path="url(#clip812)" style="stroke:#000000; stroke-linecap:round; stroke-linejoin:round; stroke-width:1.2; stroke-opacity:1; fill:none" stroke-dasharray="8, 5" points="2816.79,113.28 2457.79,113.28 "/>
<polyline clip-path="url(#clip812)" style="stroke:#000000; stroke-linecap:round; stroke-linejoin:round; stroke-width:1.2; stroke-opacity:1; fill:none" stroke-dasharray="8, 5" points="2845.59,113.28 2845.59,-65.4419 "/>
<path clip-path="url(#clip812)" d="M2845.59 -36.6419 L2831.19 -36.6419 L2845.59 -65.4419 L2859.99 -36.6419  Z" fill="#000000" fill-rule="evenodd" fill-opacity="1"/>
<polyline clip-path="url(#clip812)" style="stroke:#000000; stroke-linecap:round; stroke-linejoin:round; stroke-width:1.2; stroke-opacity:1; fill:none" stroke-dasharray="8, 5" points="2845.59,-36.6419 2845.59,113.28 "/>
<polyline clip-path="url(#clip812)" style="stroke:#000000; stroke-linecap:round; stroke-linejoin:round; stroke-width:1.2; stroke-opacity:1; fill:none" stroke-dasharray="8, 5" points="2845.59,-65.4419 3217.32,-65.4419 "/>
<path clip-path="url(#clip812)" d="M3188.52 -65.4419 L3188.52 -79.8419 L3217.32 -65.4419 L3188.52 -51.0419  Z" fill="#000000" fill-rule="evenodd" fill-opacity="1"/>
<polyline clip-path="url(#clip812)" style="stroke:#000000; stroke-linecap:round; stroke-linejoin:round; stroke-width:1.2; stroke-opacity:1; fill:none" stroke-dasharray="8, 5" points="3188.52,-65.4419 2845.59,-65.4419 "/>
</svg>
