<?xml version="1.0" encoding="utf-8"?>
<svg xmlns="http://www.w3.org/2000/svg" xmlns:xlink="http://www.w3.org/1999/xlink" width="600" height="400" viewBox="0 0 2400 1600">
<defs>
  <clipPath id="clip250">
    <rect x="0" y="0" width="2400" height="1600"/>
  </clipPath>
</defs>
<path clip-path="url(#clip250)" d="M0 1600 L2400 1600 L2400 0 L0 0  Z" fill="#ffffff" fill-rule="evenodd" fill-opacity="1"/>
<defs>
  <clipPath id="clip251">
    <rect x="480" y="0" width="1681" height="1600"/>
  </clipPath>
</defs>
<path clip-path="url(#clip250)" d="M112.177 1486.45 L2352.76 1486.45 L2352.76 47.2441 L112.177 47.2441  Z" fill="#ffffff" fill-rule="evenodd" fill-opacity="1"/>
<defs>
  <clipPath id="clip252">
    <rect x="112" y="47" width="2242" height="1440"/>
  </clipPath>
</defs>
<polyline clip-path="url(#clip252)" style="stroke:#000000; stroke-linecap:round; stroke-linejoin:round; stroke-width:2; stroke-opacity:0.1; fill:none" points="175.59,1486.45 175.59,47.2441 "/>
<polyline clip-path="url(#clip252)" style="stroke:#000000; stroke-linecap:round; stroke-linejoin:round; stroke-width:2; stroke-opacity:0.1; fill:none" points="704.028,1486.45 704.028,47.2441 "/>
<polyline clip-path="url(#clip252)" style="stroke:#000000; stroke-linecap:round; stroke-linejoin:round; stroke-width:2; stroke-opacity:0.1; fill:none" points="1232.47,1486.45 1232.47,47.2441 "/>
<polyline clip-path="url(#clip252)" style="stroke:#000000; stroke-linecap:round; stroke-linejoin:round; stroke-width:2; stroke-opacity:0.1; fill:none" points="1760.9,1486.45 1760.9,47.2441 "/>
<polyline clip-path="url(#clip252)" style="stroke:#000000; stroke-linecap:round; stroke-linejoin:round; stroke-width:2; stroke-opacity:0.1; fill:none" points="2289.34,1486.45 2289.34,47.2441 "/>
<polyline clip-path="url(#clip250)" style="stroke:#000000; stroke-linecap:round; stroke-linejoin:round; stroke-width:4; stroke-opacity:1; fill:none" points="112.177,1486.45 2352.76,1486.45 "/>
<polyline clip-path="url(#clip250)" style="stroke:#000000; stroke-linecap:round; stroke-linejoin:round; stroke-width:2; stroke-opacity:0.5; fill:none" points="112.177,47.2441 2352.76,47.2441 "/>
<polyline clip-path="url(#clip250)" style="stroke:#000000; stroke-linecap:round; stroke-linejoin:round; stroke-width:4; stroke-opacity:1; fill:none" points="175.59,1486.45 175.59,1467.55 "/>
<polyline clip-path="url(#clip250)" style="stroke:#000000; stroke-linecap:round; stroke-linejoin:round; stroke-width:4; stroke-opacity:1; fill:none" points="704.028,1486.45 704.028,1467.55 "/>
<polyline clip-path="url(#clip250)" style="stroke:#000000; stroke-linecap:round; stroke-linejoin:round; stroke-width:4; stroke-opacity:1; fill:none" points="1232.47,1486.45 1232.47,1467.55 "/>
<polyline clip-path="url(#clip250)" style="stroke:#000000; stroke-linecap:round; stroke-linejoin:round; stroke-width:4; stroke-opacity:1; fill:none" points="1760.9,1486.45 1760.9,1467.55 "/>
<polyline clip-path="url(#clip250)" style="stroke:#000000; stroke-linecap:round; stroke-linejoin:round; stroke-width:4; stroke-opacity:1; fill:none" points="2289.34,1486.45 2289.34,1467.55 "/>
<path clip-path="url(#clip250)" d="M145.347 1532.02 L175.023 1532.02 L175.023 1535.95 L145.347 1535.95 L145.347 1532.02 Z" fill="#000000" fill-rule="nonzero" fill-opacity="1" /><path clip-path="url(#clip250)" d="M185.925 1544.91 L193.564 1544.91 L193.564 1518.55 L185.254 1520.21 L185.254 1515.95 L193.518 1514.29 L198.194 1514.29 L198.194 1544.91 L205.833 1544.91 L205.833 1548.85 L185.925 1548.85 L185.925 1544.91 Z" fill="#000000" fill-rule="nonzero" fill-opacity="1" /><path clip-path="url(#clip250)" d="M704.028 1517.37 Q700.417 1517.37 698.588 1520.93 Q696.783 1524.47 696.783 1531.6 Q696.783 1538.71 698.588 1542.27 Q700.417 1545.82 704.028 1545.82 Q707.662 1545.82 709.468 1542.27 Q711.297 1538.71 711.297 1531.6 Q711.297 1524.47 709.468 1520.93 Q707.662 1517.37 704.028 1517.37 M704.028 1513.66 Q709.838 1513.66 712.894 1518.27 Q715.973 1522.85 715.973 1531.6 Q715.973 1540.33 712.894 1544.94 Q709.838 1549.52 704.028 1549.52 Q698.218 1549.52 695.139 1544.94 Q692.084 1540.33 692.084 1531.6 Q692.084 1522.85 695.139 1518.27 Q698.218 1513.66 704.028 1513.66 Z" fill="#000000" fill-rule="nonzero" fill-opacity="1" /><path clip-path="url(#clip250)" d="M1222.85 1544.91 L1230.49 1544.91 L1230.49 1518.55 L1222.18 1520.21 L1222.18 1515.95 L1230.44 1514.29 L1235.12 1514.29 L1235.12 1544.91 L1242.76 1544.91 L1242.76 1548.85 L1222.85 1548.85 L1222.85 1544.91 Z" fill="#000000" fill-rule="nonzero" fill-opacity="1" /><path clip-path="url(#clip250)" d="M1755.56 1544.91 L1771.88 1544.91 L1771.88 1548.85 L1749.93 1548.85 L1749.93 1544.91 Q1752.59 1542.16 1757.18 1537.53 Q1761.78 1532.88 1762.97 1531.53 Q1765.21 1529.01 1766.09 1527.27 Q1766.99 1525.51 1766.99 1523.82 Q1766.99 1521.07 1765.05 1519.33 Q1763.13 1517.6 1760.03 1517.6 Q1757.83 1517.6 1755.37 1518.36 Q1752.94 1519.13 1750.16 1520.68 L1750.16 1515.95 Q1752.99 1514.82 1755.44 1514.24 Q1757.9 1513.66 1759.93 1513.66 Q1765.3 1513.66 1768.5 1516.35 Q1771.69 1519.03 1771.69 1523.52 Q1771.69 1525.65 1770.88 1527.57 Q1770.09 1529.47 1767.99 1532.07 Q1767.41 1532.74 1764.31 1535.95 Q1761.21 1539.15 1755.56 1544.91 Z" fill="#000000" fill-rule="nonzero" fill-opacity="1" /><path clip-path="url(#clip250)" d="M2293.59 1530.21 Q2296.95 1530.93 2298.82 1533.2 Q2300.72 1535.47 2300.72 1538.8 Q2300.72 1543.92 2297.2 1546.72 Q2293.68 1549.52 2287.2 1549.52 Q2285.03 1549.52 2282.71 1549.08 Q2280.42 1548.66 2277.97 1547.81 L2277.97 1543.29 Q2279.91 1544.43 2282.23 1545.01 Q2284.54 1545.58 2287.06 1545.58 Q2291.46 1545.58 2293.75 1543.85 Q2296.07 1542.11 2296.07 1538.8 Q2296.07 1535.75 2293.92 1534.03 Q2291.79 1532.3 2287.97 1532.3 L2283.94 1532.3 L2283.94 1528.45 L2288.15 1528.45 Q2291.6 1528.45 2293.43 1527.09 Q2295.26 1525.7 2295.26 1523.11 Q2295.26 1520.45 2293.36 1519.03 Q2291.48 1517.6 2287.97 1517.6 Q2286.04 1517.6 2283.85 1518.01 Q2281.65 1518.43 2279.01 1519.31 L2279.01 1515.14 Q2281.67 1514.4 2283.98 1514.03 Q2286.32 1513.66 2288.38 1513.66 Q2293.71 1513.66 2296.81 1516.09 Q2299.91 1518.5 2299.91 1522.62 Q2299.91 1525.49 2298.27 1527.48 Q2296.62 1529.45 2293.59 1530.21 Z" fill="#000000" fill-rule="nonzero" fill-opacity="1" /><polyline clip-path="url(#clip252)" style="stroke:#000000; stroke-linecap:round; stroke-linejoin:round; stroke-width:2; stroke-opacity:0.1; fill:none" points="112.177,1283.87 2352.76,1283.87 "/>
<polyline clip-path="url(#clip252)" style="stroke:#000000; stroke-linecap:round; stroke-linejoin:round; stroke-width:2; stroke-opacity:0.1; fill:none" points="112.177,909.513 2352.76,909.513 "/>
<polyline clip-path="url(#clip252)" style="stroke:#000000; stroke-linecap:round; stroke-linejoin:round; stroke-width:2; stroke-opacity:0.1; fill:none" points="112.177,535.156 2352.76,535.156 "/>
<polyline clip-path="url(#clip252)" style="stroke:#000000; stroke-linecap:round; stroke-linejoin:round; stroke-width:2; stroke-opacity:0.1; fill:none" points="112.177,160.799 2352.76,160.799 "/>
<polyline clip-path="url(#clip250)" style="stroke:#000000; stroke-linecap:round; stroke-linejoin:round; stroke-width:4; stroke-opacity:1; fill:none" points="112.177,1486.45 112.177,47.2441 "/>
<polyline clip-path="url(#clip250)" style="stroke:#000000; stroke-linecap:round; stroke-linejoin:round; stroke-width:2; stroke-opacity:0.5; fill:none" points="2352.76,1486.45 2352.76,47.2441 "/>
<polyline clip-path="url(#clip250)" style="stroke:#000000; stroke-linecap:round; stroke-linejoin:round; stroke-width:4; stroke-opacity:1; fill:none" points="112.177,1283.87 131.075,1283.87 "/>
<polyline clip-path="url(#clip250)" style="stroke:#000000; stroke-linecap:round; stroke-linejoin:round; stroke-width:4; stroke-opacity:1; fill:none" points="112.177,909.513 131.075,909.513 "/>
<polyline clip-path="url(#clip250)" style="stroke:#000000; stroke-linecap:round; stroke-linejoin:round; stroke-width:4; stroke-opacity:1; fill:none" points="112.177,535.156 131.075,535.156 "/>
<polyline clip-path="url(#clip250)" style="stroke:#000000; stroke-linecap:round; stroke-linejoin:round; stroke-width:4; stroke-opacity:1; fill:none" points="112.177,160.799 131.075,160.799 "/>
<path clip-path="url(#clip250)" d="M64.2328 1269.67 Q60.6217 1269.67 58.793 1273.23 Q56.9875 1276.77 56.9875 1283.9 Q56.9875 1291.01 58.793 1294.58 Q60.6217 1298.12 64.2328 1298.12 Q67.867 1298.12 69.6726 1294.58 Q71.5013 1291.01 71.5013 1283.9 Q71.5013 1276.77 69.6726 1273.23 Q67.867 1269.67 64.2328 1269.67 M64.2328 1265.96 Q70.0429 1265.96 73.0985 1270.57 Q76.1772 1275.15 76.1772 1283.9 Q76.1772 1292.63 73.0985 1297.24 Q70.0429 1301.82 64.2328 1301.82 Q58.4226 1301.82 55.344 1297.24 Q52.2884 1292.63 52.2884 1283.9 Q52.2884 1275.15 55.344 1270.57 Q58.4226 1265.96 64.2328 1265.96 Z" fill="#000000" fill-rule="nonzero" fill-opacity="1" /><path clip-path="url(#clip250)" d="M59.8578 922.857 L76.1772 922.857 L76.1772 926.793 L54.2328 926.793 L54.2328 922.857 Q56.8949 920.103 61.4782 915.473 Q66.0846 910.82 67.2652 909.478 Q69.5105 906.955 70.3902 905.219 Q71.2929 903.459 71.2929 901.769 Q71.2929 899.015 69.3485 897.279 Q67.4272 895.543 64.3254 895.543 Q62.1263 895.543 59.6726 896.307 Q57.2421 897.07 54.4643 898.621 L54.4643 893.899 Q57.2884 892.765 59.7421 892.186 Q62.1958 891.608 64.2328 891.608 Q69.6031 891.608 72.7976 894.293 Q75.992 896.978 75.992 901.469 Q75.992 903.598 75.1818 905.519 Q74.3948 907.418 72.2883 910.01 Q71.7096 910.681 68.6078 913.899 Q65.5059 917.093 59.8578 922.857 Z" fill="#000000" fill-rule="nonzero" fill-opacity="1" /><path clip-path="url(#clip250)" d="M66.5939 521.95 L54.7884 540.399 L66.5939 540.399 L66.5939 521.95 M65.367 517.876 L71.2466 517.876 L71.2466 540.399 L76.1772 540.399 L76.1772 544.288 L71.2466 544.288 L71.2466 552.436 L66.5939 552.436 L66.5939 544.288 L50.9921 544.288 L50.9921 539.774 L65.367 517.876 Z" fill="#000000" fill-rule="nonzero" fill-opacity="1" /><path clip-path="url(#clip250)" d="M64.6495 158.936 Q61.5013 158.936 59.6495 161.089 Q57.8208 163.241 57.8208 166.991 Q57.8208 170.718 59.6495 172.894 Q61.5013 175.047 64.6495 175.047 Q67.7976 175.047 69.6263 172.894 Q71.4781 170.718 71.4781 166.991 Q71.4781 163.241 69.6263 161.089 Q67.7976 158.936 64.6495 158.936 M73.9318 144.283 L73.9318 148.542 Q72.1726 147.709 70.367 147.269 Q68.5846 146.829 66.8254 146.829 Q62.1958 146.829 59.7421 149.954 Q57.3115 153.079 56.9643 159.399 Q58.33 157.385 60.3902 156.32 Q62.4504 155.232 64.9272 155.232 Q70.1355 155.232 73.1448 158.403 Q76.1772 161.551 76.1772 166.991 Q76.1772 172.315 73.029 175.533 Q69.8809 178.75 64.6495 178.75 Q58.6541 178.75 55.4828 174.167 Q52.3116 169.561 52.3116 160.834 Q52.3116 152.639 56.2004 147.778 Q60.0893 142.894 66.6402 142.894 Q68.3994 142.894 70.1818 143.241 Q71.9874 143.589 73.9318 144.283 Z" fill="#000000" fill-rule="nonzero" fill-opacity="1" /><polyline clip-path="url(#clip252)" style="stroke:#000000; stroke-linecap:round; stroke-linejoin:round; stroke-width:4; stroke-opacity:1; fill:none" stroke-dasharray="16, 10" points="175.59,1283.87 2289.34,1283.87 "/>
<polyline clip-path="url(#clip252)" style="stroke:#0000ff; stroke-linecap:round; stroke-linejoin:round; stroke-width:4; stroke-opacity:1; fill:none" points="175.59,87.9763 196.941,142.744 218.292,195.343 239.643,245.859 260.994,294.375 282.345,340.97 303.696,385.719 325.047,428.697 346.398,469.973 367.749,509.614 389.1,547.685 410.451,584.249 431.802,619.365 453.153,653.091 474.504,685.481 495.855,716.588 517.207,746.464 538.558,775.156 559.909,802.713 581.26,829.178 602.611,854.595 623.962,879.006 645.313,902.45 666.664,924.966 688.015,946.59 709.366,967.358 730.717,987.303 752.068,1006.46 773.419,1024.86 794.77,1042.52 816.121,1059.49 837.472,1075.79 858.823,1091.44 880.174,1106.47 901.525,1120.91 922.876,1134.78 944.227,1148.09 965.578,1160.88 986.93,1173.16 1008.28,1184.96 1029.63,1196.29 1050.98,1207.17 1072.33,1217.62 1093.68,1227.65 1115.04,1237.29 1136.39,1246.55 1157.74,1255.44 1179.09,1263.97 1200.44,1272.17 1221.79,1280.05 1243.14,1287.61 1264.49,1294.88 1285.84,1301.85 1307.2,1308.55 1328.55,1314.99 1349.9,1321.17 1371.25,1327.1 1392.6,1332.8 1413.95,1338.28 1435.3,1343.53 1456.65,1348.58 1478,1353.43 1499.35,1358.09 1520.71,1362.56 1542.06,1366.86 1563.41,1370.98 1584.76,1374.95 1606.11,1378.75 1627.46,1382.41 1648.81,1385.92 1670.16,1389.29 1691.51,1392.53 1712.87,1395.64 1734.22,1398.62 1755.57,1401.49 1776.92,1404.24 1798.27,1406.89 1819.62,1409.43 1840.97,1411.87 1862.32,1414.21 1883.67,1416.46 1905.02,1418.63 1926.38,1420.7 1947.73,1422.69 1969.08,1424.61 1990.43,1426.45 2011.78,1428.21 2033.13,1429.91 2054.48,1431.54 2075.83,1433.1 2097.18,1434.61 2118.53,1436.05 2139.89,1437.44 2161.24,1438.77 2182.59,1440.04 2203.94,1441.27 2225.29,1442.45 2246.64,1443.58 2267.99,1444.67 2289.34,1445.72 "/>
<polyline clip-path="url(#clip252)" style="stroke:#ff0000; stroke-linecap:round; stroke-linejoin:round; stroke-width:8; stroke-opacity:1; fill:none" points="1919.44,1420.04 508.878,1283.87 "/>
<circle clip-path="url(#clip252)" cx="1919.44" cy="1420.04" r="7.2" fill="#ff0000" fill-rule="evenodd" fill-opacity="1" stroke="none"/>
<circle clip-path="url(#clip252)" cx="508.878" cy="1283.87" r="7.2" fill="#ff0000" fill-rule="evenodd" fill-opacity="1" stroke="none"/>
<polyline clip-path="url(#clip252)" style="stroke:#000000; stroke-linecap:round; stroke-linejoin:round; stroke-width:2; stroke-opacity:1; fill:none" stroke-dasharray="8, 5" points="1919.44,1342.53 1919.44,191.164 "/>
<polyline clip-path="url(#clip252)" style="stroke:#ff0000; stroke-linecap:round; stroke-linejoin:round; stroke-width:8; stroke-opacity:1; fill:none" points="508.878,734.953 902.942,1283.87 "/>
<circle clip-path="url(#clip252)" cx="508.878" cy="734.953" r="7.2" fill="#ff0000" fill-rule="evenodd" fill-opacity="1" stroke="none"/>
<circle clip-path="url(#clip252)" cx="902.942" cy="1283.87" r="7.2" fill="#ff0000" fill-rule="evenodd" fill-opacity="1" stroke="none"/>
<polyline clip-path="url(#clip252)" style="stroke:#000000; stroke-linecap:round; stroke-linejoin:round; stroke-width:2; stroke-opacity:1; fill:none" stroke-dasharray="8, 5" points="508.878,1342.53 508.878,191.164 "/>
<polyline clip-path="url(#clip252)" style="stroke:#ff0000; stroke-linecap:round; stroke-linejoin:round; stroke-width:8; stroke-opacity:1; fill:none" points="902.942,1121.85 1148.13,1283.87 "/>
<circle clip-path="url(#clip252)" cx="902.942" cy="1121.85" r="7.2" fill="#ff0000" fill-rule="evenodd" fill-opacity="1" stroke="none"/>
<circle clip-path="url(#clip252)" cx="1148.13" cy="1283.87" r="7.2" fill="#ff0000" fill-rule="evenodd" fill-opacity="1" stroke="none"/>
<polyline clip-path="url(#clip252)" style="stroke:#000000; stroke-linecap:round; stroke-linejoin:round; stroke-width:2; stroke-opacity:1; fill:none" stroke-dasharray="8, 5" points="902.942,1342.53 902.942,191.164 "/>
<path clip-path="url(#clip250)" d="M1991.72 165.233 Q1991.72 167.528 1990.28 168.84 Q1988.85 170.11 1987.21 170.11 Q1985.65 170.11 1984.83 169.209 Q1984.01 168.307 1984.01 167.159 Q1984.01 165.601 1985.16 164.249 Q1986.31 162.896 1988.03 162.609 Q1986.35 161.544 1983.85 161.544 Q1982.21 161.544 1980.77 162.404 Q1979.38 163.265 1978.52 164.372 Q1977.7 165.479 1976.96 167.077 Q1976.27 168.635 1975.98 169.577 Q1975.73 170.479 1975.53 171.463 L1972.66 182.94 Q1971.27 188.392 1971.27 190.318 Q1971.27 192.695 1972.41 194.294 Q1973.56 195.852 1975.86 195.852 Q1976.76 195.852 1977.78 195.606 Q1978.81 195.319 1980.12 194.581 Q1981.47 193.802 1982.66 192.654 Q1983.89 191.466 1985.08 189.457 Q1986.27 187.449 1987.05 184.866 Q1987.29 183.965 1988.11 183.965 Q1989.14 183.965 1989.14 184.784 Q1989.14 185.481 1988.56 186.957 Q1988.03 188.392 1986.84 190.277 Q1985.69 192.122 1984.18 193.802 Q1982.66 195.442 1980.41 196.589 Q1978.15 197.737 1975.69 197.737 Q1972.17 197.737 1969.83 195.852 Q1967.49 193.966 1966.63 191.343 Q1966.43 191.712 1966.14 192.204 Q1965.85 192.695 1964.99 193.802 Q1964.17 194.868 1963.23 195.688 Q1962.29 196.466 1960.81 197.081 Q1959.38 197.737 1957.82 197.737 Q1955.85 197.737 1954.09 197.163 Q1952.37 196.589 1951.14 195.278 Q1949.91 193.966 1949.91 192.163 Q1949.91 190.154 1951.26 188.76 Q1952.66 187.326 1954.54 187.326 Q1955.73 187.326 1956.67 188.023 Q1957.66 188.719 1957.66 190.236 Q1957.66 191.917 1956.51 193.187 Q1955.36 194.458 1953.72 194.786 Q1955.4 195.852 1957.9 195.852 Q1960.61 195.852 1962.74 193.474 Q1964.87 191.097 1965.9 187.121 Q1968.44 177.57 1969.42 173.307 Q1970.4 169.004 1970.4 167.159 Q1970.4 165.438 1969.95 164.249 Q1969.5 163.06 1968.72 162.527 Q1967.99 161.953 1967.29 161.748 Q1966.63 161.544 1965.9 161.544 Q1964.67 161.544 1963.27 162.035 Q1961.92 162.527 1960.28 163.675 Q1958.68 164.782 1957.16 167.077 Q1955.65 169.372 1954.62 172.529 Q1954.42 173.471 1953.52 173.471 Q1952.53 173.43 1952.53 172.611 Q1952.53 171.914 1953.07 170.479 Q1953.64 169.004 1954.79 167.159 Q1955.98 165.315 1957.49 163.675 Q1959.05 161.994 1961.3 160.847 Q1963.6 159.699 1966.06 159.699 Q1967.17 159.699 1968.23 159.945 Q1969.34 160.15 1970.65 160.765 Q1972 161.38 1973.19 162.732 Q1974.38 164.085 1975.12 166.052 Q1975.61 165.11 1976.27 164.208 Q1976.96 163.306 1978.03 162.199 Q1979.14 161.052 1980.65 160.396 Q1982.21 159.699 1983.93 159.699 Q1985.61 159.699 1987.25 160.15 Q1988.89 160.56 1990.28 161.912 Q1991.72 163.224 1991.72 165.233 Z" fill="#000000" fill-rule="nonzero" fill-opacity="1" /><path clip-path="url(#clip250)" d="M2000.28 202.196 Q2000.28 193.559 2002.46 188.854 Q2005.5 181.853 2012.67 181.853 Q2014.19 181.853 2015.77 182.283 Q2017.38 182.685 2019.39 184.263 Q2021.42 185.841 2022.66 188.423 Q2025.01 193.416 2025.01 202.196 Q2025.01 210.775 2022.83 215.452 Q2019.64 222.28 2012.61 222.28 Q2009.97 222.28 2007.28 220.932 Q2004.61 219.583 2002.92 216.341 Q2000.28 211.492 2000.28 202.196 M2005.15 201.478 Q2005.15 210.344 2005.78 213.874 Q2006.5 217.69 2008.45 219.354 Q2010.43 220.989 2012.61 220.989 Q2014.97 220.989 2016.92 219.239 Q2018.9 217.46 2019.5 213.644 Q2020.16 209.885 2020.13 201.478 Q2020.13 193.301 2019.56 190.03 Q2018.78 186.214 2016.72 184.693 Q2014.68 183.144 2012.61 183.144 Q2011.84 183.144 2011.01 183.373 Q2010.2 183.603 2009.03 184.263 Q2007.85 184.923 2006.93 186.558 Q2006.04 188.194 2005.61 190.661 Q2005.15 193.846 2005.15 201.478 Z" fill="#000000" fill-rule="nonzero" fill-opacity="1" /><path clip-path="url(#clip250)" d="M431.788 165.872 Q431.788 168.168 430.353 169.479 Q428.919 170.75 427.279 170.75 Q425.722 170.75 424.902 169.848 Q424.082 168.947 424.082 167.799 Q424.082 166.241 425.23 164.889 Q426.377 163.536 428.099 163.249 Q426.418 162.183 423.918 162.183 Q422.278 162.183 420.844 163.044 Q419.45 163.905 418.589 165.012 Q417.77 166.118 417.032 167.717 Q416.335 169.275 416.048 170.217 Q415.802 171.119 415.597 172.103 L412.728 183.58 Q411.334 189.031 411.334 190.958 Q411.334 193.335 412.482 194.934 Q413.63 196.491 415.925 196.491 Q416.827 196.491 417.852 196.245 Q418.876 195.959 420.188 195.221 Q421.541 194.442 422.729 193.294 Q423.959 192.106 425.148 190.097 Q426.336 188.089 427.115 185.506 Q427.361 184.605 428.181 184.605 Q429.206 184.605 429.206 185.424 Q429.206 186.121 428.632 187.597 Q428.099 189.031 426.91 190.917 Q425.763 192.761 424.246 194.442 Q422.729 196.082 420.475 197.229 Q418.221 198.377 415.761 198.377 Q412.236 198.377 409.9 196.491 Q407.563 194.606 406.703 191.983 Q406.498 192.351 406.211 192.843 Q405.924 193.335 405.063 194.442 Q404.243 195.508 403.3 196.327 Q402.358 197.106 400.882 197.721 Q399.447 198.377 397.89 198.377 Q395.922 198.377 394.16 197.803 Q392.438 197.229 391.209 195.918 Q389.979 194.606 389.979 192.802 Q389.979 190.794 391.332 189.4 Q392.725 187.966 394.611 187.966 Q395.799 187.966 396.742 188.662 Q397.726 189.359 397.726 190.876 Q397.726 192.556 396.578 193.827 Q395.431 195.098 393.791 195.426 Q395.471 196.491 397.972 196.491 Q400.677 196.491 402.809 194.114 Q404.94 191.737 405.965 187.761 Q408.506 178.21 409.49 173.947 Q410.474 169.643 410.474 167.799 Q410.474 166.077 410.023 164.889 Q409.572 163.7 408.793 163.167 Q408.055 162.593 407.358 162.388 Q406.703 162.183 405.965 162.183 Q404.735 162.183 403.341 162.675 Q401.989 163.167 400.349 164.315 Q398.751 165.422 397.234 167.717 Q395.717 170.012 394.693 173.169 Q394.488 174.111 393.586 174.111 Q392.602 174.07 392.602 173.25 Q392.602 172.554 393.135 171.119 Q393.709 169.643 394.857 167.799 Q396.045 165.954 397.562 164.315 Q399.12 162.634 401.374 161.487 Q403.669 160.339 406.129 160.339 Q407.235 160.339 408.301 160.585 Q409.408 160.79 410.72 161.405 Q412.072 162.019 413.261 163.372 Q414.45 164.725 415.187 166.692 Q415.679 165.749 416.335 164.848 Q417.032 163.946 418.098 162.839 Q419.204 161.692 420.721 161.036 Q422.278 160.339 424 160.339 Q425.681 160.339 427.32 160.79 Q428.96 161.2 430.353 162.552 Q431.788 163.864 431.788 165.872 Z" fill="#000000" fill-rule="nonzero" fill-opacity="1" /><path clip-path="url(#clip250)" d="M440.345 188.088 L440.345 186.251 Q447.404 186.251 451.047 182.493 Q452.052 182.493 452.224 182.722 Q452.396 182.952 452.396 184.013 L452.396 216.981 Q452.396 218.731 453.257 219.276 Q454.118 219.822 457.876 219.822 L459.741 219.822 L459.741 221.629 Q457.675 221.457 450.215 221.457 Q442.755 221.457 440.718 221.629 L440.718 219.822 L442.583 219.822 Q446.285 219.822 447.174 219.305 Q448.063 218.76 448.063 216.981 L448.063 186.538 Q444.993 188.088 440.345 188.088 Z" fill="#000000" fill-rule="nonzero" fill-opacity="1" /><path clip-path="url(#clip250)" d="M975.224 165.872 Q975.224 168.168 973.789 169.479 Q972.355 170.75 970.715 170.75 Q969.158 170.75 968.338 169.848 Q967.518 168.947 967.518 167.799 Q967.518 166.241 968.666 164.889 Q969.813 163.536 971.535 163.249 Q969.854 162.183 967.354 162.183 Q965.714 162.183 964.28 163.044 Q962.886 163.905 962.025 165.012 Q961.206 166.118 960.468 167.717 Q959.771 169.275 959.484 170.217 Q959.238 171.119 959.033 172.103 L956.164 183.58 Q954.77 189.031 954.77 190.958 Q954.77 193.335 955.918 194.934 Q957.066 196.491 959.361 196.491 Q960.263 196.491 961.288 196.245 Q962.312 195.959 963.624 195.221 Q964.977 194.442 966.165 193.294 Q967.395 192.106 968.584 190.097 Q969.772 188.089 970.551 185.506 Q970.797 184.605 971.617 184.605 Q972.642 184.605 972.642 185.424 Q972.642 186.121 972.068 187.597 Q971.535 189.031 970.346 190.917 Q969.199 192.761 967.682 194.442 Q966.165 196.082 963.911 197.229 Q961.656 198.377 959.197 198.377 Q955.672 198.377 953.336 196.491 Q950.999 194.606 950.139 191.983 Q949.934 192.351 949.647 192.843 Q949.36 193.335 948.499 194.442 Q947.679 195.508 946.736 196.327 Q945.794 197.106 944.318 197.721 Q942.883 198.377 941.326 198.377 Q939.358 198.377 937.596 197.803 Q935.874 197.229 934.645 195.918 Q933.415 194.606 933.415 192.802 Q933.415 190.794 934.768 189.4 Q936.161 187.966 938.047 187.966 Q939.235 187.966 940.178 188.662 Q941.162 189.359 941.162 190.876 Q941.162 192.556 940.014 193.827 Q938.866 195.098 937.227 195.426 Q938.907 196.491 941.408 196.491 Q944.113 196.491 946.245 194.114 Q948.376 191.737 949.401 187.761 Q951.942 178.21 952.926 173.947 Q953.91 169.643 953.91 167.799 Q953.91 166.077 953.459 164.889 Q953.008 163.7 952.229 163.167 Q951.491 162.593 950.794 162.388 Q950.139 162.183 949.401 162.183 Q948.171 162.183 946.777 162.675 Q945.425 163.167 943.785 164.315 Q942.187 165.422 940.67 167.717 Q939.153 170.012 938.129 173.169 Q937.924 174.111 937.022 174.111 Q936.038 174.07 936.038 173.25 Q936.038 172.554 936.571 171.119 Q937.145 169.643 938.293 167.799 Q939.481 165.954 940.998 164.315 Q942.555 162.634 944.81 161.487 Q947.105 160.339 949.565 160.339 Q950.671 160.339 951.737 160.585 Q952.844 160.79 954.155 161.405 Q955.508 162.019 956.697 163.372 Q957.885 164.725 958.623 166.692 Q959.115 165.749 959.771 164.848 Q960.468 163.946 961.534 162.839 Q962.64 161.692 964.157 161.036 Q965.714 160.339 967.436 160.339 Q969.117 160.339 970.756 160.79 Q972.396 161.2 973.789 162.552 Q975.224 163.864 975.224 165.872 Z" fill="#000000" fill-rule="nonzero" fill-opacity="1" /><path clip-path="url(#clip250)" d="M983.781 221.629 Q983.781 220.568 983.867 220.252 Q983.982 219.936 984.441 219.449 L995.717 206.881 Q1001.89 199.938 1001.89 193.884 Q1001.89 189.953 999.82 187.141 Q997.783 184.329 994.024 184.329 Q991.442 184.329 989.261 185.907 Q987.081 187.485 986.077 190.297 Q986.249 190.24 986.851 190.24 Q988.315 190.24 989.118 191.158 Q989.95 192.076 989.95 193.31 Q989.95 194.888 988.917 195.662 Q987.913 196.408 986.909 196.408 Q986.507 196.408 985.962 196.322 Q985.445 196.236 984.613 195.433 Q983.781 194.601 983.781 193.138 Q983.781 189.034 986.88 185.764 Q990.007 182.493 994.77 182.493 Q1000.16 182.493 1003.69 185.706 Q1007.25 188.891 1007.25 193.884 Q1007.25 195.634 1006.71 197.241 Q1006.19 198.819 1005.47 200.052 Q1004.78 201.286 1002.89 203.266 Q1001 205.246 999.476 206.652 Q997.955 208.058 994.541 211.042 L988.315 217.096 L998.902 217.096 Q1004.07 217.096 1004.47 216.637 Q1005.04 215.805 1005.76 211.415 L1007.25 211.415 L1005.59 221.629 L983.781 221.629 Z" fill="#000000" fill-rule="nonzero" fill-opacity="1" /></svg>
