<?xml version="1.0" encoding="utf-8"?>
<svg xmlns="http://www.w3.org/2000/svg" xmlns:xlink="http://www.w3.org/1999/xlink" width="600" height="400" viewBox="0 0 2400 1600">
<defs>
  <clipPath id="clip850">
    <rect x="0" y="0" width="2400" height="1600"/>
  </clipPath>
</defs>
<path clip-path="url(#clip850)" d="M0 1600 L2400 1600 L2400 0 L0 0  Z" fill="#ffffff" fill-rule="evenodd" fill-opacity="1"/>
<defs>
  <clipPath id="clip851">
    <rect x="480" y="0" width="1681" height="1600"/>
  </clipPath>
</defs>
<path clip-path="url(#clip850)" d="M192.941 1486.45 L2352.76 1486.45 L2352.76 47.2441 L192.941 47.2441  Z" fill="#ffffff" fill-rule="evenodd" fill-opacity="1"/>
<defs>
  <clipPath id="clip852">
    <rect x="192" y="47" width="2161" height="1440"/>
  </clipPath>
</defs>
<polyline clip-path="url(#clip852)" style="stroke:#000000; stroke-linecap:round; stroke-linejoin:round; stroke-width:2; stroke-opacity:0.1; fill:none" points="254.067,1486.45 254.067,47.2441 "/>
<polyline clip-path="url(#clip852)" style="stroke:#000000; stroke-linecap:round; stroke-linejoin:round; stroke-width:2; stroke-opacity:0.1; fill:none" points="661.58,1486.45 661.58,47.2441 "/>
<polyline clip-path="url(#clip852)" style="stroke:#000000; stroke-linecap:round; stroke-linejoin:round; stroke-width:2; stroke-opacity:0.1; fill:none" points="1069.09,1486.45 1069.09,47.2441 "/>
<polyline clip-path="url(#clip852)" style="stroke:#000000; stroke-linecap:round; stroke-linejoin:round; stroke-width:2; stroke-opacity:0.1; fill:none" points="1476.6,1486.45 1476.6,47.2441 "/>
<polyline clip-path="url(#clip852)" style="stroke:#000000; stroke-linecap:round; stroke-linejoin:round; stroke-width:2; stroke-opacity:0.1; fill:none" points="1884.12,1486.45 1884.12,47.2441 "/>
<polyline clip-path="url(#clip852)" style="stroke:#000000; stroke-linecap:round; stroke-linejoin:round; stroke-width:2; stroke-opacity:0.1; fill:none" points="2291.63,1486.45 2291.63,47.2441 "/>
<polyline clip-path="url(#clip850)" style="stroke:#000000; stroke-linecap:round; stroke-linejoin:round; stroke-width:4; stroke-opacity:1; fill:none" points="192.941,1486.45 2352.76,1486.45 "/>
<polyline clip-path="url(#clip850)" style="stroke:#000000; stroke-linecap:round; stroke-linejoin:round; stroke-width:2; stroke-opacity:0.5; fill:none" points="192.941,47.2441 2352.76,47.2441 "/>
<polyline clip-path="url(#clip850)" style="stroke:#000000; stroke-linecap:round; stroke-linejoin:round; stroke-width:4; stroke-opacity:1; fill:none" points="254.067,1486.45 254.067,1467.55 "/>
<polyline clip-path="url(#clip850)" style="stroke:#000000; stroke-linecap:round; stroke-linejoin:round; stroke-width:4; stroke-opacity:1; fill:none" points="661.58,1486.45 661.58,1467.55 "/>
<polyline clip-path="url(#clip850)" style="stroke:#000000; stroke-linecap:round; stroke-linejoin:round; stroke-width:4; stroke-opacity:1; fill:none" points="1069.09,1486.45 1069.09,1467.55 "/>
<polyline clip-path="url(#clip850)" style="stroke:#000000; stroke-linecap:round; stroke-linejoin:round; stroke-width:4; stroke-opacity:1; fill:none" points="1476.6,1486.45 1476.6,1467.55 "/>
<polyline clip-path="url(#clip850)" style="stroke:#000000; stroke-linecap:round; stroke-linejoin:round; stroke-width:4; stroke-opacity:1; fill:none" points="1884.12,1486.45 1884.12,1467.55 "/>
<polyline clip-path="url(#clip850)" style="stroke:#000000; stroke-linecap:round; stroke-linejoin:round; stroke-width:4; stroke-opacity:1; fill:none" points="2291.63,1486.45 2291.63,1467.55 "/>
<path clip-path="url(#clip850)" d="M200.596 1532.02 L230.271 1532.02 L230.271 1535.95 L200.596 1535.95 L200.596 1532.02 Z" fill="#000000" fill-rule="nonzero" fill-opacity="1" /><path clip-path="url(#clip850)" d="M241.174 1544.91 L248.813 1544.91 L248.813 1518.55 L240.503 1520.21 L240.503 1515.95 L248.767 1514.29 L253.442 1514.29 L253.442 1544.91 L261.081 1544.91 L261.081 1548.85 L241.174 1548.85 L241.174 1544.91 Z" fill="#000000" fill-rule="nonzero" fill-opacity="1" /><path clip-path="url(#clip850)" d="M270.526 1542.97 L275.41 1542.97 L275.41 1548.85 L270.526 1548.85 L270.526 1542.97 Z" fill="#000000" fill-rule="nonzero" fill-opacity="1" /><path clip-path="url(#clip850)" d="M295.595 1517.37 Q291.984 1517.37 290.155 1520.93 Q288.35 1524.47 288.35 1531.6 Q288.35 1538.71 290.155 1542.27 Q291.984 1545.82 295.595 1545.82 Q299.229 1545.82 301.035 1542.27 Q302.864 1538.71 302.864 1531.6 Q302.864 1524.47 301.035 1520.93 Q299.229 1517.37 295.595 1517.37 M295.595 1513.66 Q301.405 1513.66 304.461 1518.27 Q307.539 1522.85 307.539 1531.6 Q307.539 1540.33 304.461 1544.94 Q301.405 1549.52 295.595 1549.52 Q289.785 1549.52 286.706 1544.94 Q283.651 1540.33 283.651 1531.6 Q283.651 1522.85 286.706 1518.27 Q289.785 1513.66 295.595 1513.66 Z" fill="#000000" fill-rule="nonzero" fill-opacity="1" /><path clip-path="url(#clip850)" d="M608.606 1532.02 L638.281 1532.02 L638.281 1535.95 L608.606 1535.95 L608.606 1532.02 Z" fill="#000000" fill-rule="nonzero" fill-opacity="1" /><path clip-path="url(#clip850)" d="M658.374 1517.37 Q654.763 1517.37 652.934 1520.93 Q651.128 1524.47 651.128 1531.6 Q651.128 1538.71 652.934 1542.27 Q654.763 1545.82 658.374 1545.82 Q662.008 1545.82 663.814 1542.27 Q665.642 1538.71 665.642 1531.6 Q665.642 1524.47 663.814 1520.93 Q662.008 1517.37 658.374 1517.37 M658.374 1513.66 Q664.184 1513.66 667.239 1518.27 Q670.318 1522.85 670.318 1531.6 Q670.318 1540.33 667.239 1544.94 Q664.184 1549.52 658.374 1549.52 Q652.564 1549.52 649.485 1544.94 Q646.429 1540.33 646.429 1531.6 Q646.429 1522.85 649.485 1518.27 Q652.564 1513.66 658.374 1513.66 Z" fill="#000000" fill-rule="nonzero" fill-opacity="1" /><path clip-path="url(#clip850)" d="M678.536 1542.97 L683.42 1542.97 L683.42 1548.85 L678.536 1548.85 L678.536 1542.97 Z" fill="#000000" fill-rule="nonzero" fill-opacity="1" /><path clip-path="url(#clip850)" d="M693.651 1514.29 L712.008 1514.29 L712.008 1518.22 L697.934 1518.22 L697.934 1526.7 Q698.952 1526.35 699.971 1526.19 Q700.989 1526 702.008 1526 Q707.795 1526 711.174 1529.17 Q714.554 1532.34 714.554 1537.76 Q714.554 1543.34 711.082 1546.44 Q707.61 1549.52 701.29 1549.52 Q699.114 1549.52 696.846 1549.15 Q694.6 1548.78 692.193 1548.04 L692.193 1543.34 Q694.276 1544.47 696.499 1545.03 Q698.721 1545.58 701.198 1545.58 Q705.202 1545.58 707.54 1543.48 Q709.878 1541.37 709.878 1537.76 Q709.878 1534.15 707.54 1532.04 Q705.202 1529.94 701.198 1529.94 Q699.323 1529.94 697.448 1530.35 Q695.596 1530.77 693.651 1531.65 L693.651 1514.29 Z" fill="#000000" fill-rule="nonzero" fill-opacity="1" /><path clip-path="url(#clip850)" d="M1046.48 1517.37 Q1042.87 1517.37 1041.04 1520.93 Q1039.23 1524.47 1039.23 1531.6 Q1039.23 1538.71 1041.04 1542.27 Q1042.87 1545.82 1046.48 1545.82 Q1050.11 1545.82 1051.92 1542.27 Q1053.74 1538.71 1053.74 1531.6 Q1053.74 1524.47 1051.92 1520.93 Q1050.11 1517.37 1046.48 1517.37 M1046.48 1513.66 Q1052.29 1513.66 1055.34 1518.27 Q1058.42 1522.85 1058.42 1531.6 Q1058.42 1540.33 1055.34 1544.94 Q1052.29 1549.52 1046.48 1549.52 Q1040.67 1549.52 1037.59 1544.94 Q1034.53 1540.33 1034.53 1531.6 Q1034.53 1522.85 1037.59 1518.27 Q1040.67 1513.66 1046.48 1513.66 Z" fill="#000000" fill-rule="nonzero" fill-opacity="1" /><path clip-path="url(#clip850)" d="M1066.64 1542.97 L1071.52 1542.97 L1071.52 1548.85 L1066.64 1548.85 L1066.64 1542.97 Z" fill="#000000" fill-rule="nonzero" fill-opacity="1" /><path clip-path="url(#clip850)" d="M1091.71 1517.37 Q1088.1 1517.37 1086.27 1520.93 Q1084.46 1524.47 1084.46 1531.6 Q1084.46 1538.71 1086.27 1542.27 Q1088.1 1545.82 1091.71 1545.82 Q1095.34 1545.82 1097.15 1542.27 Q1098.98 1538.71 1098.98 1531.6 Q1098.98 1524.47 1097.15 1520.93 Q1095.34 1517.37 1091.71 1517.37 M1091.71 1513.66 Q1097.52 1513.66 1100.57 1518.27 Q1103.65 1522.85 1103.65 1531.6 Q1103.65 1540.33 1100.57 1544.94 Q1097.52 1549.52 1091.71 1549.52 Q1085.9 1549.52 1082.82 1544.94 Q1079.76 1540.33 1079.76 1531.6 Q1079.76 1522.85 1082.82 1518.27 Q1085.9 1513.66 1091.71 1513.66 Z" fill="#000000" fill-rule="nonzero" fill-opacity="1" /><path clip-path="url(#clip850)" d="M1454.49 1517.37 Q1450.88 1517.37 1449.05 1520.93 Q1447.24 1524.47 1447.24 1531.6 Q1447.24 1538.71 1449.05 1542.27 Q1450.88 1545.82 1454.49 1545.82 Q1458.12 1545.82 1459.93 1542.27 Q1461.75 1538.71 1461.75 1531.6 Q1461.75 1524.47 1459.93 1520.93 Q1458.12 1517.37 1454.49 1517.37 M1454.49 1513.66 Q1460.3 1513.66 1463.35 1518.27 Q1466.43 1522.85 1466.43 1531.6 Q1466.43 1540.33 1463.35 1544.94 Q1460.3 1549.52 1454.49 1549.52 Q1448.68 1549.52 1445.6 1544.94 Q1442.54 1540.33 1442.54 1531.6 Q1442.54 1522.85 1445.6 1518.27 Q1448.68 1513.66 1454.49 1513.66 Z" fill="#000000" fill-rule="nonzero" fill-opacity="1" /><path clip-path="url(#clip850)" d="M1474.65 1542.97 L1479.53 1542.97 L1479.53 1548.85 L1474.65 1548.85 L1474.65 1542.97 Z" fill="#000000" fill-rule="nonzero" fill-opacity="1" /><path clip-path="url(#clip850)" d="M1489.76 1514.29 L1508.12 1514.29 L1508.12 1518.22 L1494.05 1518.22 L1494.05 1526.7 Q1495.06 1526.35 1496.08 1526.19 Q1497.1 1526 1498.12 1526 Q1503.91 1526 1507.29 1529.17 Q1510.67 1532.34 1510.67 1537.76 Q1510.67 1543.34 1507.19 1546.44 Q1503.72 1549.52 1497.4 1549.52 Q1495.23 1549.52 1492.96 1549.15 Q1490.71 1548.78 1488.31 1548.04 L1488.31 1543.34 Q1490.39 1544.47 1492.61 1545.03 Q1494.83 1545.58 1497.31 1545.58 Q1501.31 1545.58 1503.65 1543.48 Q1505.99 1541.37 1505.99 1537.76 Q1505.99 1534.15 1503.65 1532.04 Q1501.31 1529.94 1497.31 1529.94 Q1495.44 1529.94 1493.56 1530.35 Q1491.71 1530.77 1489.76 1531.65 L1489.76 1514.29 Z" fill="#000000" fill-rule="nonzero" fill-opacity="1" /><path clip-path="url(#clip850)" d="M1851.27 1544.91 L1858.91 1544.91 L1858.91 1518.55 L1850.6 1520.21 L1850.6 1515.95 L1858.86 1514.29 L1863.54 1514.29 L1863.54 1544.91 L1871.18 1544.91 L1871.18 1548.85 L1851.27 1548.85 L1851.27 1544.91 Z" fill="#000000" fill-rule="nonzero" fill-opacity="1" /><path clip-path="url(#clip850)" d="M1880.62 1542.97 L1885.51 1542.97 L1885.51 1548.85 L1880.62 1548.85 L1880.62 1542.97 Z" fill="#000000" fill-rule="nonzero" fill-opacity="1" /><path clip-path="url(#clip850)" d="M1905.69 1517.37 Q1902.08 1517.37 1900.25 1520.93 Q1898.45 1524.47 1898.45 1531.6 Q1898.45 1538.71 1900.25 1542.27 Q1902.08 1545.82 1905.69 1545.82 Q1909.32 1545.82 1911.13 1542.27 Q1912.96 1538.71 1912.96 1531.6 Q1912.96 1524.47 1911.13 1520.93 Q1909.32 1517.37 1905.69 1517.37 M1905.69 1513.66 Q1911.5 1513.66 1914.56 1518.27 Q1917.64 1522.85 1917.64 1531.6 Q1917.64 1540.33 1914.56 1544.94 Q1911.5 1549.52 1905.69 1549.52 Q1899.88 1549.52 1896.8 1544.94 Q1893.75 1540.33 1893.75 1531.6 Q1893.75 1522.85 1896.8 1518.27 Q1899.88 1513.66 1905.69 1513.66 Z" fill="#000000" fill-rule="nonzero" fill-opacity="1" /><path clip-path="url(#clip850)" d="M2259.28 1544.91 L2266.92 1544.91 L2266.92 1518.55 L2258.61 1520.21 L2258.61 1515.95 L2266.87 1514.29 L2271.55 1514.29 L2271.55 1544.91 L2279.19 1544.91 L2279.19 1548.85 L2259.28 1548.85 L2259.28 1544.91 Z" fill="#000000" fill-rule="nonzero" fill-opacity="1" /><path clip-path="url(#clip850)" d="M2288.63 1542.97 L2293.52 1542.97 L2293.52 1548.85 L2288.63 1548.85 L2288.63 1542.97 Z" fill="#000000" fill-rule="nonzero" fill-opacity="1" /><path clip-path="url(#clip850)" d="M2303.75 1514.29 L2322.1 1514.29 L2322.1 1518.22 L2308.03 1518.22 L2308.03 1526.7 Q2309.05 1526.35 2310.07 1526.19 Q2311.08 1526 2312.1 1526 Q2317.89 1526 2321.27 1529.17 Q2324.65 1532.34 2324.65 1537.76 Q2324.65 1543.34 2321.18 1546.44 Q2317.71 1549.52 2311.39 1549.52 Q2309.21 1549.52 2306.94 1549.15 Q2304.7 1548.78 2302.29 1548.04 L2302.29 1543.34 Q2304.37 1544.47 2306.59 1545.03 Q2308.82 1545.58 2311.29 1545.58 Q2315.3 1545.58 2317.64 1543.48 Q2319.97 1541.37 2319.97 1537.76 Q2319.97 1534.15 2317.64 1532.04 Q2315.3 1529.94 2311.29 1529.94 Q2309.42 1529.94 2307.54 1530.35 Q2305.69 1530.77 2303.75 1531.65 L2303.75 1514.29 Z" fill="#000000" fill-rule="nonzero" fill-opacity="1" /><polyline clip-path="url(#clip852)" style="stroke:#000000; stroke-linecap:round; stroke-linejoin:round; stroke-width:2; stroke-opacity:0.1; fill:none" points="192.941,1193.6 2352.76,1193.6 "/>
<polyline clip-path="url(#clip852)" style="stroke:#000000; stroke-linecap:round; stroke-linejoin:round; stroke-width:2; stroke-opacity:0.1; fill:none" points="192.941,824.444 2352.76,824.444 "/>
<polyline clip-path="url(#clip852)" style="stroke:#000000; stroke-linecap:round; stroke-linejoin:round; stroke-width:2; stroke-opacity:0.1; fill:none" points="192.941,455.285 2352.76,455.285 "/>
<polyline clip-path="url(#clip852)" style="stroke:#000000; stroke-linecap:round; stroke-linejoin:round; stroke-width:2; stroke-opacity:0.1; fill:none" points="192.941,86.1268 2352.76,86.1268 "/>
<polyline clip-path="url(#clip850)" style="stroke:#000000; stroke-linecap:round; stroke-linejoin:round; stroke-width:4; stroke-opacity:1; fill:none" points="192.941,1486.45 192.941,47.2441 "/>
<polyline clip-path="url(#clip850)" style="stroke:#000000; stroke-linecap:round; stroke-linejoin:round; stroke-width:2; stroke-opacity:0.5; fill:none" points="2352.76,1486.45 2352.76,47.2441 "/>
<polyline clip-path="url(#clip850)" style="stroke:#000000; stroke-linecap:round; stroke-linejoin:round; stroke-width:4; stroke-opacity:1; fill:none" points="192.941,1193.6 211.838,1193.6 "/>
<polyline clip-path="url(#clip850)" style="stroke:#000000; stroke-linecap:round; stroke-linejoin:round; stroke-width:4; stroke-opacity:1; fill:none" points="192.941,824.444 211.838,824.444 "/>
<polyline clip-path="url(#clip850)" style="stroke:#000000; stroke-linecap:round; stroke-linejoin:round; stroke-width:4; stroke-opacity:1; fill:none" points="192.941,455.285 211.838,455.285 "/>
<polyline clip-path="url(#clip850)" style="stroke:#000000; stroke-linecap:round; stroke-linejoin:round; stroke-width:4; stroke-opacity:1; fill:none" points="192.941,86.1268 211.838,86.1268 "/>
<path clip-path="url(#clip850)" d="M50.9921 1194.05 L80.6679 1194.05 L80.6679 1197.99 L50.9921 1197.99 L50.9921 1194.05 Z" fill="#000000" fill-rule="nonzero" fill-opacity="1" /><path clip-path="url(#clip850)" d="M100.76 1179.4 Q97.1493 1179.4 95.3206 1182.97 Q93.515 1186.51 93.515 1193.64 Q93.515 1200.74 95.3206 1204.31 Q97.1493 1207.85 100.76 1207.85 Q104.395 1207.85 106.2 1204.31 Q108.029 1200.74 108.029 1193.64 Q108.029 1186.51 106.2 1182.97 Q104.395 1179.4 100.76 1179.4 M100.76 1175.7 Q106.571 1175.7 109.626 1180.3 Q112.705 1184.89 112.705 1193.64 Q112.705 1202.36 109.626 1206.97 Q106.571 1211.55 100.76 1211.55 Q94.9502 1211.55 91.8715 1206.97 Q88.816 1202.36 88.816 1193.64 Q88.816 1184.89 91.8715 1180.3 Q94.9502 1175.7 100.76 1175.7 Z" fill="#000000" fill-rule="nonzero" fill-opacity="1" /><path clip-path="url(#clip850)" d="M120.922 1205 L125.807 1205 L125.807 1210.88 L120.922 1210.88 L120.922 1205 Z" fill="#000000" fill-rule="nonzero" fill-opacity="1" /><path clip-path="url(#clip850)" d="M136.038 1176.32 L154.394 1176.32 L154.394 1180.26 L140.32 1180.26 L140.32 1188.73 Q141.339 1188.38 142.357 1188.22 Q143.376 1188.03 144.394 1188.03 Q150.181 1188.03 153.561 1191.21 Q156.941 1194.38 156.941 1199.79 Q156.941 1205.37 153.468 1208.47 Q149.996 1211.55 143.677 1211.55 Q141.501 1211.55 139.232 1211.18 Q136.987 1210.81 134.58 1210.07 L134.58 1205.37 Q136.663 1206.51 138.885 1207.06 Q141.107 1207.62 143.584 1207.62 Q147.589 1207.62 149.927 1205.51 Q152.265 1203.41 152.265 1199.79 Q152.265 1196.18 149.927 1194.08 Q147.589 1191.97 143.584 1191.97 Q141.709 1191.97 139.834 1192.39 Q137.982 1192.8 136.038 1193.68 L136.038 1176.32 Z" fill="#000000" fill-rule="nonzero" fill-opacity="1" /><path clip-path="url(#clip850)" d="M99.765 810.242 Q96.1539 810.242 94.3252 813.807 Q92.5197 817.349 92.5197 824.478 Q92.5197 831.585 94.3252 835.15 Q96.1539 838.691 99.765 838.691 Q103.399 838.691 105.205 835.15 Q107.033 831.585 107.033 824.478 Q107.033 817.349 105.205 813.807 Q103.399 810.242 99.765 810.242 M99.765 806.539 Q105.575 806.539 108.631 811.145 Q111.709 815.728 111.709 824.478 Q111.709 833.205 108.631 837.812 Q105.575 842.395 99.765 842.395 Q93.9549 842.395 90.8762 837.812 Q87.8206 833.205 87.8206 824.478 Q87.8206 815.728 90.8762 811.145 Q93.9549 806.539 99.765 806.539 Z" fill="#000000" fill-rule="nonzero" fill-opacity="1" /><path clip-path="url(#clip850)" d="M119.927 835.844 L124.811 835.844 L124.811 841.724 L119.927 841.724 L119.927 835.844 Z" fill="#000000" fill-rule="nonzero" fill-opacity="1" /><path clip-path="url(#clip850)" d="M144.996 810.242 Q141.385 810.242 139.556 813.807 Q137.751 817.349 137.751 824.478 Q137.751 831.585 139.556 835.15 Q141.385 838.691 144.996 838.691 Q148.63 838.691 150.436 835.15 Q152.265 831.585 152.265 824.478 Q152.265 817.349 150.436 813.807 Q148.63 810.242 144.996 810.242 M144.996 806.539 Q150.806 806.539 153.862 811.145 Q156.941 815.728 156.941 824.478 Q156.941 833.205 153.862 837.812 Q150.806 842.395 144.996 842.395 Q139.186 842.395 136.107 837.812 Q133.052 833.205 133.052 824.478 Q133.052 815.728 136.107 811.145 Q139.186 806.539 144.996 806.539 Z" fill="#000000" fill-rule="nonzero" fill-opacity="1" /><path clip-path="url(#clip850)" d="M100.76 441.084 Q97.1493 441.084 95.3206 444.649 Q93.515 448.19 93.515 455.32 Q93.515 462.426 95.3206 465.991 Q97.1493 469.533 100.76 469.533 Q104.395 469.533 106.2 465.991 Q108.029 462.426 108.029 455.32 Q108.029 448.19 106.2 444.649 Q104.395 441.084 100.76 441.084 M100.76 437.38 Q106.571 437.38 109.626 441.987 Q112.705 446.57 112.705 455.32 Q112.705 464.047 109.626 468.653 Q106.571 473.236 100.76 473.236 Q94.9502 473.236 91.8715 468.653 Q88.816 464.047 88.816 455.32 Q88.816 446.57 91.8715 441.987 Q94.9502 437.38 100.76 437.38 Z" fill="#000000" fill-rule="nonzero" fill-opacity="1" /><path clip-path="url(#clip850)" d="M120.922 466.686 L125.807 466.686 L125.807 472.565 L120.922 472.565 L120.922 466.686 Z" fill="#000000" fill-rule="nonzero" fill-opacity="1" /><path clip-path="url(#clip850)" d="M136.038 438.005 L154.394 438.005 L154.394 441.94 L140.32 441.94 L140.32 450.413 Q141.339 450.065 142.357 449.903 Q143.376 449.718 144.394 449.718 Q150.181 449.718 153.561 452.889 Q156.941 456.061 156.941 461.477 Q156.941 467.056 153.468 470.158 Q149.996 473.236 143.677 473.236 Q141.501 473.236 139.232 472.866 Q136.987 472.496 134.58 471.755 L134.58 467.056 Q136.663 468.19 138.885 468.746 Q141.107 469.301 143.584 469.301 Q147.589 469.301 149.927 467.195 Q152.265 465.088 152.265 461.477 Q152.265 457.866 149.927 455.76 Q147.589 453.653 143.584 453.653 Q141.709 453.653 139.834 454.07 Q137.982 454.487 136.038 455.366 L136.038 438.005 Z" fill="#000000" fill-rule="nonzero" fill-opacity="1" /><path clip-path="url(#clip850)" d="M90.5752 99.4716 L98.2141 99.4716 L98.2141 73.106 L89.904 74.7727 L89.904 70.5134 L98.1678 68.8468 L102.844 68.8468 L102.844 99.4716 L110.483 99.4716 L110.483 103.407 L90.5752 103.407 L90.5752 99.4716 Z" fill="#000000" fill-rule="nonzero" fill-opacity="1" /><path clip-path="url(#clip850)" d="M119.927 97.5272 L124.811 97.5272 L124.811 103.407 L119.927 103.407 L119.927 97.5272 Z" fill="#000000" fill-rule="nonzero" fill-opacity="1" /><path clip-path="url(#clip850)" d="M144.996 71.9255 Q141.385 71.9255 139.556 75.4903 Q137.751 79.0319 137.751 86.1615 Q137.751 93.2679 139.556 96.8327 Q141.385 100.374 144.996 100.374 Q148.63 100.374 150.436 96.8327 Q152.265 93.2679 152.265 86.1615 Q152.265 79.0319 150.436 75.4903 Q148.63 71.9255 144.996 71.9255 M144.996 68.2218 Q150.806 68.2218 153.862 72.8282 Q156.941 77.4116 156.941 86.1615 Q156.941 94.8883 153.862 99.4948 Q150.806 104.078 144.996 104.078 Q139.186 104.078 136.107 99.4948 Q133.052 94.8883 133.052 86.1615 Q133.052 77.4116 136.107 72.8282 Q139.186 68.2218 144.996 68.2218 Z" fill="#000000" fill-rule="nonzero" fill-opacity="1" /><polyline clip-path="url(#clip852)" style="stroke:#000000; stroke-linecap:round; stroke-linejoin:round; stroke-width:4; stroke-opacity:1; fill:none" stroke-dasharray="16, 10" points="254.067,824.444 2291.63,824.444 "/>
<polyline clip-path="url(#clip852)" style="stroke:#0000ff; stroke-linecap:round; stroke-linejoin:round; stroke-width:4; stroke-opacity:1; fill:none" points="254.067,1445.72 274.649,1435.45 295.23,1424.78 315.812,1413.74 336.393,1402.32 356.975,1390.54 377.556,1378.39 398.137,1365.89 418.719,1353.04 439.3,1339.86 459.882,1326.34 480.463,1312.51 501.045,1298.37 521.626,1283.92 542.208,1269.18 562.789,1254.16 583.37,1238.86 603.952,1223.3 624.533,1207.49 645.115,1191.43 665.696,1175.13 686.278,1158.62 706.859,1141.89 727.44,1124.96 748.022,1107.83 768.603,1090.53 789.185,1073.05 809.766,1055.42 830.348,1037.64 850.929,1019.72 871.51,1001.68 892.092,983.528 912.673,965.272 933.255,946.927 953.836,928.504 974.418,910.015 994.999,891.471 1015.58,872.884 1036.16,854.266 1056.74,835.63 1077.32,816.986 1097.91,798.347 1118.49,779.724 1139.07,761.131 1159.65,742.577 1180.23,724.076 1200.81,705.638 1221.39,687.277 1241.98,669.003 1262.56,650.828 1283.14,632.763 1303.72,614.821 1324.3,597.013 1344.88,579.35 1365.46,561.843 1386.05,544.503 1406.63,527.342 1427.21,510.37 1447.79,493.599 1468.37,477.038 1488.95,460.699 1509.53,444.592 1530.12,428.728 1550.7,413.115 1571.28,397.765 1591.86,382.687 1612.44,367.891 1633.02,353.386 1653.6,339.181 1674.19,325.285 1694.77,311.708 1715.35,298.458 1735.93,285.543 1756.51,272.972 1777.09,260.752 1797.67,248.892 1818.26,237.399 1838.84,226.28 1859.42,215.543 1880,205.194 1900.58,195.24 1921.16,185.687 1941.74,176.541 1962.33,167.809 1982.91,159.495 2003.49,151.605 2024.07,144.144 2044.65,137.117 2065.23,130.529 2085.81,124.382 2106.4,118.683 2126.98,113.433 2147.56,108.636 2168.14,104.296 2188.72,100.416 2209.3,96.9966 2229.88,94.0414 2250.47,91.5519 2271.05,89.5298 2291.63,87.9763 "/>
<polyline clip-path="url(#clip852)" style="stroke:#ff0000; stroke-linecap:round; stroke-linejoin:round; stroke-width:8; stroke-opacity:1; fill:none" points="1884.12,203.171 614.791,824.444 "/>
<circle clip-path="url(#clip852)" cx="1884.12" cy="203.171" r="7.2" fill="#ff0000" fill-rule="evenodd" fill-opacity="1" stroke="none"/>
<circle clip-path="url(#clip852)" cx="614.791" cy="824.444" r="7.2" fill="#ff0000" fill-rule="evenodd" fill-opacity="1" stroke="none"/>
<polyline clip-path="url(#clip852)" style="stroke:#000000; stroke-linecap:round; stroke-linejoin:round; stroke-width:2; stroke-opacity:1; fill:none" stroke-dasharray="8, 5" points="1884.12,1342.53 1884.12,191.164 "/>
<polyline clip-path="url(#clip852)" style="stroke:#ff0000; stroke-linecap:round; stroke-linejoin:round; stroke-width:8; stroke-opacity:1; fill:none" points="614.791,1215 1122.83,824.444 "/>
<circle clip-path="url(#clip852)" cx="614.791" cy="1215" r="7.2" fill="#ff0000" fill-rule="evenodd" fill-opacity="1" stroke="none"/>
<circle clip-path="url(#clip852)" cx="1122.83" cy="824.444" r="7.2" fill="#ff0000" fill-rule="evenodd" fill-opacity="1" stroke="none"/>
<polyline clip-path="url(#clip852)" style="stroke:#000000; stroke-linecap:round; stroke-linejoin:round; stroke-width:2; stroke-opacity:1; fill:none" stroke-dasharray="8, 5" points="614.791,1342.53 614.791,191.164 "/>
<polyline clip-path="url(#clip852)" style="stroke:#ff0000; stroke-linecap:round; stroke-linejoin:round; stroke-width:8; stroke-opacity:1; fill:none" points="1122.83,775.797 1069.01,824.444 "/>
<circle clip-path="url(#clip852)" cx="1122.83" cy="775.797" r="7.2" fill="#ff0000" fill-rule="evenodd" fill-opacity="1" stroke="none"/>
<circle clip-path="url(#clip852)" cx="1069.01" cy="824.444" r="7.2" fill="#ff0000" fill-rule="evenodd" fill-opacity="1" stroke="none"/>
<polyline clip-path="url(#clip852)" style="stroke:#000000; stroke-linecap:round; stroke-linejoin:round; stroke-width:2; stroke-opacity:1; fill:none" stroke-dasharray="8, 5" points="1122.83,1342.53 1122.83,191.164 "/>
<path clip-path="url(#clip850)" d="M1953.71 165.233 Q1953.71 167.528 1952.27 168.84 Q1950.84 170.11 1949.2 170.11 Q1947.64 170.11 1946.82 169.209 Q1946 168.307 1946 167.159 Q1946 165.601 1947.15 164.249 Q1948.3 162.896 1950.02 162.609 Q1948.34 161.544 1945.84 161.544 Q1944.2 161.544 1942.76 162.404 Q1941.37 163.265 1940.51 164.372 Q1939.69 165.479 1938.95 167.077 Q1938.25 168.635 1937.97 169.577 Q1937.72 170.479 1937.52 171.463 L1934.65 182.94 Q1933.25 188.392 1933.25 190.318 Q1933.25 192.695 1934.4 194.294 Q1935.55 195.852 1937.84 195.852 Q1938.75 195.852 1939.77 195.606 Q1940.8 195.319 1942.11 194.581 Q1943.46 193.802 1944.65 192.654 Q1945.88 191.466 1947.07 189.457 Q1948.26 187.449 1949.03 184.866 Q1949.28 183.965 1950.1 183.965 Q1951.12 183.965 1951.12 184.784 Q1951.12 185.481 1950.55 186.957 Q1950.02 188.392 1948.83 190.277 Q1947.68 192.122 1946.16 193.802 Q1944.65 195.442 1942.39 196.589 Q1940.14 197.737 1937.68 197.737 Q1934.16 197.737 1931.82 195.852 Q1929.48 193.966 1928.62 191.343 Q1928.42 191.712 1928.13 192.204 Q1927.84 192.695 1926.98 193.802 Q1926.16 194.868 1925.22 195.688 Q1924.28 196.466 1922.8 197.081 Q1921.37 197.737 1919.81 197.737 Q1917.84 197.737 1916.08 197.163 Q1914.36 196.589 1913.13 195.278 Q1911.9 193.966 1911.9 192.163 Q1911.9 190.154 1913.25 188.76 Q1914.64 187.326 1916.53 187.326 Q1917.72 187.326 1918.66 188.023 Q1919.64 188.719 1919.64 190.236 Q1919.64 191.917 1918.5 193.187 Q1917.35 194.458 1915.71 194.786 Q1917.39 195.852 1919.89 195.852 Q1922.6 195.852 1924.73 193.474 Q1926.86 191.097 1927.88 187.121 Q1930.43 177.57 1931.41 173.307 Q1932.39 169.004 1932.39 167.159 Q1932.39 165.438 1931.94 164.249 Q1931.49 163.06 1930.71 162.527 Q1929.97 161.953 1929.28 161.748 Q1928.62 161.544 1927.88 161.544 Q1926.65 161.544 1925.26 162.035 Q1923.91 162.527 1922.27 163.675 Q1920.67 164.782 1919.15 167.077 Q1917.64 169.372 1916.61 172.529 Q1916.41 173.471 1915.5 173.471 Q1914.52 173.43 1914.52 172.611 Q1914.52 171.914 1915.05 170.479 Q1915.63 169.004 1916.78 167.159 Q1917.96 165.315 1919.48 163.675 Q1921.04 161.994 1923.29 160.847 Q1925.59 159.699 1928.05 159.699 Q1929.15 159.699 1930.22 159.945 Q1931.33 160.15 1932.64 160.765 Q1933.99 161.38 1935.18 162.732 Q1936.37 164.085 1937.11 166.052 Q1937.6 165.11 1938.25 164.208 Q1938.95 163.306 1940.02 162.199 Q1941.12 161.052 1942.64 160.396 Q1944.2 159.699 1945.92 159.699 Q1947.6 159.699 1949.24 160.15 Q1950.88 160.56 1952.27 161.912 Q1953.71 163.224 1953.71 165.233 Z" fill="#000000" fill-rule="nonzero" fill-opacity="1" /><path clip-path="url(#clip850)" d="M1962.26 202.196 Q1962.26 193.559 1964.44 188.854 Q1967.49 181.853 1974.66 181.853 Q1976.18 181.853 1977.76 182.283 Q1979.36 182.685 1981.37 184.263 Q1983.41 185.841 1984.64 188.423 Q1987 193.416 1987 202.196 Q1987 210.775 1984.82 215.452 Q1981.63 222.28 1974.6 222.28 Q1971.96 222.28 1969.27 220.932 Q1966.6 219.583 1964.9 216.341 Q1962.26 211.492 1962.26 202.196 M1967.14 201.478 Q1967.14 210.344 1967.77 213.874 Q1968.49 217.69 1970.44 219.354 Q1972.42 220.989 1974.6 220.989 Q1976.95 220.989 1978.91 219.239 Q1980.89 217.46 1981.49 213.644 Q1982.15 209.885 1982.12 201.478 Q1982.12 193.301 1981.55 190.03 Q1980.77 186.214 1978.7 184.693 Q1976.67 183.144 1974.6 183.144 Q1973.83 183.144 1973 183.373 Q1972.19 183.603 1971.02 184.263 Q1969.84 184.923 1968.92 186.558 Q1968.03 188.194 1967.6 190.661 Q1967.14 193.846 1967.14 201.478 Z" fill="#000000" fill-rule="nonzero" fill-opacity="1" /><path clip-path="url(#clip850)" d="M540.394 165.872 Q540.394 168.168 538.959 169.479 Q537.524 170.75 535.885 170.75 Q534.327 170.75 533.507 169.848 Q532.688 168.947 532.688 167.799 Q532.688 166.241 533.835 164.889 Q534.983 163.536 536.705 163.249 Q535.024 162.183 532.524 162.183 Q530.884 162.183 529.449 163.044 Q528.056 163.905 527.195 165.012 Q526.375 166.118 525.637 167.717 Q524.941 169.275 524.654 170.217 Q524.408 171.119 524.203 172.103 L521.334 183.58 Q519.94 189.031 519.94 190.958 Q519.94 193.335 521.088 194.934 Q522.235 196.491 524.531 196.491 Q525.432 196.491 526.457 196.245 Q527.482 195.959 528.794 195.221 Q530.146 194.442 531.335 193.294 Q532.565 192.106 533.753 190.097 Q534.942 188.089 535.721 185.506 Q535.967 184.605 536.787 184.605 Q537.811 184.605 537.811 185.424 Q537.811 186.121 537.237 187.597 Q536.705 189.031 535.516 190.917 Q534.368 192.761 532.852 194.442 Q531.335 196.082 529.081 197.229 Q526.826 198.377 524.367 198.377 Q520.842 198.377 518.505 196.491 Q516.169 194.606 515.308 191.983 Q515.103 192.351 514.816 192.843 Q514.529 193.335 513.669 194.442 Q512.849 195.508 511.906 196.327 Q510.963 197.106 509.488 197.721 Q508.053 198.377 506.495 198.377 Q504.528 198.377 502.765 197.803 Q501.044 197.229 499.814 195.918 Q498.585 194.606 498.585 192.802 Q498.585 190.794 499.937 189.4 Q501.331 187.966 503.216 187.966 Q504.405 187.966 505.348 188.662 Q506.331 189.359 506.331 190.876 Q506.331 192.556 505.184 193.827 Q504.036 195.098 502.397 195.426 Q504.077 196.491 506.577 196.491 Q509.283 196.491 511.414 194.114 Q513.546 191.737 514.57 187.761 Q517.112 178.21 518.095 173.947 Q519.079 169.643 519.079 167.799 Q519.079 166.077 518.628 164.889 Q518.177 163.7 517.399 163.167 Q516.661 162.593 515.964 162.388 Q515.308 162.183 514.57 162.183 Q513.341 162.183 511.947 162.675 Q510.594 163.167 508.955 164.315 Q507.356 165.422 505.84 167.717 Q504.323 170.012 503.298 173.169 Q503.093 174.111 502.192 174.111 Q501.208 174.07 501.208 173.25 Q501.208 172.554 501.741 171.119 Q502.315 169.643 503.462 167.799 Q504.651 165.954 506.168 164.315 Q507.725 162.634 509.98 161.487 Q512.275 160.339 514.734 160.339 Q515.841 160.339 516.907 160.585 Q518.013 160.79 519.325 161.405 Q520.678 162.019 521.866 163.372 Q523.055 164.725 523.793 166.692 Q524.285 165.749 524.941 164.848 Q525.637 163.946 526.703 162.839 Q527.81 161.692 529.326 161.036 Q530.884 160.339 532.606 160.339 Q534.286 160.339 535.926 160.79 Q537.565 161.2 538.959 162.552 Q540.394 163.864 540.394 165.872 Z" fill="#000000" fill-rule="nonzero" fill-opacity="1" /><path clip-path="url(#clip850)" d="M548.951 188.088 L548.951 186.251 Q556.009 186.251 559.653 182.493 Q560.657 182.493 560.829 182.722 Q561.002 182.952 561.002 184.013 L561.002 216.981 Q561.002 218.731 561.862 219.276 Q562.723 219.822 566.482 219.822 L568.347 219.822 L568.347 221.629 Q566.281 221.457 558.821 221.457 Q551.361 221.457 549.324 221.629 L549.324 219.822 L551.189 219.822 Q554.89 219.822 555.78 219.305 Q556.669 218.76 556.669 216.981 L556.669 186.538 Q553.599 188.088 548.951 188.088 Z" fill="#000000" fill-rule="nonzero" fill-opacity="1" /><path clip-path="url(#clip850)" d="M1192.42 165.872 Q1192.42 168.168 1190.99 169.479 Q1189.55 170.75 1187.91 170.75 Q1186.36 170.75 1185.54 169.848 Q1184.72 168.947 1184.72 167.799 Q1184.72 166.241 1185.86 164.889 Q1187.01 163.536 1188.73 163.249 Q1187.05 162.183 1184.55 162.183 Q1182.91 162.183 1181.48 163.044 Q1180.08 163.905 1179.22 165.012 Q1178.4 166.118 1177.67 167.717 Q1176.97 169.275 1176.68 170.217 Q1176.44 171.119 1176.23 172.103 L1173.36 183.58 Q1171.97 189.031 1171.97 190.958 Q1171.97 193.335 1173.12 194.934 Q1174.26 196.491 1176.56 196.491 Q1177.46 196.491 1178.49 196.245 Q1179.51 195.959 1180.82 195.221 Q1182.17 194.442 1183.36 193.294 Q1184.59 192.106 1185.78 190.097 Q1186.97 188.089 1187.75 185.506 Q1188 184.605 1188.82 184.605 Q1189.84 184.605 1189.84 185.424 Q1189.84 186.121 1189.27 187.597 Q1188.73 189.031 1187.54 190.917 Q1186.4 192.761 1184.88 194.442 Q1183.36 196.082 1181.11 197.229 Q1178.85 198.377 1176.4 198.377 Q1172.87 198.377 1170.53 196.491 Q1168.2 194.606 1167.34 191.983 Q1167.13 192.351 1166.84 192.843 Q1166.56 193.335 1165.7 194.442 Q1164.88 195.508 1163.93 196.327 Q1162.99 197.106 1161.52 197.721 Q1160.08 198.377 1158.52 198.377 Q1156.56 198.377 1154.79 197.803 Q1153.07 197.229 1151.84 195.918 Q1150.61 194.606 1150.61 192.802 Q1150.61 190.794 1151.97 189.4 Q1153.36 187.966 1155.24 187.966 Q1156.43 187.966 1157.38 188.662 Q1158.36 189.359 1158.36 190.876 Q1158.36 192.556 1157.21 193.827 Q1156.06 195.098 1154.43 195.426 Q1156.11 196.491 1158.61 196.491 Q1161.31 196.491 1163.44 194.114 Q1165.57 191.737 1166.6 187.761 Q1169.14 178.21 1170.12 173.947 Q1171.11 169.643 1171.11 167.799 Q1171.11 166.077 1170.66 164.889 Q1170.21 163.7 1169.43 163.167 Q1168.69 162.593 1167.99 162.388 Q1167.34 162.183 1166.6 162.183 Q1165.37 162.183 1163.98 162.675 Q1162.62 163.167 1160.98 164.315 Q1159.38 165.422 1157.87 167.717 Q1156.35 170.012 1155.33 173.169 Q1155.12 174.111 1154.22 174.111 Q1153.24 174.07 1153.24 173.25 Q1153.24 172.554 1153.77 171.119 Q1154.34 169.643 1155.49 167.799 Q1156.68 165.954 1158.2 164.315 Q1159.75 162.634 1162.01 161.487 Q1164.3 160.339 1166.76 160.339 Q1167.87 160.339 1168.94 160.585 Q1170.04 160.79 1171.35 161.405 Q1172.71 162.019 1173.89 163.372 Q1175.08 164.725 1175.82 166.692 Q1176.31 165.749 1176.97 164.848 Q1177.67 163.946 1178.73 162.839 Q1179.84 161.692 1181.36 161.036 Q1182.91 160.339 1184.63 160.339 Q1186.31 160.339 1187.95 160.79 Q1189.59 161.2 1190.99 162.552 Q1192.42 163.864 1192.42 165.872 Z" fill="#000000" fill-rule="nonzero" fill-opacity="1" /><path clip-path="url(#clip850)" d="M1200.98 221.629 Q1200.98 220.568 1201.07 220.252 Q1201.18 219.936 1201.64 219.449 L1212.92 206.881 Q1219.08 199.938 1219.08 193.884 Q1219.08 189.953 1217.02 187.141 Q1214.98 184.329 1211.22 184.329 Q1208.64 184.329 1206.46 185.907 Q1204.28 187.485 1203.27 190.297 Q1203.45 190.24 1204.05 190.24 Q1205.51 190.24 1206.32 191.158 Q1207.15 192.076 1207.15 193.31 Q1207.15 194.888 1206.12 195.662 Q1205.11 196.408 1204.11 196.408 Q1203.71 196.408 1203.16 196.322 Q1202.64 196.236 1201.81 195.433 Q1200.98 194.601 1200.98 193.138 Q1200.98 189.034 1204.08 185.764 Q1207.21 182.493 1211.97 182.493 Q1217.36 182.493 1220.89 185.706 Q1224.45 188.891 1224.45 193.884 Q1224.45 195.634 1223.9 197.241 Q1223.39 198.819 1222.67 200.052 Q1221.98 201.286 1220.09 203.266 Q1218.19 205.246 1216.67 206.652 Q1215.15 208.058 1211.74 211.042 L1205.51 217.096 L1216.1 217.096 Q1221.26 217.096 1221.67 216.637 Q1222.24 215.805 1222.96 211.415 L1224.45 211.415 L1222.79 221.629 L1200.98 221.629 Z" fill="#000000" fill-rule="nonzero" fill-opacity="1" /></svg>
