<?xml version="1.0" encoding="utf-8"?>
<svg xmlns="http://www.w3.org/2000/svg" xmlns:xlink="http://www.w3.org/1999/xlink" width="600" height="400" viewBox="0 0 2400 1600">
<defs>
  <clipPath id="clip750">
    <rect x="0" y="0" width="2400" height="1600"/>
  </clipPath>
</defs>
<path clip-path="url(#clip750)" d="M0 1600 L2400 1600 L2400 0 L0 0  Z" fill="#ffffff" fill-rule="evenodd" fill-opacity="1"/>
<defs>
  <clipPath id="clip751">
    <rect x="480" y="0" width="1681" height="1600"/>
  </clipPath>
</defs>
<path clip-path="url(#clip750)" d="M193.936 1486.45 L2352.76 1486.45 L2352.76 47.2441 L193.936 47.2441  Z" fill="#ffffff" fill-rule="evenodd" fill-opacity="1"/>
<defs>
  <clipPath id="clip752">
    <rect x="193" y="47" width="2160" height="1440"/>
  </clipPath>
</defs>
<polyline clip-path="url(#clip752)" style="stroke:#000000; stroke-linecap:round; stroke-linejoin:round; stroke-width:2; stroke-opacity:0.1; fill:none" points="463.919,1486.45 463.919,47.2441 "/>
<polyline clip-path="url(#clip752)" style="stroke:#000000; stroke-linecap:round; stroke-linejoin:round; stroke-width:2; stroke-opacity:0.1; fill:none" points="986.13,1486.45 986.13,47.2441 "/>
<polyline clip-path="url(#clip752)" style="stroke:#000000; stroke-linecap:round; stroke-linejoin:round; stroke-width:2; stroke-opacity:0.1; fill:none" points="1508.34,1486.45 1508.34,47.2441 "/>
<polyline clip-path="url(#clip752)" style="stroke:#000000; stroke-linecap:round; stroke-linejoin:round; stroke-width:2; stroke-opacity:0.1; fill:none" points="2030.55,1486.45 2030.55,47.2441 "/>
<polyline clip-path="url(#clip750)" style="stroke:#000000; stroke-linecap:round; stroke-linejoin:round; stroke-width:4; stroke-opacity:1; fill:none" points="193.936,1486.45 2352.76,1486.45 "/>
<polyline clip-path="url(#clip750)" style="stroke:#000000; stroke-linecap:round; stroke-linejoin:round; stroke-width:2; stroke-opacity:0.5; fill:none" points="193.936,47.2441 2352.76,47.2441 "/>
<polyline clip-path="url(#clip750)" style="stroke:#000000; stroke-linecap:round; stroke-linejoin:round; stroke-width:4; stroke-opacity:1; fill:none" points="463.919,1486.45 463.919,1467.55 "/>
<polyline clip-path="url(#clip750)" style="stroke:#000000; stroke-linecap:round; stroke-linejoin:round; stroke-width:4; stroke-opacity:1; fill:none" points="986.13,1486.45 986.13,1467.55 "/>
<polyline clip-path="url(#clip750)" style="stroke:#000000; stroke-linecap:round; stroke-linejoin:round; stroke-width:4; stroke-opacity:1; fill:none" points="1508.34,1486.45 1508.34,1467.55 "/>
<polyline clip-path="url(#clip750)" style="stroke:#000000; stroke-linecap:round; stroke-linejoin:round; stroke-width:4; stroke-opacity:1; fill:none" points="2030.55,1486.45 2030.55,1467.55 "/>
<path clip-path="url(#clip750)" d="M463.919 1517.37 Q460.308 1517.37 458.479 1520.93 Q456.674 1524.47 456.674 1531.6 Q456.674 1538.71 458.479 1542.27 Q460.308 1545.82 463.919 1545.82 Q467.553 1545.82 469.359 1542.27 Q471.188 1538.71 471.188 1531.6 Q471.188 1524.47 469.359 1520.93 Q467.553 1517.37 463.919 1517.37 M463.919 1513.66 Q469.729 1513.66 472.785 1518.27 Q475.863 1522.85 475.863 1531.6 Q475.863 1540.33 472.785 1544.94 Q469.729 1549.52 463.919 1549.52 Q458.109 1549.52 455.03 1544.94 Q451.975 1540.33 451.975 1531.6 Q451.975 1522.85 455.03 1518.27 Q458.109 1513.66 463.919 1513.66 Z" fill="#000000" fill-rule="nonzero" fill-opacity="1" /><path clip-path="url(#clip750)" d="M980.783 1544.91 L997.102 1544.91 L997.102 1548.85 L975.158 1548.85 L975.158 1544.91 Q977.82 1542.16 982.403 1537.53 Q987.01 1532.88 988.19 1531.53 Q990.435 1529.01 991.315 1527.27 Q992.218 1525.51 992.218 1523.82 Q992.218 1521.07 990.273 1519.33 Q988.352 1517.6 985.25 1517.6 Q983.051 1517.6 980.598 1518.36 Q978.167 1519.13 975.389 1520.68 L975.389 1515.95 Q978.213 1514.82 980.667 1514.24 Q983.121 1513.66 985.158 1513.66 Q990.528 1513.66 993.723 1516.35 Q996.917 1519.03 996.917 1523.52 Q996.917 1525.65 996.107 1527.57 Q995.32 1529.47 993.213 1532.07 Q992.635 1532.74 989.533 1535.95 Q986.431 1539.15 980.783 1544.91 Z" fill="#000000" fill-rule="nonzero" fill-opacity="1" /><path clip-path="url(#clip750)" d="M1511.35 1518.36 L1499.54 1536.81 L1511.35 1536.81 L1511.35 1518.36 M1510.12 1514.29 L1516 1514.29 L1516 1536.81 L1520.93 1536.81 L1520.93 1540.7 L1516 1540.7 L1516 1548.85 L1511.35 1548.85 L1511.35 1540.7 L1495.75 1540.7 L1495.75 1536.19 L1510.12 1514.29 Z" fill="#000000" fill-rule="nonzero" fill-opacity="1" /><path clip-path="url(#clip750)" d="M2030.96 1529.7 Q2027.81 1529.7 2025.96 1531.86 Q2024.13 1534.01 2024.13 1537.76 Q2024.13 1541.49 2025.96 1543.66 Q2027.81 1545.82 2030.96 1545.82 Q2034.1 1545.82 2035.93 1543.66 Q2037.79 1541.49 2037.79 1537.76 Q2037.79 1534.01 2035.93 1531.86 Q2034.1 1529.7 2030.96 1529.7 M2040.24 1515.05 L2040.24 1519.31 Q2038.48 1518.48 2036.67 1518.04 Q2034.89 1517.6 2033.13 1517.6 Q2028.5 1517.6 2026.05 1520.72 Q2023.62 1523.85 2023.27 1530.17 Q2024.64 1528.15 2026.7 1527.09 Q2028.76 1526 2031.23 1526 Q2036.44 1526 2039.45 1529.17 Q2042.48 1532.32 2042.48 1537.76 Q2042.48 1543.08 2039.34 1546.3 Q2036.19 1549.52 2030.96 1549.52 Q2024.96 1549.52 2021.79 1544.94 Q2018.62 1540.33 2018.62 1531.6 Q2018.62 1523.41 2022.51 1518.55 Q2026.4 1513.66 2032.95 1513.66 Q2034.71 1513.66 2036.49 1514.01 Q2038.29 1514.36 2040.24 1515.05 Z" fill="#000000" fill-rule="nonzero" fill-opacity="1" /><polyline clip-path="url(#clip752)" style="stroke:#000000; stroke-linecap:round; stroke-linejoin:round; stroke-width:2; stroke-opacity:0.1; fill:none" points="193.936,1366.51 2352.76,1366.51 "/>
<polyline clip-path="url(#clip752)" style="stroke:#000000; stroke-linecap:round; stroke-linejoin:round; stroke-width:2; stroke-opacity:0.1; fill:none" points="193.936,1066.68 2352.76,1066.68 "/>
<polyline clip-path="url(#clip752)" style="stroke:#000000; stroke-linecap:round; stroke-linejoin:round; stroke-width:2; stroke-opacity:0.1; fill:none" points="193.936,766.846 2352.76,766.846 "/>
<polyline clip-path="url(#clip752)" style="stroke:#000000; stroke-linecap:round; stroke-linejoin:round; stroke-width:2; stroke-opacity:0.1; fill:none" points="193.936,467.012 2352.76,467.012 "/>
<polyline clip-path="url(#clip752)" style="stroke:#000000; stroke-linecap:round; stroke-linejoin:round; stroke-width:2; stroke-opacity:0.1; fill:none" points="193.936,167.178 2352.76,167.178 "/>
<polyline clip-path="url(#clip750)" style="stroke:#000000; stroke-linecap:round; stroke-linejoin:round; stroke-width:4; stroke-opacity:1; fill:none" points="193.936,1486.45 193.936,47.2441 "/>
<polyline clip-path="url(#clip750)" style="stroke:#000000; stroke-linecap:round; stroke-linejoin:round; stroke-width:2; stroke-opacity:0.5; fill:none" points="2352.76,1486.45 2352.76,47.2441 "/>
<polyline clip-path="url(#clip750)" style="stroke:#000000; stroke-linecap:round; stroke-linejoin:round; stroke-width:4; stroke-opacity:1; fill:none" points="193.936,1366.51 212.834,1366.51 "/>
<polyline clip-path="url(#clip750)" style="stroke:#000000; stroke-linecap:round; stroke-linejoin:round; stroke-width:4; stroke-opacity:1; fill:none" points="193.936,1066.68 212.834,1066.68 "/>
<polyline clip-path="url(#clip750)" style="stroke:#000000; stroke-linecap:round; stroke-linejoin:round; stroke-width:4; stroke-opacity:1; fill:none" points="193.936,766.846 212.834,766.846 "/>
<polyline clip-path="url(#clip750)" style="stroke:#000000; stroke-linecap:round; stroke-linejoin:round; stroke-width:4; stroke-opacity:1; fill:none" points="193.936,467.012 212.834,467.012 "/>
<polyline clip-path="url(#clip750)" style="stroke:#000000; stroke-linecap:round; stroke-linejoin:round; stroke-width:4; stroke-opacity:1; fill:none" points="193.936,167.178 212.834,167.178 "/>
<path clip-path="url(#clip750)" d="M51.9875 1366.97 L81.6633 1366.97 L81.6633 1370.9 L51.9875 1370.9 L51.9875 1366.97 Z" fill="#000000" fill-rule="nonzero" fill-opacity="1" /><path clip-path="url(#clip750)" d="M92.566 1379.86 L100.205 1379.86 L100.205 1353.49 L91.8947 1355.16 L91.8947 1350.9 L100.159 1349.23 L104.834 1349.23 L104.834 1379.86 L112.473 1379.86 L112.473 1383.79 L92.566 1383.79 L92.566 1379.86 Z" fill="#000000" fill-rule="nonzero" fill-opacity="1" /><path clip-path="url(#clip750)" d="M121.918 1377.91 L126.802 1377.91 L126.802 1383.79 L121.918 1383.79 L121.918 1377.91 Z" fill="#000000" fill-rule="nonzero" fill-opacity="1" /><path clip-path="url(#clip750)" d="M137.033 1349.23 L155.39 1349.23 L155.39 1353.17 L141.316 1353.17 L141.316 1361.64 Q142.334 1361.29 143.353 1361.13 Q144.371 1360.95 145.39 1360.95 Q151.177 1360.95 154.556 1364.12 Q157.936 1367.29 157.936 1372.71 Q157.936 1378.28 154.464 1381.39 Q150.992 1384.47 144.672 1384.47 Q142.496 1384.47 140.228 1384.1 Q137.982 1383.72 135.575 1382.98 L135.575 1378.28 Q137.658 1379.42 139.881 1379.97 Q142.103 1380.53 144.58 1380.53 Q148.584 1380.53 150.922 1378.42 Q153.26 1376.32 153.26 1372.71 Q153.26 1369.1 150.922 1366.99 Q148.584 1364.88 144.58 1364.88 Q142.705 1364.88 140.83 1365.3 Q138.978 1365.72 137.033 1366.6 L137.033 1349.23 Z" fill="#000000" fill-rule="nonzero" fill-opacity="1" /><path clip-path="url(#clip750)" d="M50.9921 1067.13 L80.6679 1067.13 L80.6679 1071.07 L50.9921 1071.07 L50.9921 1067.13 Z" fill="#000000" fill-rule="nonzero" fill-opacity="1" /><path clip-path="url(#clip750)" d="M91.5706 1080.02 L99.2095 1080.02 L99.2095 1053.66 L90.8993 1055.33 L90.8993 1051.07 L99.1632 1049.4 L103.839 1049.4 L103.839 1080.02 L111.478 1080.02 L111.478 1083.96 L91.5706 1083.96 L91.5706 1080.02 Z" fill="#000000" fill-rule="nonzero" fill-opacity="1" /><path clip-path="url(#clip750)" d="M120.922 1078.08 L125.807 1078.08 L125.807 1083.96 L120.922 1083.96 L120.922 1078.08 Z" fill="#000000" fill-rule="nonzero" fill-opacity="1" /><path clip-path="url(#clip750)" d="M145.992 1052.48 Q142.381 1052.48 140.552 1056.04 Q138.746 1059.59 138.746 1066.71 Q138.746 1073.82 140.552 1077.39 Q142.381 1080.93 145.992 1080.93 Q149.626 1080.93 151.431 1077.39 Q153.26 1073.82 153.26 1066.71 Q153.26 1059.59 151.431 1056.04 Q149.626 1052.48 145.992 1052.48 M145.992 1048.78 Q151.802 1048.78 154.857 1053.38 Q157.936 1057.96 157.936 1066.71 Q157.936 1075.44 154.857 1080.05 Q151.802 1084.63 145.992 1084.63 Q140.181 1084.63 137.103 1080.05 Q134.047 1075.44 134.047 1066.71 Q134.047 1057.96 137.103 1053.38 Q140.181 1048.78 145.992 1048.78 Z" fill="#000000" fill-rule="nonzero" fill-opacity="1" /><path clip-path="url(#clip750)" d="M51.9875 767.297 L81.6633 767.297 L81.6633 771.233 L51.9875 771.233 L51.9875 767.297 Z" fill="#000000" fill-rule="nonzero" fill-opacity="1" /><path clip-path="url(#clip750)" d="M101.756 752.645 Q98.1447 752.645 96.316 756.209 Q94.5104 759.751 94.5104 766.881 Q94.5104 773.987 96.316 777.552 Q98.1447 781.094 101.756 781.094 Q105.39 781.094 107.196 777.552 Q109.024 773.987 109.024 766.881 Q109.024 759.751 107.196 756.209 Q105.39 752.645 101.756 752.645 M101.756 748.941 Q107.566 748.941 110.621 753.547 Q113.7 758.131 113.7 766.881 Q113.7 775.608 110.621 780.214 Q107.566 784.797 101.756 784.797 Q95.9456 784.797 92.8669 780.214 Q89.8114 775.608 89.8114 766.881 Q89.8114 758.131 92.8669 753.547 Q95.9456 748.941 101.756 748.941 Z" fill="#000000" fill-rule="nonzero" fill-opacity="1" /><path clip-path="url(#clip750)" d="M121.918 778.246 L126.802 778.246 L126.802 784.126 L121.918 784.126 L121.918 778.246 Z" fill="#000000" fill-rule="nonzero" fill-opacity="1" /><path clip-path="url(#clip750)" d="M137.033 749.566 L155.39 749.566 L155.39 753.501 L141.316 753.501 L141.316 761.973 Q142.334 761.626 143.353 761.464 Q144.371 761.279 145.39 761.279 Q151.177 761.279 154.556 764.45 Q157.936 767.621 157.936 773.038 Q157.936 778.617 154.464 781.719 Q150.992 784.797 144.672 784.797 Q142.496 784.797 140.228 784.427 Q137.982 784.057 135.575 783.316 L135.575 778.617 Q137.658 779.751 139.881 780.307 Q142.103 780.862 144.58 780.862 Q148.584 780.862 150.922 778.756 Q153.26 776.649 153.26 773.038 Q153.26 769.427 150.922 767.321 Q148.584 765.214 144.58 765.214 Q142.705 765.214 140.83 765.631 Q138.978 766.047 137.033 766.927 L137.033 749.566 Z" fill="#000000" fill-rule="nonzero" fill-opacity="1" /><path clip-path="url(#clip750)" d="M100.76 452.811 Q97.1493 452.811 95.3206 456.375 Q93.515 459.917 93.515 467.047 Q93.515 474.153 95.3206 477.718 Q97.1493 481.259 100.76 481.259 Q104.395 481.259 106.2 477.718 Q108.029 474.153 108.029 467.047 Q108.029 459.917 106.2 456.375 Q104.395 452.811 100.76 452.811 M100.76 449.107 Q106.571 449.107 109.626 453.713 Q112.705 458.297 112.705 467.047 Q112.705 475.773 109.626 480.38 Q106.571 484.963 100.76 484.963 Q94.9502 484.963 91.8715 480.38 Q88.816 475.773 88.816 467.047 Q88.816 458.297 91.8715 453.713 Q94.9502 449.107 100.76 449.107 Z" fill="#000000" fill-rule="nonzero" fill-opacity="1" /><path clip-path="url(#clip750)" d="M120.922 478.412 L125.807 478.412 L125.807 484.292 L120.922 484.292 L120.922 478.412 Z" fill="#000000" fill-rule="nonzero" fill-opacity="1" /><path clip-path="url(#clip750)" d="M145.992 452.811 Q142.381 452.811 140.552 456.375 Q138.746 459.917 138.746 467.047 Q138.746 474.153 140.552 477.718 Q142.381 481.259 145.992 481.259 Q149.626 481.259 151.431 477.718 Q153.26 474.153 153.26 467.047 Q153.26 459.917 151.431 456.375 Q149.626 452.811 145.992 452.811 M145.992 449.107 Q151.802 449.107 154.857 453.713 Q157.936 458.297 157.936 467.047 Q157.936 475.773 154.857 480.38 Q151.802 484.963 145.992 484.963 Q140.181 484.963 137.103 480.38 Q134.047 475.773 134.047 467.047 Q134.047 458.297 137.103 453.713 Q140.181 449.107 145.992 449.107 Z" fill="#000000" fill-rule="nonzero" fill-opacity="1" /><path clip-path="url(#clip750)" d="M101.756 152.976 Q98.1447 152.976 96.316 156.541 Q94.5104 160.083 94.5104 167.212 Q94.5104 174.319 96.316 177.884 Q98.1447 181.425 101.756 181.425 Q105.39 181.425 107.196 177.884 Q109.024 174.319 109.024 167.212 Q109.024 160.083 107.196 156.541 Q105.39 152.976 101.756 152.976 M101.756 149.273 Q107.566 149.273 110.621 153.879 Q113.7 158.463 113.7 167.212 Q113.7 175.939 110.621 180.546 Q107.566 185.129 101.756 185.129 Q95.9456 185.129 92.8669 180.546 Q89.8114 175.939 89.8114 167.212 Q89.8114 158.463 92.8669 153.879 Q95.9456 149.273 101.756 149.273 Z" fill="#000000" fill-rule="nonzero" fill-opacity="1" /><path clip-path="url(#clip750)" d="M121.918 178.578 L126.802 178.578 L126.802 184.458 L121.918 184.458 L121.918 178.578 Z" fill="#000000" fill-rule="nonzero" fill-opacity="1" /><path clip-path="url(#clip750)" d="M137.033 149.898 L155.39 149.898 L155.39 153.833 L141.316 153.833 L141.316 162.305 Q142.334 161.958 143.353 161.796 Q144.371 161.611 145.39 161.611 Q151.177 161.611 154.556 164.782 Q157.936 167.953 157.936 173.37 Q157.936 178.949 154.464 182.05 Q150.992 185.129 144.672 185.129 Q142.496 185.129 140.228 184.759 Q137.982 184.388 135.575 183.648 L135.575 178.949 Q137.658 180.083 139.881 180.638 Q142.103 181.194 144.58 181.194 Q148.584 181.194 150.922 179.087 Q153.26 176.981 153.26 173.37 Q153.26 169.759 150.922 167.652 Q148.584 165.546 144.58 165.546 Q142.705 165.546 140.83 165.962 Q138.978 166.379 137.033 167.259 L137.033 149.898 Z" fill="#000000" fill-rule="nonzero" fill-opacity="1" /><polyline clip-path="url(#clip752)" style="stroke:#000000; stroke-linecap:round; stroke-linejoin:round; stroke-width:4; stroke-opacity:1; fill:none" stroke-dasharray="16, 10" points="255.035,467.012 2291.66,467.012 "/>
<polyline clip-path="url(#clip752)" style="stroke:#0000ff; stroke-linecap:round; stroke-linejoin:round; stroke-width:4; stroke-opacity:1; fill:none" points="255.035,1534.68 275.607,1356.61 296.179,1199.39 316.751,1060.89 337.322,939.166 357.894,832.482 378.466,739.253 399.038,658.053 419.61,587.594 440.182,526.715 460.754,474.369 481.326,429.612 501.898,391.595 522.47,359.553 543.042,332.799 563.614,310.716 584.186,292.75 604.758,278.403 625.33,267.231 645.902,258.834 666.474,252.856 687.046,248.979 707.617,246.919 728.189,246.422 748.761,247.264 769.333,249.245 789.905,252.187 810.477,255.933 831.049,260.345 851.621,265.3 872.193,270.69 892.765,276.422 913.337,282.412 933.909,288.588 954.481,294.888 975.053,301.257 995.625,307.65 1016.2,314.025 1036.77,320.349 1057.34,326.593 1077.91,332.733 1098.48,338.748 1119.06,344.623 1139.63,350.343 1160.2,355.9 1180.77,361.284 1201.34,366.49 1221.92,371.514 1242.49,376.354 1263.06,381.009 1283.63,385.478 1304.2,389.765 1324.78,393.869 1345.35,397.795 1365.92,401.546 1386.49,405.126 1407.06,408.54 1427.64,411.791 1448.21,414.885 1468.78,417.828 1489.35,420.623 1509.92,423.278 1530.5,425.796 1551.07,428.184 1571.64,430.447 1592.21,432.59 1612.78,434.618 1633.35,436.536 1653.93,438.349 1674.5,440.063 1695.07,441.681 1715.64,443.209 1736.21,444.651 1756.79,446.011 1777.36,447.293 1797.93,448.502 1818.5,449.641 1839.07,450.713 1859.65,451.722 1880.22,452.672 1900.79,453.566 1921.36,454.407 1941.93,455.198 1962.51,455.941 1983.08,456.639 2003.65,457.295 2024.22,457.911 2044.79,458.49 2065.37,459.033 2085.94,459.543 2106.51,460.021 2127.08,460.47 2147.65,460.891 2168.23,461.285 2188.8,461.655 2209.37,462.002 2229.94,462.327 2250.51,462.632 2271.09,462.917 2291.66,463.184 "/>
<polyline clip-path="url(#clip752)" style="stroke:#ff0000; stroke-linecap:round; stroke-linejoin:round; stroke-width:8; stroke-opacity:1; fill:none" points="594.472,285.153 333.366,467.012 "/>
<circle clip-path="url(#clip752)" cx="594.472" cy="285.153" r="7.2" fill="#ff0000" fill-rule="evenodd" fill-opacity="1" stroke="none"/>
<circle clip-path="url(#clip752)" cx="333.366" cy="467.012" r="7.2" fill="#ff0000" fill-rule="evenodd" fill-opacity="1" stroke="none"/>
<polyline clip-path="url(#clip752)" style="stroke:#000000; stroke-linecap:round; stroke-linejoin:round; stroke-width:2; stroke-opacity:1; fill:none" stroke-dasharray="8, 5" points="594.472,1342.53 594.472,191.164 "/>
<polyline clip-path="url(#clip752)" style="stroke:#ff0000; stroke-linecap:round; stroke-linejoin:round; stroke-width:8; stroke-opacity:1; fill:none" points="333.366,961.355 420.401,467.012 "/>
<circle clip-path="url(#clip752)" cx="333.366" cy="961.355" r="7.2" fill="#ff0000" fill-rule="evenodd" fill-opacity="1" stroke="none"/>
<circle clip-path="url(#clip752)" cx="420.401" cy="467.012" r="7.2" fill="#ff0000" fill-rule="evenodd" fill-opacity="1" stroke="none"/>
<polyline clip-path="url(#clip752)" style="stroke:#000000; stroke-linecap:round; stroke-linejoin:round; stroke-width:2; stroke-opacity:1; fill:none" stroke-dasharray="8, 5" points="333.366,1342.53 333.366,191.164 "/>
<polyline clip-path="url(#clip752)" style="stroke:#ff0000; stroke-linecap:round; stroke-linejoin:round; stroke-width:8; stroke-opacity:1; fill:none" points="420.401,585.083 457.702,467.012 "/>
<circle clip-path="url(#clip752)" cx="420.401" cy="585.083" r="7.2" fill="#ff0000" fill-rule="evenodd" fill-opacity="1" stroke="none"/>
<circle clip-path="url(#clip752)" cx="457.702" cy="467.012" r="7.2" fill="#ff0000" fill-rule="evenodd" fill-opacity="1" stroke="none"/>
<polyline clip-path="url(#clip752)" style="stroke:#000000; stroke-linecap:round; stroke-linejoin:round; stroke-width:2; stroke-opacity:1; fill:none" stroke-dasharray="8, 5" points="420.401,1342.53 420.401,191.164 "/>
<polyline clip-path="url(#clip752)" style="stroke:#0000ff; stroke-linecap:round; stroke-linejoin:round; stroke-width:4; stroke-opacity:1; fill:none" points="255.035,1534.68 275.607,1356.61 296.179,1199.39 316.751,1060.89 337.322,939.166 357.894,832.482 378.466,739.253 399.038,658.053 419.61,587.594 440.182,526.715 460.754,474.369 481.326,429.612 501.898,391.595 522.47,359.553 543.042,332.799 563.614,310.716 584.186,292.75 604.758,278.403 625.33,267.231 645.902,258.834 666.474,252.856 687.046,248.979 707.617,246.919 728.189,246.422 748.761,247.264 769.333,249.245 789.905,252.187 810.477,255.933 831.049,260.345 851.621,265.3 872.193,270.69 892.765,276.422 913.337,282.412 933.909,288.588 954.481,294.888 975.053,301.257 995.625,307.65 1016.2,314.025 1036.77,320.349 1057.34,326.593 1077.91,332.733 1098.48,338.748 1119.06,344.623 1139.63,350.343 1160.2,355.9 1180.77,361.284 1201.34,366.49 1221.92,371.514 1242.49,376.354 1263.06,381.009 1283.63,385.478 1304.2,389.765 1324.78,393.869 1345.35,397.795 1365.92,401.546 1386.49,405.126 1407.06,408.54 1427.64,411.791 1448.21,414.885 1468.78,417.828 1489.35,420.623 1509.92,423.278 1530.5,425.796 1551.07,428.184 1571.64,430.447 1592.21,432.59 1612.78,434.618 1633.35,436.536 1653.93,438.349 1674.5,440.063 1695.07,441.681 1715.64,443.209 1736.21,444.651 1756.79,446.011 1777.36,447.293 1797.93,448.502 1818.5,449.641 1839.07,450.713 1859.65,451.722 1880.22,452.672 1900.79,453.566 1921.36,454.407 1941.93,455.198 1962.51,455.941 1983.08,456.639 2003.65,457.295 2024.22,457.911 2044.79,458.49 2065.37,459.033 2085.94,459.543 2106.51,460.021 2127.08,460.47 2147.65,460.891 2168.23,461.285 2188.8,461.655 2209.37,462.002 2229.94,462.327 2250.51,462.632 2271.09,462.917 2291.66,463.184 "/>
<polyline clip-path="url(#clip752)" style="stroke:#ff0000; stroke-linecap:round; stroke-linejoin:round; stroke-width:8; stroke-opacity:1; fill:none" points="986.13,304.699 1508.34,467.012 "/>
<circle clip-path="url(#clip752)" cx="986.13" cy="304.699" r="7.2" fill="#ff0000" fill-rule="evenodd" fill-opacity="1" stroke="none"/>
<circle clip-path="url(#clip752)" cx="1508.34" cy="467.012" r="7.2" fill="#ff0000" fill-rule="evenodd" fill-opacity="1" stroke="none"/>
<polyline clip-path="url(#clip752)" style="stroke:#000000; stroke-linecap:round; stroke-linejoin:round; stroke-width:2; stroke-opacity:1; fill:none" stroke-dasharray="8, 5" points="986.13,1342.53 986.13,191.164 "/>
<polyline clip-path="url(#clip752)" style="stroke:#ff0000; stroke-linecap:round; stroke-linejoin:round; stroke-width:8; stroke-opacity:1; fill:none" points="1508.34,423.079 1856.48,467.012 "/>
<circle clip-path="url(#clip752)" cx="1508.34" cy="423.079" r="7.2" fill="#ff0000" fill-rule="evenodd" fill-opacity="1" stroke="none"/>
<circle clip-path="url(#clip752)" cx="1856.48" cy="467.012" r="7.2" fill="#ff0000" fill-rule="evenodd" fill-opacity="1" stroke="none"/>
<polyline clip-path="url(#clip752)" style="stroke:#000000; stroke-linecap:round; stroke-linejoin:round; stroke-width:2; stroke-opacity:1; fill:none" stroke-dasharray="8, 5" points="1508.34,1342.53 1508.34,191.164 "/>
<polyline clip-path="url(#clip752)" style="stroke:#ff0000; stroke-linecap:round; stroke-linejoin:round; stroke-width:8; stroke-opacity:1; fill:none" points="1856.48,451.571 2177.84,467.012 "/>
<circle clip-path="url(#clip752)" cx="1856.48" cy="451.571" r="7.2" fill="#ff0000" fill-rule="evenodd" fill-opacity="1" stroke="none"/>
<circle clip-path="url(#clip752)" cx="2177.84" cy="467.012" r="7.2" fill="#ff0000" fill-rule="evenodd" fill-opacity="1" stroke="none"/>
<polyline clip-path="url(#clip752)" style="stroke:#000000; stroke-linecap:round; stroke-linejoin:round; stroke-width:2; stroke-opacity:1; fill:none" stroke-dasharray="8, 5" points="1856.48,1342.53 1856.48,191.164 "/>
<path clip-path="url(#clip750)" d="M664.029 165.233 Q664.029 167.528 662.594 168.84 Q661.16 170.11 659.52 170.11 Q657.962 170.11 657.143 169.209 Q656.323 168.307 656.323 167.159 Q656.323 165.601 657.47 164.249 Q658.618 162.896 660.34 162.609 Q658.659 161.544 656.159 161.544 Q654.519 161.544 653.085 162.404 Q651.691 163.265 650.83 164.372 Q650.01 165.479 649.273 167.077 Q648.576 168.635 648.289 169.577 Q648.043 170.479 647.838 171.463 L644.969 182.94 Q643.575 188.392 643.575 190.318 Q643.575 192.695 644.723 194.294 Q645.871 195.852 648.166 195.852 Q649.068 195.852 650.092 195.606 Q651.117 195.319 652.429 194.581 Q653.781 193.802 654.97 192.654 Q656.2 191.466 657.388 189.457 Q658.577 187.449 659.356 184.866 Q659.602 183.965 660.422 183.965 Q661.446 183.965 661.446 184.784 Q661.446 185.481 660.873 186.957 Q660.34 188.392 659.151 190.277 Q658.003 192.122 656.487 193.802 Q654.97 195.442 652.716 196.589 Q650.461 197.737 648.002 197.737 Q644.477 197.737 642.14 195.852 Q639.804 193.966 638.943 191.343 Q638.738 191.712 638.451 192.204 Q638.165 192.695 637.304 193.802 Q636.484 194.868 635.541 195.688 Q634.598 196.466 633.123 197.081 Q631.688 197.737 630.131 197.737 Q628.163 197.737 626.401 197.163 Q624.679 196.589 623.449 195.278 Q622.22 193.966 622.22 192.163 Q622.22 190.154 623.572 188.76 Q624.966 187.326 626.851 187.326 Q628.04 187.326 628.983 188.023 Q629.967 188.719 629.967 190.236 Q629.967 191.917 628.819 193.187 Q627.671 194.458 626.032 194.786 Q627.712 195.852 630.213 195.852 Q632.918 195.852 635.049 193.474 Q637.181 191.097 638.206 187.121 Q640.747 177.57 641.731 173.307 Q642.714 169.004 642.714 167.159 Q642.714 165.438 642.263 164.249 Q641.813 163.06 641.034 162.527 Q640.296 161.953 639.599 161.748 Q638.943 161.544 638.206 161.544 Q636.976 161.544 635.582 162.035 Q634.23 162.527 632.59 163.675 Q630.991 164.782 629.475 167.077 Q627.958 169.372 626.933 172.529 Q626.729 173.471 625.827 173.471 Q624.843 173.43 624.843 172.611 Q624.843 171.914 625.376 170.479 Q625.95 169.004 627.097 167.159 Q628.286 165.315 629.803 163.675 Q631.36 161.994 633.615 160.847 Q635.91 159.699 638.369 159.699 Q639.476 159.699 640.542 159.945 Q641.649 160.15 642.96 160.765 Q644.313 161.38 645.502 162.732 Q646.69 164.085 647.428 166.052 Q647.92 165.11 648.576 164.208 Q649.273 163.306 650.338 162.199 Q651.445 161.052 652.962 160.396 Q654.519 159.699 656.241 159.699 Q657.921 159.699 659.561 160.15 Q661.2 160.56 662.594 161.912 Q664.029 163.224 664.029 165.233 Z" fill="#000000" fill-rule="nonzero" fill-opacity="1" /><path clip-path="url(#clip750)" d="M672.586 202.196 Q672.586 193.559 674.767 188.854 Q677.808 181.853 684.981 181.853 Q686.502 181.853 688.08 182.283 Q689.687 182.685 691.695 184.263 Q693.732 185.841 694.966 188.423 Q697.319 193.416 697.319 202.196 Q697.319 210.775 695.138 215.452 Q691.953 222.28 684.924 222.28 Q682.284 222.28 679.587 220.932 Q676.919 219.583 675.226 216.341 Q672.586 211.492 672.586 202.196 M677.464 201.478 Q677.464 210.344 678.095 213.874 Q678.812 217.69 680.763 219.354 Q682.743 220.989 684.924 220.989 Q687.277 220.989 689.228 219.239 Q691.207 217.46 691.81 213.644 Q692.47 209.885 692.441 201.478 Q692.441 193.301 691.867 190.03 Q691.093 186.214 689.027 184.693 Q686.99 183.144 684.924 183.144 Q684.149 183.144 683.317 183.373 Q682.514 183.603 681.337 184.263 Q680.161 184.923 679.243 186.558 Q678.353 188.194 677.923 190.661 Q677.464 193.846 677.464 201.478 Z" fill="#000000" fill-rule="nonzero" fill-opacity="1" /><path clip-path="url(#clip750)" d="M259.002 165.872 Q259.002 168.168 257.567 169.479 Q256.133 170.75 254.493 170.75 Q252.936 170.75 252.116 169.848 Q251.296 168.947 251.296 167.799 Q251.296 166.241 252.444 164.889 Q253.591 163.536 255.313 163.249 Q253.632 162.183 251.132 162.183 Q249.492 162.183 248.058 163.044 Q246.664 163.905 245.803 165.012 Q244.984 166.118 244.246 167.717 Q243.549 169.275 243.262 170.217 Q243.016 171.119 242.811 172.103 L239.942 183.58 Q238.548 189.031 238.548 190.958 Q238.548 193.335 239.696 194.934 Q240.844 196.491 243.139 196.491 Q244.041 196.491 245.066 196.245 Q246.09 195.959 247.402 195.221 Q248.755 194.442 249.943 193.294 Q251.173 192.106 252.362 190.097 Q253.55 188.089 254.329 185.506 Q254.575 184.605 255.395 184.605 Q256.42 184.605 256.42 185.424 Q256.42 186.121 255.846 187.597 Q255.313 189.031 254.124 190.917 Q252.977 192.761 251.46 194.442 Q249.943 196.082 247.689 197.229 Q245.435 198.377 242.975 198.377 Q239.45 198.377 237.114 196.491 Q234.777 194.606 233.917 191.983 Q233.712 192.351 233.425 192.843 Q233.138 193.335 232.277 194.442 Q231.457 195.508 230.514 196.327 Q229.572 197.106 228.096 197.721 Q226.661 198.377 225.104 198.377 Q223.136 198.377 221.374 197.803 Q219.652 197.229 218.423 195.918 Q217.193 194.606 217.193 192.802 Q217.193 190.794 218.546 189.4 Q219.939 187.966 221.825 187.966 Q223.013 187.966 223.956 188.662 Q224.94 189.359 224.94 190.876 Q224.94 192.556 223.792 193.827 Q222.644 195.098 221.005 195.426 Q222.685 196.491 225.186 196.491 Q227.891 196.491 230.023 194.114 Q232.154 191.737 233.179 187.761 Q235.72 178.21 236.704 173.947 Q237.688 169.643 237.688 167.799 Q237.688 166.077 237.237 164.889 Q236.786 163.7 236.007 163.167 Q235.269 162.593 234.572 162.388 Q233.917 162.183 233.179 162.183 Q231.949 162.183 230.555 162.675 Q229.203 163.167 227.563 164.315 Q225.965 165.422 224.448 167.717 Q222.931 170.012 221.907 173.169 Q221.702 174.111 220.8 174.111 Q219.816 174.07 219.816 173.25 Q219.816 172.554 220.349 171.119 Q220.923 169.643 222.071 167.799 Q223.259 165.954 224.776 164.315 Q226.334 162.634 228.588 161.487 Q230.883 160.339 233.343 160.339 Q234.449 160.339 235.515 160.585 Q236.622 160.79 237.933 161.405 Q239.286 162.019 240.475 163.372 Q241.664 164.725 242.401 166.692 Q242.893 165.749 243.549 164.848 Q244.246 163.946 245.312 162.839 Q246.418 161.692 247.935 161.036 Q249.492 160.339 251.214 160.339 Q252.895 160.339 254.534 160.79 Q256.174 161.2 257.567 162.552 Q259.002 163.864 259.002 165.872 Z" fill="#000000" fill-rule="nonzero" fill-opacity="1" /><path clip-path="url(#clip750)" d="M267.559 188.088 L267.559 186.251 Q274.618 186.251 278.261 182.493 Q279.266 182.493 279.438 182.722 Q279.61 182.952 279.61 184.013 L279.61 216.981 Q279.61 218.731 280.471 219.276 Q281.332 219.822 285.09 219.822 L286.955 219.822 L286.955 221.629 Q284.889 221.457 277.429 221.457 Q269.969 221.457 267.932 221.629 L267.932 219.822 L269.797 219.822 Q273.499 219.822 274.388 219.305 Q275.277 218.76 275.277 216.981 L275.277 186.538 Q272.207 188.088 267.559 188.088 Z" fill="#000000" fill-rule="nonzero" fill-opacity="1" /><path clip-path="url(#clip750)" d="M489.958 165.872 Q489.958 168.168 488.524 169.479 Q487.089 170.75 485.45 170.75 Q483.892 170.75 483.072 169.848 Q482.252 168.947 482.252 167.799 Q482.252 166.241 483.4 164.889 Q484.548 163.536 486.269 163.249 Q484.589 162.183 482.089 162.183 Q480.449 162.183 479.014 163.044 Q477.621 163.905 476.76 165.012 Q475.94 166.118 475.202 167.717 Q474.505 169.275 474.219 170.217 Q473.973 171.119 473.768 172.103 L470.898 183.58 Q469.505 189.031 469.505 190.958 Q469.505 193.335 470.653 194.934 Q471.8 196.491 474.096 196.491 Q474.997 196.491 476.022 196.245 Q477.047 195.959 478.358 195.221 Q479.711 194.442 480.9 193.294 Q482.13 192.106 483.318 190.097 Q484.507 188.089 485.286 185.506 Q485.532 184.605 486.351 184.605 Q487.376 184.605 487.376 185.424 Q487.376 186.121 486.802 187.597 Q486.269 189.031 485.081 190.917 Q483.933 192.761 482.416 194.442 Q480.9 196.082 478.645 197.229 Q476.391 198.377 473.932 198.377 Q470.407 198.377 468.07 196.491 Q465.734 194.606 464.873 191.983 Q464.668 192.351 464.381 192.843 Q464.094 193.335 463.233 194.442 Q462.414 195.508 461.471 196.327 Q460.528 197.106 459.053 197.721 Q457.618 198.377 456.06 198.377 Q454.093 198.377 452.33 197.803 Q450.609 197.229 449.379 195.918 Q448.149 194.606 448.149 192.802 Q448.149 190.794 449.502 189.4 Q450.896 187.966 452.781 187.966 Q453.97 187.966 454.913 188.662 Q455.896 189.359 455.896 190.876 Q455.896 192.556 454.749 193.827 Q453.601 195.098 451.961 195.426 Q453.642 196.491 456.142 196.491 Q458.848 196.491 460.979 194.114 Q463.11 191.737 464.135 187.761 Q466.677 178.21 467.66 173.947 Q468.644 169.643 468.644 167.799 Q468.644 166.077 468.193 164.889 Q467.742 163.7 466.963 163.167 Q466.226 162.593 465.529 162.388 Q464.873 162.183 464.135 162.183 Q462.906 162.183 461.512 162.675 Q460.159 163.167 458.52 164.315 Q456.921 165.422 455.404 167.717 Q453.888 170.012 452.863 173.169 Q452.658 174.111 451.756 174.111 Q450.773 174.07 450.773 173.25 Q450.773 172.554 451.306 171.119 Q451.879 169.643 453.027 167.799 Q454.216 165.954 455.732 164.315 Q457.29 162.634 459.544 161.487 Q461.84 160.339 464.299 160.339 Q465.406 160.339 466.472 160.585 Q467.578 160.79 468.89 161.405 Q470.243 162.019 471.431 163.372 Q472.62 164.725 473.358 166.692 Q473.85 165.749 474.505 164.848 Q475.202 163.946 476.268 162.839 Q477.375 161.692 478.891 161.036 Q480.449 160.339 482.17 160.339 Q483.851 160.339 485.491 160.79 Q487.13 161.2 488.524 162.552 Q489.958 163.864 489.958 165.872 Z" fill="#000000" fill-rule="nonzero" fill-opacity="1" /><path clip-path="url(#clip750)" d="M498.516 221.629 Q498.516 220.568 498.602 220.252 Q498.716 219.936 499.176 219.449 L510.452 206.881 Q516.621 199.938 516.621 193.884 Q516.621 189.953 514.555 187.141 Q512.518 184.329 508.759 184.329 Q506.177 184.329 503.996 185.907 Q501.815 187.485 500.811 190.297 Q500.983 190.24 501.586 190.24 Q503.049 190.24 503.852 191.158 Q504.685 192.076 504.685 193.31 Q504.685 194.888 503.652 195.662 Q502.647 196.408 501.643 196.408 Q501.241 196.408 500.696 196.322 Q500.18 196.236 499.348 195.433 Q498.516 194.601 498.516 193.138 Q498.516 189.034 501.614 185.764 Q504.742 182.493 509.505 182.493 Q514.899 182.493 518.428 185.706 Q521.986 188.891 521.986 193.884 Q521.986 195.634 521.441 197.241 Q520.924 198.819 520.207 200.052 Q519.519 201.286 517.625 203.266 Q515.731 205.246 514.21 206.652 Q512.69 208.058 509.275 211.042 L503.049 217.096 L513.637 217.096 Q518.801 217.096 519.203 216.637 Q519.777 215.805 520.494 211.415 L521.986 211.415 L520.322 221.629 L498.516 221.629 Z" fill="#000000" fill-rule="nonzero" fill-opacity="1" /><path clip-path="url(#clip750)" d="M1055.69 165.233 Q1055.69 167.528 1054.25 168.84 Q1052.82 170.11 1051.18 170.11 Q1049.62 170.11 1048.8 169.209 Q1047.98 168.307 1047.98 167.159 Q1047.98 165.601 1049.13 164.249 Q1050.28 162.896 1052 162.609 Q1050.32 161.544 1047.82 161.544 Q1046.18 161.544 1044.74 162.404 Q1043.35 163.265 1042.49 164.372 Q1041.67 165.479 1040.93 167.077 Q1040.23 168.635 1039.95 169.577 Q1039.7 170.479 1039.5 171.463 L1036.63 182.94 Q1035.23 188.392 1035.23 190.318 Q1035.23 192.695 1036.38 194.294 Q1037.53 195.852 1039.82 195.852 Q1040.73 195.852 1041.75 195.606 Q1042.78 195.319 1044.09 194.581 Q1045.44 193.802 1046.63 192.654 Q1047.86 191.466 1049.05 189.457 Q1050.24 187.449 1051.01 184.866 Q1051.26 183.965 1052.08 183.965 Q1053.1 183.965 1053.1 184.784 Q1053.1 185.481 1052.53 186.957 Q1052 188.392 1050.81 190.277 Q1049.66 192.122 1048.14 193.802 Q1046.63 195.442 1044.37 196.589 Q1042.12 197.737 1039.66 197.737 Q1036.14 197.737 1033.8 195.852 Q1031.46 193.966 1030.6 191.343 Q1030.4 191.712 1030.11 192.204 Q1029.82 192.695 1028.96 193.802 Q1028.14 194.868 1027.2 195.688 Q1026.26 196.466 1024.78 197.081 Q1023.35 197.737 1021.79 197.737 Q1019.82 197.737 1018.06 197.163 Q1016.34 196.589 1015.11 195.278 Q1013.88 193.966 1013.88 192.163 Q1013.88 190.154 1015.23 188.76 Q1016.62 187.326 1018.51 187.326 Q1019.7 187.326 1020.64 188.023 Q1021.62 188.719 1021.62 190.236 Q1021.62 191.917 1020.48 193.187 Q1019.33 194.458 1017.69 194.786 Q1019.37 195.852 1021.87 195.852 Q1024.58 195.852 1026.71 193.474 Q1028.84 191.097 1029.86 187.121 Q1032.41 177.57 1033.39 173.307 Q1034.37 169.004 1034.37 167.159 Q1034.37 165.438 1033.92 164.249 Q1033.47 163.06 1032.69 162.527 Q1031.95 161.953 1031.26 161.748 Q1030.6 161.544 1029.86 161.544 Q1028.63 161.544 1027.24 162.035 Q1025.89 162.527 1024.25 163.675 Q1022.65 164.782 1021.13 167.077 Q1019.62 169.372 1018.59 172.529 Q1018.39 173.471 1017.48 173.471 Q1016.5 173.43 1016.5 172.611 Q1016.5 171.914 1017.03 170.479 Q1017.61 169.004 1018.76 167.159 Q1019.94 165.315 1021.46 163.675 Q1023.02 161.994 1025.27 160.847 Q1027.57 159.699 1030.03 159.699 Q1031.13 159.699 1032.2 159.945 Q1033.31 160.15 1034.62 160.765 Q1035.97 161.38 1037.16 162.732 Q1038.35 164.085 1039.09 166.052 Q1039.58 165.11 1040.23 164.208 Q1040.93 163.306 1042 162.199 Q1043.1 161.052 1044.62 160.396 Q1046.18 159.699 1047.9 159.699 Q1049.58 159.699 1051.22 160.15 Q1052.86 160.56 1054.25 161.912 Q1055.69 163.224 1055.69 165.233 Z" fill="#000000" fill-rule="nonzero" fill-opacity="1" /><path clip-path="url(#clip750)" d="M1064.24 202.196 Q1064.24 193.559 1066.42 188.854 Q1069.47 181.853 1076.64 181.853 Q1078.16 181.853 1079.74 182.283 Q1081.34 182.685 1083.35 184.263 Q1085.39 185.841 1086.62 188.423 Q1088.98 193.416 1088.98 202.196 Q1088.98 210.775 1086.8 215.452 Q1083.61 222.28 1076.58 222.28 Q1073.94 222.28 1071.25 220.932 Q1068.58 219.583 1066.88 216.341 Q1064.24 211.492 1064.24 202.196 M1069.12 201.478 Q1069.12 210.344 1069.75 213.874 Q1070.47 217.69 1072.42 219.354 Q1074.4 220.989 1076.58 220.989 Q1078.93 220.989 1080.89 219.239 Q1082.87 217.46 1083.47 213.644 Q1084.13 209.885 1084.1 201.478 Q1084.1 193.301 1083.53 190.03 Q1082.75 186.214 1080.68 184.693 Q1078.65 183.144 1076.58 183.144 Q1075.81 183.144 1074.98 183.373 Q1074.17 183.603 1073 184.263 Q1071.82 184.923 1070.9 186.558 Q1070.01 188.194 1069.58 190.661 Q1069.12 193.846 1069.12 201.478 Z" fill="#000000" fill-rule="nonzero" fill-opacity="1" /><path clip-path="url(#clip750)" d="M1433.98 165.872 Q1433.98 168.168 1432.54 169.479 Q1431.11 170.75 1429.47 170.75 Q1427.91 170.75 1427.09 169.848 Q1426.27 168.947 1426.27 167.799 Q1426.27 166.241 1427.42 164.889 Q1428.57 163.536 1430.29 163.249 Q1428.61 162.183 1426.11 162.183 Q1424.47 162.183 1423.03 163.044 Q1421.64 163.905 1420.78 165.012 Q1419.96 166.118 1419.22 167.717 Q1418.52 169.275 1418.24 170.217 Q1417.99 171.119 1417.79 172.103 L1414.92 183.58 Q1413.52 189.031 1413.52 190.958 Q1413.52 193.335 1414.67 194.934 Q1415.82 196.491 1418.11 196.491 Q1419.02 196.491 1420.04 196.245 Q1421.06 195.959 1422.38 195.221 Q1423.73 194.442 1424.92 193.294 Q1426.15 192.106 1427.34 190.097 Q1428.52 188.089 1429.3 185.506 Q1429.55 184.605 1430.37 184.605 Q1431.39 184.605 1431.39 185.424 Q1431.39 186.121 1430.82 187.597 Q1430.29 189.031 1429.1 190.917 Q1427.95 192.761 1426.43 194.442 Q1424.92 196.082 1422.66 197.229 Q1420.41 198.377 1417.95 198.377 Q1414.42 198.377 1412.09 196.491 Q1409.75 194.606 1408.89 191.983 Q1408.69 192.351 1408.4 192.843 Q1408.11 193.335 1407.25 194.442 Q1406.43 195.508 1405.49 196.327 Q1404.55 197.106 1403.07 197.721 Q1401.64 198.377 1400.08 198.377 Q1398.11 198.377 1396.35 197.803 Q1394.63 197.229 1393.4 195.918 Q1392.17 194.606 1392.17 192.802 Q1392.17 190.794 1393.52 189.4 Q1394.91 187.966 1396.8 187.966 Q1397.99 187.966 1398.93 188.662 Q1399.91 189.359 1399.91 190.876 Q1399.91 192.556 1398.77 193.827 Q1397.62 195.098 1395.98 195.426 Q1397.66 196.491 1400.16 196.491 Q1402.87 196.491 1405 194.114 Q1407.13 191.737 1408.15 187.761 Q1410.69 178.21 1411.68 173.947 Q1412.66 169.643 1412.66 167.799 Q1412.66 166.077 1412.21 164.889 Q1411.76 163.7 1410.98 163.167 Q1410.24 162.593 1409.55 162.388 Q1408.89 162.183 1408.15 162.183 Q1406.92 162.183 1405.53 162.675 Q1404.18 163.167 1402.54 164.315 Q1400.94 165.422 1399.42 167.717 Q1397.91 170.012 1396.88 173.169 Q1396.68 174.111 1395.77 174.111 Q1394.79 174.07 1394.79 173.25 Q1394.79 172.554 1395.32 171.119 Q1395.9 169.643 1397.05 167.799 Q1398.23 165.954 1399.75 164.315 Q1401.31 162.634 1403.56 161.487 Q1405.86 160.339 1408.32 160.339 Q1409.42 160.339 1410.49 160.585 Q1411.6 160.79 1412.91 161.405 Q1414.26 162.019 1415.45 163.372 Q1416.64 164.725 1417.38 166.692 Q1417.87 165.749 1418.52 164.848 Q1419.22 163.946 1420.29 162.839 Q1421.39 161.692 1422.91 161.036 Q1424.47 160.339 1426.19 160.339 Q1427.87 160.339 1429.51 160.79 Q1431.15 161.2 1432.54 162.552 Q1433.98 163.864 1433.98 165.872 Z" fill="#000000" fill-rule="nonzero" fill-opacity="1" /><path clip-path="url(#clip750)" d="M1442.53 188.088 L1442.53 186.251 Q1449.59 186.251 1453.24 182.493 Q1454.24 182.493 1454.41 182.722 Q1454.58 182.952 1454.58 184.013 L1454.58 216.981 Q1454.58 218.731 1455.45 219.276 Q1456.31 219.822 1460.06 219.822 L1461.93 219.822 L1461.93 221.629 Q1459.86 221.457 1452.4 221.457 Q1444.94 221.457 1442.91 221.629 L1442.91 219.822 L1444.77 219.822 Q1448.47 219.822 1449.36 219.305 Q1450.25 218.76 1450.25 216.981 L1450.25 186.538 Q1447.18 188.088 1442.53 188.088 Z" fill="#000000" fill-rule="nonzero" fill-opacity="1" /><path clip-path="url(#clip750)" d="M1926.04 165.872 Q1926.04 168.168 1924.6 169.479 Q1923.17 170.75 1921.53 170.75 Q1919.97 170.75 1919.15 169.848 Q1918.33 168.947 1918.33 167.799 Q1918.33 166.241 1919.48 164.889 Q1920.63 163.536 1922.35 163.249 Q1920.67 162.183 1918.17 162.183 Q1916.53 162.183 1915.09 163.044 Q1913.7 163.905 1912.84 165.012 Q1912.02 166.118 1911.28 167.717 Q1910.59 169.275 1910.3 170.217 Q1910.05 171.119 1909.85 172.103 L1906.98 183.58 Q1905.58 189.031 1905.58 190.958 Q1905.58 193.335 1906.73 194.934 Q1907.88 196.491 1910.18 196.491 Q1911.08 196.491 1912.1 196.245 Q1913.13 195.959 1914.44 195.221 Q1915.79 194.442 1916.98 193.294 Q1918.21 192.106 1919.4 190.097 Q1920.59 188.089 1921.37 185.506 Q1921.61 184.605 1922.43 184.605 Q1923.46 184.605 1923.46 185.424 Q1923.46 186.121 1922.88 187.597 Q1922.35 189.031 1921.16 190.917 Q1920.01 192.761 1918.5 194.442 Q1916.98 196.082 1914.73 197.229 Q1912.47 198.377 1910.01 198.377 Q1906.49 198.377 1904.15 196.491 Q1901.81 194.606 1900.95 191.983 Q1900.75 192.351 1900.46 192.843 Q1900.17 193.335 1899.31 194.442 Q1898.49 195.508 1897.55 196.327 Q1896.61 197.106 1895.13 197.721 Q1893.7 198.377 1892.14 198.377 Q1890.17 198.377 1888.41 197.803 Q1886.69 197.229 1885.46 195.918 Q1884.23 194.606 1884.23 192.802 Q1884.23 190.794 1885.58 189.4 Q1886.98 187.966 1888.86 187.966 Q1890.05 187.966 1890.99 188.662 Q1891.98 189.359 1891.98 190.876 Q1891.98 192.556 1890.83 193.827 Q1889.68 195.098 1888.04 195.426 Q1889.72 196.491 1892.22 196.491 Q1894.93 196.491 1897.06 194.114 Q1899.19 191.737 1900.22 187.761 Q1902.76 178.21 1903.74 173.947 Q1904.72 169.643 1904.72 167.799 Q1904.72 166.077 1904.27 164.889 Q1903.82 163.7 1903.04 163.167 Q1902.31 162.593 1901.61 162.388 Q1900.95 162.183 1900.22 162.183 Q1898.99 162.183 1897.59 162.675 Q1896.24 163.167 1894.6 164.315 Q1893 165.422 1891.48 167.717 Q1889.97 170.012 1888.94 173.169 Q1888.74 174.111 1887.84 174.111 Q1886.85 174.07 1886.85 173.25 Q1886.85 172.554 1887.39 171.119 Q1887.96 169.643 1889.11 167.799 Q1890.3 165.954 1891.81 164.315 Q1893.37 162.634 1895.62 161.487 Q1897.92 160.339 1900.38 160.339 Q1901.49 160.339 1902.55 160.585 Q1903.66 160.79 1904.97 161.405 Q1906.32 162.019 1907.51 163.372 Q1908.7 164.725 1909.44 166.692 Q1909.93 165.749 1910.59 164.848 Q1911.28 163.946 1912.35 162.839 Q1913.45 161.692 1914.97 161.036 Q1916.53 160.339 1918.25 160.339 Q1919.93 160.339 1921.57 160.79 Q1923.21 161.2 1924.6 162.552 Q1926.04 163.864 1926.04 165.872 Z" fill="#000000" fill-rule="nonzero" fill-opacity="1" /><path clip-path="url(#clip750)" d="M1934.6 221.629 Q1934.6 220.568 1934.68 220.252 Q1934.8 219.936 1935.26 219.449 L1946.53 206.881 Q1952.7 199.938 1952.7 193.884 Q1952.7 189.953 1950.63 187.141 Q1948.6 184.329 1944.84 184.329 Q1942.26 184.329 1940.08 185.907 Q1937.9 187.485 1936.89 190.297 Q1937.06 190.24 1937.67 190.24 Q1939.13 190.24 1939.93 191.158 Q1940.76 192.076 1940.76 193.31 Q1940.76 194.888 1939.73 195.662 Q1938.73 196.408 1937.72 196.408 Q1937.32 196.408 1936.78 196.322 Q1936.26 196.236 1935.43 195.433 Q1934.6 194.601 1934.6 193.138 Q1934.6 189.034 1937.69 185.764 Q1940.82 182.493 1945.58 182.493 Q1950.98 182.493 1954.51 185.706 Q1958.07 188.891 1958.07 193.884 Q1958.07 195.634 1957.52 197.241 Q1957 198.819 1956.29 200.052 Q1955.6 201.286 1953.7 203.266 Q1951.81 205.246 1950.29 206.652 Q1948.77 208.058 1945.36 211.042 L1939.13 217.096 L1949.72 217.096 Q1954.88 217.096 1955.28 216.637 Q1955.86 215.805 1956.57 211.415 L1958.07 211.415 L1956.4 221.629 L1934.6 221.629 Z" fill="#000000" fill-rule="nonzero" fill-opacity="1" /></svg>
