<?xml version="1.0" encoding="utf-8"?>
<svg xmlns="http://www.w3.org/2000/svg" xmlns:xlink="http://www.w3.org/1999/xlink" width="600" height="400" viewBox="0 0 2400 1600">
<defs>
  <clipPath id="clip160">
    <rect x="0" y="0" width="2400" height="1600"/>
  </clipPath>
</defs>
<path clip-path="url(#clip160)" d="M0 1600 L2400 1600 L2400 0 L0 0  Z" fill="#ffffff" fill-rule="evenodd" fill-opacity="1"/>
<defs>
  <clipPath id="clip161">
    <rect x="480" y="0" width="1681" height="1600"/>
  </clipPath>
</defs>
<path clip-path="url(#clip160)" d="M147.108 1486.45 L2352.76 1486.45 L2352.76 47.2441 L147.108 47.2441  Z" fill="#ffffff" fill-rule="evenodd" fill-opacity="1"/>
<defs>
  <clipPath id="clip162">
    <rect x="147" y="47" width="2207" height="1440"/>
  </clipPath>
</defs>
<polyline clip-path="url(#clip162)" style="stroke:#000000; stroke-linecap:round; stroke-linejoin:round; stroke-width:2; stroke-opacity:0.1; fill:none" points="209.532,1486.45 209.532,47.2441 "/>
<polyline clip-path="url(#clip162)" style="stroke:#000000; stroke-linecap:round; stroke-linejoin:round; stroke-width:2; stroke-opacity:0.1; fill:none" points="729.732,1486.45 729.732,47.2441 "/>
<polyline clip-path="url(#clip162)" style="stroke:#000000; stroke-linecap:round; stroke-linejoin:round; stroke-width:2; stroke-opacity:0.1; fill:none" points="1249.93,1486.45 1249.93,47.2441 "/>
<polyline clip-path="url(#clip162)" style="stroke:#000000; stroke-linecap:round; stroke-linejoin:round; stroke-width:2; stroke-opacity:0.1; fill:none" points="1770.13,1486.45 1770.13,47.2441 "/>
<polyline clip-path="url(#clip162)" style="stroke:#000000; stroke-linecap:round; stroke-linejoin:round; stroke-width:2; stroke-opacity:0.1; fill:none" points="2290.33,1486.45 2290.33,47.2441 "/>
<polyline clip-path="url(#clip160)" style="stroke:#000000; stroke-linecap:round; stroke-linejoin:round; stroke-width:4; stroke-opacity:1; fill:none" points="147.108,1486.45 2352.76,1486.45 "/>
<polyline clip-path="url(#clip160)" style="stroke:#000000; stroke-linecap:round; stroke-linejoin:round; stroke-width:2; stroke-opacity:0.5; fill:none" points="147.108,47.2441 2352.76,47.2441 "/>
<polyline clip-path="url(#clip160)" style="stroke:#000000; stroke-linecap:round; stroke-linejoin:round; stroke-width:4; stroke-opacity:1; fill:none" points="209.532,1486.45 209.532,1467.55 "/>
<polyline clip-path="url(#clip160)" style="stroke:#000000; stroke-linecap:round; stroke-linejoin:round; stroke-width:4; stroke-opacity:1; fill:none" points="729.732,1486.45 729.732,1467.55 "/>
<polyline clip-path="url(#clip160)" style="stroke:#000000; stroke-linecap:round; stroke-linejoin:round; stroke-width:4; stroke-opacity:1; fill:none" points="1249.93,1486.45 1249.93,1467.55 "/>
<polyline clip-path="url(#clip160)" style="stroke:#000000; stroke-linecap:round; stroke-linejoin:round; stroke-width:4; stroke-opacity:1; fill:none" points="1770.13,1486.45 1770.13,1467.55 "/>
<polyline clip-path="url(#clip160)" style="stroke:#000000; stroke-linecap:round; stroke-linejoin:round; stroke-width:4; stroke-opacity:1; fill:none" points="2290.33,1486.45 2290.33,1467.55 "/>
<path clip-path="url(#clip160)" d="M179.474 1532.02 L209.15 1532.02 L209.15 1535.95 L179.474 1535.95 L179.474 1532.02 Z" fill="#000000" fill-rule="nonzero" fill-opacity="1" /><path clip-path="url(#clip160)" d="M223.27 1544.91 L239.589 1544.91 L239.589 1548.85 L217.645 1548.85 L217.645 1544.91 Q220.307 1542.16 224.89 1537.53 Q229.497 1532.88 230.677 1531.53 Q232.923 1529.01 233.802 1527.27 Q234.705 1525.51 234.705 1523.82 Q234.705 1521.07 232.761 1519.33 Q230.839 1517.6 227.737 1517.6 Q225.538 1517.6 223.085 1518.36 Q220.654 1519.13 217.876 1520.68 L217.876 1515.95 Q220.7 1514.82 223.154 1514.24 Q225.608 1513.66 227.645 1513.66 Q233.015 1513.66 236.21 1516.35 Q239.404 1519.03 239.404 1523.52 Q239.404 1525.65 238.594 1527.57 Q237.807 1529.47 235.7 1532.07 Q235.122 1532.74 232.02 1535.95 Q228.918 1539.15 223.27 1544.91 Z" fill="#000000" fill-rule="nonzero" fill-opacity="1" /><path clip-path="url(#clip160)" d="M699.489 1532.02 L729.165 1532.02 L729.165 1535.95 L699.489 1535.95 L699.489 1532.02 Z" fill="#000000" fill-rule="nonzero" fill-opacity="1" /><path clip-path="url(#clip160)" d="M740.067 1544.91 L747.706 1544.91 L747.706 1518.55 L739.396 1520.21 L739.396 1515.95 L747.66 1514.29 L752.336 1514.29 L752.336 1544.91 L759.975 1544.91 L759.975 1548.85 L740.067 1548.85 L740.067 1544.91 Z" fill="#000000" fill-rule="nonzero" fill-opacity="1" /><path clip-path="url(#clip160)" d="M1249.93 1517.37 Q1246.32 1517.37 1244.49 1520.93 Q1242.69 1524.47 1242.69 1531.6 Q1242.69 1538.71 1244.49 1542.27 Q1246.32 1545.82 1249.93 1545.82 Q1253.57 1545.82 1255.37 1542.27 Q1257.2 1538.71 1257.2 1531.6 Q1257.2 1524.47 1255.37 1520.93 Q1253.57 1517.37 1249.93 1517.37 M1249.93 1513.66 Q1255.74 1513.66 1258.8 1518.27 Q1261.88 1522.85 1261.88 1531.6 Q1261.88 1540.33 1258.8 1544.94 Q1255.74 1549.52 1249.93 1549.52 Q1244.12 1549.52 1241.04 1544.94 Q1237.99 1540.33 1237.99 1531.6 Q1237.99 1522.85 1241.04 1518.27 Q1244.12 1513.66 1249.93 1513.66 Z" fill="#000000" fill-rule="nonzero" fill-opacity="1" /><path clip-path="url(#clip160)" d="M1760.51 1544.91 L1768.15 1544.91 L1768.15 1518.55 L1759.84 1520.21 L1759.84 1515.95 L1768.11 1514.29 L1772.78 1514.29 L1772.78 1544.91 L1780.42 1544.91 L1780.42 1548.85 L1760.51 1548.85 L1760.51 1544.91 Z" fill="#000000" fill-rule="nonzero" fill-opacity="1" /><path clip-path="url(#clip160)" d="M2284.98 1544.91 L2301.3 1544.91 L2301.3 1548.85 L2279.36 1548.85 L2279.36 1544.91 Q2282.02 1542.16 2286.61 1537.53 Q2291.21 1532.88 2292.39 1531.53 Q2294.64 1529.01 2295.52 1527.27 Q2296.42 1525.51 2296.42 1523.82 Q2296.42 1521.07 2294.48 1519.33 Q2292.55 1517.6 2289.45 1517.6 Q2287.25 1517.6 2284.8 1518.36 Q2282.37 1519.13 2279.59 1520.68 L2279.59 1515.95 Q2282.42 1514.82 2284.87 1514.24 Q2287.32 1513.66 2289.36 1513.66 Q2294.73 1513.66 2297.92 1516.35 Q2301.12 1519.03 2301.12 1523.52 Q2301.12 1525.65 2300.31 1527.57 Q2299.52 1529.47 2297.42 1532.07 Q2296.84 1532.74 2293.73 1535.95 Q2290.63 1539.15 2284.98 1544.91 Z" fill="#000000" fill-rule="nonzero" fill-opacity="1" /><polyline clip-path="url(#clip162)" style="stroke:#000000; stroke-linecap:round; stroke-linejoin:round; stroke-width:2; stroke-opacity:0.1; fill:none" points="147.108,1445.72 2352.76,1445.72 "/>
<polyline clip-path="url(#clip162)" style="stroke:#000000; stroke-linecap:round; stroke-linejoin:round; stroke-width:2; stroke-opacity:0.1; fill:none" points="147.108,1106.28 2352.76,1106.28 "/>
<polyline clip-path="url(#clip162)" style="stroke:#000000; stroke-linecap:round; stroke-linejoin:round; stroke-width:2; stroke-opacity:0.1; fill:none" points="147.108,766.846 2352.76,766.846 "/>
<polyline clip-path="url(#clip162)" style="stroke:#000000; stroke-linecap:round; stroke-linejoin:round; stroke-width:2; stroke-opacity:0.1; fill:none" points="147.108,427.411 2352.76,427.411 "/>
<polyline clip-path="url(#clip162)" style="stroke:#000000; stroke-linecap:round; stroke-linejoin:round; stroke-width:2; stroke-opacity:0.1; fill:none" points="147.108,87.9763 2352.76,87.9763 "/>
<polyline clip-path="url(#clip160)" style="stroke:#000000; stroke-linecap:round; stroke-linejoin:round; stroke-width:4; stroke-opacity:1; fill:none" points="147.108,1486.45 147.108,47.2441 "/>
<polyline clip-path="url(#clip160)" style="stroke:#000000; stroke-linecap:round; stroke-linejoin:round; stroke-width:2; stroke-opacity:0.5; fill:none" points="2352.76,1486.45 2352.76,47.2441 "/>
<polyline clip-path="url(#clip160)" style="stroke:#000000; stroke-linecap:round; stroke-linejoin:round; stroke-width:4; stroke-opacity:1; fill:none" points="147.108,1445.72 166.005,1445.72 "/>
<polyline clip-path="url(#clip160)" style="stroke:#000000; stroke-linecap:round; stroke-linejoin:round; stroke-width:4; stroke-opacity:1; fill:none" points="147.108,1106.28 166.005,1106.28 "/>
<polyline clip-path="url(#clip160)" style="stroke:#000000; stroke-linecap:round; stroke-linejoin:round; stroke-width:4; stroke-opacity:1; fill:none" points="147.108,766.846 166.005,766.846 "/>
<polyline clip-path="url(#clip160)" style="stroke:#000000; stroke-linecap:round; stroke-linejoin:round; stroke-width:4; stroke-opacity:1; fill:none" points="147.108,427.411 166.005,427.411 "/>
<polyline clip-path="url(#clip160)" style="stroke:#000000; stroke-linecap:round; stroke-linejoin:round; stroke-width:4; stroke-opacity:1; fill:none" points="147.108,87.9763 166.005,87.9763 "/>
<path clip-path="url(#clip160)" d="M50.9921 1446.17 L80.6679 1446.17 L80.6679 1450.1 L50.9921 1450.1 L50.9921 1446.17 Z" fill="#000000" fill-rule="nonzero" fill-opacity="1" /><path clip-path="url(#clip160)" d="M94.7882 1459.06 L111.108 1459.06 L111.108 1463 L89.1632 1463 L89.1632 1459.06 Q91.8252 1456.31 96.4085 1451.68 Q101.015 1447.02 102.196 1445.68 Q104.441 1443.16 105.321 1441.42 Q106.223 1439.66 106.223 1437.97 Q106.223 1435.22 104.279 1433.48 Q102.358 1431.75 99.2558 1431.75 Q97.0567 1431.75 94.603 1432.51 Q92.1725 1433.27 89.3947 1434.82 L89.3947 1430.1 Q92.2188 1428.97 94.6724 1428.39 Q97.1261 1427.81 99.1632 1427.81 Q104.534 1427.81 107.728 1430.5 Q110.922 1433.18 110.922 1437.67 Q110.922 1439.8 110.112 1441.72 Q109.325 1443.62 107.219 1446.21 Q106.64 1446.88 103.538 1450.1 Q100.436 1453.3 94.7882 1459.06 Z" fill="#000000" fill-rule="nonzero" fill-opacity="1" /><path clip-path="url(#clip160)" d="M99.1632 1092.08 Q95.5521 1092.08 93.7234 1095.64 Q91.9178 1099.19 91.9178 1106.32 Q91.9178 1113.42 93.7234 1116.99 Q95.5521 1120.53 99.1632 1120.53 Q102.797 1120.53 104.603 1116.99 Q106.432 1113.42 106.432 1106.32 Q106.432 1099.19 104.603 1095.64 Q102.797 1092.08 99.1632 1092.08 M99.1632 1088.38 Q104.973 1088.38 108.029 1092.98 Q111.108 1097.57 111.108 1106.32 Q111.108 1115.04 108.029 1119.65 Q104.973 1124.23 99.1632 1124.23 Q93.353 1124.23 90.2743 1119.65 Q87.2188 1115.04 87.2188 1106.32 Q87.2188 1097.57 90.2743 1092.98 Q93.353 1088.38 99.1632 1088.38 Z" fill="#000000" fill-rule="nonzero" fill-opacity="1" /><path clip-path="url(#clip160)" d="M94.7882 780.191 L111.108 780.191 L111.108 784.126 L89.1632 784.126 L89.1632 780.191 Q91.8252 777.436 96.4085 772.807 Q101.015 768.154 102.196 766.811 Q104.441 764.288 105.321 762.552 Q106.223 760.793 106.223 759.103 Q106.223 756.348 104.279 754.612 Q102.358 752.876 99.2558 752.876 Q97.0567 752.876 94.603 753.64 Q92.1725 754.404 89.3947 755.955 L89.3947 751.233 Q92.2188 750.098 94.6724 749.52 Q97.1261 748.941 99.1632 748.941 Q104.534 748.941 107.728 751.626 Q110.922 754.311 110.922 758.802 Q110.922 760.932 110.112 762.853 Q109.325 764.751 107.219 767.344 Q106.64 768.015 103.538 771.233 Q100.436 774.427 94.7882 780.191 Z" fill="#000000" fill-rule="nonzero" fill-opacity="1" /><path clip-path="url(#clip160)" d="M101.524 414.205 L89.7188 432.654 L101.524 432.654 L101.524 414.205 M100.297 410.131 L106.177 410.131 L106.177 432.654 L111.108 432.654 L111.108 436.543 L106.177 436.543 L106.177 444.691 L101.524 444.691 L101.524 436.543 L85.9225 436.543 L85.9225 432.029 L100.297 410.131 Z" fill="#000000" fill-rule="nonzero" fill-opacity="1" /><path clip-path="url(#clip160)" d="M99.5798 86.1129 Q96.4317 86.1129 94.5799 88.2656 Q92.7512 90.4184 92.7512 94.1684 Q92.7512 97.8952 94.5799 100.071 Q96.4317 102.224 99.5798 102.224 Q102.728 102.224 104.557 100.071 Q106.408 97.8952 106.408 94.1684 Q106.408 90.4184 104.557 88.2656 Q102.728 86.1129 99.5798 86.1129 M108.862 71.4602 L108.862 75.7194 Q107.103 74.8861 105.297 74.4463 Q103.515 74.0064 101.756 74.0064 Q97.1261 74.0064 94.6724 77.1314 Q92.2419 80.2564 91.8947 86.5758 Q93.2604 84.5619 95.3206 83.4971 Q97.3808 82.4092 99.8576 82.4092 Q105.066 82.4092 108.075 85.5805 Q111.108 88.7286 111.108 94.1684 Q111.108 99.4924 107.959 102.71 Q104.811 105.928 99.5798 105.928 Q93.5845 105.928 90.4132 101.344 Q87.2419 96.7378 87.2419 88.011 Q87.2419 79.8166 91.1308 74.9555 Q95.0197 70.0713 101.571 70.0713 Q103.33 70.0713 105.112 70.4185 Q106.918 70.7657 108.862 71.4602 Z" fill="#000000" fill-rule="nonzero" fill-opacity="1" /><polyline clip-path="url(#clip162)" style="stroke:#000000; stroke-linecap:round; stroke-linejoin:round; stroke-width:4; stroke-opacity:1; fill:none" stroke-dasharray="16, 10" points="209.532,1106.28 2290.33,1106.28 "/>
<polyline clip-path="url(#clip162)" style="stroke:#0000ff; stroke-linecap:round; stroke-linejoin:round; stroke-width:4; stroke-opacity:1; fill:none" points="209.532,1445.72 230.55,1378.79 251.568,1315.13 272.586,1254.66 293.604,1197.31 314.622,1143.01 335.641,1091.71 356.659,1043.32 377.677,997.794 398.695,955.053 419.713,915.031 440.732,877.663 461.75,842.88 482.768,810.617 503.786,780.805 524.804,753.377 545.823,728.267 566.841,705.406 587.859,684.729 608.877,666.167 629.895,649.654 650.913,635.122 671.932,622.505 692.95,611.734 713.968,602.744 734.986,595.466 756.004,589.834 777.023,585.78 798.041,583.238 819.059,582.139 840.077,582.418 861.095,584.006 882.113,586.837 903.132,590.843 924.15,595.957 945.168,602.113 966.186,609.242 987.204,617.278 1008.22,626.154 1029.24,635.802 1050.26,646.156 1071.28,657.147 1092.3,668.71 1113.31,680.776 1134.33,693.278 1155.35,706.151 1176.37,719.325 1197.39,732.735 1218.4,746.312 1239.42,759.99 1260.44,773.702 1281.46,787.38 1302.48,800.957 1323.5,814.367 1344.51,827.541 1365.53,840.413 1386.55,852.916 1407.57,864.982 1428.59,876.545 1449.6,887.536 1470.62,897.89 1491.64,907.538 1512.66,916.414 1533.68,924.45 1554.7,931.579 1575.71,937.735 1596.73,942.849 1617.75,946.855 1638.77,949.686 1659.79,951.274 1680.8,951.553 1701.82,950.454 1722.84,947.912 1743.86,943.858 1764.88,938.226 1785.9,930.948 1806.91,921.958 1827.93,911.187 1848.95,898.57 1869.97,884.038 1890.99,867.525 1912,848.963 1933.02,828.286 1954.04,805.425 1975.06,780.315 1996.08,752.887 2017.1,723.075 2038.11,690.812 2059.13,656.029 2080.15,618.661 2101.17,578.639 2122.19,535.898 2143.2,490.369 2164.22,441.985 2185.24,390.68 2206.26,336.386 2227.28,279.035 2248.3,218.562 2269.31,154.898 2290.33,87.9763 "/>
<polyline clip-path="url(#clip162)" style="stroke:#ff0000; stroke-linecap:round; stroke-linejoin:round; stroke-width:8; stroke-opacity:1; fill:none" points="1249.93,766.846 1770.13,1106.28 "/>
<circle clip-path="url(#clip162)" cx="1249.93" cy="766.846" r="7.2" fill="#ff0000" fill-rule="evenodd" fill-opacity="1" stroke="none"/>
<circle clip-path="url(#clip162)" cx="1770.13" cy="1106.28" r="7.2" fill="#ff0000" fill-rule="evenodd" fill-opacity="1" stroke="none"/>
<polyline clip-path="url(#clip162)" style="stroke:#000000; stroke-linecap:round; stroke-linejoin:round; stroke-width:2; stroke-opacity:1; fill:none" stroke-dasharray="8, 5" points="1249.93,1342.53 1249.93,191.164 "/>
<polyline clip-path="url(#clip162)" style="stroke:#ff0000; stroke-linecap:round; stroke-linejoin:round; stroke-width:8; stroke-opacity:1; fill:none" points="1770.13,936.563 1249.93,1106.28 "/>
<circle clip-path="url(#clip162)" cx="1770.13" cy="936.563" r="7.2" fill="#ff0000" fill-rule="evenodd" fill-opacity="1" stroke="none"/>
<circle clip-path="url(#clip162)" cx="1249.93" cy="1106.28" r="7.2" fill="#ff0000" fill-rule="evenodd" fill-opacity="1" stroke="none"/>
<polyline clip-path="url(#clip162)" style="stroke:#000000; stroke-linecap:round; stroke-linejoin:round; stroke-width:2; stroke-opacity:1; fill:none" stroke-dasharray="8, 5" points="1770.13,1342.53 1770.13,191.164 "/>
<path clip-path="url(#clip160)" d="M1321.05 165.233 Q1321.05 167.528 1319.62 168.84 Q1318.18 170.11 1316.54 170.11 Q1314.98 170.11 1314.16 169.209 Q1313.34 168.307 1313.34 167.159 Q1313.34 165.601 1314.49 164.249 Q1315.64 162.896 1317.36 162.609 Q1315.68 161.544 1313.18 161.544 Q1311.54 161.544 1310.11 162.404 Q1308.71 163.265 1307.85 164.372 Q1307.03 165.479 1306.29 167.077 Q1305.6 168.635 1305.31 169.577 Q1305.06 170.479 1304.86 171.463 L1301.99 182.94 Q1300.6 188.392 1300.6 190.318 Q1300.6 192.695 1301.74 194.294 Q1302.89 195.852 1305.19 195.852 Q1306.09 195.852 1307.11 195.606 Q1308.14 195.319 1309.45 194.581 Q1310.8 193.802 1311.99 192.654 Q1313.22 191.466 1314.41 189.457 Q1315.6 187.449 1316.38 184.866 Q1316.62 183.965 1317.44 183.965 Q1318.47 183.965 1318.47 184.784 Q1318.47 185.481 1317.89 186.957 Q1317.36 188.392 1316.17 190.277 Q1315.02 192.122 1313.51 193.802 Q1311.99 195.442 1309.74 196.589 Q1307.48 197.737 1305.02 197.737 Q1301.5 197.737 1299.16 195.852 Q1296.83 193.966 1295.96 191.343 Q1295.76 191.712 1295.47 192.204 Q1295.19 192.695 1294.32 193.802 Q1293.5 194.868 1292.56 195.688 Q1291.62 196.466 1290.14 197.081 Q1288.71 197.737 1287.15 197.737 Q1285.18 197.737 1283.42 197.163 Q1281.7 196.589 1280.47 195.278 Q1279.24 193.966 1279.24 192.163 Q1279.24 190.154 1280.59 188.76 Q1281.99 187.326 1283.87 187.326 Q1285.06 187.326 1286 188.023 Q1286.99 188.719 1286.99 190.236 Q1286.99 191.917 1285.84 193.187 Q1284.69 194.458 1283.05 194.786 Q1284.73 195.852 1287.23 195.852 Q1289.94 195.852 1292.07 193.474 Q1294.2 191.097 1295.23 187.121 Q1297.77 177.57 1298.75 173.307 Q1299.74 169.004 1299.74 167.159 Q1299.74 165.438 1299.28 164.249 Q1298.83 163.06 1298.05 162.527 Q1297.32 161.953 1296.62 161.748 Q1295.96 161.544 1295.23 161.544 Q1294 161.544 1292.6 162.035 Q1291.25 162.527 1289.61 163.675 Q1288.01 164.782 1286.5 167.077 Q1284.98 169.372 1283.95 172.529 Q1283.75 173.471 1282.85 173.471 Q1281.86 173.43 1281.86 172.611 Q1281.86 171.914 1282.4 170.479 Q1282.97 169.004 1284.12 167.159 Q1285.31 165.315 1286.82 163.675 Q1288.38 161.994 1290.64 160.847 Q1292.93 159.699 1295.39 159.699 Q1296.5 159.699 1297.56 159.945 Q1298.67 160.15 1299.98 160.765 Q1301.33 161.38 1302.52 162.732 Q1303.71 164.085 1304.45 166.052 Q1304.94 165.11 1305.6 164.208 Q1306.29 163.306 1307.36 162.199 Q1308.47 161.052 1309.98 160.396 Q1311.54 159.699 1313.26 159.699 Q1314.94 159.699 1316.58 160.15 Q1318.22 160.56 1319.62 161.912 Q1321.05 163.224 1321.05 165.233 Z" fill="#000000" fill-rule="nonzero" fill-opacity="1" /><path clip-path="url(#clip160)" d="M1329.61 202.196 Q1329.61 193.559 1331.79 188.854 Q1334.83 181.853 1342 181.853 Q1343.52 181.853 1345.1 182.283 Q1346.71 182.685 1348.72 184.263 Q1350.75 185.841 1351.99 188.423 Q1354.34 193.416 1354.34 202.196 Q1354.34 210.775 1352.16 215.452 Q1348.97 222.28 1341.94 222.28 Q1339.3 222.28 1336.61 220.932 Q1333.94 219.583 1332.25 216.341 Q1329.61 211.492 1329.61 202.196 M1334.48 201.478 Q1334.48 210.344 1335.12 213.874 Q1335.83 217.69 1337.78 219.354 Q1339.76 220.989 1341.94 220.989 Q1344.3 220.989 1346.25 219.239 Q1348.23 217.46 1348.83 213.644 Q1349.49 209.885 1349.46 201.478 Q1349.46 193.301 1348.89 190.03 Q1348.11 186.214 1346.05 184.693 Q1344.01 183.144 1341.94 183.144 Q1341.17 183.144 1340.34 183.373 Q1339.53 183.603 1338.36 184.263 Q1337.18 184.923 1336.26 186.558 Q1335.37 188.194 1334.94 190.661 Q1334.48 193.846 1334.48 201.478 Z" fill="#000000" fill-rule="nonzero" fill-opacity="1" /><path clip-path="url(#clip160)" d="M1694.21 165.872 Q1694.21 168.168 1692.77 169.479 Q1691.34 170.75 1689.7 170.75 Q1688.14 170.75 1687.32 169.848 Q1686.5 168.947 1686.5 167.799 Q1686.5 166.241 1687.65 164.889 Q1688.8 163.536 1690.52 163.249 Q1688.84 162.183 1686.34 162.183 Q1684.7 162.183 1683.26 163.044 Q1681.87 163.905 1681.01 165.012 Q1680.19 166.118 1679.45 167.717 Q1678.75 169.275 1678.47 170.217 Q1678.22 171.119 1678.02 172.103 L1675.15 183.58 Q1673.75 189.031 1673.75 190.958 Q1673.75 193.335 1674.9 194.934 Q1676.05 196.491 1678.34 196.491 Q1679.25 196.491 1680.27 196.245 Q1681.29 195.959 1682.61 195.221 Q1683.96 194.442 1685.15 193.294 Q1686.38 192.106 1687.57 190.097 Q1688.75 188.089 1689.53 185.506 Q1689.78 184.605 1690.6 184.605 Q1691.62 184.605 1691.62 185.424 Q1691.62 186.121 1691.05 187.597 Q1690.52 189.031 1689.33 190.917 Q1688.18 192.761 1686.66 194.442 Q1685.15 196.082 1682.89 197.229 Q1680.64 198.377 1678.18 198.377 Q1674.65 198.377 1672.32 196.491 Q1669.98 194.606 1669.12 191.983 Q1668.92 192.351 1668.63 192.843 Q1668.34 193.335 1667.48 194.442 Q1666.66 195.508 1665.72 196.327 Q1664.78 197.106 1663.3 197.721 Q1661.87 198.377 1660.31 198.377 Q1658.34 198.377 1656.58 197.803 Q1654.86 197.229 1653.63 195.918 Q1652.4 194.606 1652.4 192.802 Q1652.4 190.794 1653.75 189.4 Q1655.14 187.966 1657.03 187.966 Q1658.22 187.966 1659.16 188.662 Q1660.14 189.359 1660.14 190.876 Q1660.14 192.556 1659 193.827 Q1657.85 195.098 1656.21 195.426 Q1657.89 196.491 1660.39 196.491 Q1663.1 196.491 1665.23 194.114 Q1667.36 191.737 1668.38 187.761 Q1670.92 178.21 1671.91 173.947 Q1672.89 169.643 1672.89 167.799 Q1672.89 166.077 1672.44 164.889 Q1671.99 163.7 1671.21 163.167 Q1670.47 162.593 1669.78 162.388 Q1669.12 162.183 1668.38 162.183 Q1667.15 162.183 1665.76 162.675 Q1664.41 163.167 1662.77 164.315 Q1661.17 165.422 1659.65 167.717 Q1658.14 170.012 1657.11 173.169 Q1656.91 174.111 1656 174.111 Q1655.02 174.07 1655.02 173.25 Q1655.02 172.554 1655.55 171.119 Q1656.13 169.643 1657.28 167.799 Q1658.46 165.954 1659.98 164.315 Q1661.54 162.634 1663.79 161.487 Q1666.09 160.339 1668.55 160.339 Q1669.65 160.339 1670.72 160.585 Q1671.83 160.79 1673.14 161.405 Q1674.49 162.019 1675.68 163.372 Q1676.87 164.725 1677.61 166.692 Q1678.1 165.749 1678.75 164.848 Q1679.45 163.946 1680.52 162.839 Q1681.62 161.692 1683.14 161.036 Q1684.7 160.339 1686.42 160.339 Q1688.1 160.339 1689.74 160.79 Q1691.38 161.2 1692.77 162.552 Q1694.21 163.864 1694.21 165.872 Z" fill="#000000" fill-rule="nonzero" fill-opacity="1" /><path clip-path="url(#clip160)" d="M1702.76 188.088 L1702.76 186.251 Q1709.82 186.251 1713.47 182.493 Q1714.47 182.493 1714.64 182.722 Q1714.81 182.952 1714.81 184.013 L1714.81 216.981 Q1714.81 218.731 1715.68 219.276 Q1716.54 219.822 1720.29 219.822 L1722.16 219.822 L1722.16 221.629 Q1720.09 221.457 1712.63 221.457 Q1705.17 221.457 1703.14 221.629 L1703.14 219.822 L1705 219.822 Q1708.7 219.822 1709.59 219.305 Q1710.48 218.76 1710.48 216.981 L1710.48 186.538 Q1707.41 188.088 1702.76 188.088 Z" fill="#000000" fill-rule="nonzero" fill-opacity="1" /></svg>
