<?xml version="1.0" encoding="utf-8"?>
<svg xmlns="http://www.w3.org/2000/svg" xmlns:xlink="http://www.w3.org/1999/xlink" width="600" height="400" viewBox="0 0 2400 1600">
<defs>
  <clipPath id="clip640">
    <rect x="0" y="0" width="2400" height="1600"/>
  </clipPath>
</defs>
<path clip-path="url(#clip640)" d="M0 1600 L2400 1600 L2400 0 L0 0  Z" fill="#ffffff" fill-rule="evenodd" fill-opacity="1"/>
<defs>
  <clipPath id="clip641">
    <rect x="480" y="0" width="1681" height="1600"/>
  </clipPath>
</defs>
<path clip-path="url(#clip640)" d="M192.941 1486.45 L2352.76 1486.45 L2352.76 47.2441 L192.941 47.2441  Z" fill="#ffffff" fill-rule="evenodd" fill-opacity="1"/>
<defs>
  <clipPath id="clip642">
    <rect x="192" y="47" width="2161" height="1440"/>
  </clipPath>
</defs>
<polyline clip-path="url(#clip642)" style="stroke:#000000; stroke-linecap:round; stroke-linejoin:round; stroke-width:2; stroke-opacity:0.1; fill:none" points="254.067,1486.45 254.067,47.2441 "/>
<polyline clip-path="url(#clip642)" style="stroke:#000000; stroke-linecap:round; stroke-linejoin:round; stroke-width:2; stroke-opacity:0.1; fill:none" points="933.255,1486.45 933.255,47.2441 "/>
<polyline clip-path="url(#clip642)" style="stroke:#000000; stroke-linecap:round; stroke-linejoin:round; stroke-width:2; stroke-opacity:0.1; fill:none" points="1612.44,1486.45 1612.44,47.2441 "/>
<polyline clip-path="url(#clip642)" style="stroke:#000000; stroke-linecap:round; stroke-linejoin:round; stroke-width:2; stroke-opacity:0.1; fill:none" points="2291.63,1486.45 2291.63,47.2441 "/>
<polyline clip-path="url(#clip640)" style="stroke:#000000; stroke-linecap:round; stroke-linejoin:round; stroke-width:4; stroke-opacity:1; fill:none" points="192.941,1486.45 2352.76,1486.45 "/>
<polyline clip-path="url(#clip640)" style="stroke:#000000; stroke-linecap:round; stroke-linejoin:round; stroke-width:4; stroke-opacity:1; fill:none" points="254.067,1486.45 254.067,1467.55 "/>
<polyline clip-path="url(#clip640)" style="stroke:#000000; stroke-linecap:round; stroke-linejoin:round; stroke-width:4; stroke-opacity:1; fill:none" points="933.255,1486.45 933.255,1467.55 "/>
<polyline clip-path="url(#clip640)" style="stroke:#000000; stroke-linecap:round; stroke-linejoin:round; stroke-width:4; stroke-opacity:1; fill:none" points="1612.44,1486.45 1612.44,1467.55 "/>
<polyline clip-path="url(#clip640)" style="stroke:#000000; stroke-linecap:round; stroke-linejoin:round; stroke-width:4; stroke-opacity:1; fill:none" points="2291.63,1486.45 2291.63,1467.55 "/>
<path clip-path="url(#clip640)" d="M254.067 1517.37 Q250.456 1517.37 248.628 1520.93 Q246.822 1524.47 246.822 1531.6 Q246.822 1538.71 248.628 1542.27 Q250.456 1545.82 254.067 1545.82 Q257.702 1545.82 259.507 1542.27 Q261.336 1538.71 261.336 1531.6 Q261.336 1524.47 259.507 1520.93 Q257.702 1517.37 254.067 1517.37 M254.067 1513.66 Q259.878 1513.66 262.933 1518.27 Q266.012 1522.85 266.012 1531.6 Q266.012 1540.33 262.933 1544.94 Q259.878 1549.52 254.067 1549.52 Q248.257 1549.52 245.179 1544.94 Q242.123 1540.33 242.123 1531.6 Q242.123 1522.85 245.179 1518.27 Q248.257 1513.66 254.067 1513.66 Z" fill="#000000" fill-rule="nonzero" fill-opacity="1" /><path clip-path="url(#clip640)" d="M923.637 1544.91 L931.276 1544.91 L931.276 1518.55 L922.965 1520.21 L922.965 1515.95 L931.229 1514.29 L935.905 1514.29 L935.905 1544.91 L943.544 1544.91 L943.544 1548.85 L923.637 1548.85 L923.637 1544.91 Z" fill="#000000" fill-rule="nonzero" fill-opacity="1" /><path clip-path="url(#clip640)" d="M1607.09 1544.91 L1623.41 1544.91 L1623.41 1548.85 L1601.47 1548.85 L1601.47 1544.91 Q1604.13 1542.16 1608.72 1537.53 Q1613.32 1532.88 1614.5 1531.53 Q1616.75 1529.01 1617.63 1527.27 Q1618.53 1525.51 1618.53 1523.82 Q1618.53 1521.07 1616.59 1519.33 Q1614.66 1517.6 1611.56 1517.6 Q1609.36 1517.6 1606.91 1518.36 Q1604.48 1519.13 1601.7 1520.68 L1601.7 1515.95 Q1604.53 1514.82 1606.98 1514.24 Q1609.43 1513.66 1611.47 1513.66 Q1616.84 1513.66 1620.03 1516.35 Q1623.23 1519.03 1623.23 1523.52 Q1623.23 1525.65 1622.42 1527.57 Q1621.63 1529.47 1619.53 1532.07 Q1618.95 1532.74 1615.84 1535.95 Q1612.74 1539.15 1607.09 1544.91 Z" fill="#000000" fill-rule="nonzero" fill-opacity="1" /><path clip-path="url(#clip640)" d="M2295.88 1530.21 Q2299.23 1530.93 2301.11 1533.2 Q2303.01 1535.47 2303.01 1538.8 Q2303.01 1543.92 2299.49 1546.72 Q2295.97 1549.52 2289.49 1549.52 Q2287.31 1549.52 2285 1549.08 Q2282.71 1548.66 2280.25 1547.81 L2280.25 1543.29 Q2282.2 1544.43 2284.51 1545.01 Q2286.83 1545.58 2289.35 1545.58 Q2293.75 1545.58 2296.04 1543.85 Q2298.35 1542.11 2298.35 1538.8 Q2298.35 1535.75 2296.2 1534.03 Q2294.07 1532.3 2290.25 1532.3 L2286.22 1532.3 L2286.22 1528.45 L2290.44 1528.45 Q2293.89 1528.45 2295.71 1527.09 Q2297.54 1525.7 2297.54 1523.11 Q2297.54 1520.45 2295.65 1519.03 Q2293.77 1517.6 2290.25 1517.6 Q2288.33 1517.6 2286.13 1518.01 Q2283.93 1518.43 2281.29 1519.31 L2281.29 1515.14 Q2283.96 1514.4 2286.27 1514.03 Q2288.61 1513.66 2290.67 1513.66 Q2295.99 1513.66 2299.09 1516.09 Q2302.2 1518.5 2302.2 1522.62 Q2302.2 1525.49 2300.55 1527.48 Q2298.91 1529.45 2295.88 1530.21 Z" fill="#000000" fill-rule="nonzero" fill-opacity="1" /><polyline clip-path="url(#clip642)" style="stroke:#000000; stroke-linecap:round; stroke-linejoin:round; stroke-width:2; stroke-opacity:0.1; fill:none" points="192.941,1254.03 2352.76,1254.03 "/>
<polyline clip-path="url(#clip642)" style="stroke:#000000; stroke-linecap:round; stroke-linejoin:round; stroke-width:2; stroke-opacity:0.1; fill:none" points="192.941,991.2 2352.76,991.2 "/>
<polyline clip-path="url(#clip642)" style="stroke:#000000; stroke-linecap:round; stroke-linejoin:round; stroke-width:2; stroke-opacity:0.1; fill:none" points="192.941,728.373 2352.76,728.373 "/>
<polyline clip-path="url(#clip642)" style="stroke:#000000; stroke-linecap:round; stroke-linejoin:round; stroke-width:2; stroke-opacity:0.1; fill:none" points="192.941,465.545 2352.76,465.545 "/>
<polyline clip-path="url(#clip642)" style="stroke:#000000; stroke-linecap:round; stroke-linejoin:round; stroke-width:2; stroke-opacity:0.1; fill:none" points="192.941,202.717 2352.76,202.717 "/>
<polyline clip-path="url(#clip640)" style="stroke:#000000; stroke-linecap:round; stroke-linejoin:round; stroke-width:4; stroke-opacity:1; fill:none" points="192.941,1486.45 192.941,47.2441 "/>
<polyline clip-path="url(#clip640)" style="stroke:#000000; stroke-linecap:round; stroke-linejoin:round; stroke-width:4; stroke-opacity:1; fill:none" points="192.941,1254.03 211.838,1254.03 "/>
<polyline clip-path="url(#clip640)" style="stroke:#000000; stroke-linecap:round; stroke-linejoin:round; stroke-width:4; stroke-opacity:1; fill:none" points="192.941,991.2 211.838,991.2 "/>
<polyline clip-path="url(#clip640)" style="stroke:#000000; stroke-linecap:round; stroke-linejoin:round; stroke-width:4; stroke-opacity:1; fill:none" points="192.941,728.373 211.838,728.373 "/>
<polyline clip-path="url(#clip640)" style="stroke:#000000; stroke-linecap:round; stroke-linejoin:round; stroke-width:4; stroke-opacity:1; fill:none" points="192.941,465.545 211.838,465.545 "/>
<polyline clip-path="url(#clip640)" style="stroke:#000000; stroke-linecap:round; stroke-linejoin:round; stroke-width:4; stroke-opacity:1; fill:none" points="192.941,202.717 211.838,202.717 "/>
<path clip-path="url(#clip640)" d="M50.9921 1254.48 L80.6679 1254.48 L80.6679 1258.41 L50.9921 1258.41 L50.9921 1254.48 Z" fill="#000000" fill-rule="nonzero" fill-opacity="1" /><path clip-path="url(#clip640)" d="M100.76 1239.83 Q97.1493 1239.83 95.3206 1243.39 Q93.515 1246.93 93.515 1254.06 Q93.515 1261.17 95.3206 1264.73 Q97.1493 1268.28 100.76 1268.28 Q104.395 1268.28 106.2 1264.73 Q108.029 1261.17 108.029 1254.06 Q108.029 1246.93 106.2 1243.39 Q104.395 1239.83 100.76 1239.83 M100.76 1236.12 Q106.571 1236.12 109.626 1240.73 Q112.705 1245.31 112.705 1254.06 Q112.705 1262.79 109.626 1267.4 Q106.571 1271.98 100.76 1271.98 Q94.9502 1271.98 91.8715 1267.4 Q88.816 1262.79 88.816 1254.06 Q88.816 1245.31 91.8715 1240.73 Q94.9502 1236.12 100.76 1236.12 Z" fill="#000000" fill-rule="nonzero" fill-opacity="1" /><path clip-path="url(#clip640)" d="M120.922 1265.43 L125.807 1265.43 L125.807 1271.31 L120.922 1271.31 L120.922 1265.43 Z" fill="#000000" fill-rule="nonzero" fill-opacity="1" /><path clip-path="url(#clip640)" d="M136.038 1236.75 L154.394 1236.75 L154.394 1240.68 L140.32 1240.68 L140.32 1249.16 Q141.339 1248.81 142.357 1248.65 Q143.376 1248.46 144.394 1248.46 Q150.181 1248.46 153.561 1251.63 Q156.941 1254.8 156.941 1260.22 Q156.941 1265.8 153.468 1268.9 Q149.996 1271.98 143.677 1271.98 Q141.501 1271.98 139.232 1271.61 Q136.987 1271.24 134.58 1270.5 L134.58 1265.8 Q136.663 1266.93 138.885 1267.49 Q141.107 1268.04 143.584 1268.04 Q147.589 1268.04 149.927 1265.94 Q152.265 1263.83 152.265 1260.22 Q152.265 1256.61 149.927 1254.5 Q147.589 1252.4 143.584 1252.4 Q141.709 1252.4 139.834 1252.81 Q137.982 1253.23 136.038 1254.11 L136.038 1236.75 Z" fill="#000000" fill-rule="nonzero" fill-opacity="1" /><path clip-path="url(#clip640)" d="M99.765 976.999 Q96.1539 976.999 94.3252 980.564 Q92.5197 984.105 92.5197 991.235 Q92.5197 998.341 94.3252 1001.91 Q96.1539 1005.45 99.765 1005.45 Q103.399 1005.45 105.205 1001.91 Q107.033 998.341 107.033 991.235 Q107.033 984.105 105.205 980.564 Q103.399 976.999 99.765 976.999 M99.765 973.295 Q105.575 973.295 108.631 977.902 Q111.709 982.485 111.709 991.235 Q111.709 999.962 108.631 1004.57 Q105.575 1009.15 99.765 1009.15 Q93.9549 1009.15 90.8762 1004.57 Q87.8206 999.962 87.8206 991.235 Q87.8206 982.485 90.8762 977.902 Q93.9549 973.295 99.765 973.295 Z" fill="#000000" fill-rule="nonzero" fill-opacity="1" /><path clip-path="url(#clip640)" d="M119.927 1002.6 L124.811 1002.6 L124.811 1008.48 L119.927 1008.48 L119.927 1002.6 Z" fill="#000000" fill-rule="nonzero" fill-opacity="1" /><path clip-path="url(#clip640)" d="M144.996 976.999 Q141.385 976.999 139.556 980.564 Q137.751 984.105 137.751 991.235 Q137.751 998.341 139.556 1001.91 Q141.385 1005.45 144.996 1005.45 Q148.63 1005.45 150.436 1001.91 Q152.265 998.341 152.265 991.235 Q152.265 984.105 150.436 980.564 Q148.63 976.999 144.996 976.999 M144.996 973.295 Q150.806 973.295 153.862 977.902 Q156.941 982.485 156.941 991.235 Q156.941 999.962 153.862 1004.57 Q150.806 1009.15 144.996 1009.15 Q139.186 1009.15 136.107 1004.57 Q133.052 999.962 133.052 991.235 Q133.052 982.485 136.107 977.902 Q139.186 973.295 144.996 973.295 Z" fill="#000000" fill-rule="nonzero" fill-opacity="1" /><path clip-path="url(#clip640)" d="M100.76 714.171 Q97.1493 714.171 95.3206 717.736 Q93.515 721.278 93.515 728.407 Q93.515 735.514 95.3206 739.078 Q97.1493 742.62 100.76 742.62 Q104.395 742.62 106.2 739.078 Q108.029 735.514 108.029 728.407 Q108.029 721.278 106.2 717.736 Q104.395 714.171 100.76 714.171 M100.76 710.468 Q106.571 710.468 109.626 715.074 Q112.705 719.657 112.705 728.407 Q112.705 737.134 109.626 741.741 Q106.571 746.324 100.76 746.324 Q94.9502 746.324 91.8715 741.741 Q88.816 737.134 88.816 728.407 Q88.816 719.657 91.8715 715.074 Q94.9502 710.468 100.76 710.468 Z" fill="#000000" fill-rule="nonzero" fill-opacity="1" /><path clip-path="url(#clip640)" d="M120.922 739.773 L125.807 739.773 L125.807 745.653 L120.922 745.653 L120.922 739.773 Z" fill="#000000" fill-rule="nonzero" fill-opacity="1" /><path clip-path="url(#clip640)" d="M136.038 711.093 L154.394 711.093 L154.394 715.028 L140.32 715.028 L140.32 723.5 Q141.339 723.153 142.357 722.991 Q143.376 722.805 144.394 722.805 Q150.181 722.805 153.561 725.977 Q156.941 729.148 156.941 734.565 Q156.941 740.143 153.468 743.245 Q149.996 746.324 143.677 746.324 Q141.501 746.324 139.232 745.953 Q136.987 745.583 134.58 744.842 L134.58 740.143 Q136.663 741.278 138.885 741.833 Q141.107 742.389 143.584 742.389 Q147.589 742.389 149.927 740.282 Q152.265 738.176 152.265 734.565 Q152.265 730.954 149.927 728.847 Q147.589 726.741 143.584 726.741 Q141.709 726.741 139.834 727.157 Q137.982 727.574 136.038 728.454 L136.038 711.093 Z" fill="#000000" fill-rule="nonzero" fill-opacity="1" /><path clip-path="url(#clip640)" d="M90.5752 478.89 L98.2141 478.89 L98.2141 452.524 L89.904 454.191 L89.904 449.932 L98.1678 448.265 L102.844 448.265 L102.844 478.89 L110.483 478.89 L110.483 482.825 L90.5752 482.825 L90.5752 478.89 Z" fill="#000000" fill-rule="nonzero" fill-opacity="1" /><path clip-path="url(#clip640)" d="M119.927 476.945 L124.811 476.945 L124.811 482.825 L119.927 482.825 L119.927 476.945 Z" fill="#000000" fill-rule="nonzero" fill-opacity="1" /><path clip-path="url(#clip640)" d="M144.996 451.344 Q141.385 451.344 139.556 454.908 Q137.751 458.45 137.751 465.58 Q137.751 472.686 139.556 476.251 Q141.385 479.793 144.996 479.793 Q148.63 479.793 150.436 476.251 Q152.265 472.686 152.265 465.58 Q152.265 458.45 150.436 454.908 Q148.63 451.344 144.996 451.344 M144.996 447.64 Q150.806 447.64 153.862 452.246 Q156.941 456.83 156.941 465.58 Q156.941 474.306 153.862 478.913 Q150.806 483.496 144.996 483.496 Q139.186 483.496 136.107 478.913 Q133.052 474.306 133.052 465.58 Q133.052 456.83 136.107 452.246 Q139.186 447.64 144.996 447.64 Z" fill="#000000" fill-rule="nonzero" fill-opacity="1" /><path clip-path="url(#clip640)" d="M91.5706 216.062 L99.2095 216.062 L99.2095 189.697 L90.8993 191.363 L90.8993 187.104 L99.1632 185.437 L103.839 185.437 L103.839 216.062 L111.478 216.062 L111.478 219.997 L91.5706 219.997 L91.5706 216.062 Z" fill="#000000" fill-rule="nonzero" fill-opacity="1" /><path clip-path="url(#clip640)" d="M120.922 214.118 L125.807 214.118 L125.807 219.997 L120.922 219.997 L120.922 214.118 Z" fill="#000000" fill-rule="nonzero" fill-opacity="1" /><path clip-path="url(#clip640)" d="M136.038 185.437 L154.394 185.437 L154.394 189.372 L140.32 189.372 L140.32 197.845 Q141.339 197.497 142.357 197.335 Q143.376 197.15 144.394 197.15 Q150.181 197.15 153.561 200.321 Q156.941 203.493 156.941 208.909 Q156.941 214.488 153.468 217.59 Q149.996 220.669 143.677 220.669 Q141.501 220.669 139.232 220.298 Q136.987 219.928 134.58 219.187 L134.58 214.488 Q136.663 215.622 138.885 216.178 Q141.107 216.733 143.584 216.733 Q147.589 216.733 149.927 214.627 Q152.265 212.52 152.265 208.909 Q152.265 205.298 149.927 203.192 Q147.589 201.085 143.584 201.085 Q141.709 201.085 139.834 201.502 Q137.982 201.919 136.038 202.798 L136.038 185.437 Z" fill="#000000" fill-rule="nonzero" fill-opacity="1" /><polyline clip-path="url(#clip642)" style="stroke:#009af9; stroke-linecap:round; stroke-linejoin:round; stroke-width:4; stroke-opacity:1; fill:none" points="254.067,87.9763 274.649,130.626 295.23,172.003 315.812,212.145 336.393,251.088 356.975,288.87 377.556,325.523 398.137,361.083 418.719,395.581 439.3,429.049 459.882,461.519 480.463,493.019 501.045,523.579 521.626,553.227 542.208,581.989 562.789,609.894 583.37,636.965 603.952,663.229 624.533,688.708 645.115,713.427 665.696,737.408 686.278,760.674 706.859,783.244 727.44,805.142 748.022,826.385 768.603,846.995 789.185,866.989 809.766,886.387 830.348,905.205 850.929,923.462 871.51,941.174 892.092,958.357 912.673,975.027 933.255,991.2 953.836,1006.89 974.418,1022.11 994.999,1036.88 1015.58,1051.21 1036.16,1065.1 1056.74,1078.59 1077.32,1091.67 1097.91,1104.36 1118.49,1116.67 1139.07,1128.62 1159.65,1140.21 1180.23,1151.45 1200.81,1162.36 1221.39,1172.94 1241.98,1183.2 1262.56,1193.16 1283.14,1202.82 1303.72,1212.2 1324.3,1221.29 1344.88,1230.11 1365.46,1238.67 1386.05,1246.97 1406.63,1255.03 1427.21,1262.85 1447.79,1270.43 1468.37,1277.78 1488.95,1284.92 1509.53,1291.84 1530.12,1298.56 1550.7,1305.07 1571.28,1311.4 1591.86,1317.53 1612.44,1323.48 1633.02,1329.25 1653.6,1334.85 1674.19,1340.28 1694.77,1345.55 1715.35,1350.67 1735.93,1355.63 1756.51,1360.44 1777.09,1365.11 1797.67,1369.64 1818.26,1374.03 1838.84,1378.29 1859.42,1382.43 1880,1386.44 1900.58,1390.34 1921.16,1394.11 1941.74,1397.78 1962.33,1401.33 1982.91,1404.78 2003.49,1408.12 2024.07,1411.37 2044.65,1414.52 2065.23,1417.57 2085.81,1420.54 2106.4,1423.41 2126.98,1426.2 2147.56,1428.91 2168.14,1431.53 2188.72,1434.08 2209.3,1436.55 2229.88,1438.95 2250.47,1441.27 2271.05,1443.53 2291.63,1445.72 "/>
<polyline clip-path="url(#clip642)" style="stroke:#000000; stroke-linecap:round; stroke-linejoin:round; stroke-width:4; stroke-opacity:1; fill:none" stroke-dasharray="16, 10" points="254.067,991.2 2291.63,991.2 "/>
</svg>
