<?xml version="1.0" encoding="utf-8"?>
<svg xmlns="http://www.w3.org/2000/svg" xmlns:xlink="http://www.w3.org/1999/xlink" width="600" height="400" viewBox="0 0 2400 1600">
<defs>
  <clipPath id="clip860">
    <rect x="0" y="0" width="2400" height="1600"/>
  </clipPath>
</defs>
<path clip-path="url(#clip860)" d="M0 1600 L2400 1600 L2400 0 L0 0  Z" fill="#ffffff" fill-rule="evenodd" fill-opacity="1"/>
<defs>
  <clipPath id="clip861">
    <rect x="480" y="0" width="1681" height="1600"/>
  </clipPath>
</defs>
<path clip-path="url(#clip860)" d="M224.098 1486.45 L2352.76 1486.45 L2352.76 47.2441 L224.098 47.2441  Z" fill="#ffffff" fill-rule="evenodd" fill-opacity="1"/>
<defs>
  <clipPath id="clip862">
    <rect x="224" y="47" width="2130" height="1440"/>
  </clipPath>
</defs>
<polyline clip-path="url(#clip862)" style="stroke:#000000; stroke-linecap:round; stroke-linejoin:round; stroke-width:2; stroke-opacity:0.1; fill:none" points="466.904,1486.45 466.904,47.2441 "/>
<polyline clip-path="url(#clip862)" style="stroke:#000000; stroke-linecap:round; stroke-linejoin:round; stroke-width:2; stroke-opacity:0.1; fill:none" points="832.025,1486.45 832.025,47.2441 "/>
<polyline clip-path="url(#clip862)" style="stroke:#000000; stroke-linecap:round; stroke-linejoin:round; stroke-width:2; stroke-opacity:0.1; fill:none" points="1197.15,1486.45 1197.15,47.2441 "/>
<polyline clip-path="url(#clip862)" style="stroke:#000000; stroke-linecap:round; stroke-linejoin:round; stroke-width:2; stroke-opacity:0.1; fill:none" points="1562.27,1486.45 1562.27,47.2441 "/>
<polyline clip-path="url(#clip862)" style="stroke:#000000; stroke-linecap:round; stroke-linejoin:round; stroke-width:2; stroke-opacity:0.1; fill:none" points="1927.39,1486.45 1927.39,47.2441 "/>
<polyline clip-path="url(#clip862)" style="stroke:#000000; stroke-linecap:round; stroke-linejoin:round; stroke-width:2; stroke-opacity:0.1; fill:none" points="2292.51,1486.45 2292.51,47.2441 "/>
<polyline clip-path="url(#clip860)" style="stroke:#000000; stroke-linecap:round; stroke-linejoin:round; stroke-width:4; stroke-opacity:1; fill:none" points="224.098,1486.45 2352.76,1486.45 "/>
<polyline clip-path="url(#clip860)" style="stroke:#000000; stroke-linecap:round; stroke-linejoin:round; stroke-width:4; stroke-opacity:1; fill:none" points="466.904,1486.45 466.904,1467.55 "/>
<polyline clip-path="url(#clip860)" style="stroke:#000000; stroke-linecap:round; stroke-linejoin:round; stroke-width:4; stroke-opacity:1; fill:none" points="832.025,1486.45 832.025,1467.55 "/>
<polyline clip-path="url(#clip860)" style="stroke:#000000; stroke-linecap:round; stroke-linejoin:round; stroke-width:4; stroke-opacity:1; fill:none" points="1197.15,1486.45 1197.15,1467.55 "/>
<polyline clip-path="url(#clip860)" style="stroke:#000000; stroke-linecap:round; stroke-linejoin:round; stroke-width:4; stroke-opacity:1; fill:none" points="1562.27,1486.45 1562.27,1467.55 "/>
<polyline clip-path="url(#clip860)" style="stroke:#000000; stroke-linecap:round; stroke-linejoin:round; stroke-width:4; stroke-opacity:1; fill:none" points="1927.39,1486.45 1927.39,1467.55 "/>
<polyline clip-path="url(#clip860)" style="stroke:#000000; stroke-linecap:round; stroke-linejoin:round; stroke-width:4; stroke-opacity:1; fill:none" points="2292.51,1486.45 2292.51,1467.55 "/>
<path clip-path="url(#clip860)" d="M466.904 1517.37 Q463.293 1517.37 461.464 1520.93 Q459.658 1524.47 459.658 1531.6 Q459.658 1538.71 461.464 1542.27 Q463.293 1545.82 466.904 1545.82 Q470.538 1545.82 472.343 1542.27 Q474.172 1538.71 474.172 1531.6 Q474.172 1524.47 472.343 1520.93 Q470.538 1517.37 466.904 1517.37 M466.904 1513.66 Q472.714 1513.66 475.769 1518.27 Q478.848 1522.85 478.848 1531.6 Q478.848 1540.33 475.769 1544.94 Q472.714 1549.52 466.904 1549.52 Q461.093 1549.52 458.015 1544.94 Q454.959 1540.33 454.959 1531.6 Q454.959 1522.85 458.015 1518.27 Q461.093 1513.66 466.904 1513.66 Z" fill="#000000" fill-rule="nonzero" fill-opacity="1" /><path clip-path="url(#clip860)" d="M822.407 1544.91 L830.046 1544.91 L830.046 1518.55 L821.736 1520.21 L821.736 1515.95 L830 1514.29 L834.676 1514.29 L834.676 1544.91 L842.314 1544.91 L842.314 1548.85 L822.407 1548.85 L822.407 1544.91 Z" fill="#000000" fill-rule="nonzero" fill-opacity="1" /><path clip-path="url(#clip860)" d="M1191.8 1544.91 L1208.12 1544.91 L1208.12 1548.85 L1186.17 1548.85 L1186.17 1544.91 Q1188.84 1542.16 1193.42 1537.53 Q1198.03 1532.88 1199.21 1531.53 Q1201.45 1529.01 1202.33 1527.27 Q1203.23 1525.51 1203.23 1523.82 Q1203.23 1521.07 1201.29 1519.33 Q1199.37 1517.6 1196.27 1517.6 Q1194.07 1517.6 1191.61 1518.36 Q1189.18 1519.13 1186.41 1520.68 L1186.41 1515.95 Q1189.23 1514.82 1191.68 1514.24 Q1194.14 1513.66 1196.17 1513.66 Q1201.54 1513.66 1204.74 1516.35 Q1207.93 1519.03 1207.93 1523.52 Q1207.93 1525.65 1207.12 1527.57 Q1206.34 1529.47 1204.23 1532.07 Q1203.65 1532.74 1200.55 1535.95 Q1197.45 1539.15 1191.8 1544.91 Z" fill="#000000" fill-rule="nonzero" fill-opacity="1" /><path clip-path="url(#clip860)" d="M1566.52 1530.21 Q1569.87 1530.93 1571.75 1533.2 Q1573.65 1535.47 1573.65 1538.8 Q1573.65 1543.92 1570.13 1546.72 Q1566.61 1549.52 1560.13 1549.52 Q1557.95 1549.52 1555.64 1549.08 Q1553.34 1548.66 1550.89 1547.81 L1550.89 1543.29 Q1552.84 1544.43 1555.15 1545.01 Q1557.46 1545.58 1559.99 1545.58 Q1564.39 1545.58 1566.68 1543.85 Q1568.99 1542.11 1568.99 1538.8 Q1568.99 1535.75 1566.84 1534.03 Q1564.71 1532.3 1560.89 1532.3 L1556.86 1532.3 L1556.86 1528.45 L1561.08 1528.45 Q1564.52 1528.45 1566.35 1527.09 Q1568.18 1525.7 1568.18 1523.11 Q1568.18 1520.45 1566.28 1519.03 Q1564.41 1517.6 1560.89 1517.6 Q1558.97 1517.6 1556.77 1518.01 Q1554.57 1518.43 1551.93 1519.31 L1551.93 1515.14 Q1554.59 1514.4 1556.91 1514.03 Q1559.25 1513.66 1561.31 1513.66 Q1566.63 1513.66 1569.73 1516.09 Q1572.84 1518.5 1572.84 1522.62 Q1572.84 1525.49 1571.19 1527.48 Q1569.55 1529.45 1566.52 1530.21 Z" fill="#000000" fill-rule="nonzero" fill-opacity="1" /><path clip-path="url(#clip860)" d="M1930.4 1518.36 L1918.59 1536.81 L1930.4 1536.81 L1930.4 1518.36 M1929.17 1514.29 L1935.05 1514.29 L1935.05 1536.81 L1939.98 1536.81 L1939.98 1540.7 L1935.05 1540.7 L1935.05 1548.85 L1930.4 1548.85 L1930.4 1540.7 L1914.8 1540.7 L1914.8 1536.19 L1929.17 1514.29 Z" fill="#000000" fill-rule="nonzero" fill-opacity="1" /><path clip-path="url(#clip860)" d="M2282.79 1514.29 L2301.15 1514.29 L2301.15 1518.22 L2287.07 1518.22 L2287.07 1526.7 Q2288.09 1526.35 2289.11 1526.19 Q2290.13 1526 2291.15 1526 Q2296.93 1526 2300.31 1529.17 Q2303.69 1532.34 2303.69 1537.76 Q2303.69 1543.34 2300.22 1546.44 Q2296.75 1549.52 2290.43 1549.52 Q2288.25 1549.52 2285.98 1549.15 Q2283.74 1548.78 2281.33 1548.04 L2281.33 1543.34 Q2283.41 1544.47 2285.64 1545.03 Q2287.86 1545.58 2290.33 1545.58 Q2294.34 1545.58 2296.68 1543.48 Q2299.02 1541.37 2299.02 1537.76 Q2299.02 1534.15 2296.68 1532.04 Q2294.34 1529.94 2290.33 1529.94 Q2288.46 1529.94 2286.58 1530.35 Q2284.73 1530.77 2282.79 1531.65 L2282.79 1514.29 Z" fill="#000000" fill-rule="nonzero" fill-opacity="1" /><polyline clip-path="url(#clip862)" style="stroke:#000000; stroke-linecap:round; stroke-linejoin:round; stroke-width:2; stroke-opacity:0.1; fill:none" points="224.098,1361.03 2352.76,1361.03 "/>
<polyline clip-path="url(#clip862)" style="stroke:#000000; stroke-linecap:round; stroke-linejoin:round; stroke-width:2; stroke-opacity:0.1; fill:none" points="224.098,1076.33 2352.76,1076.33 "/>
<polyline clip-path="url(#clip862)" style="stroke:#000000; stroke-linecap:round; stroke-linejoin:round; stroke-width:2; stroke-opacity:0.1; fill:none" points="224.098,791.626 2352.76,791.626 "/>
<polyline clip-path="url(#clip862)" style="stroke:#000000; stroke-linecap:round; stroke-linejoin:round; stroke-width:2; stroke-opacity:0.1; fill:none" points="224.098,506.922 2352.76,506.922 "/>
<polyline clip-path="url(#clip862)" style="stroke:#000000; stroke-linecap:round; stroke-linejoin:round; stroke-width:2; stroke-opacity:0.1; fill:none" points="224.098,222.219 2352.76,222.219 "/>
<polyline clip-path="url(#clip860)" style="stroke:#000000; stroke-linecap:round; stroke-linejoin:round; stroke-width:4; stroke-opacity:1; fill:none" points="224.098,1486.45 224.098,47.2441 "/>
<polyline clip-path="url(#clip860)" style="stroke:#000000; stroke-linecap:round; stroke-linejoin:round; stroke-width:4; stroke-opacity:1; fill:none" points="224.098,1361.03 242.996,1361.03 "/>
<polyline clip-path="url(#clip860)" style="stroke:#000000; stroke-linecap:round; stroke-linejoin:round; stroke-width:4; stroke-opacity:1; fill:none" points="224.098,1076.33 242.996,1076.33 "/>
<polyline clip-path="url(#clip860)" style="stroke:#000000; stroke-linecap:round; stroke-linejoin:round; stroke-width:4; stroke-opacity:1; fill:none" points="224.098,791.626 242.996,791.626 "/>
<polyline clip-path="url(#clip860)" style="stroke:#000000; stroke-linecap:round; stroke-linejoin:round; stroke-width:4; stroke-opacity:1; fill:none" points="224.098,506.922 242.996,506.922 "/>
<polyline clip-path="url(#clip860)" style="stroke:#000000; stroke-linecap:round; stroke-linejoin:round; stroke-width:4; stroke-opacity:1; fill:none" points="224.098,222.219 242.996,222.219 "/>
<path clip-path="url(#clip860)" d="M51.9875 1361.48 L81.6633 1361.48 L81.6633 1365.42 L51.9875 1365.42 L51.9875 1361.48 Z" fill="#000000" fill-rule="nonzero" fill-opacity="1" /><path clip-path="url(#clip860)" d="M101.756 1346.83 Q98.1447 1346.83 96.316 1350.4 Q94.5104 1353.94 94.5104 1361.07 Q94.5104 1368.17 96.316 1371.74 Q98.1447 1375.28 101.756 1375.28 Q105.39 1375.28 107.196 1371.74 Q109.024 1368.17 109.024 1361.07 Q109.024 1353.94 107.196 1350.4 Q105.39 1346.83 101.756 1346.83 M101.756 1343.13 Q107.566 1343.13 110.621 1347.73 Q113.7 1352.32 113.7 1361.07 Q113.7 1369.79 110.621 1374.4 Q107.566 1378.98 101.756 1378.98 Q95.9456 1378.98 92.8669 1374.4 Q89.8114 1369.79 89.8114 1361.07 Q89.8114 1352.32 92.8669 1347.73 Q95.9456 1343.13 101.756 1343.13 Z" fill="#000000" fill-rule="nonzero" fill-opacity="1" /><path clip-path="url(#clip860)" d="M121.918 1372.43 L126.802 1372.43 L126.802 1378.31 L121.918 1378.31 L121.918 1372.43 Z" fill="#000000" fill-rule="nonzero" fill-opacity="1" /><path clip-path="url(#clip860)" d="M135.806 1343.75 L158.029 1343.75 L158.029 1345.74 L145.482 1378.31 L140.598 1378.31 L152.404 1347.69 L135.806 1347.69 L135.806 1343.75 Z" fill="#000000" fill-rule="nonzero" fill-opacity="1" /><path clip-path="url(#clip860)" d="M167.195 1343.75 L185.552 1343.75 L185.552 1347.69 L171.478 1347.69 L171.478 1356.16 Q172.496 1355.81 173.515 1355.65 Q174.533 1355.47 175.552 1355.47 Q181.339 1355.47 184.718 1358.64 Q188.098 1361.81 188.098 1367.22 Q188.098 1372.8 184.626 1375.91 Q181.153 1378.98 174.834 1378.98 Q172.658 1378.98 170.39 1378.61 Q168.144 1378.24 165.737 1377.5 L165.737 1372.8 Q167.82 1373.94 170.042 1374.49 Q172.265 1375.05 174.741 1375.05 Q178.746 1375.05 181.084 1372.94 Q183.422 1370.84 183.422 1367.22 Q183.422 1363.61 181.084 1361.51 Q178.746 1359.4 174.741 1359.4 Q172.866 1359.4 170.991 1359.82 Q169.14 1360.23 167.195 1361.11 L167.195 1343.75 Z" fill="#000000" fill-rule="nonzero" fill-opacity="1" /><path clip-path="url(#clip860)" d="M50.9921 1076.78 L80.6679 1076.78 L80.6679 1080.72 L50.9921 1080.72 L50.9921 1076.78 Z" fill="#000000" fill-rule="nonzero" fill-opacity="1" /><path clip-path="url(#clip860)" d="M100.76 1062.13 Q97.1493 1062.13 95.3206 1065.69 Q93.515 1069.23 93.515 1076.36 Q93.515 1083.47 95.3206 1087.04 Q97.1493 1090.58 100.76 1090.58 Q104.395 1090.58 106.2 1087.04 Q108.029 1083.47 108.029 1076.36 Q108.029 1069.23 106.2 1065.69 Q104.395 1062.13 100.76 1062.13 M100.76 1058.42 Q106.571 1058.42 109.626 1063.03 Q112.705 1067.61 112.705 1076.36 Q112.705 1085.09 109.626 1089.7 Q106.571 1094.28 100.76 1094.28 Q94.9502 1094.28 91.8715 1089.7 Q88.816 1085.09 88.816 1076.36 Q88.816 1067.61 91.8715 1063.03 Q94.9502 1058.42 100.76 1058.42 Z" fill="#000000" fill-rule="nonzero" fill-opacity="1" /><path clip-path="url(#clip860)" d="M120.922 1087.73 L125.807 1087.73 L125.807 1093.61 L120.922 1093.61 L120.922 1087.73 Z" fill="#000000" fill-rule="nonzero" fill-opacity="1" /><path clip-path="url(#clip860)" d="M136.038 1059.05 L154.394 1059.05 L154.394 1062.98 L140.32 1062.98 L140.32 1071.46 Q141.339 1071.11 142.357 1070.95 Q143.376 1070.76 144.394 1070.76 Q150.181 1070.76 153.561 1073.93 Q156.941 1077.1 156.941 1082.52 Q156.941 1088.1 153.468 1091.2 Q149.996 1094.28 143.677 1094.28 Q141.501 1094.28 139.232 1093.91 Q136.987 1093.54 134.58 1092.8 L134.58 1088.1 Q136.663 1089.23 138.885 1089.79 Q141.107 1090.35 143.584 1090.35 Q147.589 1090.35 149.927 1088.24 Q152.265 1086.13 152.265 1082.52 Q152.265 1078.91 149.927 1076.8 Q147.589 1074.7 143.584 1074.7 Q141.709 1074.7 139.834 1075.11 Q137.982 1075.53 136.038 1076.41 L136.038 1059.05 Z" fill="#000000" fill-rule="nonzero" fill-opacity="1" /><path clip-path="url(#clip860)" d="M176.153 1062.13 Q172.542 1062.13 170.714 1065.69 Q168.908 1069.23 168.908 1076.36 Q168.908 1083.47 170.714 1087.04 Q172.542 1090.58 176.153 1090.58 Q179.788 1090.58 181.593 1087.04 Q183.422 1083.47 183.422 1076.36 Q183.422 1069.23 181.593 1065.69 Q179.788 1062.13 176.153 1062.13 M176.153 1058.42 Q181.964 1058.42 185.019 1063.03 Q188.098 1067.61 188.098 1076.36 Q188.098 1085.09 185.019 1089.7 Q181.964 1094.28 176.153 1094.28 Q170.343 1094.28 167.265 1089.7 Q164.209 1085.09 164.209 1076.36 Q164.209 1067.61 167.265 1063.03 Q170.343 1058.42 176.153 1058.42 Z" fill="#000000" fill-rule="nonzero" fill-opacity="1" /><path clip-path="url(#clip860)" d="M51.9875 792.077 L81.6633 792.077 L81.6633 796.012 L51.9875 796.012 L51.9875 792.077 Z" fill="#000000" fill-rule="nonzero" fill-opacity="1" /><path clip-path="url(#clip860)" d="M101.756 777.425 Q98.1447 777.425 96.316 780.989 Q94.5104 784.531 94.5104 791.661 Q94.5104 798.767 96.316 802.332 Q98.1447 805.874 101.756 805.874 Q105.39 805.874 107.196 802.332 Q109.024 798.767 109.024 791.661 Q109.024 784.531 107.196 780.989 Q105.39 777.425 101.756 777.425 M101.756 773.721 Q107.566 773.721 110.621 778.327 Q113.7 782.911 113.7 791.661 Q113.7 800.387 110.621 804.994 Q107.566 809.577 101.756 809.577 Q95.9456 809.577 92.8669 804.994 Q89.8114 800.387 89.8114 791.661 Q89.8114 782.911 92.8669 778.327 Q95.9456 773.721 101.756 773.721 Z" fill="#000000" fill-rule="nonzero" fill-opacity="1" /><path clip-path="url(#clip860)" d="M121.918 803.026 L126.802 803.026 L126.802 808.906 L121.918 808.906 L121.918 803.026 Z" fill="#000000" fill-rule="nonzero" fill-opacity="1" /><path clip-path="url(#clip860)" d="M141.015 804.971 L157.334 804.971 L157.334 808.906 L135.39 808.906 L135.39 804.971 Q138.052 802.216 142.635 797.587 Q147.242 792.934 148.422 791.591 Q150.668 789.068 151.547 787.332 Q152.45 785.573 152.45 783.883 Q152.45 781.128 150.505 779.392 Q148.584 777.656 145.482 777.656 Q143.283 777.656 140.83 778.42 Q138.399 779.184 135.621 780.735 L135.621 776.013 Q138.445 774.878 140.899 774.3 Q143.353 773.721 145.39 773.721 Q150.76 773.721 153.955 776.406 Q157.149 779.091 157.149 783.582 Q157.149 785.712 156.339 787.633 Q155.552 789.531 153.445 792.124 Q152.867 792.795 149.765 796.012 Q146.663 799.207 141.015 804.971 Z" fill="#000000" fill-rule="nonzero" fill-opacity="1" /><path clip-path="url(#clip860)" d="M167.195 774.346 L185.552 774.346 L185.552 778.281 L171.478 778.281 L171.478 786.753 Q172.496 786.406 173.515 786.244 Q174.533 786.059 175.552 786.059 Q181.339 786.059 184.718 789.23 Q188.098 792.401 188.098 797.818 Q188.098 803.397 184.626 806.498 Q181.153 809.577 174.834 809.577 Q172.658 809.577 170.39 809.207 Q168.144 808.836 165.737 808.096 L165.737 803.397 Q167.82 804.531 170.042 805.086 Q172.265 805.642 174.741 805.642 Q178.746 805.642 181.084 803.536 Q183.422 801.429 183.422 797.818 Q183.422 794.207 181.084 792.1 Q178.746 789.994 174.741 789.994 Q172.866 789.994 170.991 790.411 Q169.14 790.827 167.195 791.707 L167.195 774.346 Z" fill="#000000" fill-rule="nonzero" fill-opacity="1" /><path clip-path="url(#clip860)" d="M100.76 492.721 Q97.1493 492.721 95.3206 496.286 Q93.515 499.828 93.515 506.957 Q93.515 514.064 95.3206 517.628 Q97.1493 521.17 100.76 521.17 Q104.395 521.17 106.2 517.628 Q108.029 514.064 108.029 506.957 Q108.029 499.828 106.2 496.286 Q104.395 492.721 100.76 492.721 M100.76 489.017 Q106.571 489.017 109.626 493.624 Q112.705 498.207 112.705 506.957 Q112.705 515.684 109.626 520.29 Q106.571 524.874 100.76 524.874 Q94.9502 524.874 91.8715 520.29 Q88.816 515.684 88.816 506.957 Q88.816 498.207 91.8715 493.624 Q94.9502 489.017 100.76 489.017 Z" fill="#000000" fill-rule="nonzero" fill-opacity="1" /><path clip-path="url(#clip860)" d="M120.922 518.323 L125.807 518.323 L125.807 524.202 L120.922 524.202 L120.922 518.323 Z" fill="#000000" fill-rule="nonzero" fill-opacity="1" /><path clip-path="url(#clip860)" d="M145.992 492.721 Q142.381 492.721 140.552 496.286 Q138.746 499.828 138.746 506.957 Q138.746 514.064 140.552 517.628 Q142.381 521.17 145.992 521.17 Q149.626 521.17 151.431 517.628 Q153.26 514.064 153.26 506.957 Q153.26 499.828 151.431 496.286 Q149.626 492.721 145.992 492.721 M145.992 489.017 Q151.802 489.017 154.857 493.624 Q157.936 498.207 157.936 506.957 Q157.936 515.684 154.857 520.29 Q151.802 524.874 145.992 524.874 Q140.181 524.874 137.103 520.29 Q134.047 515.684 134.047 506.957 Q134.047 498.207 137.103 493.624 Q140.181 489.017 145.992 489.017 Z" fill="#000000" fill-rule="nonzero" fill-opacity="1" /><path clip-path="url(#clip860)" d="M176.153 492.721 Q172.542 492.721 170.714 496.286 Q168.908 499.828 168.908 506.957 Q168.908 514.064 170.714 517.628 Q172.542 521.17 176.153 521.17 Q179.788 521.17 181.593 517.628 Q183.422 514.064 183.422 506.957 Q183.422 499.828 181.593 496.286 Q179.788 492.721 176.153 492.721 M176.153 489.017 Q181.964 489.017 185.019 493.624 Q188.098 498.207 188.098 506.957 Q188.098 515.684 185.019 520.29 Q181.964 524.874 176.153 524.874 Q170.343 524.874 167.265 520.29 Q164.209 515.684 164.209 506.957 Q164.209 498.207 167.265 493.624 Q170.343 489.017 176.153 489.017 Z" fill="#000000" fill-rule="nonzero" fill-opacity="1" /><path clip-path="url(#clip860)" d="M101.756 208.018 Q98.1447 208.018 96.316 211.582 Q94.5104 215.124 94.5104 222.254 Q94.5104 229.36 96.316 232.925 Q98.1447 236.467 101.756 236.467 Q105.39 236.467 107.196 232.925 Q109.024 229.36 109.024 222.254 Q109.024 215.124 107.196 211.582 Q105.39 208.018 101.756 208.018 M101.756 204.314 Q107.566 204.314 110.621 208.92 Q113.7 213.504 113.7 222.254 Q113.7 230.981 110.621 235.587 Q107.566 240.17 101.756 240.17 Q95.9456 240.17 92.8669 235.587 Q89.8114 230.981 89.8114 222.254 Q89.8114 213.504 92.8669 208.92 Q95.9456 204.314 101.756 204.314 Z" fill="#000000" fill-rule="nonzero" fill-opacity="1" /><path clip-path="url(#clip860)" d="M121.918 233.619 L126.802 233.619 L126.802 239.499 L121.918 239.499 L121.918 233.619 Z" fill="#000000" fill-rule="nonzero" fill-opacity="1" /><path clip-path="url(#clip860)" d="M141.015 235.564 L157.334 235.564 L157.334 239.499 L135.39 239.499 L135.39 235.564 Q138.052 232.809 142.635 228.18 Q147.242 223.527 148.422 222.184 Q150.668 219.661 151.547 217.925 Q152.45 216.166 152.45 214.476 Q152.45 211.721 150.505 209.985 Q148.584 208.249 145.482 208.249 Q143.283 208.249 140.83 209.013 Q138.399 209.777 135.621 211.328 L135.621 206.606 Q138.445 205.471 140.899 204.893 Q143.353 204.314 145.39 204.314 Q150.76 204.314 153.955 206.999 Q157.149 209.684 157.149 214.175 Q157.149 216.305 156.339 218.226 Q155.552 220.124 153.445 222.717 Q152.867 223.388 149.765 226.606 Q146.663 229.8 141.015 235.564 Z" fill="#000000" fill-rule="nonzero" fill-opacity="1" /><path clip-path="url(#clip860)" d="M167.195 204.939 L185.552 204.939 L185.552 208.874 L171.478 208.874 L171.478 217.346 Q172.496 216.999 173.515 216.837 Q174.533 216.652 175.552 216.652 Q181.339 216.652 184.718 219.823 Q188.098 222.994 188.098 228.411 Q188.098 233.99 184.626 237.092 Q181.153 240.17 174.834 240.17 Q172.658 240.17 170.39 239.8 Q168.144 239.43 165.737 238.689 L165.737 233.99 Q167.82 235.124 170.042 235.68 Q172.265 236.235 174.741 236.235 Q178.746 236.235 181.084 234.129 Q183.422 232.022 183.422 228.411 Q183.422 224.8 181.084 222.694 Q178.746 220.587 174.741 220.587 Q172.866 220.587 170.991 221.004 Q169.14 221.42 167.195 222.3 L167.195 204.939 Z" fill="#000000" fill-rule="nonzero" fill-opacity="1" /><polyline clip-path="url(#clip862)" style="stroke:#009af9; stroke-linecap:round; stroke-linejoin:round; stroke-width:4; stroke-opacity:1; fill:none" points="284.343,1445.72 304.627,1296.31 324.912,1160.31 345.196,1036.7 365.481,924.548 385.766,822.968 406.05,731.147 426.335,648.328 446.619,573.804 466.904,506.922 487.188,447.074 507.473,393.694 527.757,346.258 548.042,304.28 568.326,267.308 588.611,234.924 608.895,206.74 629.18,182.396 649.464,161.56 669.749,143.923 690.033,129.202 710.318,117.131 730.602,107.469 750.887,99.9888 771.172,94.4838 791.456,90.7622 811.741,88.6473 832.025,87.9763 852.31,88.5993 872.594,90.3786 892.879,93.1871 913.163,96.9086 933.448,101.436 953.732,106.672 974.017,112.526 994.301,118.916 1014.59,125.767 1034.87,133.011 1055.15,140.585 1075.44,148.432 1095.72,156.501 1116.01,164.745 1136.29,173.121 1156.58,181.592 1176.86,190.121 1197.15,198.679 1217.43,207.237 1237.72,215.77 1258,224.257 1278.28,232.676 1298.57,241.011 1318.85,249.245 1339.14,257.367 1359.42,265.363 1379.71,273.224 1399.99,280.94 1420.28,288.505 1440.56,295.913 1460.85,303.157 1481.13,310.235 1501.41,317.143 1521.7,323.879 1541.98,330.441 1562.27,336.828 1582.55,343.04 1602.84,349.078 1623.12,354.941 1643.41,360.632 1663.69,366.152 1683.98,371.502 1704.26,376.685 1724.54,381.704 1744.83,386.56 1765.11,391.257 1785.4,395.798 1805.68,400.186 1825.97,404.425 1846.25,408.517 1866.54,412.466 1886.82,416.275 1907.1,419.949 1927.39,423.49 1947.67,426.903 1967.96,430.19 1988.24,433.356 2008.53,436.403 2028.81,439.337 2049.1,442.159 2069.38,444.873 2089.67,447.483 2109.95,449.993 2130.23,452.404 2150.52,454.722 2170.8,456.948 2191.09,459.085 2211.37,461.138 2231.66,463.109 2251.94,465 2272.23,466.815 2292.51,468.556 "/>
<polyline clip-path="url(#clip862)" style="stroke:#000000; stroke-linecap:round; stroke-linejoin:round; stroke-width:4; stroke-opacity:1; fill:none" stroke-dasharray="16, 10" points="284.343,506.922 2292.51,506.922 "/>
</svg>
