<?xml version="1.0" encoding="utf-8"?>
<svg xmlns="http://www.w3.org/2000/svg" xmlns:xlink="http://www.w3.org/1999/xlink" width="600" height="400" viewBox="0 0 2400 1600">
<defs>
  <clipPath id="clip290">
    <rect x="0" y="0" width="2400" height="1600"/>
  </clipPath>
</defs>
<path clip-path="url(#clip290)" d="M0 1600 L2400 1600 L2400 0 L0 0  Z" fill="#ffffff" fill-rule="evenodd" fill-opacity="1"/>
<defs>
  <clipPath id="clip291">
    <rect x="480" y="0" width="1681" height="1600"/>
  </clipPath>
</defs>
<path clip-path="url(#clip290)" d="M192.339 1486.45 L2352.76 1486.45 L2352.76 47.2441 L192.339 47.2441  Z" fill="#ffffff" fill-rule="evenodd" fill-opacity="1"/>
<defs>
  <clipPath id="clip292">
    <rect x="192" y="47" width="2161" height="1440"/>
  </clipPath>
</defs>
<polyline clip-path="url(#clip292)" style="stroke:#000000; stroke-linecap:round; stroke-linejoin:round; stroke-width:2; stroke-opacity:0.1; fill:none" points="423.327,1486.45 423.327,47.2441 "/>
<polyline clip-path="url(#clip292)" style="stroke:#000000; stroke-linecap:round; stroke-linejoin:round; stroke-width:2; stroke-opacity:0.1; fill:none" points="847.937,1486.45 847.937,47.2441 "/>
<polyline clip-path="url(#clip292)" style="stroke:#000000; stroke-linecap:round; stroke-linejoin:round; stroke-width:2; stroke-opacity:0.1; fill:none" points="1272.55,1486.45 1272.55,47.2441 "/>
<polyline clip-path="url(#clip292)" style="stroke:#000000; stroke-linecap:round; stroke-linejoin:round; stroke-width:2; stroke-opacity:0.1; fill:none" points="1697.16,1486.45 1697.16,47.2441 "/>
<polyline clip-path="url(#clip292)" style="stroke:#000000; stroke-linecap:round; stroke-linejoin:round; stroke-width:2; stroke-opacity:0.1; fill:none" points="2121.77,1486.45 2121.77,47.2441 "/>
<polyline clip-path="url(#clip290)" style="stroke:#000000; stroke-linecap:round; stroke-linejoin:round; stroke-width:4; stroke-opacity:1; fill:none" points="192.339,1486.45 2352.76,1486.45 "/>
<polyline clip-path="url(#clip290)" style="stroke:#000000; stroke-linecap:round; stroke-linejoin:round; stroke-width:2; stroke-opacity:0.5; fill:none" points="192.339,47.2441 2352.76,47.2441 "/>
<polyline clip-path="url(#clip290)" style="stroke:#000000; stroke-linecap:round; stroke-linejoin:round; stroke-width:4; stroke-opacity:1; fill:none" points="423.327,1486.45 423.327,1467.55 "/>
<polyline clip-path="url(#clip290)" style="stroke:#000000; stroke-linecap:round; stroke-linejoin:round; stroke-width:4; stroke-opacity:1; fill:none" points="847.937,1486.45 847.937,1467.55 "/>
<polyline clip-path="url(#clip290)" style="stroke:#000000; stroke-linecap:round; stroke-linejoin:round; stroke-width:4; stroke-opacity:1; fill:none" points="1272.55,1486.45 1272.55,1467.55 "/>
<polyline clip-path="url(#clip290)" style="stroke:#000000; stroke-linecap:round; stroke-linejoin:round; stroke-width:4; stroke-opacity:1; fill:none" points="1697.16,1486.45 1697.16,1467.55 "/>
<polyline clip-path="url(#clip290)" style="stroke:#000000; stroke-linecap:round; stroke-linejoin:round; stroke-width:4; stroke-opacity:1; fill:none" points="2121.77,1486.45 2121.77,1467.55 "/>
<path clip-path="url(#clip290)" d="M375.399 1544.91 L383.038 1544.91 L383.038 1518.55 L374.728 1520.21 L374.728 1515.95 L382.991 1514.29 L387.667 1514.29 L387.667 1544.91 L395.306 1544.91 L395.306 1548.85 L375.399 1548.85 L375.399 1544.91 Z" fill="#000000" fill-rule="nonzero" fill-opacity="1" /><path clip-path="url(#clip290)" d="M404.75 1542.97 L409.635 1542.97 L409.635 1548.85 L404.75 1548.85 L404.75 1542.97 Z" fill="#000000" fill-rule="nonzero" fill-opacity="1" /><path clip-path="url(#clip290)" d="M429.82 1517.37 Q426.209 1517.37 424.38 1520.93 Q422.574 1524.47 422.574 1531.6 Q422.574 1538.71 424.38 1542.27 Q426.209 1545.82 429.82 1545.82 Q433.454 1545.82 435.26 1542.27 Q437.088 1538.71 437.088 1531.6 Q437.088 1524.47 435.26 1520.93 Q433.454 1517.37 429.82 1517.37 M429.82 1513.66 Q435.63 1513.66 438.685 1518.27 Q441.764 1522.85 441.764 1531.6 Q441.764 1540.33 438.685 1544.94 Q435.63 1549.52 429.82 1549.52 Q424.01 1549.52 420.931 1544.94 Q417.875 1540.33 417.875 1531.6 Q417.875 1522.85 420.931 1518.27 Q424.01 1513.66 429.82 1513.66 Z" fill="#000000" fill-rule="nonzero" fill-opacity="1" /><path clip-path="url(#clip290)" d="M459.982 1517.37 Q456.371 1517.37 454.542 1520.93 Q452.736 1524.47 452.736 1531.6 Q452.736 1538.71 454.542 1542.27 Q456.371 1545.82 459.982 1545.82 Q463.616 1545.82 465.421 1542.27 Q467.25 1538.71 467.25 1531.6 Q467.25 1524.47 465.421 1520.93 Q463.616 1517.37 459.982 1517.37 M459.982 1513.66 Q465.792 1513.66 468.847 1518.27 Q471.926 1522.85 471.926 1531.6 Q471.926 1540.33 468.847 1544.94 Q465.792 1549.52 459.982 1549.52 Q454.172 1549.52 451.093 1544.94 Q448.037 1540.33 448.037 1531.6 Q448.037 1522.85 451.093 1518.27 Q454.172 1513.66 459.982 1513.66 Z" fill="#000000" fill-rule="nonzero" fill-opacity="1" /><path clip-path="url(#clip290)" d="M800.507 1544.91 L808.146 1544.91 L808.146 1518.55 L799.835 1520.21 L799.835 1515.95 L808.099 1514.29 L812.775 1514.29 L812.775 1544.91 L820.414 1544.91 L820.414 1548.85 L800.507 1548.85 L800.507 1544.91 Z" fill="#000000" fill-rule="nonzero" fill-opacity="1" /><path clip-path="url(#clip290)" d="M829.858 1542.97 L834.743 1542.97 L834.743 1548.85 L829.858 1548.85 L829.858 1542.97 Z" fill="#000000" fill-rule="nonzero" fill-opacity="1" /><path clip-path="url(#clip290)" d="M848.956 1544.91 L865.275 1544.91 L865.275 1548.85 L843.331 1548.85 L843.331 1544.91 Q845.993 1542.16 850.576 1537.53 Q855.182 1532.88 856.363 1531.53 Q858.608 1529.01 859.488 1527.27 Q860.391 1525.51 860.391 1523.82 Q860.391 1521.07 858.446 1519.33 Q856.525 1517.6 853.423 1517.6 Q851.224 1517.6 848.77 1518.36 Q846.34 1519.13 843.562 1520.68 L843.562 1515.95 Q846.386 1514.82 848.84 1514.24 Q851.294 1513.66 853.331 1513.66 Q858.701 1513.66 861.895 1516.35 Q865.09 1519.03 865.09 1523.52 Q865.09 1525.65 864.28 1527.57 Q863.493 1529.47 861.386 1532.07 Q860.807 1532.74 857.706 1535.95 Q854.604 1539.15 848.956 1544.91 Z" fill="#000000" fill-rule="nonzero" fill-opacity="1" /><path clip-path="url(#clip290)" d="M875.136 1514.29 L893.492 1514.29 L893.492 1518.22 L879.418 1518.22 L879.418 1526.7 Q880.437 1526.35 881.455 1526.19 Q882.474 1526 883.492 1526 Q889.279 1526 892.659 1529.17 Q896.039 1532.34 896.039 1537.76 Q896.039 1543.34 892.566 1546.44 Q889.094 1549.52 882.775 1549.52 Q880.599 1549.52 878.33 1549.15 Q876.085 1548.78 873.678 1548.04 L873.678 1543.34 Q875.761 1544.47 877.983 1545.03 Q880.205 1545.58 882.682 1545.58 Q886.687 1545.58 889.025 1543.48 Q891.363 1541.37 891.363 1537.76 Q891.363 1534.15 889.025 1532.04 Q886.687 1529.94 882.682 1529.94 Q880.807 1529.94 878.932 1530.35 Q877.08 1530.77 875.136 1531.65 L875.136 1514.29 Z" fill="#000000" fill-rule="nonzero" fill-opacity="1" /><path clip-path="url(#clip290)" d="M1224.62 1544.91 L1232.26 1544.91 L1232.26 1518.55 L1223.95 1520.21 L1223.95 1515.95 L1232.21 1514.29 L1236.89 1514.29 L1236.89 1544.91 L1244.53 1544.91 L1244.53 1548.85 L1224.62 1548.85 L1224.62 1544.91 Z" fill="#000000" fill-rule="nonzero" fill-opacity="1" /><path clip-path="url(#clip290)" d="M1253.97 1542.97 L1258.86 1542.97 L1258.86 1548.85 L1253.97 1548.85 L1253.97 1542.97 Z" fill="#000000" fill-rule="nonzero" fill-opacity="1" /><path clip-path="url(#clip290)" d="M1269.09 1514.29 L1287.44 1514.29 L1287.44 1518.22 L1273.37 1518.22 L1273.37 1526.7 Q1274.39 1526.35 1275.41 1526.19 Q1276.42 1526 1277.44 1526 Q1283.23 1526 1286.61 1529.17 Q1289.99 1532.34 1289.99 1537.76 Q1289.99 1543.34 1286.52 1546.44 Q1283.04 1549.52 1276.73 1549.52 Q1274.55 1549.52 1272.28 1549.15 Q1270.04 1548.78 1267.63 1548.04 L1267.63 1543.34 Q1269.71 1544.47 1271.93 1545.03 Q1274.16 1545.58 1276.63 1545.58 Q1280.64 1545.58 1282.98 1543.48 Q1285.31 1541.37 1285.31 1537.76 Q1285.31 1534.15 1282.98 1532.04 Q1280.64 1529.94 1276.63 1529.94 Q1274.76 1529.94 1272.88 1530.35 Q1271.03 1530.77 1269.09 1531.65 L1269.09 1514.29 Z" fill="#000000" fill-rule="nonzero" fill-opacity="1" /><path clip-path="url(#clip290)" d="M1309.2 1517.37 Q1305.59 1517.37 1303.76 1520.93 Q1301.96 1524.47 1301.96 1531.6 Q1301.96 1538.71 1303.76 1542.27 Q1305.59 1545.82 1309.2 1545.82 Q1312.84 1545.82 1314.64 1542.27 Q1316.47 1538.71 1316.47 1531.6 Q1316.47 1524.47 1314.64 1520.93 Q1312.84 1517.37 1309.2 1517.37 M1309.2 1513.66 Q1315.01 1513.66 1318.07 1518.27 Q1321.15 1522.85 1321.15 1531.6 Q1321.15 1540.33 1318.07 1544.94 Q1315.01 1549.52 1309.2 1549.52 Q1303.39 1549.52 1300.31 1544.94 Q1297.26 1540.33 1297.26 1531.6 Q1297.26 1522.85 1300.31 1518.27 Q1303.39 1513.66 1309.2 1513.66 Z" fill="#000000" fill-rule="nonzero" fill-opacity="1" /><path clip-path="url(#clip290)" d="M1649.73 1544.91 L1657.37 1544.91 L1657.37 1518.55 L1649.06 1520.21 L1649.06 1515.95 L1657.32 1514.29 L1662 1514.29 L1662 1544.91 L1669.63 1544.91 L1669.63 1548.85 L1649.73 1548.85 L1649.73 1544.91 Z" fill="#000000" fill-rule="nonzero" fill-opacity="1" /><path clip-path="url(#clip290)" d="M1679.08 1542.97 L1683.96 1542.97 L1683.96 1548.85 L1679.08 1548.85 L1679.08 1542.97 Z" fill="#000000" fill-rule="nonzero" fill-opacity="1" /><path clip-path="url(#clip290)" d="M1692.97 1514.29 L1715.19 1514.29 L1715.19 1516.28 L1702.64 1548.85 L1697.76 1548.85 L1709.56 1518.22 L1692.97 1518.22 L1692.97 1514.29 Z" fill="#000000" fill-rule="nonzero" fill-opacity="1" /><path clip-path="url(#clip290)" d="M1724.36 1514.29 L1742.71 1514.29 L1742.71 1518.22 L1728.64 1518.22 L1728.64 1526.7 Q1729.66 1526.35 1730.68 1526.19 Q1731.69 1526 1732.71 1526 Q1738.5 1526 1741.88 1529.17 Q1745.26 1532.34 1745.26 1537.76 Q1745.26 1543.34 1741.79 1546.44 Q1738.31 1549.52 1732 1549.52 Q1729.82 1549.52 1727.55 1549.15 Q1725.31 1548.78 1722.9 1548.04 L1722.9 1543.34 Q1724.98 1544.47 1727.2 1545.03 Q1729.43 1545.58 1731.9 1545.58 Q1735.91 1545.58 1738.25 1543.48 Q1740.58 1541.37 1740.58 1537.76 Q1740.58 1534.15 1738.25 1532.04 Q1735.91 1529.94 1731.9 1529.94 Q1730.03 1529.94 1728.15 1530.35 Q1726.3 1530.77 1724.36 1531.65 L1724.36 1514.29 Z" fill="#000000" fill-rule="nonzero" fill-opacity="1" /><path clip-path="url(#clip290)" d="M2077.93 1544.91 L2094.24 1544.91 L2094.24 1548.85 L2072.3 1548.85 L2072.3 1544.91 Q2074.96 1542.16 2079.55 1537.53 Q2084.15 1532.88 2085.33 1531.53 Q2087.58 1529.01 2088.46 1527.27 Q2089.36 1525.51 2089.36 1523.82 Q2089.36 1521.07 2087.42 1519.33 Q2085.49 1517.6 2082.39 1517.6 Q2080.19 1517.6 2077.74 1518.36 Q2075.31 1519.13 2072.53 1520.68 L2072.53 1515.95 Q2075.36 1514.82 2077.81 1514.24 Q2080.26 1513.66 2082.3 1513.66 Q2087.67 1513.66 2090.87 1516.35 Q2094.06 1519.03 2094.06 1523.52 Q2094.06 1525.65 2093.25 1527.57 Q2092.46 1529.47 2090.36 1532.07 Q2089.78 1532.74 2086.68 1535.95 Q2083.57 1539.15 2077.93 1544.91 Z" fill="#000000" fill-rule="nonzero" fill-opacity="1" /><path clip-path="url(#clip290)" d="M2104.06 1542.97 L2108.94 1542.97 L2108.94 1548.85 L2104.06 1548.85 L2104.06 1542.97 Z" fill="#000000" fill-rule="nonzero" fill-opacity="1" /><path clip-path="url(#clip290)" d="M2129.13 1517.37 Q2125.52 1517.37 2123.69 1520.93 Q2121.88 1524.47 2121.88 1531.6 Q2121.88 1538.71 2123.69 1542.27 Q2125.52 1545.82 2129.13 1545.82 Q2132.76 1545.82 2134.57 1542.27 Q2136.4 1538.71 2136.4 1531.6 Q2136.4 1524.47 2134.57 1520.93 Q2132.76 1517.37 2129.13 1517.37 M2129.13 1513.66 Q2134.94 1513.66 2137.99 1518.27 Q2141.07 1522.85 2141.07 1531.6 Q2141.07 1540.33 2137.99 1544.94 Q2134.94 1549.52 2129.13 1549.52 Q2123.32 1549.52 2120.24 1544.94 Q2117.18 1540.33 2117.18 1531.6 Q2117.18 1522.85 2120.24 1518.27 Q2123.32 1513.66 2129.13 1513.66 Z" fill="#000000" fill-rule="nonzero" fill-opacity="1" /><path clip-path="url(#clip290)" d="M2159.29 1517.37 Q2155.68 1517.37 2153.85 1520.93 Q2152.05 1524.47 2152.05 1531.6 Q2152.05 1538.71 2153.85 1542.27 Q2155.68 1545.82 2159.29 1545.82 Q2162.93 1545.82 2164.73 1542.27 Q2166.56 1538.71 2166.56 1531.6 Q2166.56 1524.47 2164.73 1520.93 Q2162.93 1517.37 2159.29 1517.37 M2159.29 1513.66 Q2165.1 1513.66 2168.16 1518.27 Q2171.24 1522.85 2171.24 1531.6 Q2171.24 1540.33 2168.16 1544.94 Q2165.1 1549.52 2159.29 1549.52 Q2153.48 1549.52 2150.4 1544.94 Q2147.35 1540.33 2147.35 1531.6 Q2147.35 1522.85 2150.4 1518.27 Q2153.48 1513.66 2159.29 1513.66 Z" fill="#000000" fill-rule="nonzero" fill-opacity="1" /><polyline clip-path="url(#clip292)" style="stroke:#000000; stroke-linecap:round; stroke-linejoin:round; stroke-width:2; stroke-opacity:0.1; fill:none" points="192.339,1346.75 2352.76,1346.75 "/>
<polyline clip-path="url(#clip292)" style="stroke:#000000; stroke-linecap:round; stroke-linejoin:round; stroke-width:2; stroke-opacity:0.1; fill:none" points="192.339,1038.61 2352.76,1038.61 "/>
<polyline clip-path="url(#clip292)" style="stroke:#000000; stroke-linecap:round; stroke-linejoin:round; stroke-width:2; stroke-opacity:0.1; fill:none" points="192.339,730.466 2352.76,730.466 "/>
<polyline clip-path="url(#clip292)" style="stroke:#000000; stroke-linecap:round; stroke-linejoin:round; stroke-width:2; stroke-opacity:0.1; fill:none" points="192.339,422.322 2352.76,422.322 "/>
<polyline clip-path="url(#clip292)" style="stroke:#000000; stroke-linecap:round; stroke-linejoin:round; stroke-width:2; stroke-opacity:0.1; fill:none" points="192.339,114.179 2352.76,114.179 "/>
<polyline clip-path="url(#clip290)" style="stroke:#000000; stroke-linecap:round; stroke-linejoin:round; stroke-width:4; stroke-opacity:1; fill:none" points="192.339,1486.45 192.339,47.2441 "/>
<polyline clip-path="url(#clip290)" style="stroke:#000000; stroke-linecap:round; stroke-linejoin:round; stroke-width:2; stroke-opacity:0.5; fill:none" points="2352.76,1486.45 2352.76,47.2441 "/>
<polyline clip-path="url(#clip290)" style="stroke:#000000; stroke-linecap:round; stroke-linejoin:round; stroke-width:4; stroke-opacity:1; fill:none" points="192.339,1346.75 211.236,1346.75 "/>
<polyline clip-path="url(#clip290)" style="stroke:#000000; stroke-linecap:round; stroke-linejoin:round; stroke-width:4; stroke-opacity:1; fill:none" points="192.339,1038.61 211.236,1038.61 "/>
<polyline clip-path="url(#clip290)" style="stroke:#000000; stroke-linecap:round; stroke-linejoin:round; stroke-width:4; stroke-opacity:1; fill:none" points="192.339,730.466 211.236,730.466 "/>
<polyline clip-path="url(#clip290)" style="stroke:#000000; stroke-linecap:round; stroke-linejoin:round; stroke-width:4; stroke-opacity:1; fill:none" points="192.339,422.322 211.236,422.322 "/>
<polyline clip-path="url(#clip290)" style="stroke:#000000; stroke-linecap:round; stroke-linejoin:round; stroke-width:4; stroke-opacity:1; fill:none" points="192.339,114.179 211.236,114.179 "/>
<path clip-path="url(#clip290)" d="M50.9921 1347.2 L80.6679 1347.2 L80.6679 1351.14 L50.9921 1351.14 L50.9921 1347.2 Z" fill="#000000" fill-rule="nonzero" fill-opacity="1" /><path clip-path="url(#clip290)" d="M100.76 1332.55 Q97.1493 1332.55 95.3206 1336.12 Q93.515 1339.66 93.515 1346.79 Q93.515 1353.89 95.3206 1357.46 Q97.1493 1361 100.76 1361 Q104.395 1361 106.2 1357.46 Q108.029 1353.89 108.029 1346.79 Q108.029 1339.66 106.2 1336.12 Q104.395 1332.55 100.76 1332.55 M100.76 1328.85 Q106.571 1328.85 109.626 1333.45 Q112.705 1338.04 112.705 1346.79 Q112.705 1355.51 109.626 1360.12 Q106.571 1364.7 100.76 1364.7 Q94.9502 1364.7 91.8715 1360.12 Q88.816 1355.51 88.816 1346.79 Q88.816 1338.04 91.8715 1333.45 Q94.9502 1328.85 100.76 1328.85 Z" fill="#000000" fill-rule="nonzero" fill-opacity="1" /><path clip-path="url(#clip290)" d="M120.922 1358.15 L125.807 1358.15 L125.807 1364.03 L120.922 1364.03 L120.922 1358.15 Z" fill="#000000" fill-rule="nonzero" fill-opacity="1" /><path clip-path="url(#clip290)" d="M140.019 1360.1 L156.339 1360.1 L156.339 1364.03 L134.394 1364.03 L134.394 1360.1 Q137.056 1357.34 141.64 1352.71 Q146.246 1348.06 147.427 1346.72 Q149.672 1344.2 150.552 1342.46 Q151.455 1340.7 151.455 1339.01 Q151.455 1336.26 149.51 1334.52 Q147.589 1332.78 144.487 1332.78 Q142.288 1332.78 139.834 1333.55 Q137.404 1334.31 134.626 1335.86 L134.626 1331.14 Q137.45 1330.01 139.904 1329.43 Q142.357 1328.85 144.394 1328.85 Q149.765 1328.85 152.959 1331.53 Q156.154 1334.22 156.154 1338.71 Q156.154 1340.84 155.343 1342.76 Q154.556 1344.66 152.45 1347.25 Q151.871 1347.92 148.769 1351.14 Q145.668 1354.33 140.019 1360.1 Z" fill="#000000" fill-rule="nonzero" fill-opacity="1" /><path clip-path="url(#clip290)" d="M99.1632 1024.41 Q95.5521 1024.41 93.7234 1027.97 Q91.9178 1031.51 91.9178 1038.64 Q91.9178 1045.75 93.7234 1049.32 Q95.5521 1052.86 99.1632 1052.86 Q102.797 1052.86 104.603 1049.32 Q106.432 1045.75 106.432 1038.64 Q106.432 1031.51 104.603 1027.97 Q102.797 1024.41 99.1632 1024.41 M99.1632 1020.7 Q104.973 1020.7 108.029 1025.31 Q111.108 1029.89 111.108 1038.64 Q111.108 1047.37 108.029 1051.98 Q104.973 1056.56 99.1632 1056.56 Q93.353 1056.56 90.2743 1051.98 Q87.2188 1047.37 87.2188 1038.64 Q87.2188 1029.89 90.2743 1025.31 Q93.353 1020.7 99.1632 1020.7 Z" fill="#000000" fill-rule="nonzero" fill-opacity="1" /><path clip-path="url(#clip290)" d="M119.325 1050.01 L124.209 1050.01 L124.209 1055.89 L119.325 1055.89 L119.325 1050.01 Z" fill="#000000" fill-rule="nonzero" fill-opacity="1" /><path clip-path="url(#clip290)" d="M144.394 1024.41 Q140.783 1024.41 138.955 1027.97 Q137.149 1031.51 137.149 1038.64 Q137.149 1045.75 138.955 1049.32 Q140.783 1052.86 144.394 1052.86 Q148.029 1052.86 149.834 1049.32 Q151.663 1045.75 151.663 1038.64 Q151.663 1031.51 149.834 1027.97 Q148.029 1024.41 144.394 1024.41 M144.394 1020.7 Q150.205 1020.7 153.26 1025.31 Q156.339 1029.89 156.339 1038.64 Q156.339 1047.37 153.26 1051.98 Q150.205 1056.56 144.394 1056.56 Q138.584 1056.56 135.506 1051.98 Q132.45 1047.37 132.45 1038.64 Q132.45 1029.89 135.506 1025.31 Q138.584 1020.7 144.394 1020.7 Z" fill="#000000" fill-rule="nonzero" fill-opacity="1" /><path clip-path="url(#clip290)" d="M100.76 716.265 Q97.1493 716.265 95.3206 719.829 Q93.515 723.371 93.515 730.501 Q93.515 737.607 95.3206 741.172 Q97.1493 744.714 100.76 744.714 Q104.395 744.714 106.2 741.172 Q108.029 737.607 108.029 730.501 Q108.029 723.371 106.2 719.829 Q104.395 716.265 100.76 716.265 M100.76 712.561 Q106.571 712.561 109.626 717.167 Q112.705 721.751 112.705 730.501 Q112.705 739.227 109.626 743.834 Q106.571 748.417 100.76 748.417 Q94.9502 748.417 91.8715 743.834 Q88.816 739.227 88.816 730.501 Q88.816 721.751 91.8715 717.167 Q94.9502 712.561 100.76 712.561 Z" fill="#000000" fill-rule="nonzero" fill-opacity="1" /><path clip-path="url(#clip290)" d="M120.922 741.866 L125.807 741.866 L125.807 747.746 L120.922 747.746 L120.922 741.866 Z" fill="#000000" fill-rule="nonzero" fill-opacity="1" /><path clip-path="url(#clip290)" d="M140.019 743.811 L156.339 743.811 L156.339 747.746 L134.394 747.746 L134.394 743.811 Q137.056 741.056 141.64 736.427 Q146.246 731.774 147.427 730.431 Q149.672 727.908 150.552 726.172 Q151.455 724.413 151.455 722.723 Q151.455 719.968 149.51 718.232 Q147.589 716.496 144.487 716.496 Q142.288 716.496 139.834 717.26 Q137.404 718.024 134.626 719.575 L134.626 714.853 Q137.45 713.718 139.904 713.14 Q142.357 712.561 144.394 712.561 Q149.765 712.561 152.959 715.246 Q156.154 717.931 156.154 722.422 Q156.154 724.552 155.343 726.473 Q154.556 728.371 152.45 730.964 Q151.871 731.635 148.769 734.852 Q145.668 738.047 140.019 743.811 Z" fill="#000000" fill-rule="nonzero" fill-opacity="1" /><path clip-path="url(#clip290)" d="M98.6771 408.121 Q95.066 408.121 93.2373 411.686 Q91.4317 415.227 91.4317 422.357 Q91.4317 429.463 93.2373 433.028 Q95.066 436.57 98.6771 436.57 Q102.311 436.57 104.117 433.028 Q105.946 429.463 105.946 422.357 Q105.946 415.227 104.117 411.686 Q102.311 408.121 98.6771 408.121 M98.6771 404.417 Q104.487 404.417 107.543 409.024 Q110.621 413.607 110.621 422.357 Q110.621 431.084 107.543 435.69 Q104.487 440.274 98.6771 440.274 Q92.8669 440.274 89.7882 435.69 Q86.7327 431.084 86.7327 422.357 Q86.7327 413.607 89.7882 409.024 Q92.8669 404.417 98.6771 404.417 Z" fill="#000000" fill-rule="nonzero" fill-opacity="1" /><path clip-path="url(#clip290)" d="M118.839 433.723 L123.723 433.723 L123.723 439.602 L118.839 439.602 L118.839 433.723 Z" fill="#000000" fill-rule="nonzero" fill-opacity="1" /><path clip-path="url(#clip290)" d="M146.756 409.116 L134.95 427.565 L146.756 427.565 L146.756 409.116 M145.529 405.042 L151.408 405.042 L151.408 427.565 L156.339 427.565 L156.339 431.454 L151.408 431.454 L151.408 439.602 L146.756 439.602 L146.756 431.454 L131.154 431.454 L131.154 426.94 L145.529 405.042 Z" fill="#000000" fill-rule="nonzero" fill-opacity="1" /><path clip-path="url(#clip290)" d="M99.0011 99.9772 Q95.39 99.9772 93.5613 103.542 Q91.7558 107.084 91.7558 114.213 Q91.7558 121.32 93.5613 124.885 Q95.39 128.426 99.0011 128.426 Q102.635 128.426 104.441 124.885 Q106.27 121.32 106.27 114.213 Q106.27 107.084 104.441 103.542 Q102.635 99.9772 99.0011 99.9772 M99.0011 96.2736 Q104.811 96.2736 107.867 100.88 Q110.946 105.463 110.946 114.213 Q110.946 122.94 107.867 127.547 Q104.811 132.13 99.0011 132.13 Q93.191 132.13 90.1123 127.547 Q87.0567 122.94 87.0567 114.213 Q87.0567 105.463 90.1123 100.88 Q93.191 96.2736 99.0011 96.2736 Z" fill="#000000" fill-rule="nonzero" fill-opacity="1" /><path clip-path="url(#clip290)" d="M119.163 125.579 L124.047 125.579 L124.047 131.459 L119.163 131.459 L119.163 125.579 Z" fill="#000000" fill-rule="nonzero" fill-opacity="1" /><path clip-path="url(#clip290)" d="M144.811 112.315 Q141.663 112.315 139.811 114.468 Q137.982 116.621 137.982 120.371 Q137.982 124.097 139.811 126.273 Q141.663 128.426 144.811 128.426 Q147.959 128.426 149.788 126.273 Q151.64 124.097 151.64 120.371 Q151.64 116.621 149.788 114.468 Q147.959 112.315 144.811 112.315 M154.093 97.6624 L154.093 101.922 Q152.334 101.088 150.529 100.649 Q148.746 100.209 146.987 100.209 Q142.357 100.209 139.904 103.334 Q137.473 106.459 137.126 112.778 Q138.492 110.764 140.552 109.699 Q142.612 108.611 145.089 108.611 Q150.297 108.611 153.306 111.783 Q156.339 114.931 156.339 120.371 Q156.339 125.695 153.191 128.912 Q150.043 132.13 144.811 132.13 Q138.816 132.13 135.644 127.547 Q132.473 122.94 132.473 114.213 Q132.473 106.019 136.362 101.158 Q140.251 96.2736 146.802 96.2736 Q148.561 96.2736 150.343 96.6208 Q152.149 96.968 154.093 97.6624 Z" fill="#000000" fill-rule="nonzero" fill-opacity="1" /><polyline clip-path="url(#clip292)" style="stroke:#000000; stroke-linecap:round; stroke-linejoin:round; stroke-width:4; stroke-opacity:1; fill:none" stroke-dasharray="16, 10" points="253.483,1038.61 2291.61,1038.61 "/>
<polyline clip-path="url(#clip292)" style="stroke:#0000ff; stroke-linecap:round; stroke-linejoin:round; stroke-width:4; stroke-opacity:1; fill:none" points="253.483,143.719 274.07,140.66 294.657,137.892 315.244,135.419 335.831,133.241 356.418,131.361 377.006,129.779 397.593,128.497 418.18,127.517 438.767,126.84 459.354,126.469 479.941,126.403 500.529,126.645 521.116,127.196 541.703,128.057 562.29,129.23 582.877,130.716 603.464,132.517 624.052,134.633 644.639,137.066 665.226,139.816 685.813,142.886 706.4,146.276 726.987,149.987 747.575,154.021 768.162,158.378 788.749,163.06 809.336,168.066 829.923,173.4 850.51,179.06 871.098,185.049 891.685,191.366 912.272,198.013 932.859,204.991 953.446,212.3 974.033,219.942 994.621,227.915 1015.21,236.223 1035.79,244.864 1056.38,253.84 1076.97,263.15 1097.56,272.797 1118.14,282.78 1138.73,293.099 1159.32,303.755 1179.91,314.749 1200.49,326.08 1221.08,337.75 1241.67,349.758 1262.25,362.104 1282.84,374.79 1303.43,387.815 1324.02,401.178 1344.6,414.881 1365.19,428.924 1385.78,443.306 1406.36,458.028 1426.95,473.089 1447.54,488.49 1468.13,504.23 1488.71,520.31 1509.3,536.728 1529.89,553.486 1550.47,570.583 1571.06,588.018 1591.65,605.791 1612.24,623.902 1632.82,642.351 1653.41,661.138 1674,680.261 1694.58,699.721 1715.17,719.516 1735.76,739.648 1756.35,760.114 1776.93,780.914 1797.52,802.049 1818.11,823.516 1838.69,845.316 1859.28,867.448 1879.87,889.91 1900.46,912.703 1921.04,935.826 1941.63,959.277 1962.22,983.056 1982.8,1007.16 2003.39,1031.59 2023.98,1056.35 2044.57,1081.43 2065.15,1106.84 2085.74,1132.56 2106.33,1158.61 2126.91,1184.98 2147.5,1211.66 2168.09,1238.67 2188.68,1265.99 2209.26,1293.62 2229.85,1321.57 2250.44,1349.83 2271.02,1378.41 2291.61,1407.29 "/>
<polyline clip-path="url(#clip292)" style="stroke:#ff0000; stroke-linecap:round; stroke-linejoin:round; stroke-width:4; stroke-opacity:1; fill:none" points="2121.77,1178.36 423.327,127.319 1895.94,1038.61 "/>
<circle clip-path="url(#clip292)" cx="2121.77" cy="1178.36" r="7.2" fill="#ff0000" fill-rule="evenodd" fill-opacity="1" stroke="none"/>
<circle clip-path="url(#clip292)" cx="423.327" cy="127.319" r="7.2" fill="#ff0000" fill-rule="evenodd" fill-opacity="1" stroke="none"/>
<circle clip-path="url(#clip292)" cx="1895.94" cy="1038.61" r="7.2" fill="#ff0000" fill-rule="evenodd" fill-opacity="1" stroke="none"/>
<polyline clip-path="url(#clip292)" style="stroke:#000000; stroke-linecap:round; stroke-linejoin:round; stroke-width:2; stroke-opacity:1; fill:none" stroke-dasharray="8, 5" points="423.327,1445.72 423.327,87.9763 "/>
<polyline clip-path="url(#clip292)" style="stroke:#ff0000; stroke-linecap:round; stroke-linejoin:round; stroke-width:4; stroke-opacity:1; fill:none" points="1895.94,907.677 2121.77,1178.36 2005.18,1038.61 "/>
<circle clip-path="url(#clip292)" cx="1895.94" cy="907.677" r="7.2" fill="#ff0000" fill-rule="evenodd" fill-opacity="1" stroke="none"/>
<circle clip-path="url(#clip292)" cx="2121.77" cy="1178.36" r="7.2" fill="#ff0000" fill-rule="evenodd" fill-opacity="1" stroke="none"/>
<circle clip-path="url(#clip292)" cx="2005.18" cy="1038.61" r="7.2" fill="#ff0000" fill-rule="evenodd" fill-opacity="1" stroke="none"/>
<polyline clip-path="url(#clip292)" style="stroke:#000000; stroke-linecap:round; stroke-linejoin:round; stroke-width:2; stroke-opacity:1; fill:none" stroke-dasharray="8, 5" points="2121.77,1445.72 2121.77,87.9763 "/>
<polyline clip-path="url(#clip292)" style="stroke:#ff0000; stroke-linecap:round; stroke-linejoin:round; stroke-width:4; stroke-opacity:1; fill:none" points="2005.18,1033.73 1895.94,907.677 2009.41,1038.61 "/>
<circle clip-path="url(#clip292)" cx="2005.18" cy="1033.73" r="7.2" fill="#ff0000" fill-rule="evenodd" fill-opacity="1" stroke="none"/>
<circle clip-path="url(#clip292)" cx="1895.94" cy="907.677" r="7.2" fill="#ff0000" fill-rule="evenodd" fill-opacity="1" stroke="none"/>
<circle clip-path="url(#clip292)" cx="2009.41" cy="1038.61" r="7.2" fill="#ff0000" fill-rule="evenodd" fill-opacity="1" stroke="none"/>
<polyline clip-path="url(#clip292)" style="stroke:#000000; stroke-linecap:round; stroke-linejoin:round; stroke-width:2; stroke-opacity:1; fill:none" stroke-dasharray="8, 5" points="1895.94,1445.72 1895.94,87.9763 "/>
<polyline clip-path="url(#clip292)" style="stroke:#ff0000; stroke-linecap:round; stroke-linejoin:round; stroke-width:4; stroke-opacity:1; fill:none" points="2009.41,1038.79 2005.18,1033.73 2009.25,1038.61 "/>
<circle clip-path="url(#clip292)" cx="2009.41" cy="1038.79" r="7.2" fill="#ff0000" fill-rule="evenodd" fill-opacity="1" stroke="none"/>
<circle clip-path="url(#clip292)" cx="2005.18" cy="1033.73" r="7.2" fill="#ff0000" fill-rule="evenodd" fill-opacity="1" stroke="none"/>
<circle clip-path="url(#clip292)" cx="2009.25" cy="1038.61" r="7.2" fill="#ff0000" fill-rule="evenodd" fill-opacity="1" stroke="none"/>
<polyline clip-path="url(#clip292)" style="stroke:#000000; stroke-linecap:round; stroke-linejoin:round; stroke-width:2; stroke-opacity:1; fill:none" stroke-dasharray="8, 5" points="2005.18,1445.72 2005.18,87.9763 "/>
<path clip-path="url(#clip290)" d="M348.909 197.818 Q348.909 200.114 347.475 201.425 Q346.04 202.696 344.4 202.696 Q342.843 202.696 342.023 201.794 Q341.203 200.893 341.203 199.745 Q341.203 198.187 342.351 196.835 Q343.499 195.482 345.22 195.195 Q343.54 194.129 341.039 194.129 Q339.4 194.129 337.965 194.99 Q336.571 195.851 335.711 196.958 Q334.891 198.064 334.153 199.663 Q333.456 201.22 333.169 202.163 Q332.923 203.065 332.718 204.049 L329.849 215.526 Q328.456 220.977 328.456 222.904 Q328.456 225.281 329.603 226.88 Q330.751 228.437 333.046 228.437 Q333.948 228.437 334.973 228.191 Q335.998 227.904 337.309 227.167 Q338.662 226.388 339.851 225.24 Q341.08 224.051 342.269 222.043 Q343.458 220.035 344.236 217.452 Q344.482 216.55 345.302 216.55 Q346.327 216.55 346.327 217.37 Q346.327 218.067 345.753 219.543 Q345.22 220.977 344.031 222.863 Q342.884 224.707 341.367 226.388 Q339.851 228.027 337.596 229.175 Q335.342 230.323 332.882 230.323 Q329.357 230.323 327.021 228.437 Q324.685 226.552 323.824 223.928 Q323.619 224.297 323.332 224.789 Q323.045 225.281 322.184 226.388 Q321.364 227.454 320.422 228.273 Q319.479 229.052 318.003 229.667 Q316.569 230.323 315.011 230.323 Q313.044 230.323 311.281 229.749 Q309.559 229.175 308.33 227.863 Q307.1 226.552 307.1 224.748 Q307.1 222.74 308.453 221.346 Q309.846 219.912 311.732 219.912 Q312.921 219.912 313.863 220.608 Q314.847 221.305 314.847 222.822 Q314.847 224.502 313.699 225.773 Q312.552 227.044 310.912 227.372 Q312.593 228.437 315.093 228.437 Q317.798 228.437 319.93 226.06 Q322.061 223.683 323.086 219.707 Q325.627 210.156 326.611 205.893 Q327.595 201.589 327.595 199.745 Q327.595 198.023 327.144 196.835 Q326.693 195.646 325.914 195.113 Q325.176 194.539 324.48 194.334 Q323.824 194.129 323.086 194.129 Q321.856 194.129 320.463 194.621 Q319.11 195.113 317.47 196.261 Q315.872 197.367 314.355 199.663 Q312.839 201.958 311.814 205.114 Q311.609 206.057 310.707 206.057 Q309.723 206.016 309.723 205.196 Q309.723 204.5 310.256 203.065 Q310.83 201.589 311.978 199.745 Q313.167 197.9 314.683 196.261 Q316.241 194.58 318.495 193.432 Q320.791 192.285 323.25 192.285 Q324.357 192.285 325.422 192.531 Q326.529 192.736 327.841 193.35 Q329.193 193.965 330.382 195.318 Q331.571 196.671 332.309 198.638 Q332.8 197.695 333.456 196.794 Q334.153 195.892 335.219 194.785 Q336.325 193.637 337.842 192.982 Q339.4 192.285 341.121 192.285 Q342.802 192.285 344.441 192.736 Q346.081 193.146 347.475 194.498 Q348.909 195.81 348.909 197.818 Z" fill="#000000" fill-rule="nonzero" fill-opacity="1" /><path clip-path="url(#clip290)" d="M357.466 234.781 Q357.466 226.145 359.647 221.439 Q362.688 214.438 369.862 214.438 Q371.382 214.438 372.96 214.869 Q374.567 215.271 376.576 216.849 Q378.613 218.427 379.847 221.009 Q382.199 226.002 382.199 234.781 Q382.199 243.361 380.019 248.037 Q376.834 254.866 369.804 254.866 Q367.164 254.866 364.467 253.518 Q361.799 252.169 360.106 248.927 Q357.466 244.078 357.466 234.781 M362.344 234.064 Q362.344 242.93 362.975 246.459 Q363.693 250.275 365.644 251.94 Q367.624 253.575 369.804 253.575 Q372.157 253.575 374.108 251.825 Q376.088 250.046 376.69 246.23 Q377.35 242.471 377.322 234.064 Q377.322 225.887 376.748 222.616 Q375.973 218.8 373.907 217.279 Q371.87 215.73 369.804 215.73 Q369.029 215.73 368.197 215.959 Q367.394 216.189 366.218 216.849 Q365.041 217.509 364.123 219.144 Q363.234 220.78 362.803 223.247 Q362.344 226.432 362.344 234.064 Z" fill="#000000" fill-rule="nonzero" fill-opacity="1" /><path clip-path="url(#clip290)" d="M2191.38 198.458 Q2191.38 200.754 2189.94 202.065 Q2188.51 203.336 2186.87 203.336 Q2185.31 203.336 2184.49 202.434 Q2183.67 201.532 2183.67 200.385 Q2183.67 198.827 2184.82 197.474 Q2185.97 196.122 2187.69 195.835 Q2186.01 194.769 2183.51 194.769 Q2181.87 194.769 2180.43 195.63 Q2179.04 196.491 2178.18 197.597 Q2177.36 198.704 2176.62 200.303 Q2175.93 201.86 2175.64 202.803 Q2175.39 203.705 2175.19 204.689 L2172.32 216.166 Q2170.92 221.617 2170.92 223.544 Q2170.92 225.921 2172.07 227.52 Q2173.22 229.077 2175.52 229.077 Q2176.42 229.077 2177.44 228.831 Q2178.47 228.544 2179.78 227.806 Q2181.13 227.028 2182.32 225.88 Q2183.55 224.691 2184.74 222.683 Q2185.93 220.674 2186.71 218.092 Q2186.95 217.19 2187.77 217.19 Q2188.8 217.19 2188.8 218.01 Q2188.8 218.707 2188.22 220.182 Q2187.69 221.617 2186.5 223.503 Q2185.35 225.347 2183.84 227.028 Q2182.32 228.667 2180.07 229.815 Q2177.81 230.963 2175.35 230.963 Q2171.83 230.963 2169.49 229.077 Q2167.15 227.192 2166.29 224.568 Q2166.09 224.937 2165.8 225.429 Q2165.51 225.921 2164.65 227.028 Q2163.83 228.093 2162.89 228.913 Q2161.95 229.692 2160.47 230.307 Q2159.04 230.963 2157.48 230.963 Q2155.51 230.963 2153.75 230.389 Q2152.03 229.815 2150.8 228.503 Q2149.57 227.192 2149.57 225.388 Q2149.57 223.38 2150.92 221.986 Q2152.32 220.551 2154.2 220.551 Q2155.39 220.551 2156.33 221.248 Q2157.32 221.945 2157.32 223.462 Q2157.32 225.142 2156.17 226.413 Q2155.02 227.684 2153.38 228.011 Q2155.06 229.077 2157.56 229.077 Q2160.27 229.077 2162.4 226.7 Q2164.53 224.322 2165.55 220.346 Q2168.1 210.796 2169.08 206.533 Q2170.06 202.229 2170.06 200.385 Q2170.06 198.663 2169.61 197.474 Q2169.16 196.286 2168.38 195.753 Q2167.65 195.179 2166.95 194.974 Q2166.29 194.769 2165.55 194.769 Q2164.33 194.769 2162.93 195.261 Q2161.58 195.753 2159.94 196.901 Q2158.34 198.007 2156.82 200.303 Q2155.31 202.598 2154.28 205.754 Q2154.08 206.697 2153.18 206.697 Q2152.19 206.656 2152.19 205.836 Q2152.19 205.139 2152.73 203.705 Q2153.3 202.229 2154.45 200.385 Q2155.64 198.54 2157.15 196.901 Q2158.71 195.22 2160.96 194.072 Q2163.26 192.925 2165.72 192.925 Q2166.83 192.925 2167.89 193.171 Q2169 193.375 2170.31 193.99 Q2171.66 194.605 2172.85 195.958 Q2174.04 197.31 2174.78 199.278 Q2175.27 198.335 2175.93 197.433 Q2176.62 196.532 2177.69 195.425 Q2178.79 194.277 2180.31 193.621 Q2181.87 192.925 2183.59 192.925 Q2185.27 192.925 2186.91 193.375 Q2188.55 193.785 2189.94 195.138 Q2191.38 196.45 2191.38 198.458 Z" fill="#000000" fill-rule="nonzero" fill-opacity="1" /><path clip-path="url(#clip290)" d="M2199.94 220.673 L2199.94 218.837 Q2206.99 218.837 2210.64 215.078 Q2211.64 215.078 2211.81 215.308 Q2211.99 215.537 2211.99 216.599 L2211.99 249.567 Q2211.99 251.317 2212.85 251.862 Q2213.71 252.407 2217.47 252.407 L2219.33 252.407 L2219.33 254.215 Q2217.27 254.043 2209.81 254.043 Q2202.35 254.043 2200.31 254.215 L2200.31 252.407 L2202.17 252.407 Q2205.87 252.407 2206.76 251.891 Q2207.65 251.346 2207.65 249.567 L2207.65 219.124 Q2204.58 220.673 2199.94 220.673 Z" fill="#000000" fill-rule="nonzero" fill-opacity="1" /><path clip-path="url(#clip290)" d="M1821.52 198.458 Q1821.52 200.754 1820.09 202.065 Q1818.65 203.336 1817.01 203.336 Q1815.46 203.336 1814.64 202.434 Q1813.82 201.532 1813.82 200.385 Q1813.82 198.827 1814.97 197.474 Q1816.11 196.122 1817.83 195.835 Q1816.15 194.769 1813.65 194.769 Q1812.01 194.769 1810.58 195.63 Q1809.19 196.491 1808.33 197.597 Q1807.51 198.704 1806.77 200.303 Q1806.07 201.86 1805.78 202.803 Q1805.54 203.705 1805.33 204.689 L1802.46 216.166 Q1801.07 221.617 1801.07 223.544 Q1801.07 225.921 1802.22 227.52 Q1803.37 229.077 1805.66 229.077 Q1806.56 229.077 1807.59 228.831 Q1808.61 228.544 1809.92 227.806 Q1811.28 227.028 1812.47 225.88 Q1813.69 224.691 1814.88 222.683 Q1816.07 220.674 1816.85 218.092 Q1817.1 217.19 1817.92 217.19 Q1818.94 217.19 1818.94 218.01 Q1818.94 218.707 1818.37 220.182 Q1817.83 221.617 1816.65 223.503 Q1815.5 225.347 1813.98 227.028 Q1812.47 228.667 1810.21 229.815 Q1807.96 230.963 1805.5 230.963 Q1801.97 230.963 1799.64 229.077 Q1797.3 227.192 1796.44 224.568 Q1796.23 224.937 1795.95 225.429 Q1795.66 225.921 1794.8 227.028 Q1793.98 228.093 1793.04 228.913 Q1792.09 229.692 1790.62 230.307 Q1789.18 230.963 1787.63 230.963 Q1785.66 230.963 1783.9 230.389 Q1782.17 229.815 1780.94 228.503 Q1779.71 227.192 1779.71 225.388 Q1779.71 223.38 1781.07 221.986 Q1782.46 220.551 1784.35 220.551 Q1785.54 220.551 1786.48 221.248 Q1787.46 221.945 1787.46 223.462 Q1787.46 225.142 1786.31 226.413 Q1785.17 227.684 1783.53 228.011 Q1785.21 229.077 1787.71 229.077 Q1790.41 229.077 1792.54 226.7 Q1794.68 224.322 1795.7 220.346 Q1798.24 210.796 1799.23 206.533 Q1800.21 202.229 1800.21 200.385 Q1800.21 198.663 1799.76 197.474 Q1799.31 196.286 1798.53 195.753 Q1797.79 195.179 1797.09 194.974 Q1796.44 194.769 1795.7 194.769 Q1794.47 194.769 1793.08 195.261 Q1791.72 195.753 1790.08 196.901 Q1788.49 198.007 1786.97 200.303 Q1785.45 202.598 1784.43 205.754 Q1784.22 206.697 1783.32 206.697 Q1782.34 206.656 1782.34 205.836 Q1782.34 205.139 1782.87 203.705 Q1783.44 202.229 1784.59 200.385 Q1785.78 198.54 1787.3 196.901 Q1788.86 195.22 1791.11 194.072 Q1793.41 192.925 1795.86 192.925 Q1796.97 192.925 1798.04 193.171 Q1799.14 193.375 1800.46 193.99 Q1801.81 194.605 1803 195.958 Q1804.19 197.31 1804.92 199.278 Q1805.41 198.335 1806.07 197.433 Q1806.77 196.532 1807.83 195.425 Q1808.94 194.277 1810.46 193.621 Q1812.01 192.925 1813.74 192.925 Q1815.42 192.925 1817.06 193.375 Q1818.7 193.785 1820.09 195.138 Q1821.52 196.45 1821.52 198.458 Z" fill="#000000" fill-rule="nonzero" fill-opacity="1" /><path clip-path="url(#clip290)" d="M1830.08 254.215 Q1830.08 253.153 1830.17 252.838 Q1830.28 252.522 1830.74 252.034 L1842.02 239.467 Q1848.19 232.523 1848.19 226.469 Q1848.19 222.538 1846.12 219.727 Q1844.08 216.915 1840.32 216.915 Q1837.74 216.915 1835.56 218.493 Q1833.38 220.071 1832.38 222.883 Q1832.55 222.825 1833.15 222.825 Q1834.61 222.825 1835.42 223.743 Q1836.25 224.662 1836.25 225.895 Q1836.25 227.474 1835.22 228.248 Q1834.21 228.994 1833.21 228.994 Q1832.81 228.994 1832.26 228.908 Q1831.75 228.822 1830.91 228.019 Q1830.08 227.187 1830.08 225.723 Q1830.08 221.62 1833.18 218.349 Q1836.31 215.078 1841.07 215.078 Q1846.46 215.078 1849.99 218.292 Q1853.55 221.477 1853.55 226.469 Q1853.55 228.22 1853.01 229.826 Q1852.49 231.404 1851.77 232.638 Q1851.08 233.872 1849.19 235.852 Q1847.3 237.831 1845.78 239.237 Q1844.25 240.643 1840.84 243.627 L1834.61 249.681 L1845.2 249.681 Q1850.37 249.681 1850.77 249.222 Q1851.34 248.39 1852.06 244 L1853.55 244 L1851.89 254.215 L1830.08 254.215 Z" fill="#000000" fill-rule="nonzero" fill-opacity="1" /><path clip-path="url(#clip290)" d="M2074.79 197.818 Q2074.79 200.114 2073.35 201.425 Q2071.92 202.696 2070.28 202.696 Q2068.72 202.696 2067.9 201.794 Q2067.08 200.893 2067.08 199.745 Q2067.08 198.187 2068.23 196.835 Q2069.38 195.482 2071.1 195.195 Q2069.42 194.129 2066.92 194.129 Q2065.28 194.129 2063.84 194.99 Q2062.45 195.851 2061.59 196.958 Q2060.77 198.064 2060.03 199.663 Q2059.33 201.22 2059.05 202.163 Q2058.8 203.065 2058.6 204.049 L2055.73 215.526 Q2054.33 220.977 2054.33 222.904 Q2054.33 225.281 2055.48 226.88 Q2056.63 228.437 2058.93 228.437 Q2059.83 228.437 2060.85 228.191 Q2061.88 227.904 2063.19 227.167 Q2064.54 226.388 2065.73 225.24 Q2066.96 224.051 2068.15 222.043 Q2069.34 220.035 2070.12 217.452 Q2070.36 216.55 2071.18 216.55 Q2072.21 216.55 2072.21 217.37 Q2072.21 218.067 2071.63 219.543 Q2071.1 220.977 2069.91 222.863 Q2068.76 224.707 2067.25 226.388 Q2065.73 228.027 2063.47 229.175 Q2061.22 230.323 2058.76 230.323 Q2055.24 230.323 2052.9 228.437 Q2050.56 226.552 2049.7 223.928 Q2049.5 224.297 2049.21 224.789 Q2048.92 225.281 2048.06 226.388 Q2047.24 227.454 2046.3 228.273 Q2045.36 229.052 2043.88 229.667 Q2042.45 230.323 2040.89 230.323 Q2038.92 230.323 2037.16 229.749 Q2035.44 229.175 2034.21 227.863 Q2032.98 226.552 2032.98 224.748 Q2032.98 222.74 2034.33 221.346 Q2035.73 219.912 2037.61 219.912 Q2038.8 219.912 2039.74 220.608 Q2040.73 221.305 2040.73 222.822 Q2040.73 224.502 2039.58 225.773 Q2038.43 227.044 2036.79 227.372 Q2038.47 228.437 2040.97 228.437 Q2043.68 228.437 2045.81 226.06 Q2047.94 223.683 2048.96 219.707 Q2051.51 210.156 2052.49 205.893 Q2053.47 201.589 2053.47 199.745 Q2053.47 198.023 2053.02 196.835 Q2052.57 195.646 2051.79 195.113 Q2051.06 194.539 2050.36 194.334 Q2049.7 194.129 2048.96 194.129 Q2047.73 194.129 2046.34 194.621 Q2044.99 195.113 2043.35 196.261 Q2041.75 197.367 2040.23 199.663 Q2038.72 201.958 2037.69 205.114 Q2037.49 206.057 2036.59 206.057 Q2035.6 206.016 2035.6 205.196 Q2035.6 204.5 2036.14 203.065 Q2036.71 201.589 2037.86 199.745 Q2039.05 197.9 2040.56 196.261 Q2042.12 194.58 2044.37 193.432 Q2046.67 192.285 2049.13 192.285 Q2050.24 192.285 2051.3 192.531 Q2052.41 192.736 2053.72 193.35 Q2055.07 193.965 2056.26 195.318 Q2057.45 196.671 2058.19 198.638 Q2058.68 197.695 2059.33 196.794 Q2060.03 195.892 2061.1 194.785 Q2062.2 193.637 2063.72 192.982 Q2065.28 192.285 2067 192.285 Q2068.68 192.285 2070.32 192.736 Q2071.96 193.146 2073.35 194.498 Q2074.79 195.81 2074.79 197.818 Z" fill="#000000" fill-rule="nonzero" fill-opacity="1" /><path clip-path="url(#clip290)" d="M2083.35 245.656 Q2083.35 243.906 2084.35 243.074 Q2085.35 242.242 2086.64 242.242 Q2087.99 242.242 2088.94 243.131 Q2089.92 243.992 2089.92 245.512 Q2089.92 247.148 2088.77 248.066 Q2087.65 248.984 2086.04 248.755 Q2087.45 251.108 2090.03 252.169 Q2092.64 253.231 2095.05 253.231 Q2097.58 253.231 2099.61 251.05 Q2101.68 248.869 2101.68 243.533 Q2101.68 238.999 2099.9 236.388 Q2098.15 233.777 2094.68 233.777 L2092.1 233.777 Q2091.21 233.777 2090.95 233.691 Q2090.69 233.605 2090.69 233.117 Q2090.69 232.543 2091.58 232.429 Q2092.47 232.429 2093.88 232.257 Q2097.29 232.142 2099.1 229.186 Q2100.73 226.432 2100.73 222.501 Q2100.73 218.915 2099.01 217.423 Q2097.32 215.902 2095.11 215.902 Q2093.04 215.902 2090.78 216.763 Q2088.51 217.623 2087.28 219.546 Q2090.92 219.546 2090.92 222.501 Q2090.92 223.792 2090.09 224.653 Q2089.28 225.485 2087.94 225.485 Q2086.64 225.485 2085.78 224.682 Q2084.92 223.85 2084.92 222.444 Q2084.92 219.087 2087.91 216.763 Q2090.92 214.438 2095.34 214.438 Q2099.7 214.438 2102.91 216.734 Q2106.16 219.029 2106.16 222.558 Q2106.16 226.03 2103.86 228.871 Q2101.56 231.711 2097.92 232.888 Q2102.4 233.777 2105.07 236.819 Q2107.73 239.831 2107.73 243.533 Q2107.73 248.123 2104.12 251.509 Q2100.5 254.866 2095.22 254.866 Q2090.35 254.866 2086.85 252.227 Q2083.35 249.587 2083.35 245.656 Z" fill="#000000" fill-rule="nonzero" fill-opacity="1" /></svg>
