<?xml version="1.0" encoding="utf-8"?>
<svg xmlns="http://www.w3.org/2000/svg" xmlns:xlink="http://www.w3.org/1999/xlink" width="600" height="400" viewBox="0 0 2400 1600">
<defs>
  <clipPath id="clip900">
    <rect x="0" y="0" width="2400" height="1600"/>
  </clipPath>
</defs>
<path clip-path="url(#clip900)" d="M0 1600 L2400 1600 L2400 0 L0 0  Z" fill="#ffffff" fill-rule="evenodd" fill-opacity="1"/>
<defs>
  <clipPath id="clip901">
    <rect x="480" y="0" width="1681" height="1600"/>
  </clipPath>
</defs>
<path clip-path="url(#clip900)" d="M194.422 1486.45 L2352.76 1486.45 L2352.76 47.2441 L194.422 47.2441  Z" fill="#ffffff" fill-rule="evenodd" fill-opacity="1"/>
<defs>
  <clipPath id="clip902">
    <rect x="194" y="47" width="2159" height="1440"/>
  </clipPath>
</defs>
<polyline clip-path="url(#clip902)" style="stroke:#000000; stroke-linecap:round; stroke-linejoin:round; stroke-width:2; stroke-opacity:0.1; fill:none" points="375.281,1486.45 375.281,47.2441 "/>
<polyline clip-path="url(#clip902)" style="stroke:#000000; stroke-linecap:round; stroke-linejoin:round; stroke-width:2; stroke-opacity:0.1; fill:none" points="974.153,1486.45 974.153,47.2441 "/>
<polyline clip-path="url(#clip902)" style="stroke:#000000; stroke-linecap:round; stroke-linejoin:round; stroke-width:2; stroke-opacity:0.1; fill:none" points="1573.02,1486.45 1573.02,47.2441 "/>
<polyline clip-path="url(#clip902)" style="stroke:#000000; stroke-linecap:round; stroke-linejoin:round; stroke-width:2; stroke-opacity:0.1; fill:none" points="2171.9,1486.45 2171.9,47.2441 "/>
<polyline clip-path="url(#clip900)" style="stroke:#000000; stroke-linecap:round; stroke-linejoin:round; stroke-width:4; stroke-opacity:1; fill:none" points="194.422,1486.45 2352.76,1486.45 "/>
<polyline clip-path="url(#clip900)" style="stroke:#000000; stroke-linecap:round; stroke-linejoin:round; stroke-width:2; stroke-opacity:0.5; fill:none" points="194.422,47.2441 2352.76,47.2441 "/>
<polyline clip-path="url(#clip900)" style="stroke:#000000; stroke-linecap:round; stroke-linejoin:round; stroke-width:4; stroke-opacity:1; fill:none" points="375.281,1486.45 375.281,1467.55 "/>
<polyline clip-path="url(#clip900)" style="stroke:#000000; stroke-linecap:round; stroke-linejoin:round; stroke-width:4; stroke-opacity:1; fill:none" points="974.153,1486.45 974.153,1467.55 "/>
<polyline clip-path="url(#clip900)" style="stroke:#000000; stroke-linecap:round; stroke-linejoin:round; stroke-width:4; stroke-opacity:1; fill:none" points="1573.02,1486.45 1573.02,1467.55 "/>
<polyline clip-path="url(#clip900)" style="stroke:#000000; stroke-linecap:round; stroke-linejoin:round; stroke-width:4; stroke-opacity:1; fill:none" points="2171.9,1486.45 2171.9,1467.55 "/>
<path clip-path="url(#clip900)" d="M353.163 1517.37 Q349.552 1517.37 347.724 1520.93 Q345.918 1524.47 345.918 1531.6 Q345.918 1538.71 347.724 1542.27 Q349.552 1545.82 353.163 1545.82 Q356.798 1545.82 358.603 1542.27 Q360.432 1538.71 360.432 1531.6 Q360.432 1524.47 358.603 1520.93 Q356.798 1517.37 353.163 1517.37 M353.163 1513.66 Q358.974 1513.66 362.029 1518.27 Q365.108 1522.85 365.108 1531.6 Q365.108 1540.33 362.029 1544.94 Q358.974 1549.52 353.163 1549.52 Q347.353 1549.52 344.275 1544.94 Q341.219 1540.33 341.219 1531.6 Q341.219 1522.85 344.275 1518.27 Q347.353 1513.66 353.163 1513.66 Z" fill="#000000" fill-rule="nonzero" fill-opacity="1" /><path clip-path="url(#clip900)" d="M373.325 1542.97 L378.21 1542.97 L378.21 1548.85 L373.325 1548.85 L373.325 1542.97 Z" fill="#000000" fill-rule="nonzero" fill-opacity="1" /><path clip-path="url(#clip900)" d="M388.441 1514.29 L406.797 1514.29 L406.797 1518.22 L392.723 1518.22 L392.723 1526.7 Q393.742 1526.35 394.76 1526.19 Q395.779 1526 396.797 1526 Q402.584 1526 405.964 1529.17 Q409.344 1532.34 409.344 1537.76 Q409.344 1543.34 405.871 1546.44 Q402.399 1549.52 396.08 1549.52 Q393.904 1549.52 391.635 1549.15 Q389.39 1548.78 386.983 1548.04 L386.983 1543.34 Q389.066 1544.47 391.288 1545.03 Q393.51 1545.58 395.987 1545.58 Q399.992 1545.58 402.33 1543.48 Q404.668 1541.37 404.668 1537.76 Q404.668 1534.15 402.33 1532.04 Q399.992 1529.94 395.987 1529.94 Q394.112 1529.94 392.237 1530.35 Q390.385 1530.77 388.441 1531.65 L388.441 1514.29 Z" fill="#000000" fill-rule="nonzero" fill-opacity="1" /><path clip-path="url(#clip900)" d="M941.306 1544.91 L948.945 1544.91 L948.945 1518.55 L940.635 1520.21 L940.635 1515.95 L948.899 1514.29 L953.575 1514.29 L953.575 1544.91 L961.213 1544.91 L961.213 1548.85 L941.306 1548.85 L941.306 1544.91 Z" fill="#000000" fill-rule="nonzero" fill-opacity="1" /><path clip-path="url(#clip900)" d="M970.658 1542.97 L975.542 1542.97 L975.542 1548.85 L970.658 1548.85 L970.658 1542.97 Z" fill="#000000" fill-rule="nonzero" fill-opacity="1" /><path clip-path="url(#clip900)" d="M995.727 1517.37 Q992.116 1517.37 990.287 1520.93 Q988.482 1524.47 988.482 1531.6 Q988.482 1538.71 990.287 1542.27 Q992.116 1545.82 995.727 1545.82 Q999.361 1545.82 1001.17 1542.27 Q1003 1538.71 1003 1531.6 Q1003 1524.47 1001.17 1520.93 Q999.361 1517.37 995.727 1517.37 M995.727 1513.66 Q1001.54 1513.66 1004.59 1518.27 Q1007.67 1522.85 1007.67 1531.6 Q1007.67 1540.33 1004.59 1544.94 Q1001.54 1549.52 995.727 1549.52 Q989.917 1549.52 986.838 1544.94 Q983.783 1540.33 983.783 1531.6 Q983.783 1522.85 986.838 1518.27 Q989.917 1513.66 995.727 1513.66 Z" fill="#000000" fill-rule="nonzero" fill-opacity="1" /><path clip-path="url(#clip900)" d="M1540.68 1544.91 L1548.31 1544.91 L1548.31 1518.55 L1540 1520.21 L1540 1515.95 L1548.27 1514.29 L1552.94 1514.29 L1552.94 1544.91 L1560.58 1544.91 L1560.58 1548.85 L1540.68 1548.85 L1540.68 1544.91 Z" fill="#000000" fill-rule="nonzero" fill-opacity="1" /><path clip-path="url(#clip900)" d="M1570.03 1542.97 L1574.91 1542.97 L1574.91 1548.85 L1570.03 1548.85 L1570.03 1542.97 Z" fill="#000000" fill-rule="nonzero" fill-opacity="1" /><path clip-path="url(#clip900)" d="M1585.14 1514.29 L1603.5 1514.29 L1603.5 1518.22 L1589.43 1518.22 L1589.43 1526.7 Q1590.44 1526.35 1591.46 1526.19 Q1592.48 1526 1593.5 1526 Q1599.29 1526 1602.67 1529.17 Q1606.05 1532.34 1606.05 1537.76 Q1606.05 1543.34 1602.57 1546.44 Q1599.1 1549.52 1592.78 1549.52 Q1590.61 1549.52 1588.34 1549.15 Q1586.09 1548.78 1583.68 1548.04 L1583.68 1543.34 Q1585.77 1544.47 1587.99 1545.03 Q1590.21 1545.58 1592.69 1545.58 Q1596.69 1545.58 1599.03 1543.48 Q1601.37 1541.37 1601.37 1537.76 Q1601.37 1534.15 1599.03 1532.04 Q1596.69 1529.94 1592.69 1529.94 Q1590.81 1529.94 1588.94 1530.35 Q1587.09 1530.77 1585.14 1531.65 L1585.14 1514.29 Z" fill="#000000" fill-rule="nonzero" fill-opacity="1" /><path clip-path="url(#clip900)" d="M2143.14 1544.91 L2159.45 1544.91 L2159.45 1548.85 L2137.51 1548.85 L2137.51 1544.91 Q2140.17 1542.16 2144.76 1537.53 Q2149.36 1532.88 2150.54 1531.53 Q2152.79 1529.01 2153.67 1527.27 Q2154.57 1525.51 2154.57 1523.82 Q2154.57 1521.07 2152.63 1519.33 Q2150.7 1517.6 2147.6 1517.6 Q2145.4 1517.6 2142.95 1518.36 Q2140.52 1519.13 2137.74 1520.68 L2137.74 1515.95 Q2140.57 1514.82 2143.02 1514.24 Q2145.47 1513.66 2147.51 1513.66 Q2152.88 1513.66 2156.07 1516.35 Q2159.27 1519.03 2159.27 1523.52 Q2159.27 1525.65 2158.46 1527.57 Q2157.67 1529.47 2155.57 1532.07 Q2154.99 1532.74 2151.89 1535.95 Q2148.78 1539.15 2143.14 1544.91 Z" fill="#000000" fill-rule="nonzero" fill-opacity="1" /><path clip-path="url(#clip900)" d="M2169.27 1542.97 L2174.15 1542.97 L2174.15 1548.85 L2169.27 1548.85 L2169.27 1542.97 Z" fill="#000000" fill-rule="nonzero" fill-opacity="1" /><path clip-path="url(#clip900)" d="M2194.34 1517.37 Q2190.73 1517.37 2188.9 1520.93 Q2187.09 1524.47 2187.09 1531.6 Q2187.09 1538.71 2188.9 1542.27 Q2190.73 1545.82 2194.34 1545.82 Q2197.97 1545.82 2199.78 1542.27 Q2201.61 1538.71 2201.61 1531.6 Q2201.61 1524.47 2199.78 1520.93 Q2197.97 1517.37 2194.34 1517.37 M2194.34 1513.66 Q2200.15 1513.66 2203.2 1518.27 Q2206.28 1522.85 2206.28 1531.6 Q2206.28 1540.33 2203.2 1544.94 Q2200.15 1549.52 2194.34 1549.52 Q2188.53 1549.52 2185.45 1544.94 Q2182.39 1540.33 2182.39 1531.6 Q2182.39 1522.85 2185.45 1518.27 Q2188.53 1513.66 2194.34 1513.66 Z" fill="#000000" fill-rule="nonzero" fill-opacity="1" /><polyline clip-path="url(#clip902)" style="stroke:#000000; stroke-linecap:round; stroke-linejoin:round; stroke-width:2; stroke-opacity:0.1; fill:none" points="194.422,1349.55 2352.76,1349.55 "/>
<polyline clip-path="url(#clip902)" style="stroke:#000000; stroke-linecap:round; stroke-linejoin:round; stroke-width:2; stroke-opacity:0.1; fill:none" points="194.422,1177.53 2352.76,1177.53 "/>
<polyline clip-path="url(#clip902)" style="stroke:#000000; stroke-linecap:round; stroke-linejoin:round; stroke-width:2; stroke-opacity:0.1; fill:none" points="194.422,1005.52 2352.76,1005.52 "/>
<polyline clip-path="url(#clip902)" style="stroke:#000000; stroke-linecap:round; stroke-linejoin:round; stroke-width:2; stroke-opacity:0.1; fill:none" points="194.422,833.499 2352.76,833.499 "/>
<polyline clip-path="url(#clip902)" style="stroke:#000000; stroke-linecap:round; stroke-linejoin:round; stroke-width:2; stroke-opacity:0.1; fill:none" points="194.422,661.481 2352.76,661.481 "/>
<polyline clip-path="url(#clip902)" style="stroke:#000000; stroke-linecap:round; stroke-linejoin:round; stroke-width:2; stroke-opacity:0.1; fill:none" points="194.422,489.463 2352.76,489.463 "/>
<polyline clip-path="url(#clip902)" style="stroke:#000000; stroke-linecap:round; stroke-linejoin:round; stroke-width:2; stroke-opacity:0.1; fill:none" points="194.422,317.445 2352.76,317.445 "/>
<polyline clip-path="url(#clip902)" style="stroke:#000000; stroke-linecap:round; stroke-linejoin:round; stroke-width:2; stroke-opacity:0.1; fill:none" points="194.422,145.427 2352.76,145.427 "/>
<polyline clip-path="url(#clip900)" style="stroke:#000000; stroke-linecap:round; stroke-linejoin:round; stroke-width:4; stroke-opacity:1; fill:none" points="194.422,1486.45 194.422,47.2441 "/>
<polyline clip-path="url(#clip900)" style="stroke:#000000; stroke-linecap:round; stroke-linejoin:round; stroke-width:2; stroke-opacity:0.5; fill:none" points="2352.76,1486.45 2352.76,47.2441 "/>
<polyline clip-path="url(#clip900)" style="stroke:#000000; stroke-linecap:round; stroke-linejoin:round; stroke-width:4; stroke-opacity:1; fill:none" points="194.422,1349.55 213.32,1349.55 "/>
<polyline clip-path="url(#clip900)" style="stroke:#000000; stroke-linecap:round; stroke-linejoin:round; stroke-width:4; stroke-opacity:1; fill:none" points="194.422,1177.53 213.32,1177.53 "/>
<polyline clip-path="url(#clip900)" style="stroke:#000000; stroke-linecap:round; stroke-linejoin:round; stroke-width:4; stroke-opacity:1; fill:none" points="194.422,1005.52 213.32,1005.52 "/>
<polyline clip-path="url(#clip900)" style="stroke:#000000; stroke-linecap:round; stroke-linejoin:round; stroke-width:4; stroke-opacity:1; fill:none" points="194.422,833.499 213.32,833.499 "/>
<polyline clip-path="url(#clip900)" style="stroke:#000000; stroke-linecap:round; stroke-linejoin:round; stroke-width:4; stroke-opacity:1; fill:none" points="194.422,661.481 213.32,661.481 "/>
<polyline clip-path="url(#clip900)" style="stroke:#000000; stroke-linecap:round; stroke-linejoin:round; stroke-width:4; stroke-opacity:1; fill:none" points="194.422,489.463 213.32,489.463 "/>
<polyline clip-path="url(#clip900)" style="stroke:#000000; stroke-linecap:round; stroke-linejoin:round; stroke-width:4; stroke-opacity:1; fill:none" points="194.422,317.445 213.32,317.445 "/>
<polyline clip-path="url(#clip900)" style="stroke:#000000; stroke-linecap:round; stroke-linejoin:round; stroke-width:4; stroke-opacity:1; fill:none" points="194.422,145.427 213.32,145.427 "/>
<path clip-path="url(#clip900)" d="M51.3162 1350 L80.992 1350 L80.992 1353.94 L51.3162 1353.94 L51.3162 1350 Z" fill="#000000" fill-rule="nonzero" fill-opacity="1" /><path clip-path="url(#clip900)" d="M101.084 1335.35 Q97.4734 1335.35 95.6447 1338.92 Q93.8391 1342.46 93.8391 1349.59 Q93.8391 1356.69 95.6447 1360.26 Q97.4734 1363.8 101.084 1363.8 Q104.719 1363.8 106.524 1360.26 Q108.353 1356.69 108.353 1349.59 Q108.353 1342.46 106.524 1338.92 Q104.719 1335.35 101.084 1335.35 M101.084 1331.65 Q106.895 1331.65 109.95 1336.25 Q113.029 1340.84 113.029 1349.59 Q113.029 1358.31 109.95 1362.92 Q106.895 1367.5 101.084 1367.5 Q95.2743 1367.5 92.1956 1362.92 Q89.1401 1358.31 89.1401 1349.59 Q89.1401 1340.84 92.1956 1336.25 Q95.2743 1331.65 101.084 1331.65 Z" fill="#000000" fill-rule="nonzero" fill-opacity="1" /><path clip-path="url(#clip900)" d="M121.246 1360.95 L126.131 1360.95 L126.131 1366.83 L121.246 1366.83 L121.246 1360.95 Z" fill="#000000" fill-rule="nonzero" fill-opacity="1" /><path clip-path="url(#clip900)" d="M146.894 1347.69 Q143.746 1347.69 141.894 1349.84 Q140.066 1351.99 140.066 1355.74 Q140.066 1359.47 141.894 1361.65 Q143.746 1363.8 146.894 1363.8 Q150.043 1363.8 151.871 1361.65 Q153.723 1359.47 153.723 1355.74 Q153.723 1351.99 151.871 1349.84 Q150.043 1347.69 146.894 1347.69 M156.177 1333.04 L156.177 1337.3 Q154.417 1336.46 152.612 1336.02 Q150.83 1335.58 149.07 1335.58 Q144.441 1335.58 141.987 1338.71 Q139.556 1341.83 139.209 1348.15 Q140.575 1346.14 142.635 1345.07 Q144.695 1343.99 147.172 1343.99 Q152.38 1343.99 155.39 1347.16 Q158.422 1350.3 158.422 1355.74 Q158.422 1361.07 155.274 1364.29 Q152.126 1367.5 146.894 1367.5 Q140.899 1367.5 137.728 1362.92 Q134.556 1358.31 134.556 1349.59 Q134.556 1341.39 138.445 1336.53 Q142.334 1331.65 148.885 1331.65 Q150.644 1331.65 152.427 1331.99 Q154.232 1332.34 156.177 1333.04 Z" fill="#000000" fill-rule="nonzero" fill-opacity="1" /><path clip-path="url(#clip900)" d="M50.9921 1177.99 L80.6679 1177.99 L80.6679 1181.92 L50.9921 1181.92 L50.9921 1177.99 Z" fill="#000000" fill-rule="nonzero" fill-opacity="1" /><path clip-path="url(#clip900)" d="M100.76 1163.33 Q97.1493 1163.33 95.3206 1166.9 Q93.515 1170.44 93.515 1177.57 Q93.515 1184.68 95.3206 1188.24 Q97.1493 1191.78 100.76 1191.78 Q104.395 1191.78 106.2 1188.24 Q108.029 1184.68 108.029 1177.57 Q108.029 1170.44 106.2 1166.9 Q104.395 1163.33 100.76 1163.33 M100.76 1159.63 Q106.571 1159.63 109.626 1164.24 Q112.705 1168.82 112.705 1177.57 Q112.705 1186.3 109.626 1190.9 Q106.571 1195.49 100.76 1195.49 Q94.9502 1195.49 91.8715 1190.9 Q88.816 1186.3 88.816 1177.57 Q88.816 1168.82 91.8715 1164.24 Q94.9502 1159.63 100.76 1159.63 Z" fill="#000000" fill-rule="nonzero" fill-opacity="1" /><path clip-path="url(#clip900)" d="M120.922 1188.93 L125.807 1188.93 L125.807 1194.81 L120.922 1194.81 L120.922 1188.93 Z" fill="#000000" fill-rule="nonzero" fill-opacity="1" /><path clip-path="url(#clip900)" d="M148.839 1164.33 L137.033 1182.78 L148.839 1182.78 L148.839 1164.33 M147.612 1160.25 L153.492 1160.25 L153.492 1182.78 L158.422 1182.78 L158.422 1186.67 L153.492 1186.67 L153.492 1194.81 L148.839 1194.81 L148.839 1186.67 L133.237 1186.67 L133.237 1182.15 L147.612 1160.25 Z" fill="#000000" fill-rule="nonzero" fill-opacity="1" /><path clip-path="url(#clip900)" d="M53.0754 1005.97 L82.7512 1005.97 L82.7512 1009.9 L53.0754 1009.9 L53.0754 1005.97 Z" fill="#000000" fill-rule="nonzero" fill-opacity="1" /><path clip-path="url(#clip900)" d="M102.844 991.315 Q99.2326 991.315 97.4039 994.88 Q95.5984 998.422 95.5984 1005.55 Q95.5984 1012.66 97.4039 1016.22 Q99.2326 1019.76 102.844 1019.76 Q106.478 1019.76 108.283 1016.22 Q110.112 1012.66 110.112 1005.55 Q110.112 998.422 108.283 994.88 Q106.478 991.315 102.844 991.315 M102.844 987.611 Q108.654 987.611 111.709 992.218 Q114.788 996.801 114.788 1005.55 Q114.788 1014.28 111.709 1018.88 Q108.654 1023.47 102.844 1023.47 Q97.0335 1023.47 93.9549 1018.88 Q90.8993 1014.28 90.8993 1005.55 Q90.8993 996.801 93.9549 992.218 Q97.0335 987.611 102.844 987.611 Z" fill="#000000" fill-rule="nonzero" fill-opacity="1" /><path clip-path="url(#clip900)" d="M123.006 1016.92 L127.89 1016.92 L127.89 1022.8 L123.006 1022.8 L123.006 1016.92 Z" fill="#000000" fill-rule="nonzero" fill-opacity="1" /><path clip-path="url(#clip900)" d="M142.103 1018.86 L158.422 1018.86 L158.422 1022.8 L136.478 1022.8 L136.478 1018.86 Q139.14 1016.11 143.723 1011.48 Q148.33 1006.82 149.51 1005.48 Q151.755 1002.96 152.635 1001.22 Q153.538 999.463 153.538 997.773 Q153.538 995.019 151.593 993.283 Q149.672 991.547 146.57 991.547 Q144.371 991.547 141.918 992.311 Q139.487 993.074 136.709 994.625 L136.709 989.903 Q139.533 988.769 141.987 988.19 Q144.441 987.611 146.478 987.611 Q151.848 987.611 155.042 990.297 Q158.237 992.982 158.237 997.473 Q158.237 999.602 157.427 1001.52 Q156.64 1003.42 154.533 1006.01 Q153.955 1006.69 150.853 1009.9 Q147.751 1013.1 142.103 1018.86 Z" fill="#000000" fill-rule="nonzero" fill-opacity="1" /><path clip-path="url(#clip900)" d="M101.246 819.297 Q97.6354 819.297 95.8067 822.862 Q94.0012 826.404 94.0012 833.533 Q94.0012 840.64 95.8067 844.205 Q97.6354 847.746 101.246 847.746 Q104.881 847.746 106.686 844.205 Q108.515 840.64 108.515 833.533 Q108.515 826.404 106.686 822.862 Q104.881 819.297 101.246 819.297 M101.246 815.594 Q107.057 815.594 110.112 820.2 Q113.191 824.783 113.191 833.533 Q113.191 842.26 110.112 846.867 Q107.057 851.45 101.246 851.45 Q95.4363 851.45 92.3576 846.867 Q89.3021 842.26 89.3021 833.533 Q89.3021 824.783 92.3576 820.2 Q95.4363 815.594 101.246 815.594 Z" fill="#000000" fill-rule="nonzero" fill-opacity="1" /><path clip-path="url(#clip900)" d="M121.408 844.899 L126.293 844.899 L126.293 850.779 L121.408 850.779 L121.408 844.899 Z" fill="#000000" fill-rule="nonzero" fill-opacity="1" /><path clip-path="url(#clip900)" d="M146.478 819.297 Q142.867 819.297 141.038 822.862 Q139.232 826.404 139.232 833.533 Q139.232 840.64 141.038 844.205 Q142.867 847.746 146.478 847.746 Q150.112 847.746 151.918 844.205 Q153.746 840.64 153.746 833.533 Q153.746 826.404 151.918 822.862 Q150.112 819.297 146.478 819.297 M146.478 815.594 Q152.288 815.594 155.343 820.2 Q158.422 824.783 158.422 833.533 Q158.422 842.26 155.343 846.867 Q152.288 851.45 146.478 851.45 Q140.668 851.45 137.589 846.867 Q134.533 842.26 134.533 833.533 Q134.533 824.783 137.589 820.2 Q140.668 815.594 146.478 815.594 Z" fill="#000000" fill-rule="nonzero" fill-opacity="1" /><path clip-path="url(#clip900)" d="M102.844 647.279 Q99.2326 647.279 97.4039 650.844 Q95.5984 654.386 95.5984 661.515 Q95.5984 668.622 97.4039 672.187 Q99.2326 675.728 102.844 675.728 Q106.478 675.728 108.283 672.187 Q110.112 668.622 110.112 661.515 Q110.112 654.386 108.283 650.844 Q106.478 647.279 102.844 647.279 M102.844 643.576 Q108.654 643.576 111.709 648.182 Q114.788 652.765 114.788 661.515 Q114.788 670.242 111.709 674.849 Q108.654 679.432 102.844 679.432 Q97.0335 679.432 93.9549 674.849 Q90.8993 670.242 90.8993 661.515 Q90.8993 652.765 93.9549 648.182 Q97.0335 643.576 102.844 643.576 Z" fill="#000000" fill-rule="nonzero" fill-opacity="1" /><path clip-path="url(#clip900)" d="M123.006 672.881 L127.89 672.881 L127.89 678.761 L123.006 678.761 L123.006 672.881 Z" fill="#000000" fill-rule="nonzero" fill-opacity="1" /><path clip-path="url(#clip900)" d="M142.103 674.826 L158.422 674.826 L158.422 678.761 L136.478 678.761 L136.478 674.826 Q139.14 672.071 143.723 667.441 Q148.33 662.789 149.51 661.446 Q151.755 658.923 152.635 657.187 Q153.538 655.427 153.538 653.738 Q153.538 650.983 151.593 649.247 Q149.672 647.511 146.57 647.511 Q144.371 647.511 141.918 648.275 Q139.487 649.039 136.709 650.59 L136.709 645.867 Q139.533 644.733 141.987 644.154 Q144.441 643.576 146.478 643.576 Q151.848 643.576 155.042 646.261 Q158.237 648.946 158.237 653.437 Q158.237 655.566 157.427 657.488 Q156.64 659.386 154.533 661.978 Q153.955 662.65 150.853 665.867 Q147.751 669.062 142.103 674.826 Z" fill="#000000" fill-rule="nonzero" fill-opacity="1" /><path clip-path="url(#clip900)" d="M100.76 475.261 Q97.1493 475.261 95.3206 478.826 Q93.515 482.368 93.515 489.498 Q93.515 496.604 95.3206 500.169 Q97.1493 503.71 100.76 503.71 Q104.395 503.71 106.2 500.169 Q108.029 496.604 108.029 489.498 Q108.029 482.368 106.2 478.826 Q104.395 475.261 100.76 475.261 M100.76 471.558 Q106.571 471.558 109.626 476.164 Q112.705 480.748 112.705 489.498 Q112.705 498.224 109.626 502.831 Q106.571 507.414 100.76 507.414 Q94.9502 507.414 91.8715 502.831 Q88.816 498.224 88.816 489.498 Q88.816 480.748 91.8715 476.164 Q94.9502 471.558 100.76 471.558 Z" fill="#000000" fill-rule="nonzero" fill-opacity="1" /><path clip-path="url(#clip900)" d="M120.922 500.863 L125.807 500.863 L125.807 506.743 L120.922 506.743 L120.922 500.863 Z" fill="#000000" fill-rule="nonzero" fill-opacity="1" /><path clip-path="url(#clip900)" d="M148.839 476.257 L137.033 494.706 L148.839 494.706 L148.839 476.257 M147.612 472.183 L153.492 472.183 L153.492 494.706 L158.422 494.706 L158.422 498.595 L153.492 498.595 L153.492 506.743 L148.839 506.743 L148.839 498.595 L133.237 498.595 L133.237 494.081 L147.612 472.183 Z" fill="#000000" fill-rule="nonzero" fill-opacity="1" /><path clip-path="url(#clip900)" d="M101.084 303.244 Q97.4734 303.244 95.6447 306.808 Q93.8391 310.35 93.8391 317.48 Q93.8391 324.586 95.6447 328.151 Q97.4734 331.693 101.084 331.693 Q104.719 331.693 106.524 328.151 Q108.353 324.586 108.353 317.48 Q108.353 310.35 106.524 306.808 Q104.719 303.244 101.084 303.244 M101.084 299.54 Q106.895 299.54 109.95 304.146 Q113.029 308.73 113.029 317.48 Q113.029 326.206 109.95 330.813 Q106.895 335.396 101.084 335.396 Q95.2743 335.396 92.1956 330.813 Q89.1401 326.206 89.1401 317.48 Q89.1401 308.73 92.1956 304.146 Q95.2743 299.54 101.084 299.54 Z" fill="#000000" fill-rule="nonzero" fill-opacity="1" /><path clip-path="url(#clip900)" d="M121.246 328.845 L126.131 328.845 L126.131 334.725 L121.246 334.725 L121.246 328.845 Z" fill="#000000" fill-rule="nonzero" fill-opacity="1" /><path clip-path="url(#clip900)" d="M146.894 315.581 Q143.746 315.581 141.894 317.734 Q140.066 319.887 140.066 323.637 Q140.066 327.364 141.894 329.54 Q143.746 331.693 146.894 331.693 Q150.043 331.693 151.871 329.54 Q153.723 327.364 153.723 323.637 Q153.723 319.887 151.871 317.734 Q150.043 315.581 146.894 315.581 M156.177 300.929 L156.177 305.188 Q154.417 304.355 152.612 303.915 Q150.83 303.475 149.07 303.475 Q144.441 303.475 141.987 306.6 Q139.556 309.725 139.209 316.044 Q140.575 314.031 142.635 312.966 Q144.695 311.878 147.172 311.878 Q152.38 311.878 155.39 315.049 Q158.422 318.197 158.422 323.637 Q158.422 328.961 155.274 332.179 Q152.126 335.396 146.894 335.396 Q140.899 335.396 137.728 330.813 Q134.556 326.206 134.556 317.48 Q134.556 309.285 138.445 304.424 Q142.334 299.54 148.885 299.54 Q150.644 299.54 152.427 299.887 Q154.232 300.234 156.177 300.929 Z" fill="#000000" fill-rule="nonzero" fill-opacity="1" /><path clip-path="url(#clip900)" d="M101.339 131.226 Q97.728 131.226 95.8993 134.79 Q94.0937 138.332 94.0937 145.462 Q94.0937 152.568 95.8993 156.133 Q97.728 159.675 101.339 159.675 Q104.973 159.675 106.779 156.133 Q108.608 152.568 108.608 145.462 Q108.608 138.332 106.779 134.79 Q104.973 131.226 101.339 131.226 M101.339 127.522 Q107.149 127.522 110.205 132.128 Q113.283 136.712 113.283 145.462 Q113.283 154.189 110.205 158.795 Q107.149 163.378 101.339 163.378 Q95.5289 163.378 92.4502 158.795 Q89.3947 154.189 89.3947 145.462 Q89.3947 136.712 92.4502 132.128 Q95.5289 127.522 101.339 127.522 Z" fill="#000000" fill-rule="nonzero" fill-opacity="1" /><path clip-path="url(#clip900)" d="M121.501 156.827 L126.385 156.827 L126.385 162.707 L121.501 162.707 L121.501 156.827 Z" fill="#000000" fill-rule="nonzero" fill-opacity="1" /><path clip-path="url(#clip900)" d="M146.57 146.295 Q143.237 146.295 141.316 148.077 Q139.418 149.86 139.418 152.985 Q139.418 156.11 141.316 157.892 Q143.237 159.675 146.57 159.675 Q149.904 159.675 151.825 157.892 Q153.746 156.087 153.746 152.985 Q153.746 149.86 151.825 148.077 Q149.927 146.295 146.57 146.295 M141.894 144.304 Q138.885 143.564 137.195 141.503 Q135.529 139.443 135.529 136.48 Q135.529 132.337 138.469 129.929 Q141.431 127.522 146.57 127.522 Q151.732 127.522 154.672 129.929 Q157.612 132.337 157.612 136.48 Q157.612 139.443 155.922 141.503 Q154.255 143.564 151.269 144.304 Q154.649 145.091 156.524 147.383 Q158.422 149.675 158.422 152.985 Q158.422 158.008 155.343 160.693 Q152.288 163.378 146.57 163.378 Q140.853 163.378 137.774 160.693 Q134.719 158.008 134.719 152.985 Q134.719 149.675 136.617 147.383 Q138.515 145.091 141.894 144.304 M140.181 136.92 Q140.181 139.605 141.848 141.11 Q143.538 142.615 146.57 142.615 Q149.58 142.615 151.269 141.11 Q152.982 139.605 152.982 136.92 Q152.982 134.235 151.269 132.73 Q149.58 131.226 146.57 131.226 Q143.538 131.226 141.848 132.73 Q140.181 134.235 140.181 136.92 Z" fill="#000000" fill-rule="nonzero" fill-opacity="1" /><polyline clip-path="url(#clip902)" style="stroke:#000000; stroke-linecap:round; stroke-linejoin:round; stroke-width:4; stroke-opacity:1; fill:none" stroke-dasharray="16, 10" points="255.507,833.499 2291.67,833.499 "/>
<polyline clip-path="url(#clip902)" style="stroke:#0000ff; stroke-linecap:round; stroke-linejoin:round; stroke-width:4; stroke-opacity:1; fill:none" points="255.507,126.403 276.074,153.084 296.642,179.312 317.209,205.092 337.776,230.434 358.344,255.345 378.911,279.831 399.478,303.9 420.046,327.56 440.613,350.817 461.18,373.678 481.747,396.149 502.315,418.238 522.882,439.951 543.449,461.295 564.017,482.274 584.584,502.897 605.151,523.169 625.719,543.095 646.286,562.683 666.853,581.936 687.421,600.862 707.988,619.466 728.555,637.753 749.123,655.729 769.69,673.399 790.257,690.768 810.824,707.841 831.392,724.623 851.959,741.12 872.526,757.336 893.094,773.276 913.661,788.944 934.228,804.346 954.796,819.485 975.363,834.367 995.93,848.995 1016.5,863.375 1037.06,877.509 1057.63,891.403 1078.2,905.06 1098.77,918.485 1119.33,931.681 1139.9,944.653 1160.47,957.403 1181.04,969.937 1201.6,982.257 1222.17,994.368 1242.74,1006.27 1263.31,1017.97 1283.87,1029.48 1304.44,1040.78 1325.01,1051.9 1345.57,1062.82 1366.14,1073.56 1386.71,1084.12 1407.28,1094.49 1427.84,1104.69 1448.41,1114.72 1468.98,1124.57 1489.55,1134.26 1510.11,1143.78 1530.68,1153.14 1551.25,1162.35 1571.82,1171.39 1592.38,1180.28 1612.95,1189.02 1633.52,1197.61 1654.08,1206.05 1674.65,1214.35 1695.22,1222.51 1715.79,1230.53 1736.35,1238.42 1756.92,1246.17 1777.49,1253.78 1798.06,1261.27 1818.62,1268.63 1839.19,1275.87 1859.76,1282.98 1880.32,1289.97 1900.89,1296.84 1921.46,1303.6 1942.03,1310.24 1962.59,1316.76 1983.16,1323.18 2003.73,1329.48 2024.3,1335.68 2044.86,1341.78 2065.43,1347.77 2086,1353.65 2106.57,1359.44 2127.13,1365.13 2147.7,1370.72 2168.27,1376.22 2188.83,1381.62 2209.4,1386.93 2229.97,1392.15 2250.54,1397.29 2271.1,1402.33 2291.67,1407.29 "/>
<polyline clip-path="url(#clip902)" style="stroke:#ff0000; stroke-linecap:round; stroke-linejoin:round; stroke-width:4; stroke-opacity:1; fill:none" points="2171.9,1377.18 375.281,275.54 1285.23,833.499 "/>
<circle clip-path="url(#clip902)" cx="2171.9" cy="1377.18" r="7.2" fill="#ff0000" fill-rule="evenodd" fill-opacity="1" stroke="none"/>
<circle clip-path="url(#clip902)" cx="375.281" cy="275.54" r="7.2" fill="#ff0000" fill-rule="evenodd" fill-opacity="1" stroke="none"/>
<circle clip-path="url(#clip902)" cx="1285.23" cy="833.499" r="7.2" fill="#ff0000" fill-rule="evenodd" fill-opacity="1" stroke="none"/>
<polyline clip-path="url(#clip902)" style="stroke:#000000; stroke-linecap:round; stroke-linejoin:round; stroke-width:2; stroke-opacity:1; fill:none" stroke-dasharray="8, 5" points="375.281,1445.72 375.281,87.9763 "/>
<polyline clip-path="url(#clip902)" style="stroke:#ff0000; stroke-linecap:round; stroke-linejoin:round; stroke-width:4; stroke-opacity:1; fill:none" points="1285.23,1030.23 2171.9,1377.18 782.466,833.499 "/>
<circle clip-path="url(#clip902)" cx="1285.23" cy="1030.23" r="7.2" fill="#ff0000" fill-rule="evenodd" fill-opacity="1" stroke="none"/>
<circle clip-path="url(#clip902)" cx="2171.9" cy="1377.18" r="7.2" fill="#ff0000" fill-rule="evenodd" fill-opacity="1" stroke="none"/>
<circle clip-path="url(#clip902)" cx="782.466" cy="833.499" r="7.2" fill="#ff0000" fill-rule="evenodd" fill-opacity="1" stroke="none"/>
<polyline clip-path="url(#clip902)" style="stroke:#000000; stroke-linecap:round; stroke-linejoin:round; stroke-width:2; stroke-opacity:1; fill:none" stroke-dasharray="8, 5" points="2171.9,1445.72 2171.9,87.9763 "/>
<polyline clip-path="url(#clip902)" style="stroke:#ff0000; stroke-linecap:round; stroke-linejoin:round; stroke-width:4; stroke-opacity:1; fill:none" points="782.466,684.223 1285.23,1030.23 999.371,833.499 "/>
<circle clip-path="url(#clip902)" cx="782.466" cy="684.223" r="7.2" fill="#ff0000" fill-rule="evenodd" fill-opacity="1" stroke="none"/>
<circle clip-path="url(#clip902)" cx="1285.23" cy="1030.23" r="7.2" fill="#ff0000" fill-rule="evenodd" fill-opacity="1" stroke="none"/>
<circle clip-path="url(#clip902)" cx="999.371" cy="833.499" r="7.2" fill="#ff0000" fill-rule="evenodd" fill-opacity="1" stroke="none"/>
<polyline clip-path="url(#clip902)" style="stroke:#000000; stroke-linecap:round; stroke-linejoin:round; stroke-width:2; stroke-opacity:1; fill:none" stroke-dasharray="8, 5" points="1285.23,1445.72 1285.23,87.9763 "/>
<polyline clip-path="url(#clip902)" style="stroke:#ff0000; stroke-linecap:round; stroke-linejoin:round; stroke-width:4; stroke-opacity:1; fill:none" points="999.371,851.418 782.466,684.223 976.124,833.499 "/>
<circle clip-path="url(#clip902)" cx="999.371" cy="851.418" r="7.2" fill="#ff0000" fill-rule="evenodd" fill-opacity="1" stroke="none"/>
<circle clip-path="url(#clip902)" cx="782.466" cy="684.223" r="7.2" fill="#ff0000" fill-rule="evenodd" fill-opacity="1" stroke="none"/>
<circle clip-path="url(#clip902)" cx="976.124" cy="833.499" r="7.2" fill="#ff0000" fill-rule="evenodd" fill-opacity="1" stroke="none"/>
<polyline clip-path="url(#clip902)" style="stroke:#000000; stroke-linecap:round; stroke-linejoin:round; stroke-width:2; stroke-opacity:1; fill:none" stroke-dasharray="8, 5" points="782.466,1445.72 782.466,87.9763 "/>
<path clip-path="url(#clip900)" d="M300.933 197.818 Q300.933 200.114 299.499 201.425 Q298.064 202.696 296.424 202.696 Q294.867 202.696 294.047 201.794 Q293.227 200.893 293.227 199.745 Q293.227 198.187 294.375 196.835 Q295.523 195.482 297.244 195.195 Q295.564 194.129 293.063 194.129 Q291.424 194.129 289.989 194.99 Q288.595 195.851 287.735 196.958 Q286.915 198.064 286.177 199.663 Q285.48 201.22 285.193 202.163 Q284.947 203.065 284.742 204.049 L281.873 215.526 Q280.48 220.977 280.48 222.904 Q280.48 225.281 281.627 226.88 Q282.775 228.437 285.07 228.437 Q285.972 228.437 286.997 228.191 Q288.022 227.904 289.333 227.167 Q290.686 226.388 291.875 225.24 Q293.104 224.051 294.293 222.043 Q295.482 220.035 296.26 217.452 Q296.506 216.55 297.326 216.55 Q298.351 216.55 298.351 217.37 Q298.351 218.067 297.777 219.543 Q297.244 220.977 296.056 222.863 Q294.908 224.707 293.391 226.388 Q291.875 228.027 289.62 229.175 Q287.366 230.323 284.906 230.323 Q281.381 230.323 279.045 228.437 Q276.709 226.552 275.848 223.928 Q275.643 224.297 275.356 224.789 Q275.069 225.281 274.208 226.388 Q273.388 227.454 272.446 228.273 Q271.503 229.052 270.027 229.667 Q268.593 230.323 267.035 230.323 Q265.068 230.323 263.305 229.749 Q261.584 229.175 260.354 227.863 Q259.124 226.552 259.124 224.748 Q259.124 222.74 260.477 221.346 Q261.87 219.912 263.756 219.912 Q264.945 219.912 265.887 220.608 Q266.871 221.305 266.871 222.822 Q266.871 224.502 265.723 225.773 Q264.576 227.044 262.936 227.372 Q264.617 228.437 267.117 228.437 Q269.822 228.437 271.954 226.06 Q274.085 223.683 275.11 219.707 Q277.651 210.156 278.635 205.893 Q279.619 201.589 279.619 199.745 Q279.619 198.023 279.168 196.835 Q278.717 195.646 277.938 195.113 Q277.2 194.539 276.504 194.334 Q275.848 194.129 275.11 194.129 Q273.88 194.129 272.487 194.621 Q271.134 195.113 269.494 196.261 Q267.896 197.367 266.379 199.663 Q264.863 201.958 263.838 205.114 Q263.633 206.057 262.731 206.057 Q261.747 206.016 261.747 205.196 Q261.747 204.5 262.28 203.065 Q262.854 201.589 264.002 199.745 Q265.191 197.9 266.707 196.261 Q268.265 194.58 270.519 193.432 Q272.815 192.285 275.274 192.285 Q276.381 192.285 277.446 192.531 Q278.553 192.736 279.865 193.35 Q281.217 193.965 282.406 195.318 Q283.595 196.671 284.333 198.638 Q284.824 197.695 285.48 196.794 Q286.177 195.892 287.243 194.785 Q288.35 193.637 289.866 192.982 Q291.424 192.285 293.145 192.285 Q294.826 192.285 296.465 192.736 Q298.105 193.146 299.499 194.498 Q300.933 195.81 300.933 197.818 Z" fill="#000000" fill-rule="nonzero" fill-opacity="1" /><path clip-path="url(#clip900)" d="M309.49 234.781 Q309.49 226.145 311.671 221.439 Q314.712 214.438 321.886 214.438 Q323.406 214.438 324.984 214.869 Q326.591 215.271 328.6 216.849 Q330.637 218.427 331.871 221.009 Q334.223 226.002 334.223 234.781 Q334.223 243.361 332.043 248.037 Q328.858 254.866 321.828 254.866 Q319.188 254.866 316.491 253.518 Q313.823 252.169 312.13 248.927 Q309.49 244.078 309.49 234.781 M314.368 234.064 Q314.368 242.93 314.999 246.459 Q315.717 250.275 317.668 251.94 Q319.648 253.575 321.828 253.575 Q324.181 253.575 326.132 251.825 Q328.112 250.046 328.714 246.23 Q329.374 242.471 329.346 234.064 Q329.346 225.887 328.772 222.616 Q327.997 218.8 325.931 217.279 Q323.894 215.73 321.828 215.73 Q321.054 215.73 320.221 215.959 Q319.418 216.189 318.242 216.849 Q317.065 217.509 316.147 219.144 Q315.258 220.78 314.827 223.247 Q314.368 226.432 314.368 234.064 Z" fill="#000000" fill-rule="nonzero" fill-opacity="1" /><path clip-path="url(#clip900)" d="M2241.44 198.458 Q2241.44 200.754 2240 202.065 Q2238.57 203.336 2236.93 203.336 Q2235.37 203.336 2234.55 202.434 Q2233.73 201.532 2233.73 200.385 Q2233.73 198.827 2234.88 197.474 Q2236.03 196.122 2237.75 195.835 Q2236.07 194.769 2233.57 194.769 Q2231.93 194.769 2230.49 195.63 Q2229.1 196.491 2228.24 197.597 Q2227.42 198.704 2226.68 200.303 Q2225.98 201.86 2225.7 202.803 Q2225.45 203.705 2225.25 204.689 L2222.38 216.166 Q2220.98 221.617 2220.98 223.544 Q2220.98 225.921 2222.13 227.52 Q2223.28 229.077 2225.57 229.077 Q2226.48 229.077 2227.5 228.831 Q2228.53 228.544 2229.84 227.806 Q2231.19 227.028 2232.38 225.88 Q2233.61 224.691 2234.8 222.683 Q2235.99 220.674 2236.76 218.092 Q2237.01 217.19 2237.83 217.19 Q2238.86 217.19 2238.86 218.01 Q2238.86 218.707 2238.28 220.182 Q2237.75 221.617 2236.56 223.503 Q2235.41 225.347 2233.9 227.028 Q2232.38 228.667 2230.12 229.815 Q2227.87 230.963 2225.41 230.963 Q2221.89 230.963 2219.55 229.077 Q2217.21 227.192 2216.35 224.568 Q2216.15 224.937 2215.86 225.429 Q2215.57 225.921 2214.71 227.028 Q2213.89 228.093 2212.95 228.913 Q2212.01 229.692 2210.53 230.307 Q2209.1 230.963 2207.54 230.963 Q2205.57 230.963 2203.81 230.389 Q2202.09 229.815 2200.86 228.503 Q2199.63 227.192 2199.63 225.388 Q2199.63 223.38 2200.98 221.986 Q2202.37 220.551 2204.26 220.551 Q2205.45 220.551 2206.39 221.248 Q2207.38 221.945 2207.38 223.462 Q2207.38 225.142 2206.23 226.413 Q2205.08 227.684 2203.44 228.011 Q2205.12 229.077 2207.62 229.077 Q2210.33 229.077 2212.46 226.7 Q2214.59 224.322 2215.61 220.346 Q2218.16 210.796 2219.14 206.533 Q2220.12 202.229 2220.12 200.385 Q2220.12 198.663 2219.67 197.474 Q2219.22 196.286 2218.44 195.753 Q2217.7 195.179 2217.01 194.974 Q2216.35 194.769 2215.61 194.769 Q2214.38 194.769 2212.99 195.261 Q2211.64 195.753 2210 196.901 Q2208.4 198.007 2206.88 200.303 Q2205.37 202.598 2204.34 205.754 Q2204.14 206.697 2203.24 206.697 Q2202.25 206.656 2202.25 205.836 Q2202.25 205.139 2202.78 203.705 Q2203.36 202.229 2204.51 200.385 Q2205.69 198.54 2207.21 196.901 Q2208.77 195.22 2211.02 194.072 Q2213.32 192.925 2215.78 192.925 Q2216.88 192.925 2217.95 193.171 Q2219.06 193.375 2220.37 193.99 Q2221.72 194.605 2222.91 195.958 Q2224.1 197.31 2224.84 199.278 Q2225.33 198.335 2225.98 197.433 Q2226.68 196.532 2227.75 195.425 Q2228.85 194.277 2230.37 193.621 Q2231.93 192.925 2233.65 192.925 Q2235.33 192.925 2236.97 193.375 Q2238.61 193.785 2240 195.138 Q2241.44 196.45 2241.44 198.458 Z" fill="#000000" fill-rule="nonzero" fill-opacity="1" /><path clip-path="url(#clip900)" d="M2249.99 220.673 L2249.99 218.837 Q2257.05 218.837 2260.7 215.078 Q2261.7 215.078 2261.87 215.308 Q2262.05 215.537 2262.05 216.599 L2262.05 249.567 Q2262.05 251.317 2262.91 251.862 Q2263.77 252.407 2267.53 252.407 L2269.39 252.407 L2269.39 254.215 Q2267.32 254.043 2259.86 254.043 Q2252.4 254.043 2250.37 254.215 L2250.37 252.407 L2252.23 252.407 Q2255.93 252.407 2256.82 251.891 Q2257.71 251.346 2257.71 249.567 L2257.71 219.124 Q2254.64 220.673 2249.99 220.673 Z" fill="#000000" fill-rule="nonzero" fill-opacity="1" /><path clip-path="url(#clip900)" d="M1210.88 198.458 Q1210.88 200.754 1209.45 202.065 Q1208.01 203.336 1206.37 203.336 Q1204.82 203.336 1204 202.434 Q1203.18 201.532 1203.18 200.385 Q1203.18 198.827 1204.33 197.474 Q1205.47 196.122 1207.19 195.835 Q1205.51 194.769 1203.01 194.769 Q1201.37 194.769 1199.94 195.63 Q1198.55 196.491 1197.69 197.597 Q1196.87 198.704 1196.13 200.303 Q1195.43 201.86 1195.14 202.803 Q1194.9 203.705 1194.69 204.689 L1191.82 216.166 Q1190.43 221.617 1190.43 223.544 Q1190.43 225.921 1191.58 227.52 Q1192.73 229.077 1195.02 229.077 Q1195.92 229.077 1196.95 228.831 Q1197.97 228.544 1199.28 227.806 Q1200.64 227.028 1201.83 225.88 Q1203.05 224.691 1204.24 222.683 Q1205.43 220.674 1206.21 218.092 Q1206.46 217.19 1207.28 217.19 Q1208.3 217.19 1208.3 218.01 Q1208.3 218.707 1207.73 220.182 Q1207.19 221.617 1206.01 223.503 Q1204.86 225.347 1203.34 227.028 Q1201.83 228.667 1199.57 229.815 Q1197.32 230.963 1194.86 230.963 Q1191.33 230.963 1189 229.077 Q1186.66 227.192 1185.8 224.568 Q1185.59 224.937 1185.31 225.429 Q1185.02 225.921 1184.16 227.028 Q1183.34 228.093 1182.4 228.913 Q1181.45 229.692 1179.98 230.307 Q1178.54 230.963 1176.99 230.963 Q1175.02 230.963 1173.26 230.389 Q1171.53 229.815 1170.3 228.503 Q1169.07 227.192 1169.07 225.388 Q1169.07 223.38 1170.43 221.986 Q1171.82 220.551 1173.71 220.551 Q1174.9 220.551 1175.84 221.248 Q1176.82 221.945 1176.82 223.462 Q1176.82 225.142 1175.67 226.413 Q1174.53 227.684 1172.89 228.011 Q1174.57 229.077 1177.07 229.077 Q1179.77 229.077 1181.9 226.7 Q1184.04 224.322 1185.06 220.346 Q1187.6 210.796 1188.59 206.533 Q1189.57 202.229 1189.57 200.385 Q1189.57 198.663 1189.12 197.474 Q1188.67 196.286 1187.89 195.753 Q1187.15 195.179 1186.45 194.974 Q1185.8 194.769 1185.06 194.769 Q1183.83 194.769 1182.44 195.261 Q1181.08 195.753 1179.44 196.901 Q1177.85 198.007 1176.33 200.303 Q1174.81 202.598 1173.79 205.754 Q1173.58 206.697 1172.68 206.697 Q1171.7 206.656 1171.7 205.836 Q1171.7 205.139 1172.23 203.705 Q1172.8 202.229 1173.95 200.385 Q1175.14 198.54 1176.66 196.901 Q1178.22 195.22 1180.47 194.072 Q1182.76 192.925 1185.22 192.925 Q1186.33 192.925 1187.4 193.171 Q1188.5 193.375 1189.82 193.99 Q1191.17 194.605 1192.36 195.958 Q1193.55 197.31 1194.28 199.278 Q1194.77 198.335 1195.43 197.433 Q1196.13 196.532 1197.19 195.425 Q1198.3 194.277 1199.82 193.621 Q1201.37 192.925 1203.1 192.925 Q1204.78 192.925 1206.42 193.375 Q1208.06 193.785 1209.45 195.138 Q1210.88 196.45 1210.88 198.458 Z" fill="#000000" fill-rule="nonzero" fill-opacity="1" /><path clip-path="url(#clip900)" d="M1219.44 254.215 Q1219.44 253.153 1219.53 252.838 Q1219.64 252.522 1220.1 252.034 L1231.38 239.467 Q1237.55 232.523 1237.55 226.469 Q1237.55 222.538 1235.48 219.727 Q1233.44 216.915 1229.68 216.915 Q1227.1 216.915 1224.92 218.493 Q1222.74 220.071 1221.74 222.883 Q1221.91 222.825 1222.51 222.825 Q1223.97 222.825 1224.78 223.743 Q1225.61 224.662 1225.61 225.895 Q1225.61 227.474 1224.58 228.248 Q1223.57 228.994 1222.57 228.994 Q1222.17 228.994 1221.62 228.908 Q1221.1 228.822 1220.27 228.019 Q1219.44 227.187 1219.44 225.723 Q1219.44 221.62 1222.54 218.349 Q1225.67 215.078 1230.43 215.078 Q1235.82 215.078 1239.35 218.292 Q1242.91 221.477 1242.91 226.469 Q1242.91 228.22 1242.37 229.826 Q1241.85 231.404 1241.13 232.638 Q1240.44 233.872 1238.55 235.852 Q1236.66 237.831 1235.14 239.237 Q1233.61 240.643 1230.2 243.627 L1223.97 249.681 L1234.56 249.681 Q1239.73 249.681 1240.13 249.222 Q1240.7 248.39 1241.42 244 L1242.91 244 L1241.25 254.215 L1219.44 254.215 Z" fill="#000000" fill-rule="nonzero" fill-opacity="1" /><path clip-path="url(#clip900)" d="M852.007 197.818 Q852.007 200.114 850.572 201.425 Q849.138 202.696 847.498 202.696 Q845.94 202.696 845.121 201.794 Q844.301 200.893 844.301 199.745 Q844.301 198.187 845.449 196.835 Q846.596 195.482 848.318 195.195 Q846.637 194.129 844.137 194.129 Q842.497 194.129 841.063 194.99 Q839.669 195.851 838.808 196.958 Q837.989 198.064 837.251 199.663 Q836.554 201.22 836.267 202.163 Q836.021 203.065 835.816 204.049 L832.947 215.526 Q831.553 220.977 831.553 222.904 Q831.553 225.281 832.701 226.88 Q833.849 228.437 836.144 228.437 Q837.046 228.437 838.07 228.191 Q839.095 227.904 840.407 227.167 Q841.76 226.388 842.948 225.24 Q844.178 224.051 845.367 222.043 Q846.555 220.035 847.334 217.452 Q847.58 216.55 848.4 216.55 Q849.425 216.55 849.425 217.37 Q849.425 218.067 848.851 219.543 Q848.318 220.977 847.129 222.863 Q845.981 224.707 844.465 226.388 Q842.948 228.027 840.694 229.175 Q838.439 230.323 835.98 230.323 Q832.455 230.323 830.119 228.437 Q827.782 226.552 826.921 223.928 Q826.716 224.297 826.43 224.789 Q826.143 225.281 825.282 226.388 Q824.462 227.454 823.519 228.273 Q822.577 229.052 821.101 229.667 Q819.666 230.323 818.109 230.323 Q816.141 230.323 814.379 229.749 Q812.657 229.175 811.427 227.863 Q810.198 226.552 810.198 224.748 Q810.198 222.74 811.55 221.346 Q812.944 219.912 814.83 219.912 Q816.018 219.912 816.961 220.608 Q817.945 221.305 817.945 222.822 Q817.945 224.502 816.797 225.773 Q815.649 227.044 814.01 227.372 Q815.69 228.437 818.191 228.437 Q820.896 228.437 823.027 226.06 Q825.159 223.683 826.184 219.707 Q828.725 210.156 829.709 205.893 Q830.692 201.589 830.692 199.745 Q830.692 198.023 830.242 196.835 Q829.791 195.646 829.012 195.113 Q828.274 194.539 827.577 194.334 Q826.921 194.129 826.184 194.129 Q824.954 194.129 823.56 194.621 Q822.208 195.113 820.568 196.261 Q818.969 197.367 817.453 199.663 Q815.936 201.958 814.912 205.114 Q814.707 206.057 813.805 206.057 Q812.821 206.016 812.821 205.196 Q812.821 204.5 813.354 203.065 Q813.928 201.589 815.076 199.745 Q816.264 197.9 817.781 196.261 Q819.338 194.58 821.593 193.432 Q823.888 192.285 826.348 192.285 Q827.454 192.285 828.52 192.531 Q829.627 192.736 830.938 193.35 Q832.291 193.965 833.48 195.318 Q834.668 196.671 835.406 198.638 Q835.898 197.695 836.554 196.794 Q837.251 195.892 838.316 194.785 Q839.423 193.637 840.94 192.982 Q842.497 192.285 844.219 192.285 Q845.899 192.285 847.539 192.736 Q849.179 193.146 850.572 194.498 Q852.007 195.81 852.007 197.818 Z" fill="#000000" fill-rule="nonzero" fill-opacity="1" /><path clip-path="url(#clip900)" d="M860.564 245.656 Q860.564 243.906 861.568 243.074 Q862.573 242.242 863.864 242.242 Q865.212 242.242 866.159 243.131 Q867.135 243.992 867.135 245.512 Q867.135 247.148 865.987 248.066 Q864.868 248.984 863.261 248.755 Q864.667 251.108 867.249 252.169 Q869.86 253.231 872.271 253.231 Q874.796 253.231 876.833 251.05 Q878.899 248.869 878.899 243.533 Q878.899 238.999 877.12 236.388 Q875.369 233.777 871.898 233.777 L869.315 233.777 Q868.426 233.777 868.168 233.691 Q867.909 233.605 867.909 233.117 Q867.909 232.543 868.799 232.429 Q869.688 232.429 871.094 232.257 Q874.509 232.142 876.316 229.186 Q877.952 226.432 877.952 222.501 Q877.952 218.915 876.23 217.423 Q874.537 215.902 872.328 215.902 Q870.262 215.902 867.995 216.763 Q865.729 217.623 864.495 219.546 Q868.139 219.546 868.139 222.501 Q868.139 223.792 867.307 224.653 Q866.503 225.485 865.155 225.485 Q863.864 225.485 863.003 224.682 Q862.142 223.85 862.142 222.444 Q862.142 219.087 865.126 216.763 Q868.139 214.438 872.558 214.438 Q876.919 214.438 880.132 216.734 Q883.375 219.029 883.375 222.558 Q883.375 226.03 881.079 228.871 Q878.784 231.711 875.14 232.888 Q879.616 233.777 882.284 236.819 Q884.953 239.831 884.953 243.533 Q884.953 248.123 881.337 251.509 Q877.722 254.866 872.443 254.866 Q867.565 254.866 864.065 252.227 Q860.564 249.587 860.564 245.656 Z" fill="#000000" fill-rule="nonzero" fill-opacity="1" /></svg>
