<?xml version="1.0" encoding="utf-8"?>
<svg xmlns="http://www.w3.org/2000/svg" xmlns:xlink="http://www.w3.org/1999/xlink" width="600" height="400" viewBox="0 0 2400 1600">
<defs>
  <clipPath id="clip710">
    <rect x="0" y="0" width="2400" height="1600"/>
  </clipPath>
</defs>
<path clip-path="url(#clip710)" d="M0 1600 L2400 1600 L2400 0 L0 0  Z" fill="#ffffff" fill-rule="evenodd" fill-opacity="1"/>
<defs>
  <clipPath id="clip711">
    <rect x="480" y="0" width="1681" height="1600"/>
  </clipPath>
</defs>
<path clip-path="url(#clip710)" d="M156.112 1486.45 L2352.76 1486.45 L2352.76 47.2441 L156.112 47.2441  Z" fill="#ffffff" fill-rule="evenodd" fill-opacity="1"/>
<defs>
  <clipPath id="clip712">
    <rect x="156" y="47" width="2198" height="1440"/>
  </clipPath>
</defs>
<polyline clip-path="url(#clip712)" style="stroke:#000000; stroke-linecap:round; stroke-linejoin:round; stroke-width:2; stroke-opacity:0.1; fill:none" points="218.281,1486.45 218.281,47.2441 "/>
<polyline clip-path="url(#clip712)" style="stroke:#000000; stroke-linecap:round; stroke-linejoin:round; stroke-width:2; stroke-opacity:0.1; fill:none" points="563.666,1486.45 563.666,47.2441 "/>
<polyline clip-path="url(#clip712)" style="stroke:#000000; stroke-linecap:round; stroke-linejoin:round; stroke-width:2; stroke-opacity:0.1; fill:none" points="909.05,1486.45 909.05,47.2441 "/>
<polyline clip-path="url(#clip712)" style="stroke:#000000; stroke-linecap:round; stroke-linejoin:round; stroke-width:2; stroke-opacity:0.1; fill:none" points="1254.43,1486.45 1254.43,47.2441 "/>
<polyline clip-path="url(#clip712)" style="stroke:#000000; stroke-linecap:round; stroke-linejoin:round; stroke-width:2; stroke-opacity:0.1; fill:none" points="1599.82,1486.45 1599.82,47.2441 "/>
<polyline clip-path="url(#clip712)" style="stroke:#000000; stroke-linecap:round; stroke-linejoin:round; stroke-width:2; stroke-opacity:0.1; fill:none" points="1945.2,1486.45 1945.2,47.2441 "/>
<polyline clip-path="url(#clip712)" style="stroke:#000000; stroke-linecap:round; stroke-linejoin:round; stroke-width:2; stroke-opacity:0.1; fill:none" points="2290.59,1486.45 2290.59,47.2441 "/>
<polyline clip-path="url(#clip710)" style="stroke:#000000; stroke-linecap:round; stroke-linejoin:round; stroke-width:4; stroke-opacity:1; fill:none" points="156.112,1486.45 2352.76,1486.45 "/>
<polyline clip-path="url(#clip710)" style="stroke:#000000; stroke-linecap:round; stroke-linejoin:round; stroke-width:4; stroke-opacity:1; fill:none" points="218.281,1486.45 218.281,1467.55 "/>
<polyline clip-path="url(#clip710)" style="stroke:#000000; stroke-linecap:round; stroke-linejoin:round; stroke-width:4; stroke-opacity:1; fill:none" points="563.666,1486.45 563.666,1467.55 "/>
<polyline clip-path="url(#clip710)" style="stroke:#000000; stroke-linecap:round; stroke-linejoin:round; stroke-width:4; stroke-opacity:1; fill:none" points="909.05,1486.45 909.05,1467.55 "/>
<polyline clip-path="url(#clip710)" style="stroke:#000000; stroke-linecap:round; stroke-linejoin:round; stroke-width:4; stroke-opacity:1; fill:none" points="1254.43,1486.45 1254.43,1467.55 "/>
<polyline clip-path="url(#clip710)" style="stroke:#000000; stroke-linecap:round; stroke-linejoin:round; stroke-width:4; stroke-opacity:1; fill:none" points="1599.82,1486.45 1599.82,1467.55 "/>
<polyline clip-path="url(#clip710)" style="stroke:#000000; stroke-linecap:round; stroke-linejoin:round; stroke-width:4; stroke-opacity:1; fill:none" points="1945.2,1486.45 1945.2,1467.55 "/>
<polyline clip-path="url(#clip710)" style="stroke:#000000; stroke-linecap:round; stroke-linejoin:round; stroke-width:4; stroke-opacity:1; fill:none" points="2290.59,1486.45 2290.59,1467.55 "/>
<path clip-path="url(#clip710)" d="M172.344 1532.02 L202.02 1532.02 L202.02 1535.95 L172.344 1535.95 L172.344 1532.02 Z" fill="#000000" fill-rule="nonzero" fill-opacity="1" /><path clip-path="url(#clip710)" d="M212.923 1544.91 L220.561 1544.91 L220.561 1518.55 L212.251 1520.21 L212.251 1515.95 L220.515 1514.29 L225.191 1514.29 L225.191 1544.91 L232.83 1544.91 L232.83 1548.85 L212.923 1548.85 L212.923 1544.91 Z" fill="#000000" fill-rule="nonzero" fill-opacity="1" /><path clip-path="url(#clip710)" d="M252.274 1517.37 Q248.663 1517.37 246.834 1520.93 Q245.029 1524.47 245.029 1531.6 Q245.029 1538.71 246.834 1542.27 Q248.663 1545.82 252.274 1545.82 Q255.908 1545.82 257.714 1542.27 Q259.543 1538.71 259.543 1531.6 Q259.543 1524.47 257.714 1520.93 Q255.908 1517.37 252.274 1517.37 M252.274 1513.66 Q258.084 1513.66 261.14 1518.27 Q264.219 1522.85 264.219 1531.6 Q264.219 1540.33 261.14 1544.94 Q258.084 1549.52 252.274 1549.52 Q246.464 1549.52 243.385 1544.94 Q240.33 1540.33 240.33 1531.6 Q240.33 1522.85 243.385 1518.27 Q246.464 1513.66 252.274 1513.66 Z" fill="#000000" fill-rule="nonzero" fill-opacity="1" /><path clip-path="url(#clip710)" d="M563.666 1517.37 Q560.054 1517.37 558.226 1520.93 Q556.42 1524.47 556.42 1531.6 Q556.42 1538.71 558.226 1542.27 Q560.054 1545.82 563.666 1545.82 Q567.3 1545.82 569.105 1542.27 Q570.934 1538.71 570.934 1531.6 Q570.934 1524.47 569.105 1520.93 Q567.3 1517.37 563.666 1517.37 M563.666 1513.66 Q569.476 1513.66 572.531 1518.27 Q575.61 1522.85 575.61 1531.6 Q575.61 1540.33 572.531 1544.94 Q569.476 1549.52 563.666 1549.52 Q557.855 1549.52 554.777 1544.94 Q551.721 1540.33 551.721 1531.6 Q551.721 1522.85 554.777 1518.27 Q557.855 1513.66 563.666 1513.66 Z" fill="#000000" fill-rule="nonzero" fill-opacity="1" /><path clip-path="url(#clip710)" d="M883.737 1544.91 L891.376 1544.91 L891.376 1518.55 L883.066 1520.21 L883.066 1515.95 L891.33 1514.29 L896.006 1514.29 L896.006 1544.91 L903.645 1544.91 L903.645 1548.85 L883.737 1548.85 L883.737 1544.91 Z" fill="#000000" fill-rule="nonzero" fill-opacity="1" /><path clip-path="url(#clip710)" d="M923.089 1517.37 Q919.478 1517.37 917.649 1520.93 Q915.844 1524.47 915.844 1531.6 Q915.844 1538.71 917.649 1542.27 Q919.478 1545.82 923.089 1545.82 Q926.723 1545.82 928.529 1542.27 Q930.358 1538.71 930.358 1531.6 Q930.358 1524.47 928.529 1520.93 Q926.723 1517.37 923.089 1517.37 M923.089 1513.66 Q928.899 1513.66 931.955 1518.27 Q935.033 1522.85 935.033 1531.6 Q935.033 1540.33 931.955 1544.94 Q928.899 1549.52 923.089 1549.52 Q917.279 1549.52 914.2 1544.94 Q911.145 1540.33 911.145 1531.6 Q911.145 1522.85 914.2 1518.27 Q917.279 1513.66 923.089 1513.66 Z" fill="#000000" fill-rule="nonzero" fill-opacity="1" /><path clip-path="url(#clip710)" d="M1233.21 1544.91 L1249.53 1544.91 L1249.53 1548.85 L1227.58 1548.85 L1227.58 1544.91 Q1230.24 1542.16 1234.83 1537.53 Q1239.43 1532.88 1240.61 1531.53 Q1242.86 1529.01 1243.74 1527.27 Q1244.64 1525.51 1244.64 1523.82 Q1244.64 1521.07 1242.7 1519.33 Q1240.78 1517.6 1237.67 1517.6 Q1235.48 1517.6 1233.02 1518.36 Q1230.59 1519.13 1227.81 1520.68 L1227.81 1515.95 Q1230.64 1514.82 1233.09 1514.24 Q1235.55 1513.66 1237.58 1513.66 Q1242.95 1513.66 1246.15 1516.35 Q1249.34 1519.03 1249.34 1523.52 Q1249.34 1525.65 1248.53 1527.57 Q1247.74 1529.47 1245.64 1532.07 Q1245.06 1532.74 1241.96 1535.95 Q1238.86 1539.15 1233.21 1544.91 Z" fill="#000000" fill-rule="nonzero" fill-opacity="1" /><path clip-path="url(#clip710)" d="M1269.34 1517.37 Q1265.73 1517.37 1263.9 1520.93 Q1262.1 1524.47 1262.1 1531.6 Q1262.1 1538.71 1263.9 1542.27 Q1265.73 1545.82 1269.34 1545.82 Q1272.98 1545.82 1274.78 1542.27 Q1276.61 1538.71 1276.61 1531.6 Q1276.61 1524.47 1274.78 1520.93 Q1272.98 1517.37 1269.34 1517.37 M1269.34 1513.66 Q1275.15 1513.66 1278.21 1518.27 Q1281.29 1522.85 1281.29 1531.6 Q1281.29 1540.33 1278.21 1544.94 Q1275.15 1549.52 1269.34 1549.52 Q1263.53 1549.52 1260.45 1544.94 Q1257.4 1540.33 1257.4 1531.6 Q1257.4 1522.85 1260.45 1518.27 Q1263.53 1513.66 1269.34 1513.66 Z" fill="#000000" fill-rule="nonzero" fill-opacity="1" /><path clip-path="url(#clip710)" d="M1588.66 1530.21 Q1592.02 1530.93 1593.89 1533.2 Q1595.79 1535.47 1595.79 1538.8 Q1595.79 1543.92 1592.27 1546.72 Q1588.75 1549.52 1582.27 1549.52 Q1580.1 1549.52 1577.78 1549.08 Q1575.49 1548.66 1573.04 1547.81 L1573.04 1543.29 Q1574.98 1544.43 1577.3 1545.01 Q1579.61 1545.58 1582.13 1545.58 Q1586.53 1545.58 1588.82 1543.85 Q1591.14 1542.11 1591.14 1538.8 Q1591.14 1535.75 1588.98 1534.03 Q1586.86 1532.3 1583.04 1532.3 L1579.01 1532.3 L1579.01 1528.45 L1583.22 1528.45 Q1586.67 1528.45 1588.5 1527.09 Q1590.33 1525.7 1590.33 1523.11 Q1590.33 1520.45 1588.43 1519.03 Q1586.55 1517.6 1583.04 1517.6 Q1581.11 1517.6 1578.92 1518.01 Q1576.72 1518.43 1574.08 1519.31 L1574.08 1515.14 Q1576.74 1514.4 1579.05 1514.03 Q1581.39 1513.66 1583.45 1513.66 Q1588.78 1513.66 1591.88 1516.09 Q1594.98 1518.5 1594.98 1522.62 Q1594.98 1525.49 1593.34 1527.48 Q1591.69 1529.45 1588.66 1530.21 Z" fill="#000000" fill-rule="nonzero" fill-opacity="1" /><path clip-path="url(#clip710)" d="M1614.66 1517.37 Q1611.05 1517.37 1609.22 1520.93 Q1607.41 1524.47 1607.41 1531.6 Q1607.41 1538.71 1609.22 1542.27 Q1611.05 1545.82 1614.66 1545.82 Q1618.29 1545.82 1620.1 1542.27 Q1621.92 1538.71 1621.92 1531.6 Q1621.92 1524.47 1620.1 1520.93 Q1618.29 1517.37 1614.66 1517.37 M1614.66 1513.66 Q1620.47 1513.66 1623.52 1518.27 Q1626.6 1522.85 1626.6 1531.6 Q1626.6 1540.33 1623.52 1544.94 Q1620.47 1549.52 1614.66 1549.52 Q1608.85 1549.52 1605.77 1544.94 Q1602.71 1540.33 1602.71 1531.6 Q1602.71 1522.85 1605.77 1518.27 Q1608.85 1513.66 1614.66 1513.66 Z" fill="#000000" fill-rule="nonzero" fill-opacity="1" /><path clip-path="url(#clip710)" d="M1933.37 1518.36 L1921.57 1536.81 L1933.37 1536.81 L1933.37 1518.36 M1932.15 1514.29 L1938.03 1514.29 L1938.03 1536.81 L1942.96 1536.81 L1942.96 1540.7 L1938.03 1540.7 L1938.03 1548.85 L1933.37 1548.85 L1933.37 1540.7 L1917.77 1540.7 L1917.77 1536.19 L1932.15 1514.29 Z" fill="#000000" fill-rule="nonzero" fill-opacity="1" /><path clip-path="url(#clip710)" d="M1960.69 1517.37 Q1957.08 1517.37 1955.25 1520.93 Q1953.44 1524.47 1953.44 1531.6 Q1953.44 1538.71 1955.25 1542.27 Q1957.08 1545.82 1960.69 1545.82 Q1964.32 1545.82 1966.13 1542.27 Q1967.96 1538.71 1967.96 1531.6 Q1967.96 1524.47 1966.13 1520.93 Q1964.32 1517.37 1960.69 1517.37 M1960.69 1513.66 Q1966.5 1513.66 1969.55 1518.27 Q1972.63 1522.85 1972.63 1531.6 Q1972.63 1540.33 1969.55 1544.94 Q1966.5 1549.52 1960.69 1549.52 Q1954.88 1549.52 1951.8 1544.94 Q1948.74 1540.33 1948.74 1531.6 Q1948.74 1522.85 1951.8 1518.27 Q1954.88 1513.66 1960.69 1513.66 Z" fill="#000000" fill-rule="nonzero" fill-opacity="1" /><path clip-path="url(#clip710)" d="M2265.29 1514.29 L2283.64 1514.29 L2283.64 1518.22 L2269.57 1518.22 L2269.57 1526.7 Q2270.59 1526.35 2271.61 1526.19 Q2272.62 1526 2273.64 1526 Q2279.43 1526 2282.81 1529.17 Q2286.19 1532.34 2286.19 1537.76 Q2286.19 1543.34 2282.72 1546.44 Q2279.24 1549.52 2272.92 1549.52 Q2270.75 1549.52 2268.48 1549.15 Q2266.24 1548.78 2263.83 1548.04 L2263.83 1543.34 Q2265.91 1544.47 2268.13 1545.03 Q2270.36 1545.58 2272.83 1545.58 Q2276.84 1545.58 2279.17 1543.48 Q2281.51 1541.37 2281.51 1537.76 Q2281.51 1534.15 2279.17 1532.04 Q2276.84 1529.94 2272.83 1529.94 Q2270.96 1529.94 2269.08 1530.35 Q2267.23 1530.77 2265.29 1531.65 L2265.29 1514.29 Z" fill="#000000" fill-rule="nonzero" fill-opacity="1" /><path clip-path="url(#clip710)" d="M2305.4 1517.37 Q2301.79 1517.37 2299.96 1520.93 Q2298.16 1524.47 2298.16 1531.6 Q2298.16 1538.71 2299.96 1542.27 Q2301.79 1545.82 2305.4 1545.82 Q2309.04 1545.82 2310.84 1542.27 Q2312.67 1538.71 2312.67 1531.6 Q2312.67 1524.47 2310.84 1520.93 Q2309.04 1517.37 2305.4 1517.37 M2305.4 1513.66 Q2311.21 1513.66 2314.27 1518.27 Q2317.35 1522.85 2317.35 1531.6 Q2317.35 1540.33 2314.27 1544.94 Q2311.21 1549.52 2305.4 1549.52 Q2299.59 1549.52 2296.51 1544.94 Q2293.46 1540.33 2293.46 1531.6 Q2293.46 1522.85 2296.51 1518.27 Q2299.59 1513.66 2305.4 1513.66 Z" fill="#000000" fill-rule="nonzero" fill-opacity="1" /><polyline clip-path="url(#clip712)" style="stroke:#000000; stroke-linecap:round; stroke-linejoin:round; stroke-width:2; stroke-opacity:0.1; fill:none" points="156.112,1445.72 2352.76,1445.72 "/>
<polyline clip-path="url(#clip712)" style="stroke:#000000; stroke-linecap:round; stroke-linejoin:round; stroke-width:2; stroke-opacity:0.1; fill:none" points="156.112,1102.84 2352.76,1102.84 "/>
<polyline clip-path="url(#clip712)" style="stroke:#000000; stroke-linecap:round; stroke-linejoin:round; stroke-width:2; stroke-opacity:0.1; fill:none" points="156.112,759.973 2352.76,759.973 "/>
<polyline clip-path="url(#clip712)" style="stroke:#000000; stroke-linecap:round; stroke-linejoin:round; stroke-width:2; stroke-opacity:0.1; fill:none" points="156.112,417.101 2352.76,417.101 "/>
<polyline clip-path="url(#clip712)" style="stroke:#000000; stroke-linecap:round; stroke-linejoin:round; stroke-width:2; stroke-opacity:0.1; fill:none" points="156.112,74.2295 2352.76,74.2295 "/>
<polyline clip-path="url(#clip710)" style="stroke:#000000; stroke-linecap:round; stroke-linejoin:round; stroke-width:4; stroke-opacity:1; fill:none" points="156.112,1486.45 156.112,47.2441 "/>
<polyline clip-path="url(#clip710)" style="stroke:#000000; stroke-linecap:round; stroke-linejoin:round; stroke-width:4; stroke-opacity:1; fill:none" points="156.112,1445.72 175.01,1445.72 "/>
<polyline clip-path="url(#clip710)" style="stroke:#000000; stroke-linecap:round; stroke-linejoin:round; stroke-width:4; stroke-opacity:1; fill:none" points="156.112,1102.84 175.01,1102.84 "/>
<polyline clip-path="url(#clip710)" style="stroke:#000000; stroke-linecap:round; stroke-linejoin:round; stroke-width:4; stroke-opacity:1; fill:none" points="156.112,759.973 175.01,759.973 "/>
<polyline clip-path="url(#clip710)" style="stroke:#000000; stroke-linecap:round; stroke-linejoin:round; stroke-width:4; stroke-opacity:1; fill:none" points="156.112,417.101 175.01,417.101 "/>
<polyline clip-path="url(#clip710)" style="stroke:#000000; stroke-linecap:round; stroke-linejoin:round; stroke-width:4; stroke-opacity:1; fill:none" points="156.112,74.2295 175.01,74.2295 "/>
<path clip-path="url(#clip710)" d="M62.9365 1431.51 Q59.3254 1431.51 57.4967 1435.08 Q55.6912 1438.62 55.6912 1445.75 Q55.6912 1452.86 57.4967 1456.42 Q59.3254 1459.96 62.9365 1459.96 Q66.5707 1459.96 68.3763 1456.42 Q70.205 1452.86 70.205 1445.75 Q70.205 1438.62 68.3763 1435.08 Q66.5707 1431.51 62.9365 1431.51 M62.9365 1427.81 Q68.7467 1427.81 71.8022 1432.42 Q74.8809 1437 74.8809 1445.75 Q74.8809 1454.48 71.8022 1459.08 Q68.7467 1463.67 62.9365 1463.67 Q57.1264 1463.67 54.0477 1459.08 Q50.9921 1454.48 50.9921 1445.75 Q50.9921 1437 54.0477 1432.42 Q57.1264 1427.81 62.9365 1427.81 Z" fill="#000000" fill-rule="nonzero" fill-opacity="1" /><path clip-path="url(#clip710)" d="M83.0984 1457.12 L87.9827 1457.12 L87.9827 1463 L83.0984 1463 L83.0984 1457.12 Z" fill="#000000" fill-rule="nonzero" fill-opacity="1" /><path clip-path="url(#clip710)" d="M108.168 1431.51 Q104.557 1431.51 102.728 1435.08 Q100.922 1438.62 100.922 1445.75 Q100.922 1452.86 102.728 1456.42 Q104.557 1459.96 108.168 1459.96 Q111.802 1459.96 113.608 1456.42 Q115.436 1452.86 115.436 1445.75 Q115.436 1438.62 113.608 1435.08 Q111.802 1431.51 108.168 1431.51 M108.168 1427.81 Q113.978 1427.81 117.033 1432.42 Q120.112 1437 120.112 1445.75 Q120.112 1454.48 117.033 1459.08 Q113.978 1463.67 108.168 1463.67 Q102.358 1463.67 99.2789 1459.08 Q96.2234 1454.48 96.2234 1445.75 Q96.2234 1437 99.2789 1432.42 Q102.358 1427.81 108.168 1427.81 Z" fill="#000000" fill-rule="nonzero" fill-opacity="1" /><path clip-path="url(#clip710)" d="M63.9319 1088.64 Q60.3208 1088.64 58.4921 1092.21 Q56.6865 1095.75 56.6865 1102.88 Q56.6865 1109.99 58.4921 1113.55 Q60.3208 1117.09 63.9319 1117.09 Q67.5661 1117.09 69.3717 1113.55 Q71.2004 1109.99 71.2004 1102.88 Q71.2004 1095.75 69.3717 1092.21 Q67.5661 1088.64 63.9319 1088.64 M63.9319 1084.94 Q69.742 1084.94 72.7976 1089.55 Q75.8763 1094.13 75.8763 1102.88 Q75.8763 1111.61 72.7976 1116.21 Q69.742 1120.8 63.9319 1120.8 Q58.1217 1120.8 55.043 1116.21 Q51.9875 1111.61 51.9875 1102.88 Q51.9875 1094.13 55.043 1089.55 Q58.1217 1084.94 63.9319 1084.94 Z" fill="#000000" fill-rule="nonzero" fill-opacity="1" /><path clip-path="url(#clip710)" d="M84.0938 1114.24 L88.978 1114.24 L88.978 1120.12 L84.0938 1120.12 L84.0938 1114.24 Z" fill="#000000" fill-rule="nonzero" fill-opacity="1" /><path clip-path="url(#clip710)" d="M99.2095 1085.56 L117.566 1085.56 L117.566 1089.5 L103.492 1089.5 L103.492 1097.97 Q104.51 1097.62 105.529 1097.46 Q106.547 1097.28 107.566 1097.28 Q113.353 1097.28 116.733 1100.45 Q120.112 1103.62 120.112 1109.04 Q120.112 1114.61 116.64 1117.72 Q113.168 1120.8 106.848 1120.8 Q104.672 1120.8 102.404 1120.43 Q100.159 1120.05 97.7511 1119.31 L97.7511 1114.61 Q99.8345 1115.75 102.057 1116.3 Q104.279 1116.86 106.756 1116.86 Q110.76 1116.86 113.098 1114.75 Q115.436 1112.65 115.436 1109.04 Q115.436 1105.43 113.098 1103.32 Q110.76 1101.21 106.756 1101.21 Q104.881 1101.21 103.006 1101.63 Q101.154 1102.05 99.2095 1102.93 L99.2095 1085.56 Z" fill="#000000" fill-rule="nonzero" fill-opacity="1" /><path clip-path="url(#clip710)" d="M53.7467 773.317 L61.3856 773.317 L61.3856 746.952 L53.0754 748.618 L53.0754 744.359 L61.3393 742.693 L66.0152 742.693 L66.0152 773.317 L73.654 773.317 L73.654 777.253 L53.7467 777.253 L53.7467 773.317 Z" fill="#000000" fill-rule="nonzero" fill-opacity="1" /><path clip-path="url(#clip710)" d="M83.0984 771.373 L87.9827 771.373 L87.9827 777.253 L83.0984 777.253 L83.0984 771.373 Z" fill="#000000" fill-rule="nonzero" fill-opacity="1" /><path clip-path="url(#clip710)" d="M108.168 745.771 Q104.557 745.771 102.728 749.336 Q100.922 752.878 100.922 760.007 Q100.922 767.114 102.728 770.679 Q104.557 774.22 108.168 774.22 Q111.802 774.22 113.608 770.679 Q115.436 767.114 115.436 760.007 Q115.436 752.878 113.608 749.336 Q111.802 745.771 108.168 745.771 M108.168 742.068 Q113.978 742.068 117.033 746.674 Q120.112 751.257 120.112 760.007 Q120.112 768.734 117.033 773.341 Q113.978 777.924 108.168 777.924 Q102.358 777.924 99.2789 773.341 Q96.2234 768.734 96.2234 760.007 Q96.2234 751.257 99.2789 746.674 Q102.358 742.068 108.168 742.068 Z" fill="#000000" fill-rule="nonzero" fill-opacity="1" /><path clip-path="url(#clip710)" d="M54.7421 430.446 L62.381 430.446 L62.381 404.08 L54.0708 405.747 L54.0708 401.488 L62.3347 399.821 L67.0106 399.821 L67.0106 430.446 L74.6494 430.446 L74.6494 434.381 L54.7421 434.381 L54.7421 430.446 Z" fill="#000000" fill-rule="nonzero" fill-opacity="1" /><path clip-path="url(#clip710)" d="M84.0938 428.501 L88.978 428.501 L88.978 434.381 L84.0938 434.381 L84.0938 428.501 Z" fill="#000000" fill-rule="nonzero" fill-opacity="1" /><path clip-path="url(#clip710)" d="M99.2095 399.821 L117.566 399.821 L117.566 403.756 L103.492 403.756 L103.492 412.228 Q104.51 411.881 105.529 411.719 Q106.547 411.534 107.566 411.534 Q113.353 411.534 116.733 414.705 Q120.112 417.877 120.112 423.293 Q120.112 428.872 116.64 431.974 Q113.168 435.052 106.848 435.052 Q104.672 435.052 102.404 434.682 Q100.159 434.312 97.7511 433.571 L97.7511 428.872 Q99.8345 430.006 102.057 430.562 Q104.279 431.117 106.756 431.117 Q110.76 431.117 113.098 429.011 Q115.436 426.904 115.436 423.293 Q115.436 419.682 113.098 417.576 Q110.76 415.469 106.756 415.469 Q104.881 415.469 103.006 415.886 Q101.154 416.302 99.2095 417.182 L99.2095 399.821 Z" fill="#000000" fill-rule="nonzero" fill-opacity="1" /><path clip-path="url(#clip710)" d="M56.9643 87.5743 L73.2837 87.5743 L73.2837 91.5095 L51.3393 91.5095 L51.3393 87.5743 Q54.0014 84.8197 58.5847 80.1901 Q63.1911 75.5374 64.3717 74.1948 Q66.617 71.6716 67.4967 69.9355 Q68.3994 68.1763 68.3994 66.4865 Q68.3994 63.7319 66.455 61.9958 Q64.5337 60.2597 61.4319 60.2597 Q59.2328 60.2597 56.7791 61.0236 Q54.3486 61.7874 51.5708 63.3384 L51.5708 58.6162 Q54.3949 57.4819 56.8486 56.9032 Q59.3023 56.3245 61.3393 56.3245 Q66.7096 56.3245 69.9041 59.0097 Q73.0985 61.6948 73.0985 66.1856 Q73.0985 68.3152 72.2883 70.2365 Q71.5013 72.1346 69.3948 74.7272 Q68.8161 75.3985 65.7143 78.616 Q62.6124 81.8105 56.9643 87.5743 Z" fill="#000000" fill-rule="nonzero" fill-opacity="1" /><path clip-path="url(#clip710)" d="M83.0984 85.6299 L87.9827 85.6299 L87.9827 91.5095 L83.0984 91.5095 L83.0984 85.6299 Z" fill="#000000" fill-rule="nonzero" fill-opacity="1" /><path clip-path="url(#clip710)" d="M108.168 60.0282 Q104.557 60.0282 102.728 63.593 Q100.922 67.1346 100.922 74.2642 Q100.922 81.3707 102.728 84.9355 Q104.557 88.4771 108.168 88.4771 Q111.802 88.4771 113.608 84.9355 Q115.436 81.3707 115.436 74.2642 Q115.436 67.1346 113.608 63.593 Q111.802 60.0282 108.168 60.0282 M108.168 56.3245 Q113.978 56.3245 117.033 60.931 Q120.112 65.5143 120.112 74.2642 Q120.112 82.991 117.033 87.5975 Q113.978 92.1808 108.168 92.1808 Q102.358 92.1808 99.2789 87.5975 Q96.2234 82.991 96.2234 74.2642 Q96.2234 65.5143 99.2789 60.931 Q102.358 56.3245 108.168 56.3245 Z" fill="#000000" fill-rule="nonzero" fill-opacity="1" /><polyline clip-path="url(#clip712)" style="stroke:#009af9; stroke-linecap:round; stroke-linejoin:round; stroke-width:4; stroke-opacity:1; fill:none" points="218.281,1445.4 220.356,1445.39 222.43,1445.37 224.504,1445.35 226.579,1445.33 228.653,1445.31 230.728,1445.29 232.802,1445.26 234.876,1445.24 236.951,1445.21 239.025,1445.18 241.099,1445.15 243.174,1445.12 245.248,1445.09 247.323,1445.05 249.397,1445.02 251.471,1444.98 253.546,1444.94 255.62,1444.9 257.695,1444.85 259.769,1444.81 261.843,1444.76 263.918,1444.7 265.992,1444.65 268.066,1444.59 270.141,1444.53 272.215,1444.46 274.29,1444.4 276.364,1444.32 278.438,1444.25 280.513,1444.17 282.587,1444.09 284.661,1444 286.736,1443.9 288.81,1443.81 290.885,1443.7 292.959,1443.6 295.033,1443.48 297.108,1443.36 299.182,1443.23 301.256,1443.1 303.331,1442.96 305.405,1442.81 307.48,1442.66 309.554,1442.5 311.628,1442.33 313.703,1442.15 315.777,1441.96 317.852,1441.76 319.926,1441.55 322,1441.33 324.075,1441.09 326.149,1440.85 328.223,1440.6 330.298,1440.33 332.372,1440.04 334.447,1439.75 336.521,1439.43 338.595,1439.11 340.67,1438.76 342.744,1438.4 344.818,1438.02 346.893,1437.62 348.967,1437.2 351.042,1436.76 353.116,1436.3 355.19,1435.81 357.265,1435.31 359.339,1434.77 361.413,1434.21 363.488,1433.63 365.562,1433.01 367.637,1432.36 369.711,1431.69 371.785,1430.98 373.86,1430.23 375.934,1429.45 378.009,1428.64 380.083,1427.78 382.157,1426.89 384.232,1425.95 386.306,1424.96 388.38,1423.94 390.455,1422.86 392.529,1421.73 394.604,1420.55 396.678,1419.32 398.752,1418.03 400.827,1416.68 402.901,1415.28 404.975,1413.8 407.05,1412.27 409.124,1410.66 411.199,1408.98 413.273,1407.23 415.347,1405.4 417.422,1403.5 419.496,1401.51 421.571,1399.43 423.645,1397.27 425.719,1395.02 427.794,1392.67 429.868,1390.23 431.942,1387.68 434.017,1385.03 436.091,1382.28 438.166,1379.41 440.24,1376.43 442.314,1373.34 444.389,1370.12 446.463,1366.78 448.537,1363.31 450.612,1359.72 452.686,1355.99 454.761,1352.12 456.835,1348.12 458.909,1343.98 460.984,1339.68 463.058,1335.25 465.132,1330.66 467.207,1325.92 469.281,1321.02 471.356,1315.97 473.43,1310.76 475.504,1305.38 477.579,1299.85 479.653,1294.16 481.728,1288.3 483.802,1282.27 485.876,1276.09 487.951,1269.73 490.025,1263.22 492.099,1256.55 494.174,1249.71 496.248,1242.72 498.323,1235.57 500.397,1228.27 502.471,1220.82 504.546,1213.23 506.62,1205.49 508.694,1197.63 510.769,1189.63 512.843,1181.51 514.918,1173.28 516.992,1164.93 519.066,1156.49 521.141,1147.96 523.215,1139.34 525.29,1130.65 527.364,1121.9 529.438,1113.09 531.513,1104.25 533.587,1095.37 535.661,1086.47 537.736,1077.57 539.81,1068.67 541.885,1059.78 543.959,1050.93 546.033,1042.11 548.108,1033.35 550.182,1024.64 552.256,1016.02 554.331,1007.48 556.405,999.034 558.48,990.699 560.554,982.481 562.628,974.39 564.703,966.435 566.777,958.625 568.851,950.968 570.926,943.47 573,936.139 575.075,928.98 577.149,921.997 579.223,915.196 581.298,908.58 583.372,902.152 585.447,895.915 587.521,889.869 589.595,884.016 591.67,878.356 593.744,872.889 595.818,867.614 597.893,862.529 599.967,857.633 602.042,852.923 604.116,848.396 606.19,844.05 608.265,839.881 610.339,835.886 612.413,832.059 614.488,828.398 616.562,824.897 618.637,821.552 620.711,818.358 622.785,815.311 624.86,812.405 626.934,809.637 629.008,807.001 631.083,804.491 633.157,802.104 635.232,799.835 637.306,797.679 639.38,795.63 641.455,793.686 643.529,791.84 645.604,790.09 647.678,788.43 649.752,786.857 651.827,785.366 653.901,783.954 655.975,782.617 658.05,781.351 660.124,780.153 662.199,779.02 664.273,777.948 666.347,776.935 668.422,775.977 670.496,775.071 672.57,774.215 674.645,773.406 676.719,772.642 678.794,771.921 680.868,771.24 682.942,770.596 685.017,769.989 687.091,769.416 689.166,768.875 691.24,768.364 693.314,767.883 695.389,767.428 697.463,767 699.537,766.595 701.612,766.214 703.686,765.854 705.761,765.515 707.835,765.195 709.909,764.894 711.984,764.609 714.058,764.341 716.132,764.089 718.207,763.851 720.281,763.626 722.356,763.415 724.43,763.215 726.504,763.027 728.579,762.85 730.653,762.683 732.727,762.526 734.802,762.378 736.876,762.238 738.951,762.107 741.025,761.983 743.099,761.866 745.174,761.756 747.248,761.653 749.323,761.555 751.397,761.463 753.471,761.376 755.546,761.295 757.62,761.218 759.694,761.145 761.769,761.077 763.843,761.013 765.918,760.952 767.992,760.895 770.066,760.842 772.141,760.791 774.215,760.743 776.289,760.699 778.364,760.656 780.438,760.617 782.513,760.579 784.587,760.544 786.661,760.51 788.736,760.479 790.81,760.45 792.885,760.422 794.959,760.396 797.033,760.371 799.108,760.348 801.182,760.326 803.256,760.305 805.331,760.286 807.405,760.268 809.48,760.251 811.554,760.234 813.628,760.219 815.703,760.205 817.777,760.191 819.851,760.178 821.926,760.166 824,760.155 826.075,760.145 828.149,760.135 830.223,760.125 832.298,760.116 834.372,760.108 836.446,760.1 838.521,760.093 840.595,760.086 842.67,760.079 844.744,760.073 846.818,760.067 848.893,760.061 850.967,760.056 853.042,760.051 855.116,760.047 857.19,760.042 859.265,760.038 861.339,760.035 863.413,760.031 865.488,760.028 867.562,760.024 869.637,760.021 871.711,760.018 873.785,760.016 875.86,760.013 877.934,760.011 880.008,760.009 882.083,760.007 884.157,760.005 886.232,760.003 888.306,760.001 890.38,759.999 892.455,759.998 894.529,759.996 896.603,759.995 898.678,759.994 900.752,759.992 902.827,759.991 904.901,759.99 906.975,759.989 909.05,759.988 911.124,759.987 913.199,759.986 915.273,759.986 917.347,759.985 919.422,759.984 921.496,759.983 923.57,759.983 925.645,759.982 927.719,759.982 929.794,759.981 931.868,759.981 933.942,759.98 936.017,759.98 938.091,759.979 940.165,759.979 942.24,759.979 944.314,759.978 946.389,759.978 948.463,759.978 950.537,759.977 952.612,759.977 954.686,759.977 956.761,759.977 958.835,759.976 960.909,759.976 962.984,759.976 965.058,759.976 967.132,759.975 969.207,759.975 971.281,759.975 973.356,759.975 975.43,759.975 977.504,759.975 979.579,759.975 981.653,759.974 983.727,759.974 985.802,759.974 987.876,759.974 989.951,759.974 992.025,759.974 994.099,759.974 996.174,759.974 998.248,759.974 1000.32,759.974 1002.4,759.974 1004.47,759.974 1006.55,759.974 1008.62,759.973 1010.69,759.973 1012.77,759.973 1014.84,759.973 1016.92,759.973 1018.99,759.973 1021.07,759.973 1023.14,759.973 1025.22,759.973 1027.29,759.973 1029.36,759.973 1031.44,759.973 1033.51,759.973 1035.59,759.973 1037.66,759.973 1039.74,759.973 1041.81,759.973 1043.88,759.973 1045.96,759.973 1048.03,759.973 1050.11,759.973 1052.18,759.973 1054.26,759.973 1056.33,759.973 1058.41,759.973 1060.48,759.973 1062.55,759.973 1064.63,759.973 1066.7,759.973 1068.78,759.973 1070.85,759.973 1072.93,759.973 1075,759.973 1077.07,759.973 1079.15,759.973 1081.22,759.973 1083.3,759.973 1085.37,759.973 1087.45,759.973 1089.52,759.973 1091.6,759.973 1093.67,759.973 1095.74,759.973 1097.82,759.973 1099.89,759.973 1101.97,759.973 1104.04,759.973 1106.12,759.973 1108.19,759.973 1110.26,759.973 1112.34,759.973 1114.41,759.973 1116.49,759.973 1118.56,759.973 1120.64,759.973 1122.71,759.973 1124.79,759.973 1126.86,759.973 1128.93,759.973 1131.01,759.973 1133.08,759.973 1135.16,759.973 1137.23,759.973 1139.31,759.973 1141.38,759.973 1143.45,759.973 1145.53,759.973 1147.6,759.973 1149.68,759.973 1151.75,759.973 1153.83,759.973 1155.9,759.973 1157.98,759.973 1160.05,759.973 1162.12,759.973 1164.2,759.973 1166.27,759.973 1168.35,759.973 1170.42,759.973 1172.5,759.973 1174.57,759.973 1176.64,759.973 1178.72,759.973 1180.79,759.973 1182.87,759.973 1184.94,759.973 1187.02,759.973 1189.09,759.973 1191.17,759.973 1193.24,759.973 1195.31,759.973 1197.39,759.973 1199.46,759.973 1201.54,759.973 1203.61,759.973 1205.69,759.973 1207.76,759.973 1209.83,759.973 1211.91,759.973 1213.98,759.973 1216.06,759.973 1218.13,759.973 1220.21,759.973 1222.28,759.973 1224.36,759.973 1226.43,759.973 1228.5,759.973 1230.58,759.973 1232.65,759.973 1234.73,759.973 1236.8,759.973 1238.88,759.973 1240.95,759.973 1243.02,759.973 1245.1,759.973 1247.17,759.973 1249.25,759.973 1251.32,759.973 1253.4,759.973 1255.47,759.973 1257.55,759.973 1259.62,759.973 1261.69,759.973 1263.77,759.973 1265.84,759.973 1267.92,759.973 1269.99,759.973 1272.07,759.973 1274.14,759.973 1276.22,759.973 1278.29,759.973 1280.36,759.973 1282.44,759.973 1284.51,759.973 1286.59,759.973 1288.66,759.973 1290.74,759.972 1292.81,759.973 1294.88,759.973 1296.96,759.973 1299.03,759.973 1301.11,759.973 1303.18,759.972 1305.26,759.972 1307.33,759.973 1309.41,759.972 1311.48,759.972 1313.55,759.973 1315.63,759.973 1317.7,759.973 1319.78,759.973 1321.85,759.973 1323.93,759.972 1326,759.973 1328.07,759.972 1330.15,759.972 1332.22,759.973 1334.3,759.973 1336.37,759.973 1338.45,759.973 1340.52,759.973 1342.6,759.973 1344.67,759.972 1346.74,759.972 1348.82,759.973 1350.89,759.973 1352.97,759.972 1355.04,759.973 1357.12,759.973 1359.19,759.973 1361.26,759.973 1363.34,759.973 1365.41,759.972 1367.49,759.972 1369.56,759.972 1371.64,759.972 1373.71,759.974 1375.79,759.973 1377.86,759.971 1379.93,759.972 1382.01,759.972 1384.08,759.973 1386.16,759.974 1388.23,759.971 1390.31,759.971 1392.38,759.973 1394.45,759.972 1396.53,759.971 1398.6,759.972 1400.68,759.975 1402.75,759.974 1404.83,759.975 1406.9,759.971 1408.98,759.97 1411.05,759.973 1413.12,759.973 1415.2,759.976 1417.27,759.97 1419.35,759.973 1421.42,759.974 1423.5,759.968 1425.57,759.968 1427.64,759.968 1429.72,759.973 1431.79,759.97 1433.87,759.969 1435.94,759.978 1438.02,759.969 1440.09,759.971 1442.17,759.973 1444.24,759.976 1446.31,759.969 1448.39,759.972 1450.46,759.974 1452.54,759.972 1454.61,759.973 1456.69,759.97 1458.76,759.964 1460.83,759.966 1462.91,759.969 1464.98,759.976 1467.06,759.963 1469.13,759.987 1471.21,759.97 1473.28,759.991 1475.36,759.985 1477.43,759.97 1479.5,759.984 1481.58,759.975 1483.65,759.944 1485.73,759.966 1487.8,759.949 1489.88,759.995 1491.95,759.952 1494.02,759.945 1496.1,759.981 1498.17,759.99 1500.25,759.985 1502.32,759.997 1504.4,759.967 1506.47,759.944 1508.55,759.997 1510.62,759.979 1512.69,759.974 1514.77,759.961 1516.84,759.924 1518.92,760.007 1520.99,759.906 1523.07,759.951 1525.14,760.007 1527.21,759.915 1529.29,759.905 1531.36,760.054 1533.44,759.993 1535.51,760.023 1537.59,759.999 1539.66,760.034 1541.74,759.976 1543.81,759.966 1545.88,759.851 1547.96,759.812 1550.03,760.085 1552.11,760.16 1554.18,759.832 1556.26,759.785 1558.33,759.913 1560.41,760.086 1562.48,760.148 1564.55,759.915 1566.63,759.789 1568.7,760.293 1570.78,759.978 1572.85,760.014 1574.93,760.308 1577,759.904 1579.07,760.291 1581.15,759.563 1583.22,760.364 1585.3,759.62 1587.37,760.274 1589.45,760.023 1591.52,759.808 1593.6,759.475 1595.67,760.287 1597.74,759.232 1599.82,760.672 1601.89,759.737 1603.97,759.477 1606.04,759.864 1608.12,760.86 1610.19,760.212 1612.26,759.776 1614.34,759.434 1616.41,759.048 1618.49,761.243 1620.56,760.408 1622.64,758.942 1624.71,759.92 1626.79,760.098 1628.86,759.153 1630.93,760.719 1633.01,760.855 1635.08,759.116 1637.16,759.786 1639.23,758.076 1641.31,758.782 1643.38,762.21 1645.45,762.596 1647.53,759.172 1649.6,757.941 1651.68,759.188 1653.75,763.226 1655.83,762.157 1657.9,763.572 1659.98,758.494 1662.05,755.402 1664.12,765.031 1666.2,756.258 1668.27,760.814 1670.35,756.038 1672.42,766.61 1674.5,766.993 1676.57,755.01 1678.64,760.09 1680.72,751.513 1682.79,762.481 1684.87,758.374 1686.94,756.377 1689.02,756.766 1691.09,759.845 1693.17,765.944 1695.24,749.646 1697.31,761.312 1699.39,748.018 1701.46,766.57 1703.54,757.312 1705.61,749.51 1707.69,743.38 1709.76,778.411 1711.83,778.788 1713.91,781.768 1715.98,740.67 1718.06,746.94 1720.13,756.687 1722.21,770.319 1724.28,788.279 1726.36,747.583 1728.43,771.764 1730.5,730.046 1732.58,761.743 1734.65,800.106 1736.73,760.143 1738.8,717.705 1740.88,769.276 1742.95,727.404 1745.02,791.908 1747.1,751.437 1749.17,708.461 1751.25,793.306 1753.32,752.922 1755.4,710.038 1757.47,820.743 1759.55,782.057 1761.62,740.976 1763.69,697.352 1765.77,849.7 1767.84,812.807 1769.92,773.629 1771.99,732.027 1774.07,687.849 1776.14,640.937 1778.21,875.986 1780.29,840.72 1782.36,803.27 1784.44,763.503 1786.51,721.273 1788.59,676.43 1790.66,628.811 1792.74,578.244 1794.81,985.132 1796.88,956.621 1798.96,926.346 1801.03,894.197 1803.11,860.058 1805.18,823.806 1807.26,785.309 1809.33,744.43 1811.41,701.02 1813.48,654.923 1815.55,605.973 1817.63,553.992 1819.7,498.794 1821.78,440.18 1823.85,377.937 1825.93,311.841 1828,241.653 1830.07,167.122 1832.15,87.9763 1834.22,1445.72 1836.3,1445.72 1838.37,1445.72 1840.45,1445.72 1842.52,1445.72 1844.6,1445.72 1846.67,1445.72 1848.74,1445.72 1850.82,1445.72 1852.89,1445.72 1854.97,1445.72 1857.04,1445.72 1859.12,1445.72 1861.19,1445.72 1863.26,1445.72 1865.34,1445.72 1867.41,1445.72 1869.49,1445.72 1871.56,1445.72 1873.64,1445.72 1875.71,1445.72 1877.79,1445.72 1879.86,1445.72 1881.93,1445.72 1884.01,1445.72 1886.08,1445.72 1888.16,1445.72 1890.23,1445.72 1892.31,1445.72 1894.38,1445.72 1896.45,1445.72 1898.53,1445.72 1900.6,1445.72 1902.68,1445.72 1904.75,1445.72 1906.83,1445.72 1908.9,1445.72 1910.98,1445.72 1913.05,1445.72 1915.12,1445.72 1917.2,1445.72 1919.27,1445.72 1921.35,1445.72 1923.42,1445.72 1925.5,1445.72 1927.57,1445.72 1929.64,1445.72 1931.72,1445.72 1933.79,1445.72 1935.87,1445.72 1937.94,1445.72 1940.02,1445.72 1942.09,1445.72 1944.17,1445.72 1946.24,1445.72 1948.31,1445.72 1950.39,1445.72 1952.46,1445.72 1954.54,1445.72 1956.61,1445.72 1958.69,1445.72 1960.76,1445.72 1962.83,1445.72 1964.91,1445.72 1966.98,1445.72 1969.06,1445.72 1971.13,1445.72 1973.21,1445.72 1975.28,1445.72 1977.36,1445.72 1979.43,1445.72 1981.5,1445.72 1983.58,1445.72 1985.65,1445.72 1987.73,1445.72 1989.8,1445.72 1991.88,1445.72 1993.95,1445.72 1996.02,1445.72 1998.1,1445.72 2000.17,1445.72 2002.25,1445.72 2004.32,1445.72 2006.4,1445.72 2008.47,1445.72 2010.55,1445.72 2012.62,1445.72 2014.69,1445.72 2016.77,1445.72 2018.84,1445.72 2020.92,1445.72 2022.99,1445.72 2025.07,1445.72 2027.14,1445.72 2029.21,1445.72 2031.29,1445.72 2033.36,1445.72 2035.44,1445.72 2037.51,1445.72 2039.59,1445.72 2041.66,1445.72 2043.74,1445.72 2045.81,1445.72 2047.88,1445.72 2049.96,1445.72 2052.03,1445.72 2054.11,1445.72 2056.18,1445.72 2058.26,1445.72 2060.33,1445.72 2062.4,1445.72 2064.48,1445.72 2066.55,1445.72 2068.63,1445.72 2070.7,1445.72 2072.78,1445.72 2074.85,1445.72 2076.93,1445.72 2079,1445.72 2081.07,1445.72 2083.15,1445.72 2085.22,1445.72 2087.3,1445.72 2089.37,1445.72 2091.45,1445.72 2093.52,1445.72 2095.6,1445.72 2097.67,1445.72 2099.74,1445.72 2101.82,1445.72 2103.89,1445.72 2105.97,1445.72 2108.04,1445.72 2110.12,1445.72 2112.19,1445.72 2114.26,1445.72 2116.34,1445.72 2118.41,1445.72 2120.49,1445.72 2122.56,1445.72 2124.64,1445.72 2126.71,1445.72 2128.79,1445.72 2130.86,1445.72 2132.93,1445.72 2135.01,1445.72 2137.08,1445.72 2139.16,1445.72 2141.23,1445.72 2143.31,1445.72 2145.38,1445.72 2147.45,1445.72 2149.53,1445.72 2151.6,1445.72 2153.68,1445.72 2155.75,1445.72 2157.83,1445.72 2159.9,1445.72 2161.98,1445.72 2164.05,1445.72 2166.12,1445.72 2168.2,1445.72 2170.27,1445.72 2172.35,1445.72 2174.42,1445.72 2176.5,1445.72 2178.57,1445.72 2180.64,1445.72 2182.72,1445.72 2184.79,1445.72 2186.87,1445.72 2188.94,1445.72 2191.02,1445.72 2193.09,1445.72 2195.17,1445.72 2197.24,1445.72 2199.31,1445.72 2201.39,1445.72 2203.46,1445.72 2205.54,1445.72 2207.61,1445.72 2209.69,1445.72 2211.76,1445.72 2213.83,1445.72 2215.91,1445.72 2217.98,1445.72 2220.06,1445.72 2222.13,1445.72 2224.21,1445.72 2226.28,1445.72 2228.36,1445.72 2230.43,1445.72 2232.5,1445.72 2234.58,1445.72 2236.65,1445.72 2238.73,1445.72 2240.8,1445.72 2242.88,1445.72 2244.95,1445.72 2247.02,1445.72 2249.1,1445.72 2251.17,1445.72 2253.25,1445.72 2255.32,1445.72 2257.4,1445.72 2259.47,1445.72 2261.55,1445.72 2263.62,1445.72 2265.69,1445.72 2267.77,1445.72 2269.84,1445.72 2271.92,1445.72 2273.99,1445.72 2276.07,1445.72 2278.14,1445.72 2280.21,1445.72 2282.29,1445.72 2284.36,1445.72 2286.44,1445.72 2288.51,1445.72 2290.59,1445.72 "/>
</svg>
