<?xml version="1.0" encoding="utf-8"?>
<svg xmlns="http://www.w3.org/2000/svg" xmlns:xlink="http://www.w3.org/1999/xlink" width="600" height="400" viewBox="0 0 2400 1600">
<defs>
  <clipPath id="clip360">
    <rect x="0" y="0" width="2400" height="1600"/>
  </clipPath>
</defs>
<path clip-path="url(#clip360)" d="M0 1600 L2400 1600 L2400 0 L0 0  Z" fill="#ffffff" fill-rule="evenodd" fill-opacity="1"/>
<defs>
  <clipPath id="clip361">
    <rect x="480" y="0" width="1681" height="1600"/>
  </clipPath>
</defs>
<path clip-path="url(#clip360)" d="M213.607 1423.18 L2352.76 1423.18 L2352.76 47.2441 L213.607 47.2441  Z" fill="#ffffff" fill-rule="evenodd" fill-opacity="1"/>
<defs>
  <clipPath id="clip362">
    <rect x="213" y="47" width="2140" height="1377"/>
  </clipPath>
</defs>
<polyline clip-path="url(#clip362)" style="stroke:#000000; stroke-linecap:round; stroke-linejoin:round; stroke-width:2; stroke-opacity:0.1; fill:none" points="610.494,1423.18 610.494,47.2441 "/>
<polyline clip-path="url(#clip362)" style="stroke:#000000; stroke-linecap:round; stroke-linejoin:round; stroke-width:2; stroke-opacity:0.1; fill:none" points="1030.92,1423.18 1030.92,47.2441 "/>
<polyline clip-path="url(#clip362)" style="stroke:#000000; stroke-linecap:round; stroke-linejoin:round; stroke-width:2; stroke-opacity:0.1; fill:none" points="1451.35,1423.18 1451.35,47.2441 "/>
<polyline clip-path="url(#clip362)" style="stroke:#000000; stroke-linecap:round; stroke-linejoin:round; stroke-width:2; stroke-opacity:0.1; fill:none" points="1871.78,1423.18 1871.78,47.2441 "/>
<polyline clip-path="url(#clip362)" style="stroke:#000000; stroke-linecap:round; stroke-linejoin:round; stroke-width:2; stroke-opacity:0.1; fill:none" points="2292.21,1423.18 2292.21,47.2441 "/>
<polyline clip-path="url(#clip360)" style="stroke:#000000; stroke-linecap:round; stroke-linejoin:round; stroke-width:4; stroke-opacity:1; fill:none" points="213.607,1423.18 2352.76,1423.18 "/>
<polyline clip-path="url(#clip360)" style="stroke:#000000; stroke-linecap:round; stroke-linejoin:round; stroke-width:4; stroke-opacity:1; fill:none" points="610.494,1423.18 610.494,1404.28 "/>
<polyline clip-path="url(#clip360)" style="stroke:#000000; stroke-linecap:round; stroke-linejoin:round; stroke-width:4; stroke-opacity:1; fill:none" points="1030.92,1423.18 1030.92,1404.28 "/>
<polyline clip-path="url(#clip360)" style="stroke:#000000; stroke-linecap:round; stroke-linejoin:round; stroke-width:4; stroke-opacity:1; fill:none" points="1451.35,1423.18 1451.35,1404.28 "/>
<polyline clip-path="url(#clip360)" style="stroke:#000000; stroke-linecap:round; stroke-linejoin:round; stroke-width:4; stroke-opacity:1; fill:none" points="1871.78,1423.18 1871.78,1404.28 "/>
<polyline clip-path="url(#clip360)" style="stroke:#000000; stroke-linecap:round; stroke-linejoin:round; stroke-width:4; stroke-opacity:1; fill:none" points="2292.21,1423.18 2292.21,1404.28 "/>
<path clip-path="url(#clip360)" d="M585.181 1481.64 L592.82 1481.64 L592.82 1455.28 L584.51 1456.95 L584.51 1452.69 L592.774 1451.02 L597.45 1451.02 L597.45 1481.64 L605.088 1481.64 L605.088 1485.58 L585.181 1485.58 L585.181 1481.64 Z" fill="#000000" fill-rule="nonzero" fill-opacity="1" /><path clip-path="url(#clip360)" d="M624.533 1454.1 Q620.922 1454.1 619.093 1457.66 Q617.287 1461.2 617.287 1468.33 Q617.287 1475.44 619.093 1479.01 Q620.922 1482.55 624.533 1482.55 Q628.167 1482.55 629.973 1479.01 Q631.801 1475.44 631.801 1468.33 Q631.801 1461.2 629.973 1457.66 Q628.167 1454.1 624.533 1454.1 M624.533 1450.39 Q630.343 1450.39 633.398 1455 Q636.477 1459.58 636.477 1468.33 Q636.477 1477.06 633.398 1481.67 Q630.343 1486.25 624.533 1486.25 Q618.723 1486.25 615.644 1481.67 Q612.588 1477.06 612.588 1468.33 Q612.588 1459.58 615.644 1455 Q618.723 1450.39 624.533 1450.39 Z" fill="#000000" fill-rule="nonzero" fill-opacity="1" /><path clip-path="url(#clip360)" d="M1009.7 1481.64 L1026.02 1481.64 L1026.02 1485.58 L1004.07 1485.58 L1004.07 1481.64 Q1006.73 1478.89 1011.32 1474.26 Q1015.92 1469.61 1017.1 1468.27 Q1019.35 1465.74 1020.23 1464.01 Q1021.13 1462.25 1021.13 1460.56 Q1021.13 1457.8 1019.19 1456.07 Q1017.27 1454.33 1014.16 1454.33 Q1011.97 1454.33 1009.51 1455.09 Q1007.08 1455.86 1004.3 1457.41 L1004.3 1452.69 Q1007.13 1451.55 1009.58 1450.97 Q1012.03 1450.39 1014.07 1450.39 Q1019.44 1450.39 1022.64 1453.08 Q1025.83 1455.77 1025.83 1460.26 Q1025.83 1462.39 1025.02 1464.31 Q1024.23 1466.2 1022.13 1468.8 Q1021.55 1469.47 1018.45 1472.69 Q1015.35 1475.88 1009.7 1481.64 Z" fill="#000000" fill-rule="nonzero" fill-opacity="1" /><path clip-path="url(#clip360)" d="M1045.83 1454.1 Q1042.22 1454.1 1040.39 1457.66 Q1038.59 1461.2 1038.59 1468.33 Q1038.59 1475.44 1040.39 1479.01 Q1042.22 1482.55 1045.83 1482.55 Q1049.47 1482.55 1051.27 1479.01 Q1053.1 1475.44 1053.1 1468.33 Q1053.1 1461.2 1051.27 1457.66 Q1049.47 1454.1 1045.83 1454.1 M1045.83 1450.39 Q1051.64 1450.39 1054.7 1455 Q1057.78 1459.58 1057.78 1468.33 Q1057.78 1477.06 1054.7 1481.67 Q1051.64 1486.25 1045.83 1486.25 Q1040.02 1486.25 1036.94 1481.67 Q1033.89 1477.06 1033.89 1468.33 Q1033.89 1459.58 1036.94 1455 Q1040.02 1450.39 1045.83 1450.39 Z" fill="#000000" fill-rule="nonzero" fill-opacity="1" /><path clip-path="url(#clip360)" d="M1440.2 1466.95 Q1443.55 1467.66 1445.43 1469.93 Q1447.33 1472.2 1447.33 1475.53 Q1447.33 1480.65 1443.81 1483.45 Q1440.29 1486.25 1433.81 1486.25 Q1431.63 1486.25 1429.32 1485.81 Q1427.03 1485.39 1424.57 1484.54 L1424.57 1480.02 Q1426.52 1481.16 1428.83 1481.74 Q1431.15 1482.32 1433.67 1482.32 Q1438.07 1482.32 1440.36 1480.58 Q1442.67 1478.84 1442.67 1475.53 Q1442.67 1472.48 1440.52 1470.77 Q1438.39 1469.03 1434.57 1469.03 L1430.54 1469.03 L1430.54 1465.19 L1434.76 1465.19 Q1438.21 1465.19 1440.03 1463.82 Q1441.86 1462.43 1441.86 1459.84 Q1441.86 1457.18 1439.96 1455.77 Q1438.09 1454.33 1434.57 1454.33 Q1432.65 1454.33 1430.45 1454.75 Q1428.25 1455.16 1425.61 1456.04 L1425.61 1451.88 Q1428.28 1451.14 1430.59 1450.77 Q1432.93 1450.39 1434.99 1450.39 Q1440.31 1450.39 1443.41 1452.83 Q1446.52 1455.23 1446.52 1459.35 Q1446.52 1462.22 1444.87 1464.21 Q1443.23 1466.18 1440.2 1466.95 Z" fill="#000000" fill-rule="nonzero" fill-opacity="1" /><path clip-path="url(#clip360)" d="M1466.19 1454.1 Q1462.58 1454.1 1460.75 1457.66 Q1458.95 1461.2 1458.95 1468.33 Q1458.95 1475.44 1460.75 1479.01 Q1462.58 1482.55 1466.19 1482.55 Q1469.83 1482.55 1471.63 1479.01 Q1473.46 1475.44 1473.46 1468.33 Q1473.46 1461.2 1471.63 1457.66 Q1469.83 1454.1 1466.19 1454.1 M1466.19 1450.39 Q1472 1450.39 1475.06 1455 Q1478.14 1459.58 1478.14 1468.33 Q1478.14 1477.06 1475.06 1481.67 Q1472 1486.25 1466.19 1486.25 Q1460.38 1486.25 1457.3 1481.67 Q1454.25 1477.06 1454.25 1468.33 Q1454.25 1459.58 1457.3 1455 Q1460.38 1450.39 1466.19 1450.39 Z" fill="#000000" fill-rule="nonzero" fill-opacity="1" /><path clip-path="url(#clip360)" d="M1859.96 1455.09 L1848.15 1473.54 L1859.96 1473.54 L1859.96 1455.09 M1858.73 1451.02 L1864.61 1451.02 L1864.61 1473.54 L1869.54 1473.54 L1869.54 1477.43 L1864.61 1477.43 L1864.61 1485.58 L1859.96 1485.58 L1859.96 1477.43 L1844.35 1477.43 L1844.35 1472.92 L1858.73 1451.02 Z" fill="#000000" fill-rule="nonzero" fill-opacity="1" /><path clip-path="url(#clip360)" d="M1887.27 1454.1 Q1883.66 1454.1 1881.83 1457.66 Q1880.02 1461.2 1880.02 1468.33 Q1880.02 1475.44 1881.83 1479.01 Q1883.66 1482.55 1887.27 1482.55 Q1890.9 1482.55 1892.71 1479.01 Q1894.54 1475.44 1894.54 1468.33 Q1894.54 1461.2 1892.71 1457.66 Q1890.9 1454.1 1887.27 1454.1 M1887.27 1450.39 Q1893.08 1450.39 1896.14 1455 Q1899.21 1459.58 1899.21 1468.33 Q1899.21 1477.06 1896.14 1481.67 Q1893.08 1486.25 1887.27 1486.25 Q1881.46 1486.25 1878.38 1481.67 Q1875.33 1477.06 1875.33 1468.33 Q1875.33 1459.58 1878.38 1455 Q1881.46 1450.39 1887.27 1450.39 Z" fill="#000000" fill-rule="nonzero" fill-opacity="1" /><path clip-path="url(#clip360)" d="M2266.91 1451.02 L2285.27 1451.02 L2285.27 1454.96 L2271.2 1454.96 L2271.2 1463.43 Q2272.21 1463.08 2273.23 1462.92 Q2274.25 1462.73 2275.27 1462.73 Q2281.06 1462.73 2284.44 1465.9 Q2287.82 1469.08 2287.82 1474.49 Q2287.82 1480.07 2284.34 1483.17 Q2280.87 1486.25 2274.55 1486.25 Q2272.38 1486.25 2270.11 1485.88 Q2267.86 1485.51 2265.45 1484.77 L2265.45 1480.07 Q2267.54 1481.2 2269.76 1481.76 Q2271.98 1482.32 2274.46 1482.32 Q2278.46 1482.32 2280.8 1480.21 Q2283.14 1478.1 2283.14 1474.49 Q2283.14 1470.88 2280.8 1468.77 Q2278.46 1466.67 2274.46 1466.67 Q2272.58 1466.67 2270.71 1467.08 Q2268.86 1467.5 2266.91 1468.38 L2266.91 1451.02 Z" fill="#000000" fill-rule="nonzero" fill-opacity="1" /><path clip-path="url(#clip360)" d="M2307.03 1454.1 Q2303.42 1454.1 2301.59 1457.66 Q2299.78 1461.2 2299.78 1468.33 Q2299.78 1475.44 2301.59 1479.01 Q2303.42 1482.55 2307.03 1482.55 Q2310.66 1482.55 2312.47 1479.01 Q2314.3 1475.44 2314.3 1468.33 Q2314.3 1461.2 2312.47 1457.66 Q2310.66 1454.1 2307.03 1454.1 M2307.03 1450.39 Q2312.84 1450.39 2315.89 1455 Q2318.97 1459.58 2318.97 1468.33 Q2318.97 1477.06 2315.89 1481.67 Q2312.84 1486.25 2307.03 1486.25 Q2301.22 1486.25 2298.14 1481.67 Q2295.08 1477.06 2295.08 1468.33 Q2295.08 1459.58 2298.14 1455 Q2301.22 1450.39 2307.03 1450.39 Z" fill="#000000" fill-rule="nonzero" fill-opacity="1" /><path clip-path="url(#clip360)" d="M985.935 1545.76 Q988.004 1546.46 989.945 1548.76 Q991.919 1551.05 993.892 1555.06 L1000.42 1568.04 L993.51 1568.04 L987.431 1555.85 Q985.076 1551.08 982.848 1549.52 Q980.651 1547.96 976.832 1547.96 L969.83 1547.96 L969.83 1568.04 L963.4 1568.04 L963.4 1520.52 L977.914 1520.52 Q986.062 1520.52 990.073 1523.93 Q994.083 1527.34 994.083 1534.21 Q994.083 1538.7 991.982 1541.66 Q989.914 1544.62 985.935 1545.76 M969.83 1525.81 L969.83 1542.68 L977.914 1542.68 Q982.561 1542.68 984.917 1540.54 Q987.304 1538.38 987.304 1534.21 Q987.304 1530.04 984.917 1527.94 Q982.561 1525.81 977.914 1525.81 L969.83 1525.81 Z" fill="#000000" fill-rule="nonzero" fill-opacity="1" /><path clip-path="url(#clip360)" d="M1019.32 1536.5 Q1014.61 1536.5 1011.88 1540.19 Q1009.14 1543.85 1009.14 1550.25 Q1009.14 1556.65 1011.84 1560.34 Q1014.58 1564 1019.32 1564 Q1024 1564 1026.74 1560.31 Q1029.48 1556.62 1029.48 1550.25 Q1029.48 1543.92 1026.74 1540.23 Q1024 1536.5 1019.32 1536.5 M1019.32 1531.54 Q1026.96 1531.54 1031.32 1536.5 Q1035.68 1541.47 1035.68 1550.25 Q1035.68 1559 1031.32 1564 Q1026.96 1568.97 1019.32 1568.97 Q1011.65 1568.97 1007.29 1564 Q1002.96 1559 1002.96 1550.25 Q1002.96 1541.47 1007.29 1536.5 Q1011.65 1531.54 1019.32 1531.54 Z" fill="#000000" fill-rule="nonzero" fill-opacity="1" /><path clip-path="url(#clip360)" d="M1042.84 1532.4 L1070.66 1532.4 L1070.66 1537.74 L1048.64 1563.37 L1070.66 1563.37 L1070.66 1568.04 L1042.05 1568.04 L1042.05 1562.7 L1064.07 1537.07 L1042.84 1537.07 L1042.84 1532.4 Z" fill="#000000" fill-rule="nonzero" fill-opacity="1" /><path clip-path="url(#clip360)" d="M1107.36 1539.24 Q1109.56 1535.29 1112.61 1533.41 Q1115.67 1531.54 1119.81 1531.54 Q1125.38 1531.54 1128.4 1535.45 Q1131.42 1539.33 1131.42 1546.53 L1131.42 1568.04 L1125.53 1568.04 L1125.53 1546.72 Q1125.53 1541.59 1123.72 1539.11 Q1121.91 1536.63 1118.18 1536.63 Q1113.63 1536.63 1110.99 1539.65 Q1108.35 1542.68 1108.35 1547.9 L1108.35 1568.04 L1102.46 1568.04 L1102.46 1546.72 Q1102.46 1541.56 1100.65 1539.11 Q1098.83 1536.63 1095.04 1536.63 Q1090.56 1536.63 1087.91 1539.68 Q1085.27 1542.71 1085.27 1547.9 L1085.27 1568.04 L1079.38 1568.04 L1079.38 1532.4 L1085.27 1532.4 L1085.27 1537.93 Q1087.28 1534.66 1090.08 1533.1 Q1092.88 1531.54 1096.73 1531.54 Q1100.61 1531.54 1103.32 1533.51 Q1106.06 1535.48 1107.36 1539.24 Z" fill="#000000" fill-rule="nonzero" fill-opacity="1" /><path clip-path="url(#clip360)" d="M1143.1 1532.4 L1148.96 1532.4 L1148.96 1568.04 L1143.1 1568.04 L1143.1 1532.4 M1143.1 1518.52 L1148.96 1518.52 L1148.96 1525.93 L1143.1 1525.93 L1143.1 1518.52 Z" fill="#000000" fill-rule="nonzero" fill-opacity="1" /><path clip-path="url(#clip360)" d="M1177.42 1550.12 Q1170.32 1550.12 1167.58 1551.75 Q1164.84 1553.37 1164.84 1557.29 Q1164.84 1560.4 1166.88 1562.25 Q1168.95 1564.07 1172.48 1564.07 Q1177.35 1564.07 1180.28 1560.63 Q1183.24 1557.16 1183.24 1551.43 L1183.24 1550.12 L1177.42 1550.12 M1189.1 1547.71 L1189.1 1568.04 L1183.24 1568.04 L1183.24 1562.63 Q1181.23 1565.88 1178.24 1567.44 Q1175.25 1568.97 1170.92 1568.97 Q1165.45 1568.97 1162.2 1565.91 Q1158.99 1562.82 1158.99 1557.67 Q1158.99 1551.65 1163 1548.6 Q1167.04 1545.54 1175.03 1545.54 L1183.24 1545.54 L1183.24 1544.97 Q1183.24 1540.93 1180.57 1538.73 Q1177.92 1536.5 1173.12 1536.5 Q1170.06 1536.5 1167.17 1537.23 Q1164.27 1537.97 1161.6 1539.43 L1161.6 1534.02 Q1164.81 1532.78 1167.84 1532.17 Q1170.86 1531.54 1173.72 1531.54 Q1181.46 1531.54 1185.28 1535.55 Q1189.1 1539.56 1189.1 1547.71 Z" fill="#000000" fill-rule="nonzero" fill-opacity="1" /><path clip-path="url(#clip360)" d="M1221.82 1537.87 Q1220.83 1537.3 1219.65 1537.04 Q1218.51 1536.76 1217.11 1536.76 Q1212.14 1536.76 1209.47 1540 Q1206.83 1543.22 1206.83 1549.27 L1206.83 1568.04 L1200.94 1568.04 L1200.94 1532.4 L1206.83 1532.4 L1206.83 1537.93 Q1208.67 1534.69 1211.63 1533.13 Q1214.59 1531.54 1218.82 1531.54 Q1219.43 1531.54 1220.16 1531.63 Q1220.89 1531.7 1221.78 1531.85 L1221.82 1537.87 Z" fill="#000000" fill-rule="nonzero" fill-opacity="1" /><path clip-path="url(#clip360)" d="M1276.43 1539.24 Q1278.63 1535.29 1281.69 1533.41 Q1284.74 1531.54 1288.88 1531.54 Q1294.45 1531.54 1297.47 1535.45 Q1300.5 1539.33 1300.5 1546.53 L1300.5 1568.04 L1294.61 1568.04 L1294.61 1546.72 Q1294.61 1541.59 1292.79 1539.11 Q1290.98 1536.63 1287.26 1536.63 Q1282.7 1536.63 1280.06 1539.65 Q1277.42 1542.68 1277.42 1547.9 L1277.42 1568.04 L1271.53 1568.04 L1271.53 1546.72 Q1271.53 1541.56 1269.72 1539.11 Q1267.9 1536.63 1264.12 1536.63 Q1259.63 1536.63 1256.99 1539.68 Q1254.35 1542.71 1254.35 1547.9 L1254.35 1568.04 L1248.46 1568.04 L1248.46 1532.4 L1254.35 1532.4 L1254.35 1537.93 Q1256.35 1534.66 1259.15 1533.1 Q1261.95 1531.54 1265.8 1531.54 Q1269.69 1531.54 1272.39 1533.51 Q1275.13 1535.48 1276.43 1539.24 Z" fill="#000000" fill-rule="nonzero" fill-opacity="1" /><path clip-path="url(#clip360)" d="M1328.38 1550.12 Q1321.28 1550.12 1318.54 1551.75 Q1315.81 1553.37 1315.81 1557.29 Q1315.81 1560.4 1317.84 1562.25 Q1319.91 1564.07 1323.44 1564.07 Q1328.31 1564.07 1331.24 1560.63 Q1334.2 1557.16 1334.2 1551.43 L1334.2 1550.12 L1328.38 1550.12 M1340.06 1547.71 L1340.06 1568.04 L1334.2 1568.04 L1334.2 1562.63 Q1332.2 1565.88 1329.21 1567.44 Q1326.21 1568.97 1321.89 1568.97 Q1316.41 1568.97 1313.16 1565.91 Q1309.95 1562.82 1309.95 1557.67 Q1309.95 1551.65 1313.96 1548.6 Q1318 1545.54 1325.99 1545.54 L1334.2 1545.54 L1334.2 1544.97 Q1334.2 1540.93 1331.53 1538.73 Q1328.89 1536.5 1324.08 1536.5 Q1321.03 1536.5 1318.13 1537.23 Q1315.23 1537.97 1312.56 1539.43 L1312.56 1534.02 Q1315.77 1532.78 1318.8 1532.17 Q1321.82 1531.54 1324.69 1531.54 Q1332.42 1531.54 1336.24 1535.55 Q1340.06 1539.56 1340.06 1547.71 Z" fill="#000000" fill-rule="nonzero" fill-opacity="1" /><path clip-path="url(#clip360)" d="M1377.78 1533.76 L1377.78 1539.24 Q1375.29 1537.87 1372.78 1537.2 Q1370.3 1536.5 1367.75 1536.5 Q1362.05 1536.5 1358.9 1540.13 Q1355.75 1543.73 1355.75 1550.25 Q1355.75 1556.78 1358.9 1560.4 Q1362.05 1564 1367.75 1564 Q1370.3 1564 1372.78 1563.33 Q1375.29 1562.63 1377.78 1561.26 L1377.78 1566.68 Q1375.33 1567.82 1372.68 1568.39 Q1370.07 1568.97 1367.11 1568.97 Q1359.06 1568.97 1354.32 1563.91 Q1349.58 1558.85 1349.58 1550.25 Q1349.58 1541.53 1354.35 1536.53 Q1359.16 1531.54 1367.5 1531.54 Q1370.2 1531.54 1372.78 1532.11 Q1375.36 1532.65 1377.78 1533.76 Z" fill="#000000" fill-rule="nonzero" fill-opacity="1" /><path clip-path="url(#clip360)" d="M1387.96 1532.4 L1393.82 1532.4 L1393.82 1568.04 L1387.96 1568.04 L1387.96 1532.4 M1387.96 1518.52 L1393.82 1518.52 L1393.82 1525.93 L1387.96 1525.93 L1387.96 1518.52 Z" fill="#000000" fill-rule="nonzero" fill-opacity="1" /><path clip-path="url(#clip360)" d="M1436.56 1548.76 L1436.56 1551.62 L1409.64 1551.62 Q1410.02 1557.67 1413.26 1560.85 Q1416.54 1564 1422.37 1564 Q1425.74 1564 1428.89 1563.17 Q1432.08 1562.35 1435.19 1560.69 L1435.19 1566.23 Q1432.04 1567.57 1428.73 1568.27 Q1425.42 1568.97 1422.02 1568.97 Q1413.49 1568.97 1408.49 1564 Q1403.53 1559.04 1403.53 1550.57 Q1403.53 1541.82 1408.24 1536.69 Q1412.98 1531.54 1421 1531.54 Q1428.19 1531.54 1432.36 1536.18 Q1436.56 1540.8 1436.56 1548.76 M1430.71 1547.04 Q1430.64 1542.23 1428 1539.37 Q1425.39 1536.5 1421.06 1536.5 Q1416.16 1536.5 1413.2 1539.27 Q1410.27 1542.04 1409.83 1547.07 L1430.71 1547.04 Z" fill="#000000" fill-rule="nonzero" fill-opacity="1" /><path clip-path="url(#clip360)" d="M1466.83 1537.87 Q1465.85 1537.3 1464.67 1537.04 Q1463.52 1536.76 1462.12 1536.76 Q1457.16 1536.76 1454.48 1540 Q1451.84 1543.22 1451.84 1549.27 L1451.84 1568.04 L1445.95 1568.04 L1445.95 1532.4 L1451.84 1532.4 L1451.84 1537.93 Q1453.69 1534.69 1456.65 1533.13 Q1459.61 1531.54 1463.84 1531.54 Q1464.45 1531.54 1465.18 1531.63 Q1465.91 1531.7 1466.8 1531.85 L1466.83 1537.87 Z" fill="#000000" fill-rule="nonzero" fill-opacity="1" /><path clip-path="url(#clip360)" d="M1470.43 1532.4 L1498.25 1532.4 L1498.25 1537.74 L1476.22 1563.37 L1498.25 1563.37 L1498.25 1568.04 L1469.63 1568.04 L1469.63 1562.7 L1491.66 1537.07 L1470.43 1537.07 L1470.43 1532.4 Z" fill="#000000" fill-rule="nonzero" fill-opacity="1" /><path clip-path="url(#clip360)" d="M1522.02 1571.35 Q1519.54 1577.72 1517.19 1579.66 Q1514.83 1581.6 1510.88 1581.6 L1506.2 1581.6 L1506.2 1576.7 L1509.64 1576.7 Q1512.06 1576.7 1513.4 1575.56 Q1514.73 1574.41 1516.36 1570.14 L1517.41 1567.47 L1502.99 1532.4 L1509.2 1532.4 L1520.34 1560.28 L1531.48 1532.4 L1537.68 1532.4 L1522.02 1571.35 Z" fill="#000000" fill-rule="nonzero" fill-opacity="1" /><path clip-path="url(#clip360)" d="M1566.74 1520.52 L1573.17 1520.52 L1573.17 1540 L1596.53 1540 L1596.53 1520.52 L1602.96 1520.52 L1602.96 1568.04 L1596.53 1568.04 L1596.53 1545.41 L1573.17 1545.41 L1573.17 1568.04 L1566.74 1568.04 L1566.74 1520.52 Z" fill="#000000" fill-rule="nonzero" fill-opacity="1" /><polyline clip-path="url(#clip362)" style="stroke:#000000; stroke-linecap:round; stroke-linejoin:round; stroke-width:2; stroke-opacity:0.1; fill:none" points="213.607,1367.81 2352.76,1367.81 "/>
<polyline clip-path="url(#clip362)" style="stroke:#000000; stroke-linecap:round; stroke-linejoin:round; stroke-width:2; stroke-opacity:0.1; fill:none" points="213.607,1035.47 2352.76,1035.47 "/>
<polyline clip-path="url(#clip362)" style="stroke:#000000; stroke-linecap:round; stroke-linejoin:round; stroke-width:2; stroke-opacity:0.1; fill:none" points="213.607,703.135 2352.76,703.135 "/>
<polyline clip-path="url(#clip362)" style="stroke:#000000; stroke-linecap:round; stroke-linejoin:round; stroke-width:2; stroke-opacity:0.1; fill:none" points="213.607,370.795 2352.76,370.795 "/>
<polyline clip-path="url(#clip362)" style="stroke:#000000; stroke-linecap:round; stroke-linejoin:round; stroke-width:2; stroke-opacity:0.1; fill:none" points="213.607,304.327 2352.76,304.327 "/>
<polyline clip-path="url(#clip362)" style="stroke:#000000; stroke-linecap:round; stroke-linejoin:round; stroke-width:2; stroke-opacity:0.1; fill:none" points="213.607,237.859 2352.76,237.859 "/>
<polyline clip-path="url(#clip362)" style="stroke:#000000; stroke-linecap:round; stroke-linejoin:round; stroke-width:2; stroke-opacity:0.1; fill:none" points="213.607,171.392 2352.76,171.392 "/>
<polyline clip-path="url(#clip362)" style="stroke:#000000; stroke-linecap:round; stroke-linejoin:round; stroke-width:2; stroke-opacity:0.1; fill:none" points="213.607,104.924 2352.76,104.924 "/>
<polyline clip-path="url(#clip360)" style="stroke:#000000; stroke-linecap:round; stroke-linejoin:round; stroke-width:4; stroke-opacity:1; fill:none" points="213.607,1423.18 213.607,47.2441 "/>
<polyline clip-path="url(#clip360)" style="stroke:#000000; stroke-linecap:round; stroke-linejoin:round; stroke-width:4; stroke-opacity:1; fill:none" points="213.607,1367.81 232.505,1367.81 "/>
<polyline clip-path="url(#clip360)" style="stroke:#000000; stroke-linecap:round; stroke-linejoin:round; stroke-width:4; stroke-opacity:1; fill:none" points="213.607,1035.47 232.505,1035.47 "/>
<polyline clip-path="url(#clip360)" style="stroke:#000000; stroke-linecap:round; stroke-linejoin:round; stroke-width:4; stroke-opacity:1; fill:none" points="213.607,703.135 232.505,703.135 "/>
<polyline clip-path="url(#clip360)" style="stroke:#000000; stroke-linecap:round; stroke-linejoin:round; stroke-width:4; stroke-opacity:1; fill:none" points="213.607,370.795 232.505,370.795 "/>
<polyline clip-path="url(#clip360)" style="stroke:#000000; stroke-linecap:round; stroke-linejoin:round; stroke-width:4; stroke-opacity:1; fill:none" points="213.607,304.327 232.505,304.327 "/>
<polyline clip-path="url(#clip360)" style="stroke:#000000; stroke-linecap:round; stroke-linejoin:round; stroke-width:4; stroke-opacity:1; fill:none" points="213.607,237.859 232.505,237.859 "/>
<polyline clip-path="url(#clip360)" style="stroke:#000000; stroke-linecap:round; stroke-linejoin:round; stroke-width:4; stroke-opacity:1; fill:none" points="213.607,171.392 232.505,171.392 "/>
<polyline clip-path="url(#clip360)" style="stroke:#000000; stroke-linecap:round; stroke-linejoin:round; stroke-width:4; stroke-opacity:1; fill:none" points="213.607,104.924 232.505,104.924 "/>
<path clip-path="url(#clip360)" d="M52.4722 1387.61 L60.111 1387.61 L60.111 1361.24 L51.8009 1362.91 L51.8009 1358.65 L60.0647 1356.98 L64.7406 1356.98 L64.7406 1387.61 L72.3795 1387.61 L72.3795 1391.54 L52.4722 1391.54 L52.4722 1387.61 Z" fill="#000000" fill-rule="nonzero" fill-opacity="1" /><path clip-path="url(#clip360)" d="M91.8238 1360.06 Q88.2127 1360.06 86.384 1363.62 Q84.5785 1367.17 84.5785 1374.3 Q84.5785 1381.4 86.384 1384.97 Q88.2127 1388.51 91.8238 1388.51 Q95.458 1388.51 97.2636 1384.97 Q99.0923 1381.4 99.0923 1374.3 Q99.0923 1367.17 97.2636 1363.62 Q95.458 1360.06 91.8238 1360.06 M91.8238 1356.36 Q97.6339 1356.36 100.689 1360.96 Q103.768 1365.55 103.768 1374.3 Q103.768 1383.02 100.689 1387.63 Q97.6339 1392.21 91.8238 1392.21 Q86.0136 1392.21 82.935 1387.63 Q79.8794 1383.02 79.8794 1374.3 Q79.8794 1365.55 82.935 1360.96 Q86.0136 1356.36 91.8238 1356.36 Z" fill="#000000" fill-rule="nonzero" fill-opacity="1" /><path clip-path="url(#clip360)" d="M103.768 1350.46 L127.88 1350.46 L127.88 1353.66 L103.768 1353.66 L103.768 1350.46 Z" fill="#000000" fill-rule="nonzero" fill-opacity="1" /><path clip-path="url(#clip360)" d="M136.738 1360.93 L142.945 1360.93 L142.945 1339.51 L136.193 1340.87 L136.193 1337.41 L142.907 1336.05 L146.706 1336.05 L146.706 1360.93 L152.913 1360.93 L152.913 1364.13 L136.738 1364.13 L136.738 1360.93 Z" fill="#000000" fill-rule="nonzero" fill-opacity="1" /><path clip-path="url(#clip360)" d="M160.624 1336.05 L175.539 1336.05 L175.539 1339.25 L164.103 1339.25 L164.103 1346.13 Q164.931 1345.85 165.759 1345.72 Q166.586 1345.57 167.414 1345.57 Q172.116 1345.57 174.862 1348.14 Q177.607 1350.72 177.607 1355.12 Q177.607 1359.65 174.786 1362.18 Q171.965 1364.68 166.831 1364.68 Q165.063 1364.68 163.22 1364.38 Q161.395 1364.07 159.439 1363.47 L159.439 1359.65 Q161.132 1360.58 162.937 1361.03 Q164.743 1361.48 166.755 1361.48 Q170.009 1361.48 171.909 1359.77 Q173.808 1358.06 173.808 1355.12 Q173.808 1352.19 171.909 1350.48 Q170.009 1348.77 166.755 1348.77 Q165.232 1348.77 163.709 1349.1 Q162.204 1349.44 160.624 1350.16 L160.624 1336.05 Z" fill="#000000" fill-rule="nonzero" fill-opacity="1" /><path clip-path="url(#clip360)" d="M51.6634 1055.27 L59.3023 1055.27 L59.3023 1028.9 L50.9921 1030.57 L50.9921 1026.31 L59.256 1024.64 L63.9319 1024.64 L63.9319 1055.27 L71.5707 1055.27 L71.5707 1059.2 L51.6634 1059.2 L51.6634 1055.27 Z" fill="#000000" fill-rule="nonzero" fill-opacity="1" /><path clip-path="url(#clip360)" d="M91.0151 1027.72 Q87.404 1027.72 85.5753 1031.29 Q83.7697 1034.83 83.7697 1041.96 Q83.7697 1049.06 85.5753 1052.63 Q87.404 1056.17 91.0151 1056.17 Q94.6493 1056.17 96.4548 1052.63 Q98.2835 1049.06 98.2835 1041.96 Q98.2835 1034.83 96.4548 1031.29 Q94.6493 1027.72 91.0151 1027.72 M91.0151 1024.02 Q96.8252 1024.02 99.8808 1028.62 Q102.959 1033.21 102.959 1041.96 Q102.959 1050.68 99.8808 1055.29 Q96.8252 1059.87 91.0151 1059.87 Q85.2049 1059.87 82.1262 1055.29 Q79.0707 1050.68 79.0707 1041.96 Q79.0707 1033.21 82.1262 1028.62 Q85.2049 1024.02 91.0151 1024.02 Z" fill="#000000" fill-rule="nonzero" fill-opacity="1" /><path clip-path="url(#clip360)" d="M102.959 1018.12 L127.071 1018.12 L127.071 1021.32 L102.959 1021.32 L102.959 1018.12 Z" fill="#000000" fill-rule="nonzero" fill-opacity="1" /><path clip-path="url(#clip360)" d="M135.929 1028.59 L142.136 1028.59 L142.136 1007.17 L135.384 1008.53 L135.384 1005.07 L142.098 1003.71 L145.898 1003.71 L145.898 1028.59 L152.104 1028.59 L152.104 1031.79 L135.929 1031.79 L135.929 1028.59 Z" fill="#000000" fill-rule="nonzero" fill-opacity="1" /><path clip-path="url(#clip360)" d="M167.903 1006.21 Q164.969 1006.21 163.483 1009.11 Q162.016 1011.99 162.016 1017.78 Q162.016 1023.55 163.483 1026.45 Q164.969 1029.33 167.903 1029.33 Q170.855 1029.33 172.322 1026.45 Q173.808 1023.55 173.808 1017.78 Q173.808 1011.99 172.322 1009.11 Q170.855 1006.21 167.903 1006.21 M167.903 1003.2 Q172.623 1003.2 175.106 1006.95 Q177.607 1010.67 177.607 1017.78 Q177.607 1024.87 175.106 1028.61 Q172.623 1032.34 167.903 1032.34 Q163.182 1032.34 160.68 1028.61 Q158.198 1024.87 158.198 1017.78 Q158.198 1010.67 160.68 1006.95 Q163.182 1003.2 167.903 1003.2 Z" fill="#000000" fill-rule="nonzero" fill-opacity="1" /><path clip-path="url(#clip360)" d="M76.9787 722.927 L84.6175 722.927 L84.6175 696.562 L76.3074 698.228 L76.3074 693.969 L84.5712 692.302 L89.2471 692.302 L89.2471 722.927 L96.886 722.927 L96.886 726.862 L76.9787 726.862 L76.9787 722.927 Z" fill="#000000" fill-rule="nonzero" fill-opacity="1" /><path clip-path="url(#clip360)" d="M116.33 695.381 Q112.719 695.381 110.891 698.946 Q109.085 702.488 109.085 709.617 Q109.085 716.724 110.891 720.288 Q112.719 723.83 116.33 723.83 Q119.965 723.83 121.77 720.288 Q123.599 716.724 123.599 709.617 Q123.599 702.488 121.77 698.946 Q119.965 695.381 116.33 695.381 M116.33 691.677 Q122.14 691.677 125.196 696.284 Q128.275 700.867 128.275 709.617 Q128.275 718.344 125.196 722.95 Q122.14 727.534 116.33 727.534 Q110.52 727.534 107.441 722.95 Q104.386 718.344 104.386 709.617 Q104.386 700.867 107.441 696.284 Q110.52 691.677 116.33 691.677 Z" fill="#000000" fill-rule="nonzero" fill-opacity="1" /><path clip-path="url(#clip360)" d="M128.275 685.779 L152.386 685.779 L152.386 688.976 L128.275 688.976 L128.275 685.779 Z" fill="#000000" fill-rule="nonzero" fill-opacity="1" /><path clip-path="url(#clip360)" d="M160.624 671.372 L175.539 671.372 L175.539 674.569 L164.103 674.569 L164.103 681.453 Q164.931 681.171 165.759 681.039 Q166.586 680.889 167.414 680.889 Q172.116 680.889 174.862 683.465 Q177.607 686.042 177.607 690.443 Q177.607 694.976 174.786 697.496 Q171.965 699.997 166.831 699.997 Q165.063 699.997 163.22 699.696 Q161.395 699.396 159.439 698.794 L159.439 694.976 Q161.132 695.897 162.937 696.349 Q164.743 696.8 166.755 696.8 Q170.009 696.8 171.909 695.089 Q173.808 693.377 173.808 690.443 Q173.808 687.509 171.909 685.798 Q170.009 684.086 166.755 684.086 Q165.232 684.086 163.709 684.425 Q162.204 684.763 160.624 685.478 L160.624 671.372 Z" fill="#000000" fill-rule="nonzero" fill-opacity="1" /><path clip-path="url(#clip360)" d="M106.902 390.588 L114.541 390.588 L114.541 364.222 L106.231 365.889 L106.231 361.63 L114.494 359.963 L119.17 359.963 L119.17 390.588 L126.809 390.588 L126.809 394.523 L106.902 394.523 L106.902 390.588 Z" fill="#000000" fill-rule="nonzero" fill-opacity="1" /><path clip-path="url(#clip360)" d="M146.253 363.042 Q142.642 363.042 140.814 366.606 Q139.008 370.148 139.008 377.278 Q139.008 384.384 140.814 387.949 Q142.642 391.49 146.253 391.49 Q149.888 391.49 151.693 387.949 Q153.522 384.384 153.522 377.278 Q153.522 370.148 151.693 366.606 Q149.888 363.042 146.253 363.042 M146.253 359.338 Q152.064 359.338 155.119 363.944 Q158.198 368.528 158.198 377.278 Q158.198 386.004 155.119 390.611 Q152.064 395.194 146.253 395.194 Q140.443 395.194 137.365 390.611 Q134.309 386.004 134.309 377.278 Q134.309 368.528 137.365 363.944 Q140.443 359.338 146.253 359.338 Z" fill="#000000" fill-rule="nonzero" fill-opacity="1" /><path clip-path="url(#clip360)" d="M167.903 341.534 Q164.969 341.534 163.483 344.43 Q162.016 347.308 162.016 353.101 Q162.016 358.875 163.483 361.771 Q164.969 364.649 167.903 364.649 Q170.855 364.649 172.322 361.771 Q173.808 358.875 173.808 353.101 Q173.808 347.308 172.322 344.43 Q170.855 341.534 167.903 341.534 M167.903 338.525 Q172.623 338.525 175.106 342.267 Q177.607 345.991 177.607 353.101 Q177.607 360.191 175.106 363.934 Q172.623 367.658 167.903 367.658 Q163.182 367.658 160.68 363.934 Q158.198 360.191 158.198 353.101 Q158.198 345.991 160.68 342.267 Q163.182 338.525 167.903 338.525 Z" fill="#000000" fill-rule="nonzero" fill-opacity="1" /><path clip-path="url(#clip360)" d="M109.591 324.12 L117.23 324.12 L117.23 297.754 L108.92 299.421 L108.92 295.162 L117.184 293.495 L121.86 293.495 L121.86 324.12 L129.499 324.12 L129.499 328.055 L109.591 328.055 L109.591 324.12 Z" fill="#000000" fill-rule="nonzero" fill-opacity="1" /><path clip-path="url(#clip360)" d="M148.943 296.574 Q145.332 296.574 143.503 300.138 Q141.698 303.68 141.698 310.81 Q141.698 317.916 143.503 321.481 Q145.332 325.023 148.943 325.023 Q152.577 325.023 154.383 321.481 Q156.211 317.916 156.211 310.81 Q156.211 303.68 154.383 300.138 Q152.577 296.574 148.943 296.574 M148.943 292.87 Q154.753 292.87 157.809 297.476 Q160.887 302.06 160.887 310.81 Q160.887 319.536 157.809 324.143 Q154.753 328.726 148.943 328.726 Q143.133 328.726 140.054 324.143 Q136.999 319.536 136.999 310.81 Q136.999 302.06 140.054 297.476 Q143.133 292.87 148.943 292.87 Z" fill="#000000" fill-rule="nonzero" fill-opacity="1" /><path clip-path="url(#clip360)" d="M161.433 297.447 L167.639 297.447 L167.639 276.025 L160.887 277.379 L160.887 273.919 L167.602 272.565 L171.401 272.565 L171.401 297.447 L177.607 297.447 L177.607 300.645 L161.433 300.645 L161.433 297.447 Z" fill="#000000" fill-rule="nonzero" fill-opacity="1" /><path clip-path="url(#clip360)" d="M108.482 257.652 L116.121 257.652 L116.121 231.286 L107.81 232.953 L107.81 228.694 L116.074 227.027 L120.75 227.027 L120.75 257.652 L128.389 257.652 L128.389 261.587 L108.482 261.587 L108.482 257.652 Z" fill="#000000" fill-rule="nonzero" fill-opacity="1" /><path clip-path="url(#clip360)" d="M147.833 230.106 Q144.222 230.106 142.394 233.671 Q140.588 237.212 140.588 244.342 Q140.588 251.448 142.394 255.013 Q144.222 258.555 147.833 258.555 Q151.468 258.555 153.273 255.013 Q155.102 251.448 155.102 244.342 Q155.102 237.212 153.273 233.671 Q151.468 230.106 147.833 230.106 M147.833 226.402 Q153.643 226.402 156.699 231.008 Q159.778 235.592 159.778 244.342 Q159.778 253.069 156.699 257.675 Q153.643 262.258 147.833 262.258 Q142.023 262.258 138.944 257.675 Q135.889 253.069 135.889 244.342 Q135.889 235.592 138.944 231.008 Q142.023 226.402 147.833 226.402 Z" fill="#000000" fill-rule="nonzero" fill-opacity="1" /><path clip-path="url(#clip360)" d="M164.348 230.979 L177.607 230.979 L177.607 234.177 L159.778 234.177 L159.778 230.979 Q161.941 228.741 165.665 224.98 Q169.407 221.199 170.366 220.108 Q172.191 218.058 172.906 216.648 Q173.639 215.218 173.639 213.845 Q173.639 211.607 172.059 210.197 Q170.498 208.786 167.978 208.786 Q166.191 208.786 164.198 209.407 Q162.223 210.027 159.966 211.288 L159.966 207.451 Q162.26 206.529 164.254 206.059 Q166.248 205.589 167.903 205.589 Q172.266 205.589 174.862 207.771 Q177.457 209.952 177.457 213.601 Q177.457 215.331 176.799 216.892 Q176.159 218.435 174.448 220.541 Q173.978 221.086 171.457 223.701 Q168.937 226.296 164.348 230.979 Z" fill="#000000" fill-rule="nonzero" fill-opacity="1" /><path clip-path="url(#clip360)" d="M107.823 191.184 L115.462 191.184 L115.462 164.818 L107.152 166.485 L107.152 162.226 L115.416 160.559 L120.092 160.559 L120.092 191.184 L127.731 191.184 L127.731 195.119 L107.823 195.119 L107.823 191.184 Z" fill="#000000" fill-rule="nonzero" fill-opacity="1" /><path clip-path="url(#clip360)" d="M147.175 163.638 Q143.564 163.638 141.735 167.203 Q139.93 170.744 139.93 177.874 Q139.93 184.98 141.735 188.545 Q143.564 192.087 147.175 192.087 Q150.809 192.087 152.615 188.545 Q154.444 184.98 154.444 177.874 Q154.444 170.744 152.615 167.203 Q150.809 163.638 147.175 163.638 M147.175 159.934 Q152.985 159.934 156.041 164.541 Q159.119 169.124 159.119 177.874 Q159.119 186.601 156.041 191.207 Q152.985 195.79 147.175 195.79 Q141.365 195.79 138.286 191.207 Q135.231 186.601 135.231 177.874 Q135.231 169.124 138.286 164.541 Q141.365 159.934 147.175 159.934 Z" fill="#000000" fill-rule="nonzero" fill-opacity="1" /><path clip-path="url(#clip360)" d="M171.815 152.568 Q174.542 153.152 176.065 154.995 Q177.607 156.838 177.607 159.546 Q177.607 163.703 174.749 165.978 Q171.89 168.254 166.624 168.254 Q164.856 168.254 162.975 167.897 Q161.113 167.558 159.119 166.862 L159.119 163.195 Q160.699 164.116 162.58 164.587 Q164.461 165.057 166.511 165.057 Q170.084 165.057 171.946 163.646 Q173.827 162.236 173.827 159.546 Q173.827 157.064 172.078 155.672 Q170.348 154.261 167.244 154.261 L163.972 154.261 L163.972 151.139 L167.395 151.139 Q170.197 151.139 171.683 150.029 Q173.169 148.901 173.169 146.794 Q173.169 144.632 171.627 143.484 Q170.103 142.318 167.244 142.318 Q165.683 142.318 163.897 142.657 Q162.11 142.995 159.966 143.71 L159.966 140.325 Q162.129 139.723 164.009 139.422 Q165.909 139.121 167.583 139.121 Q171.909 139.121 174.429 141.096 Q176.949 143.052 176.949 146.4 Q176.949 148.732 175.614 150.349 Q174.279 151.948 171.815 152.568 Z" fill="#000000" fill-rule="nonzero" fill-opacity="1" /><path clip-path="url(#clip360)" d="M105.849 124.716 L113.487 124.716 L113.487 98.3505 L105.177 100.017 L105.177 95.7579 L113.441 94.0912 L118.117 94.0912 L118.117 124.716 L125.756 124.716 L125.756 128.651 L105.849 128.651 L105.849 124.716 Z" fill="#000000" fill-rule="nonzero" fill-opacity="1" /><path clip-path="url(#clip360)" d="M145.2 97.1699 Q141.589 97.1699 139.76 100.735 Q137.955 104.276 137.955 111.406 Q137.955 118.512 139.76 122.077 Q141.589 125.619 145.2 125.619 Q148.834 125.619 150.64 122.077 Q152.469 118.512 152.469 111.406 Q152.469 104.276 150.64 100.735 Q148.834 97.1699 145.2 97.1699 M145.2 93.4662 Q151.01 93.4662 154.066 98.0727 Q157.145 102.656 157.145 111.406 Q157.145 120.133 154.066 124.739 Q151.01 129.323 145.2 129.323 Q139.39 129.323 136.311 124.739 Q133.256 120.133 133.256 111.406 Q133.256 102.656 136.311 98.0727 Q139.39 93.4662 145.2 93.4662 Z" fill="#000000" fill-rule="nonzero" fill-opacity="1" /><path clip-path="url(#clip360)" d="M169.821 76.471 L160.229 91.4608 L169.821 91.4608 L169.821 76.471 M168.824 73.1608 L173.601 73.1608 L173.601 91.4608 L177.607 91.4608 L177.607 94.6205 L173.601 94.6205 L173.601 101.241 L169.821 101.241 L169.821 94.6205 L157.145 94.6205 L157.145 90.953 L168.824 73.1608 Z" fill="#000000" fill-rule="nonzero" fill-opacity="1" /><circle clip-path="url(#clip362)" cx="274.149" cy="1384.24" r="14.4" fill="#009af9" fill-rule="evenodd" fill-opacity="1" stroke="none"/>
<circle clip-path="url(#clip362)" cx="316.192" cy="1306.55" r="14.4" fill="#009af9" fill-rule="evenodd" fill-opacity="1" stroke="none"/>
<circle clip-path="url(#clip362)" cx="358.235" cy="1193.27" r="14.4" fill="#009af9" fill-rule="evenodd" fill-opacity="1" stroke="none"/>
<circle clip-path="url(#clip362)" cx="400.278" cy="1161.81" r="14.4" fill="#009af9" fill-rule="evenodd" fill-opacity="1" stroke="none"/>
<circle clip-path="url(#clip362)" cx="442.321" cy="1022.94" r="14.4" fill="#009af9" fill-rule="evenodd" fill-opacity="1" stroke="none"/>
<circle clip-path="url(#clip362)" cx="484.364" cy="914.882" r="14.4" fill="#009af9" fill-rule="evenodd" fill-opacity="1" stroke="none"/>
<circle clip-path="url(#clip362)" cx="526.407" cy="799.086" r="14.4" fill="#009af9" fill-rule="evenodd" fill-opacity="1" stroke="none"/>
<circle clip-path="url(#clip362)" cx="568.45" cy="695.083" r="14.4" fill="#009af9" fill-rule="evenodd" fill-opacity="1" stroke="none"/>
<circle clip-path="url(#clip362)" cx="610.494" cy="595.281" r="14.4" fill="#009af9" fill-rule="evenodd" fill-opacity="1" stroke="none"/>
<circle clip-path="url(#clip362)" cx="652.537" cy="503.59" r="14.4" fill="#009af9" fill-rule="evenodd" fill-opacity="1" stroke="none"/>
<circle clip-path="url(#clip362)" cx="694.58" cy="388.042" r="14.4" fill="#009af9" fill-rule="evenodd" fill-opacity="1" stroke="none"/>
<circle clip-path="url(#clip362)" cx="736.623" cy="248.091" r="14.4" fill="#009af9" fill-rule="evenodd" fill-opacity="1" stroke="none"/>
<circle clip-path="url(#clip362)" cx="778.666" cy="305.357" r="14.4" fill="#009af9" fill-rule="evenodd" fill-opacity="1" stroke="none"/>
<circle clip-path="url(#clip362)" cx="820.709" cy="182.001" r="14.4" fill="#009af9" fill-rule="evenodd" fill-opacity="1" stroke="none"/>
<circle clip-path="url(#clip362)" cx="862.752" cy="303.155" r="14.4" fill="#009af9" fill-rule="evenodd" fill-opacity="1" stroke="none"/>
<circle clip-path="url(#clip362)" cx="904.795" cy="286.296" r="14.4" fill="#009af9" fill-rule="evenodd" fill-opacity="1" stroke="none"/>
<circle clip-path="url(#clip362)" cx="946.838" cy="322.085" r="14.4" fill="#009af9" fill-rule="evenodd" fill-opacity="1" stroke="none"/>
<circle clip-path="url(#clip362)" cx="988.881" cy="292.481" r="14.4" fill="#009af9" fill-rule="evenodd" fill-opacity="1" stroke="none"/>
<circle clip-path="url(#clip362)" cx="1030.92" cy="273.8" r="14.4" fill="#009af9" fill-rule="evenodd" fill-opacity="1" stroke="none"/>
<circle clip-path="url(#clip362)" cx="1072.97" cy="154.038" r="14.4" fill="#009af9" fill-rule="evenodd" fill-opacity="1" stroke="none"/>
<circle clip-path="url(#clip362)" cx="1115.01" cy="86.1857" r="14.4" fill="#009af9" fill-rule="evenodd" fill-opacity="1" stroke="none"/>
<circle clip-path="url(#clip362)" cx="1157.05" cy="259.037" r="14.4" fill="#009af9" fill-rule="evenodd" fill-opacity="1" stroke="none"/>
<circle clip-path="url(#clip362)" cx="1199.1" cy="305.512" r="14.4" fill="#009af9" fill-rule="evenodd" fill-opacity="1" stroke="none"/>
<circle clip-path="url(#clip362)" cx="1241.14" cy="278.849" r="14.4" fill="#009af9" fill-rule="evenodd" fill-opacity="1" stroke="none"/>
<circle clip-path="url(#clip362)" cx="1283.18" cy="301.237" r="14.4" fill="#009af9" fill-rule="evenodd" fill-opacity="1" stroke="none"/>
<circle clip-path="url(#clip362)" cx="1325.22" cy="254.786" r="14.4" fill="#009af9" fill-rule="evenodd" fill-opacity="1" stroke="none"/>
<circle clip-path="url(#clip362)" cx="1367.27" cy="255.294" r="14.4" fill="#009af9" fill-rule="evenodd" fill-opacity="1" stroke="none"/>
<circle clip-path="url(#clip362)" cx="1409.31" cy="276.869" r="14.4" fill="#009af9" fill-rule="evenodd" fill-opacity="1" stroke="none"/>
<circle clip-path="url(#clip362)" cx="1451.35" cy="276.617" r="14.4" fill="#009af9" fill-rule="evenodd" fill-opacity="1" stroke="none"/>
<circle clip-path="url(#clip362)" cx="1493.4" cy="284.99" r="14.4" fill="#009af9" fill-rule="evenodd" fill-opacity="1" stroke="none"/>
<circle clip-path="url(#clip362)" cx="1535.44" cy="264.914" r="14.4" fill="#009af9" fill-rule="evenodd" fill-opacity="1" stroke="none"/>
<circle clip-path="url(#clip362)" cx="1577.48" cy="279.904" r="14.4" fill="#009af9" fill-rule="evenodd" fill-opacity="1" stroke="none"/>
<circle clip-path="url(#clip362)" cx="1619.53" cy="282.265" r="14.4" fill="#009af9" fill-rule="evenodd" fill-opacity="1" stroke="none"/>
<circle clip-path="url(#clip362)" cx="1661.57" cy="275.672" r="14.4" fill="#009af9" fill-rule="evenodd" fill-opacity="1" stroke="none"/>
<circle clip-path="url(#clip362)" cx="1703.61" cy="294.651" r="14.4" fill="#009af9" fill-rule="evenodd" fill-opacity="1" stroke="none"/>
<circle clip-path="url(#clip362)" cx="1745.65" cy="246.877" r="14.4" fill="#009af9" fill-rule="evenodd" fill-opacity="1" stroke="none"/>
<circle clip-path="url(#clip362)" cx="1787.7" cy="270.542" r="14.4" fill="#009af9" fill-rule="evenodd" fill-opacity="1" stroke="none"/>
<circle clip-path="url(#clip362)" cx="1829.74" cy="235.869" r="14.4" fill="#009af9" fill-rule="evenodd" fill-opacity="1" stroke="none"/>
<circle clip-path="url(#clip362)" cx="1871.78" cy="251.77" r="14.4" fill="#009af9" fill-rule="evenodd" fill-opacity="1" stroke="none"/>
<circle clip-path="url(#clip362)" cx="1913.83" cy="262.998" r="14.4" fill="#009af9" fill-rule="evenodd" fill-opacity="1" stroke="none"/>
<circle clip-path="url(#clip362)" cx="1955.87" cy="261.554" r="14.4" fill="#009af9" fill-rule="evenodd" fill-opacity="1" stroke="none"/>
<circle clip-path="url(#clip362)" cx="1997.91" cy="297.839" r="14.4" fill="#009af9" fill-rule="evenodd" fill-opacity="1" stroke="none"/>
<circle clip-path="url(#clip362)" cx="2039.96" cy="254.594" r="14.4" fill="#009af9" fill-rule="evenodd" fill-opacity="1" stroke="none"/>
<circle clip-path="url(#clip362)" cx="2082" cy="226.904" r="14.4" fill="#009af9" fill-rule="evenodd" fill-opacity="1" stroke="none"/>
<circle clip-path="url(#clip362)" cx="2124.04" cy="243.66" r="14.4" fill="#009af9" fill-rule="evenodd" fill-opacity="1" stroke="none"/>
<circle clip-path="url(#clip362)" cx="2166.08" cy="262.882" r="14.4" fill="#009af9" fill-rule="evenodd" fill-opacity="1" stroke="none"/>
<circle clip-path="url(#clip362)" cx="2208.13" cy="215.501" r="14.4" fill="#009af9" fill-rule="evenodd" fill-opacity="1" stroke="none"/>
<circle clip-path="url(#clip362)" cx="2250.17" cy="225.003" r="14.4" fill="#009af9" fill-rule="evenodd" fill-opacity="1" stroke="none"/>
<circle clip-path="url(#clip362)" cx="2292.21" cy="270.686" r="14.4" fill="#009af9" fill-rule="evenodd" fill-opacity="1" stroke="none"/>
<circle clip-path="url(#clip362)" cx="274.149" cy="1364.44" r="14.4" fill="#e26f46" fill-rule="evenodd" fill-opacity="1" stroke="none"/>
<circle clip-path="url(#clip362)" cx="316.192" cy="1301.85" r="14.4" fill="#e26f46" fill-rule="evenodd" fill-opacity="1" stroke="none"/>
<circle clip-path="url(#clip362)" cx="358.235" cy="1195.15" r="14.4" fill="#e26f46" fill-rule="evenodd" fill-opacity="1" stroke="none"/>
<circle clip-path="url(#clip362)" cx="400.278" cy="1107.92" r="14.4" fill="#e26f46" fill-rule="evenodd" fill-opacity="1" stroke="none"/>
<circle clip-path="url(#clip362)" cx="442.321" cy="1034.28" r="14.4" fill="#e26f46" fill-rule="evenodd" fill-opacity="1" stroke="none"/>
<circle clip-path="url(#clip362)" cx="484.364" cy="926.701" r="14.4" fill="#e26f46" fill-rule="evenodd" fill-opacity="1" stroke="none"/>
<circle clip-path="url(#clip362)" cx="526.407" cy="795.883" r="14.4" fill="#e26f46" fill-rule="evenodd" fill-opacity="1" stroke="none"/>
<circle clip-path="url(#clip362)" cx="568.45" cy="692.158" r="14.4" fill="#e26f46" fill-rule="evenodd" fill-opacity="1" stroke="none"/>
<circle clip-path="url(#clip362)" cx="610.494" cy="596.138" r="14.4" fill="#e26f46" fill-rule="evenodd" fill-opacity="1" stroke="none"/>
<circle clip-path="url(#clip362)" cx="652.537" cy="501.924" r="14.4" fill="#e26f46" fill-rule="evenodd" fill-opacity="1" stroke="none"/>
<circle clip-path="url(#clip362)" cx="694.58" cy="382.365" r="14.4" fill="#e26f46" fill-rule="evenodd" fill-opacity="1" stroke="none"/>
<circle clip-path="url(#clip362)" cx="736.623" cy="243.354" r="14.4" fill="#e26f46" fill-rule="evenodd" fill-opacity="1" stroke="none"/>
<circle clip-path="url(#clip362)" cx="778.666" cy="304.055" r="14.4" fill="#e26f46" fill-rule="evenodd" fill-opacity="1" stroke="none"/>
<circle clip-path="url(#clip362)" cx="820.709" cy="181.046" r="14.4" fill="#e26f46" fill-rule="evenodd" fill-opacity="1" stroke="none"/>
<circle clip-path="url(#clip362)" cx="862.752" cy="309.216" r="14.4" fill="#e26f46" fill-rule="evenodd" fill-opacity="1" stroke="none"/>
<circle clip-path="url(#clip362)" cx="904.795" cy="288.743" r="14.4" fill="#e26f46" fill-rule="evenodd" fill-opacity="1" stroke="none"/>
<circle clip-path="url(#clip362)" cx="946.838" cy="332.699" r="14.4" fill="#e26f46" fill-rule="evenodd" fill-opacity="1" stroke="none"/>
<circle clip-path="url(#clip362)" cx="988.881" cy="289.27" r="14.4" fill="#e26f46" fill-rule="evenodd" fill-opacity="1" stroke="none"/>
<circle clip-path="url(#clip362)" cx="1030.92" cy="271.9" r="14.4" fill="#e26f46" fill-rule="evenodd" fill-opacity="1" stroke="none"/>
<circle clip-path="url(#clip362)" cx="1072.97" cy="146.929" r="14.4" fill="#e26f46" fill-rule="evenodd" fill-opacity="1" stroke="none"/>
<circle clip-path="url(#clip362)" cx="1115.01" cy="93.4375" r="14.4" fill="#e26f46" fill-rule="evenodd" fill-opacity="1" stroke="none"/>
<circle clip-path="url(#clip362)" cx="1157.05" cy="259.257" r="14.4" fill="#e26f46" fill-rule="evenodd" fill-opacity="1" stroke="none"/>
<circle clip-path="url(#clip362)" cx="1199.1" cy="285.021" r="14.4" fill="#e26f46" fill-rule="evenodd" fill-opacity="1" stroke="none"/>
<circle clip-path="url(#clip362)" cx="1241.14" cy="256.472" r="14.4" fill="#e26f46" fill-rule="evenodd" fill-opacity="1" stroke="none"/>
<circle clip-path="url(#clip362)" cx="1283.18" cy="297.318" r="14.4" fill="#e26f46" fill-rule="evenodd" fill-opacity="1" stroke="none"/>
<circle clip-path="url(#clip362)" cx="1325.22" cy="229.725" r="14.4" fill="#e26f46" fill-rule="evenodd" fill-opacity="1" stroke="none"/>
<circle clip-path="url(#clip362)" cx="1367.27" cy="254.492" r="14.4" fill="#e26f46" fill-rule="evenodd" fill-opacity="1" stroke="none"/>
<circle clip-path="url(#clip362)" cx="1409.31" cy="287.228" r="14.4" fill="#e26f46" fill-rule="evenodd" fill-opacity="1" stroke="none"/>
<circle clip-path="url(#clip362)" cx="1451.35" cy="262.252" r="14.4" fill="#e26f46" fill-rule="evenodd" fill-opacity="1" stroke="none"/>
<circle clip-path="url(#clip362)" cx="1493.4" cy="286.564" r="14.4" fill="#e26f46" fill-rule="evenodd" fill-opacity="1" stroke="none"/>
<circle clip-path="url(#clip362)" cx="1535.44" cy="275.951" r="14.4" fill="#e26f46" fill-rule="evenodd" fill-opacity="1" stroke="none"/>
<circle clip-path="url(#clip362)" cx="1577.48" cy="274.98" r="14.4" fill="#e26f46" fill-rule="evenodd" fill-opacity="1" stroke="none"/>
<circle clip-path="url(#clip362)" cx="1619.53" cy="272.336" r="14.4" fill="#e26f46" fill-rule="evenodd" fill-opacity="1" stroke="none"/>
<circle clip-path="url(#clip362)" cx="1661.57" cy="284.721" r="14.4" fill="#e26f46" fill-rule="evenodd" fill-opacity="1" stroke="none"/>
<circle clip-path="url(#clip362)" cx="1703.61" cy="242.256" r="14.4" fill="#e26f46" fill-rule="evenodd" fill-opacity="1" stroke="none"/>
<circle clip-path="url(#clip362)" cx="1745.65" cy="251.048" r="14.4" fill="#e26f46" fill-rule="evenodd" fill-opacity="1" stroke="none"/>
<circle clip-path="url(#clip362)" cx="1787.7" cy="270.977" r="14.4" fill="#e26f46" fill-rule="evenodd" fill-opacity="1" stroke="none"/>
<circle clip-path="url(#clip362)" cx="1829.74" cy="239.192" r="14.4" fill="#e26f46" fill-rule="evenodd" fill-opacity="1" stroke="none"/>
<circle clip-path="url(#clip362)" cx="1871.78" cy="227.13" r="14.4" fill="#e26f46" fill-rule="evenodd" fill-opacity="1" stroke="none"/>
<circle clip-path="url(#clip362)" cx="1913.83" cy="264.119" r="14.4" fill="#e26f46" fill-rule="evenodd" fill-opacity="1" stroke="none"/>
<circle clip-path="url(#clip362)" cx="1955.87" cy="224.801" r="14.4" fill="#e26f46" fill-rule="evenodd" fill-opacity="1" stroke="none"/>
<circle clip-path="url(#clip362)" cx="1997.91" cy="255.959" r="14.4" fill="#e26f46" fill-rule="evenodd" fill-opacity="1" stroke="none"/>
<circle clip-path="url(#clip362)" cx="2039.96" cy="259.53" r="14.4" fill="#e26f46" fill-rule="evenodd" fill-opacity="1" stroke="none"/>
<circle clip-path="url(#clip362)" cx="2082" cy="228.272" r="14.4" fill="#e26f46" fill-rule="evenodd" fill-opacity="1" stroke="none"/>
<circle clip-path="url(#clip362)" cx="2124.04" cy="225.921" r="14.4" fill="#e26f46" fill-rule="evenodd" fill-opacity="1" stroke="none"/>
<circle clip-path="url(#clip362)" cx="2166.08" cy="240.399" r="14.4" fill="#e26f46" fill-rule="evenodd" fill-opacity="1" stroke="none"/>
<circle clip-path="url(#clip362)" cx="2208.13" cy="203.831" r="14.4" fill="#e26f46" fill-rule="evenodd" fill-opacity="1" stroke="none"/>
<circle clip-path="url(#clip362)" cx="2250.17" cy="215.484" r="14.4" fill="#e26f46" fill-rule="evenodd" fill-opacity="1" stroke="none"/>
<circle clip-path="url(#clip362)" cx="2292.21" cy="264.901" r="14.4" fill="#e26f46" fill-rule="evenodd" fill-opacity="1" stroke="none"/>
<path clip-path="url(#clip360)" d="M1726.73 1377.32 L2281.45 1377.32 L2281.45 1221.8 L1726.73 1221.8  Z" fill="#ffffff" fill-rule="evenodd" fill-opacity="1"/>
<polyline clip-path="url(#clip360)" style="stroke:#000000; stroke-linecap:round; stroke-linejoin:round; stroke-width:4; stroke-opacity:1; fill:none" points="1726.73,1377.32 2281.45,1377.32 2281.45,1221.8 1726.73,1221.8 1726.73,1377.32 "/>
<circle clip-path="url(#clip360)" cx="1821.8" cy="1273.64" r="23.04" fill="#009af9" fill-rule="evenodd" fill-opacity="1" stroke="none"/>
<path clip-path="url(#clip360)" d="M1921.55 1274.41 L1921.55 1287.07 L1929.05 1287.07 Q1932.82 1287.07 1934.63 1285.52 Q1936.46 1283.95 1936.46 1280.73 Q1936.46 1277.49 1934.63 1275.96 Q1932.82 1274.41 1929.05 1274.41 L1921.55 1274.41 M1921.55 1260.2 L1921.55 1270.61 L1928.47 1270.61 Q1931.9 1270.61 1933.56 1269.34 Q1935.25 1268.05 1935.25 1265.41 Q1935.25 1262.79 1933.56 1261.49 Q1931.9 1260.2 1928.47 1260.2 L1921.55 1260.2 M1916.87 1256.36 L1928.82 1256.36 Q1934.17 1256.36 1937.06 1258.58 Q1939.95 1260.8 1939.95 1264.9 Q1939.95 1268.07 1938.47 1269.94 Q1936.99 1271.82 1934.12 1272.28 Q1937.57 1273.02 1939.47 1275.38 Q1941.39 1277.72 1941.39 1281.24 Q1941.39 1285.87 1938.24 1288.39 Q1935.09 1290.92 1929.28 1290.92 L1916.87 1290.92 L1916.87 1256.36 Z" fill="#000000" fill-rule="nonzero" fill-opacity="1" /><path clip-path="url(#clip360)" d="M1949.35 1254.9 L1953.61 1254.9 L1953.61 1268.83 L1956.5 1266.75 L1958.26 1269.2 L1953.61 1272.47 L1953.61 1290.92 L1949.35 1290.92 L1949.35 1275.5 L1946.5 1277.54 L1944.79 1275.08 L1949.35 1271.82 L1949.35 1254.9 Z" fill="#000000" fill-rule="nonzero" fill-opacity="1" /><path clip-path="url(#clip360)" d="M1974.47 1277.88 Q1969.3 1277.88 1967.31 1279.06 Q1965.32 1280.24 1965.32 1283.09 Q1965.32 1285.36 1966.8 1286.7 Q1968.31 1288.02 1970.88 1288.02 Q1974.42 1288.02 1976.55 1285.52 Q1978.7 1283 1978.7 1278.83 L1978.7 1277.88 L1974.47 1277.88 M1982.96 1276.12 L1982.96 1290.92 L1978.7 1290.92 L1978.7 1286.98 Q1977.24 1289.34 1975.07 1290.48 Q1972.89 1291.59 1969.74 1291.59 Q1965.76 1291.59 1963.4 1289.36 Q1961.06 1287.12 1961.06 1283.37 Q1961.06 1278.99 1963.98 1276.77 Q1966.92 1274.55 1972.73 1274.55 L1978.7 1274.55 L1978.7 1274.13 Q1978.7 1271.19 1976.76 1269.6 Q1974.84 1267.98 1971.34 1267.98 Q1969.12 1267.98 1967.01 1268.51 Q1964.91 1269.04 1962.96 1270.11 L1962.96 1266.17 Q1965.3 1265.27 1967.5 1264.83 Q1969.7 1264.36 1971.78 1264.36 Q1977.41 1264.36 1980.18 1267.28 Q1982.96 1270.2 1982.96 1276.12 M1978.75 1290.92 L1981.5 1290.92 Q1980.46 1292.33 1979.95 1293.35 Q1979.47 1294.36 1979.47 1295.08 Q1979.47 1296.15 1980.09 1296.68 Q1980.74 1297.21 1981.99 1297.21 Q1982.73 1297.21 1983.45 1297.03 Q1984.17 1296.86 1984.88 1296.52 L1984.88 1299.6 Q1984 1299.83 1983.22 1299.94 Q1982.43 1300.06 1981.74 1300.06 Q1978.91 1300.06 1977.57 1299.04 Q1976.25 1298.04 1976.25 1295.89 Q1976.25 1294.78 1976.85 1293.55 Q1977.48 1292.35 1978.75 1290.92 Z" fill="#000000" fill-rule="nonzero" fill-opacity="1" /><path clip-path="url(#clip360)" d="M2008.8 1268.92 L2008.8 1254.9 L2013.05 1254.9 L2013.05 1290.92 L2008.8 1290.92 L2008.8 1287.03 Q2007.45 1289.34 2005.39 1290.48 Q2003.36 1291.59 2000.48 1291.59 Q1995.79 1291.59 1992.82 1287.84 Q1989.88 1284.09 1989.88 1277.98 Q1989.88 1271.86 1992.82 1268.11 Q1995.79 1264.36 2000.48 1264.36 Q2003.36 1264.36 2005.39 1265.5 Q2007.45 1266.61 2008.8 1268.92 M1994.28 1277.98 Q1994.28 1282.67 1996.2 1285.36 Q1998.15 1288.02 2001.53 1288.02 Q2004.91 1288.02 2006.85 1285.36 Q2008.8 1282.67 2008.8 1277.98 Q2008.8 1273.28 2006.85 1270.61 Q2004.91 1267.93 2001.53 1267.93 Q1998.15 1267.93 1996.2 1270.61 Q1994.28 1273.28 1994.28 1277.98 Z" fill="#000000" fill-rule="nonzero" fill-opacity="1" /><path clip-path="url(#clip360)" d="M2037.08 1256.36 L2041.76 1256.36 L2041.76 1270.52 L2058.75 1270.52 L2058.75 1256.36 L2063.42 1256.36 L2063.42 1290.92 L2058.75 1290.92 L2058.75 1274.46 L2041.76 1274.46 L2041.76 1290.92 L2037.08 1290.92 L2037.08 1256.36 Z" fill="#000000" fill-rule="nonzero" fill-opacity="1" /><path clip-path="url(#clip360)" d="M2095.18 1256.36 L2099.12 1256.36 L2087.08 1295.31 L2083.15 1295.31 L2095.18 1256.36 Z" fill="#000000" fill-rule="nonzero" fill-opacity="1" /><path clip-path="url(#clip360)" d="M2137.27 1277.98 Q2137.27 1273.28 2135.32 1270.61 Q2133.4 1267.93 2130.02 1267.93 Q2126.64 1267.93 2124.7 1270.61 Q2122.78 1273.28 2122.78 1277.98 Q2122.78 1282.67 2124.7 1285.36 Q2126.64 1288.02 2130.02 1288.02 Q2133.4 1288.02 2135.32 1285.36 Q2137.27 1282.67 2137.27 1277.98 M2122.78 1268.92 Q2124.12 1266.61 2126.16 1265.5 Q2128.22 1264.36 2131.06 1264.36 Q2135.79 1264.36 2138.72 1268.11 Q2141.69 1271.86 2141.69 1277.98 Q2141.69 1284.09 2138.72 1287.84 Q2135.79 1291.59 2131.06 1291.59 Q2128.22 1291.59 2126.16 1290.48 Q2124.12 1289.34 2122.78 1287.03 L2122.78 1290.92 L2118.49 1290.92 L2118.49 1254.9 L2122.78 1254.9 L2122.78 1268.92 Z" fill="#000000" fill-rule="nonzero" fill-opacity="1" /><circle clip-path="url(#clip360)" cx="1821.8" cy="1325.48" r="23.04" fill="#e26f46" fill-rule="evenodd" fill-opacity="1" stroke="none"/>
<path clip-path="url(#clip360)" d="M1921.55 1326.25 L1921.55 1338.91 L1929.05 1338.91 Q1932.82 1338.91 1934.63 1337.36 Q1936.46 1335.79 1936.46 1332.57 Q1936.46 1329.33 1934.63 1327.8 Q1932.82 1326.25 1929.05 1326.25 L1921.55 1326.25 M1921.55 1312.04 L1921.55 1322.45 L1928.47 1322.45 Q1931.9 1322.45 1933.56 1321.18 Q1935.25 1319.89 1935.25 1317.25 Q1935.25 1314.63 1933.56 1313.33 Q1931.9 1312.04 1928.47 1312.04 L1921.55 1312.04 M1916.87 1308.2 L1928.82 1308.2 Q1934.17 1308.2 1937.06 1310.42 Q1939.95 1312.64 1939.95 1316.74 Q1939.95 1319.91 1938.47 1321.78 Q1936.99 1323.66 1934.12 1324.12 Q1937.57 1324.86 1939.47 1327.22 Q1941.39 1329.56 1941.39 1333.08 Q1941.39 1337.71 1938.24 1340.23 Q1935.09 1342.76 1929.28 1342.76 L1916.87 1342.76 L1916.87 1308.2 Z" fill="#000000" fill-rule="nonzero" fill-opacity="1" /><path clip-path="url(#clip360)" d="M1949.35 1306.74 L1953.61 1306.74 L1953.61 1320.67 L1956.5 1318.59 L1958.26 1321.04 L1953.61 1324.31 L1953.61 1342.76 L1949.35 1342.76 L1949.35 1327.34 L1946.5 1329.38 L1944.79 1326.92 L1949.35 1323.66 L1949.35 1306.74 Z" fill="#000000" fill-rule="nonzero" fill-opacity="1" /><path clip-path="url(#clip360)" d="M1974.47 1329.72 Q1969.3 1329.72 1967.31 1330.9 Q1965.32 1332.08 1965.32 1334.93 Q1965.32 1337.2 1966.8 1338.54 Q1968.31 1339.86 1970.88 1339.86 Q1974.42 1339.86 1976.55 1337.36 Q1978.7 1334.84 1978.7 1330.67 L1978.7 1329.72 L1974.47 1329.72 M1982.96 1327.96 L1982.96 1342.76 L1978.7 1342.76 L1978.7 1338.82 Q1977.24 1341.18 1975.07 1342.32 Q1972.89 1343.43 1969.74 1343.43 Q1965.76 1343.43 1963.4 1341.2 Q1961.06 1338.96 1961.06 1335.21 Q1961.06 1330.83 1963.98 1328.61 Q1966.92 1326.39 1972.73 1326.39 L1978.7 1326.39 L1978.7 1325.97 Q1978.7 1323.03 1976.76 1321.44 Q1974.84 1319.82 1971.34 1319.82 Q1969.12 1319.82 1967.01 1320.35 Q1964.91 1320.88 1962.96 1321.95 L1962.96 1318.01 Q1965.3 1317.11 1967.5 1316.67 Q1969.7 1316.2 1971.78 1316.2 Q1977.41 1316.2 1980.18 1319.12 Q1982.96 1322.04 1982.96 1327.96 M1978.75 1342.76 L1981.5 1342.76 Q1980.46 1344.17 1979.95 1345.19 Q1979.47 1346.2 1979.47 1346.92 Q1979.47 1347.99 1980.09 1348.52 Q1980.74 1349.05 1981.99 1349.05 Q1982.73 1349.05 1983.45 1348.87 Q1984.17 1348.7 1984.88 1348.36 L1984.88 1351.44 Q1984 1351.67 1983.22 1351.78 Q1982.43 1351.9 1981.74 1351.9 Q1978.91 1351.9 1977.57 1350.88 Q1976.25 1349.88 1976.25 1347.73 Q1976.25 1346.62 1976.85 1345.39 Q1977.48 1344.19 1978.75 1342.76 Z" fill="#000000" fill-rule="nonzero" fill-opacity="1" /><path clip-path="url(#clip360)" d="M2008.8 1320.76 L2008.8 1306.74 L2013.05 1306.74 L2013.05 1342.76 L2008.8 1342.76 L2008.8 1338.87 Q2007.45 1341.18 2005.39 1342.32 Q2003.36 1343.43 2000.48 1343.43 Q1995.79 1343.43 1992.82 1339.68 Q1989.88 1335.93 1989.88 1329.82 Q1989.88 1323.7 1992.82 1319.95 Q1995.79 1316.2 2000.48 1316.2 Q2003.36 1316.2 2005.39 1317.34 Q2007.45 1318.45 2008.8 1320.76 M1994.28 1329.82 Q1994.28 1334.51 1996.2 1337.2 Q1998.15 1339.86 2001.53 1339.86 Q2004.91 1339.86 2006.85 1337.2 Q2008.8 1334.51 2008.8 1329.82 Q2008.8 1325.12 2006.85 1322.45 Q2004.91 1319.77 2001.53 1319.77 Q1998.15 1319.77 1996.2 1322.45 Q1994.28 1325.12 1994.28 1329.82 Z" fill="#000000" fill-rule="nonzero" fill-opacity="1" /><path clip-path="url(#clip360)" d="M2036.9 1316.83 L2041.16 1316.83 L2041.16 1342.76 L2036.9 1342.76 L2036.9 1316.83 M2036.9 1306.74 L2041.16 1306.74 L2041.16 1312.13 L2036.9 1312.13 L2036.9 1306.74 Z" fill="#000000" fill-rule="nonzero" fill-opacity="1" /><path clip-path="url(#clip360)" d="M2071.62 1327.11 L2071.62 1342.76 L2067.36 1342.76 L2067.36 1327.25 Q2067.36 1323.57 2065.92 1321.74 Q2064.49 1319.91 2061.62 1319.91 Q2058.17 1319.91 2056.18 1322.11 Q2054.19 1324.31 2054.19 1328.1 L2054.19 1342.76 L2049.91 1342.76 L2049.91 1316.83 L2054.19 1316.83 L2054.19 1320.86 Q2055.72 1318.52 2057.78 1317.36 Q2059.86 1316.2 2062.57 1316.2 Q2067.04 1316.2 2069.33 1318.98 Q2071.62 1321.74 2071.62 1327.11 Z" fill="#000000" fill-rule="nonzero" fill-opacity="1" /><path clip-path="url(#clip360)" d="M2077.06 1316.83 L2081.57 1316.83 L2089.67 1338.59 L2097.78 1316.83 L2102.29 1316.83 L2092.57 1342.76 L2086.78 1342.76 L2077.06 1316.83 Z" fill="#000000" fill-rule="nonzero" fill-opacity="1" /><path clip-path="url(#clip360)" d="M2118.4 1306.78 Q2115.3 1312.11 2113.79 1317.32 Q2112.29 1322.52 2112.29 1327.87 Q2112.29 1333.22 2113.79 1338.47 Q2115.32 1343.7 2118.4 1349.01 L2114.7 1349.01 Q2111.23 1343.57 2109.49 1338.31 Q2107.78 1333.06 2107.78 1327.87 Q2107.78 1322.71 2109.49 1317.48 Q2111.2 1312.25 2114.7 1306.78 L2118.4 1306.78 Z" fill="#000000" fill-rule="nonzero" fill-opacity="1" /><path clip-path="url(#clip360)" d="M2126.85 1308.2 L2131.53 1308.2 L2131.53 1322.36 L2148.52 1322.36 L2148.52 1308.2 L2153.19 1308.2 L2153.19 1342.76 L2148.52 1342.76 L2148.52 1326.3 L2131.53 1326.3 L2131.53 1342.76 L2126.85 1342.76 L2126.85 1308.2 Z" fill="#000000" fill-rule="nonzero" fill-opacity="1" /><path clip-path="url(#clip360)" d="M2161.64 1306.78 L2165.35 1306.78 Q2168.82 1312.25 2170.53 1317.48 Q2172.27 1322.71 2172.27 1327.87 Q2172.27 1333.06 2170.53 1338.31 Q2168.82 1343.57 2165.35 1349.01 L2161.64 1349.01 Q2164.72 1343.7 2166.22 1338.47 Q2167.75 1333.22 2167.75 1327.87 Q2167.75 1322.52 2166.22 1317.32 Q2164.72 1312.11 2161.64 1306.78 Z" fill="#000000" fill-rule="nonzero" fill-opacity="1" /><path clip-path="url(#clip360)" d="M2213.7 1313.89 L2205.39 1318.38 L2213.7 1322.89 L2212.36 1325.16 L2204.58 1320.46 L2204.58 1329.19 L2201.94 1329.19 L2201.94 1320.46 L2194.16 1325.16 L2192.82 1322.89 L2201.13 1318.38 L2192.82 1313.89 L2194.16 1311.6 L2201.94 1316.3 L2201.94 1307.57 L2204.58 1307.57 L2204.58 1316.3 L2212.36 1311.6 L2213.7 1313.89 Z" fill="#000000" fill-rule="nonzero" fill-opacity="1" /><path clip-path="url(#clip360)" d="M2253.26 1329.82 Q2253.26 1325.12 2251.32 1322.45 Q2249.4 1319.77 2246.02 1319.77 Q2242.64 1319.77 2240.69 1322.45 Q2238.77 1325.12 2238.77 1329.82 Q2238.77 1334.51 2240.69 1337.2 Q2242.64 1339.86 2246.02 1339.86 Q2249.4 1339.86 2251.32 1337.2 Q2253.26 1334.51 2253.26 1329.82 M2238.77 1320.76 Q2240.11 1318.45 2242.15 1317.34 Q2244.21 1316.2 2247.06 1316.2 Q2251.78 1316.2 2254.72 1319.95 Q2257.68 1323.7 2257.68 1329.82 Q2257.68 1335.93 2254.72 1339.68 Q2251.78 1343.43 2247.06 1343.43 Q2244.21 1343.43 2242.15 1342.32 Q2240.11 1341.18 2238.77 1338.87 L2238.77 1342.76 L2234.49 1342.76 L2234.49 1306.74 L2238.77 1306.74 L2238.77 1320.76 Z" fill="#000000" fill-rule="nonzero" fill-opacity="1" /></svg>
