<?xml version="1.0" encoding="utf-8"?>
<svg xmlns="http://www.w3.org/2000/svg" xmlns:xlink="http://www.w3.org/1999/xlink" width="600" height="400" viewBox="0 0 2400 1600">
<defs>
  <clipPath id="clip430">
    <rect x="0" y="0" width="2400" height="1600"/>
  </clipPath>
</defs>
<path clip-path="url(#clip430)" d="M0 1600 L2400 1600 L2400 0 L0 0  Z" fill="#ffffff" fill-rule="evenodd" fill-opacity="1"/>
<defs>
  <clipPath id="clip431">
    <rect x="480" y="0" width="1681" height="1600"/>
  </clipPath>
</defs>
<path clip-path="url(#clip430)" d="M156.598 1486.45 L2352.76 1486.45 L2352.76 47.2441 L156.598 47.2441  Z" fill="#ffffff" fill-rule="evenodd" fill-opacity="1"/>
<defs>
  <clipPath id="clip432">
    <rect x="156" y="47" width="2197" height="1440"/>
  </clipPath>
</defs>
<polyline clip-path="url(#clip432)" style="stroke:#000000; stroke-linecap:round; stroke-linejoin:round; stroke-width:2; stroke-opacity:0.1; fill:none" points="218.754,1486.45 218.754,47.2441 "/>
<polyline clip-path="url(#clip432)" style="stroke:#000000; stroke-linecap:round; stroke-linejoin:round; stroke-width:2; stroke-opacity:0.1; fill:none" points="736.715,1486.45 736.715,47.2441 "/>
<polyline clip-path="url(#clip432)" style="stroke:#000000; stroke-linecap:round; stroke-linejoin:round; stroke-width:2; stroke-opacity:0.1; fill:none" points="1254.68,1486.45 1254.68,47.2441 "/>
<polyline clip-path="url(#clip432)" style="stroke:#000000; stroke-linecap:round; stroke-linejoin:round; stroke-width:2; stroke-opacity:0.1; fill:none" points="1772.64,1486.45 1772.64,47.2441 "/>
<polyline clip-path="url(#clip432)" style="stroke:#000000; stroke-linecap:round; stroke-linejoin:round; stroke-width:2; stroke-opacity:0.1; fill:none" points="2290.6,1486.45 2290.6,47.2441 "/>
<polyline clip-path="url(#clip430)" style="stroke:#000000; stroke-linecap:round; stroke-linejoin:round; stroke-width:4; stroke-opacity:1; fill:none" points="156.598,1486.45 2352.76,1486.45 "/>
<polyline clip-path="url(#clip430)" style="stroke:#000000; stroke-linecap:round; stroke-linejoin:round; stroke-width:4; stroke-opacity:1; fill:none" points="218.754,1486.45 218.754,1467.55 "/>
<polyline clip-path="url(#clip430)" style="stroke:#000000; stroke-linecap:round; stroke-linejoin:round; stroke-width:4; stroke-opacity:1; fill:none" points="736.715,1486.45 736.715,1467.55 "/>
<polyline clip-path="url(#clip430)" style="stroke:#000000; stroke-linecap:round; stroke-linejoin:round; stroke-width:4; stroke-opacity:1; fill:none" points="1254.68,1486.45 1254.68,1467.55 "/>
<polyline clip-path="url(#clip430)" style="stroke:#000000; stroke-linecap:round; stroke-linejoin:round; stroke-width:4; stroke-opacity:1; fill:none" points="1772.64,1486.45 1772.64,1467.55 "/>
<polyline clip-path="url(#clip430)" style="stroke:#000000; stroke-linecap:round; stroke-linejoin:round; stroke-width:4; stroke-opacity:1; fill:none" points="2290.6,1486.45 2290.6,1467.55 "/>
<path clip-path="url(#clip430)" d="M218.754 1517.37 Q215.143 1517.37 213.314 1520.93 Q211.508 1524.47 211.508 1531.6 Q211.508 1538.71 213.314 1542.27 Q215.143 1545.82 218.754 1545.82 Q222.388 1545.82 224.193 1542.27 Q226.022 1538.71 226.022 1531.6 Q226.022 1524.47 224.193 1520.93 Q222.388 1517.37 218.754 1517.37 M218.754 1513.66 Q224.564 1513.66 227.619 1518.27 Q230.698 1522.85 230.698 1531.6 Q230.698 1540.33 227.619 1544.94 Q224.564 1549.52 218.754 1549.52 Q212.943 1549.52 209.865 1544.94 Q206.809 1540.33 206.809 1531.6 Q206.809 1522.85 209.865 1518.27 Q212.943 1513.66 218.754 1513.66 Z" fill="#000000" fill-rule="nonzero" fill-opacity="1" /><path clip-path="url(#clip430)" d="M711.403 1544.91 L719.042 1544.91 L719.042 1518.55 L710.732 1520.21 L710.732 1515.95 L718.996 1514.29 L723.671 1514.29 L723.671 1544.91 L731.31 1544.91 L731.31 1548.85 L711.403 1548.85 L711.403 1544.91 Z" fill="#000000" fill-rule="nonzero" fill-opacity="1" /><path clip-path="url(#clip430)" d="M750.755 1517.37 Q747.144 1517.37 745.315 1520.93 Q743.509 1524.47 743.509 1531.6 Q743.509 1538.71 745.315 1542.27 Q747.144 1545.82 750.755 1545.82 Q754.389 1545.82 756.194 1542.27 Q758.023 1538.71 758.023 1531.6 Q758.023 1524.47 756.194 1520.93 Q754.389 1517.37 750.755 1517.37 M750.755 1513.66 Q756.565 1513.66 759.62 1518.27 Q762.699 1522.85 762.699 1531.6 Q762.699 1540.33 759.62 1544.94 Q756.565 1549.52 750.755 1549.52 Q744.944 1549.52 741.866 1544.94 Q738.81 1540.33 738.81 1531.6 Q738.81 1522.85 741.866 1518.27 Q744.944 1513.66 750.755 1513.66 Z" fill="#000000" fill-rule="nonzero" fill-opacity="1" /><path clip-path="url(#clip430)" d="M1233.45 1544.91 L1249.77 1544.91 L1249.77 1548.85 L1227.83 1548.85 L1227.83 1544.91 Q1230.49 1542.16 1235.07 1537.53 Q1239.68 1532.88 1240.86 1531.53 Q1243.1 1529.01 1243.98 1527.27 Q1244.89 1525.51 1244.89 1523.82 Q1244.89 1521.07 1242.94 1519.33 Q1241.02 1517.6 1237.92 1517.6 Q1235.72 1517.6 1233.27 1518.36 Q1230.83 1519.13 1228.06 1520.68 L1228.06 1515.95 Q1230.88 1514.82 1233.33 1514.24 Q1235.79 1513.66 1237.83 1513.66 Q1243.2 1513.66 1246.39 1516.35 Q1249.58 1519.03 1249.58 1523.52 Q1249.58 1525.65 1248.77 1527.57 Q1247.99 1529.47 1245.88 1532.07 Q1245.3 1532.74 1242.2 1535.95 Q1239.1 1539.15 1233.45 1544.91 Z" fill="#000000" fill-rule="nonzero" fill-opacity="1" /><path clip-path="url(#clip430)" d="M1269.58 1517.37 Q1265.97 1517.37 1264.14 1520.93 Q1262.34 1524.47 1262.34 1531.6 Q1262.34 1538.71 1264.14 1542.27 Q1265.97 1545.82 1269.58 1545.82 Q1273.22 1545.82 1275.02 1542.27 Q1276.85 1538.71 1276.85 1531.6 Q1276.85 1524.47 1275.02 1520.93 Q1273.22 1517.37 1269.58 1517.37 M1269.58 1513.66 Q1275.39 1513.66 1278.45 1518.27 Q1281.53 1522.85 1281.53 1531.6 Q1281.53 1540.33 1278.45 1544.94 Q1275.39 1549.52 1269.58 1549.52 Q1263.77 1549.52 1260.7 1544.94 Q1257.64 1540.33 1257.64 1531.6 Q1257.64 1522.85 1260.7 1518.27 Q1263.77 1513.66 1269.58 1513.66 Z" fill="#000000" fill-rule="nonzero" fill-opacity="1" /><path clip-path="url(#clip430)" d="M1761.48 1530.21 Q1764.84 1530.93 1766.71 1533.2 Q1768.61 1535.47 1768.61 1538.8 Q1768.61 1543.92 1765.09 1546.72 Q1761.57 1549.52 1755.09 1549.52 Q1752.92 1549.52 1750.6 1549.08 Q1748.31 1548.66 1745.86 1547.81 L1745.86 1543.29 Q1747.8 1544.43 1750.12 1545.01 Q1752.43 1545.58 1754.95 1545.58 Q1759.35 1545.58 1761.64 1543.85 Q1763.96 1542.11 1763.96 1538.8 Q1763.96 1535.75 1761.81 1534.03 Q1759.68 1532.3 1755.86 1532.3 L1751.83 1532.3 L1751.83 1528.45 L1756.04 1528.45 Q1759.49 1528.45 1761.32 1527.09 Q1763.15 1525.7 1763.15 1523.11 Q1763.15 1520.45 1761.25 1519.03 Q1759.37 1517.6 1755.86 1517.6 Q1753.94 1517.6 1751.74 1518.01 Q1749.54 1518.43 1746.9 1519.31 L1746.9 1515.14 Q1749.56 1514.4 1751.88 1514.03 Q1754.21 1513.66 1756.27 1513.66 Q1761.6 1513.66 1764.7 1516.09 Q1767.8 1518.5 1767.8 1522.62 Q1767.8 1525.49 1766.16 1527.48 Q1764.51 1529.45 1761.48 1530.21 Z" fill="#000000" fill-rule="nonzero" fill-opacity="1" /><path clip-path="url(#clip430)" d="M1787.48 1517.37 Q1783.87 1517.37 1782.04 1520.93 Q1780.23 1524.47 1780.23 1531.6 Q1780.23 1538.71 1782.04 1542.27 Q1783.87 1545.82 1787.48 1545.82 Q1791.11 1545.82 1792.92 1542.27 Q1794.75 1538.71 1794.75 1531.6 Q1794.75 1524.47 1792.92 1520.93 Q1791.11 1517.37 1787.48 1517.37 M1787.48 1513.66 Q1793.29 1513.66 1796.34 1518.27 Q1799.42 1522.85 1799.42 1531.6 Q1799.42 1540.33 1796.34 1544.94 Q1793.29 1549.52 1787.48 1549.52 Q1781.67 1549.52 1778.59 1544.94 Q1775.53 1540.33 1775.53 1531.6 Q1775.53 1522.85 1778.59 1518.27 Q1781.67 1513.66 1787.48 1513.66 Z" fill="#000000" fill-rule="nonzero" fill-opacity="1" /><path clip-path="url(#clip430)" d="M2278.77 1518.36 L2266.97 1536.81 L2278.77 1536.81 L2278.77 1518.36 M2277.55 1514.29 L2283.42 1514.29 L2283.42 1536.81 L2288.36 1536.81 L2288.36 1540.7 L2283.42 1540.7 L2283.42 1548.85 L2278.77 1548.85 L2278.77 1540.7 L2263.17 1540.7 L2263.17 1536.19 L2277.55 1514.29 Z" fill="#000000" fill-rule="nonzero" fill-opacity="1" /><path clip-path="url(#clip430)" d="M2306.09 1517.37 Q2302.48 1517.37 2300.65 1520.93 Q2298.84 1524.47 2298.84 1531.6 Q2298.84 1538.71 2300.65 1542.27 Q2302.48 1545.82 2306.09 1545.82 Q2309.72 1545.82 2311.53 1542.27 Q2313.36 1538.71 2313.36 1531.6 Q2313.36 1524.47 2311.53 1520.93 Q2309.72 1517.37 2306.09 1517.37 M2306.09 1513.66 Q2311.9 1513.66 2314.95 1518.27 Q2318.03 1522.85 2318.03 1531.6 Q2318.03 1540.33 2314.95 1544.94 Q2311.9 1549.52 2306.09 1549.52 Q2300.28 1549.52 2297.2 1544.94 Q2294.14 1540.33 2294.14 1531.6 Q2294.14 1522.85 2297.2 1518.27 Q2300.28 1513.66 2306.09 1513.66 Z" fill="#000000" fill-rule="nonzero" fill-opacity="1" /><polyline clip-path="url(#clip432)" style="stroke:#000000; stroke-linecap:round; stroke-linejoin:round; stroke-width:2; stroke-opacity:0.1; fill:none" points="156.598,1448.69 2352.76,1448.69 "/>
<polyline clip-path="url(#clip432)" style="stroke:#000000; stroke-linecap:round; stroke-linejoin:round; stroke-width:2; stroke-opacity:0.1; fill:none" points="156.598,1244.47 2352.76,1244.47 "/>
<polyline clip-path="url(#clip432)" style="stroke:#000000; stroke-linecap:round; stroke-linejoin:round; stroke-width:2; stroke-opacity:0.1; fill:none" points="156.598,1040.25 2352.76,1040.25 "/>
<polyline clip-path="url(#clip432)" style="stroke:#000000; stroke-linecap:round; stroke-linejoin:round; stroke-width:2; stroke-opacity:0.1; fill:none" points="156.598,836.032 2352.76,836.032 "/>
<polyline clip-path="url(#clip432)" style="stroke:#000000; stroke-linecap:round; stroke-linejoin:round; stroke-width:2; stroke-opacity:0.1; fill:none" points="156.598,631.814 2352.76,631.814 "/>
<polyline clip-path="url(#clip432)" style="stroke:#000000; stroke-linecap:round; stroke-linejoin:round; stroke-width:2; stroke-opacity:0.1; fill:none" points="156.598,427.596 2352.76,427.596 "/>
<polyline clip-path="url(#clip432)" style="stroke:#000000; stroke-linecap:round; stroke-linejoin:round; stroke-width:2; stroke-opacity:0.1; fill:none" points="156.598,223.379 2352.76,223.379 "/>
<polyline clip-path="url(#clip430)" style="stroke:#000000; stroke-linecap:round; stroke-linejoin:round; stroke-width:4; stroke-opacity:1; fill:none" points="156.598,1486.45 156.598,47.2441 "/>
<polyline clip-path="url(#clip430)" style="stroke:#000000; stroke-linecap:round; stroke-linejoin:round; stroke-width:4; stroke-opacity:1; fill:none" points="156.598,1448.69 175.496,1448.69 "/>
<polyline clip-path="url(#clip430)" style="stroke:#000000; stroke-linecap:round; stroke-linejoin:round; stroke-width:4; stroke-opacity:1; fill:none" points="156.598,1244.47 175.496,1244.47 "/>
<polyline clip-path="url(#clip430)" style="stroke:#000000; stroke-linecap:round; stroke-linejoin:round; stroke-width:4; stroke-opacity:1; fill:none" points="156.598,1040.25 175.496,1040.25 "/>
<polyline clip-path="url(#clip430)" style="stroke:#000000; stroke-linecap:round; stroke-linejoin:round; stroke-width:4; stroke-opacity:1; fill:none" points="156.598,836.032 175.496,836.032 "/>
<polyline clip-path="url(#clip430)" style="stroke:#000000; stroke-linecap:round; stroke-linejoin:round; stroke-width:4; stroke-opacity:1; fill:none" points="156.598,631.814 175.496,631.814 "/>
<polyline clip-path="url(#clip430)" style="stroke:#000000; stroke-linecap:round; stroke-linejoin:round; stroke-width:4; stroke-opacity:1; fill:none" points="156.598,427.596 175.496,427.596 "/>
<polyline clip-path="url(#clip430)" style="stroke:#000000; stroke-linecap:round; stroke-linejoin:round; stroke-width:4; stroke-opacity:1; fill:none" points="156.598,223.379 175.496,223.379 "/>
<path clip-path="url(#clip430)" d="M63.4226 1434.48 Q59.8115 1434.48 57.9828 1438.05 Q56.1773 1441.59 56.1773 1448.72 Q56.1773 1455.83 57.9828 1459.39 Q59.8115 1462.93 63.4226 1462.93 Q67.0569 1462.93 68.8624 1459.39 Q70.6911 1455.83 70.6911 1448.72 Q70.6911 1441.59 68.8624 1438.05 Q67.0569 1434.48 63.4226 1434.48 M63.4226 1430.78 Q69.2328 1430.78 72.2883 1435.39 Q75.367 1439.97 75.367 1448.72 Q75.367 1457.45 72.2883 1462.05 Q69.2328 1466.64 63.4226 1466.64 Q57.6125 1466.64 54.5338 1462.05 Q51.4782 1457.45 51.4782 1448.72 Q51.4782 1439.97 54.5338 1435.39 Q57.6125 1430.78 63.4226 1430.78 Z" fill="#000000" fill-rule="nonzero" fill-opacity="1" /><path clip-path="url(#clip430)" d="M83.5845 1460.09 L88.4688 1460.09 L88.4688 1465.97 L83.5845 1465.97 L83.5845 1460.09 Z" fill="#000000" fill-rule="nonzero" fill-opacity="1" /><path clip-path="url(#clip430)" d="M108.654 1434.48 Q105.043 1434.48 103.214 1438.05 Q101.409 1441.59 101.409 1448.72 Q101.409 1455.83 103.214 1459.39 Q105.043 1462.93 108.654 1462.93 Q112.288 1462.93 114.094 1459.39 Q115.922 1455.83 115.922 1448.72 Q115.922 1441.59 114.094 1438.05 Q112.288 1434.48 108.654 1434.48 M108.654 1430.78 Q114.464 1430.78 117.52 1435.39 Q120.598 1439.97 120.598 1448.72 Q120.598 1457.45 117.52 1462.05 Q114.464 1466.64 108.654 1466.64 Q102.844 1466.64 99.765 1462.05 Q96.7095 1457.45 96.7095 1448.72 Q96.7095 1439.97 99.765 1435.39 Q102.844 1430.78 108.654 1430.78 Z" fill="#000000" fill-rule="nonzero" fill-opacity="1" /><path clip-path="url(#clip430)" d="M65.0198 1230.27 Q61.4087 1230.27 59.58 1233.83 Q57.7745 1237.37 57.7745 1244.5 Q57.7745 1251.61 59.58 1255.17 Q61.4087 1258.72 65.0198 1258.72 Q68.6541 1258.72 70.4596 1255.17 Q72.2883 1251.61 72.2883 1244.5 Q72.2883 1237.37 70.4596 1233.83 Q68.6541 1230.27 65.0198 1230.27 M65.0198 1226.56 Q70.83 1226.56 73.8855 1231.17 Q76.9642 1235.75 76.9642 1244.5 Q76.9642 1253.23 73.8855 1257.84 Q70.83 1262.42 65.0198 1262.42 Q59.2097 1262.42 56.131 1257.84 Q53.0754 1253.23 53.0754 1244.5 Q53.0754 1235.75 56.131 1231.17 Q59.2097 1226.56 65.0198 1226.56 Z" fill="#000000" fill-rule="nonzero" fill-opacity="1" /><path clip-path="url(#clip430)" d="M85.1818 1255.87 L90.066 1255.87 L90.066 1261.75 L85.1818 1261.75 L85.1818 1255.87 Z" fill="#000000" fill-rule="nonzero" fill-opacity="1" /><path clip-path="url(#clip430)" d="M104.279 1257.81 L120.598 1257.81 L120.598 1261.75 L98.6539 1261.75 L98.6539 1257.81 Q101.316 1255.06 105.899 1250.43 Q110.506 1245.78 111.686 1244.43 Q113.932 1241.91 114.811 1240.17 Q115.714 1238.42 115.714 1236.73 Q115.714 1233.97 113.77 1232.23 Q111.848 1230.5 108.746 1230.5 Q106.547 1230.5 104.094 1231.26 Q101.663 1232.03 98.8854 1233.58 L98.8854 1228.85 Q101.709 1227.72 104.163 1227.14 Q106.617 1226.56 108.654 1226.56 Q114.024 1226.56 117.219 1229.25 Q120.413 1231.93 120.413 1236.42 Q120.413 1238.55 119.603 1240.48 Q118.816 1242.37 116.709 1244.97 Q116.131 1245.64 113.029 1248.85 Q109.927 1252.05 104.279 1257.81 Z" fill="#000000" fill-rule="nonzero" fill-opacity="1" /><path clip-path="url(#clip430)" d="M62.9365 1026.05 Q59.3254 1026.05 57.4967 1029.61 Q55.6912 1033.16 55.6912 1040.29 Q55.6912 1047.39 57.4967 1050.96 Q59.3254 1054.5 62.9365 1054.5 Q66.5707 1054.5 68.3763 1050.96 Q70.205 1047.39 70.205 1040.29 Q70.205 1033.16 68.3763 1029.61 Q66.5707 1026.05 62.9365 1026.05 M62.9365 1022.35 Q68.7467 1022.35 71.8022 1026.95 Q74.8809 1031.54 74.8809 1040.29 Q74.8809 1049.01 71.8022 1053.62 Q68.7467 1058.2 62.9365 1058.2 Q57.1264 1058.2 54.0477 1053.62 Q50.9921 1049.01 50.9921 1040.29 Q50.9921 1031.54 54.0477 1026.95 Q57.1264 1022.35 62.9365 1022.35 Z" fill="#000000" fill-rule="nonzero" fill-opacity="1" /><path clip-path="url(#clip430)" d="M83.0984 1051.65 L87.9827 1051.65 L87.9827 1057.53 L83.0984 1057.53 L83.0984 1051.65 Z" fill="#000000" fill-rule="nonzero" fill-opacity="1" /><path clip-path="url(#clip430)" d="M111.015 1027.04 L99.2095 1045.49 L111.015 1045.49 L111.015 1027.04 M109.788 1022.97 L115.668 1022.97 L115.668 1045.49 L120.598 1045.49 L120.598 1049.38 L115.668 1049.38 L115.668 1057.53 L111.015 1057.53 L111.015 1049.38 L95.4132 1049.38 L95.4132 1044.87 L109.788 1022.97 Z" fill="#000000" fill-rule="nonzero" fill-opacity="1" /><path clip-path="url(#clip430)" d="M63.2606 821.831 Q59.6495 821.831 57.8208 825.396 Q56.0152 828.938 56.0152 836.067 Q56.0152 843.174 57.8208 846.738 Q59.6495 850.28 63.2606 850.28 Q66.8948 850.28 68.7004 846.738 Q70.5291 843.174 70.5291 836.067 Q70.5291 828.938 68.7004 825.396 Q66.8948 821.831 63.2606 821.831 M63.2606 818.127 Q69.0707 818.127 72.1263 822.734 Q75.205 827.317 75.205 836.067 Q75.205 844.794 72.1263 849.4 Q69.0707 853.984 63.2606 853.984 Q57.4504 853.984 54.3717 849.4 Q51.3162 844.794 51.3162 836.067 Q51.3162 827.317 54.3717 822.734 Q57.4504 818.127 63.2606 818.127 Z" fill="#000000" fill-rule="nonzero" fill-opacity="1" /><path clip-path="url(#clip430)" d="M83.4225 847.433 L88.3067 847.433 L88.3067 853.312 L83.4225 853.312 L83.4225 847.433 Z" fill="#000000" fill-rule="nonzero" fill-opacity="1" /><path clip-path="url(#clip430)" d="M109.071 834.169 Q105.922 834.169 104.071 836.322 Q102.242 838.474 102.242 842.224 Q102.242 845.951 104.071 848.127 Q105.922 850.28 109.071 850.28 Q112.219 850.28 114.047 848.127 Q115.899 845.951 115.899 842.224 Q115.899 838.474 114.047 836.322 Q112.219 834.169 109.071 834.169 M118.353 819.516 L118.353 823.775 Q116.594 822.942 114.788 822.502 Q113.006 822.063 111.246 822.063 Q106.617 822.063 104.163 825.188 Q101.733 828.313 101.385 834.632 Q102.751 832.618 104.811 831.553 Q106.871 830.465 109.348 830.465 Q114.557 830.465 117.566 833.637 Q120.598 836.785 120.598 842.224 Q120.598 847.549 117.45 850.766 Q114.302 853.984 109.071 853.984 Q103.075 853.984 99.9039 849.4 Q96.7326 844.794 96.7326 836.067 Q96.7326 827.873 100.621 823.012 Q104.51 818.127 111.061 818.127 Q112.82 818.127 114.603 818.475 Q116.408 818.822 118.353 819.516 Z" fill="#000000" fill-rule="nonzero" fill-opacity="1" /><path clip-path="url(#clip430)" d="M63.5152 617.613 Q59.9041 617.613 58.0754 621.178 Q56.2699 624.72 56.2699 631.849 Q56.2699 638.956 58.0754 642.52 Q59.9041 646.062 63.5152 646.062 Q67.1494 646.062 68.955 642.52 Q70.7837 638.956 70.7837 631.849 Q70.7837 624.72 68.955 621.178 Q67.1494 617.613 63.5152 617.613 M63.5152 613.909 Q69.3254 613.909 72.3809 618.516 Q75.4596 623.099 75.4596 631.849 Q75.4596 640.576 72.3809 645.182 Q69.3254 649.766 63.5152 649.766 Q57.7051 649.766 54.6264 645.182 Q51.5708 640.576 51.5708 631.849 Q51.5708 623.099 54.6264 618.516 Q57.7051 613.909 63.5152 613.909 Z" fill="#000000" fill-rule="nonzero" fill-opacity="1" /><path clip-path="url(#clip430)" d="M83.6771 643.215 L88.5614 643.215 L88.5614 649.094 L83.6771 649.094 L83.6771 643.215 Z" fill="#000000" fill-rule="nonzero" fill-opacity="1" /><path clip-path="url(#clip430)" d="M108.746 632.682 Q105.413 632.682 103.492 634.465 Q101.594 636.247 101.594 639.372 Q101.594 642.497 103.492 644.28 Q105.413 646.062 108.746 646.062 Q112.08 646.062 114.001 644.28 Q115.922 642.474 115.922 639.372 Q115.922 636.247 114.001 634.465 Q112.103 632.682 108.746 632.682 M104.071 630.692 Q101.061 629.951 99.3715 627.891 Q97.7048 625.831 97.7048 622.868 Q97.7048 618.724 100.645 616.317 Q103.608 613.909 108.746 613.909 Q113.908 613.909 116.848 616.317 Q119.788 618.724 119.788 622.868 Q119.788 625.831 118.098 627.891 Q116.432 629.951 113.445 630.692 Q116.825 631.479 118.7 633.77 Q120.598 636.062 120.598 639.372 Q120.598 644.395 117.52 647.081 Q114.464 649.766 108.746 649.766 Q103.029 649.766 99.9502 647.081 Q96.8947 644.395 96.8947 639.372 Q96.8947 636.062 98.7928 633.77 Q100.691 631.479 104.071 630.692 M102.358 623.308 Q102.358 625.993 104.024 627.497 Q105.714 629.002 108.746 629.002 Q111.756 629.002 113.445 627.497 Q115.158 625.993 115.158 623.308 Q115.158 620.622 113.445 619.118 Q111.756 617.613 108.746 617.613 Q105.714 617.613 104.024 619.118 Q102.358 620.622 102.358 623.308 Z" fill="#000000" fill-rule="nonzero" fill-opacity="1" /><path clip-path="url(#clip430)" d="M54.2328 440.941 L61.8717 440.941 L61.8717 414.576 L53.5616 416.242 L53.5616 411.983 L61.8254 410.316 L66.5013 410.316 L66.5013 440.941 L74.1402 440.941 L74.1402 444.876 L54.2328 444.876 L54.2328 440.941 Z" fill="#000000" fill-rule="nonzero" fill-opacity="1" /><path clip-path="url(#clip430)" d="M83.5845 438.997 L88.4688 438.997 L88.4688 444.876 L83.5845 444.876 L83.5845 438.997 Z" fill="#000000" fill-rule="nonzero" fill-opacity="1" /><path clip-path="url(#clip430)" d="M108.654 413.395 Q105.043 413.395 103.214 416.96 Q101.409 420.502 101.409 427.631 Q101.409 434.738 103.214 438.302 Q105.043 441.844 108.654 441.844 Q112.288 441.844 114.094 438.302 Q115.922 434.738 115.922 427.631 Q115.922 420.502 114.094 416.96 Q112.288 413.395 108.654 413.395 M108.654 409.691 Q114.464 409.691 117.52 414.298 Q120.598 418.881 120.598 427.631 Q120.598 436.358 117.52 440.964 Q114.464 445.548 108.654 445.548 Q102.844 445.548 99.765 440.964 Q96.7095 436.358 96.7095 427.631 Q96.7095 418.881 99.765 414.298 Q102.844 409.691 108.654 409.691 Z" fill="#000000" fill-rule="nonzero" fill-opacity="1" /><path clip-path="url(#clip430)" d="M55.8301 236.723 L63.4689 236.723 L63.4689 210.358 L55.1588 212.024 L55.1588 207.765 L63.4226 206.099 L68.0985 206.099 L68.0985 236.723 L75.7374 236.723 L75.7374 240.659 L55.8301 240.659 L55.8301 236.723 Z" fill="#000000" fill-rule="nonzero" fill-opacity="1" /><path clip-path="url(#clip430)" d="M85.1818 234.779 L90.066 234.779 L90.066 240.659 L85.1818 240.659 L85.1818 234.779 Z" fill="#000000" fill-rule="nonzero" fill-opacity="1" /><path clip-path="url(#clip430)" d="M104.279 236.723 L120.598 236.723 L120.598 240.659 L98.6539 240.659 L98.6539 236.723 Q101.316 233.969 105.899 229.339 Q110.506 224.686 111.686 223.344 Q113.932 220.821 114.811 219.085 Q115.714 217.325 115.714 215.636 Q115.714 212.881 113.77 211.145 Q111.848 209.409 108.746 209.409 Q106.547 209.409 104.094 210.173 Q101.663 210.936 98.8854 212.487 L98.8854 207.765 Q101.709 206.631 104.163 206.052 Q106.617 205.474 108.654 205.474 Q114.024 205.474 117.219 208.159 Q120.413 210.844 120.413 215.335 Q120.413 217.464 119.603 219.386 Q118.816 221.284 116.709 223.876 Q116.131 224.548 113.029 227.765 Q109.927 230.96 104.279 236.723 Z" fill="#000000" fill-rule="nonzero" fill-opacity="1" /><polyline clip-path="url(#clip432)" style="stroke:#009af9; stroke-linecap:round; stroke-linejoin:round; stroke-width:4; stroke-opacity:0.5; fill:none" points="218.754,1438.48 270.55,1408.15 322.346,1291.37 374.142,892.118 425.938,132.524 477.734,1273.55 529.531,838.258 581.327,101.753 633.123,1391.23 684.919,1228.55 736.715,710.526 788.512,96.9248 840.308,1410.2 892.104,1299.08 943.9,916.014 995.696,151.635 1047.49,1203.27 1099.29,643.964 1151.08,132.405 1202.88,1273.99 1254.68,839.576 1306.47,102.302 1358.27,1389.08 1410.07,1220.69 1461.86,689.429 1513.66,105.352 1565.45,1377.17 1617.25,1177.66 1669.05,580.401 1720.84,190.589 1772.64,1066.65 1824.43,349.351 1876.23,602.075 1928.03,168.082 1979.82,1144.5 2031.62,503.788 2083.42,292.269 2135.21,752.057 2187.01,87.9763 2238.8,1445.72 2290.6,1436.83 "/>
<polyline clip-path="url(#clip432)" style="stroke:#e26f46; stroke-linecap:round; stroke-linejoin:round; stroke-width:4; stroke-opacity:0.5; fill:none" points="218.754,1438.48 270.55,1408.15 322.346,1291.37 374.142,892.118 425.938,132.524 477.734,1273.55 529.531,838.259 581.327,101.753 633.123,1391.23 684.919,1228.55 736.715,711.459 788.512,96.6124 840.308,1411.43 892.104,1303.73 943.9,930.605 995.696,164.955 1047.49,1155.55 1099.29,528.597 1151.08,255.567 1202.88,858.606 1254.68,111.374 1306.47,1353.83 1358.27,1095.71 1410.07,402.846 1461.86,478.898 1513.66,332.726 1565.45,643.78 1617.25,132.539 1669.05,1273.49 1720.84,838.089 1772.64,101.683 1824.43,1391.5 1876.23,1229.55 1928.03,713.238 1979.82,96.031 2031.62,1413.72 2083.42,1312.42 2135.21,958.187 2187.01,193.551 2238.8,1056.63 2290.6,332.055 "/>
<polyline clip-path="url(#clip432)" style="stroke:#3da44d; stroke-linecap:round; stroke-linejoin:round; stroke-width:4; stroke-opacity:0.5; fill:none" points="218.754,1438.48 270.55,1408.15 322.346,1291.37 374.142,892.118 425.938,132.524 477.734,1273.55 529.531,838.259 581.327,101.753 633.123,1391.23 684.919,1228.55 736.715,710.509 788.512,96.9304 840.308,1410.17 892.104,1298.99 943.9,915.753 995.696,151.408 1047.49,1204.09 1099.29,646.066 1151.08,130.887 1202.88,1279.67 1254.68,856.553 1306.47,110.293 1358.27,1358.01 1410.07,1110.14 1461.86,431.231 1513.66,420.367 1565.45,442.21 1617.25,398.997 1669.05,487.198 1720.84,318.83 1772.64,679.886 1824.43,110.023 1876.23,1359.05 1928.03,1113.75 1979.82,438.545 2031.62,406.053 2083.42,472.048 2135.21,344.499 2187.01,614.08 2238.8,156.803 2290.6,1184.63 "/>
<path clip-path="url(#clip430)" d="M229.803 1438.47 L760.043 1438.47 L760.043 1231.11 L229.803 1231.11  Z" fill="#ffffff" fill-rule="evenodd" fill-opacity="1"/>
<polyline clip-path="url(#clip430)" style="stroke:#000000; stroke-linecap:round; stroke-linejoin:round; stroke-width:4; stroke-opacity:1; fill:none" points="229.803,1438.47 760.043,1438.47 760.043,1231.11 229.803,1231.11 229.803,1438.47 "/>
<polyline clip-path="url(#clip430)" style="stroke:#009af9; stroke-linecap:round; stroke-linejoin:round; stroke-width:4; stroke-opacity:0.5; fill:none" points="254.205,1282.95 400.616,1282.95 "/>
<path clip-path="url(#clip430)" d="M425.018 1265.67 L444.879 1265.67 L444.879 1269.61 L429.693 1269.61 L429.693 1279.79 L443.397 1279.79 L443.397 1283.73 L429.693 1283.73 L429.693 1300.23 L425.018 1300.23 L425.018 1265.67 Z" fill="#000000" fill-rule="nonzero" fill-opacity="1" /><path clip-path="url(#clip430)" d="M452.101 1264.22 L456.36 1264.22 L456.36 1300.23 L452.101 1300.23 L452.101 1264.22 Z" fill="#000000" fill-rule="nonzero" fill-opacity="1" /><path clip-path="url(#clip430)" d="M475.318 1277.29 Q471.892 1277.29 469.902 1279.98 Q467.911 1282.64 467.911 1287.29 Q467.911 1291.95 469.878 1294.63 Q471.869 1297.29 475.318 1297.29 Q478.721 1297.29 480.712 1294.61 Q482.702 1291.92 482.702 1287.29 Q482.702 1282.69 480.712 1280 Q478.721 1277.29 475.318 1277.29 M475.318 1273.68 Q480.874 1273.68 484.045 1277.29 Q487.216 1280.91 487.216 1287.29 Q487.216 1293.66 484.045 1297.29 Q480.874 1300.91 475.318 1300.91 Q469.739 1300.91 466.568 1297.29 Q463.42 1293.66 463.42 1287.29 Q463.42 1280.91 466.568 1277.29 Q469.739 1273.68 475.318 1273.68 Z" fill="#000000" fill-rule="nonzero" fill-opacity="1" /><path clip-path="url(#clip430)" d="M506.059 1287.2 Q500.897 1287.2 498.906 1288.38 Q496.915 1289.56 496.915 1292.41 Q496.915 1294.68 498.397 1296.02 Q499.901 1297.34 502.471 1297.34 Q506.012 1297.34 508.142 1294.84 Q510.295 1292.32 510.295 1288.15 L510.295 1287.2 L506.059 1287.2 M514.554 1285.44 L514.554 1300.23 L510.295 1300.23 L510.295 1296.3 Q508.837 1298.66 506.661 1299.79 Q504.485 1300.91 501.337 1300.91 Q497.355 1300.91 494.994 1298.68 Q492.656 1296.44 492.656 1292.69 Q492.656 1288.31 495.573 1286.09 Q498.512 1283.87 504.323 1283.87 L510.295 1283.87 L510.295 1283.45 Q510.295 1280.51 508.35 1278.92 Q506.429 1277.29 502.934 1277.29 Q500.712 1277.29 498.605 1277.83 Q496.499 1278.36 494.554 1279.42 L494.554 1275.49 Q496.892 1274.59 499.091 1274.15 Q501.29 1273.68 503.374 1273.68 Q508.999 1273.68 511.776 1276.6 Q514.554 1279.52 514.554 1285.44 Z" fill="#000000" fill-rule="nonzero" fill-opacity="1" /><path clip-path="url(#clip430)" d="M527.54 1266.95 L527.54 1274.31 L536.313 1274.31 L536.313 1277.62 L527.54 1277.62 L527.54 1291.69 Q527.54 1294.86 528.397 1295.77 Q529.276 1296.67 531.938 1296.67 L536.313 1296.67 L536.313 1300.23 L531.938 1300.23 Q527.008 1300.23 525.133 1298.41 Q523.258 1296.55 523.258 1291.69 L523.258 1277.62 L520.133 1277.62 L520.133 1274.31 L523.258 1274.31 L523.258 1266.95 L527.54 1266.95 Z" fill="#000000" fill-rule="nonzero" fill-opacity="1" /><path clip-path="url(#clip430)" d="M553.096 1281.09 Q549.947 1281.09 548.096 1283.24 Q546.267 1285.4 546.267 1289.15 Q546.267 1292.87 548.096 1295.05 Q549.947 1297.2 553.096 1297.2 Q556.244 1297.2 558.072 1295.05 Q559.924 1292.87 559.924 1289.15 Q559.924 1285.4 558.072 1283.24 Q556.244 1281.09 553.096 1281.09 M562.378 1266.44 L562.378 1270.7 Q560.619 1269.86 558.813 1269.42 Q557.031 1268.98 555.271 1268.98 Q550.642 1268.98 548.188 1272.11 Q545.758 1275.23 545.41 1281.55 Q546.776 1279.54 548.836 1278.48 Q550.896 1277.39 553.373 1277.39 Q558.582 1277.39 561.591 1280.56 Q564.623 1283.71 564.623 1289.15 Q564.623 1294.47 561.475 1297.69 Q558.327 1300.91 553.096 1300.91 Q547.1 1300.91 543.929 1296.32 Q540.758 1291.72 540.758 1282.99 Q540.758 1274.79 544.646 1269.93 Q548.535 1265.05 555.086 1265.05 Q556.846 1265.05 558.628 1265.4 Q560.433 1265.74 562.378 1266.44 Z" fill="#000000" fill-rule="nonzero" fill-opacity="1" /><path clip-path="url(#clip430)" d="M585.526 1269.75 L573.72 1288.2 L585.526 1288.2 L585.526 1269.75 M584.299 1265.67 L590.179 1265.67 L590.179 1288.2 L595.109 1288.2 L595.109 1292.09 L590.179 1292.09 L590.179 1300.23 L585.526 1300.23 L585.526 1292.09 L569.924 1292.09 L569.924 1287.57 L584.299 1265.67 Z" fill="#000000" fill-rule="nonzero" fill-opacity="1" /><polyline clip-path="url(#clip430)" style="stroke:#e26f46; stroke-linecap:round; stroke-linejoin:round; stroke-width:4; stroke-opacity:0.5; fill:none" points="254.205,1334.79 400.616,1334.79 "/>
<path clip-path="url(#clip430)" d="M425.55 1317.51 L452.703 1317.51 L452.703 1321.08 L430.851 1348.14 L453.235 1348.14 L453.235 1352.07 L425.018 1352.07 L425.018 1348.51 L446.869 1321.45 L425.55 1321.45 L425.55 1317.51 Z" fill="#000000" fill-rule="nonzero" fill-opacity="1" /><path clip-path="url(#clip430)" d="M471.614 1339.04 Q466.452 1339.04 464.462 1340.22 Q462.471 1341.4 462.471 1344.25 Q462.471 1346.52 463.952 1347.86 Q465.457 1349.18 468.027 1349.18 Q471.568 1349.18 473.698 1346.68 Q475.851 1344.16 475.851 1339.99 L475.851 1339.04 L471.614 1339.04 M480.11 1337.28 L480.11 1352.07 L475.851 1352.07 L475.851 1348.14 Q474.392 1350.5 472.216 1351.63 Q470.04 1352.75 466.892 1352.75 Q462.911 1352.75 460.55 1350.52 Q458.212 1348.28 458.212 1344.53 Q458.212 1340.15 461.128 1337.93 Q464.068 1335.71 469.878 1335.71 L475.851 1335.71 L475.851 1335.29 Q475.851 1332.35 473.906 1330.76 Q471.985 1329.13 468.489 1329.13 Q466.267 1329.13 464.161 1329.67 Q462.054 1330.2 460.11 1331.26 L460.11 1327.33 Q462.448 1326.43 464.647 1325.99 Q466.846 1325.52 468.929 1325.52 Q474.554 1325.52 477.332 1328.44 Q480.11 1331.36 480.11 1337.28 Z" fill="#000000" fill-rule="nonzero" fill-opacity="1" /><path clip-path="url(#clip430)" d="M507.494 1339.13 Q507.494 1334.44 505.549 1331.77 Q503.628 1329.09 500.249 1329.09 Q496.869 1329.09 494.925 1331.77 Q493.003 1334.44 493.003 1339.13 Q493.003 1343.83 494.925 1346.52 Q496.869 1349.18 500.249 1349.18 Q503.628 1349.18 505.549 1346.52 Q507.494 1343.83 507.494 1339.13 M493.003 1330.08 Q494.346 1327.77 496.383 1326.66 Q498.443 1325.52 501.29 1325.52 Q506.012 1325.52 508.952 1329.27 Q511.915 1333.02 511.915 1339.13 Q511.915 1345.25 508.952 1349 Q506.012 1352.75 501.29 1352.75 Q498.443 1352.75 496.383 1351.63 Q494.346 1350.5 493.003 1348.19 L493.003 1352.07 L488.721 1352.07 L488.721 1316.06 L493.003 1316.06 L493.003 1330.08 Z" fill="#000000" fill-rule="nonzero" fill-opacity="1" /><path clip-path="url(#clip430)" d="M518.536 1341.84 L518.536 1326.15 L522.795 1326.15 L522.795 1341.68 Q522.795 1345.36 524.23 1347.21 Q525.665 1349.04 528.535 1349.04 Q531.985 1349.04 533.975 1346.84 Q535.989 1344.64 535.989 1340.85 L535.989 1326.15 L540.248 1326.15 L540.248 1352.07 L535.989 1352.07 L535.989 1348.09 Q534.438 1350.45 532.378 1351.61 Q530.341 1352.75 527.633 1352.75 Q523.165 1352.75 520.85 1349.97 Q518.536 1347.19 518.536 1341.84 M529.253 1325.52 L529.253 1325.52 Z" fill="#000000" fill-rule="nonzero" fill-opacity="1" /><path clip-path="url(#clip430)" d="M564.045 1330.13 Q563.327 1329.71 562.47 1329.53 Q561.637 1329.32 560.619 1329.32 Q557.008 1329.32 555.063 1331.68 Q553.142 1334.02 553.142 1338.42 L553.142 1352.07 L548.859 1352.07 L548.859 1326.15 L553.142 1326.15 L553.142 1330.18 Q554.484 1327.82 556.637 1326.68 Q558.79 1325.52 561.869 1325.52 Q562.308 1325.52 562.841 1325.59 Q563.373 1325.64 564.021 1325.76 L564.045 1330.13 Z" fill="#000000" fill-rule="nonzero" fill-opacity="1" /><path clip-path="url(#clip430)" d="M566.66 1326.15 L586.892 1326.15 L586.892 1330.04 L570.873 1348.67 L586.892 1348.67 L586.892 1352.07 L566.082 1352.07 L566.082 1348.19 L582.1 1329.55 L566.66 1329.55 L566.66 1326.15 Z" fill="#000000" fill-rule="nonzero" fill-opacity="1" /><path clip-path="url(#clip430)" d="M603.442 1329.13 Q600.017 1329.13 598.026 1331.82 Q596.035 1334.48 596.035 1339.13 Q596.035 1343.79 598.003 1346.47 Q599.993 1349.13 603.442 1349.13 Q606.845 1349.13 608.836 1346.45 Q610.827 1343.76 610.827 1339.13 Q610.827 1334.53 608.836 1331.84 Q606.845 1329.13 603.442 1329.13 M603.442 1325.52 Q608.998 1325.52 612.169 1329.13 Q615.341 1332.75 615.341 1339.13 Q615.341 1345.5 612.169 1349.13 Q608.998 1352.75 603.442 1352.75 Q597.864 1352.75 594.693 1349.13 Q591.544 1345.5 591.544 1339.13 Q591.544 1332.75 594.693 1329.13 Q597.864 1325.52 603.442 1325.52 Z" fill="#000000" fill-rule="nonzero" fill-opacity="1" /><path clip-path="url(#clip430)" d="M643.952 1336.43 L643.952 1352.07 L639.692 1352.07 L639.692 1336.57 Q639.692 1332.88 638.257 1331.06 Q636.822 1329.23 633.952 1329.23 Q630.503 1329.23 628.512 1331.43 Q626.521 1333.63 626.521 1337.42 L626.521 1352.07 L622.239 1352.07 L622.239 1326.15 L626.521 1326.15 L626.521 1330.18 Q628.049 1327.84 630.109 1326.68 Q632.192 1325.52 634.901 1325.52 Q639.368 1325.52 641.66 1328.3 Q643.952 1331.06 643.952 1336.43 Z" fill="#000000" fill-rule="nonzero" fill-opacity="1" /><path clip-path="url(#clip430)" d="M663.234 1354.48 Q661.428 1359.11 659.715 1360.52 Q658.002 1361.94 655.132 1361.94 L651.729 1361.94 L651.729 1358.37 L654.229 1358.37 Q655.988 1358.37 656.961 1357.54 Q657.933 1356.7 659.113 1353.6 L659.877 1351.66 L649.391 1326.15 L653.905 1326.15 L662.007 1346.43 L670.109 1326.15 L674.623 1326.15 L663.234 1354.48 Z" fill="#000000" fill-rule="nonzero" fill-opacity="1" /><polyline clip-path="url(#clip430)" style="stroke:#3da44d; stroke-linecap:round; stroke-linejoin:round; stroke-width:4; stroke-opacity:0.5; fill:none" points="254.205,1386.63 400.616,1386.63 "/>
<path clip-path="url(#clip430)" d="M429.693 1387.41 L429.693 1400.07 L437.193 1400.07 Q440.966 1400.07 442.772 1398.52 Q444.601 1396.95 444.601 1393.73 Q444.601 1390.49 442.772 1388.96 Q440.966 1387.41 437.193 1387.41 L429.693 1387.41 M429.693 1373.2 L429.693 1383.61 L436.615 1383.61 Q440.041 1383.61 441.707 1382.34 Q443.397 1381.04 443.397 1378.41 Q443.397 1375.79 441.707 1374.49 Q440.041 1373.2 436.615 1373.2 L429.693 1373.2 M425.018 1369.35 L436.962 1369.35 Q442.309 1369.35 445.203 1371.58 Q448.096 1373.8 448.096 1377.9 Q448.096 1381.07 446.615 1382.94 Q445.133 1384.82 442.263 1385.28 Q445.712 1386.02 447.61 1388.38 Q449.531 1390.72 449.531 1394.24 Q449.531 1398.87 446.383 1401.39 Q443.235 1403.91 437.425 1403.91 L425.018 1403.91 L425.018 1369.35 Z" fill="#000000" fill-rule="nonzero" fill-opacity="1" /><path clip-path="url(#clip430)" d="M479.531 1389.89 L479.531 1391.97 L459.948 1391.97 Q460.226 1396.37 462.587 1398.68 Q464.971 1400.97 469.207 1400.97 Q471.661 1400.97 473.952 1400.37 Q476.267 1399.77 478.536 1398.57 L478.536 1402.59 Q476.244 1403.57 473.837 1404.08 Q471.429 1404.59 468.952 1404.59 Q462.749 1404.59 459.115 1400.97 Q455.503 1397.36 455.503 1391.21 Q455.503 1384.84 458.929 1381.11 Q462.378 1377.36 468.212 1377.36 Q473.443 1377.36 476.476 1380.74 Q479.531 1384.1 479.531 1389.89 M475.272 1388.64 Q475.226 1385.14 473.304 1383.06 Q471.406 1380.97 468.258 1380.97 Q464.693 1380.97 462.54 1382.99 Q460.411 1385 460.087 1388.66 L475.272 1388.64 Z" fill="#000000" fill-rule="nonzero" fill-opacity="1" /><path clip-path="url(#clip430)" d="M484.67 1377.99 L504.901 1377.99 L504.901 1381.88 L488.883 1400.51 L504.901 1400.51 L504.901 1403.91 L484.091 1403.91 L484.091 1400.03 L500.11 1381.39 L484.67 1381.39 L484.67 1377.99 Z" fill="#000000" fill-rule="nonzero" fill-opacity="1" /><path clip-path="url(#clip430)" d="M524.623 1377.99 L544.855 1377.99 L544.855 1381.88 L528.836 1400.51 L544.855 1400.51 L544.855 1403.91 L524.045 1403.91 L524.045 1400.03 L540.063 1381.39 L524.623 1381.39 L524.623 1377.99 Z" fill="#000000" fill-rule="nonzero" fill-opacity="1" /><path clip-path="url(#clip430)" d="M563.142 1390.88 Q557.98 1390.88 555.989 1392.06 Q553.998 1393.24 553.998 1396.09 Q553.998 1398.36 555.48 1399.7 Q556.984 1401.02 559.554 1401.02 Q563.095 1401.02 565.225 1398.52 Q567.378 1396 567.378 1391.83 L567.378 1390.88 L563.142 1390.88 M571.637 1389.12 L571.637 1403.91 L567.378 1403.91 L567.378 1399.98 Q565.92 1402.34 563.744 1403.47 Q561.568 1404.59 558.42 1404.59 Q554.438 1404.59 552.077 1402.36 Q549.739 1400.12 549.739 1396.37 Q549.739 1391.99 552.656 1389.77 Q555.596 1387.55 561.406 1387.55 L567.378 1387.55 L567.378 1387.13 Q567.378 1384.19 565.433 1382.6 Q563.512 1380.97 560.017 1380.97 Q557.795 1380.97 555.688 1381.51 Q553.582 1382.04 551.637 1383.1 L551.637 1379.17 Q553.975 1378.27 556.174 1377.83 Q558.373 1377.36 560.457 1377.36 Q566.082 1377.36 568.859 1380.28 Q571.637 1383.2 571.637 1389.12 Z" fill="#000000" fill-rule="nonzero" fill-opacity="1" /><path clip-path="url(#clip430)" d="M599.021 1390.97 Q599.021 1386.28 597.077 1383.61 Q595.155 1380.93 591.776 1380.93 Q588.396 1380.93 586.452 1383.61 Q584.531 1386.28 584.531 1390.97 Q584.531 1395.67 586.452 1398.36 Q588.396 1401.02 591.776 1401.02 Q595.155 1401.02 597.077 1398.36 Q599.021 1395.67 599.021 1390.97 M584.531 1381.92 Q585.873 1379.61 587.91 1378.5 Q589.97 1377.36 592.818 1377.36 Q597.54 1377.36 600.48 1381.11 Q603.442 1384.86 603.442 1390.97 Q603.442 1397.09 600.48 1400.84 Q597.54 1404.59 592.818 1404.59 Q589.97 1404.59 587.91 1403.47 Q585.873 1402.34 584.531 1400.03 L584.531 1403.91 L580.248 1403.91 L580.248 1367.9 L584.531 1367.9 L584.531 1381.92 Z" fill="#000000" fill-rule="nonzero" fill-opacity="1" /><path clip-path="url(#clip430)" d="M610.063 1393.68 L610.063 1377.99 L614.322 1377.99 L614.322 1393.52 Q614.322 1397.2 615.757 1399.05 Q617.192 1400.88 620.063 1400.88 Q623.512 1400.88 625.503 1398.68 Q627.516 1396.48 627.516 1392.69 L627.516 1377.99 L631.776 1377.99 L631.776 1403.91 L627.516 1403.91 L627.516 1399.93 Q625.966 1402.29 623.905 1403.45 Q621.868 1404.59 619.16 1404.59 Q614.692 1404.59 612.378 1401.81 Q610.063 1399.03 610.063 1393.68 M620.78 1377.36 L620.78 1377.36 Z" fill="#000000" fill-rule="nonzero" fill-opacity="1" /><path clip-path="url(#clip430)" d="M655.572 1381.97 Q654.854 1381.55 653.998 1381.37 Q653.164 1381.16 652.146 1381.16 Q648.535 1381.16 646.59 1383.52 Q644.669 1385.86 644.669 1390.26 L644.669 1403.91 L640.387 1403.91 L640.387 1377.99 L644.669 1377.99 L644.669 1382.02 Q646.012 1379.66 648.164 1378.52 Q650.317 1377.36 653.396 1377.36 Q653.836 1377.36 654.368 1377.43 Q654.901 1377.48 655.549 1377.6 L655.572 1381.97 Z" fill="#000000" fill-rule="nonzero" fill-opacity="1" /><path clip-path="url(#clip430)" d="M658.188 1377.99 L678.419 1377.99 L678.419 1381.88 L662.4 1400.51 L678.419 1400.51 L678.419 1403.91 L657.609 1403.91 L657.609 1400.03 L673.627 1381.39 L658.188 1381.39 L658.188 1377.99 Z" fill="#000000" fill-rule="nonzero" fill-opacity="1" /><path clip-path="url(#clip430)" d="M707.099 1389.89 L707.099 1391.97 L687.516 1391.97 Q687.794 1396.37 690.155 1398.68 Q692.539 1400.97 696.775 1400.97 Q699.229 1400.97 701.521 1400.37 Q703.835 1399.77 706.104 1398.57 L706.104 1402.59 Q703.812 1403.57 701.405 1404.08 Q698.998 1404.59 696.521 1404.59 Q690.317 1404.59 686.683 1400.97 Q683.072 1397.36 683.072 1391.21 Q683.072 1384.84 686.498 1381.11 Q689.947 1377.36 695.78 1377.36 Q701.011 1377.36 704.044 1380.74 Q707.099 1384.1 707.099 1389.89 M702.84 1388.64 Q702.794 1385.14 700.873 1383.06 Q698.974 1380.97 695.826 1380.97 Q692.261 1380.97 690.109 1382.99 Q687.979 1385 687.655 1388.66 L702.84 1388.64 Z" fill="#000000" fill-rule="nonzero" fill-opacity="1" /><path clip-path="url(#clip430)" d="M726.22 1365.84 L730.826 1365.84 L723.28 1374.54 L719.738 1374.54 L726.22 1365.84 M735.641 1388.27 L735.641 1403.91 L731.382 1403.91 L731.382 1388.41 Q731.382 1384.72 729.946 1382.9 Q728.511 1381.07 725.641 1381.07 Q722.192 1381.07 720.201 1383.27 Q718.21 1385.47 718.21 1389.26 L718.21 1403.91 L713.928 1403.91 L713.928 1377.99 L718.21 1377.99 L718.21 1382.02 Q719.738 1379.68 721.798 1378.52 Q723.882 1377.36 726.59 1377.36 Q731.058 1377.36 733.349 1380.14 Q735.641 1382.9 735.641 1388.27 Z" fill="#000000" fill-rule="nonzero" fill-opacity="1" /></svg>
