<?xml version="1.0" encoding="utf-8"?>
<svg xmlns="http://www.w3.org/2000/svg" xmlns:xlink="http://www.w3.org/1999/xlink" width="600" height="400" viewBox="0 0 2400 1600">
<defs>
  <clipPath id="clip550">
    <rect x="0" y="0" width="2400" height="1600"/>
  </clipPath>
</defs>
<path clip-path="url(#clip550)" d="M0 1600 L2400 1600 L2400 0 L0 0  Z" fill="#ffffff" fill-rule="evenodd" fill-opacity="1"/>
<defs>
  <clipPath id="clip551">
    <rect x="480" y="0" width="1681" height="1600"/>
  </clipPath>
</defs>
<path clip-path="url(#clip550)" d="M186.274 1486.45 L2352.76 1486.45 L2352.76 47.2441 L186.274 47.2441  Z" fill="#ffffff" fill-rule="evenodd" fill-opacity="1"/>
<defs>
  <clipPath id="clip552">
    <rect x="186" y="47" width="2167" height="1440"/>
  </clipPath>
</defs>
<polyline clip-path="url(#clip552)" style="stroke:#000000; stroke-linecap:round; stroke-linejoin:round; stroke-width:2; stroke-opacity:0.1; fill:none" points="451.975,1486.45 451.975,47.2441 "/>
<polyline clip-path="url(#clip552)" style="stroke:#000000; stroke-linecap:round; stroke-linejoin:round; stroke-width:2; stroke-opacity:0.1; fill:none" points="860.745,1486.45 860.745,47.2441 "/>
<polyline clip-path="url(#clip552)" style="stroke:#000000; stroke-linecap:round; stroke-linejoin:round; stroke-width:2; stroke-opacity:0.1; fill:none" points="1269.51,1486.45 1269.51,47.2441 "/>
<polyline clip-path="url(#clip552)" style="stroke:#000000; stroke-linecap:round; stroke-linejoin:round; stroke-width:2; stroke-opacity:0.1; fill:none" points="1678.29,1486.45 1678.29,47.2441 "/>
<polyline clip-path="url(#clip552)" style="stroke:#000000; stroke-linecap:round; stroke-linejoin:round; stroke-width:2; stroke-opacity:0.1; fill:none" points="2087.06,1486.45 2087.06,47.2441 "/>
<polyline clip-path="url(#clip550)" style="stroke:#000000; stroke-linecap:round; stroke-linejoin:round; stroke-width:4; stroke-opacity:1; fill:none" points="186.274,1486.45 2352.76,1486.45 "/>
<polyline clip-path="url(#clip550)" style="stroke:#000000; stroke-linecap:round; stroke-linejoin:round; stroke-width:4; stroke-opacity:1; fill:none" points="451.975,1486.45 451.975,1467.55 "/>
<polyline clip-path="url(#clip550)" style="stroke:#000000; stroke-linecap:round; stroke-linejoin:round; stroke-width:4; stroke-opacity:1; fill:none" points="860.745,1486.45 860.745,1467.55 "/>
<polyline clip-path="url(#clip550)" style="stroke:#000000; stroke-linecap:round; stroke-linejoin:round; stroke-width:4; stroke-opacity:1; fill:none" points="1269.51,1486.45 1269.51,1467.55 "/>
<polyline clip-path="url(#clip550)" style="stroke:#000000; stroke-linecap:round; stroke-linejoin:round; stroke-width:4; stroke-opacity:1; fill:none" points="1678.29,1486.45 1678.29,1467.55 "/>
<polyline clip-path="url(#clip550)" style="stroke:#000000; stroke-linecap:round; stroke-linejoin:round; stroke-width:4; stroke-opacity:1; fill:none" points="2087.06,1486.45 2087.06,1467.55 "/>
<path clip-path="url(#clip550)" d="M420.875 1532.02 L450.551 1532.02 L450.551 1535.95 L420.875 1535.95 L420.875 1532.02 Z" fill="#000000" fill-rule="nonzero" fill-opacity="1" /><path clip-path="url(#clip550)" d="M473.491 1518.36 L461.685 1536.81 L473.491 1536.81 L473.491 1518.36 M472.264 1514.29 L478.143 1514.29 L478.143 1536.81 L483.074 1536.81 L483.074 1540.7 L478.143 1540.7 L478.143 1548.85 L473.491 1548.85 L473.491 1540.7 L457.889 1540.7 L457.889 1536.19 L472.264 1514.29 Z" fill="#000000" fill-rule="nonzero" fill-opacity="1" /><path clip-path="url(#clip550)" d="M830.687 1532.02 L860.363 1532.02 L860.363 1535.95 L830.687 1535.95 L830.687 1532.02 Z" fill="#000000" fill-rule="nonzero" fill-opacity="1" /><path clip-path="url(#clip550)" d="M874.483 1544.91 L890.802 1544.91 L890.802 1548.85 L868.858 1548.85 L868.858 1544.91 Q871.52 1542.16 876.103 1537.53 Q880.71 1532.88 881.891 1531.53 Q884.136 1529.01 885.015 1527.27 Q885.918 1525.51 885.918 1523.82 Q885.918 1521.07 883.974 1519.33 Q882.053 1517.6 878.951 1517.6 Q876.752 1517.6 874.298 1518.36 Q871.867 1519.13 869.09 1520.68 L869.09 1515.95 Q871.914 1514.82 874.367 1514.24 Q876.821 1513.66 878.858 1513.66 Q884.228 1513.66 887.423 1516.35 Q890.617 1519.03 890.617 1523.52 Q890.617 1525.65 889.807 1527.57 Q889.02 1529.47 886.914 1532.07 Q886.335 1532.74 883.233 1535.95 Q880.131 1539.15 874.483 1544.91 Z" fill="#000000" fill-rule="nonzero" fill-opacity="1" /><path clip-path="url(#clip550)" d="M1269.51 1517.37 Q1265.9 1517.37 1264.08 1520.93 Q1262.27 1524.47 1262.27 1531.6 Q1262.27 1538.71 1264.08 1542.27 Q1265.9 1545.82 1269.51 1545.82 Q1273.15 1545.82 1274.95 1542.27 Q1276.78 1538.71 1276.78 1531.6 Q1276.78 1524.47 1274.95 1520.93 Q1273.15 1517.37 1269.51 1517.37 M1269.51 1513.66 Q1275.33 1513.66 1278.38 1518.27 Q1281.46 1522.85 1281.46 1531.6 Q1281.46 1540.33 1278.38 1544.94 Q1275.33 1549.52 1269.51 1549.52 Q1263.7 1549.52 1260.63 1544.94 Q1257.57 1540.33 1257.57 1531.6 Q1257.57 1522.85 1260.63 1518.27 Q1263.7 1513.66 1269.51 1513.66 Z" fill="#000000" fill-rule="nonzero" fill-opacity="1" /><path clip-path="url(#clip550)" d="M1672.94 1544.91 L1689.26 1544.91 L1689.26 1548.85 L1667.31 1548.85 L1667.31 1544.91 Q1669.97 1542.16 1674.56 1537.53 Q1679.16 1532.88 1680.35 1531.53 Q1682.59 1529.01 1683.47 1527.27 Q1684.37 1525.51 1684.37 1523.82 Q1684.37 1521.07 1682.43 1519.33 Q1680.51 1517.6 1677.41 1517.6 Q1675.21 1517.6 1672.75 1518.36 Q1670.32 1519.13 1667.54 1520.68 L1667.54 1515.95 Q1670.37 1514.82 1672.82 1514.24 Q1675.28 1513.66 1677.31 1513.66 Q1682.68 1513.66 1685.88 1516.35 Q1689.07 1519.03 1689.07 1523.52 Q1689.07 1525.65 1688.26 1527.57 Q1687.47 1529.47 1685.37 1532.07 Q1684.79 1532.74 1681.69 1535.95 Q1678.59 1539.15 1672.94 1544.91 Z" fill="#000000" fill-rule="nonzero" fill-opacity="1" /><path clip-path="url(#clip550)" d="M2090.06 1518.36 L2078.26 1536.81 L2090.06 1536.81 L2090.06 1518.36 M2088.84 1514.29 L2094.72 1514.29 L2094.72 1536.81 L2099.65 1536.81 L2099.65 1540.7 L2094.72 1540.7 L2094.72 1548.85 L2090.06 1548.85 L2090.06 1540.7 L2074.46 1540.7 L2074.46 1536.19 L2088.84 1514.29 Z" fill="#000000" fill-rule="nonzero" fill-opacity="1" /><polyline clip-path="url(#clip552)" style="stroke:#000000; stroke-linecap:round; stroke-linejoin:round; stroke-width:2; stroke-opacity:0.1; fill:none" points="186.274,1373.95 2352.76,1373.95 "/>
<polyline clip-path="url(#clip552)" style="stroke:#000000; stroke-linecap:round; stroke-linejoin:round; stroke-width:2; stroke-opacity:0.1; fill:none" points="186.274,1052.26 2352.76,1052.26 "/>
<polyline clip-path="url(#clip552)" style="stroke:#000000; stroke-linecap:round; stroke-linejoin:round; stroke-width:2; stroke-opacity:0.1; fill:none" points="186.274,730.56 2352.76,730.56 "/>
<polyline clip-path="url(#clip552)" style="stroke:#000000; stroke-linecap:round; stroke-linejoin:round; stroke-width:2; stroke-opacity:0.1; fill:none" points="186.274,408.862 2352.76,408.862 "/>
<polyline clip-path="url(#clip552)" style="stroke:#000000; stroke-linecap:round; stroke-linejoin:round; stroke-width:2; stroke-opacity:0.1; fill:none" points="186.274,87.1644 2352.76,87.1644 "/>
<polyline clip-path="url(#clip550)" style="stroke:#000000; stroke-linecap:round; stroke-linejoin:round; stroke-width:4; stroke-opacity:1; fill:none" points="186.274,1486.45 186.274,47.2441 "/>
<polyline clip-path="url(#clip550)" style="stroke:#000000; stroke-linecap:round; stroke-linejoin:round; stroke-width:4; stroke-opacity:1; fill:none" points="186.274,1373.95 205.172,1373.95 "/>
<polyline clip-path="url(#clip550)" style="stroke:#000000; stroke-linecap:round; stroke-linejoin:round; stroke-width:4; stroke-opacity:1; fill:none" points="186.274,1052.26 205.172,1052.26 "/>
<polyline clip-path="url(#clip550)" style="stroke:#000000; stroke-linecap:round; stroke-linejoin:round; stroke-width:4; stroke-opacity:1; fill:none" points="186.274,730.56 205.172,730.56 "/>
<polyline clip-path="url(#clip550)" style="stroke:#000000; stroke-linecap:round; stroke-linejoin:round; stroke-width:4; stroke-opacity:1; fill:none" points="186.274,408.862 205.172,408.862 "/>
<polyline clip-path="url(#clip550)" style="stroke:#000000; stroke-linecap:round; stroke-linejoin:round; stroke-width:4; stroke-opacity:1; fill:none" points="186.274,87.1644 205.172,87.1644 "/>
<path clip-path="url(#clip550)" d="M62.9365 1359.75 Q59.3254 1359.75 57.4967 1363.32 Q55.6912 1366.86 55.6912 1373.99 Q55.6912 1381.1 57.4967 1384.66 Q59.3254 1388.2 62.9365 1388.2 Q66.5707 1388.2 68.3763 1384.66 Q70.205 1381.1 70.205 1373.99 Q70.205 1366.86 68.3763 1363.32 Q66.5707 1359.75 62.9365 1359.75 M62.9365 1356.05 Q68.7467 1356.05 71.8022 1360.66 Q74.8809 1365.24 74.8809 1373.99 Q74.8809 1382.72 71.8022 1387.32 Q68.7467 1391.91 62.9365 1391.91 Q57.1264 1391.91 54.0477 1387.32 Q50.9921 1382.72 50.9921 1373.99 Q50.9921 1365.24 54.0477 1360.66 Q57.1264 1356.05 62.9365 1356.05 Z" fill="#000000" fill-rule="nonzero" fill-opacity="1" /><path clip-path="url(#clip550)" d="M83.0984 1385.36 L87.9827 1385.36 L87.9827 1391.23 L83.0984 1391.23 L83.0984 1385.36 Z" fill="#000000" fill-rule="nonzero" fill-opacity="1" /><path clip-path="url(#clip550)" d="M108.168 1359.75 Q104.557 1359.75 102.728 1363.32 Q100.922 1366.86 100.922 1373.99 Q100.922 1381.1 102.728 1384.66 Q104.557 1388.2 108.168 1388.2 Q111.802 1388.2 113.608 1384.66 Q115.436 1381.1 115.436 1373.99 Q115.436 1366.86 113.608 1363.32 Q111.802 1359.75 108.168 1359.75 M108.168 1356.05 Q113.978 1356.05 117.033 1360.66 Q120.112 1365.24 120.112 1373.99 Q120.112 1382.72 117.033 1387.32 Q113.978 1391.91 108.168 1391.91 Q102.358 1391.91 99.2789 1387.32 Q96.2234 1382.72 96.2234 1373.99 Q96.2234 1365.24 99.2789 1360.66 Q102.358 1356.05 108.168 1356.05 Z" fill="#000000" fill-rule="nonzero" fill-opacity="1" /><path clip-path="url(#clip550)" d="M138.33 1359.75 Q134.719 1359.75 132.89 1363.32 Q131.084 1366.86 131.084 1373.99 Q131.084 1381.1 132.89 1384.66 Q134.719 1388.2 138.33 1388.2 Q141.964 1388.2 143.769 1384.66 Q145.598 1381.1 145.598 1373.99 Q145.598 1366.86 143.769 1363.32 Q141.964 1359.75 138.33 1359.75 M138.33 1356.05 Q144.14 1356.05 147.195 1360.66 Q150.274 1365.24 150.274 1373.99 Q150.274 1382.72 147.195 1387.32 Q144.14 1391.91 138.33 1391.91 Q132.519 1391.91 129.441 1387.32 Q126.385 1382.72 126.385 1373.99 Q126.385 1365.24 129.441 1360.66 Q132.519 1356.05 138.33 1356.05 Z" fill="#000000" fill-rule="nonzero" fill-opacity="1" /><path clip-path="url(#clip550)" d="M63.9319 1038.06 Q60.3208 1038.06 58.4921 1041.62 Q56.6865 1045.16 56.6865 1052.29 Q56.6865 1059.4 58.4921 1062.96 Q60.3208 1066.5 63.9319 1066.5 Q67.5661 1066.5 69.3717 1062.96 Q71.2004 1059.4 71.2004 1052.29 Q71.2004 1045.16 69.3717 1041.62 Q67.5661 1038.06 63.9319 1038.06 M63.9319 1034.35 Q69.742 1034.35 72.7976 1038.96 Q75.8763 1043.54 75.8763 1052.29 Q75.8763 1061.02 72.7976 1065.63 Q69.742 1070.21 63.9319 1070.21 Q58.1217 1070.21 55.043 1065.63 Q51.9875 1061.02 51.9875 1052.29 Q51.9875 1043.54 55.043 1038.96 Q58.1217 1034.35 63.9319 1034.35 Z" fill="#000000" fill-rule="nonzero" fill-opacity="1" /><path clip-path="url(#clip550)" d="M84.0938 1063.66 L88.978 1063.66 L88.978 1069.54 L84.0938 1069.54 L84.0938 1063.66 Z" fill="#000000" fill-rule="nonzero" fill-opacity="1" /><path clip-path="url(#clip550)" d="M103.191 1065.6 L119.51 1065.6 L119.51 1069.54 L97.566 1069.54 L97.566 1065.6 Q100.228 1062.85 104.811 1058.22 Q109.418 1053.56 110.598 1052.22 Q112.844 1049.7 113.723 1047.96 Q114.626 1046.2 114.626 1044.51 Q114.626 1041.76 112.682 1040.02 Q110.76 1038.29 107.658 1038.29 Q105.459 1038.29 103.006 1039.05 Q100.575 1039.82 97.7974 1041.37 L97.7974 1036.64 Q100.621 1035.51 103.075 1034.93 Q105.529 1034.35 107.566 1034.35 Q112.936 1034.35 116.131 1037.04 Q119.325 1039.72 119.325 1044.21 Q119.325 1046.34 118.515 1048.26 Q117.728 1050.16 115.621 1052.75 Q115.043 1053.43 111.941 1056.64 Q108.839 1059.84 103.191 1065.6 Z" fill="#000000" fill-rule="nonzero" fill-opacity="1" /><path clip-path="url(#clip550)" d="M129.371 1034.98 L147.728 1034.98 L147.728 1038.91 L133.654 1038.91 L133.654 1047.38 Q134.672 1047.04 135.691 1046.88 Q136.709 1046.69 137.728 1046.69 Q143.515 1046.69 146.894 1049.86 Q150.274 1053.03 150.274 1058.45 Q150.274 1064.03 146.802 1067.13 Q143.33 1070.21 137.01 1070.21 Q134.834 1070.21 132.566 1069.84 Q130.32 1069.47 127.913 1068.73 L127.913 1064.03 Q129.996 1065.16 132.219 1065.72 Q134.441 1066.27 136.918 1066.27 Q140.922 1066.27 143.26 1064.17 Q145.598 1062.06 145.598 1058.45 Q145.598 1054.84 143.26 1052.73 Q140.922 1050.63 136.918 1050.63 Q135.043 1050.63 133.168 1051.04 Q131.316 1051.46 129.371 1052.34 L129.371 1034.98 Z" fill="#000000" fill-rule="nonzero" fill-opacity="1" /><path clip-path="url(#clip550)" d="M62.9365 716.358 Q59.3254 716.358 57.4967 719.923 Q55.6912 723.465 55.6912 730.594 Q55.6912 737.701 57.4967 741.266 Q59.3254 744.807 62.9365 744.807 Q66.5707 744.807 68.3763 741.266 Q70.205 737.701 70.205 730.594 Q70.205 723.465 68.3763 719.923 Q66.5707 716.358 62.9365 716.358 M62.9365 712.655 Q68.7467 712.655 71.8022 717.261 Q74.8809 721.844 74.8809 730.594 Q74.8809 739.321 71.8022 743.928 Q68.7467 748.511 62.9365 748.511 Q57.1264 748.511 54.0477 743.928 Q50.9921 739.321 50.9921 730.594 Q50.9921 721.844 54.0477 717.261 Q57.1264 712.655 62.9365 712.655 Z" fill="#000000" fill-rule="nonzero" fill-opacity="1" /><path clip-path="url(#clip550)" d="M83.0984 741.96 L87.9827 741.96 L87.9827 747.84 L83.0984 747.84 L83.0984 741.96 Z" fill="#000000" fill-rule="nonzero" fill-opacity="1" /><path clip-path="url(#clip550)" d="M98.2141 713.28 L116.57 713.28 L116.57 717.215 L102.496 717.215 L102.496 725.687 Q103.515 725.34 104.534 725.178 Q105.552 724.992 106.571 724.992 Q112.358 724.992 115.737 728.164 Q119.117 731.335 119.117 736.752 Q119.117 742.33 115.645 745.432 Q112.172 748.511 105.853 748.511 Q103.677 748.511 101.409 748.14 Q99.1632 747.77 96.7558 747.029 L96.7558 742.33 Q98.8391 743.465 101.061 744.02 Q103.284 744.576 105.76 744.576 Q109.765 744.576 112.103 742.469 Q114.441 740.363 114.441 736.752 Q114.441 733.141 112.103 731.034 Q109.765 728.928 105.76 728.928 Q103.885 728.928 102.01 729.344 Q100.159 729.761 98.2141 730.641 L98.2141 713.28 Z" fill="#000000" fill-rule="nonzero" fill-opacity="1" /><path clip-path="url(#clip550)" d="M138.33 716.358 Q134.719 716.358 132.89 719.923 Q131.084 723.465 131.084 730.594 Q131.084 737.701 132.89 741.266 Q134.719 744.807 138.33 744.807 Q141.964 744.807 143.769 741.266 Q145.598 737.701 145.598 730.594 Q145.598 723.465 143.769 719.923 Q141.964 716.358 138.33 716.358 M138.33 712.655 Q144.14 712.655 147.195 717.261 Q150.274 721.844 150.274 730.594 Q150.274 739.321 147.195 743.928 Q144.14 748.511 138.33 748.511 Q132.519 748.511 129.441 743.928 Q126.385 739.321 126.385 730.594 Q126.385 721.844 129.441 717.261 Q132.519 712.655 138.33 712.655 Z" fill="#000000" fill-rule="nonzero" fill-opacity="1" /><path clip-path="url(#clip550)" d="M63.9319 394.661 Q60.3208 394.661 58.4921 398.225 Q56.6865 401.767 56.6865 408.897 Q56.6865 416.003 58.4921 419.568 Q60.3208 423.11 63.9319 423.11 Q67.5661 423.11 69.3717 419.568 Q71.2004 416.003 71.2004 408.897 Q71.2004 401.767 69.3717 398.225 Q67.5661 394.661 63.9319 394.661 M63.9319 390.957 Q69.742 390.957 72.7976 395.563 Q75.8763 400.147 75.8763 408.897 Q75.8763 417.624 72.7976 422.23 Q69.742 426.813 63.9319 426.813 Q58.1217 426.813 55.043 422.23 Q51.9875 417.624 51.9875 408.897 Q51.9875 400.147 55.043 395.563 Q58.1217 390.957 63.9319 390.957 Z" fill="#000000" fill-rule="nonzero" fill-opacity="1" /><path clip-path="url(#clip550)" d="M84.0938 420.262 L88.978 420.262 L88.978 426.142 L84.0938 426.142 L84.0938 420.262 Z" fill="#000000" fill-rule="nonzero" fill-opacity="1" /><path clip-path="url(#clip550)" d="M97.9826 391.582 L120.205 391.582 L120.205 393.573 L107.658 426.142 L102.774 426.142 L114.58 395.517 L97.9826 395.517 L97.9826 391.582 Z" fill="#000000" fill-rule="nonzero" fill-opacity="1" /><path clip-path="url(#clip550)" d="M129.371 391.582 L147.728 391.582 L147.728 395.517 L133.654 395.517 L133.654 403.989 Q134.672 403.642 135.691 403.48 Q136.709 403.295 137.728 403.295 Q143.515 403.295 146.894 406.466 Q150.274 409.637 150.274 415.054 Q150.274 420.633 146.802 423.735 Q143.33 426.813 137.01 426.813 Q134.834 426.813 132.566 426.443 Q130.32 426.073 127.913 425.332 L127.913 420.633 Q129.996 421.767 132.219 422.323 Q134.441 422.878 136.918 422.878 Q140.922 422.878 143.26 420.772 Q145.598 418.665 145.598 415.054 Q145.598 411.443 143.26 409.337 Q140.922 407.23 136.918 407.23 Q135.043 407.23 133.168 407.647 Q131.316 408.063 129.371 408.943 L129.371 391.582 Z" fill="#000000" fill-rule="nonzero" fill-opacity="1" /><path clip-path="url(#clip550)" d="M53.7467 100.509 L61.3856 100.509 L61.3856 74.1437 L53.0754 75.8103 L53.0754 71.5511 L61.3393 69.8844 L66.0152 69.8844 L66.0152 100.509 L73.654 100.509 L73.654 104.444 L53.7467 104.444 L53.7467 100.509 Z" fill="#000000" fill-rule="nonzero" fill-opacity="1" /><path clip-path="url(#clip550)" d="M83.0984 98.5648 L87.9827 98.5648 L87.9827 104.444 L83.0984 104.444 L83.0984 98.5648 Z" fill="#000000" fill-rule="nonzero" fill-opacity="1" /><path clip-path="url(#clip550)" d="M108.168 72.9631 Q104.557 72.9631 102.728 76.5279 Q100.922 80.0696 100.922 87.1992 Q100.922 94.3056 102.728 97.8704 Q104.557 101.412 108.168 101.412 Q111.802 101.412 113.608 97.8704 Q115.436 94.3056 115.436 87.1992 Q115.436 80.0696 113.608 76.5279 Q111.802 72.9631 108.168 72.9631 M108.168 69.2594 Q113.978 69.2594 117.033 73.8659 Q120.112 78.4492 120.112 87.1992 Q120.112 95.926 117.033 100.532 Q113.978 105.116 108.168 105.116 Q102.358 105.116 99.2789 100.532 Q96.2234 95.926 96.2234 87.1992 Q96.2234 78.4492 99.2789 73.8659 Q102.358 69.2594 108.168 69.2594 Z" fill="#000000" fill-rule="nonzero" fill-opacity="1" /><path clip-path="url(#clip550)" d="M138.33 72.9631 Q134.719 72.9631 132.89 76.5279 Q131.084 80.0696 131.084 87.1992 Q131.084 94.3056 132.89 97.8704 Q134.719 101.412 138.33 101.412 Q141.964 101.412 143.769 97.8704 Q145.598 94.3056 145.598 87.1992 Q145.598 80.0696 143.769 76.5279 Q141.964 72.9631 138.33 72.9631 M138.33 69.2594 Q144.14 69.2594 147.195 73.8659 Q150.274 78.4492 150.274 87.1992 Q150.274 95.926 147.195 100.532 Q144.14 105.116 138.33 105.116 Q132.519 105.116 129.441 100.532 Q126.385 95.926 126.385 87.1992 Q126.385 78.4492 129.441 73.8659 Q132.519 69.2594 138.33 69.2594 Z" fill="#000000" fill-rule="nonzero" fill-opacity="1" /><polyline clip-path="url(#clip552)" style="stroke:#009af9; stroke-linecap:round; stroke-linejoin:round; stroke-width:4; stroke-opacity:1; fill:none" points="247.59,1324.46 257.86,1323.49 268.131,1322.49 278.401,1321.47 288.672,1320.41 298.943,1319.32 309.213,1318.19 319.484,1317.03 329.754,1315.84 340.025,1314.61 350.296,1313.34 360.566,1312.02 370.837,1310.67 381.107,1309.27 391.378,1307.83 401.649,1306.34 411.919,1304.8 422.19,1303.2 432.46,1301.55 442.731,1299.85 453.002,1298.08 463.272,1296.25 473.543,1294.36 483.813,1292.4 494.084,1290.37 504.355,1288.26 514.625,1286.07 524.896,1283.8 535.167,1281.44 545.437,1278.99 555.708,1276.45 565.978,1273.81 576.249,1271.06 586.52,1268.19 596.79,1265.22 607.061,1262.11 617.331,1258.88 627.602,1255.51 637.873,1251.99 648.143,1248.33 658.414,1244.5 668.684,1240.5 678.955,1236.31 689.226,1231.94 699.496,1227.37 709.767,1222.58 720.037,1217.56 730.308,1212.3 740.579,1206.78 750.849,1201 761.12,1194.92 771.39,1188.53 781.661,1181.82 791.932,1174.76 802.202,1167.33 812.473,1159.51 822.744,1151.26 833.014,1142.56 843.285,1133.39 853.555,1123.7 863.826,1113.47 874.097,1102.65 884.367,1091.21 894.638,1079.1 904.908,1066.28 915.179,1052.71 925.45,1038.32 935.72,1023.07 945.991,1006.89 956.261,989.73 966.532,971.524 976.803,952.206 987.073,931.709 997.344,909.965 1007.61,886.904 1017.89,862.46 1028.16,836.569 1038.43,809.171 1048.7,780.216 1058.97,749.666 1069.24,717.497 1079.51,683.708 1089.78,648.323 1100.05,611.404 1110.32,573.053 1120.59,533.421 1130.86,492.722 1141.13,451.234 1151.4,409.313 1161.67,367.393 1171.94,325.993 1182.21,285.709 1192.49,247.209 1202.76,211.216 1213.03,178.483 1223.3,149.764 1233.57,125.775 1243.84,107.158 1254.11,94.4343 1264.38,87.9763 1274.65,87.9763 1284.92,94.4343 1295.19,107.158 1305.46,125.775 1315.73,149.764 1326,178.483 1336.27,211.216 1346.54,247.209 1356.82,285.709 1367.09,325.993 1377.36,367.393 1387.63,409.313 1397.9,451.234 1408.17,492.722 1418.44,533.421 1428.71,573.053 1438.98,611.404 1449.25,648.323 1459.52,683.708 1469.79,717.497 1480.06,749.666 1490.33,780.216 1500.6,809.171 1510.87,836.569 1521.14,862.46 1531.42,886.904 1541.69,909.965 1551.96,931.709 1562.23,952.206 1572.5,971.524 1582.77,989.73 1593.04,1006.89 1603.31,1023.07 1613.58,1038.32 1623.85,1052.71 1634.12,1066.28 1644.39,1079.1 1654.66,1091.21 1664.93,1102.65 1675.2,1113.47 1685.47,1123.7 1695.75,1133.39 1706.02,1142.56 1716.29,1151.26 1726.56,1159.51 1736.83,1167.33 1747.1,1174.76 1757.37,1181.82 1767.64,1188.53 1777.91,1194.92 1788.18,1201 1798.45,1206.78 1808.72,1212.3 1818.99,1217.56 1829.26,1222.58 1839.53,1227.37 1849.8,1231.94 1860.07,1236.31 1870.35,1240.5 1880.62,1244.5 1890.89,1248.33 1901.16,1251.99 1911.43,1255.51 1921.7,1258.88 1931.97,1262.11 1942.24,1265.22 1952.51,1268.19 1962.78,1271.06 1973.05,1273.81 1983.32,1276.45 1993.59,1278.99 2003.86,1281.44 2014.13,1283.8 2024.4,1286.07 2034.68,1288.26 2044.95,1290.37 2055.22,1292.4 2065.49,1294.36 2075.76,1296.25 2086.03,1298.08 2096.3,1299.85 2106.57,1301.55 2116.84,1303.2 2127.11,1304.8 2137.38,1306.34 2147.65,1307.83 2157.92,1309.27 2168.19,1310.67 2178.46,1312.02 2188.73,1313.34 2199,1314.61 2209.28,1315.84 2219.55,1317.03 2229.82,1318.19 2240.09,1319.32 2250.36,1320.41 2260.63,1321.47 2270.9,1322.49 2281.17,1323.49 2291.44,1324.46 "/>
<polyline clip-path="url(#clip552)" style="stroke:#e26f46; stroke-linecap:round; stroke-linejoin:round; stroke-width:4; stroke-opacity:1; fill:none" points="247.59,1324.46 257.86,1341.17 268.131,1356.48 278.401,1370.45 288.672,1383.1 298.943,1394.47 309.213,1404.61 319.484,1413.54 329.754,1421.3 340.025,1427.92 350.296,1433.44 360.566,1437.9 370.837,1441.32 381.107,1443.74 391.378,1445.19 401.649,1445.72 411.919,1445.33 422.19,1444.08 432.46,1441.99 442.731,1439.09 453.002,1435.42 463.272,1431 473.543,1425.86 483.813,1420.03 494.084,1413.54 504.355,1406.43 514.625,1398.71 524.896,1390.42 535.167,1381.59 545.437,1372.24 555.708,1362.39 565.978,1352.09 576.249,1341.34 586.52,1330.18 596.79,1318.63 607.061,1306.72 617.331,1294.48 627.602,1281.91 637.873,1269.06 648.143,1255.95 658.414,1242.59 668.684,1229 678.955,1215.23 689.226,1201.27 699.496,1187.16 709.767,1172.92 720.037,1158.56 730.308,1144.11 740.579,1129.59 750.849,1115.02 761.12,1100.42 771.39,1085.8 781.661,1071.18 791.932,1056.59 802.202,1042.04 812.473,1027.54 822.744,1013.12 833.014,998.797 843.285,984.578 853.555,970.482 863.826,956.526 874.097,942.724 884.367,929.091 894.638,915.642 904.908,902.39 915.179,889.35 925.45,876.534 935.72,863.956 945.991,851.627 956.261,839.561 966.532,827.768 976.803,816.26 987.073,805.048 997.344,794.143 1007.61,783.555 1017.89,773.294 1028.16,763.369 1038.43,753.789 1048.7,744.564 1058.97,735.7 1069.24,727.207 1079.51,719.092 1089.78,711.362 1100.05,704.024 1110.32,697.084 1120.59,690.548 1130.86,684.423 1141.13,678.713 1151.4,673.423 1161.67,668.558 1171.94,664.123 1182.21,660.12 1192.49,656.553 1202.76,653.425 1213.03,650.739 1223.3,648.498 1233.57,646.702 1243.84,645.354 1254.11,644.455 1264.38,644.005 1274.65,644.005 1284.92,644.455 1295.19,645.354 1305.46,646.702 1315.73,648.498 1326,650.739 1336.27,653.425 1346.54,656.553 1356.82,660.12 1367.09,664.123 1377.36,668.558 1387.63,673.423 1397.9,678.713 1408.17,684.423 1418.44,690.548 1428.71,697.084 1438.98,704.024 1449.25,711.362 1459.52,719.092 1469.79,727.207 1480.06,735.7 1490.33,744.564 1500.6,753.789 1510.87,763.369 1521.14,773.294 1531.42,783.555 1541.69,794.143 1551.96,805.048 1562.23,816.26 1572.5,827.768 1582.77,839.561 1593.04,851.627 1603.31,863.956 1613.58,876.534 1623.85,889.35 1634.12,902.39 1644.39,915.642 1654.66,929.091 1664.93,942.724 1675.2,956.526 1685.47,970.482 1695.75,984.578 1706.02,998.797 1716.29,1013.12 1726.56,1027.54 1736.83,1042.04 1747.1,1056.59 1757.37,1071.18 1767.64,1085.8 1777.91,1100.42 1788.18,1115.02 1798.45,1129.59 1808.72,1144.11 1818.99,1158.56 1829.26,1172.92 1839.53,1187.16 1849.8,1201.27 1860.07,1215.23 1870.35,1229 1880.62,1242.59 1890.89,1255.95 1901.16,1269.06 1911.43,1281.91 1921.7,1294.48 1931.97,1306.72 1942.24,1318.63 1952.51,1330.18 1962.78,1341.34 1973.05,1352.09 1983.32,1362.39 1993.59,1372.24 2003.86,1381.59 2014.13,1390.42 2024.4,1398.71 2034.68,1406.43 2044.95,1413.54 2055.22,1420.03 2065.49,1425.86 2075.76,1431 2086.03,1435.42 2096.3,1439.09 2106.57,1441.99 2116.84,1444.08 2127.11,1445.33 2137.38,1445.72 2147.65,1445.19 2157.92,1443.74 2168.19,1441.32 2178.46,1437.9 2188.73,1433.44 2199,1427.92 2209.28,1421.3 2219.55,1413.54 2229.82,1404.61 2240.09,1394.47 2250.36,1383.1 2260.63,1370.45 2270.9,1356.48 2281.17,1341.17 2291.44,1324.46 "/>
<path clip-path="url(#clip550)" d="M1791.97 250.738 L2280.54 250.738 L2280.54 95.2176 L1791.97 95.2176  Z" fill="#ffffff" fill-rule="evenodd" fill-opacity="1"/>
<polyline clip-path="url(#clip550)" style="stroke:#000000; stroke-linecap:round; stroke-linejoin:round; stroke-width:4; stroke-opacity:1; fill:none" points="1791.97,250.738 2280.54,250.738 2280.54,95.2176 1791.97,95.2176 1791.97,250.738 "/>
<polyline clip-path="url(#clip550)" style="stroke:#009af9; stroke-linecap:round; stroke-linejoin:round; stroke-width:4; stroke-opacity:1; fill:none" points="1816.04,147.058 1960.48,147.058 "/>
<path clip-path="url(#clip550)" d="M1984.55 129.778 L2004.41 129.778 L2004.41 133.713 L1989.22 133.713 L1989.22 143.898 L2002.93 143.898 L2002.93 147.833 L1989.22 147.833 L1989.22 164.338 L1984.55 164.338 L1984.55 129.778 Z" fill="#000000" fill-rule="nonzero" fill-opacity="1" /><path clip-path="url(#clip550)" d="M2008.6 154.106 L2008.6 138.412 L2012.86 138.412 L2012.86 153.944 Q2012.86 157.625 2014.29 159.476 Q2015.73 161.305 2018.6 161.305 Q2022.05 161.305 2024.04 159.106 Q2026.05 156.907 2026.05 153.111 L2026.05 138.412 L2030.31 138.412 L2030.31 164.338 L2026.05 164.338 L2026.05 160.356 Q2024.5 162.717 2022.44 163.875 Q2020.4 165.009 2017.7 165.009 Q2013.23 165.009 2010.91 162.231 Q2008.6 159.453 2008.6 154.106 M2019.32 137.787 L2019.32 137.787 Z" fill="#000000" fill-rule="nonzero" fill-opacity="1" /><path clip-path="url(#clip550)" d="M2060.64 148.689 L2060.64 164.338 L2056.38 164.338 L2056.38 148.828 Q2056.38 145.148 2054.94 143.319 Q2053.51 141.49 2050.64 141.49 Q2047.19 141.49 2045.2 143.69 Q2043.21 145.889 2043.21 149.685 L2043.21 164.338 L2038.92 164.338 L2038.92 138.412 L2043.21 138.412 L2043.21 142.44 Q2044.73 140.102 2046.79 138.944 Q2048.88 137.787 2051.58 137.787 Q2056.05 137.787 2058.34 140.565 Q2060.64 143.319 2060.64 148.689 Z" fill="#000000" fill-rule="nonzero" fill-opacity="1" /><path clip-path="url(#clip550)" d="M2068.97 128.319 L2073.25 128.319 L2073.25 149.592 L2085.96 138.412 L2091.4 138.412 L2077.65 150.541 L2091.98 164.338 L2086.42 164.338 L2073.25 151.676 L2073.25 164.338 L2068.97 164.338 L2068.97 128.319 Z" fill="#000000" fill-rule="nonzero" fill-opacity="1" /><path clip-path="url(#clip550)" d="M2115.24 139.407 L2115.24 143.389 Q2113.44 142.393 2111.61 141.907 Q2109.8 141.398 2107.95 141.398 Q2103.81 141.398 2101.51 144.037 Q2099.22 146.652 2099.22 151.398 Q2099.22 156.143 2101.51 158.782 Q2103.81 161.398 2107.95 161.398 Q2109.8 161.398 2111.61 160.912 Q2113.44 160.402 2115.24 159.407 L2115.24 163.342 Q2113.46 164.176 2111.54 164.592 Q2109.64 165.009 2107.49 165.009 Q2101.63 165.009 2098.18 161.328 Q2094.73 157.648 2094.73 151.398 Q2094.73 145.055 2098.2 141.421 Q2101.7 137.787 2107.76 137.787 Q2109.73 137.787 2111.61 138.203 Q2113.48 138.597 2115.24 139.407 Z" fill="#000000" fill-rule="nonzero" fill-opacity="1" /><path clip-path="url(#clip550)" d="M2122.65 138.412 L2126.91 138.412 L2126.91 164.801 Q2126.91 169.754 2125.01 171.976 Q2123.14 174.199 2118.95 174.199 L2117.33 174.199 L2117.33 170.588 L2118.46 170.588 Q2120.89 170.588 2121.77 169.453 Q2122.65 168.342 2122.65 164.801 L2122.65 138.412 M2122.65 128.319 L2126.91 128.319 L2126.91 133.713 L2122.65 133.713 L2122.65 128.319 Z" fill="#000000" fill-rule="nonzero" fill-opacity="1" /><path clip-path="url(#clip550)" d="M2147.6 151.305 Q2142.44 151.305 2140.45 152.486 Q2138.46 153.666 2138.46 156.514 Q2138.46 158.782 2139.94 160.125 Q2141.45 161.444 2144.01 161.444 Q2147.56 161.444 2149.69 158.944 Q2151.84 156.421 2151.84 152.254 L2151.84 151.305 L2147.6 151.305 M2156.1 149.546 L2156.1 164.338 L2151.84 164.338 L2151.84 160.402 Q2150.38 162.763 2148.2 163.898 Q2146.03 165.009 2142.88 165.009 Q2138.9 165.009 2136.54 162.787 Q2134.2 160.541 2134.2 156.791 Q2134.2 152.416 2137.12 150.194 Q2140.06 147.972 2145.87 147.972 L2151.84 147.972 L2151.84 147.555 Q2151.84 144.615 2149.89 143.018 Q2147.97 141.398 2144.48 141.398 Q2142.26 141.398 2140.15 141.93 Q2138.04 142.463 2136.1 143.527 L2136.1 139.592 Q2138.44 138.69 2140.64 138.25 Q2142.83 137.787 2144.92 137.787 Q2150.54 137.787 2153.32 140.703 Q2156.1 143.62 2156.1 149.546 Z" fill="#000000" fill-rule="nonzero" fill-opacity="1" /><polyline clip-path="url(#clip550)" style="stroke:#e26f46; stroke-linecap:round; stroke-linejoin:round; stroke-width:4; stroke-opacity:1; fill:none" points="1816.04,198.898 1960.48,198.898 "/>
<path clip-path="url(#clip550)" d="M1984.55 181.618 L1989.22 181.618 L1989.22 216.178 L1984.55 216.178 L1984.55 181.618 Z" fill="#000000" fill-rule="nonzero" fill-opacity="1" /><path clip-path="url(#clip550)" d="M2019.9 200.529 L2019.9 216.178 L2015.64 216.178 L2015.64 200.668 Q2015.64 196.988 2014.2 195.159 Q2012.77 193.33 2009.9 193.33 Q2006.45 193.33 2004.46 195.53 Q2002.46 197.729 2002.46 201.525 L2002.46 216.178 L1998.18 216.178 L1998.18 190.252 L2002.46 190.252 L2002.46 194.28 Q2003.99 191.942 2006.05 190.784 Q2008.14 189.627 2010.84 189.627 Q2015.31 189.627 2017.6 192.405 Q2019.9 195.159 2019.9 200.529 Z" fill="#000000" fill-rule="nonzero" fill-opacity="1" /><path clip-path="url(#clip550)" d="M2032.6 182.891 L2032.6 190.252 L2041.38 190.252 L2041.38 193.562 L2032.6 193.562 L2032.6 207.636 Q2032.6 210.807 2033.46 211.71 Q2034.34 212.613 2037 212.613 L2041.38 212.613 L2041.38 216.178 L2037 216.178 Q2032.07 216.178 2030.2 214.349 Q2028.32 212.497 2028.32 207.636 L2028.32 193.562 L2025.2 193.562 L2025.2 190.252 L2028.32 190.252 L2028.32 182.891 L2032.6 182.891 Z" fill="#000000" fill-rule="nonzero" fill-opacity="1" /><path clip-path="url(#clip550)" d="M2069.15 202.15 L2069.15 204.233 L2049.57 204.233 Q2049.85 208.631 2052.21 210.946 Q2054.59 213.238 2058.83 213.238 Q2061.28 213.238 2063.58 212.636 Q2065.89 212.034 2068.16 210.83 L2068.16 214.858 Q2065.87 215.83 2063.46 216.34 Q2061.05 216.849 2058.58 216.849 Q2052.37 216.849 2048.74 213.238 Q2045.13 209.627 2045.13 203.469 Q2045.13 197.104 2048.55 193.377 Q2052 189.627 2057.83 189.627 Q2063.07 189.627 2066.1 193.006 Q2069.15 196.363 2069.15 202.15 M2064.89 200.9 Q2064.85 197.405 2062.93 195.321 Q2061.03 193.238 2057.88 193.238 Q2054.32 193.238 2052.16 195.252 Q2050.03 197.266 2049.71 200.923 L2064.89 200.9 Z" fill="#000000" fill-rule="nonzero" fill-opacity="1" /><path clip-path="url(#clip550)" d="M2091.17 194.233 Q2090.45 193.817 2089.59 193.631 Q2088.76 193.423 2087.74 193.423 Q2084.13 193.423 2082.19 195.784 Q2080.27 198.122 2080.27 202.52 L2080.27 216.178 L2075.98 216.178 L2075.98 190.252 L2080.27 190.252 L2080.27 194.28 Q2081.61 191.918 2083.76 190.784 Q2085.91 189.627 2088.99 189.627 Q2089.43 189.627 2089.96 189.696 Q2090.5 189.743 2091.14 189.858 L2091.17 194.233 Z" fill="#000000" fill-rule="nonzero" fill-opacity="1" /><path clip-path="url(#clip550)" d="M2099.76 212.289 L2099.76 226.039 L2095.47 226.039 L2095.47 190.252 L2099.76 190.252 L2099.76 194.187 Q2101.1 191.872 2103.14 190.761 Q2105.2 189.627 2108.04 189.627 Q2112.76 189.627 2115.7 193.377 Q2118.67 197.127 2118.67 203.238 Q2118.67 209.349 2115.7 213.099 Q2112.76 216.849 2108.04 216.849 Q2105.2 216.849 2103.14 215.738 Q2101.1 214.603 2099.76 212.289 M2114.25 203.238 Q2114.25 198.539 2112.3 195.877 Q2110.38 193.192 2107 193.192 Q2103.62 193.192 2101.68 195.877 Q2099.76 198.539 2099.76 203.238 Q2099.76 207.937 2101.68 210.622 Q2103.62 213.284 2107 213.284 Q2110.38 213.284 2112.3 210.622 Q2114.25 207.937 2114.25 203.238 Z" fill="#000000" fill-rule="nonzero" fill-opacity="1" /><path clip-path="url(#clip550)" d="M2135.77 193.238 Q2132.35 193.238 2130.36 195.923 Q2128.37 198.585 2128.37 203.238 Q2128.37 207.891 2130.33 210.576 Q2132.32 213.238 2135.77 213.238 Q2139.18 213.238 2141.17 210.553 Q2143.16 207.867 2143.16 203.238 Q2143.16 198.631 2141.17 195.946 Q2139.18 193.238 2135.77 193.238 M2135.77 189.627 Q2141.33 189.627 2144.5 193.238 Q2147.67 196.849 2147.67 203.238 Q2147.67 209.604 2144.5 213.238 Q2141.33 216.849 2135.77 216.849 Q2130.2 216.849 2127.02 213.238 Q2123.88 209.604 2123.88 203.238 Q2123.88 196.849 2127.02 193.238 Q2130.2 189.627 2135.77 189.627 Z" fill="#000000" fill-rule="nonzero" fill-opacity="1" /><path clip-path="url(#clip550)" d="M2154.73 180.159 L2158.99 180.159 L2158.99 216.178 L2154.73 216.178 L2154.73 180.159 Z" fill="#000000" fill-rule="nonzero" fill-opacity="1" /><path clip-path="url(#clip550)" d="M2179.69 203.145 Q2174.52 203.145 2172.53 204.326 Q2170.54 205.506 2170.54 208.354 Q2170.54 210.622 2172.02 211.965 Q2173.53 213.284 2176.1 213.284 Q2179.64 213.284 2181.77 210.784 Q2183.92 208.261 2183.92 204.094 L2183.92 203.145 L2179.69 203.145 M2188.18 201.386 L2188.18 216.178 L2183.92 216.178 L2183.92 212.242 Q2182.46 214.603 2180.29 215.738 Q2178.11 216.849 2174.96 216.849 Q2170.98 216.849 2168.62 214.627 Q2166.28 212.381 2166.28 208.631 Q2166.28 204.256 2169.2 202.034 Q2172.14 199.812 2177.95 199.812 L2183.92 199.812 L2183.92 199.395 Q2183.92 196.455 2181.98 194.858 Q2180.06 193.238 2176.56 193.238 Q2174.34 193.238 2172.23 193.77 Q2170.13 194.303 2168.18 195.367 L2168.18 191.432 Q2170.52 190.53 2172.72 190.09 Q2174.92 189.627 2177 189.627 Q2182.63 189.627 2185.4 192.543 Q2188.18 195.46 2188.18 201.386 Z" fill="#000000" fill-rule="nonzero" fill-opacity="1" /><path clip-path="url(#clip550)" d="M2215.61 191.247 L2215.61 195.229 Q2213.81 194.233 2211.98 193.747 Q2210.17 193.238 2208.32 193.238 Q2204.18 193.238 2201.88 195.877 Q2199.59 198.492 2199.59 203.238 Q2199.59 207.983 2201.88 210.622 Q2204.18 213.238 2208.32 213.238 Q2210.17 213.238 2211.98 212.752 Q2213.81 212.242 2215.61 211.247 L2215.61 215.182 Q2213.83 216.016 2211.91 216.432 Q2210.01 216.849 2207.86 216.849 Q2202 216.849 2198.55 213.168 Q2195.1 209.488 2195.1 203.238 Q2195.1 196.895 2198.57 193.261 Q2202.07 189.627 2208.13 189.627 Q2210.1 189.627 2211.98 190.043 Q2213.85 190.437 2215.61 191.247 Z" fill="#000000" fill-rule="nonzero" fill-opacity="1" /><path clip-path="url(#clip550)" d="M2223.02 190.252 L2227.28 190.252 L2227.28 216.641 Q2227.28 221.594 2225.38 223.816 Q2223.51 226.039 2219.32 226.039 L2217.69 226.039 L2217.69 222.428 L2218.83 222.428 Q2221.26 222.428 2222.14 221.293 Q2223.02 220.182 2223.02 216.641 L2223.02 190.252 M2223.02 180.159 L2227.28 180.159 L2227.28 185.553 L2223.02 185.553 L2223.02 180.159 Z" fill="#000000" fill-rule="nonzero" fill-opacity="1" /><path clip-path="url(#clip550)" d="M2247.97 203.145 Q2242.81 203.145 2240.82 204.326 Q2238.83 205.506 2238.83 208.354 Q2238.83 210.622 2240.31 211.965 Q2241.82 213.284 2244.38 213.284 Q2247.93 213.284 2250.06 210.784 Q2252.21 208.261 2252.21 204.094 L2252.21 203.145 L2247.97 203.145 M2256.47 201.386 L2256.47 216.178 L2252.21 216.178 L2252.21 212.242 Q2250.75 214.603 2248.57 215.738 Q2246.4 216.849 2243.25 216.849 Q2239.27 216.849 2236.91 214.627 Q2234.57 212.381 2234.57 208.631 Q2234.57 204.256 2237.49 202.034 Q2240.43 199.812 2246.24 199.812 L2252.21 199.812 L2252.21 199.395 Q2252.21 196.455 2250.26 194.858 Q2248.34 193.238 2244.85 193.238 Q2242.63 193.238 2240.52 193.77 Q2238.41 194.303 2236.47 195.367 L2236.47 191.432 Q2238.81 190.53 2241 190.09 Q2243.2 189.627 2245.29 189.627 Q2250.91 189.627 2253.69 192.543 Q2256.47 195.46 2256.47 201.386 Z" fill="#000000" fill-rule="nonzero" fill-opacity="1" /></svg>
