<?xml version="1.0" encoding="utf-8"?>
<svg xmlns="http://www.w3.org/2000/svg" xmlns:xlink="http://www.w3.org/1999/xlink" width="600" height="400" viewBox="0 0 2400 1600">
<defs>
  <clipPath id="clip200">
    <rect x="0" y="0" width="2400" height="1600"/>
  </clipPath>
</defs>
<path clip-path="url(#clip200)" d="M0 1600 L2400 1600 L2400 0 L0 0  Z" fill="#ffffff" fill-rule="evenodd" fill-opacity="1"/>
<defs>
  <clipPath id="clip201">
    <rect x="480" y="0" width="1681" height="1600"/>
  </clipPath>
</defs>
<path clip-path="url(#clip200)" d="M192.339 1486.45 L2352.76 1486.45 L2352.76 47.2441 L192.339 47.2441  Z" fill="#ffffff" fill-rule="evenodd" fill-opacity="1"/>
<defs>
  <clipPath id="clip202">
    <rect x="192" y="47" width="2161" height="1440"/>
  </clipPath>
</defs>
<polyline clip-path="url(#clip202)" style="stroke:#000000; stroke-linecap:round; stroke-linejoin:round; stroke-width:2; stroke-opacity:0.1; fill:none" points="457.296,1486.45 457.296,47.2441 "/>
<polyline clip-path="url(#clip202)" style="stroke:#000000; stroke-linecap:round; stroke-linejoin:round; stroke-width:2; stroke-opacity:0.1; fill:none" points="864.921,1486.45 864.921,47.2441 "/>
<polyline clip-path="url(#clip202)" style="stroke:#000000; stroke-linecap:round; stroke-linejoin:round; stroke-width:2; stroke-opacity:0.1; fill:none" points="1272.55,1486.45 1272.55,47.2441 "/>
<polyline clip-path="url(#clip202)" style="stroke:#000000; stroke-linecap:round; stroke-linejoin:round; stroke-width:2; stroke-opacity:0.1; fill:none" points="1680.17,1486.45 1680.17,47.2441 "/>
<polyline clip-path="url(#clip202)" style="stroke:#000000; stroke-linecap:round; stroke-linejoin:round; stroke-width:2; stroke-opacity:0.1; fill:none" points="2087.8,1486.45 2087.8,47.2441 "/>
<polyline clip-path="url(#clip200)" style="stroke:#000000; stroke-linecap:round; stroke-linejoin:round; stroke-width:4; stroke-opacity:1; fill:none" points="192.339,1486.45 2352.76,1486.45 "/>
<polyline clip-path="url(#clip200)" style="stroke:#000000; stroke-linecap:round; stroke-linejoin:round; stroke-width:4; stroke-opacity:1; fill:none" points="457.296,1486.45 457.296,1467.55 "/>
<polyline clip-path="url(#clip200)" style="stroke:#000000; stroke-linecap:round; stroke-linejoin:round; stroke-width:4; stroke-opacity:1; fill:none" points="864.921,1486.45 864.921,1467.55 "/>
<polyline clip-path="url(#clip200)" style="stroke:#000000; stroke-linecap:round; stroke-linejoin:round; stroke-width:4; stroke-opacity:1; fill:none" points="1272.55,1486.45 1272.55,1467.55 "/>
<polyline clip-path="url(#clip200)" style="stroke:#000000; stroke-linecap:round; stroke-linejoin:round; stroke-width:4; stroke-opacity:1; fill:none" points="1680.17,1486.45 1680.17,1467.55 "/>
<polyline clip-path="url(#clip200)" style="stroke:#000000; stroke-linecap:round; stroke-linejoin:round; stroke-width:4; stroke-opacity:1; fill:none" points="2087.8,1486.45 2087.8,1467.55 "/>
<path clip-path="url(#clip200)" d="M426.196 1532.02 L455.872 1532.02 L455.872 1535.95 L426.196 1535.95 L426.196 1532.02 Z" fill="#000000" fill-rule="nonzero" fill-opacity="1" /><path clip-path="url(#clip200)" d="M478.812 1518.36 L467.006 1536.81 L478.812 1536.81 L478.812 1518.36 M477.585 1514.29 L483.464 1514.29 L483.464 1536.81 L488.395 1536.81 L488.395 1540.7 L483.464 1540.7 L483.464 1548.85 L478.812 1548.85 L478.812 1540.7 L463.21 1540.7 L463.21 1536.19 L477.585 1514.29 Z" fill="#000000" fill-rule="nonzero" fill-opacity="1" /><path clip-path="url(#clip200)" d="M834.864 1532.02 L864.54 1532.02 L864.54 1535.95 L834.864 1535.95 L834.864 1532.02 Z" fill="#000000" fill-rule="nonzero" fill-opacity="1" /><path clip-path="url(#clip200)" d="M878.66 1544.91 L894.979 1544.91 L894.979 1548.85 L873.035 1548.85 L873.035 1544.91 Q875.697 1542.16 880.28 1537.53 Q884.887 1532.88 886.067 1531.53 Q888.313 1529.01 889.192 1527.27 Q890.095 1525.51 890.095 1523.82 Q890.095 1521.07 888.151 1519.33 Q886.229 1517.6 883.127 1517.6 Q880.928 1517.6 878.475 1518.36 Q876.044 1519.13 873.266 1520.68 L873.266 1515.95 Q876.09 1514.82 878.544 1514.24 Q880.998 1513.66 883.035 1513.66 Q888.405 1513.66 891.6 1516.35 Q894.794 1519.03 894.794 1523.52 Q894.794 1525.65 893.984 1527.57 Q893.197 1529.47 891.09 1532.07 Q890.512 1532.74 887.41 1535.95 Q884.308 1539.15 878.66 1544.91 Z" fill="#000000" fill-rule="nonzero" fill-opacity="1" /><path clip-path="url(#clip200)" d="M1272.55 1517.37 Q1268.94 1517.37 1267.11 1520.93 Q1265.3 1524.47 1265.3 1531.6 Q1265.3 1538.71 1267.11 1542.27 Q1268.94 1545.82 1272.55 1545.82 Q1276.18 1545.82 1277.99 1542.27 Q1279.82 1538.71 1279.82 1531.6 Q1279.82 1524.47 1277.99 1520.93 Q1276.18 1517.37 1272.55 1517.37 M1272.55 1513.66 Q1278.36 1513.66 1281.41 1518.27 Q1284.49 1522.85 1284.49 1531.6 Q1284.49 1540.33 1281.41 1544.94 Q1278.36 1549.52 1272.55 1549.52 Q1266.74 1549.52 1263.66 1544.94 Q1260.6 1540.33 1260.6 1531.6 Q1260.6 1522.85 1263.66 1518.27 Q1266.74 1513.66 1272.55 1513.66 Z" fill="#000000" fill-rule="nonzero" fill-opacity="1" /><path clip-path="url(#clip200)" d="M1674.83 1544.91 L1691.15 1544.91 L1691.15 1548.85 L1669.2 1548.85 L1669.2 1544.91 Q1671.86 1542.16 1676.45 1537.53 Q1681.05 1532.88 1682.23 1531.53 Q1684.48 1529.01 1685.36 1527.27 Q1686.26 1525.51 1686.26 1523.82 Q1686.26 1521.07 1684.32 1519.33 Q1682.4 1517.6 1679.29 1517.6 Q1677.09 1517.6 1674.64 1518.36 Q1672.21 1519.13 1669.43 1520.68 L1669.43 1515.95 Q1672.26 1514.82 1674.71 1514.24 Q1677.16 1513.66 1679.2 1513.66 Q1684.57 1513.66 1687.77 1516.35 Q1690.96 1519.03 1690.96 1523.52 Q1690.96 1525.65 1690.15 1527.57 Q1689.36 1529.47 1687.26 1532.07 Q1686.68 1532.74 1683.58 1535.95 Q1680.47 1539.15 1674.83 1544.91 Z" fill="#000000" fill-rule="nonzero" fill-opacity="1" /><path clip-path="url(#clip200)" d="M2090.81 1518.36 L2079 1536.81 L2090.81 1536.81 L2090.81 1518.36 M2089.58 1514.29 L2095.46 1514.29 L2095.46 1536.81 L2100.39 1536.81 L2100.39 1540.7 L2095.46 1540.7 L2095.46 1548.85 L2090.81 1548.85 L2090.81 1540.7 L2075.21 1540.7 L2075.21 1536.19 L2089.58 1514.29 Z" fill="#000000" fill-rule="nonzero" fill-opacity="1" /><polyline clip-path="url(#clip202)" style="stroke:#000000; stroke-linecap:round; stroke-linejoin:round; stroke-width:2; stroke-opacity:0.1; fill:none" points="192.339,1375.11 2352.76,1375.11 "/>
<polyline clip-path="url(#clip202)" style="stroke:#000000; stroke-linecap:round; stroke-linejoin:round; stroke-width:2; stroke-opacity:0.1; fill:none" points="192.339,1160.58 2352.76,1160.58 "/>
<polyline clip-path="url(#clip202)" style="stroke:#000000; stroke-linecap:round; stroke-linejoin:round; stroke-width:2; stroke-opacity:0.1; fill:none" points="192.339,946.055 2352.76,946.055 "/>
<polyline clip-path="url(#clip202)" style="stroke:#000000; stroke-linecap:round; stroke-linejoin:round; stroke-width:2; stroke-opacity:0.1; fill:none" points="192.339,731.527 2352.76,731.527 "/>
<polyline clip-path="url(#clip202)" style="stroke:#000000; stroke-linecap:round; stroke-linejoin:round; stroke-width:2; stroke-opacity:0.1; fill:none" points="192.339,516.998 2352.76,516.998 "/>
<polyline clip-path="url(#clip202)" style="stroke:#000000; stroke-linecap:round; stroke-linejoin:round; stroke-width:2; stroke-opacity:0.1; fill:none" points="192.339,302.47 2352.76,302.47 "/>
<polyline clip-path="url(#clip202)" style="stroke:#000000; stroke-linecap:round; stroke-linejoin:round; stroke-width:2; stroke-opacity:0.1; fill:none" points="192.339,87.942 2352.76,87.942 "/>
<polyline clip-path="url(#clip200)" style="stroke:#000000; stroke-linecap:round; stroke-linejoin:round; stroke-width:4; stroke-opacity:1; fill:none" points="192.339,1486.45 192.339,47.2441 "/>
<polyline clip-path="url(#clip200)" style="stroke:#000000; stroke-linecap:round; stroke-linejoin:round; stroke-width:4; stroke-opacity:1; fill:none" points="192.339,1375.11 211.236,1375.11 "/>
<polyline clip-path="url(#clip200)" style="stroke:#000000; stroke-linecap:round; stroke-linejoin:round; stroke-width:4; stroke-opacity:1; fill:none" points="192.339,1160.58 211.236,1160.58 "/>
<polyline clip-path="url(#clip200)" style="stroke:#000000; stroke-linecap:round; stroke-linejoin:round; stroke-width:4; stroke-opacity:1; fill:none" points="192.339,946.055 211.236,946.055 "/>
<polyline clip-path="url(#clip200)" style="stroke:#000000; stroke-linecap:round; stroke-linejoin:round; stroke-width:4; stroke-opacity:1; fill:none" points="192.339,731.527 211.236,731.527 "/>
<polyline clip-path="url(#clip200)" style="stroke:#000000; stroke-linecap:round; stroke-linejoin:round; stroke-width:4; stroke-opacity:1; fill:none" points="192.339,516.998 211.236,516.998 "/>
<polyline clip-path="url(#clip200)" style="stroke:#000000; stroke-linecap:round; stroke-linejoin:round; stroke-width:4; stroke-opacity:1; fill:none" points="192.339,302.47 211.236,302.47 "/>
<polyline clip-path="url(#clip200)" style="stroke:#000000; stroke-linecap:round; stroke-linejoin:round; stroke-width:4; stroke-opacity:1; fill:none" points="192.339,87.942 211.236,87.942 "/>
<path clip-path="url(#clip200)" d="M50.9921 1375.56 L80.6679 1375.56 L80.6679 1379.5 L50.9921 1379.5 L50.9921 1375.56 Z" fill="#000000" fill-rule="nonzero" fill-opacity="1" /><path clip-path="url(#clip200)" d="M100.76 1360.91 Q97.1493 1360.91 95.3206 1364.47 Q93.515 1368.02 93.515 1375.15 Q93.515 1382.25 95.3206 1385.82 Q97.1493 1389.36 100.76 1389.36 Q104.395 1389.36 106.2 1385.82 Q108.029 1382.25 108.029 1375.15 Q108.029 1368.02 106.2 1364.47 Q104.395 1360.91 100.76 1360.91 M100.76 1357.21 Q106.571 1357.21 109.626 1361.81 Q112.705 1366.4 112.705 1375.15 Q112.705 1383.87 109.626 1388.48 Q106.571 1393.06 100.76 1393.06 Q94.9502 1393.06 91.8715 1388.48 Q88.816 1383.87 88.816 1375.15 Q88.816 1366.4 91.8715 1361.81 Q94.9502 1357.21 100.76 1357.21 Z" fill="#000000" fill-rule="nonzero" fill-opacity="1" /><path clip-path="url(#clip200)" d="M120.922 1386.51 L125.807 1386.51 L125.807 1392.39 L120.922 1392.39 L120.922 1386.51 Z" fill="#000000" fill-rule="nonzero" fill-opacity="1" /><path clip-path="url(#clip200)" d="M140.019 1388.46 L156.339 1388.46 L156.339 1392.39 L134.394 1392.39 L134.394 1388.46 Q137.056 1385.7 141.64 1381.07 Q146.246 1376.42 147.427 1375.08 Q149.672 1372.55 150.552 1370.82 Q151.455 1369.06 151.455 1367.37 Q151.455 1364.61 149.51 1362.88 Q147.589 1361.14 144.487 1361.14 Q142.288 1361.14 139.834 1361.91 Q137.404 1362.67 134.626 1364.22 L134.626 1359.5 Q137.45 1358.36 139.904 1357.79 Q142.357 1357.21 144.394 1357.21 Q149.765 1357.21 152.959 1359.89 Q156.154 1362.58 156.154 1367.07 Q156.154 1369.2 155.343 1371.12 Q154.556 1373.02 152.45 1375.61 Q151.871 1376.28 148.769 1379.5 Q145.668 1382.69 140.019 1388.46 Z" fill="#000000" fill-rule="nonzero" fill-opacity="1" /><path clip-path="url(#clip200)" d="M99.1632 1146.38 Q95.5521 1146.38 93.7234 1149.95 Q91.9178 1153.49 91.9178 1160.62 Q91.9178 1167.72 93.7234 1171.29 Q95.5521 1174.83 99.1632 1174.83 Q102.797 1174.83 104.603 1171.29 Q106.432 1167.72 106.432 1160.62 Q106.432 1153.49 104.603 1149.95 Q102.797 1146.38 99.1632 1146.38 M99.1632 1142.68 Q104.973 1142.68 108.029 1147.28 Q111.108 1151.87 111.108 1160.62 Q111.108 1169.34 108.029 1173.95 Q104.973 1178.53 99.1632 1178.53 Q93.353 1178.53 90.2743 1173.95 Q87.2188 1169.34 87.2188 1160.62 Q87.2188 1151.87 90.2743 1147.28 Q93.353 1142.68 99.1632 1142.68 Z" fill="#000000" fill-rule="nonzero" fill-opacity="1" /><path clip-path="url(#clip200)" d="M119.325 1171.98 L124.209 1171.98 L124.209 1177.86 L119.325 1177.86 L119.325 1171.98 Z" fill="#000000" fill-rule="nonzero" fill-opacity="1" /><path clip-path="url(#clip200)" d="M144.394 1146.38 Q140.783 1146.38 138.955 1149.95 Q137.149 1153.49 137.149 1160.62 Q137.149 1167.72 138.955 1171.29 Q140.783 1174.83 144.394 1174.83 Q148.029 1174.83 149.834 1171.29 Q151.663 1167.72 151.663 1160.62 Q151.663 1153.49 149.834 1149.95 Q148.029 1146.38 144.394 1146.38 M144.394 1142.68 Q150.205 1142.68 153.26 1147.28 Q156.339 1151.87 156.339 1160.62 Q156.339 1169.34 153.26 1173.95 Q150.205 1178.53 144.394 1178.53 Q138.584 1178.53 135.506 1173.95 Q132.45 1169.34 132.45 1160.62 Q132.45 1151.87 135.506 1147.28 Q138.584 1142.68 144.394 1142.68 Z" fill="#000000" fill-rule="nonzero" fill-opacity="1" /><path clip-path="url(#clip200)" d="M100.76 931.854 Q97.1493 931.854 95.3206 935.418 Q93.515 938.96 93.515 946.09 Q93.515 953.196 95.3206 956.761 Q97.1493 960.303 100.76 960.303 Q104.395 960.303 106.2 956.761 Q108.029 953.196 108.029 946.09 Q108.029 938.96 106.2 935.418 Q104.395 931.854 100.76 931.854 M100.76 928.15 Q106.571 928.15 109.626 932.756 Q112.705 937.34 112.705 946.09 Q112.705 954.816 109.626 959.423 Q106.571 964.006 100.76 964.006 Q94.9502 964.006 91.8715 959.423 Q88.816 954.816 88.816 946.09 Q88.816 937.34 91.8715 932.756 Q94.9502 928.15 100.76 928.15 Z" fill="#000000" fill-rule="nonzero" fill-opacity="1" /><path clip-path="url(#clip200)" d="M120.922 957.455 L125.807 957.455 L125.807 963.335 L120.922 963.335 L120.922 957.455 Z" fill="#000000" fill-rule="nonzero" fill-opacity="1" /><path clip-path="url(#clip200)" d="M140.019 959.4 L156.339 959.4 L156.339 963.335 L134.394 963.335 L134.394 959.4 Q137.056 956.645 141.64 952.016 Q146.246 947.363 147.427 946.02 Q149.672 943.497 150.552 941.761 Q151.455 940.002 151.455 938.312 Q151.455 935.557 149.51 933.821 Q147.589 932.085 144.487 932.085 Q142.288 932.085 139.834 932.849 Q137.404 933.613 134.626 935.164 L134.626 930.442 Q137.45 929.307 139.904 928.729 Q142.357 928.15 144.394 928.15 Q149.765 928.15 152.959 930.835 Q156.154 933.52 156.154 938.011 Q156.154 940.141 155.343 942.062 Q154.556 943.96 152.45 946.553 Q151.871 947.224 148.769 950.442 Q145.668 953.636 140.019 959.4 Z" fill="#000000" fill-rule="nonzero" fill-opacity="1" /><path clip-path="url(#clip200)" d="M98.6771 717.325 Q95.066 717.325 93.2373 720.89 Q91.4317 724.432 91.4317 731.561 Q91.4317 738.668 93.2373 742.233 Q95.066 745.774 98.6771 745.774 Q102.311 745.774 104.117 742.233 Q105.946 738.668 105.946 731.561 Q105.946 724.432 104.117 720.89 Q102.311 717.325 98.6771 717.325 M98.6771 713.622 Q104.487 713.622 107.543 718.228 Q110.621 722.811 110.621 731.561 Q110.621 740.288 107.543 744.895 Q104.487 749.478 98.6771 749.478 Q92.8669 749.478 89.7882 744.895 Q86.7327 740.288 86.7327 731.561 Q86.7327 722.811 89.7882 718.228 Q92.8669 713.622 98.6771 713.622 Z" fill="#000000" fill-rule="nonzero" fill-opacity="1" /><path clip-path="url(#clip200)" d="M118.839 742.927 L123.723 742.927 L123.723 748.807 L118.839 748.807 L118.839 742.927 Z" fill="#000000" fill-rule="nonzero" fill-opacity="1" /><path clip-path="url(#clip200)" d="M146.756 718.321 L134.95 736.77 L146.756 736.77 L146.756 718.321 M145.529 714.247 L151.408 714.247 L151.408 736.77 L156.339 736.77 L156.339 740.659 L151.408 740.659 L151.408 748.807 L146.756 748.807 L146.756 740.659 L131.154 740.659 L131.154 736.145 L145.529 714.247 Z" fill="#000000" fill-rule="nonzero" fill-opacity="1" /><path clip-path="url(#clip200)" d="M99.0011 502.797 Q95.39 502.797 93.5613 506.362 Q91.7558 509.904 91.7558 517.033 Q91.7558 524.14 93.5613 527.704 Q95.39 531.246 99.0011 531.246 Q102.635 531.246 104.441 527.704 Q106.27 524.14 106.27 517.033 Q106.27 509.904 104.441 506.362 Q102.635 502.797 99.0011 502.797 M99.0011 499.093 Q104.811 499.093 107.867 503.7 Q110.946 508.283 110.946 517.033 Q110.946 525.76 107.867 530.366 Q104.811 534.95 99.0011 534.95 Q93.191 534.95 90.1123 530.366 Q87.0567 525.76 87.0567 517.033 Q87.0567 508.283 90.1123 503.7 Q93.191 499.093 99.0011 499.093 Z" fill="#000000" fill-rule="nonzero" fill-opacity="1" /><path clip-path="url(#clip200)" d="M119.163 528.399 L124.047 528.399 L124.047 534.278 L119.163 534.278 L119.163 528.399 Z" fill="#000000" fill-rule="nonzero" fill-opacity="1" /><path clip-path="url(#clip200)" d="M144.811 515.135 Q141.663 515.135 139.811 517.288 Q137.982 519.441 137.982 523.191 Q137.982 526.917 139.811 529.093 Q141.663 531.246 144.811 531.246 Q147.959 531.246 149.788 529.093 Q151.64 526.917 151.64 523.191 Q151.64 519.441 149.788 517.288 Q147.959 515.135 144.811 515.135 M154.093 500.482 L154.093 504.742 Q152.334 503.908 150.529 503.468 Q148.746 503.029 146.987 503.029 Q142.357 503.029 139.904 506.154 Q137.473 509.279 137.126 515.598 Q138.492 513.584 140.552 512.519 Q142.612 511.431 145.089 511.431 Q150.297 511.431 153.306 514.603 Q156.339 517.751 156.339 523.191 Q156.339 528.515 153.191 531.732 Q150.043 534.95 144.811 534.95 Q138.816 534.95 135.644 530.366 Q132.473 525.76 132.473 517.033 Q132.473 508.839 136.362 503.978 Q140.251 499.093 146.802 499.093 Q148.561 499.093 150.343 499.441 Q152.149 499.788 154.093 500.482 Z" fill="#000000" fill-rule="nonzero" fill-opacity="1" /><path clip-path="url(#clip200)" d="M99.2558 288.269 Q95.6447 288.269 93.816 291.834 Q92.0104 295.375 92.0104 302.505 Q92.0104 309.611 93.816 313.176 Q95.6447 316.718 99.2558 316.718 Q102.89 316.718 104.696 313.176 Q106.524 309.611 106.524 302.505 Q106.524 295.375 104.696 291.834 Q102.89 288.269 99.2558 288.269 M99.2558 284.565 Q105.066 284.565 108.121 289.172 Q111.2 293.755 111.2 302.505 Q111.2 311.232 108.121 315.838 Q105.066 320.422 99.2558 320.422 Q93.4456 320.422 90.3669 315.838 Q87.3114 311.232 87.3114 302.505 Q87.3114 293.755 90.3669 289.172 Q93.4456 284.565 99.2558 284.565 Z" fill="#000000" fill-rule="nonzero" fill-opacity="1" /><path clip-path="url(#clip200)" d="M119.418 313.871 L124.302 313.871 L124.302 319.75 L119.418 319.75 L119.418 313.871 Z" fill="#000000" fill-rule="nonzero" fill-opacity="1" /><path clip-path="url(#clip200)" d="M144.487 303.338 Q141.154 303.338 139.232 305.121 Q137.334 306.903 137.334 310.028 Q137.334 313.153 139.232 314.935 Q141.154 316.718 144.487 316.718 Q147.82 316.718 149.742 314.935 Q151.663 313.13 151.663 310.028 Q151.663 306.903 149.742 305.121 Q147.843 303.338 144.487 303.338 M139.811 301.348 Q136.802 300.607 135.112 298.547 Q133.445 296.486 133.445 293.524 Q133.445 289.38 136.385 286.973 Q139.348 284.565 144.487 284.565 Q149.649 284.565 152.589 286.973 Q155.529 289.38 155.529 293.524 Q155.529 296.486 153.839 298.547 Q152.172 300.607 149.186 301.348 Q152.566 302.135 154.441 304.426 Q156.339 306.718 156.339 310.028 Q156.339 315.051 153.26 317.736 Q150.205 320.422 144.487 320.422 Q138.769 320.422 135.691 317.736 Q132.635 315.051 132.635 310.028 Q132.635 306.718 134.533 304.426 Q136.431 302.135 139.811 301.348 M138.098 293.963 Q138.098 296.649 139.765 298.153 Q141.455 299.658 144.487 299.658 Q147.496 299.658 149.186 298.153 Q150.899 296.649 150.899 293.963 Q150.899 291.278 149.186 289.774 Q147.496 288.269 144.487 288.269 Q141.455 288.269 139.765 289.774 Q138.098 291.278 138.098 293.963 Z" fill="#000000" fill-rule="nonzero" fill-opacity="1" /><path clip-path="url(#clip200)" d="M89.9734 101.287 L97.6122 101.287 L97.6122 74.9212 L89.3021 76.5879 L89.3021 72.3286 L97.566 70.662 L102.242 70.662 L102.242 101.287 L109.881 101.287 L109.881 105.222 L89.9734 105.222 L89.9734 101.287 Z" fill="#000000" fill-rule="nonzero" fill-opacity="1" /><path clip-path="url(#clip200)" d="M119.325 99.3424 L124.209 99.3424 L124.209 105.222 L119.325 105.222 L119.325 99.3424 Z" fill="#000000" fill-rule="nonzero" fill-opacity="1" /><path clip-path="url(#clip200)" d="M144.394 73.7407 Q140.783 73.7407 138.955 77.3055 Q137.149 80.8471 137.149 87.9767 Q137.149 95.0832 138.955 98.648 Q140.783 102.19 144.394 102.19 Q148.029 102.19 149.834 98.648 Q151.663 95.0832 151.663 87.9767 Q151.663 80.8471 149.834 77.3055 Q148.029 73.7407 144.394 73.7407 M144.394 70.037 Q150.205 70.037 153.26 74.6435 Q156.339 79.2268 156.339 87.9767 Q156.339 96.7035 153.26 101.31 Q150.205 105.893 144.394 105.893 Q138.584 105.893 135.506 101.31 Q132.45 96.7035 132.45 87.9767 Q132.45 79.2268 135.506 74.6435 Q138.584 70.037 144.394 70.037 Z" fill="#000000" fill-rule="nonzero" fill-opacity="1" /><polyline clip-path="url(#clip202)" style="stroke:#009af9; stroke-linecap:round; stroke-linejoin:round; stroke-width:4; stroke-opacity:1; fill:none" points="253.483,1119.33 263.725,1118.52 273.966,1117.69 284.208,1116.83 294.45,1115.95 304.692,1115.04 314.934,1114.1 325.176,1113.13 335.418,1112.14 345.659,1111.11 355.901,1110.05 366.143,1108.96 376.385,1107.83 386.627,1106.67 396.869,1105.46 407.111,1104.22 417.352,1102.93 427.594,1101.6 437.836,1100.23 448.078,1098.81 458.32,1097.34 468.562,1095.81 478.803,1094.24 489.045,1092.6 499.287,1090.9 509.529,1089.15 519.771,1087.32 530.013,1085.43 540.255,1083.47 550.496,1081.43 560.738,1079.31 570.98,1077.1 581.222,1074.81 591.464,1072.42 601.706,1069.94 611.948,1067.35 622.189,1064.66 632.431,1061.85 642.673,1058.92 652.915,1055.86 663.157,1052.67 673.399,1049.33 683.641,1045.85 693.882,1042.2 704.124,1038.39 714.366,1034.4 724.608,1030.21 734.85,1025.83 745.092,1021.23 755.334,1016.41 765.575,1011.34 775.817,1006.02 786.059,1000.43 796.301,994.542 806.543,988.348 816.785,981.825 827.027,974.95 837.268,967.701 847.51,960.052 857.752,951.977 867.994,943.446 878.236,934.429 888.478,924.892 898.72,914.8 908.961,904.116 919.203,892.798 929.445,880.805 939.687,868.09 949.929,854.605 960.171,840.302 970.413,825.126 980.654,809.023 990.896,791.937 1001.14,773.811 1011.38,754.588 1021.62,734.212 1031.86,712.629 1042.11,689.791 1052.35,665.656 1062.59,640.189 1072.83,613.374 1083.07,585.208 1093.31,555.712 1103.56,524.937 1113.8,492.968 1124.04,459.932 1134.28,426.006 1144.52,391.423 1154.77,356.478 1165.01,321.535 1175.25,287.025 1185.49,253.445 1195.73,221.352 1205.98,191.349 1216.22,164.063 1226.46,140.123 1236.7,120.127 1246.94,104.608 1257.18,94.002 1267.43,88.6187 1277.67,88.6187 1287.91,94.002 1298.15,104.608 1308.39,120.127 1318.64,140.123 1328.88,164.063 1339.12,191.349 1349.36,221.352 1359.6,253.445 1369.84,287.025 1380.09,321.535 1390.33,356.478 1400.57,391.423 1410.81,426.006 1421.05,459.932 1431.3,492.968 1441.54,524.937 1451.78,555.712 1462.02,585.208 1472.26,613.374 1482.51,640.189 1492.75,665.656 1502.99,689.791 1513.23,712.629 1523.47,734.212 1533.71,754.588 1543.96,773.811 1554.2,791.937 1564.44,809.023 1574.68,825.126 1584.92,840.302 1595.17,854.605 1605.41,868.09 1615.65,880.805 1625.89,892.798 1636.13,904.116 1646.38,914.8 1656.62,924.892 1666.86,934.429 1677.1,943.446 1687.34,951.977 1697.58,960.052 1707.83,967.701 1718.07,974.95 1728.31,981.825 1738.55,988.348 1748.79,994.542 1759.04,1000.43 1769.28,1006.02 1779.52,1011.34 1789.76,1016.41 1800,1021.23 1810.24,1025.83 1820.49,1030.21 1830.73,1034.4 1840.97,1038.39 1851.21,1042.2 1861.45,1045.85 1871.7,1049.33 1881.94,1052.67 1892.18,1055.86 1902.42,1058.92 1912.66,1061.85 1922.91,1064.66 1933.15,1067.35 1943.39,1069.94 1953.63,1072.42 1963.87,1074.81 1974.11,1077.1 1984.36,1079.31 1994.6,1081.43 2004.84,1083.47 2015.08,1085.43 2025.32,1087.32 2035.57,1089.15 2045.81,1090.9 2056.05,1092.6 2066.29,1094.24 2076.53,1095.81 2086.77,1097.34 2097.02,1098.81 2107.26,1100.23 2117.5,1101.6 2127.74,1102.93 2137.98,1104.22 2148.23,1105.46 2158.47,1106.67 2168.71,1107.83 2178.95,1108.96 2189.19,1110.05 2199.44,1111.11 2209.68,1112.14 2219.92,1113.13 2230.16,1114.1 2240.4,1115.04 2250.64,1115.95 2260.89,1116.83 2271.13,1117.69 2281.37,1118.52 2291.61,1119.33 "/>
<polyline clip-path="url(#clip202)" style="stroke:#e26f46; stroke-linecap:round; stroke-linejoin:round; stroke-width:4; stroke-opacity:1; fill:none" points="253.483,1445.72 263.725,1418.56 273.966,1391.68 284.208,1365.07 294.45,1338.74 304.692,1312.68 314.934,1286.9 325.176,1261.39 335.418,1236.16 345.659,1211.2 355.901,1186.51 366.143,1162.1 376.385,1137.96 386.627,1114.1 396.869,1090.51 407.111,1067.19 417.352,1044.15 427.594,1021.39 437.836,998.896 448.078,976.678 458.32,954.735 468.562,933.066 478.803,911.672 489.045,890.551 499.287,869.705 509.529,849.133 519.771,828.836 530.013,808.812 540.255,789.064 550.496,769.589 560.738,750.389 570.98,731.462 581.222,712.811 591.464,694.433 601.706,676.33 611.948,658.501 622.189,640.947 632.431,623.666 642.673,606.66 652.915,589.928 663.157,573.471 673.399,557.288 683.641,541.379 693.882,525.744 704.124,510.384 714.366,495.298 724.608,480.486 734.85,465.949 745.092,451.686 755.334,437.697 765.575,423.982 775.817,410.542 786.059,397.376 796.301,384.485 806.543,371.867 816.785,359.524 827.027,347.455 837.268,335.661 847.51,324.141 857.752,312.895 867.994,301.923 878.236,291.226 888.478,280.803 898.72,270.654 908.961,260.779 919.203,251.179 929.445,241.853 939.687,232.802 949.929,224.025 960.171,215.521 970.413,207.293 980.654,199.338 990.896,191.658 1001.14,184.252 1011.38,177.121 1021.62,170.264 1031.86,163.681 1042.11,157.372 1052.35,151.337 1062.59,145.577 1072.83,140.092 1083.07,134.88 1093.31,129.943 1103.56,125.28 1113.8,120.891 1124.04,116.777 1134.28,112.937 1144.52,109.371 1154.77,106.079 1165.01,103.062 1175.25,100.319 1185.49,97.8507 1195.73,95.6564 1205.98,93.7364 1216.22,92.0906 1226.46,90.7192 1236.7,89.622 1246.94,88.7991 1257.18,88.2506 1267.43,87.9763 1277.67,87.9763 1287.91,88.2506 1298.15,88.7991 1308.39,89.622 1318.64,90.7192 1328.88,92.0906 1339.12,93.7364 1349.36,95.6564 1359.6,97.8507 1369.84,100.319 1380.09,103.062 1390.33,106.079 1400.57,109.371 1410.81,112.937 1421.05,116.777 1431.3,120.891 1441.54,125.28 1451.78,129.943 1462.02,134.88 1472.26,140.092 1482.51,145.577 1492.75,151.337 1502.99,157.372 1513.23,163.681 1523.47,170.264 1533.71,177.121 1543.96,184.252 1554.2,191.658 1564.44,199.338 1574.68,207.293 1584.92,215.521 1595.17,224.025 1605.41,232.802 1615.65,241.853 1625.89,251.179 1636.13,260.779 1646.38,270.654 1656.62,280.803 1666.86,291.226 1677.1,301.923 1687.34,312.895 1697.58,324.141 1707.83,335.661 1718.07,347.455 1728.31,359.524 1738.55,371.867 1748.79,384.485 1759.04,397.376 1769.28,410.542 1779.52,423.982 1789.76,437.697 1800,451.686 1810.24,465.949 1820.49,480.486 1830.73,495.298 1840.97,510.384 1851.21,525.744 1861.45,541.379 1871.7,557.288 1881.94,573.471 1892.18,589.928 1902.42,606.66 1912.66,623.666 1922.91,640.947 1933.15,658.501 1943.39,676.33 1953.63,694.433 1963.87,712.811 1974.11,731.462 1984.36,750.389 1994.6,769.589 2004.84,789.064 2015.08,808.812 2025.32,828.836 2035.57,849.133 2045.81,869.705 2056.05,890.551 2066.29,911.672 2076.53,933.066 2086.77,954.735 2097.02,976.678 2107.26,998.896 2117.5,1021.39 2127.74,1044.15 2137.98,1067.19 2148.23,1090.51 2158.47,1114.1 2168.71,1137.96 2178.95,1162.1 2189.19,1186.51 2199.44,1211.2 2209.68,1236.16 2219.92,1261.39 2230.16,1286.9 2240.4,1312.68 2250.64,1338.74 2260.89,1365.07 2271.13,1391.68 2281.37,1418.56 2291.61,1445.72 "/>
<path clip-path="url(#clip200)" d="M1792.78 250.738 L2280.74 250.738 L2280.74 95.2176 L1792.78 95.2176  Z" fill="#ffffff" fill-rule="evenodd" fill-opacity="1"/>
<polyline clip-path="url(#clip200)" style="stroke:#000000; stroke-linecap:round; stroke-linejoin:round; stroke-width:4; stroke-opacity:1; fill:none" points="1792.78,250.738 2280.74,250.738 2280.74,95.2176 1792.78,95.2176 1792.78,250.738 "/>
<polyline clip-path="url(#clip200)" style="stroke:#009af9; stroke-linecap:round; stroke-linejoin:round; stroke-width:4; stroke-opacity:1; fill:none" points="1816.79,147.058 1960.81,147.058 "/>
<path clip-path="url(#clip200)" d="M1984.82 129.778 L2004.68 129.778 L2004.68 133.713 L1989.49 133.713 L1989.49 143.898 L2003.2 143.898 L2003.2 147.833 L1989.49 147.833 L1989.49 164.338 L1984.82 164.338 L1984.82 129.778 Z" fill="#000000" fill-rule="nonzero" fill-opacity="1" /><path clip-path="url(#clip200)" d="M2008.87 154.106 L2008.87 138.412 L2013.13 138.412 L2013.13 153.944 Q2013.13 157.625 2014.56 159.476 Q2016 161.305 2018.87 161.305 Q2022.32 161.305 2024.31 159.106 Q2026.32 156.907 2026.32 153.111 L2026.32 138.412 L2030.58 138.412 L2030.58 164.338 L2026.32 164.338 L2026.32 160.356 Q2024.77 162.717 2022.71 163.875 Q2020.67 165.009 2017.97 165.009 Q2013.5 165.009 2011.18 162.231 Q2008.87 159.453 2008.87 154.106 M2019.59 137.787 L2019.59 137.787 Z" fill="#000000" fill-rule="nonzero" fill-opacity="1" /><path clip-path="url(#clip200)" d="M2060.91 148.689 L2060.91 164.338 L2056.65 164.338 L2056.65 148.828 Q2056.65 145.148 2055.21 143.319 Q2053.78 141.49 2050.91 141.49 Q2047.46 141.49 2045.47 143.69 Q2043.47 145.889 2043.47 149.685 L2043.47 164.338 L2039.19 164.338 L2039.19 138.412 L2043.47 138.412 L2043.47 142.44 Q2045 140.102 2047.06 138.944 Q2049.15 137.787 2051.85 137.787 Q2056.32 137.787 2058.61 140.565 Q2060.91 143.319 2060.91 148.689 Z" fill="#000000" fill-rule="nonzero" fill-opacity="1" /><path clip-path="url(#clip200)" d="M2069.24 128.319 L2073.52 128.319 L2073.52 149.592 L2086.23 138.412 L2091.67 138.412 L2077.92 150.541 L2092.25 164.338 L2086.69 164.338 L2073.52 151.676 L2073.52 164.338 L2069.24 164.338 L2069.24 128.319 Z" fill="#000000" fill-rule="nonzero" fill-opacity="1" /><path clip-path="url(#clip200)" d="M2115.51 139.407 L2115.51 143.389 Q2113.71 142.393 2111.88 141.907 Q2110.07 141.398 2108.22 141.398 Q2104.08 141.398 2101.78 144.037 Q2099.49 146.652 2099.49 151.398 Q2099.49 156.143 2101.78 158.782 Q2104.08 161.398 2108.22 161.398 Q2110.07 161.398 2111.88 160.912 Q2113.71 160.402 2115.51 159.407 L2115.51 163.342 Q2113.73 164.176 2111.81 164.592 Q2109.91 165.009 2107.76 165.009 Q2101.9 165.009 2098.45 161.328 Q2095 157.648 2095 151.398 Q2095 145.055 2098.47 141.421 Q2101.97 137.787 2108.03 137.787 Q2110 137.787 2111.88 138.203 Q2113.75 138.597 2115.51 139.407 Z" fill="#000000" fill-rule="nonzero" fill-opacity="1" /><path clip-path="url(#clip200)" d="M2122.92 138.412 L2127.18 138.412 L2127.18 164.801 Q2127.18 169.754 2125.28 171.976 Q2123.4 174.199 2119.21 174.199 L2117.59 174.199 L2117.59 170.588 L2118.73 170.588 Q2121.16 170.588 2122.04 169.453 Q2122.92 168.342 2122.92 164.801 L2122.92 138.412 M2122.92 128.319 L2127.18 128.319 L2127.18 133.713 L2122.92 133.713 L2122.92 128.319 Z" fill="#000000" fill-rule="nonzero" fill-opacity="1" /><path clip-path="url(#clip200)" d="M2147.87 151.305 Q2142.71 151.305 2140.72 152.486 Q2138.73 153.666 2138.73 156.514 Q2138.73 158.782 2140.21 160.125 Q2141.71 161.444 2144.28 161.444 Q2147.83 161.444 2149.96 158.944 Q2152.11 156.421 2152.11 152.254 L2152.11 151.305 L2147.87 151.305 M2156.37 149.546 L2156.37 164.338 L2152.11 164.338 L2152.11 160.402 Q2150.65 162.763 2148.47 163.898 Q2146.3 165.009 2143.15 165.009 Q2139.17 165.009 2136.81 162.787 Q2134.47 160.541 2134.47 156.791 Q2134.47 152.416 2137.39 150.194 Q2140.33 147.972 2146.14 147.972 L2152.11 147.972 L2152.11 147.555 Q2152.11 144.615 2150.16 143.018 Q2148.24 141.398 2144.75 141.398 Q2142.53 141.398 2140.42 141.93 Q2138.31 142.463 2136.37 143.527 L2136.37 139.592 Q2138.71 138.69 2140.9 138.25 Q2143.1 137.787 2145.19 137.787 Q2150.81 137.787 2153.59 140.703 Q2156.37 143.62 2156.37 149.546 Z" fill="#000000" fill-rule="nonzero" fill-opacity="1" /><polyline clip-path="url(#clip200)" style="stroke:#e26f46; stroke-linecap:round; stroke-linejoin:round; stroke-width:4; stroke-opacity:1; fill:none" points="1816.79,198.898 1960.81,198.898 "/>
<path clip-path="url(#clip200)" d="M1984.82 181.618 L1989.49 181.618 L1989.49 216.178 L1984.82 216.178 L1984.82 181.618 Z" fill="#000000" fill-rule="nonzero" fill-opacity="1" /><path clip-path="url(#clip200)" d="M2020.16 200.529 L2020.16 216.178 L2015.91 216.178 L2015.91 200.668 Q2015.91 196.988 2014.47 195.159 Q2013.03 193.33 2010.16 193.33 Q2006.72 193.33 2004.72 195.53 Q2002.73 197.729 2002.73 201.525 L2002.73 216.178 L1998.45 216.178 L1998.45 190.252 L2002.73 190.252 L2002.73 194.28 Q2004.26 191.942 2006.32 190.784 Q2008.41 189.627 2011.11 189.627 Q2015.58 189.627 2017.87 192.405 Q2020.16 195.159 2020.16 200.529 Z" fill="#000000" fill-rule="nonzero" fill-opacity="1" /><path clip-path="url(#clip200)" d="M2032.87 182.891 L2032.87 190.252 L2041.65 190.252 L2041.65 193.562 L2032.87 193.562 L2032.87 207.636 Q2032.87 210.807 2033.73 211.71 Q2034.61 212.613 2037.27 212.613 L2041.65 212.613 L2041.65 216.178 L2037.27 216.178 Q2032.34 216.178 2030.47 214.349 Q2028.59 212.497 2028.59 207.636 L2028.59 193.562 L2025.47 193.562 L2025.47 190.252 L2028.59 190.252 L2028.59 182.891 L2032.87 182.891 Z" fill="#000000" fill-rule="nonzero" fill-opacity="1" /><path clip-path="url(#clip200)" d="M2069.42 202.15 L2069.42 204.233 L2049.84 204.233 Q2050.12 208.631 2052.48 210.946 Q2054.86 213.238 2059.1 213.238 Q2061.55 213.238 2063.84 212.636 Q2066.16 212.034 2068.43 210.83 L2068.43 214.858 Q2066.14 215.83 2063.73 216.34 Q2061.32 216.849 2058.84 216.849 Q2052.64 216.849 2049.01 213.238 Q2045.4 209.627 2045.4 203.469 Q2045.4 197.104 2048.82 193.377 Q2052.27 189.627 2058.1 189.627 Q2063.34 189.627 2066.37 193.006 Q2069.42 196.363 2069.42 202.15 M2065.16 200.9 Q2065.12 197.405 2063.2 195.321 Q2061.3 193.238 2058.15 193.238 Q2054.59 193.238 2052.43 195.252 Q2050.3 197.266 2049.98 200.923 L2065.16 200.9 Z" fill="#000000" fill-rule="nonzero" fill-opacity="1" /><path clip-path="url(#clip200)" d="M2091.44 194.233 Q2090.72 193.817 2089.86 193.631 Q2089.03 193.423 2088.01 193.423 Q2084.4 193.423 2082.46 195.784 Q2080.53 198.122 2080.53 202.52 L2080.53 216.178 L2076.25 216.178 L2076.25 190.252 L2080.53 190.252 L2080.53 194.28 Q2081.88 191.918 2084.03 190.784 Q2086.18 189.627 2089.26 189.627 Q2089.7 189.627 2090.23 189.696 Q2090.77 189.743 2091.41 189.858 L2091.44 194.233 Z" fill="#000000" fill-rule="nonzero" fill-opacity="1" /><path clip-path="url(#clip200)" d="M2100.03 212.289 L2100.03 226.039 L2095.74 226.039 L2095.74 190.252 L2100.03 190.252 L2100.03 194.187 Q2101.37 191.872 2103.4 190.761 Q2105.47 189.627 2108.31 189.627 Q2113.03 189.627 2115.97 193.377 Q2118.94 197.127 2118.94 203.238 Q2118.94 209.349 2115.97 213.099 Q2113.03 216.849 2108.31 216.849 Q2105.47 216.849 2103.4 215.738 Q2101.37 214.603 2100.03 212.289 M2114.52 203.238 Q2114.52 198.539 2112.57 195.877 Q2110.65 193.192 2107.27 193.192 Q2103.89 193.192 2101.95 195.877 Q2100.03 198.539 2100.03 203.238 Q2100.03 207.937 2101.95 210.622 Q2103.89 213.284 2107.27 213.284 Q2110.65 213.284 2112.57 210.622 Q2114.52 207.937 2114.52 203.238 Z" fill="#000000" fill-rule="nonzero" fill-opacity="1" /><path clip-path="url(#clip200)" d="M2136.04 193.238 Q2132.62 193.238 2130.63 195.923 Q2128.64 198.585 2128.64 203.238 Q2128.64 207.891 2130.6 210.576 Q2132.59 213.238 2136.04 213.238 Q2139.45 213.238 2141.44 210.553 Q2143.43 207.867 2143.43 203.238 Q2143.43 198.631 2141.44 195.946 Q2139.45 193.238 2136.04 193.238 M2136.04 189.627 Q2141.6 189.627 2144.77 193.238 Q2147.94 196.849 2147.94 203.238 Q2147.94 209.604 2144.77 213.238 Q2141.6 216.849 2136.04 216.849 Q2130.46 216.849 2127.29 213.238 Q2124.15 209.604 2124.15 203.238 Q2124.15 196.849 2127.29 193.238 Q2130.46 189.627 2136.04 189.627 Z" fill="#000000" fill-rule="nonzero" fill-opacity="1" /><path clip-path="url(#clip200)" d="M2155 180.159 L2159.26 180.159 L2159.26 216.178 L2155 216.178 L2155 180.159 Z" fill="#000000" fill-rule="nonzero" fill-opacity="1" /><path clip-path="url(#clip200)" d="M2179.96 203.145 Q2174.79 203.145 2172.8 204.326 Q2170.81 205.506 2170.81 208.354 Q2170.81 210.622 2172.29 211.965 Q2173.8 213.284 2176.37 213.284 Q2179.91 213.284 2182.04 210.784 Q2184.19 208.261 2184.19 204.094 L2184.19 203.145 L2179.96 203.145 M2188.45 201.386 L2188.45 216.178 L2184.19 216.178 L2184.19 212.242 Q2182.73 214.603 2180.56 215.738 Q2178.38 216.849 2175.23 216.849 Q2171.25 216.849 2168.89 214.627 Q2166.55 212.381 2166.55 208.631 Q2166.55 204.256 2169.47 202.034 Q2172.41 199.812 2178.22 199.812 L2184.19 199.812 L2184.19 199.395 Q2184.19 196.455 2182.25 194.858 Q2180.33 193.238 2176.83 193.238 Q2174.61 193.238 2172.5 193.77 Q2170.4 194.303 2168.45 195.367 L2168.45 191.432 Q2170.79 190.53 2172.99 190.09 Q2175.19 189.627 2177.27 189.627 Q2182.9 189.627 2185.67 192.543 Q2188.45 195.46 2188.45 201.386 Z" fill="#000000" fill-rule="nonzero" fill-opacity="1" /><path clip-path="url(#clip200)" d="M2215.88 191.247 L2215.88 195.229 Q2214.08 194.233 2212.25 193.747 Q2210.44 193.238 2208.59 193.238 Q2204.45 193.238 2202.15 195.877 Q2199.86 198.492 2199.86 203.238 Q2199.86 207.983 2202.15 210.622 Q2204.45 213.238 2208.59 213.238 Q2210.44 213.238 2212.25 212.752 Q2214.08 212.242 2215.88 211.247 L2215.88 215.182 Q2214.1 216.016 2212.18 216.432 Q2210.28 216.849 2208.13 216.849 Q2202.27 216.849 2198.82 213.168 Q2195.37 209.488 2195.37 203.238 Q2195.37 196.895 2198.84 193.261 Q2202.34 189.627 2208.4 189.627 Q2210.37 189.627 2212.25 190.043 Q2214.12 190.437 2215.88 191.247 Z" fill="#000000" fill-rule="nonzero" fill-opacity="1" /><path clip-path="url(#clip200)" d="M2223.29 190.252 L2227.55 190.252 L2227.55 216.641 Q2227.55 221.594 2225.65 223.816 Q2223.77 226.039 2219.58 226.039 L2217.96 226.039 L2217.96 222.428 L2219.1 222.428 Q2221.53 222.428 2222.41 221.293 Q2223.29 220.182 2223.29 216.641 L2223.29 190.252 M2223.29 180.159 L2227.55 180.159 L2227.55 185.553 L2223.29 185.553 L2223.29 180.159 Z" fill="#000000" fill-rule="nonzero" fill-opacity="1" /><path clip-path="url(#clip200)" d="M2248.24 203.145 Q2243.08 203.145 2241.09 204.326 Q2239.1 205.506 2239.1 208.354 Q2239.1 210.622 2240.58 211.965 Q2242.08 213.284 2244.65 213.284 Q2248.2 213.284 2250.33 210.784 Q2252.48 208.261 2252.48 204.094 L2252.48 203.145 L2248.24 203.145 M2256.74 201.386 L2256.74 216.178 L2252.48 216.178 L2252.48 212.242 Q2251.02 214.603 2248.84 215.738 Q2246.67 216.849 2243.52 216.849 Q2239.54 216.849 2237.18 214.627 Q2234.84 212.381 2234.84 208.631 Q2234.84 204.256 2237.76 202.034 Q2240.7 199.812 2246.51 199.812 L2252.48 199.812 L2252.48 199.395 Q2252.48 196.455 2250.53 194.858 Q2248.61 193.238 2245.12 193.238 Q2242.89 193.238 2240.79 193.77 Q2238.68 194.303 2236.74 195.367 L2236.74 191.432 Q2239.08 190.53 2241.27 190.09 Q2243.47 189.627 2245.56 189.627 Q2251.18 189.627 2253.96 192.543 Q2256.74 195.46 2256.74 201.386 Z" fill="#000000" fill-rule="nonzero" fill-opacity="1" /></svg>
