<?xml version="1.0" encoding="utf-8"?>
<svg xmlns="http://www.w3.org/2000/svg" xmlns:xlink="http://www.w3.org/1999/xlink" width="600" height="400" viewBox="0 0 2400 1600">
<defs>
  <clipPath id="clip330">
    <rect x="0" y="0" width="2400" height="1600"/>
  </clipPath>
</defs>
<path clip-path="url(#clip330)" d="M0 1600 L2400 1600 L2400 0 L0 0  Z" fill="#ffffff" fill-rule="evenodd" fill-opacity="1"/>
<defs>
  <clipPath id="clip331">
    <rect x="480" y="0" width="1681" height="1600"/>
  </clipPath>
</defs>
<path clip-path="url(#clip330)" d="M156.598 1486.45 L2352.76 1486.45 L2352.76 47.2441 L156.598 47.2441  Z" fill="#ffffff" fill-rule="evenodd" fill-opacity="1"/>
<defs>
  <clipPath id="clip332">
    <rect x="156" y="47" width="2197" height="1440"/>
  </clipPath>
</defs>
<polyline clip-path="url(#clip332)" style="stroke:#000000; stroke-linecap:round; stroke-linejoin:round; stroke-width:2; stroke-opacity:0.1; fill:none" points="425.938,1486.45 425.938,47.2441 "/>
<polyline clip-path="url(#clip332)" style="stroke:#000000; stroke-linecap:round; stroke-linejoin:round; stroke-width:2; stroke-opacity:0.1; fill:none" points="840.308,1486.45 840.308,47.2441 "/>
<polyline clip-path="url(#clip332)" style="stroke:#000000; stroke-linecap:round; stroke-linejoin:round; stroke-width:2; stroke-opacity:0.1; fill:none" points="1254.68,1486.45 1254.68,47.2441 "/>
<polyline clip-path="url(#clip332)" style="stroke:#000000; stroke-linecap:round; stroke-linejoin:round; stroke-width:2; stroke-opacity:0.1; fill:none" points="1669.05,1486.45 1669.05,47.2441 "/>
<polyline clip-path="url(#clip332)" style="stroke:#000000; stroke-linecap:round; stroke-linejoin:round; stroke-width:2; stroke-opacity:0.1; fill:none" points="2083.42,1486.45 2083.42,47.2441 "/>
<polyline clip-path="url(#clip330)" style="stroke:#000000; stroke-linecap:round; stroke-linejoin:round; stroke-width:4; stroke-opacity:1; fill:none" points="156.598,1486.45 2352.76,1486.45 "/>
<polyline clip-path="url(#clip330)" style="stroke:#000000; stroke-linecap:round; stroke-linejoin:round; stroke-width:4; stroke-opacity:1; fill:none" points="425.938,1486.45 425.938,1467.55 "/>
<polyline clip-path="url(#clip330)" style="stroke:#000000; stroke-linecap:round; stroke-linejoin:round; stroke-width:4; stroke-opacity:1; fill:none" points="840.308,1486.45 840.308,1467.55 "/>
<polyline clip-path="url(#clip330)" style="stroke:#000000; stroke-linecap:round; stroke-linejoin:round; stroke-width:4; stroke-opacity:1; fill:none" points="1254.68,1486.45 1254.68,1467.55 "/>
<polyline clip-path="url(#clip330)" style="stroke:#000000; stroke-linecap:round; stroke-linejoin:round; stroke-width:4; stroke-opacity:1; fill:none" points="1669.05,1486.45 1669.05,1467.55 "/>
<polyline clip-path="url(#clip330)" style="stroke:#000000; stroke-linecap:round; stroke-linejoin:round; stroke-width:4; stroke-opacity:1; fill:none" points="2083.42,1486.45 2083.42,1467.55 "/>
<path clip-path="url(#clip330)" d="M394.839 1532.02 L424.515 1532.02 L424.515 1535.95 L394.839 1535.95 L394.839 1532.02 Z" fill="#000000" fill-rule="nonzero" fill-opacity="1" /><path clip-path="url(#clip330)" d="M447.454 1518.36 L435.649 1536.81 L447.454 1536.81 L447.454 1518.36 M446.228 1514.29 L452.107 1514.29 L452.107 1536.81 L457.038 1536.81 L457.038 1540.7 L452.107 1540.7 L452.107 1548.85 L447.454 1548.85 L447.454 1540.7 L431.853 1540.7 L431.853 1536.19 L446.228 1514.29 Z" fill="#000000" fill-rule="nonzero" fill-opacity="1" /><path clip-path="url(#clip330)" d="M810.25 1532.02 L839.926 1532.02 L839.926 1535.95 L810.25 1535.95 L810.25 1532.02 Z" fill="#000000" fill-rule="nonzero" fill-opacity="1" /><path clip-path="url(#clip330)" d="M854.046 1544.91 L870.365 1544.91 L870.365 1548.85 L848.421 1548.85 L848.421 1544.91 Q851.083 1542.16 855.666 1537.53 Q860.273 1532.88 861.453 1531.53 Q863.699 1529.01 864.578 1527.27 Q865.481 1525.51 865.481 1523.82 Q865.481 1521.07 863.537 1519.33 Q861.615 1517.6 858.514 1517.6 Q856.315 1517.6 853.861 1518.36 Q851.43 1519.13 848.653 1520.68 L848.653 1515.95 Q851.477 1514.82 853.93 1514.24 Q856.384 1513.66 858.421 1513.66 Q863.791 1513.66 866.986 1516.35 Q870.18 1519.03 870.18 1523.52 Q870.18 1525.65 869.37 1527.57 Q868.583 1529.47 866.477 1532.07 Q865.898 1532.74 862.796 1535.95 Q859.694 1539.15 854.046 1544.91 Z" fill="#000000" fill-rule="nonzero" fill-opacity="1" /><path clip-path="url(#clip330)" d="M1254.68 1517.37 Q1251.07 1517.37 1249.24 1520.93 Q1247.43 1524.47 1247.43 1531.6 Q1247.43 1538.71 1249.24 1542.27 Q1251.07 1545.82 1254.68 1545.82 Q1258.31 1545.82 1260.12 1542.27 Q1261.95 1538.71 1261.95 1531.6 Q1261.95 1524.47 1260.12 1520.93 Q1258.31 1517.37 1254.68 1517.37 M1254.68 1513.66 Q1260.49 1513.66 1263.54 1518.27 Q1266.62 1522.85 1266.62 1531.6 Q1266.62 1540.33 1263.54 1544.94 Q1260.49 1549.52 1254.68 1549.52 Q1248.87 1549.52 1245.79 1544.94 Q1242.73 1540.33 1242.73 1531.6 Q1242.73 1522.85 1245.79 1518.27 Q1248.87 1513.66 1254.68 1513.66 Z" fill="#000000" fill-rule="nonzero" fill-opacity="1" /><path clip-path="url(#clip330)" d="M1663.7 1544.91 L1680.02 1544.91 L1680.02 1548.85 L1658.07 1548.85 L1658.07 1544.91 Q1660.74 1542.16 1665.32 1537.53 Q1669.93 1532.88 1671.11 1531.53 Q1673.35 1529.01 1674.23 1527.27 Q1675.13 1525.51 1675.13 1523.82 Q1675.13 1521.07 1673.19 1519.33 Q1671.27 1517.6 1668.17 1517.6 Q1665.97 1517.6 1663.51 1518.36 Q1661.08 1519.13 1658.31 1520.68 L1658.31 1515.95 Q1661.13 1514.82 1663.58 1514.24 Q1666.04 1513.66 1668.07 1513.66 Q1673.44 1513.66 1676.64 1516.35 Q1679.83 1519.03 1679.83 1523.52 Q1679.83 1525.65 1679.02 1527.57 Q1678.24 1529.47 1676.13 1532.07 Q1675.55 1532.74 1672.45 1535.95 Q1669.35 1539.15 1663.7 1544.91 Z" fill="#000000" fill-rule="nonzero" fill-opacity="1" /><path clip-path="url(#clip330)" d="M2086.43 1518.36 L2074.62 1536.81 L2086.43 1536.81 L2086.43 1518.36 M2085.2 1514.29 L2091.08 1514.29 L2091.08 1536.81 L2096.01 1536.81 L2096.01 1540.7 L2091.08 1540.7 L2091.08 1548.85 L2086.43 1548.85 L2086.43 1540.7 L2070.82 1540.7 L2070.82 1536.19 L2085.2 1514.29 Z" fill="#000000" fill-rule="nonzero" fill-opacity="1" /><polyline clip-path="url(#clip332)" style="stroke:#000000; stroke-linecap:round; stroke-linejoin:round; stroke-width:2; stroke-opacity:0.1; fill:none" points="156.598,1213.72 2352.76,1213.72 "/>
<polyline clip-path="url(#clip332)" style="stroke:#000000; stroke-linecap:round; stroke-linejoin:round; stroke-width:2; stroke-opacity:0.1; fill:none" points="156.598,932.063 2352.76,932.063 "/>
<polyline clip-path="url(#clip332)" style="stroke:#000000; stroke-linecap:round; stroke-linejoin:round; stroke-width:2; stroke-opacity:0.1; fill:none" points="156.598,650.404 2352.76,650.404 "/>
<polyline clip-path="url(#clip332)" style="stroke:#000000; stroke-linecap:round; stroke-linejoin:round; stroke-width:2; stroke-opacity:0.1; fill:none" points="156.598,368.746 2352.76,368.746 "/>
<polyline clip-path="url(#clip332)" style="stroke:#000000; stroke-linecap:round; stroke-linejoin:round; stroke-width:2; stroke-opacity:0.1; fill:none" points="156.598,87.0878 2352.76,87.0878 "/>
<polyline clip-path="url(#clip330)" style="stroke:#000000; stroke-linecap:round; stroke-linejoin:round; stroke-width:4; stroke-opacity:1; fill:none" points="156.598,1486.45 156.598,47.2441 "/>
<polyline clip-path="url(#clip330)" style="stroke:#000000; stroke-linecap:round; stroke-linejoin:round; stroke-width:4; stroke-opacity:1; fill:none" points="156.598,1213.72 175.496,1213.72 "/>
<polyline clip-path="url(#clip330)" style="stroke:#000000; stroke-linecap:round; stroke-linejoin:round; stroke-width:4; stroke-opacity:1; fill:none" points="156.598,932.063 175.496,932.063 "/>
<polyline clip-path="url(#clip330)" style="stroke:#000000; stroke-linecap:round; stroke-linejoin:round; stroke-width:4; stroke-opacity:1; fill:none" points="156.598,650.404 175.496,650.404 "/>
<polyline clip-path="url(#clip330)" style="stroke:#000000; stroke-linecap:round; stroke-linejoin:round; stroke-width:4; stroke-opacity:1; fill:none" points="156.598,368.746 175.496,368.746 "/>
<polyline clip-path="url(#clip330)" style="stroke:#000000; stroke-linecap:round; stroke-linejoin:round; stroke-width:4; stroke-opacity:1; fill:none" points="156.598,87.0878 175.496,87.0878 "/>
<path clip-path="url(#clip330)" d="M65.0198 1199.52 Q61.4087 1199.52 59.58 1203.08 Q57.7745 1206.63 57.7745 1213.76 Q57.7745 1220.86 59.58 1224.43 Q61.4087 1227.97 65.0198 1227.97 Q68.6541 1227.97 70.4596 1224.43 Q72.2883 1220.86 72.2883 1213.76 Q72.2883 1206.63 70.4596 1203.08 Q68.6541 1199.52 65.0198 1199.52 M65.0198 1195.82 Q70.83 1195.82 73.8855 1200.42 Q76.9642 1205.01 76.9642 1213.76 Q76.9642 1222.48 73.8855 1227.09 Q70.83 1231.67 65.0198 1231.67 Q59.2097 1231.67 56.131 1227.09 Q53.0754 1222.48 53.0754 1213.76 Q53.0754 1205.01 56.131 1200.42 Q59.2097 1195.82 65.0198 1195.82 Z" fill="#000000" fill-rule="nonzero" fill-opacity="1" /><path clip-path="url(#clip330)" d="M85.1818 1225.12 L90.066 1225.12 L90.066 1231 L85.1818 1231 L85.1818 1225.12 Z" fill="#000000" fill-rule="nonzero" fill-opacity="1" /><path clip-path="url(#clip330)" d="M104.279 1227.07 L120.598 1227.07 L120.598 1231 L98.6539 1231 L98.6539 1227.07 Q101.316 1224.31 105.899 1219.68 Q110.506 1215.03 111.686 1213.69 Q113.932 1211.16 114.811 1209.43 Q115.714 1207.67 115.714 1205.98 Q115.714 1203.22 113.77 1201.49 Q111.848 1199.75 108.746 1199.75 Q106.547 1199.75 104.094 1200.52 Q101.663 1201.28 98.8854 1202.83 L98.8854 1198.11 Q101.709 1196.97 104.163 1196.39 Q106.617 1195.82 108.654 1195.82 Q114.024 1195.82 117.219 1198.5 Q120.413 1201.19 120.413 1205.68 Q120.413 1207.81 119.603 1209.73 Q118.816 1211.63 116.709 1214.22 Q116.131 1214.89 113.029 1218.11 Q109.927 1221.3 104.279 1227.07 Z" fill="#000000" fill-rule="nonzero" fill-opacity="1" /><path clip-path="url(#clip330)" d="M62.9365 917.861 Q59.3254 917.861 57.4967 921.426 Q55.6912 924.968 55.6912 932.097 Q55.6912 939.204 57.4967 942.769 Q59.3254 946.31 62.9365 946.31 Q66.5707 946.31 68.3763 942.769 Q70.205 939.204 70.205 932.097 Q70.205 924.968 68.3763 921.426 Q66.5707 917.861 62.9365 917.861 M62.9365 914.158 Q68.7467 914.158 71.8022 918.764 Q74.8809 923.347 74.8809 932.097 Q74.8809 940.824 71.8022 945.431 Q68.7467 950.014 62.9365 950.014 Q57.1264 950.014 54.0477 945.431 Q50.9921 940.824 50.9921 932.097 Q50.9921 923.347 54.0477 918.764 Q57.1264 914.158 62.9365 914.158 Z" fill="#000000" fill-rule="nonzero" fill-opacity="1" /><path clip-path="url(#clip330)" d="M83.0984 943.463 L87.9827 943.463 L87.9827 949.343 L83.0984 949.343 L83.0984 943.463 Z" fill="#000000" fill-rule="nonzero" fill-opacity="1" /><path clip-path="url(#clip330)" d="M111.015 918.857 L99.2095 937.306 L111.015 937.306 L111.015 918.857 M109.788 914.783 L115.668 914.783 L115.668 937.306 L120.598 937.306 L120.598 941.195 L115.668 941.195 L115.668 949.343 L111.015 949.343 L111.015 941.195 L95.4132 941.195 L95.4132 936.681 L109.788 914.783 Z" fill="#000000" fill-rule="nonzero" fill-opacity="1" /><path clip-path="url(#clip330)" d="M63.2606 636.203 Q59.6495 636.203 57.8208 639.768 Q56.0152 643.31 56.0152 650.439 Q56.0152 657.546 57.8208 661.11 Q59.6495 664.652 63.2606 664.652 Q66.8948 664.652 68.7004 661.11 Q70.5291 657.546 70.5291 650.439 Q70.5291 643.31 68.7004 639.768 Q66.8948 636.203 63.2606 636.203 M63.2606 632.499 Q69.0707 632.499 72.1263 637.106 Q75.205 641.689 75.205 650.439 Q75.205 659.166 72.1263 663.772 Q69.0707 668.356 63.2606 668.356 Q57.4504 668.356 54.3717 663.772 Q51.3162 659.166 51.3162 650.439 Q51.3162 641.689 54.3717 637.106 Q57.4504 632.499 63.2606 632.499 Z" fill="#000000" fill-rule="nonzero" fill-opacity="1" /><path clip-path="url(#clip330)" d="M83.4225 661.805 L88.3067 661.805 L88.3067 667.684 L83.4225 667.684 L83.4225 661.805 Z" fill="#000000" fill-rule="nonzero" fill-opacity="1" /><path clip-path="url(#clip330)" d="M109.071 648.541 Q105.922 648.541 104.071 650.694 Q102.242 652.846 102.242 656.596 Q102.242 660.323 104.071 662.499 Q105.922 664.652 109.071 664.652 Q112.219 664.652 114.047 662.499 Q115.899 660.323 115.899 656.596 Q115.899 652.846 114.047 650.694 Q112.219 648.541 109.071 648.541 M118.353 633.888 L118.353 638.147 Q116.594 637.314 114.788 636.874 Q113.006 636.435 111.246 636.435 Q106.617 636.435 104.163 639.56 Q101.733 642.685 101.385 649.004 Q102.751 646.99 104.811 645.925 Q106.871 644.837 109.348 644.837 Q114.557 644.837 117.566 648.009 Q120.598 651.157 120.598 656.596 Q120.598 661.921 117.45 665.138 Q114.302 668.356 109.071 668.356 Q103.075 668.356 99.9039 663.772 Q96.7326 659.166 96.7326 650.439 Q96.7326 642.245 100.621 637.384 Q104.51 632.499 111.061 632.499 Q112.82 632.499 114.603 632.847 Q116.408 633.194 118.353 633.888 Z" fill="#000000" fill-rule="nonzero" fill-opacity="1" /><path clip-path="url(#clip330)" d="M63.5152 354.545 Q59.9041 354.545 58.0754 358.11 Q56.2699 361.651 56.2699 368.781 Q56.2699 375.887 58.0754 379.452 Q59.9041 382.994 63.5152 382.994 Q67.1494 382.994 68.955 379.452 Q70.7837 375.887 70.7837 368.781 Q70.7837 361.651 68.955 358.11 Q67.1494 354.545 63.5152 354.545 M63.5152 350.841 Q69.3254 350.841 72.3809 355.448 Q75.4596 360.031 75.4596 368.781 Q75.4596 377.508 72.3809 382.114 Q69.3254 386.697 63.5152 386.697 Q57.7051 386.697 54.6264 382.114 Q51.5708 377.508 51.5708 368.781 Q51.5708 360.031 54.6264 355.448 Q57.7051 350.841 63.5152 350.841 Z" fill="#000000" fill-rule="nonzero" fill-opacity="1" /><path clip-path="url(#clip330)" d="M83.6771 380.146 L88.5614 380.146 L88.5614 386.026 L83.6771 386.026 L83.6771 380.146 Z" fill="#000000" fill-rule="nonzero" fill-opacity="1" /><path clip-path="url(#clip330)" d="M108.746 369.614 Q105.413 369.614 103.492 371.397 Q101.594 373.179 101.594 376.304 Q101.594 379.429 103.492 381.211 Q105.413 382.994 108.746 382.994 Q112.08 382.994 114.001 381.211 Q115.922 379.406 115.922 376.304 Q115.922 373.179 114.001 371.397 Q112.103 369.614 108.746 369.614 M104.071 367.623 Q101.061 366.883 99.3715 364.822 Q97.7048 362.762 97.7048 359.799 Q97.7048 355.656 100.645 353.248 Q103.608 350.841 108.746 350.841 Q113.908 350.841 116.848 353.248 Q119.788 355.656 119.788 359.799 Q119.788 362.762 118.098 364.822 Q116.432 366.883 113.445 367.623 Q116.825 368.41 118.7 370.702 Q120.598 372.994 120.598 376.304 Q120.598 381.327 117.52 384.012 Q114.464 386.697 108.746 386.697 Q103.029 386.697 99.9502 384.012 Q96.8947 381.327 96.8947 376.304 Q96.8947 372.994 98.7928 370.702 Q100.691 368.41 104.071 367.623 M102.358 360.239 Q102.358 362.924 104.024 364.429 Q105.714 365.934 108.746 365.934 Q111.756 365.934 113.445 364.429 Q115.158 362.924 115.158 360.239 Q115.158 357.554 113.445 356.049 Q111.756 354.545 108.746 354.545 Q105.714 354.545 104.024 356.049 Q102.358 357.554 102.358 360.239 Z" fill="#000000" fill-rule="nonzero" fill-opacity="1" /><path clip-path="url(#clip330)" d="M54.2328 100.433 L61.8717 100.433 L61.8717 74.067 L53.5616 75.7337 L53.5616 71.4744 L61.8254 69.8078 L66.5013 69.8078 L66.5013 100.433 L74.1402 100.433 L74.1402 104.368 L54.2328 104.368 L54.2328 100.433 Z" fill="#000000" fill-rule="nonzero" fill-opacity="1" /><path clip-path="url(#clip330)" d="M83.5845 98.4882 L88.4688 98.4882 L88.4688 104.368 L83.5845 104.368 L83.5845 98.4882 Z" fill="#000000" fill-rule="nonzero" fill-opacity="1" /><path clip-path="url(#clip330)" d="M108.654 72.8865 Q105.043 72.8865 103.214 76.4513 Q101.409 79.9929 101.409 87.1225 Q101.409 94.229 103.214 97.7937 Q105.043 101.335 108.654 101.335 Q112.288 101.335 114.094 97.7937 Q115.922 94.229 115.922 87.1225 Q115.922 79.9929 114.094 76.4513 Q112.288 72.8865 108.654 72.8865 M108.654 69.1828 Q114.464 69.1828 117.52 73.7892 Q120.598 78.3726 120.598 87.1225 Q120.598 95.8493 117.52 100.456 Q114.464 105.039 108.654 105.039 Q102.844 105.039 99.765 100.456 Q96.7095 95.8493 96.7095 87.1225 Q96.7095 78.3726 99.765 73.7892 Q102.844 69.1828 108.654 69.1828 Z" fill="#000000" fill-rule="nonzero" fill-opacity="1" /><polyline clip-path="url(#clip332)" style="stroke:#009af9; stroke-linecap:round; stroke-linejoin:round; stroke-width:4; stroke-opacity:1; fill:none" points="218.754,1441.21 229.165,1440.15 239.576,1439.06 249.988,1437.93 260.399,1436.77 270.81,1435.58 281.221,1434.35 291.633,1433.08 302.044,1431.78 312.455,1430.43 322.867,1429.04 333.278,1427.6 343.689,1426.12 354.1,1424.59 364.512,1423.01 374.923,1421.38 385.334,1419.69 395.746,1417.95 406.157,1416.14 416.568,1414.27 426.979,1412.34 437.391,1410.34 447.802,1408.27 458.213,1406.12 468.625,1403.9 479.036,1401.59 489.447,1399.2 499.858,1396.71 510.27,1394.13 520.681,1391.45 531.092,1388.67 541.504,1385.77 551.915,1382.76 562.326,1379.63 572.738,1376.37 583.149,1372.98 593.56,1369.44 603.971,1365.75 614.383,1361.9 624.794,1357.89 635.205,1353.7 645.617,1349.32 656.028,1344.74 666.439,1339.96 676.85,1334.95 687.262,1329.71 697.673,1324.22 708.084,1318.46 718.496,1312.42 728.907,1306.09 739.318,1299.44 749.729,1292.45 760.141,1285.11 770.552,1277.38 780.963,1269.25 791.375,1260.68 801.786,1251.66 812.197,1242.14 822.609,1232.1 833.02,1221.5 843.431,1210.3 853.842,1198.46 864.254,1185.94 874.665,1172.69 885.076,1158.66 895.488,1143.8 905.899,1128.05 916.31,1111.36 926.721,1093.66 937.133,1074.88 947.544,1054.95 957.955,1033.81 968.367,1011.38 978.778,987.578 989.189,962.34 999.6,935.588 1010.01,907.252 1020.42,877.268 1030.83,845.579 1041.25,812.144 1051.66,776.938 1062.07,739.958 1072.48,701.232 1082.89,660.828 1093.3,618.855 1103.71,575.481 1114.12,530.939 1124.54,485.533 1134.95,439.654 1145.36,393.776 1155.77,348.467 1166.18,304.38 1176.59,262.245 1187,222.853 1197.41,187.029 1207.83,155.598 1218.24,129.344 1228.65,108.969 1239.06,95.044 1249.47,87.9763 1259.88,87.9763 1270.29,95.044 1280.71,108.969 1291.12,129.344 1301.53,155.598 1311.94,187.029 1322.35,222.853 1332.76,262.245 1343.17,304.38 1353.58,348.467 1364,393.776 1374.41,439.654 1384.82,485.533 1395.23,530.939 1405.64,575.481 1416.05,618.855 1426.46,660.828 1436.87,701.232 1447.29,739.958 1457.7,776.938 1468.11,812.144 1478.52,845.579 1488.93,877.268 1499.34,907.252 1509.75,935.588 1520.16,962.34 1530.58,987.578 1540.99,1011.38 1551.4,1033.81 1561.81,1054.95 1572.22,1074.88 1582.63,1093.66 1593.04,1111.36 1603.46,1128.05 1613.87,1143.8 1624.28,1158.66 1634.69,1172.69 1645.1,1185.94 1655.51,1198.46 1665.92,1210.3 1676.33,1221.5 1686.75,1232.1 1697.16,1242.14 1707.57,1251.66 1717.98,1260.68 1728.39,1269.25 1738.8,1277.38 1749.21,1285.11 1759.62,1292.45 1770.04,1299.44 1780.45,1306.09 1790.86,1312.42 1801.27,1318.46 1811.68,1324.22 1822.09,1329.71 1832.5,1334.95 1842.91,1339.96 1853.33,1344.74 1863.74,1349.32 1874.15,1353.7 1884.56,1357.89 1894.97,1361.9 1905.38,1365.75 1915.79,1369.44 1926.21,1372.98 1936.62,1376.37 1947.03,1379.63 1957.44,1382.76 1967.85,1385.77 1978.26,1388.67 1988.67,1391.45 1999.08,1394.13 2009.5,1396.71 2019.91,1399.2 2030.32,1401.59 2040.73,1403.9 2051.14,1406.12 2061.55,1408.27 2071.96,1410.34 2082.37,1412.34 2092.79,1414.27 2103.2,1416.14 2113.61,1417.95 2124.02,1419.69 2134.43,1421.38 2144.84,1423.01 2155.25,1424.59 2165.67,1426.12 2176.08,1427.6 2186.49,1429.04 2196.9,1430.43 2207.31,1431.78 2217.72,1433.08 2228.13,1434.35 2238.54,1435.58 2248.96,1436.77 2259.37,1437.93 2269.78,1439.06 2280.19,1440.15 2290.6,1441.21 "/>
<polyline clip-path="url(#clip332)" style="stroke:#e26f46; stroke-linecap:round; stroke-linejoin:round; stroke-width:4; stroke-opacity:1; fill:none" points="218.754,1445.72 229.165,1437.2 239.576,1434.39 249.988,1434.6 260.399,1436 270.81,1437.43 281.221,1438.23 291.633,1438.1 302.044,1436.98 312.455,1434.96 322.867,1432.24 333.278,1429.05 343.689,1425.63 354.1,1422.21 364.512,1418.97 374.923,1416.06 385.334,1413.56 395.746,1411.52 406.157,1409.96 416.568,1408.82 426.979,1408.04 437.391,1407.54 447.802,1407.19 458.213,1406.9 468.625,1406.53 479.036,1405.98 489.447,1405.14 499.858,1403.93 510.27,1402.26 520.681,1400.09 531.092,1397.37 541.504,1394.1 551.915,1390.29 562.326,1385.95 572.738,1381.12 583.149,1375.87 593.56,1370.26 603.971,1364.36 614.383,1358.26 624.794,1352.03 635.205,1345.76 645.617,1339.52 656.028,1333.38 666.439,1327.4 676.85,1321.63 687.262,1316.09 697.673,1310.81 708.084,1305.79 718.496,1301 728.907,1296.4 739.318,1291.96 749.729,1287.59 760.141,1283.21 770.552,1278.71 780.963,1273.99 791.375,1268.91 801.786,1263.34 812.197,1257.13 822.609,1250.15 833.02,1242.24 843.431,1233.26 853.842,1223.07 864.254,1211.52 874.665,1198.51 885.076,1183.9 895.488,1167.62 905.899,1149.56 916.31,1129.68 926.721,1107.92 937.133,1084.28 947.544,1058.74 957.955,1031.34 968.367,1002.13 978.778,971.182 989.189,938.598 999.6,904.503 1010.01,869.043 1020.42,832.387 1030.83,794.725 1041.25,756.266 1051.66,717.236 1062.07,677.875 1072.48,638.436 1082.89,599.181 1093.3,560.38 1103.71,522.306 1114.12,485.234 1124.54,449.439 1134.95,415.188 1145.36,382.744 1155.77,352.358 1166.18,324.266 1176.59,298.693 1187,275.843 1197.41,255.899 1207.83,239.023 1218.24,225.353 1228.65,215.001 1239.06,208.052 1249.47,204.564 1259.88,204.564 1270.29,208.052 1280.71,215.001 1291.12,225.353 1301.53,239.023 1311.94,255.899 1322.35,275.843 1332.76,298.693 1343.17,324.266 1353.58,352.358 1364,382.744 1374.41,415.188 1384.82,449.439 1395.23,485.234 1405.64,522.306 1416.05,560.38 1426.46,599.181 1436.87,638.436 1447.29,677.875 1457.7,717.236 1468.11,756.266 1478.52,794.725 1488.93,832.387 1499.34,869.043 1509.75,904.503 1520.16,938.598 1530.58,971.182 1540.99,1002.13 1551.4,1031.34 1561.81,1058.74 1572.22,1084.28 1582.63,1107.92 1593.04,1129.68 1603.46,1149.56 1613.87,1167.62 1624.28,1183.9 1634.69,1198.51 1645.1,1211.52 1655.51,1223.07 1665.92,1233.26 1676.33,1242.24 1686.75,1250.15 1697.16,1257.13 1707.57,1263.34 1717.98,1268.91 1728.39,1273.99 1738.8,1278.71 1749.21,1283.21 1759.62,1287.59 1770.04,1291.96 1780.45,1296.4 1790.86,1301 1801.27,1305.79 1811.68,1310.81 1822.09,1316.09 1832.5,1321.63 1842.91,1327.4 1853.33,1333.38 1863.74,1339.52 1874.15,1345.76 1884.56,1352.03 1894.97,1358.26 1905.38,1364.36 1915.79,1370.26 1926.21,1375.87 1936.62,1381.12 1947.03,1385.95 1957.44,1390.29 1967.85,1394.1 1978.26,1397.37 1988.67,1400.09 1999.08,1402.26 2009.5,1403.93 2019.91,1405.14 2030.32,1405.98 2040.73,1406.53 2051.14,1406.9 2061.55,1407.19 2071.96,1407.54 2082.37,1408.04 2092.79,1408.82 2103.2,1409.96 2113.61,1411.52 2124.02,1413.56 2134.43,1416.06 2144.84,1418.97 2155.25,1422.21 2165.67,1425.63 2176.08,1429.05 2186.49,1432.24 2196.9,1434.96 2207.31,1436.98 2217.72,1438.1 2228.13,1438.23 2238.54,1437.43 2248.96,1436 2259.37,1434.6 2269.78,1434.39 2280.19,1437.2 2290.6,1445.72 "/>
<path clip-path="url(#clip330)" d="M1788.02 250.738 L2279.55 250.738 L2279.55 95.2176 L1788.02 95.2176  Z" fill="#ffffff" fill-rule="evenodd" fill-opacity="1"/>
<polyline clip-path="url(#clip330)" style="stroke:#000000; stroke-linecap:round; stroke-linejoin:round; stroke-width:4; stroke-opacity:1; fill:none" points="1788.02,250.738 2279.55,250.738 2279.55,95.2176 1788.02,95.2176 1788.02,250.738 "/>
<polyline clip-path="url(#clip330)" style="stroke:#009af9; stroke-linecap:round; stroke-linejoin:round; stroke-width:4; stroke-opacity:1; fill:none" points="1812.42,147.058 1958.83,147.058 "/>
<path clip-path="url(#clip330)" d="M1983.23 129.778 L2003.09 129.778 L2003.09 133.713 L1987.9 133.713 L1987.9 143.898 L2001.61 143.898 L2001.61 147.833 L1987.9 147.833 L1987.9 164.338 L1983.23 164.338 L1983.23 129.778 Z" fill="#000000" fill-rule="nonzero" fill-opacity="1" /><path clip-path="url(#clip330)" d="M2007.28 154.106 L2007.28 138.412 L2011.54 138.412 L2011.54 153.944 Q2011.54 157.625 2012.97 159.476 Q2014.41 161.305 2017.28 161.305 Q2020.73 161.305 2022.72 159.106 Q2024.73 156.907 2024.73 153.111 L2024.73 138.412 L2028.99 138.412 L2028.99 164.338 L2024.73 164.338 L2024.73 160.356 Q2023.18 162.717 2021.12 163.875 Q2019.09 165.009 2016.38 165.009 Q2011.91 165.009 2009.59 162.231 Q2007.28 159.453 2007.28 154.106 M2018 137.787 L2018 137.787 Z" fill="#000000" fill-rule="nonzero" fill-opacity="1" /><path clip-path="url(#clip330)" d="M2059.32 148.689 L2059.32 164.338 L2055.06 164.338 L2055.06 148.828 Q2055.06 145.148 2053.62 143.319 Q2052.19 141.49 2049.32 141.49 Q2045.87 141.49 2043.88 143.69 Q2041.89 145.889 2041.89 149.685 L2041.89 164.338 L2037.6 164.338 L2037.6 138.412 L2041.89 138.412 L2041.89 142.44 Q2043.41 140.102 2045.47 138.944 Q2047.56 137.787 2050.27 137.787 Q2054.73 137.787 2057.02 140.565 Q2059.32 143.319 2059.32 148.689 Z" fill="#000000" fill-rule="nonzero" fill-opacity="1" /><path clip-path="url(#clip330)" d="M2067.65 128.319 L2071.93 128.319 L2071.93 149.592 L2084.64 138.412 L2090.08 138.412 L2076.33 150.541 L2090.66 164.338 L2085.1 164.338 L2071.93 151.676 L2071.93 164.338 L2067.65 164.338 L2067.65 128.319 Z" fill="#000000" fill-rule="nonzero" fill-opacity="1" /><path clip-path="url(#clip330)" d="M2113.92 139.407 L2113.92 143.389 Q2112.12 142.393 2110.29 141.907 Q2108.48 141.398 2106.63 141.398 Q2102.49 141.398 2100.2 144.037 Q2097.9 146.652 2097.9 151.398 Q2097.9 156.143 2100.2 158.782 Q2102.49 161.398 2106.63 161.398 Q2108.48 161.398 2110.29 160.912 Q2112.12 160.402 2113.92 159.407 L2113.92 163.342 Q2112.14 164.176 2110.22 164.592 Q2108.32 165.009 2106.17 165.009 Q2100.31 165.009 2096.86 161.328 Q2093.41 157.648 2093.41 151.398 Q2093.41 145.055 2096.89 141.421 Q2100.38 137.787 2106.45 137.787 Q2108.41 137.787 2110.29 138.203 Q2112.16 138.597 2113.92 139.407 Z" fill="#000000" fill-rule="nonzero" fill-opacity="1" /><path clip-path="url(#clip330)" d="M2121.33 138.412 L2125.59 138.412 L2125.59 164.801 Q2125.59 169.754 2123.69 171.976 Q2121.82 174.199 2117.63 174.199 L2116.01 174.199 L2116.01 170.588 L2117.14 170.588 Q2119.57 170.588 2120.45 169.453 Q2121.33 168.342 2121.33 164.801 L2121.33 138.412 M2121.33 128.319 L2125.59 128.319 L2125.59 133.713 L2121.33 133.713 L2121.33 128.319 Z" fill="#000000" fill-rule="nonzero" fill-opacity="1" /><path clip-path="url(#clip330)" d="M2146.28 151.305 Q2141.12 151.305 2139.13 152.486 Q2137.14 153.666 2137.14 156.514 Q2137.14 158.782 2138.62 160.125 Q2140.13 161.444 2142.7 161.444 Q2146.24 161.444 2148.37 158.944 Q2150.52 156.421 2150.52 152.254 L2150.52 151.305 L2146.28 151.305 M2154.78 149.546 L2154.78 164.338 L2150.52 164.338 L2150.52 160.402 Q2149.06 162.763 2146.89 163.898 Q2144.71 165.009 2141.56 165.009 Q2137.58 165.009 2135.22 162.787 Q2132.88 160.541 2132.88 156.791 Q2132.88 152.416 2135.8 150.194 Q2138.74 147.972 2144.55 147.972 L2150.52 147.972 L2150.52 147.555 Q2150.52 144.615 2148.58 143.018 Q2146.65 141.398 2143.16 141.398 Q2140.94 141.398 2138.83 141.93 Q2136.72 142.463 2134.78 143.527 L2134.78 139.592 Q2137.12 138.69 2139.32 138.25 Q2141.52 137.787 2143.6 137.787 Q2149.22 137.787 2152 140.703 Q2154.78 143.62 2154.78 149.546 Z" fill="#000000" fill-rule="nonzero" fill-opacity="1" /><polyline clip-path="url(#clip330)" style="stroke:#e26f46; stroke-linecap:round; stroke-linejoin:round; stroke-width:4; stroke-opacity:1; fill:none" points="1812.42,198.898 1958.83,198.898 "/>
<path clip-path="url(#clip330)" d="M1983.23 181.618 L1987.9 181.618 L1987.9 216.178 L1983.23 216.178 L1983.23 181.618 Z" fill="#000000" fill-rule="nonzero" fill-opacity="1" /><path clip-path="url(#clip330)" d="M2018.58 200.529 L2018.58 216.178 L2014.32 216.178 L2014.32 200.668 Q2014.32 196.988 2012.88 195.159 Q2011.45 193.33 2008.58 193.33 Q2005.13 193.33 2003.14 195.53 Q2001.15 197.729 2001.15 201.525 L2001.15 216.178 L1996.86 216.178 L1996.86 190.252 L2001.15 190.252 L2001.15 194.28 Q2002.67 191.942 2004.73 190.784 Q2006.82 189.627 2009.53 189.627 Q2013.99 189.627 2016.28 192.405 Q2018.58 195.159 2018.58 200.529 Z" fill="#000000" fill-rule="nonzero" fill-opacity="1" /><path clip-path="url(#clip330)" d="M2031.28 182.891 L2031.28 190.252 L2040.06 190.252 L2040.06 193.562 L2031.28 193.562 L2031.28 207.636 Q2031.28 210.807 2032.14 211.71 Q2033.02 212.613 2035.68 212.613 L2040.06 212.613 L2040.06 216.178 L2035.68 216.178 Q2030.75 216.178 2028.88 214.349 Q2027 212.497 2027 207.636 L2027 193.562 L2023.88 193.562 L2023.88 190.252 L2027 190.252 L2027 182.891 L2031.28 182.891 Z" fill="#000000" fill-rule="nonzero" fill-opacity="1" /><path clip-path="url(#clip330)" d="M2067.84 202.15 L2067.84 204.233 L2048.25 204.233 Q2048.53 208.631 2050.89 210.946 Q2053.27 213.238 2057.51 213.238 Q2059.96 213.238 2062.26 212.636 Q2064.57 212.034 2066.84 210.83 L2066.84 214.858 Q2064.55 215.83 2062.14 216.34 Q2059.73 216.849 2057.26 216.849 Q2051.05 216.849 2047.42 213.238 Q2043.81 209.627 2043.81 203.469 Q2043.81 197.104 2047.23 193.377 Q2050.68 189.627 2056.52 189.627 Q2061.75 189.627 2064.78 193.006 Q2067.84 196.363 2067.84 202.15 M2063.58 200.9 Q2063.53 197.405 2061.61 195.321 Q2059.71 193.238 2056.56 193.238 Q2053 193.238 2050.84 195.252 Q2048.71 197.266 2048.39 200.923 L2063.58 200.9 Z" fill="#000000" fill-rule="nonzero" fill-opacity="1" /><path clip-path="url(#clip330)" d="M2089.85 194.233 Q2089.13 193.817 2088.27 193.631 Q2087.44 193.423 2086.42 193.423 Q2082.81 193.423 2080.87 195.784 Q2078.95 198.122 2078.95 202.52 L2078.95 216.178 L2074.66 216.178 L2074.66 190.252 L2078.95 190.252 L2078.95 194.28 Q2080.29 191.918 2082.44 190.784 Q2084.59 189.627 2087.67 189.627 Q2088.11 189.627 2088.65 189.696 Q2089.18 189.743 2089.83 189.858 L2089.85 194.233 Z" fill="#000000" fill-rule="nonzero" fill-opacity="1" /><path clip-path="url(#clip330)" d="M2098.44 212.289 L2098.44 226.039 L2094.15 226.039 L2094.15 190.252 L2098.44 190.252 L2098.44 194.187 Q2099.78 191.872 2101.82 190.761 Q2103.88 189.627 2106.72 189.627 Q2111.45 189.627 2114.39 193.377 Q2117.35 197.127 2117.35 203.238 Q2117.35 209.349 2114.39 213.099 Q2111.45 216.849 2106.72 216.849 Q2103.88 216.849 2101.82 215.738 Q2099.78 214.603 2098.44 212.289 M2112.93 203.238 Q2112.93 198.539 2110.98 195.877 Q2109.06 193.192 2105.68 193.192 Q2102.3 193.192 2100.36 195.877 Q2098.44 198.539 2098.44 203.238 Q2098.44 207.937 2100.36 210.622 Q2102.3 213.284 2105.68 213.284 Q2109.06 213.284 2110.98 210.622 Q2112.93 207.937 2112.93 203.238 Z" fill="#000000" fill-rule="nonzero" fill-opacity="1" /><path clip-path="url(#clip330)" d="M2134.46 193.238 Q2131.03 193.238 2129.04 195.923 Q2127.05 198.585 2127.05 203.238 Q2127.05 207.891 2129.02 210.576 Q2131.01 213.238 2134.46 213.238 Q2137.86 213.238 2139.85 210.553 Q2141.84 207.867 2141.84 203.238 Q2141.84 198.631 2139.85 195.946 Q2137.86 193.238 2134.46 193.238 M2134.46 189.627 Q2140.01 189.627 2143.18 193.238 Q2146.35 196.849 2146.35 203.238 Q2146.35 209.604 2143.18 213.238 Q2140.01 216.849 2134.46 216.849 Q2128.88 216.849 2125.71 213.238 Q2122.56 209.604 2122.56 203.238 Q2122.56 196.849 2125.71 193.238 Q2128.88 189.627 2134.46 189.627 Z" fill="#000000" fill-rule="nonzero" fill-opacity="1" /><path clip-path="url(#clip330)" d="M2153.41 180.159 L2157.67 180.159 L2157.67 216.178 L2153.41 216.178 L2153.41 180.159 Z" fill="#000000" fill-rule="nonzero" fill-opacity="1" /><path clip-path="url(#clip330)" d="M2178.37 203.145 Q2173.2 203.145 2171.21 204.326 Q2169.22 205.506 2169.22 208.354 Q2169.22 210.622 2170.7 211.965 Q2172.21 213.284 2174.78 213.284 Q2178.32 213.284 2180.45 210.784 Q2182.6 208.261 2182.6 204.094 L2182.6 203.145 L2178.37 203.145 M2186.86 201.386 L2186.86 216.178 L2182.6 216.178 L2182.6 212.242 Q2181.14 214.603 2178.97 215.738 Q2176.79 216.849 2173.64 216.849 Q2169.66 216.849 2167.3 214.627 Q2164.96 212.381 2164.96 208.631 Q2164.96 204.256 2167.88 202.034 Q2170.82 199.812 2176.63 199.812 L2182.6 199.812 L2182.6 199.395 Q2182.6 196.455 2180.66 194.858 Q2178.74 193.238 2175.24 193.238 Q2173.02 193.238 2170.91 193.77 Q2168.81 194.303 2166.86 195.367 L2166.86 191.432 Q2169.2 190.53 2171.4 190.09 Q2173.6 189.627 2175.68 189.627 Q2181.31 189.627 2184.08 192.543 Q2186.86 195.46 2186.86 201.386 Z" fill="#000000" fill-rule="nonzero" fill-opacity="1" /><path clip-path="url(#clip330)" d="M2214.29 191.247 L2214.29 195.229 Q2212.49 194.233 2210.66 193.747 Q2208.85 193.238 2207 193.238 Q2202.86 193.238 2200.57 195.877 Q2198.27 198.492 2198.27 203.238 Q2198.27 207.983 2200.57 210.622 Q2202.86 213.238 2207 213.238 Q2208.85 213.238 2210.66 212.752 Q2212.49 212.242 2214.29 211.247 L2214.29 215.182 Q2212.51 216.016 2210.59 216.432 Q2208.69 216.849 2206.54 216.849 Q2200.68 216.849 2197.23 213.168 Q2193.78 209.488 2193.78 203.238 Q2193.78 196.895 2197.26 193.261 Q2200.75 189.627 2206.82 189.627 Q2208.78 189.627 2210.66 190.043 Q2212.53 190.437 2214.29 191.247 Z" fill="#000000" fill-rule="nonzero" fill-opacity="1" /><path clip-path="url(#clip330)" d="M2221.7 190.252 L2225.96 190.252 L2225.96 216.641 Q2225.96 221.594 2224.06 223.816 Q2222.19 226.039 2218 226.039 L2216.38 226.039 L2216.38 222.428 L2217.51 222.428 Q2219.94 222.428 2220.82 221.293 Q2221.7 220.182 2221.7 216.641 L2221.7 190.252 M2221.7 180.159 L2225.96 180.159 L2225.96 185.553 L2221.7 185.553 L2221.7 180.159 Z" fill="#000000" fill-rule="nonzero" fill-opacity="1" /><path clip-path="url(#clip330)" d="M2246.65 203.145 Q2241.49 203.145 2239.5 204.326 Q2237.51 205.506 2237.51 208.354 Q2237.51 210.622 2238.99 211.965 Q2240.5 213.284 2243.07 213.284 Q2246.61 213.284 2248.74 210.784 Q2250.89 208.261 2250.89 204.094 L2250.89 203.145 L2246.65 203.145 M2255.15 201.386 L2255.15 216.178 L2250.89 216.178 L2250.89 212.242 Q2249.43 214.603 2247.26 215.738 Q2245.08 216.849 2241.93 216.849 Q2237.95 216.849 2235.59 214.627 Q2233.25 212.381 2233.25 208.631 Q2233.25 204.256 2236.17 202.034 Q2239.11 199.812 2244.92 199.812 L2250.89 199.812 L2250.89 199.395 Q2250.89 196.455 2248.95 194.858 Q2247.02 193.238 2243.53 193.238 Q2241.31 193.238 2239.2 193.77 Q2237.09 194.303 2235.15 195.367 L2235.15 191.432 Q2237.49 190.53 2239.69 190.09 Q2241.89 189.627 2243.97 189.627 Q2249.59 189.627 2252.37 192.543 Q2255.15 195.46 2255.15 201.386 Z" fill="#000000" fill-rule="nonzero" fill-opacity="1" /></svg>
