<?xml version="1.0" encoding="utf-8"?>
<svg xmlns="http://www.w3.org/2000/svg" xmlns:xlink="http://www.w3.org/1999/xlink" width="600" height="400" viewBox="0 0 2400 1600">
<defs>
  <clipPath id="clip680">
    <rect x="0" y="0" width="2400" height="1600"/>
  </clipPath>
</defs>
<path clip-path="url(#clip680)" d="M0 1600 L2400 1600 L2400 0 L0 0  Z" fill="#ffffff" fill-rule="evenodd" fill-opacity="1"/>
<defs>
  <clipPath id="clip681">
    <rect x="480" y="0" width="1681" height="1600"/>
  </clipPath>
</defs>
<path clip-path="url(#clip680)" d="M156.112 1486.45 L2352.76 1486.45 L2352.76 47.2441 L156.112 47.2441  Z" fill="#ffffff" fill-rule="evenodd" fill-opacity="1"/>
<defs>
  <clipPath id="clip682">
    <rect x="156" y="47" width="2198" height="1440"/>
  </clipPath>
</defs>
<polyline clip-path="url(#clip682)" style="stroke:#000000; stroke-linecap:round; stroke-linejoin:round; stroke-width:2; stroke-opacity:0.1; fill:none" points="425.512,1486.45 425.512,47.2441 "/>
<polyline clip-path="url(#clip682)" style="stroke:#000000; stroke-linecap:round; stroke-linejoin:round; stroke-width:2; stroke-opacity:0.1; fill:none" points="839.973,1486.45 839.973,47.2441 "/>
<polyline clip-path="url(#clip682)" style="stroke:#000000; stroke-linecap:round; stroke-linejoin:round; stroke-width:2; stroke-opacity:0.1; fill:none" points="1254.43,1486.45 1254.43,47.2441 "/>
<polyline clip-path="url(#clip682)" style="stroke:#000000; stroke-linecap:round; stroke-linejoin:round; stroke-width:2; stroke-opacity:0.1; fill:none" points="1668.9,1486.45 1668.9,47.2441 "/>
<polyline clip-path="url(#clip682)" style="stroke:#000000; stroke-linecap:round; stroke-linejoin:round; stroke-width:2; stroke-opacity:0.1; fill:none" points="2083.36,1486.45 2083.36,47.2441 "/>
<polyline clip-path="url(#clip680)" style="stroke:#000000; stroke-linecap:round; stroke-linejoin:round; stroke-width:4; stroke-opacity:1; fill:none" points="156.112,1486.45 2352.76,1486.45 "/>
<polyline clip-path="url(#clip680)" style="stroke:#000000; stroke-linecap:round; stroke-linejoin:round; stroke-width:4; stroke-opacity:1; fill:none" points="425.512,1486.45 425.512,1467.55 "/>
<polyline clip-path="url(#clip680)" style="stroke:#000000; stroke-linecap:round; stroke-linejoin:round; stroke-width:4; stroke-opacity:1; fill:none" points="839.973,1486.45 839.973,1467.55 "/>
<polyline clip-path="url(#clip680)" style="stroke:#000000; stroke-linecap:round; stroke-linejoin:round; stroke-width:4; stroke-opacity:1; fill:none" points="1254.43,1486.45 1254.43,1467.55 "/>
<polyline clip-path="url(#clip680)" style="stroke:#000000; stroke-linecap:round; stroke-linejoin:round; stroke-width:4; stroke-opacity:1; fill:none" points="1668.9,1486.45 1668.9,1467.55 "/>
<polyline clip-path="url(#clip680)" style="stroke:#000000; stroke-linecap:round; stroke-linejoin:round; stroke-width:4; stroke-opacity:1; fill:none" points="2083.36,1486.45 2083.36,1467.55 "/>
<path clip-path="url(#clip680)" d="M394.412 1532.02 L424.088 1532.02 L424.088 1535.95 L394.412 1535.95 L394.412 1532.02 Z" fill="#000000" fill-rule="nonzero" fill-opacity="1" /><path clip-path="url(#clip680)" d="M447.028 1518.36 L435.222 1536.81 L447.028 1536.81 L447.028 1518.36 M445.801 1514.29 L451.681 1514.29 L451.681 1536.81 L456.611 1536.81 L456.611 1540.7 L451.681 1540.7 L451.681 1548.85 L447.028 1548.85 L447.028 1540.7 L431.426 1540.7 L431.426 1536.19 L445.801 1514.29 Z" fill="#000000" fill-rule="nonzero" fill-opacity="1" /><path clip-path="url(#clip680)" d="M809.915 1532.02 L839.591 1532.02 L839.591 1535.95 L809.915 1535.95 L809.915 1532.02 Z" fill="#000000" fill-rule="nonzero" fill-opacity="1" /><path clip-path="url(#clip680)" d="M853.711 1544.91 L870.031 1544.91 L870.031 1548.85 L848.086 1548.85 L848.086 1544.91 Q850.748 1542.16 855.332 1537.53 Q859.938 1532.88 861.119 1531.53 Q863.364 1529.01 864.244 1527.27 Q865.146 1525.51 865.146 1523.82 Q865.146 1521.07 863.202 1519.33 Q861.281 1517.6 858.179 1517.6 Q855.98 1517.6 853.526 1518.36 Q851.096 1519.13 848.318 1520.68 L848.318 1515.95 Q851.142 1514.82 853.596 1514.24 Q856.049 1513.66 858.086 1513.66 Q863.457 1513.66 866.651 1516.35 Q869.845 1519.03 869.845 1523.52 Q869.845 1525.65 869.035 1527.57 Q868.248 1529.47 866.142 1532.07 Q865.563 1532.74 862.461 1535.95 Q859.359 1539.15 853.711 1544.91 Z" fill="#000000" fill-rule="nonzero" fill-opacity="1" /><path clip-path="url(#clip680)" d="M1254.43 1517.37 Q1250.82 1517.37 1248.99 1520.93 Q1247.19 1524.47 1247.19 1531.6 Q1247.19 1538.71 1248.99 1542.27 Q1250.82 1545.82 1254.43 1545.82 Q1258.07 1545.82 1259.87 1542.27 Q1261.7 1538.71 1261.7 1531.6 Q1261.7 1524.47 1259.87 1520.93 Q1258.07 1517.37 1254.43 1517.37 M1254.43 1513.66 Q1260.24 1513.66 1263.3 1518.27 Q1266.38 1522.85 1266.38 1531.6 Q1266.38 1540.33 1263.3 1544.94 Q1260.24 1549.52 1254.43 1549.52 Q1248.62 1549.52 1245.55 1544.94 Q1242.49 1540.33 1242.49 1531.6 Q1242.49 1522.85 1245.55 1518.27 Q1248.62 1513.66 1254.43 1513.66 Z" fill="#000000" fill-rule="nonzero" fill-opacity="1" /><path clip-path="url(#clip680)" d="M1663.55 1544.91 L1679.87 1544.91 L1679.87 1548.85 L1657.92 1548.85 L1657.92 1544.91 Q1660.58 1542.16 1665.17 1537.53 Q1669.77 1532.88 1670.96 1531.53 Q1673.2 1529.01 1674.08 1527.27 Q1674.98 1525.51 1674.98 1523.82 Q1674.98 1521.07 1673.04 1519.33 Q1671.12 1517.6 1668.02 1517.6 Q1665.82 1517.6 1663.36 1518.36 Q1660.93 1519.13 1658.15 1520.68 L1658.15 1515.95 Q1660.98 1514.82 1663.43 1514.24 Q1665.89 1513.66 1667.92 1513.66 Q1673.29 1513.66 1676.49 1516.35 Q1679.68 1519.03 1679.68 1523.52 Q1679.68 1525.65 1678.87 1527.57 Q1678.08 1529.47 1675.98 1532.07 Q1675.4 1532.74 1672.3 1535.95 Q1669.2 1539.15 1663.55 1544.91 Z" fill="#000000" fill-rule="nonzero" fill-opacity="1" /><path clip-path="url(#clip680)" d="M2086.37 1518.36 L2074.56 1536.81 L2086.37 1536.81 L2086.37 1518.36 M2085.14 1514.29 L2091.02 1514.29 L2091.02 1536.81 L2095.95 1536.81 L2095.95 1540.7 L2091.02 1540.7 L2091.02 1548.85 L2086.37 1548.85 L2086.37 1540.7 L2070.76 1540.7 L2070.76 1536.19 L2085.14 1514.29 Z" fill="#000000" fill-rule="nonzero" fill-opacity="1" /><polyline clip-path="url(#clip682)" style="stroke:#000000; stroke-linecap:round; stroke-linejoin:round; stroke-width:2; stroke-opacity:0.1; fill:none" points="156.112,1288.17 2352.76,1288.17 "/>
<polyline clip-path="url(#clip682)" style="stroke:#000000; stroke-linecap:round; stroke-linejoin:round; stroke-width:2; stroke-opacity:0.1; fill:none" points="156.112,981.829 2352.76,981.829 "/>
<polyline clip-path="url(#clip682)" style="stroke:#000000; stroke-linecap:round; stroke-linejoin:round; stroke-width:2; stroke-opacity:0.1; fill:none" points="156.112,675.485 2352.76,675.485 "/>
<polyline clip-path="url(#clip682)" style="stroke:#000000; stroke-linecap:round; stroke-linejoin:round; stroke-width:2; stroke-opacity:0.1; fill:none" points="156.112,369.142 2352.76,369.142 "/>
<polyline clip-path="url(#clip682)" style="stroke:#000000; stroke-linecap:round; stroke-linejoin:round; stroke-width:2; stroke-opacity:0.1; fill:none" points="156.112,62.7977 2352.76,62.7977 "/>
<polyline clip-path="url(#clip680)" style="stroke:#000000; stroke-linecap:round; stroke-linejoin:round; stroke-width:4; stroke-opacity:1; fill:none" points="156.112,1486.45 156.112,47.2441 "/>
<polyline clip-path="url(#clip680)" style="stroke:#000000; stroke-linecap:round; stroke-linejoin:round; stroke-width:4; stroke-opacity:1; fill:none" points="156.112,1288.17 175.01,1288.17 "/>
<polyline clip-path="url(#clip680)" style="stroke:#000000; stroke-linecap:round; stroke-linejoin:round; stroke-width:4; stroke-opacity:1; fill:none" points="156.112,981.829 175.01,981.829 "/>
<polyline clip-path="url(#clip680)" style="stroke:#000000; stroke-linecap:round; stroke-linejoin:round; stroke-width:4; stroke-opacity:1; fill:none" points="156.112,675.485 175.01,675.485 "/>
<polyline clip-path="url(#clip680)" style="stroke:#000000; stroke-linecap:round; stroke-linejoin:round; stroke-width:4; stroke-opacity:1; fill:none" points="156.112,369.142 175.01,369.142 "/>
<polyline clip-path="url(#clip680)" style="stroke:#000000; stroke-linecap:round; stroke-linejoin:round; stroke-width:4; stroke-opacity:1; fill:none" points="156.112,62.7977 175.01,62.7977 "/>
<path clip-path="url(#clip680)" d="M62.9365 1273.97 Q59.3254 1273.97 57.4967 1277.54 Q55.6912 1281.08 55.6912 1288.21 Q55.6912 1295.31 57.4967 1298.88 Q59.3254 1302.42 62.9365 1302.42 Q66.5707 1302.42 68.3763 1298.88 Q70.205 1295.31 70.205 1288.21 Q70.205 1281.08 68.3763 1277.54 Q66.5707 1273.97 62.9365 1273.97 M62.9365 1270.27 Q68.7467 1270.27 71.8022 1274.87 Q74.8809 1279.46 74.8809 1288.21 Q74.8809 1296.93 71.8022 1301.54 Q68.7467 1306.12 62.9365 1306.12 Q57.1264 1306.12 54.0477 1301.54 Q50.9921 1296.93 50.9921 1288.21 Q50.9921 1279.46 54.0477 1274.87 Q57.1264 1270.27 62.9365 1270.27 Z" fill="#000000" fill-rule="nonzero" fill-opacity="1" /><path clip-path="url(#clip680)" d="M83.0984 1299.57 L87.9827 1299.57 L87.9827 1305.45 L83.0984 1305.45 L83.0984 1299.57 Z" fill="#000000" fill-rule="nonzero" fill-opacity="1" /><path clip-path="url(#clip680)" d="M108.168 1273.97 Q104.557 1273.97 102.728 1277.54 Q100.922 1281.08 100.922 1288.21 Q100.922 1295.31 102.728 1298.88 Q104.557 1302.42 108.168 1302.42 Q111.802 1302.42 113.608 1298.88 Q115.436 1295.31 115.436 1288.21 Q115.436 1281.08 113.608 1277.54 Q111.802 1273.97 108.168 1273.97 M108.168 1270.27 Q113.978 1270.27 117.033 1274.87 Q120.112 1279.46 120.112 1288.21 Q120.112 1296.93 117.033 1301.54 Q113.978 1306.12 108.168 1306.12 Q102.358 1306.12 99.2789 1301.54 Q96.2234 1296.93 96.2234 1288.21 Q96.2234 1279.46 99.2789 1274.87 Q102.358 1270.27 108.168 1270.27 Z" fill="#000000" fill-rule="nonzero" fill-opacity="1" /><path clip-path="url(#clip680)" d="M63.9319 967.628 Q60.3208 967.628 58.4921 971.193 Q56.6865 974.735 56.6865 981.864 Q56.6865 988.971 58.4921 992.535 Q60.3208 996.077 63.9319 996.077 Q67.5661 996.077 69.3717 992.535 Q71.2004 988.971 71.2004 981.864 Q71.2004 974.735 69.3717 971.193 Q67.5661 967.628 63.9319 967.628 M63.9319 963.924 Q69.742 963.924 72.7976 968.531 Q75.8763 973.114 75.8763 981.864 Q75.8763 990.591 72.7976 995.197 Q69.742 999.781 63.9319 999.781 Q58.1217 999.781 55.043 995.197 Q51.9875 990.591 51.9875 981.864 Q51.9875 973.114 55.043 968.531 Q58.1217 963.924 63.9319 963.924 Z" fill="#000000" fill-rule="nonzero" fill-opacity="1" /><path clip-path="url(#clip680)" d="M84.0938 993.23 L88.978 993.23 L88.978 999.109 L84.0938 999.109 L84.0938 993.23 Z" fill="#000000" fill-rule="nonzero" fill-opacity="1" /><path clip-path="url(#clip680)" d="M99.2095 964.549 L117.566 964.549 L117.566 968.485 L103.492 968.485 L103.492 976.957 Q104.51 976.61 105.529 976.447 Q106.547 976.262 107.566 976.262 Q113.353 976.262 116.733 979.434 Q120.112 982.605 120.112 988.021 Q120.112 993.6 116.64 996.702 Q113.168 999.781 106.848 999.781 Q104.672 999.781 102.404 999.41 Q100.159 999.04 97.7511 998.299 L97.7511 993.6 Q99.8345 994.734 102.057 995.29 Q104.279 995.846 106.756 995.846 Q110.76 995.846 113.098 993.739 Q115.436 991.633 115.436 988.021 Q115.436 984.41 113.098 982.304 Q110.76 980.197 106.756 980.197 Q104.881 980.197 103.006 980.614 Q101.154 981.031 99.2095 981.91 L99.2095 964.549 Z" fill="#000000" fill-rule="nonzero" fill-opacity="1" /><path clip-path="url(#clip680)" d="M53.7467 688.83 L61.3856 688.83 L61.3856 662.465 L53.0754 664.131 L53.0754 659.872 L61.3393 658.205 L66.0152 658.205 L66.0152 688.83 L73.654 688.83 L73.654 692.765 L53.7467 692.765 L53.7467 688.83 Z" fill="#000000" fill-rule="nonzero" fill-opacity="1" /><path clip-path="url(#clip680)" d="M83.0984 686.886 L87.9827 686.886 L87.9827 692.765 L83.0984 692.765 L83.0984 686.886 Z" fill="#000000" fill-rule="nonzero" fill-opacity="1" /><path clip-path="url(#clip680)" d="M108.168 661.284 Q104.557 661.284 102.728 664.849 Q100.922 668.391 100.922 675.52 Q100.922 682.627 102.728 686.191 Q104.557 689.733 108.168 689.733 Q111.802 689.733 113.608 686.191 Q115.436 682.627 115.436 675.52 Q115.436 668.391 113.608 664.849 Q111.802 661.284 108.168 661.284 M108.168 657.581 Q113.978 657.581 117.033 662.187 Q120.112 666.77 120.112 675.52 Q120.112 684.247 117.033 688.853 Q113.978 693.437 108.168 693.437 Q102.358 693.437 99.2789 688.853 Q96.2234 684.247 96.2234 675.52 Q96.2234 666.77 99.2789 662.187 Q102.358 657.581 108.168 657.581 Z" fill="#000000" fill-rule="nonzero" fill-opacity="1" /><path clip-path="url(#clip680)" d="M54.7421 382.486 L62.381 382.486 L62.381 356.121 L54.0708 357.787 L54.0708 353.528 L62.3347 351.862 L67.0106 351.862 L67.0106 382.486 L74.6494 382.486 L74.6494 386.422 L54.7421 386.422 L54.7421 382.486 Z" fill="#000000" fill-rule="nonzero" fill-opacity="1" /><path clip-path="url(#clip680)" d="M84.0938 380.542 L88.978 380.542 L88.978 386.422 L84.0938 386.422 L84.0938 380.542 Z" fill="#000000" fill-rule="nonzero" fill-opacity="1" /><path clip-path="url(#clip680)" d="M99.2095 351.862 L117.566 351.862 L117.566 355.797 L103.492 355.797 L103.492 364.269 Q104.51 363.922 105.529 363.76 Q106.547 363.574 107.566 363.574 Q113.353 363.574 116.733 366.746 Q120.112 369.917 120.112 375.334 Q120.112 380.912 116.64 384.014 Q113.168 387.093 106.848 387.093 Q104.672 387.093 102.404 386.723 Q100.159 386.352 97.7511 385.611 L97.7511 380.912 Q99.8345 382.047 102.057 382.602 Q104.279 383.158 106.756 383.158 Q110.76 383.158 113.098 381.051 Q115.436 378.945 115.436 375.334 Q115.436 371.723 113.098 369.616 Q110.76 367.51 106.756 367.51 Q104.881 367.51 103.006 367.926 Q101.154 368.343 99.2095 369.223 L99.2095 351.862 Z" fill="#000000" fill-rule="nonzero" fill-opacity="1" /><path clip-path="url(#clip680)" d="M56.9643 76.1425 L73.2837 76.1425 L73.2837 80.0777 L51.3393 80.0777 L51.3393 76.1425 Q54.0014 73.3879 58.5847 68.7583 Q63.1911 64.1056 64.3717 62.763 Q66.617 60.2398 67.4967 58.5037 Q68.3994 56.7445 68.3994 55.0547 Q68.3994 52.3001 66.455 50.564 Q64.5337 48.8279 61.4319 48.8279 Q59.2328 48.8279 56.7791 49.5917 Q54.3486 50.3556 51.5708 51.9066 L51.5708 47.1844 Q54.3949 46.0501 56.8486 45.4714 Q59.3023 44.8927 61.3393 44.8927 Q66.7096 44.8927 69.9041 47.5779 Q73.0985 50.263 73.0985 54.7538 Q73.0985 56.8834 72.2883 58.8047 Q71.5013 60.7028 69.3948 63.2954 Q68.8161 63.9667 65.7143 67.1842 Q62.6124 70.3787 56.9643 76.1425 Z" fill="#000000" fill-rule="nonzero" fill-opacity="1" /><path clip-path="url(#clip680)" d="M83.0984 74.1981 L87.9827 74.1981 L87.9827 80.0777 L83.0984 80.0777 L83.0984 74.1981 Z" fill="#000000" fill-rule="nonzero" fill-opacity="1" /><path clip-path="url(#clip680)" d="M108.168 48.5964 Q104.557 48.5964 102.728 52.1612 Q100.922 55.7028 100.922 62.8324 Q100.922 69.9389 102.728 73.5037 Q104.557 77.0453 108.168 77.0453 Q111.802 77.0453 113.608 73.5037 Q115.436 69.9389 115.436 62.8324 Q115.436 55.7028 113.608 52.1612 Q111.802 48.5964 108.168 48.5964 M108.168 44.8927 Q113.978 44.8927 117.033 49.4992 Q120.112 54.0825 120.112 62.8324 Q120.112 71.5592 117.033 76.1657 Q113.978 80.749 108.168 80.749 Q102.358 80.749 99.2789 76.1657 Q96.2234 71.5592 96.2234 62.8324 Q96.2234 54.0825 99.2789 49.4992 Q102.358 44.8927 108.168 44.8927 Z" fill="#000000" fill-rule="nonzero" fill-opacity="1" /><polyline clip-path="url(#clip682)" style="stroke:#009af9; stroke-linecap:round; stroke-linejoin:round; stroke-width:4; stroke-opacity:1; fill:none" points="218.281,1264.61 228.695,1264.15 239.108,1263.67 249.522,1263.18 259.936,1262.68 270.349,1262.16 280.763,1261.62 291.176,1261.07 301.59,1260.5 312.004,1259.92 322.417,1259.31 332.831,1258.69 343.244,1258.04 353.658,1257.38 364.072,1256.69 374.485,1255.98 384.899,1255.24 395.312,1254.49 405.726,1253.7 416.14,1252.89 426.553,1252.05 436.967,1251.18 447.38,1250.28 457.794,1249.34 468.208,1248.37 478.621,1247.37 489.035,1246.33 499.448,1245.25 509.862,1244.12 520.276,1242.96 530.689,1241.75 541.103,1240.49 551.516,1239.18 561.93,1237.82 572.344,1236.4 582.757,1234.92 593.171,1233.38 603.584,1231.78 613.998,1230.1 624.412,1228.36 634.825,1226.53 645.239,1224.63 655.652,1222.64 666.066,1220.56 676.479,1218.38 686.893,1216.1 697.307,1213.71 707.72,1211.2 718.134,1208.58 728.547,1205.82 738.961,1202.93 749.375,1199.89 759.788,1196.69 770.202,1193.33 780.615,1189.79 791.029,1186.07 801.443,1182.14 811.856,1178 822.27,1173.63 832.683,1169.02 843.097,1164.15 853.511,1158.99 863.924,1153.55 874.338,1147.78 884.751,1141.68 895.165,1135.22 905.579,1128.37 915.992,1121.1 926.406,1113.4 936.819,1105.23 947.233,1096.56 957.647,1087.36 968.06,1077.6 978.474,1067.25 988.887,1056.27 999.301,1044.63 1009.71,1032.3 1020.13,1019.26 1030.54,1005.47 1040.96,990.927 1051.37,975.61 1061.78,959.521 1072.2,942.674 1082.61,925.095 1093.02,906.835 1103.44,887.965 1113.85,868.586 1124.26,848.832 1134.68,828.872 1145.09,808.913 1155.5,789.201 1165.92,770.02 1176.33,751.689 1186.75,734.551 1197.16,718.966 1207.57,705.291 1217.99,693.869 1228.4,685.005 1238.81,678.947 1249.23,675.872 1259.64,675.872 1270.05,678.947 1280.47,685.005 1290.88,693.869 1301.3,705.291 1311.71,718.966 1322.12,734.551 1332.54,751.689 1342.95,770.02 1353.36,789.201 1363.78,808.913 1374.19,828.872 1384.6,848.832 1395.02,868.586 1405.43,887.965 1415.84,906.835 1426.26,925.095 1436.67,942.674 1447.09,959.521 1457.5,975.61 1467.91,990.927 1478.33,1005.47 1488.74,1019.26 1499.15,1032.3 1509.57,1044.63 1519.98,1056.27 1530.39,1067.25 1540.81,1077.6 1551.22,1087.36 1561.64,1096.56 1572.05,1105.23 1582.46,1113.4 1592.88,1121.1 1603.29,1128.37 1613.7,1135.22 1624.12,1141.68 1634.53,1147.78 1644.94,1153.55 1655.36,1158.99 1665.77,1164.15 1676.18,1169.02 1686.6,1173.63 1697.01,1178 1707.43,1182.14 1717.84,1186.07 1728.25,1189.79 1738.67,1193.33 1749.08,1196.69 1759.49,1199.89 1769.91,1202.93 1780.32,1205.82 1790.73,1208.58 1801.15,1211.2 1811.56,1213.71 1821.97,1216.1 1832.39,1218.38 1842.8,1220.56 1853.22,1222.64 1863.63,1224.63 1874.04,1226.53 1884.46,1228.36 1894.87,1230.1 1905.28,1231.78 1915.7,1233.38 1926.11,1234.92 1936.52,1236.4 1946.94,1237.82 1957.35,1239.18 1967.77,1240.49 1978.18,1241.75 1988.59,1242.96 1999.01,1244.12 2009.42,1245.25 2019.83,1246.33 2030.25,1247.37 2040.66,1248.37 2051.07,1249.34 2061.49,1250.28 2071.9,1251.18 2082.31,1252.05 2092.73,1252.89 2103.14,1253.7 2113.56,1254.49 2123.97,1255.24 2134.38,1255.98 2144.8,1256.69 2155.21,1257.38 2165.62,1258.04 2176.04,1258.69 2186.45,1259.31 2196.86,1259.92 2207.28,1260.5 2217.69,1261.07 2228.11,1261.62 2238.52,1262.16 2248.93,1262.68 2259.35,1263.18 2269.76,1263.67 2280.17,1264.15 2290.59,1264.61 "/>
<polyline clip-path="url(#clip682)" style="stroke:#e26f46; stroke-linecap:round; stroke-linejoin:round; stroke-width:4; stroke-opacity:1; fill:none" points="218.281,1264.61 228.695,841.501 239.108,531.775 249.522,316.917 259.936,180.596 270.349,108.463 280.763,87.9763 291.176,108.231 301.59,159.805 312.004,234.61 322.417,325.762 332.831,427.453 343.244,534.837 353.658,643.923 364.072,751.479 374.485,854.94 384.899,952.326 395.312,1042.17 405.726,1123.43 416.14,1195.47 426.553,1257.95 436.967,1310.81 447.38,1354.21 457.794,1388.49 468.208,1414.15 478.621,1431.77 489.035,1442.05 499.448,1445.72 509.862,1443.54 520.276,1436.3 530.689,1424.79 541.103,1409.77 551.516,1391.98 561.93,1372.12 572.344,1350.85 582.757,1328.76 593.171,1306.4 603.584,1284.27 613.998,1262.79 624.412,1242.33 634.825,1223.2 645.239,1205.63 655.652,1189.82 666.066,1175.9 676.479,1163.96 686.893,1154.02 697.307,1146.08 707.72,1140.07 718.134,1135.91 728.547,1133.48 738.961,1132.63 749.375,1133.18 759.788,1134.94 770.202,1137.71 780.615,1141.27 791.029,1145.39 801.443,1149.85 811.856,1154.42 822.27,1158.89 832.683,1163.03 843.097,1166.66 853.511,1169.56 863.924,1171.57 874.338,1172.53 884.751,1172.3 895.165,1170.75 905.579,1167.8 915.992,1163.34 926.406,1157.35 936.819,1149.76 947.233,1140.59 957.647,1129.83 968.06,1117.51 978.474,1103.7 988.887,1088.45 999.301,1071.87 1009.71,1054.06 1020.13,1035.15 1030.54,1015.27 1040.96,994.571 1051.37,973.222 1061.78,951.391 1072.2,929.257 1082.61,907.004 1093.02,884.818 1103.44,862.888 1113.85,841.402 1124.26,820.544 1134.68,800.496 1145.09,781.433 1155.5,763.52 1165.92,746.914 1176.33,731.763 1186.75,718.198 1197.16,706.34 1207.57,696.294 1217.99,688.148 1228.4,681.975 1238.81,677.829 1249.23,675.746 1259.64,675.746 1270.05,677.829 1280.47,681.975 1290.88,688.148 1301.3,696.294 1311.71,706.34 1322.12,718.198 1332.54,731.763 1342.95,746.914 1353.36,763.52 1363.78,781.433 1374.19,800.496 1384.6,820.544 1395.02,841.402 1405.43,862.888 1415.84,884.818 1426.26,907.004 1436.67,929.257 1447.09,951.391 1457.5,973.222 1467.91,994.571 1478.33,1015.27 1488.74,1035.15 1499.15,1054.06 1509.57,1071.87 1519.98,1088.45 1530.39,1103.7 1540.81,1117.51 1551.22,1129.83 1561.64,1140.59 1572.05,1149.76 1582.46,1157.35 1592.88,1163.34 1603.29,1167.8 1613.7,1170.75 1624.12,1172.3 1634.53,1172.53 1644.94,1171.57 1655.36,1169.56 1665.77,1166.66 1676.18,1163.03 1686.6,1158.89 1697.01,1154.42 1707.43,1149.85 1717.84,1145.39 1728.25,1141.27 1738.67,1137.71 1749.08,1134.94 1759.49,1133.18 1769.91,1132.63 1780.32,1133.48 1790.73,1135.91 1801.15,1140.07 1811.56,1146.08 1821.97,1154.02 1832.39,1163.96 1842.8,1175.9 1853.22,1189.82 1863.63,1205.63 1874.04,1223.2 1884.46,1242.33 1894.87,1262.79 1905.28,1284.27 1915.7,1306.4 1926.11,1328.76 1936.52,1350.85 1946.94,1372.12 1957.35,1391.98 1967.77,1409.77 1978.18,1424.79 1988.59,1436.3 1999.01,1443.54 2009.42,1445.72 2019.83,1442.05 2030.25,1431.77 2040.66,1414.15 2051.07,1388.49 2061.49,1354.21 2071.9,1310.81 2082.31,1257.95 2092.73,1195.47 2103.14,1123.43 2113.56,1042.17 2123.97,952.326 2134.38,854.94 2144.8,751.479 2155.21,643.923 2165.62,534.837 2176.04,427.453 2186.45,325.762 2196.86,234.61 2207.28,159.805 2217.69,108.231 2228.11,87.9763 2238.52,108.463 2248.93,180.596 2259.35,316.917 2269.76,531.775 2280.17,841.501 2290.59,1264.61 "/>
<path clip-path="url(#clip680)" d="M1787.95 250.738 L2279.53 250.738 L2279.53 95.2176 L1787.95 95.2176  Z" fill="#ffffff" fill-rule="evenodd" fill-opacity="1"/>
<polyline clip-path="url(#clip680)" style="stroke:#000000; stroke-linecap:round; stroke-linejoin:round; stroke-width:4; stroke-opacity:1; fill:none" points="1787.95,250.738 2279.53,250.738 2279.53,95.2176 1787.95,95.2176 1787.95,250.738 "/>
<polyline clip-path="url(#clip680)" style="stroke:#009af9; stroke-linecap:round; stroke-linejoin:round; stroke-width:4; stroke-opacity:1; fill:none" points="1812.36,147.058 1958.8,147.058 "/>
<path clip-path="url(#clip680)" d="M1983.21 129.778 L2003.07 129.778 L2003.07 133.713 L1987.88 133.713 L1987.88 143.898 L2001.59 143.898 L2001.59 147.833 L1987.88 147.833 L1987.88 164.338 L1983.21 164.338 L1983.21 129.778 Z" fill="#000000" fill-rule="nonzero" fill-opacity="1" /><path clip-path="url(#clip680)" d="M2007.26 154.106 L2007.26 138.412 L2011.52 138.412 L2011.52 153.944 Q2011.52 157.625 2012.95 159.476 Q2014.39 161.305 2017.26 161.305 Q2020.71 161.305 2022.7 159.106 Q2024.71 156.907 2024.71 153.111 L2024.71 138.412 L2028.97 138.412 L2028.97 164.338 L2024.71 164.338 L2024.71 160.356 Q2023.16 162.717 2021.1 163.875 Q2019.06 165.009 2016.36 165.009 Q2011.89 165.009 2009.57 162.231 Q2007.26 159.453 2007.26 154.106 M2017.98 137.787 L2017.98 137.787 Z" fill="#000000" fill-rule="nonzero" fill-opacity="1" /><path clip-path="url(#clip680)" d="M2059.3 148.689 L2059.3 164.338 L2055.04 164.338 L2055.04 148.828 Q2055.04 145.148 2053.6 143.319 Q2052.17 141.49 2049.3 141.49 Q2045.85 141.49 2043.86 143.69 Q2041.86 145.889 2041.86 149.685 L2041.86 164.338 L2037.58 164.338 L2037.58 138.412 L2041.86 138.412 L2041.86 142.44 Q2043.39 140.102 2045.45 138.944 Q2047.54 137.787 2050.24 137.787 Q2054.71 137.787 2057 140.565 Q2059.3 143.319 2059.3 148.689 Z" fill="#000000" fill-rule="nonzero" fill-opacity="1" /><path clip-path="url(#clip680)" d="M2067.63 128.319 L2071.91 128.319 L2071.91 149.592 L2084.62 138.412 L2090.06 138.412 L2076.31 150.541 L2090.64 164.338 L2085.08 164.338 L2071.91 151.676 L2071.91 164.338 L2067.63 164.338 L2067.63 128.319 Z" fill="#000000" fill-rule="nonzero" fill-opacity="1" /><path clip-path="url(#clip680)" d="M2113.9 139.407 L2113.9 143.389 Q2112.1 142.393 2110.27 141.907 Q2108.46 141.398 2106.61 141.398 Q2102.47 141.398 2100.17 144.037 Q2097.88 146.652 2097.88 151.398 Q2097.88 156.143 2100.17 158.782 Q2102.47 161.398 2106.61 161.398 Q2108.46 161.398 2110.27 160.912 Q2112.1 160.402 2113.9 159.407 L2113.9 163.342 Q2112.12 164.176 2110.2 164.592 Q2108.3 165.009 2106.15 165.009 Q2100.29 165.009 2096.84 161.328 Q2093.39 157.648 2093.39 151.398 Q2093.39 145.055 2096.86 141.421 Q2100.36 137.787 2106.42 137.787 Q2108.39 137.787 2110.27 138.203 Q2112.14 138.597 2113.9 139.407 Z" fill="#000000" fill-rule="nonzero" fill-opacity="1" /><path clip-path="url(#clip680)" d="M2121.31 138.412 L2125.57 138.412 L2125.57 164.801 Q2125.57 169.754 2123.67 171.976 Q2121.79 174.199 2117.6 174.199 L2115.98 174.199 L2115.98 170.588 L2117.12 170.588 Q2119.55 170.588 2120.43 169.453 Q2121.31 168.342 2121.31 164.801 L2121.31 138.412 M2121.31 128.319 L2125.57 128.319 L2125.57 133.713 L2121.31 133.713 L2121.31 128.319 Z" fill="#000000" fill-rule="nonzero" fill-opacity="1" /><path clip-path="url(#clip680)" d="M2146.26 151.305 Q2141.1 151.305 2139.11 152.486 Q2137.12 153.666 2137.12 156.514 Q2137.12 158.782 2138.6 160.125 Q2140.1 161.444 2142.67 161.444 Q2146.22 161.444 2148.35 158.944 Q2150.5 156.421 2150.5 152.254 L2150.5 151.305 L2146.26 151.305 M2154.76 149.546 L2154.76 164.338 L2150.5 164.338 L2150.5 160.402 Q2149.04 162.763 2146.86 163.898 Q2144.69 165.009 2141.54 165.009 Q2137.56 165.009 2135.2 162.787 Q2132.86 160.541 2132.86 156.791 Q2132.86 152.416 2135.78 150.194 Q2138.72 147.972 2144.53 147.972 L2150.5 147.972 L2150.5 147.555 Q2150.5 144.615 2148.55 143.018 Q2146.63 141.398 2143.14 141.398 Q2140.91 141.398 2138.81 141.93 Q2136.7 142.463 2134.76 143.527 L2134.76 139.592 Q2137.1 138.69 2139.29 138.25 Q2141.49 137.787 2143.58 137.787 Q2149.2 137.787 2151.98 140.703 Q2154.76 143.62 2154.76 149.546 Z" fill="#000000" fill-rule="nonzero" fill-opacity="1" /><polyline clip-path="url(#clip680)" style="stroke:#e26f46; stroke-linecap:round; stroke-linejoin:round; stroke-width:4; stroke-opacity:1; fill:none" points="1812.36,198.898 1958.8,198.898 "/>
<path clip-path="url(#clip680)" d="M1983.21 181.618 L1987.88 181.618 L1987.88 216.178 L1983.21 216.178 L1983.21 181.618 Z" fill="#000000" fill-rule="nonzero" fill-opacity="1" /><path clip-path="url(#clip680)" d="M2018.55 200.529 L2018.55 216.178 L2014.3 216.178 L2014.3 200.668 Q2014.3 196.988 2012.86 195.159 Q2011.42 193.33 2008.55 193.33 Q2005.11 193.33 2003.11 195.53 Q2001.12 197.729 2001.12 201.525 L2001.12 216.178 L1996.84 216.178 L1996.84 190.252 L2001.12 190.252 L2001.12 194.28 Q2002.65 191.942 2004.71 190.784 Q2006.8 189.627 2009.5 189.627 Q2013.97 189.627 2016.26 192.405 Q2018.55 195.159 2018.55 200.529 Z" fill="#000000" fill-rule="nonzero" fill-opacity="1" /><path clip-path="url(#clip680)" d="M2031.26 182.891 L2031.26 190.252 L2040.04 190.252 L2040.04 193.562 L2031.26 193.562 L2031.26 207.636 Q2031.26 210.807 2032.12 211.71 Q2033 212.613 2035.66 212.613 L2040.04 212.613 L2040.04 216.178 L2035.66 216.178 Q2030.73 216.178 2028.86 214.349 Q2026.98 212.497 2026.98 207.636 L2026.98 193.562 L2023.86 193.562 L2023.86 190.252 L2026.98 190.252 L2026.98 182.891 L2031.26 182.891 Z" fill="#000000" fill-rule="nonzero" fill-opacity="1" /><path clip-path="url(#clip680)" d="M2067.81 202.15 L2067.81 204.233 L2048.23 204.233 Q2048.51 208.631 2050.87 210.946 Q2053.25 213.238 2057.49 213.238 Q2059.94 213.238 2062.23 212.636 Q2064.55 212.034 2066.82 210.83 L2066.82 214.858 Q2064.53 215.83 2062.12 216.34 Q2059.71 216.849 2057.23 216.849 Q2051.03 216.849 2047.4 213.238 Q2043.79 209.627 2043.79 203.469 Q2043.79 197.104 2047.21 193.377 Q2050.66 189.627 2056.49 189.627 Q2061.73 189.627 2064.76 193.006 Q2067.81 196.363 2067.81 202.15 M2063.55 200.9 Q2063.51 197.405 2061.59 195.321 Q2059.69 193.238 2056.54 193.238 Q2052.98 193.238 2050.82 195.252 Q2048.69 197.266 2048.37 200.923 L2063.55 200.9 Z" fill="#000000" fill-rule="nonzero" fill-opacity="1" /><path clip-path="url(#clip680)" d="M2089.83 194.233 Q2089.11 193.817 2088.25 193.631 Q2087.42 193.423 2086.4 193.423 Q2082.79 193.423 2080.85 195.784 Q2078.92 198.122 2078.92 202.52 L2078.92 216.178 L2074.64 216.178 L2074.64 190.252 L2078.92 190.252 L2078.92 194.28 Q2080.27 191.918 2082.42 190.784 Q2084.57 189.627 2087.65 189.627 Q2088.09 189.627 2088.62 189.696 Q2089.16 189.743 2089.8 189.858 L2089.83 194.233 Z" fill="#000000" fill-rule="nonzero" fill-opacity="1" /><path clip-path="url(#clip680)" d="M2098.42 212.289 L2098.42 226.039 L2094.13 226.039 L2094.13 190.252 L2098.42 190.252 L2098.42 194.187 Q2099.76 191.872 2101.79 190.761 Q2103.85 189.627 2106.7 189.627 Q2111.42 189.627 2114.36 193.377 Q2117.33 197.127 2117.33 203.238 Q2117.33 209.349 2114.36 213.099 Q2111.42 216.849 2106.7 216.849 Q2103.85 216.849 2101.79 215.738 Q2099.76 214.603 2098.42 212.289 M2112.91 203.238 Q2112.91 198.539 2110.96 195.877 Q2109.04 193.192 2105.66 193.192 Q2102.28 193.192 2100.34 195.877 Q2098.42 198.539 2098.42 203.238 Q2098.42 207.937 2100.34 210.622 Q2102.28 213.284 2105.66 213.284 Q2109.04 213.284 2110.96 210.622 Q2112.91 207.937 2112.91 203.238 Z" fill="#000000" fill-rule="nonzero" fill-opacity="1" /><path clip-path="url(#clip680)" d="M2134.43 193.238 Q2131.01 193.238 2129.02 195.923 Q2127.03 198.585 2127.03 203.238 Q2127.03 207.891 2128.99 210.576 Q2130.98 213.238 2134.43 213.238 Q2137.84 213.238 2139.83 210.553 Q2141.82 207.867 2141.82 203.238 Q2141.82 198.631 2139.83 195.946 Q2137.84 193.238 2134.43 193.238 M2134.43 189.627 Q2139.99 189.627 2143.16 193.238 Q2146.33 196.849 2146.33 203.238 Q2146.33 209.604 2143.16 213.238 Q2139.99 216.849 2134.43 216.849 Q2128.85 216.849 2125.68 213.238 Q2122.54 209.604 2122.54 203.238 Q2122.54 196.849 2125.68 193.238 Q2128.85 189.627 2134.43 189.627 Z" fill="#000000" fill-rule="nonzero" fill-opacity="1" /><path clip-path="url(#clip680)" d="M2153.39 180.159 L2157.65 180.159 L2157.65 216.178 L2153.39 216.178 L2153.39 180.159 Z" fill="#000000" fill-rule="nonzero" fill-opacity="1" /><path clip-path="url(#clip680)" d="M2178.35 203.145 Q2173.18 203.145 2171.19 204.326 Q2169.2 205.506 2169.2 208.354 Q2169.2 210.622 2170.68 211.965 Q2172.19 213.284 2174.76 213.284 Q2178.3 213.284 2180.43 210.784 Q2182.58 208.261 2182.58 204.094 L2182.58 203.145 L2178.35 203.145 M2186.84 201.386 L2186.84 216.178 L2182.58 216.178 L2182.58 212.242 Q2181.12 214.603 2178.95 215.738 Q2176.77 216.849 2173.62 216.849 Q2169.64 216.849 2167.28 214.627 Q2164.94 212.381 2164.94 208.631 Q2164.94 204.256 2167.86 202.034 Q2170.8 199.812 2176.61 199.812 L2182.58 199.812 L2182.58 199.395 Q2182.58 196.455 2180.64 194.858 Q2178.72 193.238 2175.22 193.238 Q2173 193.238 2170.89 193.77 Q2168.79 194.303 2166.84 195.367 L2166.84 191.432 Q2169.18 190.53 2171.38 190.09 Q2173.58 189.627 2175.66 189.627 Q2181.29 189.627 2184.06 192.543 Q2186.84 195.46 2186.84 201.386 Z" fill="#000000" fill-rule="nonzero" fill-opacity="1" /><path clip-path="url(#clip680)" d="M2214.27 191.247 L2214.27 195.229 Q2212.47 194.233 2210.64 193.747 Q2208.83 193.238 2206.98 193.238 Q2202.84 193.238 2200.54 195.877 Q2198.25 198.492 2198.25 203.238 Q2198.25 207.983 2200.54 210.622 Q2202.84 213.238 2206.98 213.238 Q2208.83 213.238 2210.64 212.752 Q2212.47 212.242 2214.27 211.247 L2214.27 215.182 Q2212.49 216.016 2210.57 216.432 Q2208.67 216.849 2206.52 216.849 Q2200.66 216.849 2197.21 213.168 Q2193.76 209.488 2193.76 203.238 Q2193.76 196.895 2197.23 193.261 Q2200.73 189.627 2206.79 189.627 Q2208.76 189.627 2210.64 190.043 Q2212.51 190.437 2214.27 191.247 Z" fill="#000000" fill-rule="nonzero" fill-opacity="1" /><path clip-path="url(#clip680)" d="M2221.68 190.252 L2225.94 190.252 L2225.94 216.641 Q2225.94 221.594 2224.04 223.816 Q2222.16 226.039 2217.97 226.039 L2216.35 226.039 L2216.35 222.428 L2217.49 222.428 Q2219.92 222.428 2220.8 221.293 Q2221.68 220.182 2221.68 216.641 L2221.68 190.252 M2221.68 180.159 L2225.94 180.159 L2225.94 185.553 L2221.68 185.553 L2221.68 180.159 Z" fill="#000000" fill-rule="nonzero" fill-opacity="1" /><path clip-path="url(#clip680)" d="M2246.63 203.145 Q2241.47 203.145 2239.48 204.326 Q2237.49 205.506 2237.49 208.354 Q2237.49 210.622 2238.97 211.965 Q2240.47 213.284 2243.04 213.284 Q2246.59 213.284 2248.72 210.784 Q2250.87 208.261 2250.87 204.094 L2250.87 203.145 L2246.63 203.145 M2255.13 201.386 L2255.13 216.178 L2250.87 216.178 L2250.87 212.242 Q2249.41 214.603 2247.23 215.738 Q2245.06 216.849 2241.91 216.849 Q2237.93 216.849 2235.57 214.627 Q2233.23 212.381 2233.23 208.631 Q2233.23 204.256 2236.15 202.034 Q2239.09 199.812 2244.9 199.812 L2250.87 199.812 L2250.87 199.395 Q2250.87 196.455 2248.92 194.858 Q2247 193.238 2243.51 193.238 Q2241.28 193.238 2239.18 193.77 Q2237.07 194.303 2235.13 195.367 L2235.13 191.432 Q2237.47 190.53 2239.66 190.09 Q2241.86 189.627 2243.95 189.627 Q2249.57 189.627 2252.35 192.543 Q2255.13 195.46 2255.13 201.386 Z" fill="#000000" fill-rule="nonzero" fill-opacity="1" /></svg>
