<?xml version="1.0" encoding="utf-8"?>
<svg xmlns="http://www.w3.org/2000/svg" xmlns:xlink="http://www.w3.org/1999/xlink" width="600" height="400" viewBox="0 0 2400 1600">
<defs>
  <clipPath id="clip810">
    <rect x="0" y="0" width="2400" height="1600"/>
  </clipPath>
</defs>
<path clip-path="url(#clip810)" d="M0 1600 L2400 1600 L2400 0 L0 0  Z" fill="#ffffff" fill-rule="evenodd" fill-opacity="1"/>
<defs>
  <clipPath id="clip811">
    <rect x="480" y="0" width="1681" height="1600"/>
  </clipPath>
</defs>
<path clip-path="url(#clip810)" d="M156.112 1486.45 L2352.76 1486.45 L2352.76 47.2441 L156.112 47.2441  Z" fill="#ffffff" fill-rule="evenodd" fill-opacity="1"/>
<defs>
  <clipPath id="clip812">
    <rect x="156" y="47" width="2198" height="1440"/>
  </clipPath>
</defs>
<polyline clip-path="url(#clip812)" style="stroke:#000000; stroke-linecap:round; stroke-linejoin:round; stroke-width:2; stroke-opacity:0.1; fill:none" points="425.512,1486.45 425.512,47.2441 "/>
<polyline clip-path="url(#clip812)" style="stroke:#000000; stroke-linecap:round; stroke-linejoin:round; stroke-width:2; stroke-opacity:0.1; fill:none" points="839.973,1486.45 839.973,47.2441 "/>
<polyline clip-path="url(#clip812)" style="stroke:#000000; stroke-linecap:round; stroke-linejoin:round; stroke-width:2; stroke-opacity:0.1; fill:none" points="1254.43,1486.45 1254.43,47.2441 "/>
<polyline clip-path="url(#clip812)" style="stroke:#000000; stroke-linecap:round; stroke-linejoin:round; stroke-width:2; stroke-opacity:0.1; fill:none" points="1668.9,1486.45 1668.9,47.2441 "/>
<polyline clip-path="url(#clip812)" style="stroke:#000000; stroke-linecap:round; stroke-linejoin:round; stroke-width:2; stroke-opacity:0.1; fill:none" points="2083.36,1486.45 2083.36,47.2441 "/>
<polyline clip-path="url(#clip810)" style="stroke:#000000; stroke-linecap:round; stroke-linejoin:round; stroke-width:4; stroke-opacity:1; fill:none" points="156.112,1486.45 2352.76,1486.45 "/>
<polyline clip-path="url(#clip810)" style="stroke:#000000; stroke-linecap:round; stroke-linejoin:round; stroke-width:4; stroke-opacity:1; fill:none" points="425.512,1486.45 425.512,1467.55 "/>
<polyline clip-path="url(#clip810)" style="stroke:#000000; stroke-linecap:round; stroke-linejoin:round; stroke-width:4; stroke-opacity:1; fill:none" points="839.973,1486.45 839.973,1467.55 "/>
<polyline clip-path="url(#clip810)" style="stroke:#000000; stroke-linecap:round; stroke-linejoin:round; stroke-width:4; stroke-opacity:1; fill:none" points="1254.43,1486.45 1254.43,1467.55 "/>
<polyline clip-path="url(#clip810)" style="stroke:#000000; stroke-linecap:round; stroke-linejoin:round; stroke-width:4; stroke-opacity:1; fill:none" points="1668.9,1486.45 1668.9,1467.55 "/>
<polyline clip-path="url(#clip810)" style="stroke:#000000; stroke-linecap:round; stroke-linejoin:round; stroke-width:4; stroke-opacity:1; fill:none" points="2083.36,1486.45 2083.36,1467.55 "/>
<path clip-path="url(#clip810)" d="M394.412 1532.02 L424.088 1532.02 L424.088 1535.95 L394.412 1535.95 L394.412 1532.02 Z" fill="#000000" fill-rule="nonzero" fill-opacity="1" /><path clip-path="url(#clip810)" d="M447.028 1518.36 L435.222 1536.81 L447.028 1536.81 L447.028 1518.36 M445.801 1514.29 L451.681 1514.29 L451.681 1536.81 L456.611 1536.81 L456.611 1540.7 L451.681 1540.7 L451.681 1548.85 L447.028 1548.85 L447.028 1540.7 L431.426 1540.7 L431.426 1536.19 L445.801 1514.29 Z" fill="#000000" fill-rule="nonzero" fill-opacity="1" /><path clip-path="url(#clip810)" d="M809.915 1532.02 L839.591 1532.02 L839.591 1535.95 L809.915 1535.95 L809.915 1532.02 Z" fill="#000000" fill-rule="nonzero" fill-opacity="1" /><path clip-path="url(#clip810)" d="M853.711 1544.91 L870.031 1544.91 L870.031 1548.85 L848.086 1548.85 L848.086 1544.91 Q850.748 1542.16 855.332 1537.53 Q859.938 1532.88 861.119 1531.53 Q863.364 1529.01 864.244 1527.27 Q865.146 1525.51 865.146 1523.82 Q865.146 1521.07 863.202 1519.33 Q861.281 1517.6 858.179 1517.6 Q855.98 1517.6 853.526 1518.36 Q851.096 1519.13 848.318 1520.68 L848.318 1515.95 Q851.142 1514.82 853.596 1514.24 Q856.049 1513.66 858.086 1513.66 Q863.457 1513.66 866.651 1516.35 Q869.845 1519.03 869.845 1523.52 Q869.845 1525.65 869.035 1527.57 Q868.248 1529.47 866.142 1532.07 Q865.563 1532.74 862.461 1535.95 Q859.359 1539.15 853.711 1544.91 Z" fill="#000000" fill-rule="nonzero" fill-opacity="1" /><path clip-path="url(#clip810)" d="M1254.43 1517.37 Q1250.82 1517.37 1248.99 1520.93 Q1247.19 1524.47 1247.19 1531.6 Q1247.19 1538.71 1248.99 1542.27 Q1250.82 1545.82 1254.43 1545.82 Q1258.07 1545.82 1259.87 1542.27 Q1261.7 1538.71 1261.7 1531.6 Q1261.7 1524.47 1259.87 1520.93 Q1258.07 1517.37 1254.43 1517.37 M1254.43 1513.66 Q1260.24 1513.66 1263.3 1518.27 Q1266.38 1522.85 1266.38 1531.6 Q1266.38 1540.33 1263.3 1544.94 Q1260.24 1549.52 1254.43 1549.52 Q1248.62 1549.52 1245.55 1544.94 Q1242.49 1540.33 1242.49 1531.6 Q1242.49 1522.85 1245.55 1518.27 Q1248.62 1513.66 1254.43 1513.66 Z" fill="#000000" fill-rule="nonzero" fill-opacity="1" /><path clip-path="url(#clip810)" d="M1663.55 1544.91 L1679.87 1544.91 L1679.87 1548.85 L1657.92 1548.85 L1657.92 1544.91 Q1660.58 1542.16 1665.17 1537.53 Q1669.77 1532.88 1670.96 1531.53 Q1673.2 1529.01 1674.08 1527.27 Q1674.98 1525.51 1674.98 1523.82 Q1674.98 1521.07 1673.04 1519.33 Q1671.12 1517.6 1668.02 1517.6 Q1665.82 1517.6 1663.36 1518.36 Q1660.93 1519.13 1658.15 1520.68 L1658.15 1515.95 Q1660.98 1514.82 1663.43 1514.24 Q1665.89 1513.66 1667.92 1513.66 Q1673.29 1513.66 1676.49 1516.35 Q1679.68 1519.03 1679.68 1523.52 Q1679.68 1525.65 1678.87 1527.57 Q1678.08 1529.47 1675.98 1532.07 Q1675.4 1532.74 1672.3 1535.95 Q1669.2 1539.15 1663.55 1544.91 Z" fill="#000000" fill-rule="nonzero" fill-opacity="1" /><path clip-path="url(#clip810)" d="M2086.37 1518.36 L2074.56 1536.81 L2086.37 1536.81 L2086.37 1518.36 M2085.14 1514.29 L2091.02 1514.29 L2091.02 1536.81 L2095.95 1536.81 L2095.95 1540.7 L2091.02 1540.7 L2091.02 1548.85 L2086.37 1548.85 L2086.37 1540.7 L2070.76 1540.7 L2070.76 1536.19 L2085.14 1514.29 Z" fill="#000000" fill-rule="nonzero" fill-opacity="1" /><polyline clip-path="url(#clip812)" style="stroke:#000000; stroke-linecap:round; stroke-linejoin:round; stroke-width:2; stroke-opacity:0.1; fill:none" points="156.112,1333.54 2352.76,1333.54 "/>
<polyline clip-path="url(#clip812)" style="stroke:#000000; stroke-linecap:round; stroke-linejoin:round; stroke-width:2; stroke-opacity:0.1; fill:none" points="156.112,1042.45 2352.76,1042.45 "/>
<polyline clip-path="url(#clip812)" style="stroke:#000000; stroke-linecap:round; stroke-linejoin:round; stroke-width:2; stroke-opacity:0.1; fill:none" points="156.112,751.372 2352.76,751.372 "/>
<polyline clip-path="url(#clip812)" style="stroke:#000000; stroke-linecap:round; stroke-linejoin:round; stroke-width:2; stroke-opacity:0.1; fill:none" points="156.112,460.288 2352.76,460.288 "/>
<polyline clip-path="url(#clip812)" style="stroke:#000000; stroke-linecap:round; stroke-linejoin:round; stroke-width:2; stroke-opacity:0.1; fill:none" points="156.112,169.205 2352.76,169.205 "/>
<polyline clip-path="url(#clip810)" style="stroke:#000000; stroke-linecap:round; stroke-linejoin:round; stroke-width:4; stroke-opacity:1; fill:none" points="156.112,1486.45 156.112,47.2441 "/>
<polyline clip-path="url(#clip810)" style="stroke:#000000; stroke-linecap:round; stroke-linejoin:round; stroke-width:4; stroke-opacity:1; fill:none" points="156.112,1333.54 175.01,1333.54 "/>
<polyline clip-path="url(#clip810)" style="stroke:#000000; stroke-linecap:round; stroke-linejoin:round; stroke-width:4; stroke-opacity:1; fill:none" points="156.112,1042.45 175.01,1042.45 "/>
<polyline clip-path="url(#clip810)" style="stroke:#000000; stroke-linecap:round; stroke-linejoin:round; stroke-width:4; stroke-opacity:1; fill:none" points="156.112,751.372 175.01,751.372 "/>
<polyline clip-path="url(#clip810)" style="stroke:#000000; stroke-linecap:round; stroke-linejoin:round; stroke-width:4; stroke-opacity:1; fill:none" points="156.112,460.288 175.01,460.288 "/>
<polyline clip-path="url(#clip810)" style="stroke:#000000; stroke-linecap:round; stroke-linejoin:round; stroke-width:4; stroke-opacity:1; fill:none" points="156.112,169.205 175.01,169.205 "/>
<path clip-path="url(#clip810)" d="M62.9365 1319.34 Q59.3254 1319.34 57.4967 1322.9 Q55.6912 1326.44 55.6912 1333.57 Q55.6912 1340.68 57.4967 1344.24 Q59.3254 1347.79 62.9365 1347.79 Q66.5707 1347.79 68.3763 1344.24 Q70.205 1340.68 70.205 1333.57 Q70.205 1326.44 68.3763 1322.9 Q66.5707 1319.34 62.9365 1319.34 M62.9365 1315.63 Q68.7467 1315.63 71.8022 1320.24 Q74.8809 1324.82 74.8809 1333.57 Q74.8809 1342.3 71.8022 1346.91 Q68.7467 1351.49 62.9365 1351.49 Q57.1264 1351.49 54.0477 1346.91 Q50.9921 1342.3 50.9921 1333.57 Q50.9921 1324.82 54.0477 1320.24 Q57.1264 1315.63 62.9365 1315.63 Z" fill="#000000" fill-rule="nonzero" fill-opacity="1" /><path clip-path="url(#clip810)" d="M83.0984 1344.94 L87.9827 1344.94 L87.9827 1350.82 L83.0984 1350.82 L83.0984 1344.94 Z" fill="#000000" fill-rule="nonzero" fill-opacity="1" /><path clip-path="url(#clip810)" d="M108.168 1319.34 Q104.557 1319.34 102.728 1322.9 Q100.922 1326.44 100.922 1333.57 Q100.922 1340.68 102.728 1344.24 Q104.557 1347.79 108.168 1347.79 Q111.802 1347.79 113.608 1344.24 Q115.436 1340.68 115.436 1333.57 Q115.436 1326.44 113.608 1322.9 Q111.802 1319.34 108.168 1319.34 M108.168 1315.63 Q113.978 1315.63 117.033 1320.24 Q120.112 1324.82 120.112 1333.57 Q120.112 1342.3 117.033 1346.91 Q113.978 1351.49 108.168 1351.49 Q102.358 1351.49 99.2789 1346.91 Q96.2234 1342.3 96.2234 1333.57 Q96.2234 1324.82 99.2789 1320.24 Q102.358 1315.63 108.168 1315.63 Z" fill="#000000" fill-rule="nonzero" fill-opacity="1" /><path clip-path="url(#clip810)" d="M63.9319 1028.25 Q60.3208 1028.25 58.4921 1031.82 Q56.6865 1035.36 56.6865 1042.49 Q56.6865 1049.6 58.4921 1053.16 Q60.3208 1056.7 63.9319 1056.7 Q67.5661 1056.7 69.3717 1053.16 Q71.2004 1049.6 71.2004 1042.49 Q71.2004 1035.36 69.3717 1031.82 Q67.5661 1028.25 63.9319 1028.25 M63.9319 1024.55 Q69.742 1024.55 72.7976 1029.16 Q75.8763 1033.74 75.8763 1042.49 Q75.8763 1051.22 72.7976 1055.82 Q69.742 1060.41 63.9319 1060.41 Q58.1217 1060.41 55.043 1055.82 Q51.9875 1051.22 51.9875 1042.49 Q51.9875 1033.74 55.043 1029.16 Q58.1217 1024.55 63.9319 1024.55 Z" fill="#000000" fill-rule="nonzero" fill-opacity="1" /><path clip-path="url(#clip810)" d="M84.0938 1053.86 L88.978 1053.86 L88.978 1059.73 L84.0938 1059.73 L84.0938 1053.86 Z" fill="#000000" fill-rule="nonzero" fill-opacity="1" /><path clip-path="url(#clip810)" d="M99.2095 1025.17 L117.566 1025.17 L117.566 1029.11 L103.492 1029.11 L103.492 1037.58 Q104.51 1037.23 105.529 1037.07 Q106.547 1036.89 107.566 1036.89 Q113.353 1036.89 116.733 1040.06 Q120.112 1043.23 120.112 1048.65 Q120.112 1054.23 116.64 1057.33 Q113.168 1060.41 106.848 1060.41 Q104.672 1060.41 102.404 1060.04 Q100.159 1059.67 97.7511 1058.92 L97.7511 1054.23 Q99.8345 1055.36 102.057 1055.92 Q104.279 1056.47 106.756 1056.47 Q110.76 1056.47 113.098 1054.36 Q115.436 1052.26 115.436 1048.65 Q115.436 1045.04 113.098 1042.93 Q110.76 1040.82 106.756 1040.82 Q104.881 1040.82 103.006 1041.24 Q101.154 1041.66 99.2095 1042.54 L99.2095 1025.17 Z" fill="#000000" fill-rule="nonzero" fill-opacity="1" /><path clip-path="url(#clip810)" d="M53.7467 764.716 L61.3856 764.716 L61.3856 738.351 L53.0754 740.017 L53.0754 735.758 L61.3393 734.092 L66.0152 734.092 L66.0152 764.716 L73.654 764.716 L73.654 768.652 L53.7467 768.652 L53.7467 764.716 Z" fill="#000000" fill-rule="nonzero" fill-opacity="1" /><path clip-path="url(#clip810)" d="M83.0984 762.772 L87.9827 762.772 L87.9827 768.652 L83.0984 768.652 L83.0984 762.772 Z" fill="#000000" fill-rule="nonzero" fill-opacity="1" /><path clip-path="url(#clip810)" d="M108.168 737.17 Q104.557 737.17 102.728 740.735 Q100.922 744.277 100.922 751.406 Q100.922 758.513 102.728 762.077 Q104.557 765.619 108.168 765.619 Q111.802 765.619 113.608 762.077 Q115.436 758.513 115.436 751.406 Q115.436 744.277 113.608 740.735 Q111.802 737.17 108.168 737.17 M108.168 733.467 Q113.978 733.467 117.033 738.073 Q120.112 742.656 120.112 751.406 Q120.112 760.133 117.033 764.739 Q113.978 769.323 108.168 769.323 Q102.358 769.323 99.2789 764.739 Q96.2234 760.133 96.2234 751.406 Q96.2234 742.656 99.2789 738.073 Q102.358 733.467 108.168 733.467 Z" fill="#000000" fill-rule="nonzero" fill-opacity="1" /><path clip-path="url(#clip810)" d="M54.7421 473.633 L62.381 473.633 L62.381 447.268 L54.0708 448.934 L54.0708 444.675 L62.3347 443.008 L67.0106 443.008 L67.0106 473.633 L74.6494 473.633 L74.6494 477.568 L54.7421 477.568 L54.7421 473.633 Z" fill="#000000" fill-rule="nonzero" fill-opacity="1" /><path clip-path="url(#clip810)" d="M84.0938 471.689 L88.978 471.689 L88.978 477.568 L84.0938 477.568 L84.0938 471.689 Z" fill="#000000" fill-rule="nonzero" fill-opacity="1" /><path clip-path="url(#clip810)" d="M99.2095 443.008 L117.566 443.008 L117.566 446.944 L103.492 446.944 L103.492 455.416 Q104.51 455.068 105.529 454.906 Q106.547 454.721 107.566 454.721 Q113.353 454.721 116.733 457.893 Q120.112 461.064 120.112 466.48 Q120.112 472.059 116.64 475.161 Q113.168 478.24 106.848 478.24 Q104.672 478.24 102.404 477.869 Q100.159 477.499 97.7511 476.758 L97.7511 472.059 Q99.8345 473.193 102.057 473.749 Q104.279 474.304 106.756 474.304 Q110.76 474.304 113.098 472.198 Q115.436 470.092 115.436 466.48 Q115.436 462.869 113.098 460.763 Q110.76 458.656 106.756 458.656 Q104.881 458.656 103.006 459.073 Q101.154 459.49 99.2095 460.369 L99.2095 443.008 Z" fill="#000000" fill-rule="nonzero" fill-opacity="1" /><path clip-path="url(#clip810)" d="M56.9643 182.55 L73.2837 182.55 L73.2837 186.485 L51.3393 186.485 L51.3393 182.55 Q54.0014 179.795 58.5847 175.166 Q63.1911 170.513 64.3717 169.171 Q66.617 166.647 67.4967 164.911 Q68.3994 163.152 68.3994 161.462 Q68.3994 158.708 66.455 156.971 Q64.5337 155.235 61.4319 155.235 Q59.2328 155.235 56.7791 155.999 Q54.3486 156.763 51.5708 158.314 L51.5708 153.592 Q54.3949 152.458 56.8486 151.879 Q59.3023 151.3 61.3393 151.3 Q66.7096 151.3 69.9041 153.985 Q73.0985 156.671 73.0985 161.161 Q73.0985 163.291 72.2883 165.212 Q71.5013 167.11 69.3948 169.703 Q68.8161 170.374 65.7143 173.592 Q62.6124 176.786 56.9643 182.55 Z" fill="#000000" fill-rule="nonzero" fill-opacity="1" /><path clip-path="url(#clip810)" d="M83.0984 180.606 L87.9827 180.606 L87.9827 186.485 L83.0984 186.485 L83.0984 180.606 Z" fill="#000000" fill-rule="nonzero" fill-opacity="1" /><path clip-path="url(#clip810)" d="M108.168 155.004 Q104.557 155.004 102.728 158.569 Q100.922 162.11 100.922 169.24 Q100.922 176.346 102.728 179.911 Q104.557 183.453 108.168 183.453 Q111.802 183.453 113.608 179.911 Q115.436 176.346 115.436 169.24 Q115.436 162.11 113.608 158.569 Q111.802 155.004 108.168 155.004 M108.168 151.3 Q113.978 151.3 117.033 155.907 Q120.112 160.49 120.112 169.24 Q120.112 177.967 117.033 182.573 Q113.978 187.157 108.168 187.157 Q102.358 187.157 99.2789 182.573 Q96.2234 177.967 96.2234 169.24 Q96.2234 160.49 99.2789 155.907 Q102.358 151.3 108.168 151.3 Z" fill="#000000" fill-rule="nonzero" fill-opacity="1" /><polyline clip-path="url(#clip812)" style="stroke:#009af9; stroke-linecap:round; stroke-linejoin:round; stroke-width:4; stroke-opacity:1; fill:none" points="218.281,1311.15 228.695,1310.71 239.108,1310.26 249.522,1309.79 259.936,1309.31 270.349,1308.82 280.763,1308.31 291.176,1307.79 301.59,1307.24 312.004,1306.69 322.417,1306.11 332.831,1305.52 343.244,1304.91 353.658,1304.27 364.072,1303.62 374.485,1302.95 384.899,1302.25 395.312,1301.53 405.726,1300.78 416.14,1300.01 426.553,1299.21 436.967,1298.38 447.38,1297.53 457.794,1296.64 468.208,1295.72 478.621,1294.77 489.035,1293.78 499.448,1292.75 509.862,1291.68 520.276,1290.58 530.689,1289.43 541.103,1288.23 551.516,1286.98 561.93,1285.69 572.344,1284.34 582.757,1282.94 593.171,1281.48 603.584,1279.95 613.998,1278.36 624.412,1276.7 634.825,1274.97 645.239,1273.16 655.652,1271.27 666.066,1269.29 676.479,1267.22 686.893,1265.05 697.307,1262.78 707.72,1260.4 718.134,1257.91 728.547,1255.29 738.961,1252.54 749.375,1249.65 759.788,1246.61 770.202,1243.42 780.615,1240.06 791.029,1236.52 801.443,1232.79 811.856,1228.85 822.27,1224.7 832.683,1220.32 843.097,1215.69 853.511,1210.79 863.924,1205.62 874.338,1200.14 884.751,1194.34 895.165,1188.2 905.579,1181.69 915.992,1174.79 926.406,1167.47 936.819,1159.71 947.233,1151.47 957.647,1142.73 968.06,1133.46 978.474,1123.62 988.887,1113.19 999.301,1102.13 1009.71,1090.41 1020.13,1078.02 1030.54,1064.92 1040.96,1051.1 1051.37,1036.54 1061.78,1021.26 1072.2,1005.25 1082.61,988.547 1093.02,971.196 1103.44,953.266 1113.85,934.853 1124.26,916.083 1134.68,897.117 1145.09,878.152 1155.5,859.422 1165.92,841.197 1176.33,823.779 1186.75,807.495 1197.16,792.686 1207.57,779.692 1217.99,768.84 1228.4,760.417 1238.81,754.66 1249.23,751.739 1259.64,751.739 1270.05,754.66 1280.47,760.417 1290.88,768.84 1301.3,779.692 1311.71,792.686 1322.12,807.495 1332.54,823.779 1342.95,841.197 1353.36,859.422 1363.78,878.152 1374.19,897.117 1384.6,916.083 1395.02,934.853 1405.43,953.266 1415.84,971.196 1426.26,988.547 1436.67,1005.25 1447.09,1021.26 1457.5,1036.54 1467.91,1051.1 1478.33,1064.92 1488.74,1078.02 1499.15,1090.41 1509.57,1102.13 1519.98,1113.19 1530.39,1123.62 1540.81,1133.46 1551.22,1142.73 1561.64,1151.47 1572.05,1159.71 1582.46,1167.47 1592.88,1174.79 1603.29,1181.69 1613.7,1188.2 1624.12,1194.34 1634.53,1200.14 1644.94,1205.62 1655.36,1210.79 1665.77,1215.69 1676.18,1220.32 1686.6,1224.7 1697.01,1228.85 1707.43,1232.79 1717.84,1236.52 1728.25,1240.06 1738.67,1243.42 1749.08,1246.61 1759.49,1249.65 1769.91,1252.54 1780.32,1255.29 1790.73,1257.91 1801.15,1260.4 1811.56,1262.78 1821.97,1265.05 1832.39,1267.22 1842.8,1269.29 1853.22,1271.27 1863.63,1273.16 1874.04,1274.97 1884.46,1276.7 1894.87,1278.36 1905.28,1279.95 1915.7,1281.48 1926.11,1282.94 1936.52,1284.34 1946.94,1285.69 1957.35,1286.98 1967.77,1288.23 1978.18,1289.43 1988.59,1290.58 1999.01,1291.68 2009.42,1292.75 2019.83,1293.78 2030.25,1294.77 2040.66,1295.72 2051.07,1296.64 2061.49,1297.53 2071.9,1298.38 2082.31,1299.21 2092.73,1300.01 2103.14,1300.78 2113.56,1301.53 2123.97,1302.25 2134.38,1302.95 2144.8,1303.62 2155.21,1304.27 2165.62,1304.91 2176.04,1305.52 2186.45,1306.11 2196.86,1306.69 2207.28,1307.24 2217.69,1307.79 2228.11,1308.31 2238.52,1308.82 2248.93,1309.31 2259.35,1309.79 2269.76,1310.26 2280.17,1310.71 2290.59,1311.15 "/>
<polyline clip-path="url(#clip812)" style="stroke:#e26f46; stroke-linecap:round; stroke-linejoin:round; stroke-width:4; stroke-opacity:1; fill:none" points="218.281,1311.15 228.695,649.908 239.108,276.18 249.522,109.891 259.936,87.9763 270.349,161.472 280.763,293.017 291.176,454.712 301.59,626.3 312.004,793.629 322.417,947.347 332.831,1081.83 343.244,1194.27 353.658,1283.96 364.072,1351.66 374.485,1399.14 384.899,1428.82 395.312,1443.4 405.726,1445.72 416.14,1438.53 426.553,1424.41 436.967,1405.69 447.38,1384.36 457.794,1362.11 468.208,1340.3 478.621,1319.96 489.035,1301.83 499.448,1286.38 509.862,1273.86 520.276,1264.33 530.689,1257.68 541.103,1253.68 551.516,1252.01 561.93,1252.3 572.344,1254.15 582.757,1257.13 593.171,1260.83 603.584,1264.88 613.998,1268.94 624.412,1272.69 634.825,1275.91 645.239,1278.4 655.652,1280.01 666.066,1280.67 676.479,1280.34 686.893,1279.03 697.307,1276.79 707.72,1273.68 718.134,1269.82 728.547,1265.32 738.961,1260.32 749.375,1254.94 759.788,1249.32 770.202,1243.59 780.615,1237.84 791.029,1232.18 801.443,1226.68 811.856,1221.4 822.27,1216.36 832.683,1211.57 843.097,1207.01 853.511,1202.65 863.924,1198.42 874.338,1194.24 884.751,1190.03 895.165,1185.67 905.579,1181.05 915.992,1176.06 926.406,1170.57 936.819,1164.47 947.233,1157.64 957.647,1149.99 968.06,1141.42 978.474,1131.87 988.887,1121.28 999.301,1109.61 1009.71,1096.87 1020.13,1083.05 1030.54,1068.2 1040.96,1052.38 1051.37,1035.67 1061.78,1018.18 1072.2,1000.03 1082.61,981.375 1093.02,962.379 1103.44,943.22 1113.85,924.089 1124.26,905.184 1134.68,886.711 1145.09,868.876 1155.5,851.883 1165.92,835.931 1176.33,821.211 1186.75,807.901 1197.16,796.166 1207.57,786.151 1217.99,777.983 1228.4,771.764 1238.81,767.573 1249.23,765.464 1259.64,765.464 1270.05,767.573 1280.47,771.764 1290.88,777.983 1301.3,786.151 1311.71,796.166 1322.12,807.901 1332.54,821.211 1342.95,835.931 1353.36,851.883 1363.78,868.876 1374.19,886.711 1384.6,905.184 1395.02,924.089 1405.43,943.22 1415.84,962.379 1426.26,981.375 1436.67,1000.03 1447.09,1018.18 1457.5,1035.67 1467.91,1052.38 1478.33,1068.2 1488.74,1083.05 1499.15,1096.87 1509.57,1109.61 1519.98,1121.28 1530.39,1131.87 1540.81,1141.42 1551.22,1149.99 1561.64,1157.64 1572.05,1164.47 1582.46,1170.57 1592.88,1176.06 1603.29,1181.05 1613.7,1185.67 1624.12,1190.03 1634.53,1194.24 1644.94,1198.42 1655.36,1202.65 1665.77,1207.01 1676.18,1211.57 1686.6,1216.36 1697.01,1221.4 1707.43,1226.68 1717.84,1232.18 1728.25,1237.84 1738.67,1243.59 1749.08,1249.32 1759.49,1254.94 1769.91,1260.32 1780.32,1265.32 1790.73,1269.82 1801.15,1273.68 1811.56,1276.79 1821.97,1279.03 1832.39,1280.34 1842.8,1280.67 1853.22,1280.01 1863.63,1278.4 1874.04,1275.91 1884.46,1272.69 1894.87,1268.94 1905.28,1264.88 1915.7,1260.83 1926.11,1257.13 1936.52,1254.15 1946.94,1252.3 1957.35,1252.01 1967.77,1253.68 1978.18,1257.68 1988.59,1264.33 1999.01,1273.86 2009.42,1286.38 2019.83,1301.83 2030.25,1319.96 2040.66,1340.3 2051.07,1362.11 2061.49,1384.36 2071.9,1405.69 2082.31,1424.41 2092.73,1438.53 2103.14,1445.72 2113.56,1443.4 2123.97,1428.82 2134.38,1399.14 2144.8,1351.66 2155.21,1283.96 2165.62,1194.27 2176.04,1081.83 2186.45,947.347 2196.86,793.629 2207.28,626.3 2217.69,454.712 2228.11,293.017 2238.52,161.472 2248.93,87.9763 2259.35,109.891 2269.76,276.18 2280.17,649.908 2290.59,1311.15 "/>
<path clip-path="url(#clip810)" d="M1787.95 250.738 L2279.53 250.738 L2279.53 95.2176 L1787.95 95.2176  Z" fill="#ffffff" fill-rule="evenodd" fill-opacity="1"/>
<polyline clip-path="url(#clip810)" style="stroke:#000000; stroke-linecap:round; stroke-linejoin:round; stroke-width:4; stroke-opacity:1; fill:none" points="1787.95,250.738 2279.53,250.738 2279.53,95.2176 1787.95,95.2176 1787.95,250.738 "/>
<polyline clip-path="url(#clip810)" style="stroke:#009af9; stroke-linecap:round; stroke-linejoin:round; stroke-width:4; stroke-opacity:1; fill:none" points="1812.36,147.058 1958.8,147.058 "/>
<path clip-path="url(#clip810)" d="M1983.21 129.778 L2003.07 129.778 L2003.07 133.713 L1987.88 133.713 L1987.88 143.898 L2001.59 143.898 L2001.59 147.833 L1987.88 147.833 L1987.88 164.338 L1983.21 164.338 L1983.21 129.778 Z" fill="#000000" fill-rule="nonzero" fill-opacity="1" /><path clip-path="url(#clip810)" d="M2007.26 154.106 L2007.26 138.412 L2011.52 138.412 L2011.52 153.944 Q2011.52 157.625 2012.95 159.476 Q2014.39 161.305 2017.26 161.305 Q2020.71 161.305 2022.7 159.106 Q2024.71 156.907 2024.71 153.111 L2024.71 138.412 L2028.97 138.412 L2028.97 164.338 L2024.71 164.338 L2024.71 160.356 Q2023.16 162.717 2021.1 163.875 Q2019.06 165.009 2016.36 165.009 Q2011.89 165.009 2009.57 162.231 Q2007.26 159.453 2007.26 154.106 M2017.98 137.787 L2017.98 137.787 Z" fill="#000000" fill-rule="nonzero" fill-opacity="1" /><path clip-path="url(#clip810)" d="M2059.3 148.689 L2059.3 164.338 L2055.04 164.338 L2055.04 148.828 Q2055.04 145.148 2053.6 143.319 Q2052.17 141.49 2049.3 141.49 Q2045.85 141.49 2043.86 143.69 Q2041.86 145.889 2041.86 149.685 L2041.86 164.338 L2037.58 164.338 L2037.58 138.412 L2041.86 138.412 L2041.86 142.44 Q2043.39 140.102 2045.45 138.944 Q2047.54 137.787 2050.24 137.787 Q2054.71 137.787 2057 140.565 Q2059.3 143.319 2059.3 148.689 Z" fill="#000000" fill-rule="nonzero" fill-opacity="1" /><path clip-path="url(#clip810)" d="M2067.63 128.319 L2071.91 128.319 L2071.91 149.592 L2084.62 138.412 L2090.06 138.412 L2076.31 150.541 L2090.64 164.338 L2085.08 164.338 L2071.91 151.676 L2071.91 164.338 L2067.63 164.338 L2067.63 128.319 Z" fill="#000000" fill-rule="nonzero" fill-opacity="1" /><path clip-path="url(#clip810)" d="M2113.9 139.407 L2113.9 143.389 Q2112.1 142.393 2110.27 141.907 Q2108.46 141.398 2106.61 141.398 Q2102.47 141.398 2100.17 144.037 Q2097.88 146.652 2097.88 151.398 Q2097.88 156.143 2100.17 158.782 Q2102.47 161.398 2106.61 161.398 Q2108.46 161.398 2110.27 160.912 Q2112.1 160.402 2113.9 159.407 L2113.9 163.342 Q2112.12 164.176 2110.2 164.592 Q2108.3 165.009 2106.15 165.009 Q2100.29 165.009 2096.84 161.328 Q2093.39 157.648 2093.39 151.398 Q2093.39 145.055 2096.86 141.421 Q2100.36 137.787 2106.42 137.787 Q2108.39 137.787 2110.27 138.203 Q2112.14 138.597 2113.9 139.407 Z" fill="#000000" fill-rule="nonzero" fill-opacity="1" /><path clip-path="url(#clip810)" d="M2121.31 138.412 L2125.57 138.412 L2125.57 164.801 Q2125.57 169.754 2123.67 171.976 Q2121.79 174.199 2117.6 174.199 L2115.98 174.199 L2115.98 170.588 L2117.12 170.588 Q2119.55 170.588 2120.43 169.453 Q2121.31 168.342 2121.31 164.801 L2121.31 138.412 M2121.31 128.319 L2125.57 128.319 L2125.57 133.713 L2121.31 133.713 L2121.31 128.319 Z" fill="#000000" fill-rule="nonzero" fill-opacity="1" /><path clip-path="url(#clip810)" d="M2146.26 151.305 Q2141.1 151.305 2139.11 152.486 Q2137.12 153.666 2137.12 156.514 Q2137.12 158.782 2138.6 160.125 Q2140.1 161.444 2142.67 161.444 Q2146.22 161.444 2148.35 158.944 Q2150.5 156.421 2150.5 152.254 L2150.5 151.305 L2146.26 151.305 M2154.76 149.546 L2154.76 164.338 L2150.5 164.338 L2150.5 160.402 Q2149.04 162.763 2146.86 163.898 Q2144.69 165.009 2141.54 165.009 Q2137.56 165.009 2135.2 162.787 Q2132.86 160.541 2132.86 156.791 Q2132.86 152.416 2135.78 150.194 Q2138.72 147.972 2144.53 147.972 L2150.5 147.972 L2150.5 147.555 Q2150.5 144.615 2148.55 143.018 Q2146.63 141.398 2143.14 141.398 Q2140.91 141.398 2138.81 141.93 Q2136.7 142.463 2134.76 143.527 L2134.76 139.592 Q2137.1 138.69 2139.29 138.25 Q2141.49 137.787 2143.58 137.787 Q2149.2 137.787 2151.98 140.703 Q2154.76 143.62 2154.76 149.546 Z" fill="#000000" fill-rule="nonzero" fill-opacity="1" /><polyline clip-path="url(#clip810)" style="stroke:#e26f46; stroke-linecap:round; stroke-linejoin:round; stroke-width:4; stroke-opacity:1; fill:none" points="1812.36,198.898 1958.8,198.898 "/>
<path clip-path="url(#clip810)" d="M1983.21 181.618 L1987.88 181.618 L1987.88 216.178 L1983.21 216.178 L1983.21 181.618 Z" fill="#000000" fill-rule="nonzero" fill-opacity="1" /><path clip-path="url(#clip810)" d="M2018.55 200.529 L2018.55 216.178 L2014.3 216.178 L2014.3 200.668 Q2014.3 196.988 2012.86 195.159 Q2011.42 193.33 2008.55 193.33 Q2005.11 193.33 2003.11 195.53 Q2001.12 197.729 2001.12 201.525 L2001.12 216.178 L1996.84 216.178 L1996.84 190.252 L2001.12 190.252 L2001.12 194.28 Q2002.65 191.942 2004.71 190.784 Q2006.8 189.627 2009.5 189.627 Q2013.97 189.627 2016.26 192.405 Q2018.55 195.159 2018.55 200.529 Z" fill="#000000" fill-rule="nonzero" fill-opacity="1" /><path clip-path="url(#clip810)" d="M2031.26 182.891 L2031.26 190.252 L2040.04 190.252 L2040.04 193.562 L2031.26 193.562 L2031.26 207.636 Q2031.26 210.807 2032.12 211.71 Q2033 212.613 2035.66 212.613 L2040.04 212.613 L2040.04 216.178 L2035.66 216.178 Q2030.73 216.178 2028.86 214.349 Q2026.98 212.497 2026.98 207.636 L2026.98 193.562 L2023.86 193.562 L2023.86 190.252 L2026.98 190.252 L2026.98 182.891 L2031.26 182.891 Z" fill="#000000" fill-rule="nonzero" fill-opacity="1" /><path clip-path="url(#clip810)" d="M2067.81 202.15 L2067.81 204.233 L2048.23 204.233 Q2048.51 208.631 2050.87 210.946 Q2053.25 213.238 2057.49 213.238 Q2059.94 213.238 2062.23 212.636 Q2064.55 212.034 2066.82 210.83 L2066.82 214.858 Q2064.53 215.83 2062.12 216.34 Q2059.71 216.849 2057.23 216.849 Q2051.03 216.849 2047.4 213.238 Q2043.79 209.627 2043.79 203.469 Q2043.79 197.104 2047.21 193.377 Q2050.66 189.627 2056.49 189.627 Q2061.73 189.627 2064.76 193.006 Q2067.81 196.363 2067.81 202.15 M2063.55 200.9 Q2063.51 197.405 2061.59 195.321 Q2059.69 193.238 2056.54 193.238 Q2052.98 193.238 2050.82 195.252 Q2048.69 197.266 2048.37 200.923 L2063.55 200.9 Z" fill="#000000" fill-rule="nonzero" fill-opacity="1" /><path clip-path="url(#clip810)" d="M2089.83 194.233 Q2089.11 193.817 2088.25 193.631 Q2087.42 193.423 2086.4 193.423 Q2082.79 193.423 2080.85 195.784 Q2078.92 198.122 2078.92 202.52 L2078.92 216.178 L2074.64 216.178 L2074.64 190.252 L2078.92 190.252 L2078.92 194.28 Q2080.27 191.918 2082.42 190.784 Q2084.57 189.627 2087.65 189.627 Q2088.09 189.627 2088.62 189.696 Q2089.16 189.743 2089.8 189.858 L2089.83 194.233 Z" fill="#000000" fill-rule="nonzero" fill-opacity="1" /><path clip-path="url(#clip810)" d="M2098.42 212.289 L2098.42 226.039 L2094.13 226.039 L2094.13 190.252 L2098.42 190.252 L2098.42 194.187 Q2099.76 191.872 2101.79 190.761 Q2103.85 189.627 2106.7 189.627 Q2111.42 189.627 2114.36 193.377 Q2117.33 197.127 2117.33 203.238 Q2117.33 209.349 2114.36 213.099 Q2111.42 216.849 2106.7 216.849 Q2103.85 216.849 2101.79 215.738 Q2099.76 214.603 2098.42 212.289 M2112.91 203.238 Q2112.91 198.539 2110.96 195.877 Q2109.04 193.192 2105.66 193.192 Q2102.28 193.192 2100.34 195.877 Q2098.42 198.539 2098.42 203.238 Q2098.42 207.937 2100.34 210.622 Q2102.28 213.284 2105.66 213.284 Q2109.04 213.284 2110.96 210.622 Q2112.91 207.937 2112.91 203.238 Z" fill="#000000" fill-rule="nonzero" fill-opacity="1" /><path clip-path="url(#clip810)" d="M2134.43 193.238 Q2131.01 193.238 2129.02 195.923 Q2127.03 198.585 2127.03 203.238 Q2127.03 207.891 2128.99 210.576 Q2130.98 213.238 2134.43 213.238 Q2137.84 213.238 2139.83 210.553 Q2141.82 207.867 2141.82 203.238 Q2141.82 198.631 2139.83 195.946 Q2137.84 193.238 2134.43 193.238 M2134.43 189.627 Q2139.99 189.627 2143.16 193.238 Q2146.33 196.849 2146.33 203.238 Q2146.33 209.604 2143.16 213.238 Q2139.99 216.849 2134.43 216.849 Q2128.85 216.849 2125.68 213.238 Q2122.54 209.604 2122.54 203.238 Q2122.54 196.849 2125.68 193.238 Q2128.85 189.627 2134.43 189.627 Z" fill="#000000" fill-rule="nonzero" fill-opacity="1" /><path clip-path="url(#clip810)" d="M2153.39 180.159 L2157.65 180.159 L2157.65 216.178 L2153.39 216.178 L2153.39 180.159 Z" fill="#000000" fill-rule="nonzero" fill-opacity="1" /><path clip-path="url(#clip810)" d="M2178.35 203.145 Q2173.18 203.145 2171.19 204.326 Q2169.2 205.506 2169.2 208.354 Q2169.2 210.622 2170.68 211.965 Q2172.19 213.284 2174.76 213.284 Q2178.3 213.284 2180.43 210.784 Q2182.58 208.261 2182.58 204.094 L2182.58 203.145 L2178.35 203.145 M2186.84 201.386 L2186.84 216.178 L2182.58 216.178 L2182.58 212.242 Q2181.12 214.603 2178.95 215.738 Q2176.77 216.849 2173.62 216.849 Q2169.64 216.849 2167.28 214.627 Q2164.94 212.381 2164.94 208.631 Q2164.94 204.256 2167.86 202.034 Q2170.8 199.812 2176.61 199.812 L2182.58 199.812 L2182.58 199.395 Q2182.58 196.455 2180.64 194.858 Q2178.72 193.238 2175.22 193.238 Q2173 193.238 2170.89 193.77 Q2168.79 194.303 2166.84 195.367 L2166.84 191.432 Q2169.18 190.53 2171.38 190.09 Q2173.58 189.627 2175.66 189.627 Q2181.29 189.627 2184.06 192.543 Q2186.84 195.46 2186.84 201.386 Z" fill="#000000" fill-rule="nonzero" fill-opacity="1" /><path clip-path="url(#clip810)" d="M2214.27 191.247 L2214.27 195.229 Q2212.47 194.233 2210.64 193.747 Q2208.83 193.238 2206.98 193.238 Q2202.84 193.238 2200.54 195.877 Q2198.25 198.492 2198.25 203.238 Q2198.25 207.983 2200.54 210.622 Q2202.84 213.238 2206.98 213.238 Q2208.83 213.238 2210.64 212.752 Q2212.47 212.242 2214.27 211.247 L2214.27 215.182 Q2212.49 216.016 2210.57 216.432 Q2208.67 216.849 2206.52 216.849 Q2200.66 216.849 2197.21 213.168 Q2193.76 209.488 2193.76 203.238 Q2193.76 196.895 2197.23 193.261 Q2200.73 189.627 2206.79 189.627 Q2208.76 189.627 2210.64 190.043 Q2212.51 190.437 2214.27 191.247 Z" fill="#000000" fill-rule="nonzero" fill-opacity="1" /><path clip-path="url(#clip810)" d="M2221.68 190.252 L2225.94 190.252 L2225.94 216.641 Q2225.94 221.594 2224.04 223.816 Q2222.16 226.039 2217.97 226.039 L2216.35 226.039 L2216.35 222.428 L2217.49 222.428 Q2219.92 222.428 2220.8 221.293 Q2221.68 220.182 2221.68 216.641 L2221.68 190.252 M2221.68 180.159 L2225.94 180.159 L2225.94 185.553 L2221.68 185.553 L2221.68 180.159 Z" fill="#000000" fill-rule="nonzero" fill-opacity="1" /><path clip-path="url(#clip810)" d="M2246.63 203.145 Q2241.47 203.145 2239.48 204.326 Q2237.49 205.506 2237.49 208.354 Q2237.49 210.622 2238.97 211.965 Q2240.47 213.284 2243.04 213.284 Q2246.59 213.284 2248.72 210.784 Q2250.87 208.261 2250.87 204.094 L2250.87 203.145 L2246.63 203.145 M2255.13 201.386 L2255.13 216.178 L2250.87 216.178 L2250.87 212.242 Q2249.41 214.603 2247.23 215.738 Q2245.06 216.849 2241.91 216.849 Q2237.93 216.849 2235.57 214.627 Q2233.23 212.381 2233.23 208.631 Q2233.23 204.256 2236.15 202.034 Q2239.09 199.812 2244.9 199.812 L2250.87 199.812 L2250.87 199.395 Q2250.87 196.455 2248.92 194.858 Q2247 193.238 2243.51 193.238 Q2241.28 193.238 2239.18 193.77 Q2237.07 194.303 2235.13 195.367 L2235.13 191.432 Q2237.47 190.53 2239.66 190.09 Q2241.86 189.627 2243.95 189.627 Q2249.57 189.627 2252.35 192.543 Q2255.13 195.46 2255.13 201.386 Z" fill="#000000" fill-rule="nonzero" fill-opacity="1" /></svg>
