<?xml version="1.0" encoding="utf-8"?>
<svg xmlns="http://www.w3.org/2000/svg" xmlns:xlink="http://www.w3.org/1999/xlink" width="600" height="400" viewBox="0 0 2400 1600">
<defs>
  <clipPath id="clip940">
    <rect x="0" y="0" width="2400" height="1600"/>
  </clipPath>
</defs>
<path clip-path="url(#clip940)" d="M0 1600 L2400 1600 L2400 0 L0 0  Z" fill="#ffffff" fill-rule="evenodd" fill-opacity="1"/>
<defs>
  <clipPath id="clip941">
    <rect x="480" y="0" width="1681" height="1600"/>
  </clipPath>
</defs>
<path clip-path="url(#clip940)" d="M276.359 1486.45 L2352.76 1486.45 L2352.76 47.2441 L276.359 47.2441  Z" fill="#ffffff" fill-rule="evenodd" fill-opacity="1"/>
<defs>
  <clipPath id="clip942">
    <rect x="276" y="47" width="2077" height="1440"/>
  </clipPath>
</defs>
<polyline clip-path="url(#clip942)" style="stroke:#000000; stroke-linecap:round; stroke-linejoin:round; stroke-width:2; stroke-opacity:0.1; fill:none" points="531.011,1486.45 531.011,47.2441 "/>
<polyline clip-path="url(#clip942)" style="stroke:#000000; stroke-linecap:round; stroke-linejoin:round; stroke-width:2; stroke-opacity:0.1; fill:none" points="922.784,1486.45 922.784,47.2441 "/>
<polyline clip-path="url(#clip942)" style="stroke:#000000; stroke-linecap:round; stroke-linejoin:round; stroke-width:2; stroke-opacity:0.1; fill:none" points="1314.56,1486.45 1314.56,47.2441 "/>
<polyline clip-path="url(#clip942)" style="stroke:#000000; stroke-linecap:round; stroke-linejoin:round; stroke-width:2; stroke-opacity:0.1; fill:none" points="1706.33,1486.45 1706.33,47.2441 "/>
<polyline clip-path="url(#clip942)" style="stroke:#000000; stroke-linecap:round; stroke-linejoin:round; stroke-width:2; stroke-opacity:0.1; fill:none" points="2098.1,1486.45 2098.1,47.2441 "/>
<polyline clip-path="url(#clip940)" style="stroke:#000000; stroke-linecap:round; stroke-linejoin:round; stroke-width:4; stroke-opacity:1; fill:none" points="276.359,1486.45 2352.76,1486.45 "/>
<polyline clip-path="url(#clip940)" style="stroke:#000000; stroke-linecap:round; stroke-linejoin:round; stroke-width:4; stroke-opacity:1; fill:none" points="531.011,1486.45 531.011,1467.55 "/>
<polyline clip-path="url(#clip940)" style="stroke:#000000; stroke-linecap:round; stroke-linejoin:round; stroke-width:4; stroke-opacity:1; fill:none" points="922.784,1486.45 922.784,1467.55 "/>
<polyline clip-path="url(#clip940)" style="stroke:#000000; stroke-linecap:round; stroke-linejoin:round; stroke-width:4; stroke-opacity:1; fill:none" points="1314.56,1486.45 1314.56,1467.55 "/>
<polyline clip-path="url(#clip940)" style="stroke:#000000; stroke-linecap:round; stroke-linejoin:round; stroke-width:4; stroke-opacity:1; fill:none" points="1706.33,1486.45 1706.33,1467.55 "/>
<polyline clip-path="url(#clip940)" style="stroke:#000000; stroke-linecap:round; stroke-linejoin:round; stroke-width:4; stroke-opacity:1; fill:none" points="2098.1,1486.45 2098.1,1467.55 "/>
<path clip-path="url(#clip940)" d="M499.912 1532.02 L529.588 1532.02 L529.588 1535.95 L499.912 1535.95 L499.912 1532.02 Z" fill="#000000" fill-rule="nonzero" fill-opacity="1" /><path clip-path="url(#clip940)" d="M552.527 1518.36 L540.722 1536.81 L552.527 1536.81 L552.527 1518.36 M551.301 1514.29 L557.18 1514.29 L557.18 1536.81 L562.111 1536.81 L562.111 1540.7 L557.18 1540.7 L557.18 1548.85 L552.527 1548.85 L552.527 1540.7 L536.926 1540.7 L536.926 1536.19 L551.301 1514.29 Z" fill="#000000" fill-rule="nonzero" fill-opacity="1" /><path clip-path="url(#clip940)" d="M892.727 1532.02 L922.402 1532.02 L922.402 1535.95 L892.727 1535.95 L892.727 1532.02 Z" fill="#000000" fill-rule="nonzero" fill-opacity="1" /><path clip-path="url(#clip940)" d="M936.523 1544.91 L952.842 1544.91 L952.842 1548.85 L930.898 1548.85 L930.898 1544.91 Q933.56 1542.16 938.143 1537.53 Q942.75 1532.88 943.93 1531.53 Q946.175 1529.01 947.055 1527.27 Q947.958 1525.51 947.958 1523.82 Q947.958 1521.07 946.013 1519.33 Q944.092 1517.6 940.99 1517.6 Q938.791 1517.6 936.338 1518.36 Q933.907 1519.13 931.129 1520.68 L931.129 1515.95 Q933.953 1514.82 936.407 1514.24 Q938.861 1513.66 940.898 1513.66 Q946.268 1513.66 949.462 1516.35 Q952.657 1519.03 952.657 1523.52 Q952.657 1525.65 951.847 1527.57 Q951.06 1529.47 948.953 1532.07 Q948.375 1532.74 945.273 1535.95 Q942.171 1539.15 936.523 1544.91 Z" fill="#000000" fill-rule="nonzero" fill-opacity="1" /><path clip-path="url(#clip940)" d="M1314.56 1517.37 Q1310.95 1517.37 1309.12 1520.93 Q1307.31 1524.47 1307.31 1531.6 Q1307.31 1538.71 1309.12 1542.27 Q1310.95 1545.82 1314.56 1545.82 Q1318.19 1545.82 1320 1542.27 Q1321.83 1538.71 1321.83 1531.6 Q1321.83 1524.47 1320 1520.93 Q1318.19 1517.37 1314.56 1517.37 M1314.56 1513.66 Q1320.37 1513.66 1323.42 1518.27 Q1326.5 1522.85 1326.5 1531.6 Q1326.5 1540.33 1323.42 1544.94 Q1320.37 1549.52 1314.56 1549.52 Q1308.75 1549.52 1305.67 1544.94 Q1302.61 1540.33 1302.61 1531.6 Q1302.61 1522.85 1305.67 1518.27 Q1308.75 1513.66 1314.56 1513.66 Z" fill="#000000" fill-rule="nonzero" fill-opacity="1" /><path clip-path="url(#clip940)" d="M1700.98 1544.91 L1717.3 1544.91 L1717.3 1548.85 L1695.36 1548.85 L1695.36 1544.91 Q1698.02 1542.16 1702.6 1537.53 Q1707.21 1532.88 1708.39 1531.53 Q1710.64 1529.01 1711.52 1527.27 Q1712.42 1525.51 1712.42 1523.82 Q1712.42 1521.07 1710.47 1519.33 Q1708.55 1517.6 1705.45 1517.6 Q1703.25 1517.6 1700.8 1518.36 Q1698.37 1519.13 1695.59 1520.68 L1695.59 1515.95 Q1698.41 1514.82 1700.87 1514.24 Q1703.32 1513.66 1705.36 1513.66 Q1710.73 1513.66 1713.92 1516.35 Q1717.12 1519.03 1717.12 1523.52 Q1717.12 1525.65 1716.31 1527.57 Q1715.52 1529.47 1713.41 1532.07 Q1712.84 1532.74 1709.73 1535.95 Q1706.63 1539.15 1700.98 1544.91 Z" fill="#000000" fill-rule="nonzero" fill-opacity="1" /><path clip-path="url(#clip940)" d="M2101.11 1518.36 L2089.31 1536.81 L2101.11 1536.81 L2101.11 1518.36 M2099.89 1514.29 L2105.77 1514.29 L2105.77 1536.81 L2110.7 1536.81 L2110.7 1540.7 L2105.77 1540.7 L2105.77 1548.85 L2101.11 1548.85 L2101.11 1540.7 L2085.51 1540.7 L2085.51 1536.19 L2099.89 1514.29 Z" fill="#000000" fill-rule="nonzero" fill-opacity="1" /><polyline clip-path="url(#clip942)" style="stroke:#000000; stroke-linecap:round; stroke-linejoin:round; stroke-width:2; stroke-opacity:0.1; fill:none" points="276.359,1411.19 2352.76,1411.19 "/>
<polyline clip-path="url(#clip942)" style="stroke:#000000; stroke-linecap:round; stroke-linejoin:round; stroke-width:2; stroke-opacity:0.1; fill:none" points="276.359,1130.05 2352.76,1130.05 "/>
<polyline clip-path="url(#clip942)" style="stroke:#000000; stroke-linecap:round; stroke-linejoin:round; stroke-width:2; stroke-opacity:0.1; fill:none" points="276.359,848.913 2352.76,848.913 "/>
<polyline clip-path="url(#clip942)" style="stroke:#000000; stroke-linecap:round; stroke-linejoin:round; stroke-width:2; stroke-opacity:0.1; fill:none" points="276.359,567.776 2352.76,567.776 "/>
<polyline clip-path="url(#clip942)" style="stroke:#000000; stroke-linecap:round; stroke-linejoin:round; stroke-width:2; stroke-opacity:0.1; fill:none" points="276.359,286.639 2352.76,286.639 "/>
<polyline clip-path="url(#clip940)" style="stroke:#000000; stroke-linecap:round; stroke-linejoin:round; stroke-width:4; stroke-opacity:1; fill:none" points="276.359,1486.45 276.359,47.2441 "/>
<polyline clip-path="url(#clip940)" style="stroke:#000000; stroke-linecap:round; stroke-linejoin:round; stroke-width:4; stroke-opacity:1; fill:none" points="276.359,1411.19 295.257,1411.19 "/>
<polyline clip-path="url(#clip940)" style="stroke:#000000; stroke-linecap:round; stroke-linejoin:round; stroke-width:4; stroke-opacity:1; fill:none" points="276.359,1130.05 295.257,1130.05 "/>
<polyline clip-path="url(#clip940)" style="stroke:#000000; stroke-linecap:round; stroke-linejoin:round; stroke-width:4; stroke-opacity:1; fill:none" points="276.359,848.913 295.257,848.913 "/>
<polyline clip-path="url(#clip940)" style="stroke:#000000; stroke-linecap:round; stroke-linejoin:round; stroke-width:4; stroke-opacity:1; fill:none" points="276.359,567.776 295.257,567.776 "/>
<polyline clip-path="url(#clip940)" style="stroke:#000000; stroke-linecap:round; stroke-linejoin:round; stroke-width:4; stroke-opacity:1; fill:none" points="276.359,286.639 295.257,286.639 "/>
<path clip-path="url(#clip940)" d="M228.414 1396.99 Q224.803 1396.99 222.975 1400.55 Q221.169 1404.09 221.169 1411.22 Q221.169 1418.33 222.975 1421.89 Q224.803 1425.44 228.414 1425.44 Q232.049 1425.44 233.854 1421.89 Q235.683 1418.33 235.683 1411.22 Q235.683 1404.09 233.854 1400.55 Q232.049 1396.99 228.414 1396.99 M228.414 1393.28 Q234.225 1393.28 237.28 1397.89 Q240.359 1402.47 240.359 1411.22 Q240.359 1419.95 237.28 1424.56 Q234.225 1429.14 228.414 1429.14 Q222.604 1429.14 219.526 1424.56 Q216.47 1419.95 216.47 1411.22 Q216.47 1402.47 219.526 1397.89 Q222.604 1393.28 228.414 1393.28 Z" fill="#000000" fill-rule="nonzero" fill-opacity="1" /><path clip-path="url(#clip940)" d="M54.5569 1149.84 L62.1958 1149.84 L62.1958 1123.48 L53.8856 1125.14 L53.8856 1120.88 L62.1495 1119.22 L66.8254 1119.22 L66.8254 1149.84 L74.4642 1149.84 L74.4642 1153.78 L54.5569 1153.78 L54.5569 1149.84 Z" fill="#000000" fill-rule="nonzero" fill-opacity="1" /><path clip-path="url(#clip940)" d="M83.9086 1147.9 L88.7928 1147.9 L88.7928 1153.78 L83.9086 1153.78 L83.9086 1147.9 Z" fill="#000000" fill-rule="nonzero" fill-opacity="1" /><path clip-path="url(#clip940)" d="M108.978 1122.3 Q105.367 1122.3 103.538 1125.86 Q101.733 1129.4 101.733 1136.53 Q101.733 1143.64 103.538 1147.2 Q105.367 1150.75 108.978 1150.75 Q112.612 1150.75 114.418 1147.2 Q116.246 1143.64 116.246 1136.53 Q116.246 1129.4 114.418 1125.86 Q112.612 1122.3 108.978 1122.3 M108.978 1118.59 Q114.788 1118.59 117.844 1123.2 Q120.922 1127.78 120.922 1136.53 Q120.922 1145.26 117.844 1149.87 Q114.788 1154.45 108.978 1154.45 Q103.168 1154.45 100.089 1149.87 Q97.0335 1145.26 97.0335 1136.53 Q97.0335 1127.78 100.089 1123.2 Q103.168 1118.59 108.978 1118.59 Z" fill="#000000" fill-rule="nonzero" fill-opacity="1" /><path clip-path="url(#clip940)" d="M157.311 1128.32 L146.732 1138.94 L157.311 1149.52 L154.556 1152.32 L143.931 1141.69 L133.306 1152.32 L130.575 1149.52 L141.131 1138.94 L130.575 1128.32 L133.306 1125.51 L143.931 1136.14 L154.556 1125.51 L157.311 1128.32 Z" fill="#000000" fill-rule="nonzero" fill-opacity="1" /><path clip-path="url(#clip940)" d="M169.672 1149.84 L177.311 1149.84 L177.311 1123.48 L169.001 1125.14 L169.001 1120.88 L177.265 1119.22 L181.94 1119.22 L181.94 1149.84 L189.579 1149.84 L189.579 1153.78 L169.672 1153.78 L169.672 1149.84 Z" fill="#000000" fill-rule="nonzero" fill-opacity="1" /><path clip-path="url(#clip940)" d="M209.024 1122.3 Q205.413 1122.3 203.584 1125.86 Q201.778 1129.4 201.778 1136.53 Q201.778 1143.64 203.584 1147.2 Q205.413 1150.75 209.024 1150.75 Q212.658 1150.75 214.463 1147.2 Q216.292 1143.64 216.292 1136.53 Q216.292 1129.4 214.463 1125.86 Q212.658 1122.3 209.024 1122.3 M209.024 1118.59 Q214.834 1118.59 217.889 1123.2 Q220.968 1127.78 220.968 1136.53 Q220.968 1145.26 217.889 1149.87 Q214.834 1154.45 209.024 1154.45 Q203.214 1154.45 200.135 1149.87 Q197.079 1145.26 197.079 1136.53 Q197.079 1127.78 200.135 1123.2 Q203.214 1118.59 209.024 1118.59 Z" fill="#000000" fill-rule="nonzero" fill-opacity="1" /><path clip-path="url(#clip940)" d="M230.993 1110.81 Q228.435 1110.81 226.93 1112.56 Q225.444 1114.31 225.444 1117.36 Q225.444 1120.39 226.93 1122.15 Q228.435 1123.9 230.993 1123.9 Q233.55 1123.9 235.036 1122.15 Q236.541 1120.39 236.541 1117.36 Q236.541 1114.31 235.036 1112.56 Q233.55 1110.81 230.993 1110.81 M238.535 1098.91 L238.535 1102.37 Q237.105 1101.69 235.638 1101.33 Q234.19 1100.98 232.761 1100.98 Q228.999 1100.98 227.005 1103.52 Q225.031 1106.06 224.748 1111.19 Q225.858 1109.55 227.532 1108.69 Q229.206 1107.8 231.218 1107.8 Q235.45 1107.8 237.895 1110.38 Q240.359 1112.94 240.359 1117.36 Q240.359 1121.68 237.801 1124.3 Q235.243 1126.91 230.993 1126.91 Q226.121 1126.91 223.545 1123.19 Q220.968 1119.45 220.968 1112.36 Q220.968 1105.7 224.128 1101.75 Q227.287 1097.78 232.61 1097.78 Q234.039 1097.78 235.488 1098.06 Q236.955 1098.34 238.535 1098.91 Z" fill="#000000" fill-rule="nonzero" fill-opacity="1" /><path clip-path="url(#clip940)" d="M57.7745 868.706 L74.0939 868.706 L74.0939 872.641 L52.1495 872.641 L52.1495 868.706 Q54.8115 865.951 59.3949 861.321 Q64.0013 856.669 65.1819 855.326 Q67.4272 852.803 68.3068 851.067 Q69.2096 849.308 69.2096 847.618 Q69.2096 844.863 67.2652 843.127 Q65.3439 841.391 62.2421 841.391 Q60.043 841.391 57.5893 842.155 Q55.1588 842.919 52.381 844.47 L52.381 839.747 Q55.2051 838.613 57.6588 838.034 Q60.1124 837.456 62.1495 837.456 Q67.5198 837.456 70.7142 840.141 Q73.9087 842.826 73.9087 847.317 Q73.9087 849.446 73.0985 851.368 Q72.3115 853.266 70.205 855.858 Q69.6263 856.53 66.5245 859.747 Q63.4226 862.942 57.7745 868.706 Z" fill="#000000" fill-rule="nonzero" fill-opacity="1" /><path clip-path="url(#clip940)" d="M83.9086 866.761 L88.7928 866.761 L88.7928 872.641 L83.9086 872.641 L83.9086 866.761 Z" fill="#000000" fill-rule="nonzero" fill-opacity="1" /><path clip-path="url(#clip940)" d="M108.978 841.159 Q105.367 841.159 103.538 844.724 Q101.733 848.266 101.733 855.395 Q101.733 862.502 103.538 866.067 Q105.367 869.608 108.978 869.608 Q112.612 869.608 114.418 866.067 Q116.246 862.502 116.246 855.395 Q116.246 848.266 114.418 844.724 Q112.612 841.159 108.978 841.159 M108.978 837.456 Q114.788 837.456 117.844 842.062 Q120.922 846.645 120.922 855.395 Q120.922 864.122 117.844 868.729 Q114.788 873.312 108.978 873.312 Q103.168 873.312 100.089 868.729 Q97.0335 864.122 97.0335 855.395 Q97.0335 846.645 100.089 842.062 Q103.168 837.456 108.978 837.456 Z" fill="#000000" fill-rule="nonzero" fill-opacity="1" /><path clip-path="url(#clip940)" d="M157.311 847.178 L146.732 857.803 L157.311 868.381 L154.556 871.182 L143.931 860.557 L133.306 871.182 L130.575 868.381 L141.131 857.803 L130.575 847.178 L133.306 844.377 L143.931 855.002 L154.556 844.377 L157.311 847.178 Z" fill="#000000" fill-rule="nonzero" fill-opacity="1" /><path clip-path="url(#clip940)" d="M169.672 868.706 L177.311 868.706 L177.311 842.34 L169.001 844.007 L169.001 839.747 L177.265 838.081 L181.94 838.081 L181.94 868.706 L189.579 868.706 L189.579 872.641 L169.672 872.641 L169.672 868.706 Z" fill="#000000" fill-rule="nonzero" fill-opacity="1" /><path clip-path="url(#clip940)" d="M209.024 841.159 Q205.413 841.159 203.584 844.724 Q201.778 848.266 201.778 855.395 Q201.778 862.502 203.584 866.067 Q205.413 869.608 209.024 869.608 Q212.658 869.608 214.463 866.067 Q216.292 862.502 216.292 855.395 Q216.292 848.266 214.463 844.724 Q212.658 841.159 209.024 841.159 M209.024 837.456 Q214.834 837.456 217.889 842.062 Q220.968 846.645 220.968 855.395 Q220.968 864.122 217.889 868.729 Q214.834 873.312 209.024 873.312 Q203.214 873.312 200.135 868.729 Q197.079 864.122 197.079 855.395 Q197.079 846.645 200.135 842.062 Q203.214 837.456 209.024 837.456 Z" fill="#000000" fill-rule="nonzero" fill-opacity="1" /><path clip-path="url(#clip940)" d="M230.993 829.676 Q228.435 829.676 226.93 831.425 Q225.444 833.175 225.444 836.221 Q225.444 839.249 226.93 841.017 Q228.435 842.766 230.993 842.766 Q233.55 842.766 235.036 841.017 Q236.541 839.249 236.541 836.221 Q236.541 833.175 235.036 831.425 Q233.55 829.676 230.993 829.676 M238.535 817.771 L238.535 821.232 Q237.105 820.555 235.638 820.197 Q234.19 819.84 232.761 819.84 Q228.999 819.84 227.005 822.379 Q225.031 824.918 224.748 830.052 Q225.858 828.416 227.532 827.551 Q229.206 826.667 231.218 826.667 Q235.45 826.667 237.895 829.244 Q240.359 831.802 240.359 836.221 Q240.359 840.547 237.801 843.161 Q235.243 845.776 230.993 845.776 Q226.121 845.776 223.545 842.052 Q220.968 838.309 220.968 831.219 Q220.968 824.561 224.128 820.611 Q227.287 816.643 232.61 816.643 Q234.039 816.643 235.488 816.925 Q236.955 817.207 238.535 817.771 Z" fill="#000000" fill-rule="nonzero" fill-opacity="1" /><path clip-path="url(#clip940)" d="M67.9133 572.869 Q71.2698 573.587 73.1448 575.855 Q75.0429 578.124 75.0429 581.457 Q75.0429 586.573 71.5244 589.374 Q68.0059 592.175 61.5245 592.175 Q59.3486 592.175 57.0338 591.735 Q54.7421 591.318 52.2884 590.462 L52.2884 585.948 Q54.2328 587.082 56.5477 587.661 Q58.8625 588.24 61.3856 588.24 Q65.7837 588.24 68.0754 586.504 Q70.3902 584.767 70.3902 581.457 Q70.3902 578.402 68.2374 576.689 Q66.1078 574.953 62.2884 574.953 L58.2606 574.953 L58.2606 571.11 L62.4735 571.11 Q65.9226 571.11 67.7513 569.744 Q69.58 568.355 69.58 565.763 Q69.58 563.101 67.6819 561.689 Q65.8069 560.254 62.2884 560.254 Q60.3671 560.254 58.168 560.67 Q55.969 561.087 53.3301 561.967 L53.3301 557.8 Q55.9921 557.059 58.3069 556.689 Q60.6449 556.319 62.705 556.319 Q68.0291 556.319 71.1309 558.749 Q74.2327 561.156 74.2327 565.277 Q74.2327 568.147 72.5892 570.138 Q70.9457 572.105 67.9133 572.869 Z" fill="#000000" fill-rule="nonzero" fill-opacity="1" /><path clip-path="url(#clip940)" d="M83.9086 585.624 L88.7928 585.624 L88.7928 591.504 L83.9086 591.504 L83.9086 585.624 Z" fill="#000000" fill-rule="nonzero" fill-opacity="1" /><path clip-path="url(#clip940)" d="M108.978 560.022 Q105.367 560.022 103.538 563.587 Q101.733 567.129 101.733 574.258 Q101.733 581.365 103.538 584.929 Q105.367 588.471 108.978 588.471 Q112.612 588.471 114.418 584.929 Q116.246 581.365 116.246 574.258 Q116.246 567.129 114.418 563.587 Q112.612 560.022 108.978 560.022 M108.978 556.319 Q114.788 556.319 117.844 560.925 Q120.922 565.508 120.922 574.258 Q120.922 582.985 117.844 587.591 Q114.788 592.175 108.978 592.175 Q103.168 592.175 100.089 587.591 Q97.0335 582.985 97.0335 574.258 Q97.0335 565.508 100.089 560.925 Q103.168 556.319 108.978 556.319 Z" fill="#000000" fill-rule="nonzero" fill-opacity="1" /><path clip-path="url(#clip940)" d="M157.311 566.041 L146.732 576.666 L157.311 587.244 L154.556 590.045 L143.931 579.42 L133.306 590.045 L130.575 587.244 L141.131 576.666 L130.575 566.041 L133.306 563.24 L143.931 573.865 L154.556 563.24 L157.311 566.041 Z" fill="#000000" fill-rule="nonzero" fill-opacity="1" /><path clip-path="url(#clip940)" d="M169.672 587.568 L177.311 587.568 L177.311 561.203 L169.001 562.869 L169.001 558.61 L177.265 556.944 L181.94 556.944 L181.94 587.568 L189.579 587.568 L189.579 591.504 L169.672 591.504 L169.672 587.568 Z" fill="#000000" fill-rule="nonzero" fill-opacity="1" /><path clip-path="url(#clip940)" d="M209.024 560.022 Q205.413 560.022 203.584 563.587 Q201.778 567.129 201.778 574.258 Q201.778 581.365 203.584 584.929 Q205.413 588.471 209.024 588.471 Q212.658 588.471 214.463 584.929 Q216.292 581.365 216.292 574.258 Q216.292 567.129 214.463 563.587 Q212.658 560.022 209.024 560.022 M209.024 556.319 Q214.834 556.319 217.889 560.925 Q220.968 565.508 220.968 574.258 Q220.968 582.985 217.889 587.591 Q214.834 592.175 209.024 592.175 Q203.214 592.175 200.135 587.591 Q197.079 582.985 197.079 574.258 Q197.079 565.508 200.135 560.925 Q203.214 556.319 209.024 556.319 Z" fill="#000000" fill-rule="nonzero" fill-opacity="1" /><path clip-path="url(#clip940)" d="M230.993 548.539 Q228.435 548.539 226.93 550.288 Q225.444 552.037 225.444 555.084 Q225.444 558.112 226.93 559.88 Q228.435 561.629 230.993 561.629 Q233.55 561.629 235.036 559.88 Q236.541 558.112 236.541 555.084 Q236.541 552.037 235.036 550.288 Q233.55 548.539 230.993 548.539 M238.535 536.634 L238.535 540.094 Q237.105 539.417 235.638 539.06 Q234.19 538.703 232.761 538.703 Q228.999 538.703 227.005 541.242 Q225.031 543.781 224.748 548.915 Q225.858 547.279 227.532 546.414 Q229.206 545.53 231.218 545.53 Q235.45 545.53 237.895 548.107 Q240.359 550.664 240.359 555.084 Q240.359 559.41 237.801 562.024 Q235.243 564.639 230.993 564.639 Q226.121 564.639 223.545 560.915 Q220.968 557.172 220.968 550.081 Q220.968 543.423 224.128 539.474 Q227.287 535.505 232.61 535.505 Q234.039 535.505 235.488 535.787 Q236.955 536.07 238.535 536.634 Z" fill="#000000" fill-rule="nonzero" fill-opacity="1" /><path clip-path="url(#clip940)" d="M66.5939 279.88 L54.7884 298.329 L66.5939 298.329 L66.5939 279.88 M65.367 275.806 L71.2466 275.806 L71.2466 298.329 L76.1772 298.329 L76.1772 302.218 L71.2466 302.218 L71.2466 310.366 L66.5939 310.366 L66.5939 302.218 L50.9921 302.218 L50.9921 297.704 L65.367 275.806 Z" fill="#000000" fill-rule="nonzero" fill-opacity="1" /><path clip-path="url(#clip940)" d="M83.9086 304.487 L88.7928 304.487 L88.7928 310.366 L83.9086 310.366 L83.9086 304.487 Z" fill="#000000" fill-rule="nonzero" fill-opacity="1" /><path clip-path="url(#clip940)" d="M108.978 278.885 Q105.367 278.885 103.538 282.45 Q101.733 285.991 101.733 293.121 Q101.733 300.227 103.538 303.792 Q105.367 307.334 108.978 307.334 Q112.612 307.334 114.418 303.792 Q116.246 300.227 116.246 293.121 Q116.246 285.991 114.418 282.45 Q112.612 278.885 108.978 278.885 M108.978 275.181 Q114.788 275.181 117.844 279.788 Q120.922 284.371 120.922 293.121 Q120.922 301.848 117.844 306.454 Q114.788 311.038 108.978 311.038 Q103.168 311.038 100.089 306.454 Q97.0335 301.848 97.0335 293.121 Q97.0335 284.371 100.089 279.788 Q103.168 275.181 108.978 275.181 Z" fill="#000000" fill-rule="nonzero" fill-opacity="1" /><path clip-path="url(#clip940)" d="M157.311 284.903 L146.732 295.528 L157.311 306.107 L154.556 308.908 L143.931 298.283 L133.306 308.908 L130.575 306.107 L141.131 295.528 L130.575 284.903 L133.306 282.103 L143.931 292.728 L154.556 282.103 L157.311 284.903 Z" fill="#000000" fill-rule="nonzero" fill-opacity="1" /><path clip-path="url(#clip940)" d="M169.672 306.431 L177.311 306.431 L177.311 280.066 L169.001 281.732 L169.001 277.473 L177.265 275.806 L181.94 275.806 L181.94 306.431 L189.579 306.431 L189.579 310.366 L169.672 310.366 L169.672 306.431 Z" fill="#000000" fill-rule="nonzero" fill-opacity="1" /><path clip-path="url(#clip940)" d="M209.024 278.885 Q205.413 278.885 203.584 282.45 Q201.778 285.991 201.778 293.121 Q201.778 300.227 203.584 303.792 Q205.413 307.334 209.024 307.334 Q212.658 307.334 214.463 303.792 Q216.292 300.227 216.292 293.121 Q216.292 285.991 214.463 282.45 Q212.658 278.885 209.024 278.885 M209.024 275.181 Q214.834 275.181 217.889 279.788 Q220.968 284.371 220.968 293.121 Q220.968 301.848 217.889 306.454 Q214.834 311.038 209.024 311.038 Q203.214 311.038 200.135 306.454 Q197.079 301.848 197.079 293.121 Q197.079 284.371 200.135 279.788 Q203.214 275.181 209.024 275.181 Z" fill="#000000" fill-rule="nonzero" fill-opacity="1" /><path clip-path="url(#clip940)" d="M230.993 267.402 Q228.435 267.402 226.93 269.151 Q225.444 270.9 225.444 273.947 Q225.444 276.975 226.93 278.743 Q228.435 280.492 230.993 280.492 Q233.55 280.492 235.036 278.743 Q236.541 276.975 236.541 273.947 Q236.541 270.9 235.036 269.151 Q233.55 267.402 230.993 267.402 M238.535 255.497 L238.535 258.957 Q237.105 258.28 235.638 257.923 Q234.19 257.565 232.761 257.565 Q228.999 257.565 227.005 260.104 Q225.031 262.644 224.748 267.778 Q225.858 266.142 227.532 265.277 Q229.206 264.393 231.218 264.393 Q235.45 264.393 237.895 266.969 Q240.359 269.527 240.359 273.947 Q240.359 278.273 237.801 280.887 Q235.243 283.501 230.993 283.501 Q226.121 283.501 223.545 279.777 Q220.968 276.035 220.968 268.944 Q220.968 262.286 224.128 258.337 Q227.287 254.368 232.61 254.368 Q234.039 254.368 235.488 254.65 Q236.955 254.932 238.535 255.497 Z" fill="#000000" fill-rule="nonzero" fill-opacity="1" /><polyline clip-path="url(#clip942)" style="stroke:#009af9; stroke-linecap:round; stroke-linejoin:round; stroke-width:4; stroke-opacity:1; fill:none" points="335.125,1411.19 344.968,1411.19 354.812,1411.19 364.655,1411.19 374.499,1411.19 384.343,1411.19 394.186,1411.19 404.03,1411.19 413.873,1411.19 423.717,1411.19 433.56,1411.19 443.404,1411.19 453.247,1411.19 463.091,1411.19 472.934,1411.19 482.778,1411.19 492.622,1411.19 502.465,1411.19 512.309,1411.19 522.152,1411.19 531.996,1411.19 541.839,1411.19 551.683,1411.19 561.526,1411.19 571.37,1411.19 581.213,1411.19 591.057,1411.19 600.901,1411.19 610.744,1411.19 620.588,1411.19 630.431,1411.19 640.275,1411.19 650.118,1411.19 659.962,1411.19 669.805,1411.19 679.649,1411.19 689.492,1411.19 699.336,1411.19 709.179,1411.19 719.023,1411.19 728.867,1411.19 738.71,1411.19 748.554,1411.19 758.397,1411.19 768.241,1411.19 778.084,1411.19 787.928,1411.19 797.771,1411.19 807.615,1411.19 817.458,1411.19 827.302,1411.19 837.146,1411.19 846.989,1411.19 856.833,1411.19 866.676,1411.19 876.52,1411.19 886.363,1411.19 896.207,1411.19 906.05,1411.19 915.894,1411.19 925.737,1411.19 935.581,1411.19 945.425,1411.19 955.268,1411.19 965.112,1411.19 974.955,1411.19 984.799,1411.19 994.642,1411.19 1004.49,1411.19 1014.33,1411.19 1024.17,1411.19 1034.02,1411.19 1043.86,1411.19 1053.7,1411.19 1063.55,1411.19 1073.39,1411.19 1083.23,1411.19 1093.08,1411.19 1102.92,1411.19 1112.76,1411.19 1122.61,1411.19 1132.45,1411.19 1142.3,1411.19 1152.14,1411.19 1161.98,1411.19 1171.83,1411.19 1181.67,1411.19 1191.51,1411.19 1201.36,1411.19 1211.2,1411.19 1221.04,1411.19 1230.89,1411.19 1240.73,1411.19 1250.57,1411.19 1260.42,1411.19 1270.26,1411.19 1280.1,1411.19 1289.95,1411.19 1299.79,1411.19 1309.64,1411.19 1319.48,1411.19 1329.32,1411.19 1339.17,1411.19 1349.01,1411.19 1358.85,1411.19 1368.7,1411.19 1378.54,1411.19 1388.38,1411.19 1398.23,1411.19 1408.07,1411.19 1417.91,1411.19 1427.76,1411.19 1437.6,1411.19 1447.45,1411.19 1457.29,1411.19 1467.13,1411.19 1476.98,1411.19 1486.82,1411.19 1496.66,1411.19 1506.51,1411.19 1516.35,1411.19 1526.19,1411.19 1536.04,1411.19 1545.88,1411.19 1555.72,1411.19 1565.57,1411.19 1575.41,1411.19 1585.25,1411.19 1595.1,1411.19 1604.94,1411.19 1614.79,1411.19 1624.63,1411.19 1634.47,1411.19 1644.32,1411.19 1654.16,1411.19 1664,1411.19 1673.85,1411.19 1683.69,1411.19 1693.53,1411.19 1703.38,1411.19 1713.22,1411.19 1723.06,1411.19 1732.91,1411.19 1742.75,1411.19 1752.6,1411.19 1762.44,1411.19 1772.28,1411.19 1782.13,1411.19 1791.97,1411.19 1801.81,1411.19 1811.66,1411.19 1821.5,1411.19 1831.34,1411.19 1841.19,1411.19 1851.03,1411.19 1860.87,1411.19 1870.72,1411.19 1880.56,1411.19 1890.4,1411.19 1900.25,1411.19 1910.09,1411.19 1919.94,1411.19 1929.78,1411.19 1939.62,1411.19 1949.47,1411.19 1959.31,1411.19 1969.15,1411.19 1979,1411.19 1988.84,1411.19 1998.68,1411.19 2008.53,1411.19 2018.37,1411.19 2028.21,1411.19 2038.06,1411.19 2047.9,1411.19 2057.74,1411.19 2067.59,1411.19 2077.43,1411.19 2087.28,1411.19 2097.12,1411.19 2106.96,1411.19 2116.81,1411.19 2126.65,1411.19 2136.49,1411.19 2146.34,1411.19 2156.18,1411.19 2166.02,1411.19 2175.87,1411.19 2185.71,1411.19 2195.55,1411.19 2205.4,1411.19 2215.24,1411.19 2225.09,1411.19 2234.93,1411.19 2244.77,1411.19 2254.62,1411.19 2264.46,1411.19 2274.3,1411.19 2284.15,1411.19 2293.99,1411.19 "/>
<polyline clip-path="url(#clip942)" style="stroke:#e26f46; stroke-linecap:round; stroke-linejoin:round; stroke-width:4; stroke-opacity:1; fill:none" points="335.125,1411.19 344.968,87.9763 354.812,722.938 364.655,1222.51 374.499,1412.95 384.343,1445.72 394.186,1432.55 404.03,1417.95 413.873,1411.04 423.717,1409.52 433.56,1410.05 443.404,1410.8 453.247,1411.2 463.091,1411.31 472.934,1411.27 482.778,1411.22 492.622,1411.19 502.465,1411.18 512.309,1411.18 522.152,1411.18 531.996,1411.19 541.839,1411.19 551.683,1411.19 561.526,1411.19 571.37,1411.19 581.213,1411.19 591.057,1411.19 600.901,1411.19 610.744,1411.19 620.588,1411.19 630.431,1411.19 640.275,1411.19 650.118,1411.19 659.962,1411.19 669.805,1411.19 679.649,1411.19 689.492,1411.19 699.336,1411.19 709.179,1411.19 719.023,1411.19 728.867,1411.19 738.71,1411.19 748.554,1411.19 758.397,1411.19 768.241,1411.19 778.084,1411.19 787.928,1411.19 797.771,1411.19 807.615,1411.19 817.458,1411.19 827.302,1411.19 837.146,1411.19 846.989,1411.19 856.833,1411.19 866.676,1411.19 876.52,1411.19 886.363,1411.19 896.207,1411.19 906.05,1411.19 915.894,1411.19 925.737,1411.19 935.581,1411.19 945.425,1411.19 955.268,1411.19 965.112,1411.19 974.955,1411.19 984.799,1411.19 994.642,1411.19 1004.49,1411.19 1014.33,1411.19 1024.17,1411.19 1034.02,1411.19 1043.86,1411.19 1053.7,1411.19 1063.55,1411.19 1073.39,1411.19 1083.23,1411.19 1093.08,1411.19 1102.92,1411.19 1112.76,1411.19 1122.61,1411.19 1132.45,1411.19 1142.3,1411.19 1152.14,1411.19 1161.98,1411.19 1171.83,1411.19 1181.67,1411.19 1191.51,1411.19 1201.36,1411.19 1211.2,1411.19 1221.04,1411.19 1230.89,1411.19 1240.73,1411.19 1250.57,1411.19 1260.42,1411.19 1270.26,1411.19 1280.1,1411.19 1289.95,1411.19 1299.79,1411.19 1309.64,1411.19 1319.48,1411.19 1329.32,1411.19 1339.17,1411.19 1349.01,1411.19 1358.85,1411.19 1368.7,1411.19 1378.54,1411.19 1388.38,1411.19 1398.23,1411.19 1408.07,1411.19 1417.91,1411.19 1427.76,1411.19 1437.6,1411.19 1447.45,1411.19 1457.29,1411.19 1467.13,1411.19 1476.98,1411.19 1486.82,1411.19 1496.66,1411.19 1506.51,1411.19 1516.35,1411.19 1526.19,1411.19 1536.04,1411.19 1545.88,1411.19 1555.72,1411.19 1565.57,1411.19 1575.41,1411.19 1585.25,1411.19 1595.1,1411.19 1604.94,1411.19 1614.79,1411.19 1624.63,1411.19 1634.47,1411.19 1644.32,1411.19 1654.16,1411.19 1664,1411.19 1673.85,1411.19 1683.69,1411.19 1693.53,1411.19 1703.38,1411.19 1713.22,1411.19 1723.06,1411.19 1732.91,1411.19 1742.75,1411.19 1752.6,1411.19 1762.44,1411.19 1772.28,1411.19 1782.13,1411.19 1791.97,1411.19 1801.81,1411.19 1811.66,1411.19 1821.5,1411.19 1831.34,1411.19 1841.19,1411.19 1851.03,1411.19 1860.87,1411.19 1870.72,1411.19 1880.56,1411.19 1890.4,1411.19 1900.25,1411.19 1910.09,1411.19 1919.94,1411.19 1929.78,1411.19 1939.62,1411.19 1949.47,1411.19 1959.31,1411.19 1969.15,1411.19 1979,1411.19 1988.84,1411.19 1998.68,1411.19 2008.53,1411.19 2018.37,1411.19 2028.21,1411.19 2038.06,1411.19 2047.9,1411.19 2057.74,1411.19 2067.59,1411.19 2077.43,1411.19 2087.28,1411.19 2097.12,1411.19 2106.96,1411.18 2116.81,1411.18 2126.65,1411.18 2136.49,1411.19 2146.34,1411.22 2156.18,1411.27 2166.02,1411.31 2175.87,1411.2 2185.71,1410.8 2195.55,1410.05 2205.4,1409.52 2215.24,1411.04 2225.09,1417.95 2234.93,1432.55 2244.77,1445.72 2254.62,1412.95 2264.46,1222.51 2274.3,722.938 2284.15,87.9763 2293.99,1411.19 "/>
<path clip-path="url(#clip940)" d="M345.572 250.738 L825.132 250.738 L825.132 95.2176 L345.572 95.2176  Z" fill="#ffffff" fill-rule="evenodd" fill-opacity="1"/>
<polyline clip-path="url(#clip940)" style="stroke:#000000; stroke-linecap:round; stroke-linejoin:round; stroke-width:4; stroke-opacity:1; fill:none" points="345.572,250.738 825.132,250.738 825.132,95.2176 345.572,95.2176 345.572,250.738 "/>
<polyline clip-path="url(#clip940)" style="stroke:#009af9; stroke-linecap:round; stroke-linejoin:round; stroke-width:4; stroke-opacity:1; fill:none" points="368.643,147.058 507.07,147.058 "/>
<path clip-path="url(#clip940)" d="M530.141 129.778 L550.002 129.778 L550.002 133.713 L534.817 133.713 L534.817 143.898 L548.52 143.898 L548.52 147.833 L534.817 147.833 L534.817 164.338 L530.141 164.338 L530.141 129.778 Z" fill="#000000" fill-rule="nonzero" fill-opacity="1" /><path clip-path="url(#clip940)" d="M554.192 154.106 L554.192 138.412 L558.451 138.412 L558.451 153.944 Q558.451 157.625 559.886 159.476 Q561.321 161.305 564.191 161.305 Q567.641 161.305 569.631 159.106 Q571.645 156.907 571.645 153.111 L571.645 138.412 L575.904 138.412 L575.904 164.338 L571.645 164.338 L571.645 160.356 Q570.094 162.717 568.034 163.875 Q565.997 165.009 563.289 165.009 Q558.821 165.009 556.506 162.231 Q554.192 159.453 554.192 154.106 M564.909 137.787 L564.909 137.787 Z" fill="#000000" fill-rule="nonzero" fill-opacity="1" /><path clip-path="url(#clip940)" d="M606.228 148.689 L606.228 164.338 L601.969 164.338 L601.969 148.828 Q601.969 145.148 600.534 143.319 Q599.099 141.49 596.228 141.49 Q592.779 141.49 590.789 143.69 Q588.798 145.889 588.798 149.685 L588.798 164.338 L584.515 164.338 L584.515 138.412 L588.798 138.412 L588.798 142.44 Q590.326 140.102 592.386 138.944 Q594.469 137.787 597.177 137.787 Q601.645 137.787 603.937 140.565 Q606.228 143.319 606.228 148.689 Z" fill="#000000" fill-rule="nonzero" fill-opacity="1" /><path clip-path="url(#clip940)" d="M614.562 128.319 L618.844 128.319 L618.844 149.592 L631.552 138.412 L636.992 138.412 L623.242 150.541 L637.571 164.338 L632.015 164.338 L618.844 151.676 L618.844 164.338 L614.562 164.338 L614.562 128.319 Z" fill="#000000" fill-rule="nonzero" fill-opacity="1" /><path clip-path="url(#clip940)" d="M660.834 139.407 L660.834 143.389 Q659.029 142.393 657.2 141.907 Q655.395 141.398 653.543 141.398 Q649.399 141.398 647.108 144.037 Q644.816 146.652 644.816 151.398 Q644.816 156.143 647.108 158.782 Q649.399 161.398 653.543 161.398 Q655.395 161.398 657.2 160.912 Q659.029 160.402 660.834 159.407 L660.834 163.342 Q659.052 164.176 657.131 164.592 Q655.233 165.009 653.08 165.009 Q647.223 165.009 643.774 161.328 Q640.325 157.648 640.325 151.398 Q640.325 145.055 643.798 141.421 Q647.293 137.787 653.358 137.787 Q655.325 137.787 657.2 138.203 Q659.075 138.597 660.834 139.407 Z" fill="#000000" fill-rule="nonzero" fill-opacity="1" /><path clip-path="url(#clip940)" d="M668.242 138.412 L672.501 138.412 L672.501 164.801 Q672.501 169.754 670.603 171.976 Q668.728 174.199 664.538 174.199 L662.918 174.199 L662.918 170.588 L664.052 170.588 Q666.483 170.588 667.362 169.453 Q668.242 168.342 668.242 164.801 L668.242 138.412 M668.242 128.319 L672.501 128.319 L672.501 133.713 L668.242 133.713 L668.242 128.319 Z" fill="#000000" fill-rule="nonzero" fill-opacity="1" /><path clip-path="url(#clip940)" d="M693.195 151.305 Q688.033 151.305 686.043 152.486 Q684.052 153.666 684.052 156.514 Q684.052 158.782 685.533 160.125 Q687.038 161.444 689.607 161.444 Q693.149 161.444 695.279 158.944 Q697.432 156.421 697.432 152.254 L697.432 151.305 L693.195 151.305 M701.691 149.546 L701.691 164.338 L697.432 164.338 L697.432 160.402 Q695.973 162.763 693.797 163.898 Q691.621 165.009 688.473 165.009 Q684.492 165.009 682.131 162.787 Q679.793 160.541 679.793 156.791 Q679.793 152.416 682.709 150.194 Q685.649 147.972 691.459 147.972 L697.432 147.972 L697.432 147.555 Q697.432 144.615 695.487 143.018 Q693.566 141.398 690.07 141.398 Q687.848 141.398 685.742 141.93 Q683.635 142.463 681.691 143.527 L681.691 139.592 Q684.029 138.69 686.228 138.25 Q688.427 137.787 690.51 137.787 Q696.135 137.787 698.913 140.703 Q701.691 143.62 701.691 149.546 Z" fill="#000000" fill-rule="nonzero" fill-opacity="1" /><polyline clip-path="url(#clip940)" style="stroke:#e26f46; stroke-linecap:round; stroke-linejoin:round; stroke-width:4; stroke-opacity:1; fill:none" points="368.643,198.898 507.07,198.898 "/>
<path clip-path="url(#clip940)" d="M530.141 181.618 L534.817 181.618 L534.817 216.178 L530.141 216.178 L530.141 181.618 Z" fill="#000000" fill-rule="nonzero" fill-opacity="1" /><path clip-path="url(#clip940)" d="M565.488 200.529 L565.488 216.178 L561.229 216.178 L561.229 200.668 Q561.229 196.988 559.793 195.159 Q558.358 193.33 555.488 193.33 Q552.039 193.33 550.048 195.53 Q548.057 197.729 548.057 201.525 L548.057 216.178 L543.775 216.178 L543.775 190.252 L548.057 190.252 L548.057 194.28 Q549.585 191.942 551.645 190.784 Q553.729 189.627 556.437 189.627 Q560.904 189.627 563.196 192.405 Q565.488 195.159 565.488 200.529 Z" fill="#000000" fill-rule="nonzero" fill-opacity="1" /><path clip-path="url(#clip940)" d="M578.196 182.891 L578.196 190.252 L586.969 190.252 L586.969 193.562 L578.196 193.562 L578.196 207.636 Q578.196 210.807 579.053 211.71 Q579.932 212.613 582.594 212.613 L586.969 212.613 L586.969 216.178 L582.594 216.178 Q577.664 216.178 575.789 214.349 Q573.914 212.497 573.914 207.636 L573.914 193.562 L570.789 193.562 L570.789 190.252 L573.914 190.252 L573.914 182.891 L578.196 182.891 Z" fill="#000000" fill-rule="nonzero" fill-opacity="1" /><path clip-path="url(#clip940)" d="M614.747 202.15 L614.747 204.233 L595.164 204.233 Q595.441 208.631 597.802 210.946 Q600.187 213.238 604.423 213.238 Q606.876 213.238 609.168 212.636 Q611.483 212.034 613.751 210.83 L613.751 214.858 Q611.46 215.83 609.052 216.34 Q606.645 216.849 604.168 216.849 Q597.964 216.849 594.33 213.238 Q590.719 209.627 590.719 203.469 Q590.719 197.104 594.145 193.377 Q597.594 189.627 603.427 189.627 Q608.659 189.627 611.691 193.006 Q614.747 196.363 614.747 202.15 M610.488 200.9 Q610.441 197.405 608.52 195.321 Q606.622 193.238 603.474 193.238 Q599.909 193.238 597.756 195.252 Q595.626 197.266 595.302 200.923 L610.488 200.9 Z" fill="#000000" fill-rule="nonzero" fill-opacity="1" /><path clip-path="url(#clip940)" d="M636.761 194.233 Q636.043 193.817 635.186 193.631 Q634.353 193.423 633.335 193.423 Q629.724 193.423 627.779 195.784 Q625.858 198.122 625.858 202.52 L625.858 216.178 L621.575 216.178 L621.575 190.252 L625.858 190.252 L625.858 194.28 Q627.2 191.918 629.353 190.784 Q631.506 189.627 634.585 189.627 Q635.024 189.627 635.557 189.696 Q636.089 189.743 636.737 189.858 L636.761 194.233 Z" fill="#000000" fill-rule="nonzero" fill-opacity="1" /><path clip-path="url(#clip940)" d="M645.348 212.289 L645.348 226.039 L641.066 226.039 L641.066 190.252 L645.348 190.252 L645.348 194.187 Q646.691 191.872 648.728 190.761 Q650.788 189.627 653.635 189.627 Q658.358 189.627 661.297 193.377 Q664.26 197.127 664.26 203.238 Q664.26 209.349 661.297 213.099 Q658.358 216.849 653.635 216.849 Q650.788 216.849 648.728 215.738 Q646.691 214.603 645.348 212.289 M659.839 203.238 Q659.839 198.539 657.895 195.877 Q655.973 193.192 652.594 193.192 Q649.214 193.192 647.27 195.877 Q645.348 198.539 645.348 203.238 Q645.348 207.937 647.27 210.622 Q649.214 213.284 652.594 213.284 Q655.973 213.284 657.895 210.622 Q659.839 207.937 659.839 203.238 Z" fill="#000000" fill-rule="nonzero" fill-opacity="1" /><path clip-path="url(#clip940)" d="M681.367 193.238 Q677.941 193.238 675.95 195.923 Q673.959 198.585 673.959 203.238 Q673.959 207.891 675.927 210.576 Q677.918 213.238 681.367 213.238 Q684.77 213.238 686.76 210.553 Q688.751 207.867 688.751 203.238 Q688.751 198.631 686.76 195.946 Q684.77 193.238 681.367 193.238 M681.367 189.627 Q686.922 189.627 690.094 193.238 Q693.265 196.849 693.265 203.238 Q693.265 209.604 690.094 213.238 Q686.922 216.849 681.367 216.849 Q675.788 216.849 672.617 213.238 Q669.469 209.604 669.469 203.238 Q669.469 196.849 672.617 193.238 Q675.788 189.627 681.367 189.627 Z" fill="#000000" fill-rule="nonzero" fill-opacity="1" /><path clip-path="url(#clip940)" d="M700.325 180.159 L704.584 180.159 L704.584 216.178 L700.325 216.178 L700.325 180.159 Z" fill="#000000" fill-rule="nonzero" fill-opacity="1" /><path clip-path="url(#clip940)" d="M725.279 203.145 Q720.117 203.145 718.126 204.326 Q716.135 205.506 716.135 208.354 Q716.135 210.622 717.617 211.965 Q719.121 213.284 721.691 213.284 Q725.232 213.284 727.362 210.784 Q729.515 208.261 729.515 204.094 L729.515 203.145 L725.279 203.145 M733.774 201.386 L733.774 216.178 L729.515 216.178 L729.515 212.242 Q728.056 214.603 725.88 215.738 Q723.705 216.849 720.556 216.849 Q716.575 216.849 714.214 214.627 Q711.876 212.381 711.876 208.631 Q711.876 204.256 714.793 202.034 Q717.732 199.812 723.542 199.812 L729.515 199.812 L729.515 199.395 Q729.515 196.455 727.57 194.858 Q725.649 193.238 722.154 193.238 Q719.931 193.238 717.825 193.77 Q715.718 194.303 713.774 195.367 L713.774 191.432 Q716.112 190.53 718.311 190.09 Q720.51 189.627 722.593 189.627 Q728.218 189.627 730.996 192.543 Q733.774 195.46 733.774 201.386 Z" fill="#000000" fill-rule="nonzero" fill-opacity="1" /><path clip-path="url(#clip940)" d="M761.204 191.247 L761.204 195.229 Q759.399 194.233 757.57 193.747 Q755.765 193.238 753.913 193.238 Q749.769 193.238 747.478 195.877 Q745.186 198.492 745.186 203.238 Q745.186 207.983 747.478 210.622 Q749.769 213.238 753.913 213.238 Q755.765 213.238 757.57 212.752 Q759.399 212.242 761.204 211.247 L761.204 215.182 Q759.422 216.016 757.501 216.432 Q755.602 216.849 753.45 216.849 Q747.593 216.849 744.144 213.168 Q740.695 209.488 740.695 203.238 Q740.695 196.895 744.167 193.261 Q747.663 189.627 753.728 189.627 Q755.695 189.627 757.57 190.043 Q759.445 190.437 761.204 191.247 Z" fill="#000000" fill-rule="nonzero" fill-opacity="1" /><path clip-path="url(#clip940)" d="M768.612 190.252 L772.871 190.252 L772.871 216.641 Q772.871 221.594 770.973 223.816 Q769.098 226.039 764.908 226.039 L763.288 226.039 L763.288 222.428 L764.422 222.428 Q766.852 222.428 767.732 221.293 Q768.612 220.182 768.612 216.641 L768.612 190.252 M768.612 180.159 L772.871 180.159 L772.871 185.553 L768.612 185.553 L768.612 180.159 Z" fill="#000000" fill-rule="nonzero" fill-opacity="1" /><path clip-path="url(#clip940)" d="M793.565 203.145 Q788.403 203.145 786.413 204.326 Q784.422 205.506 784.422 208.354 Q784.422 210.622 785.903 211.965 Q787.408 213.284 789.977 213.284 Q793.519 213.284 795.649 210.784 Q797.801 208.261 797.801 204.094 L797.801 203.145 L793.565 203.145 M802.061 201.386 L802.061 216.178 L797.801 216.178 L797.801 212.242 Q796.343 214.603 794.167 215.738 Q791.991 216.849 788.843 216.849 Q784.862 216.849 782.5 214.627 Q780.163 212.381 780.163 208.631 Q780.163 204.256 783.079 202.034 Q786.019 199.812 791.829 199.812 L797.801 199.812 L797.801 199.395 Q797.801 196.455 795.857 194.858 Q793.936 193.238 790.44 193.238 Q788.218 193.238 786.112 193.77 Q784.005 194.303 782.061 195.367 L782.061 191.432 Q784.399 190.53 786.598 190.09 Q788.797 189.627 790.88 189.627 Q796.505 189.627 799.283 192.543 Q802.061 195.46 802.061 201.386 Z" fill="#000000" fill-rule="nonzero" fill-opacity="1" /></svg>
