<?xml version="1.0" encoding="utf-8"?>
<svg xmlns="http://www.w3.org/2000/svg" xmlns:xlink="http://www.w3.org/1999/xlink" width="600" height="400" viewBox="0 0 2400 1600">
<defs>
  <clipPath id="clip160">
    <rect x="0" y="0" width="2400" height="1600"/>
  </clipPath>
</defs>
<path clip-path="url(#clip160)" d="M0 1600 L2400 1600 L2400 0 L0 0  Z" fill="#ffffff" fill-rule="evenodd" fill-opacity="1"/>
<defs>
  <clipPath id="clip161">
    <rect x="480" y="0" width="1681" height="1600"/>
  </clipPath>
</defs>
<path clip-path="url(#clip160)" d="M186.274 1486.45 L2352.76 1486.45 L2352.76 47.2441 L186.274 47.2441  Z" fill="#ffffff" fill-rule="evenodd" fill-opacity="1"/>
<defs>
  <clipPath id="clip162">
    <rect x="186" y="47" width="2167" height="1440"/>
  </clipPath>
</defs>
<polyline clip-path="url(#clip162)" style="stroke:#000000; stroke-linecap:round; stroke-linejoin:round; stroke-width:2; stroke-opacity:0.1; fill:none" points="247.59,1486.45 247.59,47.2441 "/>
<polyline clip-path="url(#clip162)" style="stroke:#000000; stroke-linecap:round; stroke-linejoin:round; stroke-width:2; stroke-opacity:0.1; fill:none" points="758.552,1486.45 758.552,47.2441 "/>
<polyline clip-path="url(#clip162)" style="stroke:#000000; stroke-linecap:round; stroke-linejoin:round; stroke-width:2; stroke-opacity:0.1; fill:none" points="1269.51,1486.45 1269.51,47.2441 "/>
<polyline clip-path="url(#clip162)" style="stroke:#000000; stroke-linecap:round; stroke-linejoin:round; stroke-width:2; stroke-opacity:0.1; fill:none" points="1780.48,1486.45 1780.48,47.2441 "/>
<polyline clip-path="url(#clip162)" style="stroke:#000000; stroke-linecap:round; stroke-linejoin:round; stroke-width:2; stroke-opacity:0.1; fill:none" points="2291.44,1486.45 2291.44,47.2441 "/>
<polyline clip-path="url(#clip160)" style="stroke:#000000; stroke-linecap:round; stroke-linejoin:round; stroke-width:4; stroke-opacity:1; fill:none" points="186.274,1486.45 2352.76,1486.45 "/>
<polyline clip-path="url(#clip160)" style="stroke:#000000; stroke-linecap:round; stroke-linejoin:round; stroke-width:4; stroke-opacity:1; fill:none" points="247.59,1486.45 247.59,1467.55 "/>
<polyline clip-path="url(#clip160)" style="stroke:#000000; stroke-linecap:round; stroke-linejoin:round; stroke-width:4; stroke-opacity:1; fill:none" points="758.552,1486.45 758.552,1467.55 "/>
<polyline clip-path="url(#clip160)" style="stroke:#000000; stroke-linecap:round; stroke-linejoin:round; stroke-width:4; stroke-opacity:1; fill:none" points="1269.51,1486.45 1269.51,1467.55 "/>
<polyline clip-path="url(#clip160)" style="stroke:#000000; stroke-linecap:round; stroke-linejoin:round; stroke-width:4; stroke-opacity:1; fill:none" points="1780.48,1486.45 1780.48,1467.55 "/>
<polyline clip-path="url(#clip160)" style="stroke:#000000; stroke-linecap:round; stroke-linejoin:round; stroke-width:4; stroke-opacity:1; fill:none" points="2291.44,1486.45 2291.44,1467.55 "/>
<path clip-path="url(#clip160)" d="M194.118 1532.02 L223.793 1532.02 L223.793 1535.95 L194.118 1535.95 L194.118 1532.02 Z" fill="#000000" fill-rule="nonzero" fill-opacity="1" /><path clip-path="url(#clip160)" d="M234.696 1544.91 L242.335 1544.91 L242.335 1518.55 L234.025 1520.21 L234.025 1515.95 L242.289 1514.29 L246.965 1514.29 L246.965 1544.91 L254.603 1544.91 L254.603 1548.85 L234.696 1548.85 L234.696 1544.91 Z" fill="#000000" fill-rule="nonzero" fill-opacity="1" /><path clip-path="url(#clip160)" d="M264.048 1542.97 L268.932 1542.97 L268.932 1548.85 L264.048 1548.85 L264.048 1542.97 Z" fill="#000000" fill-rule="nonzero" fill-opacity="1" /><path clip-path="url(#clip160)" d="M289.117 1517.37 Q285.506 1517.37 283.677 1520.93 Q281.872 1524.47 281.872 1531.6 Q281.872 1538.71 283.677 1542.27 Q285.506 1545.82 289.117 1545.82 Q292.751 1545.82 294.557 1542.27 Q296.386 1538.71 296.386 1531.6 Q296.386 1524.47 294.557 1520.93 Q292.751 1517.37 289.117 1517.37 M289.117 1513.66 Q294.927 1513.66 297.983 1518.27 Q301.061 1522.85 301.061 1531.6 Q301.061 1540.33 297.983 1544.94 Q294.927 1549.52 289.117 1549.52 Q283.307 1549.52 280.228 1544.94 Q277.173 1540.33 277.173 1531.6 Q277.173 1522.85 280.228 1518.27 Q283.307 1513.66 289.117 1513.66 Z" fill="#000000" fill-rule="nonzero" fill-opacity="1" /><path clip-path="url(#clip160)" d="M705.578 1532.02 L735.254 1532.02 L735.254 1535.95 L705.578 1535.95 L705.578 1532.02 Z" fill="#000000" fill-rule="nonzero" fill-opacity="1" /><path clip-path="url(#clip160)" d="M755.346 1517.37 Q751.735 1517.37 749.906 1520.93 Q748.101 1524.47 748.101 1531.6 Q748.101 1538.71 749.906 1542.27 Q751.735 1545.82 755.346 1545.82 Q758.98 1545.82 760.786 1542.27 Q762.615 1538.71 762.615 1531.6 Q762.615 1524.47 760.786 1520.93 Q758.98 1517.37 755.346 1517.37 M755.346 1513.66 Q761.156 1513.66 764.212 1518.27 Q767.291 1522.85 767.291 1531.6 Q767.291 1540.33 764.212 1544.94 Q761.156 1549.52 755.346 1549.52 Q749.536 1549.52 746.457 1544.94 Q743.402 1540.33 743.402 1531.6 Q743.402 1522.85 746.457 1518.27 Q749.536 1513.66 755.346 1513.66 Z" fill="#000000" fill-rule="nonzero" fill-opacity="1" /><path clip-path="url(#clip160)" d="M775.508 1542.97 L780.392 1542.97 L780.392 1548.85 L775.508 1548.85 L775.508 1542.97 Z" fill="#000000" fill-rule="nonzero" fill-opacity="1" /><path clip-path="url(#clip160)" d="M790.624 1514.29 L808.98 1514.29 L808.98 1518.22 L794.906 1518.22 L794.906 1526.7 Q795.925 1526.35 796.943 1526.19 Q797.962 1526 798.98 1526 Q804.767 1526 808.147 1529.17 Q811.526 1532.34 811.526 1537.76 Q811.526 1543.34 808.054 1546.44 Q804.582 1549.52 798.263 1549.52 Q796.087 1549.52 793.818 1549.15 Q791.573 1548.78 789.166 1548.04 L789.166 1543.34 Q791.249 1544.47 793.471 1545.03 Q795.693 1545.58 798.17 1545.58 Q802.175 1545.58 804.513 1543.48 Q806.851 1541.37 806.851 1537.76 Q806.851 1534.15 804.513 1532.04 Q802.175 1529.94 798.17 1529.94 Q796.295 1529.94 794.42 1530.35 Q792.568 1530.77 790.624 1531.65 L790.624 1514.29 Z" fill="#000000" fill-rule="nonzero" fill-opacity="1" /><path clip-path="url(#clip160)" d="M1246.9 1517.37 Q1243.29 1517.37 1241.46 1520.93 Q1239.65 1524.47 1239.65 1531.6 Q1239.65 1538.71 1241.46 1542.27 Q1243.29 1545.82 1246.9 1545.82 Q1250.53 1545.82 1252.34 1542.27 Q1254.17 1538.71 1254.17 1531.6 Q1254.17 1524.47 1252.34 1520.93 Q1250.53 1517.37 1246.9 1517.37 M1246.9 1513.66 Q1252.71 1513.66 1255.77 1518.27 Q1258.84 1522.85 1258.84 1531.6 Q1258.84 1540.33 1255.77 1544.94 Q1252.71 1549.52 1246.9 1549.52 Q1241.09 1549.52 1238.01 1544.94 Q1234.95 1540.33 1234.95 1531.6 Q1234.95 1522.85 1238.01 1518.27 Q1241.09 1513.66 1246.9 1513.66 Z" fill="#000000" fill-rule="nonzero" fill-opacity="1" /><path clip-path="url(#clip160)" d="M1267.06 1542.97 L1271.95 1542.97 L1271.95 1548.85 L1267.06 1548.85 L1267.06 1542.97 Z" fill="#000000" fill-rule="nonzero" fill-opacity="1" /><path clip-path="url(#clip160)" d="M1292.13 1517.37 Q1288.52 1517.37 1286.69 1520.93 Q1284.89 1524.47 1284.89 1531.6 Q1284.89 1538.71 1286.69 1542.27 Q1288.52 1545.82 1292.13 1545.82 Q1295.76 1545.82 1297.57 1542.27 Q1299.4 1538.71 1299.4 1531.6 Q1299.4 1524.47 1297.57 1520.93 Q1295.76 1517.37 1292.13 1517.37 M1292.13 1513.66 Q1297.94 1513.66 1301 1518.27 Q1304.07 1522.85 1304.07 1531.6 Q1304.07 1540.33 1301 1544.94 Q1297.94 1549.52 1292.13 1549.52 Q1286.32 1549.52 1283.24 1544.94 Q1280.19 1540.33 1280.19 1531.6 Q1280.19 1522.85 1283.24 1518.27 Q1286.32 1513.66 1292.13 1513.66 Z" fill="#000000" fill-rule="nonzero" fill-opacity="1" /><path clip-path="url(#clip160)" d="M1758.36 1517.37 Q1754.75 1517.37 1752.92 1520.93 Q1751.11 1524.47 1751.11 1531.6 Q1751.11 1538.71 1752.92 1542.27 Q1754.75 1545.82 1758.36 1545.82 Q1761.99 1545.82 1763.8 1542.27 Q1765.63 1538.71 1765.63 1531.6 Q1765.63 1524.47 1763.8 1520.93 Q1761.99 1517.37 1758.36 1517.37 M1758.36 1513.66 Q1764.17 1513.66 1767.23 1518.27 Q1770.3 1522.85 1770.3 1531.6 Q1770.3 1540.33 1767.23 1544.94 Q1764.17 1549.52 1758.36 1549.52 Q1752.55 1549.52 1749.47 1544.94 Q1746.42 1540.33 1746.42 1531.6 Q1746.42 1522.85 1749.47 1518.27 Q1752.55 1513.66 1758.36 1513.66 Z" fill="#000000" fill-rule="nonzero" fill-opacity="1" /><path clip-path="url(#clip160)" d="M1778.52 1542.97 L1783.41 1542.97 L1783.41 1548.85 L1778.52 1548.85 L1778.52 1542.97 Z" fill="#000000" fill-rule="nonzero" fill-opacity="1" /><path clip-path="url(#clip160)" d="M1793.64 1514.29 L1811.99 1514.29 L1811.99 1518.22 L1797.92 1518.22 L1797.92 1526.7 Q1798.94 1526.35 1799.96 1526.19 Q1800.98 1526 1801.99 1526 Q1807.78 1526 1811.16 1529.17 Q1814.54 1532.34 1814.54 1537.76 Q1814.54 1543.34 1811.07 1546.44 Q1807.6 1549.52 1801.28 1549.52 Q1799.1 1549.52 1796.83 1549.15 Q1794.59 1548.78 1792.18 1548.04 L1792.18 1543.34 Q1794.26 1544.47 1796.48 1545.03 Q1798.71 1545.58 1801.18 1545.58 Q1805.19 1545.58 1807.53 1543.48 Q1809.86 1541.37 1809.86 1537.76 Q1809.86 1534.15 1807.53 1532.04 Q1805.19 1529.94 1801.18 1529.94 Q1799.31 1529.94 1797.43 1530.35 Q1795.58 1530.77 1793.64 1531.65 L1793.64 1514.29 Z" fill="#000000" fill-rule="nonzero" fill-opacity="1" /><path clip-path="url(#clip160)" d="M2258.59 1544.91 L2266.23 1544.91 L2266.23 1518.55 L2257.92 1520.21 L2257.92 1515.95 L2266.19 1514.29 L2270.86 1514.29 L2270.86 1544.91 L2278.5 1544.91 L2278.5 1548.85 L2258.59 1548.85 L2258.59 1544.91 Z" fill="#000000" fill-rule="nonzero" fill-opacity="1" /><path clip-path="url(#clip160)" d="M2287.95 1542.97 L2292.83 1542.97 L2292.83 1548.85 L2287.95 1548.85 L2287.95 1542.97 Z" fill="#000000" fill-rule="nonzero" fill-opacity="1" /><path clip-path="url(#clip160)" d="M2313.01 1517.37 Q2309.4 1517.37 2307.57 1520.93 Q2305.77 1524.47 2305.77 1531.6 Q2305.77 1538.71 2307.57 1542.27 Q2309.4 1545.82 2313.01 1545.82 Q2316.65 1545.82 2318.45 1542.27 Q2320.28 1538.71 2320.28 1531.6 Q2320.28 1524.47 2318.45 1520.93 Q2316.65 1517.37 2313.01 1517.37 M2313.01 1513.66 Q2318.82 1513.66 2321.88 1518.27 Q2324.96 1522.85 2324.96 1531.6 Q2324.96 1540.33 2321.88 1544.94 Q2318.82 1549.52 2313.01 1549.52 Q2307.2 1549.52 2304.13 1544.94 Q2301.07 1540.33 2301.07 1531.6 Q2301.07 1522.85 2304.13 1518.27 Q2307.2 1513.66 2313.01 1513.66 Z" fill="#000000" fill-rule="nonzero" fill-opacity="1" /><polyline clip-path="url(#clip162)" style="stroke:#000000; stroke-linecap:round; stroke-linejoin:round; stroke-width:2; stroke-opacity:0.1; fill:none" points="186.274,1452.57 2352.76,1452.57 "/>
<polyline clip-path="url(#clip162)" style="stroke:#000000; stroke-linecap:round; stroke-linejoin:round; stroke-width:2; stroke-opacity:0.1; fill:none" points="186.274,1111.42 2352.76,1111.42 "/>
<polyline clip-path="url(#clip162)" style="stroke:#000000; stroke-linecap:round; stroke-linejoin:round; stroke-width:2; stroke-opacity:0.1; fill:none" points="186.274,770.275 2352.76,770.275 "/>
<polyline clip-path="url(#clip162)" style="stroke:#000000; stroke-linecap:round; stroke-linejoin:round; stroke-width:2; stroke-opacity:0.1; fill:none" points="186.274,429.125 2352.76,429.125 "/>
<polyline clip-path="url(#clip162)" style="stroke:#000000; stroke-linecap:round; stroke-linejoin:round; stroke-width:2; stroke-opacity:0.1; fill:none" points="186.274,87.9763 2352.76,87.9763 "/>
<polyline clip-path="url(#clip160)" style="stroke:#000000; stroke-linecap:round; stroke-linejoin:round; stroke-width:4; stroke-opacity:1; fill:none" points="186.274,1486.45 186.274,47.2441 "/>
<polyline clip-path="url(#clip160)" style="stroke:#000000; stroke-linecap:round; stroke-linejoin:round; stroke-width:4; stroke-opacity:1; fill:none" points="186.274,1452.57 205.172,1452.57 "/>
<polyline clip-path="url(#clip160)" style="stroke:#000000; stroke-linecap:round; stroke-linejoin:round; stroke-width:4; stroke-opacity:1; fill:none" points="186.274,1111.42 205.172,1111.42 "/>
<polyline clip-path="url(#clip160)" style="stroke:#000000; stroke-linecap:round; stroke-linejoin:round; stroke-width:4; stroke-opacity:1; fill:none" points="186.274,770.275 205.172,770.275 "/>
<polyline clip-path="url(#clip160)" style="stroke:#000000; stroke-linecap:round; stroke-linejoin:round; stroke-width:4; stroke-opacity:1; fill:none" points="186.274,429.125 205.172,429.125 "/>
<polyline clip-path="url(#clip160)" style="stroke:#000000; stroke-linecap:round; stroke-linejoin:round; stroke-width:4; stroke-opacity:1; fill:none" points="186.274,87.9763 205.172,87.9763 "/>
<path clip-path="url(#clip160)" d="M62.9365 1438.37 Q59.3254 1438.37 57.4967 1441.94 Q55.6912 1445.48 55.6912 1452.61 Q55.6912 1459.71 57.4967 1463.28 Q59.3254 1466.82 62.9365 1466.82 Q66.5707 1466.82 68.3763 1463.28 Q70.205 1459.71 70.205 1452.61 Q70.205 1445.48 68.3763 1441.94 Q66.5707 1438.37 62.9365 1438.37 M62.9365 1434.67 Q68.7467 1434.67 71.8022 1439.27 Q74.8809 1443.86 74.8809 1452.61 Q74.8809 1461.33 71.8022 1465.94 Q68.7467 1470.52 62.9365 1470.52 Q57.1264 1470.52 54.0477 1465.94 Q50.9921 1461.33 50.9921 1452.61 Q50.9921 1443.86 54.0477 1439.27 Q57.1264 1434.67 62.9365 1434.67 Z" fill="#000000" fill-rule="nonzero" fill-opacity="1" /><path clip-path="url(#clip160)" d="M83.0984 1463.97 L87.9827 1463.97 L87.9827 1469.85 L83.0984 1469.85 L83.0984 1463.97 Z" fill="#000000" fill-rule="nonzero" fill-opacity="1" /><path clip-path="url(#clip160)" d="M108.168 1438.37 Q104.557 1438.37 102.728 1441.94 Q100.922 1445.48 100.922 1452.61 Q100.922 1459.71 102.728 1463.28 Q104.557 1466.82 108.168 1466.82 Q111.802 1466.82 113.608 1463.28 Q115.436 1459.71 115.436 1452.61 Q115.436 1445.48 113.608 1441.94 Q111.802 1438.37 108.168 1438.37 M108.168 1434.67 Q113.978 1434.67 117.033 1439.27 Q120.112 1443.86 120.112 1452.61 Q120.112 1461.33 117.033 1465.94 Q113.978 1470.52 108.168 1470.52 Q102.358 1470.52 99.2789 1465.94 Q96.2234 1461.33 96.2234 1452.61 Q96.2234 1443.86 99.2789 1439.27 Q102.358 1434.67 108.168 1434.67 Z" fill="#000000" fill-rule="nonzero" fill-opacity="1" /><path clip-path="url(#clip160)" d="M138.33 1438.37 Q134.719 1438.37 132.89 1441.94 Q131.084 1445.48 131.084 1452.61 Q131.084 1459.71 132.89 1463.28 Q134.719 1466.82 138.33 1466.82 Q141.964 1466.82 143.769 1463.28 Q145.598 1459.71 145.598 1452.61 Q145.598 1445.48 143.769 1441.94 Q141.964 1438.37 138.33 1438.37 M138.33 1434.67 Q144.14 1434.67 147.195 1439.27 Q150.274 1443.86 150.274 1452.61 Q150.274 1461.33 147.195 1465.94 Q144.14 1470.52 138.33 1470.52 Q132.519 1470.52 129.441 1465.94 Q126.385 1461.33 126.385 1452.61 Q126.385 1443.86 129.441 1439.27 Q132.519 1434.67 138.33 1434.67 Z" fill="#000000" fill-rule="nonzero" fill-opacity="1" /><path clip-path="url(#clip160)" d="M63.9319 1097.22 Q60.3208 1097.22 58.4921 1100.79 Q56.6865 1104.33 56.6865 1111.46 Q56.6865 1118.56 58.4921 1122.13 Q60.3208 1125.67 63.9319 1125.67 Q67.5661 1125.67 69.3717 1122.13 Q71.2004 1118.56 71.2004 1111.46 Q71.2004 1104.33 69.3717 1100.79 Q67.5661 1097.22 63.9319 1097.22 M63.9319 1093.52 Q69.742 1093.52 72.7976 1098.13 Q75.8763 1102.71 75.8763 1111.46 Q75.8763 1120.19 72.7976 1124.79 Q69.742 1129.38 63.9319 1129.38 Q58.1217 1129.38 55.043 1124.79 Q51.9875 1120.19 51.9875 1111.46 Q51.9875 1102.71 55.043 1098.13 Q58.1217 1093.52 63.9319 1093.52 Z" fill="#000000" fill-rule="nonzero" fill-opacity="1" /><path clip-path="url(#clip160)" d="M84.0938 1122.82 L88.978 1122.82 L88.978 1128.7 L84.0938 1128.7 L84.0938 1122.82 Z" fill="#000000" fill-rule="nonzero" fill-opacity="1" /><path clip-path="url(#clip160)" d="M103.191 1124.77 L119.51 1124.77 L119.51 1128.7 L97.566 1128.7 L97.566 1124.77 Q100.228 1122.01 104.811 1117.38 Q109.418 1112.73 110.598 1111.39 Q112.844 1108.87 113.723 1107.13 Q114.626 1105.37 114.626 1103.68 Q114.626 1100.93 112.682 1099.19 Q110.76 1097.45 107.658 1097.45 Q105.459 1097.45 103.006 1098.22 Q100.575 1098.98 97.7974 1100.53 L97.7974 1095.81 Q100.621 1094.68 103.075 1094.1 Q105.529 1093.52 107.566 1093.52 Q112.936 1093.52 116.131 1096.2 Q119.325 1098.89 119.325 1103.38 Q119.325 1105.51 118.515 1107.43 Q117.728 1109.33 115.621 1111.92 Q115.043 1112.59 111.941 1115.81 Q108.839 1119 103.191 1124.77 Z" fill="#000000" fill-rule="nonzero" fill-opacity="1" /><path clip-path="url(#clip160)" d="M129.371 1094.14 L147.728 1094.14 L147.728 1098.08 L133.654 1098.08 L133.654 1106.55 Q134.672 1106.2 135.691 1106.04 Q136.709 1105.86 137.728 1105.86 Q143.515 1105.86 146.894 1109.03 Q150.274 1112.2 150.274 1117.62 Q150.274 1123.19 146.802 1126.3 Q143.33 1129.38 137.01 1129.38 Q134.834 1129.38 132.566 1129 Q130.32 1128.63 127.913 1127.89 L127.913 1123.19 Q129.996 1124.33 132.219 1124.88 Q134.441 1125.44 136.918 1125.44 Q140.922 1125.44 143.26 1123.33 Q145.598 1121.23 145.598 1117.62 Q145.598 1114 143.26 1111.9 Q140.922 1109.79 136.918 1109.79 Q135.043 1109.79 133.168 1110.21 Q131.316 1110.63 129.371 1111.5 L129.371 1094.14 Z" fill="#000000" fill-rule="nonzero" fill-opacity="1" /><path clip-path="url(#clip160)" d="M62.9365 756.073 Q59.3254 756.073 57.4967 759.638 Q55.6912 763.18 55.6912 770.309 Q55.6912 777.416 57.4967 780.981 Q59.3254 784.522 62.9365 784.522 Q66.5707 784.522 68.3763 780.981 Q70.205 777.416 70.205 770.309 Q70.205 763.18 68.3763 759.638 Q66.5707 756.073 62.9365 756.073 M62.9365 752.37 Q68.7467 752.37 71.8022 756.976 Q74.8809 761.559 74.8809 770.309 Q74.8809 779.036 71.8022 783.643 Q68.7467 788.226 62.9365 788.226 Q57.1264 788.226 54.0477 783.643 Q50.9921 779.036 50.9921 770.309 Q50.9921 761.559 54.0477 756.976 Q57.1264 752.37 62.9365 752.37 Z" fill="#000000" fill-rule="nonzero" fill-opacity="1" /><path clip-path="url(#clip160)" d="M83.0984 781.675 L87.9827 781.675 L87.9827 787.555 L83.0984 787.555 L83.0984 781.675 Z" fill="#000000" fill-rule="nonzero" fill-opacity="1" /><path clip-path="url(#clip160)" d="M98.2141 752.995 L116.57 752.995 L116.57 756.93 L102.496 756.93 L102.496 765.402 Q103.515 765.055 104.534 764.893 Q105.552 764.708 106.571 764.708 Q112.358 764.708 115.737 767.879 Q119.117 771.05 119.117 776.467 Q119.117 782.045 115.645 785.147 Q112.172 788.226 105.853 788.226 Q103.677 788.226 101.409 787.856 Q99.1632 787.485 96.7558 786.744 L96.7558 782.045 Q98.8391 783.18 101.061 783.735 Q103.284 784.291 105.76 784.291 Q109.765 784.291 112.103 782.184 Q114.441 780.078 114.441 776.467 Q114.441 772.856 112.103 770.749 Q109.765 768.643 105.76 768.643 Q103.885 768.643 102.01 769.059 Q100.159 769.476 98.2141 770.356 L98.2141 752.995 Z" fill="#000000" fill-rule="nonzero" fill-opacity="1" /><path clip-path="url(#clip160)" d="M138.33 756.073 Q134.719 756.073 132.89 759.638 Q131.084 763.18 131.084 770.309 Q131.084 777.416 132.89 780.981 Q134.719 784.522 138.33 784.522 Q141.964 784.522 143.769 780.981 Q145.598 777.416 145.598 770.309 Q145.598 763.18 143.769 759.638 Q141.964 756.073 138.33 756.073 M138.33 752.37 Q144.14 752.37 147.195 756.976 Q150.274 761.559 150.274 770.309 Q150.274 779.036 147.195 783.643 Q144.14 788.226 138.33 788.226 Q132.519 788.226 129.441 783.643 Q126.385 779.036 126.385 770.309 Q126.385 761.559 129.441 756.976 Q132.519 752.37 138.33 752.37 Z" fill="#000000" fill-rule="nonzero" fill-opacity="1" /><path clip-path="url(#clip160)" d="M63.9319 414.924 Q60.3208 414.924 58.4921 418.489 Q56.6865 422.031 56.6865 429.16 Q56.6865 436.267 58.4921 439.831 Q60.3208 443.373 63.9319 443.373 Q67.5661 443.373 69.3717 439.831 Q71.2004 436.267 71.2004 429.16 Q71.2004 422.031 69.3717 418.489 Q67.5661 414.924 63.9319 414.924 M63.9319 411.22 Q69.742 411.22 72.7976 415.827 Q75.8763 420.41 75.8763 429.16 Q75.8763 437.887 72.7976 442.493 Q69.742 447.077 63.9319 447.077 Q58.1217 447.077 55.043 442.493 Q51.9875 437.887 51.9875 429.16 Q51.9875 420.41 55.043 415.827 Q58.1217 411.22 63.9319 411.22 Z" fill="#000000" fill-rule="nonzero" fill-opacity="1" /><path clip-path="url(#clip160)" d="M84.0938 440.526 L88.978 440.526 L88.978 446.405 L84.0938 446.405 L84.0938 440.526 Z" fill="#000000" fill-rule="nonzero" fill-opacity="1" /><path clip-path="url(#clip160)" d="M97.9826 411.845 L120.205 411.845 L120.205 413.836 L107.658 446.405 L102.774 446.405 L114.58 415.781 L97.9826 415.781 L97.9826 411.845 Z" fill="#000000" fill-rule="nonzero" fill-opacity="1" /><path clip-path="url(#clip160)" d="M129.371 411.845 L147.728 411.845 L147.728 415.781 L133.654 415.781 L133.654 424.253 Q134.672 423.906 135.691 423.744 Q136.709 423.558 137.728 423.558 Q143.515 423.558 146.894 426.73 Q150.274 429.901 150.274 435.318 Q150.274 440.896 146.802 443.998 Q143.33 447.077 137.01 447.077 Q134.834 447.077 132.566 446.706 Q130.32 446.336 127.913 445.595 L127.913 440.896 Q129.996 442.03 132.219 442.586 Q134.441 443.142 136.918 443.142 Q140.922 443.142 143.26 441.035 Q145.598 438.929 145.598 435.318 Q145.598 431.706 143.26 429.6 Q140.922 427.494 136.918 427.494 Q135.043 427.494 133.168 427.91 Q131.316 428.327 129.371 429.206 L129.371 411.845 Z" fill="#000000" fill-rule="nonzero" fill-opacity="1" /><path clip-path="url(#clip160)" d="M53.7467 101.321 L61.3856 101.321 L61.3856 74.9555 L53.0754 76.6222 L53.0754 72.3629 L61.3393 70.6963 L66.0152 70.6963 L66.0152 101.321 L73.654 101.321 L73.654 105.256 L53.7467 105.256 L53.7467 101.321 Z" fill="#000000" fill-rule="nonzero" fill-opacity="1" /><path clip-path="url(#clip160)" d="M83.0984 99.3767 L87.9827 99.3767 L87.9827 105.256 L83.0984 105.256 L83.0984 99.3767 Z" fill="#000000" fill-rule="nonzero" fill-opacity="1" /><path clip-path="url(#clip160)" d="M108.168 73.775 Q104.557 73.775 102.728 77.3398 Q100.922 80.8814 100.922 88.011 Q100.922 95.1174 102.728 98.6822 Q104.557 102.224 108.168 102.224 Q111.802 102.224 113.608 98.6822 Q115.436 95.1174 115.436 88.011 Q115.436 80.8814 113.608 77.3398 Q111.802 73.775 108.168 73.775 M108.168 70.0713 Q113.978 70.0713 117.033 74.6777 Q120.112 79.261 120.112 88.011 Q120.112 96.7378 117.033 101.344 Q113.978 105.928 108.168 105.928 Q102.358 105.928 99.2789 101.344 Q96.2234 96.7378 96.2234 88.011 Q96.2234 79.261 99.2789 74.6777 Q102.358 70.0713 108.168 70.0713 Z" fill="#000000" fill-rule="nonzero" fill-opacity="1" /><path clip-path="url(#clip160)" d="M138.33 73.775 Q134.719 73.775 132.89 77.3398 Q131.084 80.8814 131.084 88.011 Q131.084 95.1174 132.89 98.6822 Q134.719 102.224 138.33 102.224 Q141.964 102.224 143.769 98.6822 Q145.598 95.1174 145.598 88.011 Q145.598 80.8814 143.769 77.3398 Q141.964 73.775 138.33 73.775 M138.33 70.0713 Q144.14 70.0713 147.195 74.6777 Q150.274 79.261 150.274 88.011 Q150.274 96.7378 147.195 101.344 Q144.14 105.928 138.33 105.928 Q132.519 105.928 129.441 101.344 Q126.385 96.7378 126.385 88.011 Q126.385 79.261 129.441 74.6777 Q132.519 70.0713 138.33 70.0713 Z" fill="#000000" fill-rule="nonzero" fill-opacity="1" /><polyline clip-path="url(#clip162)" style="stroke:#009af9; stroke-linecap:round; stroke-linejoin:round; stroke-width:4; stroke-opacity:1; fill:none" points="247.59,87.9763 257.86,101.691 268.131,115.405 278.401,129.12 288.672,142.834 298.943,156.549 309.213,170.264 319.484,183.978 329.754,197.693 340.025,211.407 350.296,225.122 360.566,238.836 370.837,252.551 381.107,266.265 391.378,279.98 401.649,293.694 411.919,307.409 422.19,321.123 432.46,334.838 442.731,348.553 453.002,362.267 463.272,375.982 473.543,389.696 483.813,403.411 494.084,417.125 504.355,430.84 514.625,444.554 524.896,458.269 535.167,471.983 545.437,485.698 555.708,499.412 565.978,513.127 576.249,526.842 586.52,540.556 596.79,554.271 607.061,567.985 617.331,581.7 627.602,595.414 637.873,609.129 648.143,622.843 658.414,636.558 668.684,650.272 678.955,663.987 689.226,677.701 699.496,691.416 709.767,705.131 720.037,718.845 730.308,732.56 740.579,746.274 750.849,759.989 761.12,773.703 771.39,787.418 781.661,801.132 791.932,814.847 802.202,828.561 812.473,842.276 822.744,855.99 833.014,869.705 843.285,883.42 853.555,897.134 863.826,910.849 874.097,924.563 884.367,938.278 894.638,951.992 904.908,965.707 915.179,979.421 925.45,993.136 935.72,1006.85 945.991,1020.56 956.261,1034.28 966.532,1047.99 976.803,1061.71 987.073,1075.42 997.344,1089.14 1007.61,1102.85 1017.89,1116.57 1028.16,1130.28 1038.43,1144 1048.7,1157.71 1058.97,1171.42 1069.24,1185.14 1079.51,1198.85 1089.78,1212.57 1100.05,1226.28 1110.32,1240 1120.59,1253.71 1130.86,1267.43 1141.13,1281.14 1151.4,1294.86 1161.67,1308.57 1171.94,1322.28 1182.21,1336 1192.49,1349.71 1202.76,1363.43 1213.03,1377.14 1223.3,1390.86 1233.57,1404.57 1243.84,1418.29 1254.11,1432 1264.38,1445.72 1274.65,1445.72 1284.92,1432 1295.19,1418.29 1305.46,1404.57 1315.73,1390.86 1326,1377.14 1336.27,1363.43 1346.54,1349.71 1356.82,1336 1367.09,1322.28 1377.36,1308.57 1387.63,1294.86 1397.9,1281.14 1408.17,1267.43 1418.44,1253.71 1428.71,1240 1438.98,1226.28 1449.25,1212.57 1459.52,1198.85 1469.79,1185.14 1480.06,1171.42 1490.33,1157.71 1500.6,1144 1510.87,1130.28 1521.14,1116.57 1531.42,1102.85 1541.69,1089.14 1551.96,1075.42 1562.23,1061.71 1572.5,1047.99 1582.77,1034.28 1593.04,1020.56 1603.31,1006.85 1613.58,993.136 1623.85,979.421 1634.12,965.707 1644.39,951.992 1654.66,938.278 1664.93,924.563 1675.2,910.849 1685.47,897.134 1695.75,883.42 1706.02,869.705 1716.29,855.99 1726.56,842.276 1736.83,828.561 1747.1,814.847 1757.37,801.132 1767.64,787.418 1777.91,773.703 1788.18,759.989 1798.45,746.274 1808.72,732.56 1818.99,718.845 1829.26,705.131 1839.53,691.416 1849.8,677.701 1860.07,663.987 1870.35,650.272 1880.62,636.558 1890.89,622.843 1901.16,609.129 1911.43,595.414 1921.7,581.7 1931.97,567.985 1942.24,554.271 1952.51,540.556 1962.78,526.842 1973.05,513.127 1983.32,499.412 1993.59,485.698 2003.86,471.983 2014.13,458.269 2024.4,444.554 2034.68,430.84 2044.95,417.125 2055.22,403.411 2065.49,389.696 2075.76,375.982 2086.03,362.267 2096.3,348.553 2106.57,334.838 2116.84,321.123 2127.11,307.409 2137.38,293.694 2147.65,279.98 2157.92,266.265 2168.19,252.551 2178.46,238.836 2188.73,225.122 2199,211.407 2209.28,197.693 2219.55,183.978 2229.82,170.264 2240.09,156.549 2250.36,142.834 2260.63,129.12 2270.9,115.405 2281.17,101.691 2291.44,87.9763 "/>
<polyline clip-path="url(#clip162)" style="stroke:#e26f46; stroke-linecap:round; stroke-linejoin:round; stroke-width:4; stroke-opacity:1; fill:none" points="247.59,87.9763 257.86,94.0173 268.131,100.697 278.401,107.995 288.672,115.889 298.943,124.359 309.213,133.383 319.484,142.943 329.754,153.016 340.025,163.584 350.296,174.626 360.566,186.123 370.837,198.056 381.107,210.405 391.378,223.152 401.649,236.277 411.919,249.763 422.19,263.591 432.46,277.742 442.731,292.2 453.002,306.946 463.272,321.963 473.543,337.234 483.813,352.743 494.084,368.471 504.355,384.403 514.625,400.522 524.896,416.813 535.167,433.258 545.437,449.844 555.708,466.554 565.978,483.373 576.249,500.285 586.52,517.277 596.79,534.334 607.061,551.441 617.331,568.584 627.602,585.75 637.873,602.923 648.143,620.092 658.414,637.243 668.684,654.362 678.955,671.438 689.226,688.456 699.496,705.405 709.767,722.274 720.037,739.048 730.308,755.718 740.579,772.271 750.849,788.696 761.12,804.983 771.39,821.119 781.661,837.095 791.932,852.9 802.202,868.524 812.473,883.957 822.744,899.188 833.014,914.209 843.285,929.011 853.555,943.583 863.826,957.917 874.097,972.005 884.367,985.837 894.638,999.406 904.908,1012.7 915.179,1025.72 925.45,1038.45 935.72,1050.89 945.991,1063.03 956.261,1074.85 966.532,1086.37 976.803,1097.56 987.073,1108.42 997.344,1118.95 1007.61,1129.14 1017.89,1138.98 1028.16,1148.47 1038.43,1157.6 1048.7,1166.38 1058.97,1174.79 1069.24,1182.82 1079.51,1190.49 1089.78,1197.77 1100.05,1204.67 1110.32,1211.18 1120.59,1217.31 1130.86,1223.04 1141.13,1228.37 1151.4,1233.3 1161.67,1237.83 1171.94,1241.96 1182.21,1245.68 1192.49,1248.99 1202.76,1251.9 1213.03,1254.39 1223.3,1256.46 1233.57,1258.13 1243.84,1259.38 1254.11,1260.21 1264.38,1260.62 1274.65,1260.62 1284.92,1260.21 1295.19,1259.38 1305.46,1258.13 1315.73,1256.46 1326,1254.39 1336.27,1251.9 1346.54,1248.99 1356.82,1245.68 1367.09,1241.96 1377.36,1237.83 1387.63,1233.3 1397.9,1228.37 1408.17,1223.04 1418.44,1217.31 1428.71,1211.18 1438.98,1204.67 1449.25,1197.77 1459.52,1190.49 1469.79,1182.82 1480.06,1174.79 1490.33,1166.38 1500.6,1157.6 1510.87,1148.47 1521.14,1138.98 1531.42,1129.14 1541.69,1118.95 1551.96,1108.42 1562.23,1097.56 1572.5,1086.37 1582.77,1074.85 1593.04,1063.03 1603.31,1050.89 1613.58,1038.45 1623.85,1025.72 1634.12,1012.7 1644.39,999.406 1654.66,985.837 1664.93,972.005 1675.2,957.917 1685.47,943.583 1695.75,929.011 1706.02,914.209 1716.29,899.188 1726.56,883.957 1736.83,868.524 1747.1,852.9 1757.37,837.095 1767.64,821.119 1777.91,804.983 1788.18,788.696 1798.45,772.271 1808.72,755.718 1818.99,739.048 1829.26,722.274 1839.53,705.405 1849.8,688.456 1860.07,671.438 1870.35,654.362 1880.62,637.243 1890.89,620.092 1901.16,602.923 1911.43,585.75 1921.7,568.584 1931.97,551.441 1942.24,534.334 1952.51,517.277 1962.78,500.285 1973.05,483.373 1983.32,466.554 1993.59,449.844 2003.86,433.258 2014.13,416.813 2024.4,400.522 2034.68,384.403 2044.95,368.471 2055.22,352.743 2065.49,337.234 2075.76,321.963 2086.03,306.946 2096.3,292.2 2106.57,277.742 2116.84,263.591 2127.11,249.763 2137.38,236.277 2147.65,223.152 2157.92,210.405 2168.19,198.056 2178.46,186.123 2188.73,174.626 2199,163.584 2209.28,153.016 2219.55,142.943 2229.82,133.383 2240.09,124.359 2250.36,115.889 2260.63,107.995 2270.9,100.697 2281.17,94.0173 2291.44,87.9763 "/>
<path clip-path="url(#clip160)" d="M1791.97 1438.47 L2280.54 1438.47 L2280.54 1282.95 L1791.97 1282.95  Z" fill="#ffffff" fill-rule="evenodd" fill-opacity="1"/>
<polyline clip-path="url(#clip160)" style="stroke:#000000; stroke-linecap:round; stroke-linejoin:round; stroke-width:4; stroke-opacity:1; fill:none" points="1791.97,1438.47 2280.54,1438.47 2280.54,1282.95 1791.97,1282.95 1791.97,1438.47 "/>
<polyline clip-path="url(#clip160)" style="stroke:#009af9; stroke-linecap:round; stroke-linejoin:round; stroke-width:4; stroke-opacity:1; fill:none" points="1816.04,1334.79 1960.48,1334.79 "/>
<path clip-path="url(#clip160)" d="M1984.55 1317.51 L2004.41 1317.51 L2004.41 1321.45 L1989.22 1321.45 L1989.22 1331.63 L2002.93 1331.63 L2002.93 1335.57 L1989.22 1335.57 L1989.22 1352.07 L1984.55 1352.07 L1984.55 1317.51 Z" fill="#000000" fill-rule="nonzero" fill-opacity="1" /><path clip-path="url(#clip160)" d="M2008.6 1341.84 L2008.6 1326.15 L2012.86 1326.15 L2012.86 1341.68 Q2012.86 1345.36 2014.29 1347.21 Q2015.73 1349.04 2018.6 1349.04 Q2022.05 1349.04 2024.04 1346.84 Q2026.05 1344.64 2026.05 1340.85 L2026.05 1326.15 L2030.31 1326.15 L2030.31 1352.07 L2026.05 1352.07 L2026.05 1348.09 Q2024.5 1350.45 2022.44 1351.61 Q2020.4 1352.75 2017.7 1352.75 Q2013.23 1352.75 2010.91 1349.97 Q2008.6 1347.19 2008.6 1341.84 M2019.32 1325.52 L2019.32 1325.52 Z" fill="#000000" fill-rule="nonzero" fill-opacity="1" /><path clip-path="url(#clip160)" d="M2060.64 1336.43 L2060.64 1352.07 L2056.38 1352.07 L2056.38 1336.57 Q2056.38 1332.88 2054.94 1331.06 Q2053.51 1329.23 2050.64 1329.23 Q2047.19 1329.23 2045.2 1331.43 Q2043.21 1333.63 2043.21 1337.42 L2043.21 1352.07 L2038.92 1352.07 L2038.92 1326.15 L2043.21 1326.15 L2043.21 1330.18 Q2044.73 1327.84 2046.79 1326.68 Q2048.88 1325.52 2051.58 1325.52 Q2056.05 1325.52 2058.34 1328.3 Q2060.64 1331.06 2060.64 1336.43 Z" fill="#000000" fill-rule="nonzero" fill-opacity="1" /><path clip-path="url(#clip160)" d="M2068.97 1316.06 L2073.25 1316.06 L2073.25 1337.33 L2085.96 1326.15 L2091.4 1326.15 L2077.65 1338.28 L2091.98 1352.07 L2086.42 1352.07 L2073.25 1339.41 L2073.25 1352.07 L2068.97 1352.07 L2068.97 1316.06 Z" fill="#000000" fill-rule="nonzero" fill-opacity="1" /><path clip-path="url(#clip160)" d="M2115.24 1327.14 L2115.24 1331.13 Q2113.44 1330.13 2111.61 1329.64 Q2109.8 1329.13 2107.95 1329.13 Q2103.81 1329.13 2101.51 1331.77 Q2099.22 1334.39 2099.22 1339.13 Q2099.22 1343.88 2101.51 1346.52 Q2103.81 1349.13 2107.95 1349.13 Q2109.8 1349.13 2111.61 1348.65 Q2113.44 1348.14 2115.24 1347.14 L2115.24 1351.08 Q2113.46 1351.91 2111.54 1352.33 Q2109.64 1352.75 2107.49 1352.75 Q2101.63 1352.75 2098.18 1349.07 Q2094.73 1345.38 2094.73 1339.13 Q2094.73 1332.79 2098.2 1329.16 Q2101.7 1325.52 2107.76 1325.52 Q2109.73 1325.52 2111.61 1325.94 Q2113.48 1326.33 2115.24 1327.14 Z" fill="#000000" fill-rule="nonzero" fill-opacity="1" /><path clip-path="url(#clip160)" d="M2122.65 1326.15 L2126.91 1326.15 L2126.91 1352.54 Q2126.91 1357.49 2125.01 1359.71 Q2123.14 1361.94 2118.95 1361.94 L2117.33 1361.94 L2117.33 1358.32 L2118.46 1358.32 Q2120.89 1358.32 2121.77 1357.19 Q2122.65 1356.08 2122.65 1352.54 L2122.65 1326.15 M2122.65 1316.06 L2126.91 1316.06 L2126.91 1321.45 L2122.65 1321.45 L2122.65 1316.06 Z" fill="#000000" fill-rule="nonzero" fill-opacity="1" /><path clip-path="url(#clip160)" d="M2147.6 1339.04 Q2142.44 1339.04 2140.45 1340.22 Q2138.46 1341.4 2138.46 1344.25 Q2138.46 1346.52 2139.94 1347.86 Q2141.45 1349.18 2144.01 1349.18 Q2147.56 1349.18 2149.69 1346.68 Q2151.84 1344.16 2151.84 1339.99 L2151.84 1339.04 L2147.6 1339.04 M2156.1 1337.28 L2156.1 1352.07 L2151.84 1352.07 L2151.84 1348.14 Q2150.38 1350.5 2148.2 1351.63 Q2146.03 1352.75 2142.88 1352.75 Q2138.9 1352.75 2136.54 1350.52 Q2134.2 1348.28 2134.2 1344.53 Q2134.2 1340.15 2137.12 1337.93 Q2140.06 1335.71 2145.87 1335.71 L2151.84 1335.71 L2151.84 1335.29 Q2151.84 1332.35 2149.89 1330.76 Q2147.97 1329.13 2144.48 1329.13 Q2142.26 1329.13 2140.15 1329.67 Q2138.04 1330.2 2136.1 1331.26 L2136.1 1327.33 Q2138.44 1326.43 2140.64 1325.99 Q2142.83 1325.52 2144.92 1325.52 Q2150.54 1325.52 2153.32 1328.44 Q2156.1 1331.36 2156.1 1337.28 Z" fill="#000000" fill-rule="nonzero" fill-opacity="1" /><polyline clip-path="url(#clip160)" style="stroke:#e26f46; stroke-linecap:round; stroke-linejoin:round; stroke-width:4; stroke-opacity:1; fill:none" points="1816.04,1386.63 1960.48,1386.63 "/>
<path clip-path="url(#clip160)" d="M1984.55 1369.35 L1989.22 1369.35 L1989.22 1403.91 L1984.55 1403.91 L1984.55 1369.35 Z" fill="#000000" fill-rule="nonzero" fill-opacity="1" /><path clip-path="url(#clip160)" d="M2019.9 1388.27 L2019.9 1403.91 L2015.64 1403.91 L2015.64 1388.41 Q2015.64 1384.72 2014.2 1382.9 Q2012.77 1381.07 2009.9 1381.07 Q2006.45 1381.07 2004.46 1383.27 Q2002.46 1385.47 2002.46 1389.26 L2002.46 1403.91 L1998.18 1403.91 L1998.18 1377.99 L2002.46 1377.99 L2002.46 1382.02 Q2003.99 1379.68 2006.05 1378.52 Q2008.14 1377.36 2010.84 1377.36 Q2015.31 1377.36 2017.6 1380.14 Q2019.9 1382.9 2019.9 1388.27 Z" fill="#000000" fill-rule="nonzero" fill-opacity="1" /><path clip-path="url(#clip160)" d="M2032.6 1370.63 L2032.6 1377.99 L2041.38 1377.99 L2041.38 1381.3 L2032.6 1381.3 L2032.6 1395.37 Q2032.6 1398.54 2033.46 1399.45 Q2034.34 1400.35 2037 1400.35 L2041.38 1400.35 L2041.38 1403.91 L2037 1403.91 Q2032.07 1403.91 2030.2 1402.09 Q2028.32 1400.23 2028.32 1395.37 L2028.32 1381.3 L2025.2 1381.3 L2025.2 1377.99 L2028.32 1377.99 L2028.32 1370.63 L2032.6 1370.63 Z" fill="#000000" fill-rule="nonzero" fill-opacity="1" /><path clip-path="url(#clip160)" d="M2069.15 1389.89 L2069.15 1391.97 L2049.57 1391.97 Q2049.85 1396.37 2052.21 1398.68 Q2054.59 1400.97 2058.83 1400.97 Q2061.28 1400.97 2063.58 1400.37 Q2065.89 1399.77 2068.16 1398.57 L2068.16 1402.59 Q2065.87 1403.57 2063.46 1404.08 Q2061.05 1404.59 2058.58 1404.59 Q2052.37 1404.59 2048.74 1400.97 Q2045.13 1397.36 2045.13 1391.21 Q2045.13 1384.84 2048.55 1381.11 Q2052 1377.36 2057.83 1377.36 Q2063.07 1377.36 2066.1 1380.74 Q2069.15 1384.1 2069.15 1389.89 M2064.89 1388.64 Q2064.85 1385.14 2062.93 1383.06 Q2061.03 1380.97 2057.88 1380.97 Q2054.32 1380.97 2052.16 1382.99 Q2050.03 1385 2049.71 1388.66 L2064.89 1388.64 Z" fill="#000000" fill-rule="nonzero" fill-opacity="1" /><path clip-path="url(#clip160)" d="M2091.17 1381.97 Q2090.45 1381.55 2089.59 1381.37 Q2088.76 1381.16 2087.74 1381.16 Q2084.13 1381.16 2082.19 1383.52 Q2080.27 1385.86 2080.27 1390.26 L2080.27 1403.91 L2075.98 1403.91 L2075.98 1377.99 L2080.27 1377.99 L2080.27 1382.02 Q2081.61 1379.66 2083.76 1378.52 Q2085.91 1377.36 2088.99 1377.36 Q2089.43 1377.36 2089.96 1377.43 Q2090.5 1377.48 2091.14 1377.6 L2091.17 1381.97 Z" fill="#000000" fill-rule="nonzero" fill-opacity="1" /><path clip-path="url(#clip160)" d="M2099.76 1400.03 L2099.76 1413.78 L2095.47 1413.78 L2095.47 1377.99 L2099.76 1377.99 L2099.76 1381.92 Q2101.1 1379.61 2103.14 1378.5 Q2105.2 1377.36 2108.04 1377.36 Q2112.76 1377.36 2115.7 1381.11 Q2118.67 1384.86 2118.67 1390.97 Q2118.67 1397.09 2115.7 1400.84 Q2112.76 1404.59 2108.04 1404.59 Q2105.2 1404.59 2103.14 1403.47 Q2101.1 1402.34 2099.76 1400.03 M2114.25 1390.97 Q2114.25 1386.28 2112.3 1383.61 Q2110.38 1380.93 2107 1380.93 Q2103.62 1380.93 2101.68 1383.61 Q2099.76 1386.28 2099.76 1390.97 Q2099.76 1395.67 2101.68 1398.36 Q2103.62 1401.02 2107 1401.02 Q2110.38 1401.02 2112.3 1398.36 Q2114.25 1395.67 2114.25 1390.97 Z" fill="#000000" fill-rule="nonzero" fill-opacity="1" /><path clip-path="url(#clip160)" d="M2135.77 1380.97 Q2132.35 1380.97 2130.36 1383.66 Q2128.37 1386.32 2128.37 1390.97 Q2128.37 1395.63 2130.33 1398.31 Q2132.32 1400.97 2135.77 1400.97 Q2139.18 1400.97 2141.17 1398.29 Q2143.16 1395.6 2143.16 1390.97 Q2143.16 1386.37 2141.17 1383.68 Q2139.18 1380.97 2135.77 1380.97 M2135.77 1377.36 Q2141.33 1377.36 2144.5 1380.97 Q2147.67 1384.59 2147.67 1390.97 Q2147.67 1397.34 2144.5 1400.97 Q2141.33 1404.59 2135.77 1404.59 Q2130.2 1404.59 2127.02 1400.97 Q2123.88 1397.34 2123.88 1390.97 Q2123.88 1384.59 2127.02 1380.97 Q2130.2 1377.36 2135.77 1377.36 Z" fill="#000000" fill-rule="nonzero" fill-opacity="1" /><path clip-path="url(#clip160)" d="M2154.73 1367.9 L2158.99 1367.9 L2158.99 1403.91 L2154.73 1403.91 L2154.73 1367.9 Z" fill="#000000" fill-rule="nonzero" fill-opacity="1" /><path clip-path="url(#clip160)" d="M2179.69 1390.88 Q2174.52 1390.88 2172.53 1392.06 Q2170.54 1393.24 2170.54 1396.09 Q2170.54 1398.36 2172.02 1399.7 Q2173.53 1401.02 2176.1 1401.02 Q2179.64 1401.02 2181.77 1398.52 Q2183.92 1396 2183.92 1391.83 L2183.92 1390.88 L2179.69 1390.88 M2188.18 1389.12 L2188.18 1403.91 L2183.92 1403.91 L2183.92 1399.98 Q2182.46 1402.34 2180.29 1403.47 Q2178.11 1404.59 2174.96 1404.59 Q2170.98 1404.59 2168.62 1402.36 Q2166.28 1400.12 2166.28 1396.37 Q2166.28 1391.99 2169.2 1389.77 Q2172.14 1387.55 2177.95 1387.55 L2183.92 1387.55 L2183.92 1387.13 Q2183.92 1384.19 2181.98 1382.6 Q2180.06 1380.97 2176.56 1380.97 Q2174.34 1380.97 2172.23 1381.51 Q2170.13 1382.04 2168.18 1383.1 L2168.18 1379.17 Q2170.52 1378.27 2172.72 1377.83 Q2174.92 1377.36 2177 1377.36 Q2182.63 1377.36 2185.4 1380.28 Q2188.18 1383.2 2188.18 1389.12 Z" fill="#000000" fill-rule="nonzero" fill-opacity="1" /><path clip-path="url(#clip160)" d="M2215.61 1378.98 L2215.61 1382.97 Q2213.81 1381.97 2211.98 1381.48 Q2210.17 1380.97 2208.32 1380.97 Q2204.18 1380.97 2201.88 1383.61 Q2199.59 1386.23 2199.59 1390.97 Q2199.59 1395.72 2201.88 1398.36 Q2204.18 1400.97 2208.32 1400.97 Q2210.17 1400.97 2211.98 1400.49 Q2213.81 1399.98 2215.61 1398.98 L2215.61 1402.92 Q2213.83 1403.75 2211.91 1404.17 Q2210.01 1404.59 2207.86 1404.59 Q2202 1404.59 2198.55 1400.91 Q2195.1 1397.22 2195.1 1390.97 Q2195.1 1384.63 2198.57 1381 Q2202.07 1377.36 2208.13 1377.36 Q2210.1 1377.36 2211.98 1377.78 Q2213.85 1378.17 2215.61 1378.98 Z" fill="#000000" fill-rule="nonzero" fill-opacity="1" /><path clip-path="url(#clip160)" d="M2223.02 1377.99 L2227.28 1377.99 L2227.28 1404.38 Q2227.28 1409.33 2225.38 1411.55 Q2223.51 1413.78 2219.32 1413.78 L2217.69 1413.78 L2217.69 1410.16 L2218.83 1410.16 Q2221.26 1410.16 2222.14 1409.03 Q2223.02 1407.92 2223.02 1404.38 L2223.02 1377.99 M2223.02 1367.9 L2227.28 1367.9 L2227.28 1373.29 L2223.02 1373.29 L2223.02 1367.9 Z" fill="#000000" fill-rule="nonzero" fill-opacity="1" /><path clip-path="url(#clip160)" d="M2247.97 1390.88 Q2242.81 1390.88 2240.82 1392.06 Q2238.83 1393.24 2238.83 1396.09 Q2238.83 1398.36 2240.31 1399.7 Q2241.82 1401.02 2244.38 1401.02 Q2247.93 1401.02 2250.06 1398.52 Q2252.21 1396 2252.21 1391.83 L2252.21 1390.88 L2247.97 1390.88 M2256.47 1389.12 L2256.47 1403.91 L2252.21 1403.91 L2252.21 1399.98 Q2250.75 1402.34 2248.57 1403.47 Q2246.4 1404.59 2243.25 1404.59 Q2239.27 1404.59 2236.91 1402.36 Q2234.57 1400.12 2234.57 1396.37 Q2234.57 1391.99 2237.49 1389.77 Q2240.43 1387.55 2246.24 1387.55 L2252.21 1387.55 L2252.21 1387.13 Q2252.21 1384.19 2250.26 1382.6 Q2248.34 1380.97 2244.85 1380.97 Q2242.63 1380.97 2240.52 1381.51 Q2238.41 1382.04 2236.47 1383.1 L2236.47 1379.17 Q2238.81 1378.27 2241 1377.83 Q2243.2 1377.36 2245.29 1377.36 Q2250.91 1377.36 2253.69 1380.28 Q2256.47 1383.2 2256.47 1389.12 Z" fill="#000000" fill-rule="nonzero" fill-opacity="1" /></svg>
