<?xml version="1.0" encoding="utf-8"?>
<svg xmlns="http://www.w3.org/2000/svg" xmlns:xlink="http://www.w3.org/1999/xlink" width="600" height="400" viewBox="0 0 2400 1600">
<defs>
  <clipPath id="clip290">
    <rect x="0" y="0" width="2400" height="1600"/>
  </clipPath>
</defs>
<path clip-path="url(#clip290)" d="M0 1600 L2400 1600 L2400 0 L0 0  Z" fill="#ffffff" fill-rule="evenodd" fill-opacity="1"/>
<defs>
  <clipPath id="clip291">
    <rect x="480" y="0" width="1681" height="1600"/>
  </clipPath>
</defs>
<path clip-path="url(#clip290)" d="M186.274 1486.45 L2352.76 1486.45 L2352.76 47.2441 L186.274 47.2441  Z" fill="#ffffff" fill-rule="evenodd" fill-opacity="1"/>
<defs>
  <clipPath id="clip292">
    <rect x="186" y="47" width="2167" height="1440"/>
  </clipPath>
</defs>
<polyline clip-path="url(#clip292)" style="stroke:#000000; stroke-linecap:round; stroke-linejoin:round; stroke-width:2; stroke-opacity:0.1; fill:none" points="247.59,1486.45 247.59,47.2441 "/>
<polyline clip-path="url(#clip292)" style="stroke:#000000; stroke-linecap:round; stroke-linejoin:round; stroke-width:2; stroke-opacity:0.1; fill:none" points="758.552,1486.45 758.552,47.2441 "/>
<polyline clip-path="url(#clip292)" style="stroke:#000000; stroke-linecap:round; stroke-linejoin:round; stroke-width:2; stroke-opacity:0.1; fill:none" points="1269.51,1486.45 1269.51,47.2441 "/>
<polyline clip-path="url(#clip292)" style="stroke:#000000; stroke-linecap:round; stroke-linejoin:round; stroke-width:2; stroke-opacity:0.1; fill:none" points="1780.48,1486.45 1780.48,47.2441 "/>
<polyline clip-path="url(#clip292)" style="stroke:#000000; stroke-linecap:round; stroke-linejoin:round; stroke-width:2; stroke-opacity:0.1; fill:none" points="2291.44,1486.45 2291.44,47.2441 "/>
<polyline clip-path="url(#clip290)" style="stroke:#000000; stroke-linecap:round; stroke-linejoin:round; stroke-width:4; stroke-opacity:1; fill:none" points="186.274,1486.45 2352.76,1486.45 "/>
<polyline clip-path="url(#clip290)" style="stroke:#000000; stroke-linecap:round; stroke-linejoin:round; stroke-width:4; stroke-opacity:1; fill:none" points="247.59,1486.45 247.59,1467.55 "/>
<polyline clip-path="url(#clip290)" style="stroke:#000000; stroke-linecap:round; stroke-linejoin:round; stroke-width:4; stroke-opacity:1; fill:none" points="758.552,1486.45 758.552,1467.55 "/>
<polyline clip-path="url(#clip290)" style="stroke:#000000; stroke-linecap:round; stroke-linejoin:round; stroke-width:4; stroke-opacity:1; fill:none" points="1269.51,1486.45 1269.51,1467.55 "/>
<polyline clip-path="url(#clip290)" style="stroke:#000000; stroke-linecap:round; stroke-linejoin:round; stroke-width:4; stroke-opacity:1; fill:none" points="1780.48,1486.45 1780.48,1467.55 "/>
<polyline clip-path="url(#clip290)" style="stroke:#000000; stroke-linecap:round; stroke-linejoin:round; stroke-width:4; stroke-opacity:1; fill:none" points="2291.44,1486.45 2291.44,1467.55 "/>
<path clip-path="url(#clip290)" d="M194.118 1532.02 L223.793 1532.02 L223.793 1535.95 L194.118 1535.95 L194.118 1532.02 Z" fill="#000000" fill-rule="nonzero" fill-opacity="1" /><path clip-path="url(#clip290)" d="M234.696 1544.91 L242.335 1544.91 L242.335 1518.55 L234.025 1520.21 L234.025 1515.95 L242.289 1514.29 L246.965 1514.29 L246.965 1544.91 L254.603 1544.91 L254.603 1548.85 L234.696 1548.85 L234.696 1544.91 Z" fill="#000000" fill-rule="nonzero" fill-opacity="1" /><path clip-path="url(#clip290)" d="M264.048 1542.97 L268.932 1542.97 L268.932 1548.85 L264.048 1548.85 L264.048 1542.97 Z" fill="#000000" fill-rule="nonzero" fill-opacity="1" /><path clip-path="url(#clip290)" d="M289.117 1517.37 Q285.506 1517.37 283.677 1520.93 Q281.872 1524.47 281.872 1531.6 Q281.872 1538.71 283.677 1542.27 Q285.506 1545.82 289.117 1545.82 Q292.751 1545.82 294.557 1542.27 Q296.386 1538.71 296.386 1531.6 Q296.386 1524.47 294.557 1520.93 Q292.751 1517.37 289.117 1517.37 M289.117 1513.66 Q294.927 1513.66 297.983 1518.27 Q301.061 1522.85 301.061 1531.6 Q301.061 1540.33 297.983 1544.94 Q294.927 1549.52 289.117 1549.52 Q283.307 1549.52 280.228 1544.94 Q277.173 1540.33 277.173 1531.6 Q277.173 1522.85 280.228 1518.27 Q283.307 1513.66 289.117 1513.66 Z" fill="#000000" fill-rule="nonzero" fill-opacity="1" /><path clip-path="url(#clip290)" d="M705.578 1532.02 L735.254 1532.02 L735.254 1535.95 L705.578 1535.95 L705.578 1532.02 Z" fill="#000000" fill-rule="nonzero" fill-opacity="1" /><path clip-path="url(#clip290)" d="M755.346 1517.37 Q751.735 1517.37 749.906 1520.93 Q748.101 1524.47 748.101 1531.6 Q748.101 1538.71 749.906 1542.27 Q751.735 1545.82 755.346 1545.82 Q758.98 1545.82 760.786 1542.27 Q762.615 1538.71 762.615 1531.6 Q762.615 1524.47 760.786 1520.93 Q758.98 1517.37 755.346 1517.37 M755.346 1513.66 Q761.156 1513.66 764.212 1518.27 Q767.291 1522.85 767.291 1531.6 Q767.291 1540.33 764.212 1544.94 Q761.156 1549.52 755.346 1549.52 Q749.536 1549.52 746.457 1544.94 Q743.402 1540.33 743.402 1531.6 Q743.402 1522.85 746.457 1518.27 Q749.536 1513.66 755.346 1513.66 Z" fill="#000000" fill-rule="nonzero" fill-opacity="1" /><path clip-path="url(#clip290)" d="M775.508 1542.97 L780.392 1542.97 L780.392 1548.85 L775.508 1548.85 L775.508 1542.97 Z" fill="#000000" fill-rule="nonzero" fill-opacity="1" /><path clip-path="url(#clip290)" d="M790.624 1514.29 L808.98 1514.29 L808.98 1518.22 L794.906 1518.22 L794.906 1526.7 Q795.925 1526.35 796.943 1526.19 Q797.962 1526 798.98 1526 Q804.767 1526 808.147 1529.17 Q811.526 1532.34 811.526 1537.76 Q811.526 1543.34 808.054 1546.44 Q804.582 1549.52 798.263 1549.52 Q796.087 1549.52 793.818 1549.15 Q791.573 1548.78 789.166 1548.04 L789.166 1543.34 Q791.249 1544.47 793.471 1545.03 Q795.693 1545.58 798.17 1545.58 Q802.175 1545.58 804.513 1543.48 Q806.851 1541.37 806.851 1537.76 Q806.851 1534.15 804.513 1532.04 Q802.175 1529.94 798.17 1529.94 Q796.295 1529.94 794.42 1530.35 Q792.568 1530.77 790.624 1531.65 L790.624 1514.29 Z" fill="#000000" fill-rule="nonzero" fill-opacity="1" /><path clip-path="url(#clip290)" d="M1246.9 1517.37 Q1243.29 1517.37 1241.46 1520.93 Q1239.65 1524.47 1239.65 1531.6 Q1239.65 1538.71 1241.46 1542.27 Q1243.29 1545.82 1246.9 1545.82 Q1250.53 1545.82 1252.34 1542.27 Q1254.17 1538.71 1254.17 1531.6 Q1254.17 1524.47 1252.34 1520.93 Q1250.53 1517.37 1246.9 1517.37 M1246.9 1513.66 Q1252.71 1513.66 1255.77 1518.27 Q1258.84 1522.85 1258.84 1531.6 Q1258.84 1540.33 1255.77 1544.94 Q1252.71 1549.52 1246.9 1549.52 Q1241.09 1549.52 1238.01 1544.94 Q1234.95 1540.33 1234.95 1531.6 Q1234.95 1522.85 1238.01 1518.27 Q1241.09 1513.66 1246.9 1513.66 Z" fill="#000000" fill-rule="nonzero" fill-opacity="1" /><path clip-path="url(#clip290)" d="M1267.06 1542.97 L1271.95 1542.97 L1271.95 1548.85 L1267.06 1548.85 L1267.06 1542.97 Z" fill="#000000" fill-rule="nonzero" fill-opacity="1" /><path clip-path="url(#clip290)" d="M1292.13 1517.37 Q1288.52 1517.37 1286.69 1520.93 Q1284.89 1524.47 1284.89 1531.6 Q1284.89 1538.71 1286.69 1542.27 Q1288.52 1545.82 1292.13 1545.82 Q1295.76 1545.82 1297.57 1542.27 Q1299.4 1538.71 1299.4 1531.6 Q1299.4 1524.47 1297.57 1520.93 Q1295.76 1517.37 1292.13 1517.37 M1292.13 1513.66 Q1297.94 1513.66 1301 1518.27 Q1304.07 1522.85 1304.07 1531.6 Q1304.07 1540.33 1301 1544.94 Q1297.94 1549.52 1292.13 1549.52 Q1286.32 1549.52 1283.24 1544.94 Q1280.19 1540.33 1280.19 1531.6 Q1280.19 1522.85 1283.24 1518.27 Q1286.32 1513.66 1292.13 1513.66 Z" fill="#000000" fill-rule="nonzero" fill-opacity="1" /><path clip-path="url(#clip290)" d="M1758.36 1517.37 Q1754.75 1517.37 1752.92 1520.93 Q1751.11 1524.47 1751.11 1531.6 Q1751.11 1538.71 1752.92 1542.27 Q1754.75 1545.82 1758.36 1545.82 Q1761.99 1545.82 1763.8 1542.27 Q1765.63 1538.71 1765.63 1531.6 Q1765.63 1524.47 1763.8 1520.93 Q1761.99 1517.37 1758.36 1517.37 M1758.36 1513.66 Q1764.17 1513.66 1767.23 1518.27 Q1770.3 1522.85 1770.3 1531.6 Q1770.3 1540.33 1767.23 1544.94 Q1764.17 1549.52 1758.36 1549.52 Q1752.55 1549.52 1749.47 1544.94 Q1746.42 1540.33 1746.42 1531.6 Q1746.42 1522.85 1749.47 1518.27 Q1752.55 1513.66 1758.36 1513.66 Z" fill="#000000" fill-rule="nonzero" fill-opacity="1" /><path clip-path="url(#clip290)" d="M1778.52 1542.97 L1783.41 1542.97 L1783.41 1548.85 L1778.52 1548.85 L1778.52 1542.97 Z" fill="#000000" fill-rule="nonzero" fill-opacity="1" /><path clip-path="url(#clip290)" d="M1793.64 1514.29 L1811.99 1514.29 L1811.99 1518.22 L1797.92 1518.22 L1797.92 1526.7 Q1798.94 1526.35 1799.96 1526.19 Q1800.98 1526 1801.99 1526 Q1807.78 1526 1811.16 1529.17 Q1814.54 1532.34 1814.54 1537.76 Q1814.54 1543.34 1811.07 1546.44 Q1807.6 1549.52 1801.28 1549.52 Q1799.1 1549.52 1796.83 1549.15 Q1794.59 1548.78 1792.18 1548.04 L1792.18 1543.34 Q1794.26 1544.47 1796.48 1545.03 Q1798.71 1545.58 1801.18 1545.58 Q1805.19 1545.58 1807.53 1543.48 Q1809.86 1541.37 1809.86 1537.76 Q1809.86 1534.15 1807.53 1532.04 Q1805.19 1529.94 1801.18 1529.94 Q1799.31 1529.94 1797.43 1530.35 Q1795.58 1530.77 1793.64 1531.65 L1793.64 1514.29 Z" fill="#000000" fill-rule="nonzero" fill-opacity="1" /><path clip-path="url(#clip290)" d="M2258.59 1544.91 L2266.23 1544.91 L2266.23 1518.55 L2257.92 1520.21 L2257.92 1515.95 L2266.19 1514.29 L2270.86 1514.29 L2270.86 1544.91 L2278.5 1544.91 L2278.5 1548.85 L2258.59 1548.85 L2258.59 1544.91 Z" fill="#000000" fill-rule="nonzero" fill-opacity="1" /><path clip-path="url(#clip290)" d="M2287.95 1542.97 L2292.83 1542.97 L2292.83 1548.85 L2287.95 1548.85 L2287.95 1542.97 Z" fill="#000000" fill-rule="nonzero" fill-opacity="1" /><path clip-path="url(#clip290)" d="M2313.01 1517.37 Q2309.4 1517.37 2307.57 1520.93 Q2305.77 1524.47 2305.77 1531.6 Q2305.77 1538.71 2307.57 1542.27 Q2309.4 1545.82 2313.01 1545.82 Q2316.65 1545.82 2318.45 1542.27 Q2320.28 1538.71 2320.28 1531.6 Q2320.28 1524.47 2318.45 1520.93 Q2316.65 1517.37 2313.01 1517.37 M2313.01 1513.66 Q2318.82 1513.66 2321.88 1518.27 Q2324.96 1522.85 2324.96 1531.6 Q2324.96 1540.33 2321.88 1544.94 Q2318.82 1549.52 2313.01 1549.52 Q2307.2 1549.52 2304.13 1544.94 Q2301.07 1540.33 2301.07 1531.6 Q2301.07 1522.85 2304.13 1518.27 Q2307.2 1513.66 2313.01 1513.66 Z" fill="#000000" fill-rule="nonzero" fill-opacity="1" /><polyline clip-path="url(#clip292)" style="stroke:#000000; stroke-linecap:round; stroke-linejoin:round; stroke-width:2; stroke-opacity:0.1; fill:none" points="186.274,1445.94 2352.76,1445.94 "/>
<polyline clip-path="url(#clip292)" style="stroke:#000000; stroke-linecap:round; stroke-linejoin:round; stroke-width:2; stroke-opacity:0.1; fill:none" points="186.274,1106.45 2352.76,1106.45 "/>
<polyline clip-path="url(#clip292)" style="stroke:#000000; stroke-linecap:round; stroke-linejoin:round; stroke-width:2; stroke-opacity:0.1; fill:none" points="186.274,766.957 2352.76,766.957 "/>
<polyline clip-path="url(#clip292)" style="stroke:#000000; stroke-linecap:round; stroke-linejoin:round; stroke-width:2; stroke-opacity:0.1; fill:none" points="186.274,427.466 2352.76,427.466 "/>
<polyline clip-path="url(#clip292)" style="stroke:#000000; stroke-linecap:round; stroke-linejoin:round; stroke-width:2; stroke-opacity:0.1; fill:none" points="186.274,87.9763 2352.76,87.9763 "/>
<polyline clip-path="url(#clip290)" style="stroke:#000000; stroke-linecap:round; stroke-linejoin:round; stroke-width:4; stroke-opacity:1; fill:none" points="186.274,1486.45 186.274,47.2441 "/>
<polyline clip-path="url(#clip290)" style="stroke:#000000; stroke-linecap:round; stroke-linejoin:round; stroke-width:4; stroke-opacity:1; fill:none" points="186.274,1445.94 205.172,1445.94 "/>
<polyline clip-path="url(#clip290)" style="stroke:#000000; stroke-linecap:round; stroke-linejoin:round; stroke-width:4; stroke-opacity:1; fill:none" points="186.274,1106.45 205.172,1106.45 "/>
<polyline clip-path="url(#clip290)" style="stroke:#000000; stroke-linecap:round; stroke-linejoin:round; stroke-width:4; stroke-opacity:1; fill:none" points="186.274,766.957 205.172,766.957 "/>
<polyline clip-path="url(#clip290)" style="stroke:#000000; stroke-linecap:round; stroke-linejoin:round; stroke-width:4; stroke-opacity:1; fill:none" points="186.274,427.466 205.172,427.466 "/>
<polyline clip-path="url(#clip290)" style="stroke:#000000; stroke-linecap:round; stroke-linejoin:round; stroke-width:4; stroke-opacity:1; fill:none" points="186.274,87.9763 205.172,87.9763 "/>
<path clip-path="url(#clip290)" d="M62.9365 1431.74 Q59.3254 1431.74 57.4967 1435.3 Q55.6912 1438.84 55.6912 1445.97 Q55.6912 1453.08 57.4967 1456.64 Q59.3254 1460.18 62.9365 1460.18 Q66.5707 1460.18 68.3763 1456.64 Q70.205 1453.08 70.205 1445.97 Q70.205 1438.84 68.3763 1435.3 Q66.5707 1431.74 62.9365 1431.74 M62.9365 1428.03 Q68.7467 1428.03 71.8022 1432.64 Q74.8809 1437.22 74.8809 1445.97 Q74.8809 1454.7 71.8022 1459.31 Q68.7467 1463.89 62.9365 1463.89 Q57.1264 1463.89 54.0477 1459.31 Q50.9921 1454.7 50.9921 1445.97 Q50.9921 1437.22 54.0477 1432.64 Q57.1264 1428.03 62.9365 1428.03 Z" fill="#000000" fill-rule="nonzero" fill-opacity="1" /><path clip-path="url(#clip290)" d="M83.0984 1457.34 L87.9827 1457.34 L87.9827 1463.22 L83.0984 1463.22 L83.0984 1457.34 Z" fill="#000000" fill-rule="nonzero" fill-opacity="1" /><path clip-path="url(#clip290)" d="M108.168 1431.74 Q104.557 1431.74 102.728 1435.3 Q100.922 1438.84 100.922 1445.97 Q100.922 1453.08 102.728 1456.64 Q104.557 1460.18 108.168 1460.18 Q111.802 1460.18 113.608 1456.64 Q115.436 1453.08 115.436 1445.97 Q115.436 1438.84 113.608 1435.3 Q111.802 1431.74 108.168 1431.74 M108.168 1428.03 Q113.978 1428.03 117.033 1432.64 Q120.112 1437.22 120.112 1445.97 Q120.112 1454.7 117.033 1459.31 Q113.978 1463.89 108.168 1463.89 Q102.358 1463.89 99.2789 1459.31 Q96.2234 1454.7 96.2234 1445.97 Q96.2234 1437.22 99.2789 1432.64 Q102.358 1428.03 108.168 1428.03 Z" fill="#000000" fill-rule="nonzero" fill-opacity="1" /><path clip-path="url(#clip290)" d="M138.33 1431.74 Q134.719 1431.74 132.89 1435.3 Q131.084 1438.84 131.084 1445.97 Q131.084 1453.08 132.89 1456.64 Q134.719 1460.18 138.33 1460.18 Q141.964 1460.18 143.769 1456.64 Q145.598 1453.08 145.598 1445.97 Q145.598 1438.84 143.769 1435.3 Q141.964 1431.74 138.33 1431.74 M138.33 1428.03 Q144.14 1428.03 147.195 1432.64 Q150.274 1437.22 150.274 1445.97 Q150.274 1454.7 147.195 1459.31 Q144.14 1463.89 138.33 1463.89 Q132.519 1463.89 129.441 1459.31 Q126.385 1454.7 126.385 1445.97 Q126.385 1437.22 129.441 1432.64 Q132.519 1428.03 138.33 1428.03 Z" fill="#000000" fill-rule="nonzero" fill-opacity="1" /><path clip-path="url(#clip290)" d="M63.9319 1092.25 Q60.3208 1092.25 58.4921 1095.81 Q56.6865 1099.35 56.6865 1106.48 Q56.6865 1113.59 58.4921 1117.15 Q60.3208 1120.69 63.9319 1120.69 Q67.5661 1120.69 69.3717 1117.15 Q71.2004 1113.59 71.2004 1106.48 Q71.2004 1099.35 69.3717 1095.81 Q67.5661 1092.25 63.9319 1092.25 M63.9319 1088.54 Q69.742 1088.54 72.7976 1093.15 Q75.8763 1097.73 75.8763 1106.48 Q75.8763 1115.21 72.7976 1119.81 Q69.742 1124.4 63.9319 1124.4 Q58.1217 1124.4 55.043 1119.81 Q51.9875 1115.21 51.9875 1106.48 Q51.9875 1097.73 55.043 1093.15 Q58.1217 1088.54 63.9319 1088.54 Z" fill="#000000" fill-rule="nonzero" fill-opacity="1" /><path clip-path="url(#clip290)" d="M84.0938 1117.85 L88.978 1117.85 L88.978 1123.73 L84.0938 1123.73 L84.0938 1117.85 Z" fill="#000000" fill-rule="nonzero" fill-opacity="1" /><path clip-path="url(#clip290)" d="M103.191 1119.79 L119.51 1119.79 L119.51 1123.73 L97.566 1123.73 L97.566 1119.79 Q100.228 1117.04 104.811 1112.41 Q109.418 1107.75 110.598 1106.41 Q112.844 1103.89 113.723 1102.15 Q114.626 1100.39 114.626 1098.7 Q114.626 1095.95 112.682 1094.21 Q110.76 1092.48 107.658 1092.48 Q105.459 1092.48 103.006 1093.24 Q100.575 1094 97.7974 1095.56 L97.7974 1090.83 Q100.621 1089.7 103.075 1089.12 Q105.529 1088.54 107.566 1088.54 Q112.936 1088.54 116.131 1091.23 Q119.325 1093.91 119.325 1098.4 Q119.325 1100.53 118.515 1102.45 Q117.728 1104.35 115.621 1106.94 Q115.043 1107.62 111.941 1110.83 Q108.839 1114.03 103.191 1119.79 Z" fill="#000000" fill-rule="nonzero" fill-opacity="1" /><path clip-path="url(#clip290)" d="M129.371 1089.17 L147.728 1089.17 L147.728 1093.1 L133.654 1093.1 L133.654 1101.57 Q134.672 1101.23 135.691 1101.06 Q136.709 1100.88 137.728 1100.88 Q143.515 1100.88 146.894 1104.05 Q150.274 1107.22 150.274 1112.64 Q150.274 1118.22 146.802 1121.32 Q143.33 1124.4 137.01 1124.4 Q134.834 1124.4 132.566 1124.03 Q130.32 1123.66 127.913 1122.92 L127.913 1118.22 Q129.996 1119.35 132.219 1119.91 Q134.441 1120.46 136.918 1120.46 Q140.922 1120.46 143.26 1118.36 Q145.598 1116.25 145.598 1112.64 Q145.598 1109.03 143.26 1106.92 Q140.922 1104.81 136.918 1104.81 Q135.043 1104.81 133.168 1105.23 Q131.316 1105.65 129.371 1106.53 L129.371 1089.17 Z" fill="#000000" fill-rule="nonzero" fill-opacity="1" /><path clip-path="url(#clip290)" d="M62.9365 752.755 Q59.3254 752.755 57.4967 756.32 Q55.6912 759.862 55.6912 766.991 Q55.6912 774.098 57.4967 777.663 Q59.3254 781.204 62.9365 781.204 Q66.5707 781.204 68.3763 777.663 Q70.205 774.098 70.205 766.991 Q70.205 759.862 68.3763 756.32 Q66.5707 752.755 62.9365 752.755 M62.9365 749.052 Q68.7467 749.052 71.8022 753.658 Q74.8809 758.241 74.8809 766.991 Q74.8809 775.718 71.8022 780.325 Q68.7467 784.908 62.9365 784.908 Q57.1264 784.908 54.0477 780.325 Q50.9921 775.718 50.9921 766.991 Q50.9921 758.241 54.0477 753.658 Q57.1264 749.052 62.9365 749.052 Z" fill="#000000" fill-rule="nonzero" fill-opacity="1" /><path clip-path="url(#clip290)" d="M83.0984 778.357 L87.9827 778.357 L87.9827 784.237 L83.0984 784.237 L83.0984 778.357 Z" fill="#000000" fill-rule="nonzero" fill-opacity="1" /><path clip-path="url(#clip290)" d="M98.2141 749.677 L116.57 749.677 L116.57 753.612 L102.496 753.612 L102.496 762.084 Q103.515 761.737 104.534 761.575 Q105.552 761.39 106.571 761.39 Q112.358 761.39 115.737 764.561 Q119.117 767.732 119.117 773.149 Q119.117 778.727 115.645 781.829 Q112.172 784.908 105.853 784.908 Q103.677 784.908 101.409 784.538 Q99.1632 784.167 96.7558 783.426 L96.7558 778.727 Q98.8391 779.862 101.061 780.417 Q103.284 780.973 105.76 780.973 Q109.765 780.973 112.103 778.866 Q114.441 776.76 114.441 773.149 Q114.441 769.538 112.103 767.431 Q109.765 765.325 105.76 765.325 Q103.885 765.325 102.01 765.741 Q100.159 766.158 98.2141 767.038 L98.2141 749.677 Z" fill="#000000" fill-rule="nonzero" fill-opacity="1" /><path clip-path="url(#clip290)" d="M138.33 752.755 Q134.719 752.755 132.89 756.32 Q131.084 759.862 131.084 766.991 Q131.084 774.098 132.89 777.663 Q134.719 781.204 138.33 781.204 Q141.964 781.204 143.769 777.663 Q145.598 774.098 145.598 766.991 Q145.598 759.862 143.769 756.32 Q141.964 752.755 138.33 752.755 M138.33 749.052 Q144.14 749.052 147.195 753.658 Q150.274 758.241 150.274 766.991 Q150.274 775.718 147.195 780.325 Q144.14 784.908 138.33 784.908 Q132.519 784.908 129.441 780.325 Q126.385 775.718 126.385 766.991 Q126.385 758.241 129.441 753.658 Q132.519 749.052 138.33 749.052 Z" fill="#000000" fill-rule="nonzero" fill-opacity="1" /><path clip-path="url(#clip290)" d="M63.9319 413.265 Q60.3208 413.265 58.4921 416.83 Q56.6865 420.372 56.6865 427.501 Q56.6865 434.608 58.4921 438.172 Q60.3208 441.714 63.9319 441.714 Q67.5661 441.714 69.3717 438.172 Q71.2004 434.608 71.2004 427.501 Q71.2004 420.372 69.3717 416.83 Q67.5661 413.265 63.9319 413.265 M63.9319 409.561 Q69.742 409.561 72.7976 414.168 Q75.8763 418.751 75.8763 427.501 Q75.8763 436.228 72.7976 440.834 Q69.742 445.418 63.9319 445.418 Q58.1217 445.418 55.043 440.834 Q51.9875 436.228 51.9875 427.501 Q51.9875 418.751 55.043 414.168 Q58.1217 409.561 63.9319 409.561 Z" fill="#000000" fill-rule="nonzero" fill-opacity="1" /><path clip-path="url(#clip290)" d="M84.0938 438.867 L88.978 438.867 L88.978 444.746 L84.0938 444.746 L84.0938 438.867 Z" fill="#000000" fill-rule="nonzero" fill-opacity="1" /><path clip-path="url(#clip290)" d="M97.9826 410.186 L120.205 410.186 L120.205 412.177 L107.658 444.746 L102.774 444.746 L114.58 414.122 L97.9826 414.122 L97.9826 410.186 Z" fill="#000000" fill-rule="nonzero" fill-opacity="1" /><path clip-path="url(#clip290)" d="M129.371 410.186 L147.728 410.186 L147.728 414.122 L133.654 414.122 L133.654 422.594 Q134.672 422.247 135.691 422.085 Q136.709 421.899 137.728 421.899 Q143.515 421.899 146.894 425.071 Q150.274 428.242 150.274 433.659 Q150.274 439.237 146.802 442.339 Q143.33 445.418 137.01 445.418 Q134.834 445.418 132.566 445.047 Q130.32 444.677 127.913 443.936 L127.913 439.237 Q129.996 440.371 132.219 440.927 Q134.441 441.483 136.918 441.483 Q140.922 441.483 143.26 439.376 Q145.598 437.27 145.598 433.659 Q145.598 430.047 143.26 427.941 Q140.922 425.835 136.918 425.835 Q135.043 425.835 133.168 426.251 Q131.316 426.668 129.371 427.547 L129.371 410.186 Z" fill="#000000" fill-rule="nonzero" fill-opacity="1" /><path clip-path="url(#clip290)" d="M53.7467 101.321 L61.3856 101.321 L61.3856 74.9555 L53.0754 76.6222 L53.0754 72.3629 L61.3393 70.6963 L66.0152 70.6963 L66.0152 101.321 L73.654 101.321 L73.654 105.256 L53.7467 105.256 L53.7467 101.321 Z" fill="#000000" fill-rule="nonzero" fill-opacity="1" /><path clip-path="url(#clip290)" d="M83.0984 99.3767 L87.9827 99.3767 L87.9827 105.256 L83.0984 105.256 L83.0984 99.3767 Z" fill="#000000" fill-rule="nonzero" fill-opacity="1" /><path clip-path="url(#clip290)" d="M108.168 73.775 Q104.557 73.775 102.728 77.3398 Q100.922 80.8814 100.922 88.011 Q100.922 95.1174 102.728 98.6822 Q104.557 102.224 108.168 102.224 Q111.802 102.224 113.608 98.6822 Q115.436 95.1174 115.436 88.011 Q115.436 80.8814 113.608 77.3398 Q111.802 73.775 108.168 73.775 M108.168 70.0713 Q113.978 70.0713 117.033 74.6777 Q120.112 79.261 120.112 88.011 Q120.112 96.7378 117.033 101.344 Q113.978 105.928 108.168 105.928 Q102.358 105.928 99.2789 101.344 Q96.2234 96.7378 96.2234 88.011 Q96.2234 79.261 99.2789 74.6777 Q102.358 70.0713 108.168 70.0713 Z" fill="#000000" fill-rule="nonzero" fill-opacity="1" /><path clip-path="url(#clip290)" d="M138.33 73.775 Q134.719 73.775 132.89 77.3398 Q131.084 80.8814 131.084 88.011 Q131.084 95.1174 132.89 98.6822 Q134.719 102.224 138.33 102.224 Q141.964 102.224 143.769 98.6822 Q145.598 95.1174 145.598 88.011 Q145.598 80.8814 143.769 77.3398 Q141.964 73.775 138.33 73.775 M138.33 70.0713 Q144.14 70.0713 147.195 74.6777 Q150.274 79.261 150.274 88.011 Q150.274 96.7378 147.195 101.344 Q144.14 105.928 138.33 105.928 Q132.519 105.928 129.441 101.344 Q126.385 96.7378 126.385 88.011 Q126.385 79.261 129.441 74.6777 Q132.519 70.0713 138.33 70.0713 Z" fill="#000000" fill-rule="nonzero" fill-opacity="1" /><polyline clip-path="url(#clip292)" style="stroke:#009af9; stroke-linecap:round; stroke-linejoin:round; stroke-width:4; stroke-opacity:1; fill:none" points="247.59,87.9763 257.86,101.624 268.131,115.272 278.401,128.92 288.672,142.568 298.943,156.216 309.213,169.863 319.484,183.511 329.754,197.159 340.025,210.807 350.296,224.455 360.566,238.103 370.837,251.75 381.107,265.398 391.378,279.046 401.649,292.694 411.919,306.342 422.19,319.99 432.46,333.638 442.731,347.285 453.002,360.933 463.272,374.581 473.543,388.229 483.813,401.877 494.084,415.525 504.355,429.172 514.625,442.82 524.896,456.468 535.167,470.116 545.437,483.764 555.708,497.412 565.978,511.06 576.249,524.707 586.52,538.355 596.79,552.003 607.061,565.651 617.331,579.299 627.602,592.947 637.873,606.594 648.143,620.242 658.414,633.89 668.684,647.538 678.955,661.186 689.226,674.834 699.496,688.482 709.767,702.129 720.037,715.777 730.308,729.425 740.579,743.073 750.849,756.721 761.12,770.369 771.39,784.016 781.661,797.664 791.932,811.312 802.202,824.96 812.473,838.608 822.744,852.256 833.014,865.904 843.285,879.551 853.555,893.199 863.826,906.847 874.097,920.495 884.367,934.143 894.638,947.791 904.908,961.438 915.179,975.086 925.45,988.734 935.72,1002.38 945.991,1016.03 956.261,1029.68 966.532,1043.33 976.803,1056.97 987.073,1070.62 997.344,1084.27 1007.61,1097.92 1017.89,1111.56 1028.16,1125.21 1038.43,1138.86 1048.7,1152.51 1058.97,1166.16 1069.24,1179.8 1079.51,1193.45 1089.78,1207.1 1100.05,1220.75 1110.32,1234.4 1120.59,1248.04 1130.86,1261.69 1141.13,1275.34 1151.4,1288.99 1161.67,1302.63 1171.94,1316.28 1182.21,1329.93 1192.49,1343.58 1202.76,1357.23 1213.03,1370.87 1223.3,1384.52 1233.57,1398.17 1243.84,1411.82 1254.11,1425.47 1264.38,1439.11 1274.65,1439.11 1284.92,1425.47 1295.19,1411.82 1305.46,1398.17 1315.73,1384.52 1326,1370.87 1336.27,1357.23 1346.54,1343.58 1356.82,1329.93 1367.09,1316.28 1377.36,1302.63 1387.63,1288.99 1397.9,1275.34 1408.17,1261.69 1418.44,1248.04 1428.71,1234.4 1438.98,1220.75 1449.25,1207.1 1459.52,1193.45 1469.79,1179.8 1480.06,1166.16 1490.33,1152.51 1500.6,1138.86 1510.87,1125.21 1521.14,1111.56 1531.42,1097.92 1541.69,1084.27 1551.96,1070.62 1562.23,1056.97 1572.5,1043.33 1582.77,1029.68 1593.04,1016.03 1603.31,1002.38 1613.58,988.734 1623.85,975.086 1634.12,961.438 1644.39,947.791 1654.66,934.143 1664.93,920.495 1675.2,906.847 1685.47,893.199 1695.75,879.551 1706.02,865.904 1716.29,852.256 1726.56,838.608 1736.83,824.96 1747.1,811.312 1757.37,797.664 1767.64,784.016 1777.91,770.369 1788.18,756.721 1798.45,743.073 1808.72,729.425 1818.99,715.777 1829.26,702.129 1839.53,688.482 1849.8,674.834 1860.07,661.186 1870.35,647.538 1880.62,633.89 1890.89,620.242 1901.16,606.594 1911.43,592.947 1921.7,579.299 1931.97,565.651 1942.24,552.003 1952.51,538.355 1962.78,524.707 1973.05,511.06 1983.32,497.412 1993.59,483.764 2003.86,470.116 2014.13,456.468 2024.4,442.82 2034.68,429.172 2044.95,415.525 2055.22,401.877 2065.49,388.229 2075.76,374.581 2086.03,360.933 2096.3,347.285 2106.57,333.638 2116.84,319.99 2127.11,306.342 2137.38,292.694 2147.65,279.046 2157.92,265.398 2168.19,251.75 2178.46,238.103 2188.73,224.455 2199,210.807 2209.28,197.159 2219.55,183.511 2229.82,169.863 2240.09,156.216 2250.36,142.568 2260.63,128.92 2270.9,115.272 2281.17,101.624 2291.44,87.9763 "/>
<polyline clip-path="url(#clip292)" style="stroke:#e26f46; stroke-linecap:round; stroke-linejoin:round; stroke-width:4; stroke-opacity:1; fill:none" points="247.59,87.9763 257.86,425.552 268.131,676.397 278.401,854.632 288.672,972.723 298.943,1041.62 309.213,1070.91 319.484,1068.92 329.754,1042.85 340.025,998.889 350.296,942.31 360.566,877.561 370.837,808.355 381.107,737.755 391.378,668.245 401.649,601.799 411.919,539.943 422.19,483.813 432.46,434.209 442.731,391.642 453.002,356.373 463.272,328.461 473.543,307.789 483.813,294.103 494.084,287.036 504.355,286.134 514.625,290.882 524.896,300.716 535.167,315.049 545.437,333.28 555.708,354.808 565.978,379.044 576.249,405.419 586.52,433.392 596.79,462.456 607.061,492.142 617.331,522.023 627.602,551.715 637.873,580.883 648.143,609.234 658.414,636.523 668.684,662.552 678.955,687.164 689.226,710.246 699.496,731.723 709.767,751.558 720.037,769.748 730.308,786.324 740.579,801.34 750.849,814.879 761.12,827.044 771.39,837.957 781.661,847.753 791.932,856.58 802.202,864.596 812.473,871.961 822.744,878.841 833.014,885.399 843.285,891.799 853.555,898.196 863.826,904.74 874.097,911.573 884.367,918.826 894.638,926.615 904.908,935.045 915.179,944.207 925.45,954.177 935.72,965.011 945.991,976.755 956.261,989.433 966.532,1003.06 976.803,1017.62 987.073,1033.09 997.344,1049.45 1007.61,1066.63 1017.89,1084.57 1028.16,1103.19 1038.43,1122.4 1048.7,1142.1 1058.97,1162.17 1069.24,1182.5 1079.51,1202.96 1089.78,1223.41 1100.05,1243.73 1110.32,1263.77 1120.59,1283.4 1130.86,1302.47 1141.13,1320.86 1151.4,1338.41 1161.67,1355.02 1171.94,1370.54 1182.21,1384.87 1192.49,1397.9 1202.76,1409.53 1213.03,1419.67 1223.3,1428.24 1233.57,1435.17 1243.84,1440.42 1254.11,1443.95 1264.38,1445.72 1274.65,1445.72 1284.92,1443.95 1295.19,1440.42 1305.46,1435.17 1315.73,1428.24 1326,1419.67 1336.27,1409.53 1346.54,1397.9 1356.82,1384.87 1367.09,1370.54 1377.36,1355.02 1387.63,1338.41 1397.9,1320.86 1408.17,1302.47 1418.44,1283.4 1428.71,1263.77 1438.98,1243.73 1449.25,1223.41 1459.52,1202.96 1469.79,1182.5 1480.06,1162.17 1490.33,1142.1 1500.6,1122.4 1510.87,1103.19 1521.14,1084.57 1531.42,1066.63 1541.69,1049.45 1551.96,1033.09 1562.23,1017.62 1572.5,1003.06 1582.77,989.433 1593.04,976.755 1603.31,965.011 1613.58,954.177 1623.85,944.207 1634.12,935.045 1644.39,926.615 1654.66,918.826 1664.93,911.573 1675.2,904.74 1685.47,898.196 1695.75,891.799 1706.02,885.399 1716.29,878.841 1726.56,871.961 1736.83,864.596 1747.1,856.58 1757.37,847.753 1767.64,837.957 1777.91,827.044 1788.18,814.879 1798.45,801.34 1808.72,786.324 1818.99,769.748 1829.26,751.558 1839.53,731.723 1849.8,710.246 1860.07,687.164 1870.35,662.552 1880.62,636.523 1890.89,609.234 1901.16,580.883 1911.43,551.715 1921.7,522.023 1931.97,492.142 1942.24,462.456 1952.51,433.392 1962.78,405.419 1973.05,379.044 1983.32,354.808 1993.59,333.28 2003.86,315.049 2014.13,300.716 2024.4,290.882 2034.68,286.134 2044.95,287.036 2055.22,294.103 2065.49,307.789 2075.76,328.461 2086.03,356.373 2096.3,391.642 2106.57,434.209 2116.84,483.813 2127.11,539.943 2137.38,601.799 2147.65,668.245 2157.92,737.755 2168.19,808.355 2178.46,877.561 2188.73,942.31 2199,998.889 2209.28,1042.85 2219.55,1068.92 2229.82,1070.91 2240.09,1041.62 2250.36,972.723 2260.63,854.632 2270.9,676.397 2281.17,425.552 2291.44,87.9763 "/>
<path clip-path="url(#clip290)" d="M1791.97 1438.47 L2280.54 1438.47 L2280.54 1282.95 L1791.97 1282.95  Z" fill="#ffffff" fill-rule="evenodd" fill-opacity="1"/>
<polyline clip-path="url(#clip290)" style="stroke:#000000; stroke-linecap:round; stroke-linejoin:round; stroke-width:4; stroke-opacity:1; fill:none" points="1791.97,1438.47 2280.54,1438.47 2280.54,1282.95 1791.97,1282.95 1791.97,1438.47 "/>
<polyline clip-path="url(#clip290)" style="stroke:#009af9; stroke-linecap:round; stroke-linejoin:round; stroke-width:4; stroke-opacity:1; fill:none" points="1816.04,1334.79 1960.48,1334.79 "/>
<path clip-path="url(#clip290)" d="M1984.55 1317.51 L2004.41 1317.51 L2004.41 1321.45 L1989.22 1321.45 L1989.22 1331.63 L2002.93 1331.63 L2002.93 1335.57 L1989.22 1335.57 L1989.22 1352.07 L1984.55 1352.07 L1984.55 1317.51 Z" fill="#000000" fill-rule="nonzero" fill-opacity="1" /><path clip-path="url(#clip290)" d="M2008.6 1341.84 L2008.6 1326.15 L2012.86 1326.15 L2012.86 1341.68 Q2012.86 1345.36 2014.29 1347.21 Q2015.73 1349.04 2018.6 1349.04 Q2022.05 1349.04 2024.04 1346.84 Q2026.05 1344.64 2026.05 1340.85 L2026.05 1326.15 L2030.31 1326.15 L2030.31 1352.07 L2026.05 1352.07 L2026.05 1348.09 Q2024.5 1350.45 2022.44 1351.61 Q2020.4 1352.75 2017.7 1352.75 Q2013.23 1352.75 2010.91 1349.97 Q2008.6 1347.19 2008.6 1341.84 M2019.32 1325.52 L2019.32 1325.52 Z" fill="#000000" fill-rule="nonzero" fill-opacity="1" /><path clip-path="url(#clip290)" d="M2060.64 1336.43 L2060.64 1352.07 L2056.38 1352.07 L2056.38 1336.57 Q2056.38 1332.88 2054.94 1331.06 Q2053.51 1329.23 2050.64 1329.23 Q2047.19 1329.23 2045.2 1331.43 Q2043.21 1333.63 2043.21 1337.42 L2043.21 1352.07 L2038.92 1352.07 L2038.92 1326.15 L2043.21 1326.15 L2043.21 1330.18 Q2044.73 1327.84 2046.79 1326.68 Q2048.88 1325.52 2051.58 1325.52 Q2056.05 1325.52 2058.34 1328.3 Q2060.64 1331.06 2060.64 1336.43 Z" fill="#000000" fill-rule="nonzero" fill-opacity="1" /><path clip-path="url(#clip290)" d="M2068.97 1316.06 L2073.25 1316.06 L2073.25 1337.33 L2085.96 1326.15 L2091.4 1326.15 L2077.65 1338.28 L2091.98 1352.07 L2086.42 1352.07 L2073.25 1339.41 L2073.25 1352.07 L2068.97 1352.07 L2068.97 1316.06 Z" fill="#000000" fill-rule="nonzero" fill-opacity="1" /><path clip-path="url(#clip290)" d="M2115.24 1327.14 L2115.24 1331.13 Q2113.44 1330.13 2111.61 1329.64 Q2109.8 1329.13 2107.95 1329.13 Q2103.81 1329.13 2101.51 1331.77 Q2099.22 1334.39 2099.22 1339.13 Q2099.22 1343.88 2101.51 1346.52 Q2103.81 1349.13 2107.95 1349.13 Q2109.8 1349.13 2111.61 1348.65 Q2113.44 1348.14 2115.24 1347.14 L2115.24 1351.08 Q2113.46 1351.91 2111.54 1352.33 Q2109.64 1352.75 2107.49 1352.75 Q2101.63 1352.75 2098.18 1349.07 Q2094.73 1345.38 2094.73 1339.13 Q2094.73 1332.79 2098.2 1329.16 Q2101.7 1325.52 2107.76 1325.52 Q2109.73 1325.52 2111.61 1325.94 Q2113.48 1326.33 2115.24 1327.14 Z" fill="#000000" fill-rule="nonzero" fill-opacity="1" /><path clip-path="url(#clip290)" d="M2122.65 1326.15 L2126.91 1326.15 L2126.91 1352.54 Q2126.91 1357.49 2125.01 1359.71 Q2123.14 1361.94 2118.95 1361.94 L2117.33 1361.94 L2117.33 1358.32 L2118.46 1358.32 Q2120.89 1358.32 2121.77 1357.19 Q2122.65 1356.08 2122.65 1352.54 L2122.65 1326.15 M2122.65 1316.06 L2126.91 1316.06 L2126.91 1321.45 L2122.65 1321.45 L2122.65 1316.06 Z" fill="#000000" fill-rule="nonzero" fill-opacity="1" /><path clip-path="url(#clip290)" d="M2147.6 1339.04 Q2142.44 1339.04 2140.45 1340.22 Q2138.46 1341.4 2138.46 1344.25 Q2138.46 1346.52 2139.94 1347.86 Q2141.45 1349.18 2144.01 1349.18 Q2147.56 1349.18 2149.69 1346.68 Q2151.84 1344.16 2151.84 1339.99 L2151.84 1339.04 L2147.6 1339.04 M2156.1 1337.28 L2156.1 1352.07 L2151.84 1352.07 L2151.84 1348.14 Q2150.38 1350.5 2148.2 1351.63 Q2146.03 1352.75 2142.88 1352.75 Q2138.9 1352.75 2136.54 1350.52 Q2134.2 1348.28 2134.2 1344.53 Q2134.2 1340.15 2137.12 1337.93 Q2140.06 1335.71 2145.87 1335.71 L2151.84 1335.71 L2151.84 1335.29 Q2151.84 1332.35 2149.89 1330.76 Q2147.97 1329.13 2144.48 1329.13 Q2142.26 1329.13 2140.15 1329.67 Q2138.04 1330.2 2136.1 1331.26 L2136.1 1327.33 Q2138.44 1326.43 2140.64 1325.99 Q2142.83 1325.52 2144.92 1325.52 Q2150.54 1325.52 2153.32 1328.44 Q2156.1 1331.36 2156.1 1337.28 Z" fill="#000000" fill-rule="nonzero" fill-opacity="1" /><polyline clip-path="url(#clip290)" style="stroke:#e26f46; stroke-linecap:round; stroke-linejoin:round; stroke-width:4; stroke-opacity:1; fill:none" points="1816.04,1386.63 1960.48,1386.63 "/>
<path clip-path="url(#clip290)" d="M1984.55 1369.35 L1989.22 1369.35 L1989.22 1403.91 L1984.55 1403.91 L1984.55 1369.35 Z" fill="#000000" fill-rule="nonzero" fill-opacity="1" /><path clip-path="url(#clip290)" d="M2019.9 1388.27 L2019.9 1403.91 L2015.64 1403.91 L2015.64 1388.41 Q2015.64 1384.72 2014.2 1382.9 Q2012.77 1381.07 2009.9 1381.07 Q2006.45 1381.07 2004.46 1383.27 Q2002.46 1385.47 2002.46 1389.26 L2002.46 1403.91 L1998.18 1403.91 L1998.18 1377.99 L2002.46 1377.99 L2002.46 1382.02 Q2003.99 1379.68 2006.05 1378.52 Q2008.14 1377.36 2010.84 1377.36 Q2015.31 1377.36 2017.6 1380.14 Q2019.9 1382.9 2019.9 1388.27 Z" fill="#000000" fill-rule="nonzero" fill-opacity="1" /><path clip-path="url(#clip290)" d="M2032.6 1370.63 L2032.6 1377.99 L2041.38 1377.99 L2041.38 1381.3 L2032.6 1381.3 L2032.6 1395.37 Q2032.6 1398.54 2033.46 1399.45 Q2034.34 1400.35 2037 1400.35 L2041.38 1400.35 L2041.38 1403.91 L2037 1403.91 Q2032.07 1403.91 2030.2 1402.09 Q2028.32 1400.23 2028.32 1395.37 L2028.32 1381.3 L2025.2 1381.3 L2025.2 1377.99 L2028.32 1377.99 L2028.32 1370.63 L2032.6 1370.63 Z" fill="#000000" fill-rule="nonzero" fill-opacity="1" /><path clip-path="url(#clip290)" d="M2069.15 1389.89 L2069.15 1391.97 L2049.57 1391.97 Q2049.85 1396.37 2052.21 1398.68 Q2054.59 1400.97 2058.83 1400.97 Q2061.28 1400.97 2063.58 1400.37 Q2065.89 1399.77 2068.16 1398.57 L2068.16 1402.59 Q2065.87 1403.57 2063.46 1404.08 Q2061.05 1404.59 2058.58 1404.59 Q2052.37 1404.59 2048.74 1400.97 Q2045.13 1397.36 2045.13 1391.21 Q2045.13 1384.84 2048.55 1381.11 Q2052 1377.36 2057.83 1377.36 Q2063.07 1377.36 2066.1 1380.74 Q2069.15 1384.1 2069.15 1389.89 M2064.89 1388.64 Q2064.85 1385.14 2062.93 1383.06 Q2061.03 1380.97 2057.88 1380.97 Q2054.32 1380.97 2052.16 1382.99 Q2050.03 1385 2049.71 1388.66 L2064.89 1388.64 Z" fill="#000000" fill-rule="nonzero" fill-opacity="1" /><path clip-path="url(#clip290)" d="M2091.17 1381.97 Q2090.45 1381.55 2089.59 1381.37 Q2088.76 1381.16 2087.74 1381.16 Q2084.13 1381.16 2082.19 1383.52 Q2080.27 1385.86 2080.27 1390.26 L2080.27 1403.91 L2075.98 1403.91 L2075.98 1377.99 L2080.27 1377.99 L2080.27 1382.02 Q2081.61 1379.66 2083.76 1378.52 Q2085.91 1377.36 2088.99 1377.36 Q2089.43 1377.36 2089.96 1377.43 Q2090.5 1377.48 2091.14 1377.6 L2091.17 1381.97 Z" fill="#000000" fill-rule="nonzero" fill-opacity="1" /><path clip-path="url(#clip290)" d="M2099.76 1400.03 L2099.76 1413.78 L2095.47 1413.78 L2095.47 1377.99 L2099.76 1377.99 L2099.76 1381.92 Q2101.1 1379.61 2103.14 1378.5 Q2105.2 1377.36 2108.04 1377.36 Q2112.76 1377.36 2115.7 1381.11 Q2118.67 1384.86 2118.67 1390.97 Q2118.67 1397.09 2115.7 1400.84 Q2112.76 1404.59 2108.04 1404.59 Q2105.2 1404.59 2103.14 1403.47 Q2101.1 1402.34 2099.76 1400.03 M2114.25 1390.97 Q2114.25 1386.28 2112.3 1383.61 Q2110.38 1380.93 2107 1380.93 Q2103.62 1380.93 2101.68 1383.61 Q2099.76 1386.28 2099.76 1390.97 Q2099.76 1395.67 2101.68 1398.36 Q2103.62 1401.02 2107 1401.02 Q2110.38 1401.02 2112.3 1398.36 Q2114.25 1395.67 2114.25 1390.97 Z" fill="#000000" fill-rule="nonzero" fill-opacity="1" /><path clip-path="url(#clip290)" d="M2135.77 1380.97 Q2132.35 1380.97 2130.36 1383.66 Q2128.37 1386.32 2128.37 1390.97 Q2128.37 1395.63 2130.33 1398.31 Q2132.32 1400.97 2135.77 1400.97 Q2139.18 1400.97 2141.17 1398.29 Q2143.16 1395.6 2143.16 1390.97 Q2143.16 1386.37 2141.17 1383.68 Q2139.18 1380.97 2135.77 1380.97 M2135.77 1377.36 Q2141.33 1377.36 2144.5 1380.97 Q2147.67 1384.59 2147.67 1390.97 Q2147.67 1397.34 2144.5 1400.97 Q2141.33 1404.59 2135.77 1404.59 Q2130.2 1404.59 2127.02 1400.97 Q2123.88 1397.34 2123.88 1390.97 Q2123.88 1384.59 2127.02 1380.97 Q2130.2 1377.36 2135.77 1377.36 Z" fill="#000000" fill-rule="nonzero" fill-opacity="1" /><path clip-path="url(#clip290)" d="M2154.73 1367.9 L2158.99 1367.9 L2158.99 1403.91 L2154.73 1403.91 L2154.73 1367.9 Z" fill="#000000" fill-rule="nonzero" fill-opacity="1" /><path clip-path="url(#clip290)" d="M2179.69 1390.88 Q2174.52 1390.88 2172.53 1392.06 Q2170.54 1393.24 2170.54 1396.09 Q2170.54 1398.36 2172.02 1399.7 Q2173.53 1401.02 2176.1 1401.02 Q2179.64 1401.02 2181.77 1398.52 Q2183.92 1396 2183.92 1391.83 L2183.92 1390.88 L2179.69 1390.88 M2188.18 1389.12 L2188.18 1403.91 L2183.92 1403.91 L2183.92 1399.98 Q2182.46 1402.34 2180.29 1403.47 Q2178.11 1404.59 2174.96 1404.59 Q2170.98 1404.59 2168.62 1402.36 Q2166.28 1400.12 2166.28 1396.37 Q2166.28 1391.99 2169.2 1389.77 Q2172.14 1387.55 2177.95 1387.55 L2183.92 1387.55 L2183.92 1387.13 Q2183.92 1384.19 2181.98 1382.6 Q2180.06 1380.97 2176.56 1380.97 Q2174.34 1380.97 2172.23 1381.51 Q2170.13 1382.04 2168.18 1383.1 L2168.18 1379.17 Q2170.52 1378.27 2172.72 1377.83 Q2174.92 1377.36 2177 1377.36 Q2182.63 1377.36 2185.4 1380.28 Q2188.18 1383.2 2188.18 1389.12 Z" fill="#000000" fill-rule="nonzero" fill-opacity="1" /><path clip-path="url(#clip290)" d="M2215.61 1378.98 L2215.61 1382.97 Q2213.81 1381.97 2211.98 1381.48 Q2210.17 1380.97 2208.32 1380.97 Q2204.18 1380.97 2201.88 1383.61 Q2199.59 1386.23 2199.59 1390.97 Q2199.59 1395.72 2201.88 1398.36 Q2204.18 1400.97 2208.32 1400.97 Q2210.17 1400.97 2211.98 1400.49 Q2213.81 1399.98 2215.61 1398.98 L2215.61 1402.92 Q2213.83 1403.75 2211.91 1404.17 Q2210.01 1404.59 2207.86 1404.59 Q2202 1404.59 2198.55 1400.91 Q2195.1 1397.22 2195.1 1390.97 Q2195.1 1384.63 2198.57 1381 Q2202.07 1377.36 2208.13 1377.36 Q2210.1 1377.36 2211.98 1377.78 Q2213.85 1378.17 2215.61 1378.98 Z" fill="#000000" fill-rule="nonzero" fill-opacity="1" /><path clip-path="url(#clip290)" d="M2223.02 1377.99 L2227.28 1377.99 L2227.28 1404.38 Q2227.28 1409.33 2225.38 1411.55 Q2223.51 1413.78 2219.32 1413.78 L2217.69 1413.78 L2217.69 1410.16 L2218.83 1410.16 Q2221.26 1410.16 2222.14 1409.03 Q2223.02 1407.92 2223.02 1404.38 L2223.02 1377.99 M2223.02 1367.9 L2227.28 1367.9 L2227.28 1373.29 L2223.02 1373.29 L2223.02 1367.9 Z" fill="#000000" fill-rule="nonzero" fill-opacity="1" /><path clip-path="url(#clip290)" d="M2247.97 1390.88 Q2242.81 1390.88 2240.82 1392.06 Q2238.83 1393.24 2238.83 1396.09 Q2238.83 1398.36 2240.31 1399.7 Q2241.82 1401.02 2244.38 1401.02 Q2247.93 1401.02 2250.06 1398.52 Q2252.21 1396 2252.21 1391.83 L2252.21 1390.88 L2247.97 1390.88 M2256.47 1389.12 L2256.47 1403.91 L2252.21 1403.91 L2252.21 1399.98 Q2250.75 1402.34 2248.57 1403.47 Q2246.4 1404.59 2243.25 1404.59 Q2239.27 1404.59 2236.91 1402.36 Q2234.57 1400.12 2234.57 1396.37 Q2234.57 1391.99 2237.49 1389.77 Q2240.43 1387.55 2246.24 1387.55 L2252.21 1387.55 L2252.21 1387.13 Q2252.21 1384.19 2250.26 1382.6 Q2248.34 1380.97 2244.85 1380.97 Q2242.63 1380.97 2240.52 1381.51 Q2238.41 1382.04 2236.47 1383.1 L2236.47 1379.17 Q2238.81 1378.27 2241 1377.83 Q2243.2 1377.36 2245.29 1377.36 Q2250.91 1377.36 2253.69 1380.28 Q2256.47 1383.2 2256.47 1389.12 Z" fill="#000000" fill-rule="nonzero" fill-opacity="1" /></svg>
