<?xml version="1.0" encoding="utf-8"?>
<svg xmlns="http://www.w3.org/2000/svg" xmlns:xlink="http://www.w3.org/1999/xlink" width="600" height="400" viewBox="0 0 2400 1600">
<defs>
  <clipPath id="clip900">
    <rect x="0" y="0" width="2400" height="1600"/>
  </clipPath>
</defs>
<path clip-path="url(#clip900)" d="M0 1600 L2400 1600 L2400 0 L0 0  Z" fill="#ffffff" fill-rule="evenodd" fill-opacity="1"/>
<defs>
  <clipPath id="clip901">
    <rect x="480" y="0" width="1681" height="1600"/>
  </clipPath>
</defs>
<path clip-path="url(#clip900)" d="M155.765 1486.45 L2352.76 1486.45 L2352.76 47.2441 L155.765 47.2441  Z" fill="#ffffff" fill-rule="evenodd" fill-opacity="1"/>
<defs>
  <clipPath id="clip902">
    <rect x="155" y="47" width="2198" height="1440"/>
  </clipPath>
</defs>
<polyline clip-path="url(#clip902)" style="stroke:#000000; stroke-linecap:round; stroke-linejoin:round; stroke-width:2; stroke-opacity:0.1; fill:none" points="217.944,1486.45 217.944,47.2441 "/>
<polyline clip-path="url(#clip902)" style="stroke:#000000; stroke-linecap:round; stroke-linejoin:round; stroke-width:2; stroke-opacity:0.1; fill:none" points="736.102,1486.45 736.102,47.2441 "/>
<polyline clip-path="url(#clip902)" style="stroke:#000000; stroke-linecap:round; stroke-linejoin:round; stroke-width:2; stroke-opacity:0.1; fill:none" points="1254.26,1486.45 1254.26,47.2441 "/>
<polyline clip-path="url(#clip902)" style="stroke:#000000; stroke-linecap:round; stroke-linejoin:round; stroke-width:2; stroke-opacity:0.1; fill:none" points="1772.42,1486.45 1772.42,47.2441 "/>
<polyline clip-path="url(#clip902)" style="stroke:#000000; stroke-linecap:round; stroke-linejoin:round; stroke-width:2; stroke-opacity:0.1; fill:none" points="2290.58,1486.45 2290.58,47.2441 "/>
<polyline clip-path="url(#clip900)" style="stroke:#000000; stroke-linecap:round; stroke-linejoin:round; stroke-width:4; stroke-opacity:1; fill:none" points="155.765,1486.45 2352.76,1486.45 "/>
<polyline clip-path="url(#clip900)" style="stroke:#000000; stroke-linecap:round; stroke-linejoin:round; stroke-width:4; stroke-opacity:1; fill:none" points="217.944,1486.45 217.944,1467.55 "/>
<polyline clip-path="url(#clip900)" style="stroke:#000000; stroke-linecap:round; stroke-linejoin:round; stroke-width:4; stroke-opacity:1; fill:none" points="736.102,1486.45 736.102,1467.55 "/>
<polyline clip-path="url(#clip900)" style="stroke:#000000; stroke-linecap:round; stroke-linejoin:round; stroke-width:4; stroke-opacity:1; fill:none" points="1254.26,1486.45 1254.26,1467.55 "/>
<polyline clip-path="url(#clip900)" style="stroke:#000000; stroke-linecap:round; stroke-linejoin:round; stroke-width:4; stroke-opacity:1; fill:none" points="1772.42,1486.45 1772.42,1467.55 "/>
<polyline clip-path="url(#clip900)" style="stroke:#000000; stroke-linecap:round; stroke-linejoin:round; stroke-width:4; stroke-opacity:1; fill:none" points="2290.58,1486.45 2290.58,1467.55 "/>
<path clip-path="url(#clip900)" d="M180.247 1517.37 Q176.636 1517.37 174.808 1520.93 Q173.002 1524.47 173.002 1531.6 Q173.002 1538.71 174.808 1542.27 Q176.636 1545.82 180.247 1545.82 Q183.882 1545.82 185.687 1542.27 Q187.516 1538.71 187.516 1531.6 Q187.516 1524.47 185.687 1520.93 Q183.882 1517.37 180.247 1517.37 M180.247 1513.66 Q186.057 1513.66 189.113 1518.27 Q192.192 1522.85 192.192 1531.6 Q192.192 1540.33 189.113 1544.94 Q186.057 1549.52 180.247 1549.52 Q174.437 1549.52 171.358 1544.94 Q168.303 1540.33 168.303 1531.6 Q168.303 1522.85 171.358 1518.27 Q174.437 1513.66 180.247 1513.66 Z" fill="#000000" fill-rule="nonzero" fill-opacity="1" /><path clip-path="url(#clip900)" d="M200.409 1542.97 L205.294 1542.97 L205.294 1548.85 L200.409 1548.85 L200.409 1542.97 Z" fill="#000000" fill-rule="nonzero" fill-opacity="1" /><path clip-path="url(#clip900)" d="M225.479 1517.37 Q221.867 1517.37 220.039 1520.93 Q218.233 1524.47 218.233 1531.6 Q218.233 1538.71 220.039 1542.27 Q221.867 1545.82 225.479 1545.82 Q229.113 1545.82 230.918 1542.27 Q232.747 1538.71 232.747 1531.6 Q232.747 1524.47 230.918 1520.93 Q229.113 1517.37 225.479 1517.37 M225.479 1513.66 Q231.289 1513.66 234.344 1518.27 Q237.423 1522.85 237.423 1531.6 Q237.423 1540.33 234.344 1544.94 Q231.289 1549.52 225.479 1549.52 Q219.668 1549.52 216.59 1544.94 Q213.534 1540.33 213.534 1531.6 Q213.534 1522.85 216.59 1518.27 Q219.668 1513.66 225.479 1513.66 Z" fill="#000000" fill-rule="nonzero" fill-opacity="1" /><path clip-path="url(#clip900)" d="M255.64 1517.37 Q252.029 1517.37 250.201 1520.93 Q248.395 1524.47 248.395 1531.6 Q248.395 1538.71 250.201 1542.27 Q252.029 1545.82 255.64 1545.82 Q259.275 1545.82 261.08 1542.27 Q262.909 1538.71 262.909 1531.6 Q262.909 1524.47 261.08 1520.93 Q259.275 1517.37 255.64 1517.37 M255.64 1513.66 Q261.451 1513.66 264.506 1518.27 Q267.585 1522.85 267.585 1531.6 Q267.585 1540.33 264.506 1544.94 Q261.451 1549.52 255.64 1549.52 Q249.83 1549.52 246.752 1544.94 Q243.696 1540.33 243.696 1531.6 Q243.696 1522.85 246.752 1518.27 Q249.83 1513.66 255.64 1513.66 Z" fill="#000000" fill-rule="nonzero" fill-opacity="1" /><path clip-path="url(#clip900)" d="M698.903 1517.37 Q695.292 1517.37 693.463 1520.93 Q691.658 1524.47 691.658 1531.6 Q691.658 1538.71 693.463 1542.27 Q695.292 1545.82 698.903 1545.82 Q702.538 1545.82 704.343 1542.27 Q706.172 1538.71 706.172 1531.6 Q706.172 1524.47 704.343 1520.93 Q702.538 1517.37 698.903 1517.37 M698.903 1513.66 Q704.713 1513.66 707.769 1518.27 Q710.848 1522.85 710.848 1531.6 Q710.848 1540.33 707.769 1544.94 Q704.713 1549.52 698.903 1549.52 Q693.093 1549.52 690.014 1544.94 Q686.959 1540.33 686.959 1531.6 Q686.959 1522.85 690.014 1518.27 Q693.093 1513.66 698.903 1513.66 Z" fill="#000000" fill-rule="nonzero" fill-opacity="1" /><path clip-path="url(#clip900)" d="M719.065 1542.97 L723.949 1542.97 L723.949 1548.85 L719.065 1548.85 L719.065 1542.97 Z" fill="#000000" fill-rule="nonzero" fill-opacity="1" /><path clip-path="url(#clip900)" d="M738.162 1544.91 L754.482 1544.91 L754.482 1548.85 L732.537 1548.85 L732.537 1544.91 Q735.199 1542.16 739.783 1537.53 Q744.389 1532.88 745.57 1531.53 Q747.815 1529.01 748.695 1527.27 Q749.597 1525.51 749.597 1523.82 Q749.597 1521.07 747.653 1519.33 Q745.732 1517.6 742.63 1517.6 Q740.431 1517.6 737.977 1518.36 Q735.547 1519.13 732.769 1520.68 L732.769 1515.95 Q735.593 1514.82 738.047 1514.24 Q740.5 1513.66 742.537 1513.66 Q747.908 1513.66 751.102 1516.35 Q754.296 1519.03 754.296 1523.52 Q754.296 1525.65 753.486 1527.57 Q752.699 1529.47 750.593 1532.07 Q750.014 1532.74 746.912 1535.95 Q743.81 1539.15 738.162 1544.91 Z" fill="#000000" fill-rule="nonzero" fill-opacity="1" /><path clip-path="url(#clip900)" d="M764.343 1514.29 L782.699 1514.29 L782.699 1518.22 L768.625 1518.22 L768.625 1526.7 Q769.644 1526.35 770.662 1526.19 Q771.681 1526 772.699 1526 Q778.486 1526 781.866 1529.17 Q785.245 1532.34 785.245 1537.76 Q785.245 1543.34 781.773 1546.44 Q778.301 1549.52 771.982 1549.52 Q769.806 1549.52 767.537 1549.15 Q765.292 1548.78 762.884 1548.04 L762.884 1543.34 Q764.968 1544.47 767.19 1545.03 Q769.412 1545.58 771.889 1545.58 Q775.894 1545.58 778.232 1543.48 Q780.57 1541.37 780.57 1537.76 Q780.57 1534.15 778.232 1532.04 Q775.894 1529.94 771.889 1529.94 Q770.014 1529.94 768.139 1530.35 Q766.287 1530.77 764.343 1531.65 L764.343 1514.29 Z" fill="#000000" fill-rule="nonzero" fill-opacity="1" /><path clip-path="url(#clip900)" d="M1216.56 1517.37 Q1212.95 1517.37 1211.12 1520.93 Q1209.32 1524.47 1209.32 1531.6 Q1209.32 1538.71 1211.12 1542.27 Q1212.95 1545.82 1216.56 1545.82 Q1220.2 1545.82 1222 1542.27 Q1223.83 1538.71 1223.83 1531.6 Q1223.83 1524.47 1222 1520.93 Q1220.2 1517.37 1216.56 1517.37 M1216.56 1513.66 Q1222.37 1513.66 1225.43 1518.27 Q1228.51 1522.85 1228.51 1531.6 Q1228.51 1540.33 1225.43 1544.94 Q1222.37 1549.52 1216.56 1549.52 Q1210.75 1549.52 1207.68 1544.94 Q1204.62 1540.33 1204.62 1531.6 Q1204.62 1522.85 1207.68 1518.27 Q1210.75 1513.66 1216.56 1513.66 Z" fill="#000000" fill-rule="nonzero" fill-opacity="1" /><path clip-path="url(#clip900)" d="M1236.73 1542.97 L1241.61 1542.97 L1241.61 1548.85 L1236.73 1548.85 L1236.73 1542.97 Z" fill="#000000" fill-rule="nonzero" fill-opacity="1" /><path clip-path="url(#clip900)" d="M1251.84 1514.29 L1270.2 1514.29 L1270.2 1518.22 L1256.12 1518.22 L1256.12 1526.7 Q1257.14 1526.35 1258.16 1526.19 Q1259.18 1526 1260.2 1526 Q1265.98 1526 1269.36 1529.17 Q1272.74 1532.34 1272.74 1537.76 Q1272.74 1543.34 1269.27 1546.44 Q1265.8 1549.52 1259.48 1549.52 Q1257.3 1549.52 1255.04 1549.15 Q1252.79 1548.78 1250.38 1548.04 L1250.38 1543.34 Q1252.47 1544.47 1254.69 1545.03 Q1256.91 1545.58 1259.39 1545.58 Q1263.39 1545.58 1265.73 1543.48 Q1268.07 1541.37 1268.07 1537.76 Q1268.07 1534.15 1265.73 1532.04 Q1263.39 1529.94 1259.39 1529.94 Q1257.51 1529.94 1255.64 1530.35 Q1253.79 1530.77 1251.84 1531.65 L1251.84 1514.29 Z" fill="#000000" fill-rule="nonzero" fill-opacity="1" /><path clip-path="url(#clip900)" d="M1291.96 1517.37 Q1288.35 1517.37 1286.52 1520.93 Q1284.71 1524.47 1284.71 1531.6 Q1284.71 1538.71 1286.52 1542.27 Q1288.35 1545.82 1291.96 1545.82 Q1295.59 1545.82 1297.4 1542.27 Q1299.23 1538.71 1299.23 1531.6 Q1299.23 1524.47 1297.4 1520.93 Q1295.59 1517.37 1291.96 1517.37 M1291.96 1513.66 Q1297.77 1513.66 1300.82 1518.27 Q1303.9 1522.85 1303.9 1531.6 Q1303.9 1540.33 1300.82 1544.94 Q1297.77 1549.52 1291.96 1549.52 Q1286.15 1549.52 1283.07 1544.94 Q1280.01 1540.33 1280.01 1531.6 Q1280.01 1522.85 1283.07 1518.27 Q1286.15 1513.66 1291.96 1513.66 Z" fill="#000000" fill-rule="nonzero" fill-opacity="1" /><path clip-path="url(#clip900)" d="M1735.22 1517.37 Q1731.61 1517.37 1729.78 1520.93 Q1727.97 1524.47 1727.97 1531.6 Q1727.97 1538.71 1729.78 1542.27 Q1731.61 1545.82 1735.22 1545.82 Q1738.85 1545.82 1740.66 1542.27 Q1742.49 1538.71 1742.49 1531.6 Q1742.49 1524.47 1740.66 1520.93 Q1738.85 1517.37 1735.22 1517.37 M1735.22 1513.66 Q1741.03 1513.66 1744.09 1518.27 Q1747.16 1522.85 1747.16 1531.6 Q1747.16 1540.33 1744.09 1544.94 Q1741.03 1549.52 1735.22 1549.52 Q1729.41 1549.52 1726.33 1544.94 Q1723.28 1540.33 1723.28 1531.6 Q1723.28 1522.85 1726.33 1518.27 Q1729.41 1513.66 1735.22 1513.66 Z" fill="#000000" fill-rule="nonzero" fill-opacity="1" /><path clip-path="url(#clip900)" d="M1755.38 1542.97 L1760.27 1542.97 L1760.27 1548.85 L1755.38 1548.85 L1755.38 1542.97 Z" fill="#000000" fill-rule="nonzero" fill-opacity="1" /><path clip-path="url(#clip900)" d="M1769.27 1514.29 L1791.49 1514.29 L1791.49 1516.28 L1778.95 1548.85 L1774.06 1548.85 L1785.87 1518.22 L1769.27 1518.22 L1769.27 1514.29 Z" fill="#000000" fill-rule="nonzero" fill-opacity="1" /><path clip-path="url(#clip900)" d="M1800.66 1514.29 L1819.02 1514.29 L1819.02 1518.22 L1804.94 1518.22 L1804.94 1526.7 Q1805.96 1526.35 1806.98 1526.19 Q1808 1526 1809.02 1526 Q1814.8 1526 1818.18 1529.17 Q1821.56 1532.34 1821.56 1537.76 Q1821.56 1543.34 1818.09 1546.44 Q1814.62 1549.52 1808.3 1549.52 Q1806.12 1549.52 1803.85 1549.15 Q1801.61 1548.78 1799.2 1548.04 L1799.2 1543.34 Q1801.28 1544.47 1803.51 1545.03 Q1805.73 1545.58 1808.21 1545.58 Q1812.21 1545.58 1814.55 1543.48 Q1816.89 1541.37 1816.89 1537.76 Q1816.89 1534.15 1814.55 1532.04 Q1812.21 1529.94 1808.21 1529.94 Q1806.33 1529.94 1804.46 1530.35 Q1802.6 1530.77 1800.66 1531.65 L1800.66 1514.29 Z" fill="#000000" fill-rule="nonzero" fill-opacity="1" /><path clip-path="url(#clip900)" d="M2242.65 1544.91 L2250.29 1544.91 L2250.29 1518.55 L2241.98 1520.21 L2241.98 1515.95 L2250.24 1514.29 L2254.92 1514.29 L2254.92 1544.91 L2262.56 1544.91 L2262.56 1548.85 L2242.65 1548.85 L2242.65 1544.91 Z" fill="#000000" fill-rule="nonzero" fill-opacity="1" /><path clip-path="url(#clip900)" d="M2272 1542.97 L2276.88 1542.97 L2276.88 1548.85 L2272 1548.85 L2272 1542.97 Z" fill="#000000" fill-rule="nonzero" fill-opacity="1" /><path clip-path="url(#clip900)" d="M2297.07 1517.37 Q2293.46 1517.37 2291.63 1520.93 Q2289.82 1524.47 2289.82 1531.6 Q2289.82 1538.71 2291.63 1542.27 Q2293.46 1545.82 2297.07 1545.82 Q2300.7 1545.82 2302.51 1542.27 Q2304.34 1538.71 2304.34 1531.6 Q2304.34 1524.47 2302.51 1520.93 Q2300.7 1517.37 2297.07 1517.37 M2297.07 1513.66 Q2302.88 1513.66 2305.94 1518.27 Q2309.01 1522.85 2309.01 1531.6 Q2309.01 1540.33 2305.94 1544.94 Q2302.88 1549.52 2297.07 1549.52 Q2291.26 1549.52 2288.18 1544.94 Q2285.13 1540.33 2285.13 1531.6 Q2285.13 1522.85 2288.18 1518.27 Q2291.26 1513.66 2297.07 1513.66 Z" fill="#000000" fill-rule="nonzero" fill-opacity="1" /><path clip-path="url(#clip900)" d="M2327.23 1517.37 Q2323.62 1517.37 2321.79 1520.93 Q2319.99 1524.47 2319.99 1531.6 Q2319.99 1538.71 2321.79 1542.27 Q2323.62 1545.82 2327.23 1545.82 Q2330.87 1545.82 2332.67 1542.27 Q2334.5 1538.71 2334.5 1531.6 Q2334.5 1524.47 2332.67 1520.93 Q2330.87 1517.37 2327.23 1517.37 M2327.23 1513.66 Q2333.04 1513.66 2336.1 1518.27 Q2339.18 1522.85 2339.18 1531.6 Q2339.18 1540.33 2336.1 1544.94 Q2333.04 1549.52 2327.23 1549.52 Q2321.42 1549.52 2318.34 1544.94 Q2315.29 1540.33 2315.29 1531.6 Q2315.29 1522.85 2318.34 1518.27 Q2321.42 1513.66 2327.23 1513.66 Z" fill="#000000" fill-rule="nonzero" fill-opacity="1" /><polyline clip-path="url(#clip902)" style="stroke:#000000; stroke-linecap:round; stroke-linejoin:round; stroke-width:2; stroke-opacity:0.1; fill:none" points="155.765,1445.72 2352.76,1445.72 "/>
<polyline clip-path="url(#clip902)" style="stroke:#000000; stroke-linecap:round; stroke-linejoin:round; stroke-width:2; stroke-opacity:0.1; fill:none" points="155.765,1050.63 2352.76,1050.63 "/>
<polyline clip-path="url(#clip902)" style="stroke:#000000; stroke-linecap:round; stroke-linejoin:round; stroke-width:2; stroke-opacity:0.1; fill:none" points="155.765,655.543 2352.76,655.543 "/>
<polyline clip-path="url(#clip902)" style="stroke:#000000; stroke-linecap:round; stroke-linejoin:round; stroke-width:2; stroke-opacity:0.1; fill:none" points="155.765,260.457 2352.76,260.457 "/>
<polyline clip-path="url(#clip900)" style="stroke:#000000; stroke-linecap:round; stroke-linejoin:round; stroke-width:4; stroke-opacity:1; fill:none" points="155.765,1486.45 155.765,47.2441 "/>
<polyline clip-path="url(#clip900)" style="stroke:#000000; stroke-linecap:round; stroke-linejoin:round; stroke-width:4; stroke-opacity:1; fill:none" points="155.765,1445.72 174.663,1445.72 "/>
<polyline clip-path="url(#clip900)" style="stroke:#000000; stroke-linecap:round; stroke-linejoin:round; stroke-width:4; stroke-opacity:1; fill:none" points="155.765,1050.63 174.663,1050.63 "/>
<polyline clip-path="url(#clip900)" style="stroke:#000000; stroke-linecap:round; stroke-linejoin:round; stroke-width:4; stroke-opacity:1; fill:none" points="155.765,655.543 174.663,655.543 "/>
<polyline clip-path="url(#clip900)" style="stroke:#000000; stroke-linecap:round; stroke-linejoin:round; stroke-width:4; stroke-opacity:1; fill:none" points="155.765,260.457 174.663,260.457 "/>
<path clip-path="url(#clip900)" d="M53.3995 1459.06 L61.0384 1459.06 L61.0384 1432.69 L52.7282 1434.36 L52.7282 1430.1 L60.9921 1428.44 L65.668 1428.44 L65.668 1459.06 L73.3068 1459.06 L73.3068 1463 L53.3995 1463 L53.3995 1459.06 Z" fill="#000000" fill-rule="nonzero" fill-opacity="1" /><path clip-path="url(#clip900)" d="M82.7512 1457.12 L87.6354 1457.12 L87.6354 1463 L82.7512 1463 L82.7512 1457.12 Z" fill="#000000" fill-rule="nonzero" fill-opacity="1" /><path clip-path="url(#clip900)" d="M107.821 1431.51 Q104.209 1431.51 102.381 1435.08 Q100.575 1438.62 100.575 1445.75 Q100.575 1452.86 102.381 1456.42 Q104.209 1459.96 107.821 1459.96 Q111.455 1459.96 113.26 1456.42 Q115.089 1452.86 115.089 1445.75 Q115.089 1438.62 113.26 1435.08 Q111.455 1431.51 107.821 1431.51 M107.821 1427.81 Q113.631 1427.81 116.686 1432.42 Q119.765 1437 119.765 1445.75 Q119.765 1454.48 116.686 1459.08 Q113.631 1463.67 107.821 1463.67 Q102.01 1463.67 98.9317 1459.08 Q95.8761 1454.48 95.8761 1445.75 Q95.8761 1437 98.9317 1432.42 Q102.01 1427.81 107.821 1427.81 Z" fill="#000000" fill-rule="nonzero" fill-opacity="1" /><path clip-path="url(#clip900)" d="M54.3949 1063.97 L62.0337 1063.97 L62.0337 1037.61 L53.7236 1039.28 L53.7236 1035.02 L61.9874 1033.35 L66.6633 1033.35 L66.6633 1063.97 L74.3022 1063.97 L74.3022 1067.91 L54.3949 1067.91 L54.3949 1063.97 Z" fill="#000000" fill-rule="nonzero" fill-opacity="1" /><path clip-path="url(#clip900)" d="M83.7466 1062.03 L88.6308 1062.03 L88.6308 1067.91 L83.7466 1067.91 L83.7466 1062.03 Z" fill="#000000" fill-rule="nonzero" fill-opacity="1" /><path clip-path="url(#clip900)" d="M98.8622 1033.35 L117.219 1033.35 L117.219 1037.28 L103.145 1037.28 L103.145 1045.76 Q104.163 1045.41 105.182 1045.25 Q106.2 1045.06 107.219 1045.06 Q113.006 1045.06 116.385 1048.23 Q119.765 1051.4 119.765 1056.82 Q119.765 1062.4 116.293 1065.5 Q112.82 1068.58 106.501 1068.58 Q104.325 1068.58 102.057 1068.21 Q99.8113 1067.84 97.4039 1067.1 L97.4039 1062.4 Q99.4872 1063.53 101.709 1064.09 Q103.932 1064.65 106.408 1064.65 Q110.413 1064.65 112.751 1062.54 Q115.089 1060.43 115.089 1056.82 Q115.089 1053.21 112.751 1051.1 Q110.413 1049 106.408 1049 Q104.534 1049 102.659 1049.41 Q100.807 1049.83 98.8622 1050.71 L98.8622 1033.35 Z" fill="#000000" fill-rule="nonzero" fill-opacity="1" /><path clip-path="url(#clip900)" d="M56.6171 668.888 L72.9365 668.888 L72.9365 672.823 L50.9921 672.823 L50.9921 668.888 Q53.6541 666.133 58.2375 661.504 Q62.8439 656.851 64.0245 655.508 Q66.2698 652.985 67.1494 651.249 Q68.0522 649.49 68.0522 647.8 Q68.0522 645.045 66.1078 643.309 Q64.1865 641.573 61.0847 641.573 Q58.8856 641.573 56.4319 642.337 Q54.0014 643.101 51.2236 644.652 L51.2236 639.93 Q54.0477 638.795 56.5014 638.217 Q58.955 637.638 60.9921 637.638 Q66.3624 637.638 69.5568 640.323 Q72.7513 643.008 72.7513 647.499 Q72.7513 649.629 71.9411 651.55 Q71.1541 653.448 69.0476 656.041 Q68.4689 656.712 65.367 659.93 Q62.2652 663.124 56.6171 668.888 Z" fill="#000000" fill-rule="nonzero" fill-opacity="1" /><path clip-path="url(#clip900)" d="M82.7512 666.943 L87.6354 666.943 L87.6354 672.823 L82.7512 672.823 L82.7512 666.943 Z" fill="#000000" fill-rule="nonzero" fill-opacity="1" /><path clip-path="url(#clip900)" d="M107.821 641.342 Q104.209 641.342 102.381 644.906 Q100.575 648.448 100.575 655.578 Q100.575 662.684 102.381 666.249 Q104.209 669.791 107.821 669.791 Q111.455 669.791 113.26 666.249 Q115.089 662.684 115.089 655.578 Q115.089 648.448 113.26 644.906 Q111.455 641.342 107.821 641.342 M107.821 637.638 Q113.631 637.638 116.686 642.244 Q119.765 646.828 119.765 655.578 Q119.765 664.305 116.686 668.911 Q113.631 673.494 107.821 673.494 Q102.01 673.494 98.9317 668.911 Q95.8761 664.305 95.8761 655.578 Q95.8761 646.828 98.9317 642.244 Q102.01 637.638 107.821 637.638 Z" fill="#000000" fill-rule="nonzero" fill-opacity="1" /><path clip-path="url(#clip900)" d="M57.6125 273.801 L73.9318 273.801 L73.9318 277.737 L51.9875 277.737 L51.9875 273.801 Q54.6495 271.047 59.2328 266.417 Q63.8393 261.764 65.0198 260.422 Q67.2652 257.899 68.1448 256.163 Q69.0476 254.403 69.0476 252.714 Q69.0476 249.959 67.1032 248.223 Q65.1819 246.487 62.08 246.487 Q59.881 246.487 57.4273 247.251 Q54.9967 248.015 52.219 249.565 L52.219 244.843 Q55.043 243.709 57.4967 243.13 Q59.9504 242.552 61.9874 242.552 Q67.3578 242.552 70.5522 245.237 Q73.7466 247.922 73.7466 252.413 Q73.7466 254.542 72.9365 256.464 Q72.1494 258.362 70.0429 260.954 Q69.4642 261.626 66.3624 264.843 Q63.2606 268.038 57.6125 273.801 Z" fill="#000000" fill-rule="nonzero" fill-opacity="1" /><path clip-path="url(#clip900)" d="M83.7466 271.857 L88.6308 271.857 L88.6308 277.737 L83.7466 277.737 L83.7466 271.857 Z" fill="#000000" fill-rule="nonzero" fill-opacity="1" /><path clip-path="url(#clip900)" d="M98.8622 243.177 L117.219 243.177 L117.219 247.112 L103.145 247.112 L103.145 255.584 Q104.163 255.237 105.182 255.075 Q106.2 254.89 107.219 254.89 Q113.006 254.89 116.385 258.061 Q119.765 261.232 119.765 266.649 Q119.765 272.227 116.293 275.329 Q112.82 278.408 106.501 278.408 Q104.325 278.408 102.057 278.038 Q99.8113 277.667 97.4039 276.926 L97.4039 272.227 Q99.4872 273.362 101.709 273.917 Q103.932 274.473 106.408 274.473 Q110.413 274.473 112.751 272.366 Q115.089 270.26 115.089 266.649 Q115.089 263.038 112.751 260.931 Q110.413 258.825 106.408 258.825 Q104.534 258.825 102.659 259.241 Q100.807 259.658 98.8622 260.538 L98.8622 243.177 Z" fill="#000000" fill-rule="nonzero" fill-opacity="1" /><polyline clip-path="url(#clip902)" style="stroke:#009af9; stroke-linecap:round; stroke-linejoin:round; stroke-width:4; stroke-opacity:1; fill:none" points="217.944,1445.72 228.359,1441.73 238.774,1437.73 249.19,1433.71 259.605,1429.67 270.02,1425.61 280.435,1421.53 290.851,1417.43 301.266,1413.3 311.681,1409.16 322.096,1404.99 332.512,1400.81 342.927,1396.6 353.342,1392.37 363.757,1388.12 374.173,1383.85 384.588,1379.56 395.003,1375.25 405.418,1370.91 415.833,1366.55 426.249,1362.17 436.664,1357.77 447.079,1353.35 457.494,1348.9 467.91,1344.43 478.325,1339.94 488.74,1335.43 499.155,1330.89 509.571,1326.33 519.986,1321.75 530.401,1317.15 540.816,1312.52 551.232,1307.87 561.647,1303.19 572.062,1298.49 582.477,1293.77 592.893,1289.02 603.308,1284.25 613.723,1279.46 624.138,1274.64 634.554,1269.8 644.969,1264.93 655.384,1260.04 665.799,1255.12 676.215,1250.18 686.63,1245.22 697.045,1240.23 707.46,1235.21 717.875,1230.17 728.291,1225.1 738.706,1220.01 749.121,1214.89 759.536,1209.75 769.952,1204.58 780.367,1199.38 790.782,1194.16 801.197,1188.92 811.613,1183.64 822.028,1178.34 832.443,1173.01 842.858,1167.66 853.274,1162.28 863.689,1156.87 874.104,1151.43 884.519,1145.97 894.935,1140.48 905.35,1134.96 915.765,1129.41 926.18,1123.84 936.596,1118.24 947.011,1112.61 957.426,1106.95 967.841,1101.26 978.257,1095.54 988.672,1089.8 999.087,1084.03 1009.5,1078.22 1019.92,1072.39 1030.33,1066.53 1040.75,1060.64 1051.16,1054.72 1061.58,1048.77 1071.99,1042.79 1082.41,1036.78 1092.82,1030.74 1103.24,1024.66 1113.65,1018.56 1124.07,1012.43 1134.49,1006.27 1144.9,1000.07 1155.32,993.845 1165.73,987.588 1176.15,981.3 1186.56,974.979 1196.98,968.627 1207.39,962.243 1217.81,955.827 1228.22,949.378 1238.64,942.897 1249.05,936.383 1259.47,929.836 1269.88,923.257 1280.3,916.644 1290.71,909.998 1301.13,903.319 1311.54,896.605 1321.96,889.858 1332.37,883.077 1342.79,876.262 1353.21,869.413 1363.62,862.529 1374.04,855.61 1384.45,848.656 1394.87,841.668 1405.28,834.644 1415.7,827.585 1426.11,820.49 1436.53,813.36 1446.94,806.193 1457.36,798.991 1467.77,791.752 1478.19,784.477 1488.6,777.165 1499.02,769.816 1509.43,762.431 1519.85,755.008 1530.26,747.547 1540.68,740.049 1551.09,732.514 1561.51,724.94 1571.93,717.328 1582.34,709.678 1592.76,701.989 1603.17,694.262 1613.59,686.496 1624,678.69 1634.42,670.845 1644.83,662.961 1655.25,655.037 1665.66,647.073 1676.08,639.069 1686.49,631.024 1696.91,622.94 1707.32,614.814 1717.74,606.647 1728.15,598.44 1738.57,590.19 1748.98,581.9 1759.4,573.567 1769.81,565.193 1780.23,556.776 1790.65,548.317 1801.06,539.816 1811.48,531.271 1821.89,522.684 1832.31,514.053 1842.72,505.379 1853.14,496.661 1863.55,487.899 1873.97,479.093 1884.38,470.243 1894.8,461.348 1905.21,452.408 1915.63,443.423 1926.04,434.393 1936.46,425.318 1946.87,416.197 1957.29,407.029 1967.7,397.816 1978.12,388.556 1988.53,379.25 1998.95,369.897 2009.37,360.496 2019.78,351.048 2030.2,341.553 2040.61,332.01 2051.03,322.418 2061.44,312.779 2071.86,303.091 2082.27,293.354 2092.69,283.567 2103.1,273.732 2113.52,263.847 2123.93,253.913 2134.35,243.928 2144.76,233.893 2155.18,223.807 2165.59,213.671 2176.01,203.483 2186.42,193.244 2196.84,182.954 2207.25,172.612 2217.67,162.218 2228.09,151.771 2238.5,141.272 2248.92,130.719 2259.33,120.114 2269.75,109.455 2280.16,98.7427 2290.58,87.9763 "/>
<polyline clip-path="url(#clip902)" style="stroke:#e26f46; stroke-linecap:round; stroke-linejoin:round; stroke-width:4; stroke-opacity:1; fill:none" points="217.944,1445.72 228.359,1441.73 238.774,1437.73 249.19,1433.71 259.605,1429.67 270.02,1425.61 280.435,1421.53 290.851,1417.43 301.266,1413.3 311.681,1409.16 322.096,1404.99 332.512,1400.81 342.927,1396.6 353.342,1392.37 363.757,1388.12 374.173,1383.85 384.588,1379.56 395.003,1375.25 405.418,1370.91 415.833,1366.55 426.249,1362.17 436.664,1357.77 447.079,1353.35 457.494,1348.9 467.91,1344.43 478.325,1339.94 488.74,1335.43 499.155,1330.89 509.571,1326.33 519.986,1321.75 530.401,1317.15 540.816,1312.52 551.232,1307.87 561.647,1303.19 572.062,1298.49 582.477,1293.77 592.893,1289.02 603.308,1284.25 613.723,1279.46 624.138,1274.64 634.554,1269.8 644.969,1264.93 655.384,1260.04 665.799,1255.12 676.215,1250.18 686.63,1245.22 697.045,1240.23 707.46,1235.21 717.875,1230.17 728.291,1225.1 738.706,1220.01 749.121,1214.89 759.536,1209.75 769.952,1204.58 780.367,1199.38 790.782,1194.16 801.197,1188.92 811.613,1183.64 822.028,1178.34 832.443,1173.01 842.858,1167.66 853.274,1162.28 863.689,1156.87 874.104,1151.43 884.519,1145.97 894.935,1140.48 905.35,1134.96 915.765,1129.41 926.18,1123.84 936.596,1118.24 947.011,1112.61 957.426,1106.95 967.841,1101.26 978.257,1095.54 988.672,1089.8 999.087,1084.03 1009.5,1078.22 1019.92,1072.39 1030.33,1066.53 1040.75,1060.64 1051.16,1054.72 1061.58,1048.77 1071.99,1042.79 1082.41,1036.78 1092.82,1030.74 1103.24,1024.66 1113.65,1018.56 1124.07,1012.43 1134.49,1006.27 1144.9,1000.07 1155.32,993.845 1165.73,987.588 1176.15,981.3 1186.56,974.979 1196.98,968.627 1207.39,962.243 1217.81,955.827 1228.22,949.378 1238.64,942.897 1249.05,936.383 1259.47,929.836 1269.88,923.257 1280.3,916.644 1290.71,909.998 1301.13,903.319 1311.54,896.605 1321.96,889.858 1332.37,883.077 1342.79,876.262 1353.21,869.413 1363.62,862.529 1374.04,855.61 1384.45,848.656 1394.87,841.668 1405.28,834.644 1415.7,827.585 1426.11,820.49 1436.53,813.36 1446.94,806.193 1457.36,798.991 1467.77,791.752 1478.19,784.477 1488.6,777.165 1499.02,769.816 1509.43,762.431 1519.85,755.008 1530.26,747.547 1540.68,740.049 1551.09,732.514 1561.51,724.94 1571.93,717.328 1582.34,709.678 1592.76,701.989 1603.17,694.262 1613.59,686.496 1624,678.69 1634.42,670.845 1644.83,662.961 1655.25,655.037 1665.66,647.073 1676.08,639.069 1686.49,631.024 1696.91,622.94 1707.32,614.814 1717.74,606.647 1728.15,598.44 1738.57,590.19 1748.98,581.9 1759.4,573.567 1769.81,565.193 1780.23,556.776 1790.65,548.317 1801.06,539.816 1811.48,531.271 1821.89,522.684 1832.31,514.053 1842.72,505.379 1853.14,496.661 1863.55,487.899 1873.97,479.093 1884.38,470.243 1894.8,461.348 1905.21,452.408 1915.63,443.423 1926.04,434.393 1936.46,425.318 1946.87,416.197 1957.29,407.029 1967.7,397.816 1978.12,388.556 1988.53,379.25 1998.95,369.897 2009.37,360.496 2019.78,351.048 2030.2,341.553 2040.61,332.01 2051.03,322.418 2061.44,312.779 2071.86,303.091 2082.27,293.354 2092.69,283.567 2103.1,273.732 2113.52,263.847 2123.93,253.913 2134.35,243.928 2144.76,233.893 2155.18,223.807 2165.59,213.671 2176.01,203.483 2186.42,193.244 2196.84,182.954 2207.25,172.612 2217.67,162.218 2228.09,151.771 2238.5,141.272 2248.92,130.719 2259.33,120.114 2269.75,109.455 2280.16,98.7427 2290.58,87.9763 "/>
<path clip-path="url(#clip900)" d="M228.998 250.738 L720.617 250.738 L720.617 95.2176 L228.998 95.2176  Z" fill="#ffffff" fill-rule="evenodd" fill-opacity="1"/>
<polyline clip-path="url(#clip900)" style="stroke:#000000; stroke-linecap:round; stroke-linejoin:round; stroke-width:4; stroke-opacity:1; fill:none" points="228.998,250.738 720.617,250.738 720.617,95.2176 228.998,95.2176 228.998,250.738 "/>
<polyline clip-path="url(#clip900)" style="stroke:#009af9; stroke-linecap:round; stroke-linejoin:round; stroke-width:4; stroke-opacity:1; fill:none" points="253.409,147.058 399.875,147.058 "/>
<path clip-path="url(#clip900)" d="M424.286 129.778 L444.147 129.778 L444.147 133.713 L428.962 133.713 L428.962 143.898 L442.666 143.898 L442.666 147.833 L428.962 147.833 L428.962 164.338 L424.286 164.338 L424.286 129.778 Z" fill="#000000" fill-rule="nonzero" fill-opacity="1" /><path clip-path="url(#clip900)" d="M448.337 154.106 L448.337 138.412 L452.596 138.412 L452.596 153.944 Q452.596 157.625 454.031 159.476 Q455.466 161.305 458.337 161.305 Q461.786 161.305 463.777 159.106 Q465.79 156.907 465.79 153.111 L465.79 138.412 L470.05 138.412 L470.05 164.338 L465.79 164.338 L465.79 160.356 Q464.24 162.717 462.179 163.875 Q460.142 165.009 457.434 165.009 Q452.966 165.009 450.652 162.231 Q448.337 159.453 448.337 154.106 M459.054 137.787 L459.054 137.787 Z" fill="#000000" fill-rule="nonzero" fill-opacity="1" /><path clip-path="url(#clip900)" d="M500.374 148.689 L500.374 164.338 L496.114 164.338 L496.114 148.828 Q496.114 145.148 494.679 143.319 Q493.244 141.49 490.374 141.49 Q486.925 141.49 484.934 143.69 Q482.943 145.889 482.943 149.685 L482.943 164.338 L478.661 164.338 L478.661 138.412 L482.943 138.412 L482.943 142.44 Q484.471 140.102 486.531 138.944 Q488.614 137.787 491.323 137.787 Q495.79 137.787 498.082 140.565 Q500.374 143.319 500.374 148.689 Z" fill="#000000" fill-rule="nonzero" fill-opacity="1" /><path clip-path="url(#clip900)" d="M508.707 128.319 L512.989 128.319 L512.989 149.592 L525.698 138.412 L531.137 138.412 L517.387 150.541 L531.716 164.338 L526.16 164.338 L512.989 151.676 L512.989 164.338 L508.707 164.338 L508.707 128.319 Z" fill="#000000" fill-rule="nonzero" fill-opacity="1" /><path clip-path="url(#clip900)" d="M554.98 139.407 L554.98 143.389 Q553.174 142.393 551.346 141.907 Q549.54 141.398 547.688 141.398 Q543.545 141.398 541.253 144.037 Q538.961 146.652 538.961 151.398 Q538.961 156.143 541.253 158.782 Q543.545 161.398 547.688 161.398 Q549.54 161.398 551.346 160.912 Q553.174 160.402 554.98 159.407 L554.98 163.342 Q553.197 164.176 551.276 164.592 Q549.378 165.009 547.225 165.009 Q541.369 165.009 537.92 161.328 Q534.471 157.648 534.471 151.398 Q534.471 145.055 537.943 141.421 Q541.438 137.787 547.503 137.787 Q549.471 137.787 551.346 138.203 Q553.221 138.597 554.98 139.407 Z" fill="#000000" fill-rule="nonzero" fill-opacity="1" /><path clip-path="url(#clip900)" d="M562.387 138.412 L566.646 138.412 L566.646 164.801 Q566.646 169.754 564.748 171.976 Q562.873 174.199 558.683 174.199 L557.063 174.199 L557.063 170.588 L558.197 170.588 Q560.628 170.588 561.508 169.453 Q562.387 168.342 562.387 164.801 L562.387 138.412 M562.387 128.319 L566.646 128.319 L566.646 133.713 L562.387 133.713 L562.387 128.319 Z" fill="#000000" fill-rule="nonzero" fill-opacity="1" /><path clip-path="url(#clip900)" d="M587.341 151.305 Q582.179 151.305 580.188 152.486 Q578.197 153.666 578.197 156.514 Q578.197 158.782 579.679 160.125 Q581.183 161.444 583.753 161.444 Q587.294 161.444 589.424 158.944 Q591.577 156.421 591.577 152.254 L591.577 151.305 L587.341 151.305 M595.836 149.546 L595.836 164.338 L591.577 164.338 L591.577 160.402 Q590.118 162.763 587.943 163.898 Q585.767 165.009 582.619 165.009 Q578.637 165.009 576.276 162.787 Q573.938 160.541 573.938 156.791 Q573.938 152.416 576.855 150.194 Q579.794 147.972 585.605 147.972 L591.577 147.972 L591.577 147.555 Q591.577 144.615 589.632 143.018 Q587.711 141.398 584.216 141.398 Q581.994 141.398 579.887 141.93 Q577.781 142.463 575.836 143.527 L575.836 139.592 Q578.174 138.69 580.373 138.25 Q582.572 137.787 584.656 137.787 Q590.281 137.787 593.058 140.703 Q595.836 143.62 595.836 149.546 Z" fill="#000000" fill-rule="nonzero" fill-opacity="1" /><polyline clip-path="url(#clip900)" style="stroke:#e26f46; stroke-linecap:round; stroke-linejoin:round; stroke-width:4; stroke-opacity:1; fill:none" points="253.409,198.898 399.875,198.898 "/>
<path clip-path="url(#clip900)" d="M424.286 181.618 L428.962 181.618 L428.962 216.178 L424.286 216.178 L424.286 181.618 Z" fill="#000000" fill-rule="nonzero" fill-opacity="1" /><path clip-path="url(#clip900)" d="M459.633 200.529 L459.633 216.178 L455.374 216.178 L455.374 200.668 Q455.374 196.988 453.939 195.159 Q452.503 193.33 449.633 193.33 Q446.184 193.33 444.193 195.53 Q442.203 197.729 442.203 201.525 L442.203 216.178 L437.92 216.178 L437.92 190.252 L442.203 190.252 L442.203 194.28 Q443.73 191.942 445.791 190.784 Q447.874 189.627 450.582 189.627 Q455.05 189.627 457.341 192.405 Q459.633 195.159 459.633 200.529 Z" fill="#000000" fill-rule="nonzero" fill-opacity="1" /><path clip-path="url(#clip900)" d="M472.341 182.891 L472.341 190.252 L481.114 190.252 L481.114 193.562 L472.341 193.562 L472.341 207.636 Q472.341 210.807 473.198 211.71 Q474.077 212.613 476.739 212.613 L481.114 212.613 L481.114 216.178 L476.739 216.178 Q471.809 216.178 469.934 214.349 Q468.059 212.497 468.059 207.636 L468.059 193.562 L464.934 193.562 L464.934 190.252 L468.059 190.252 L468.059 182.891 L472.341 182.891 Z" fill="#000000" fill-rule="nonzero" fill-opacity="1" /><path clip-path="url(#clip900)" d="M508.892 202.15 L508.892 204.233 L489.309 204.233 Q489.587 208.631 491.948 210.946 Q494.332 213.238 498.568 213.238 Q501.022 213.238 503.313 212.636 Q505.628 212.034 507.897 210.83 L507.897 214.858 Q505.605 215.83 503.198 216.34 Q500.79 216.849 498.313 216.849 Q492.11 216.849 488.475 213.238 Q484.864 209.627 484.864 203.469 Q484.864 197.104 488.29 193.377 Q491.739 189.627 497.573 189.627 Q502.804 189.627 505.837 193.006 Q508.892 196.363 508.892 202.15 M504.633 200.9 Q504.587 197.405 502.665 195.321 Q500.767 193.238 497.619 193.238 Q494.054 193.238 491.901 195.252 Q489.772 197.266 489.448 200.923 L504.633 200.9 Z" fill="#000000" fill-rule="nonzero" fill-opacity="1" /><path clip-path="url(#clip900)" d="M530.906 194.233 Q530.188 193.817 529.332 193.631 Q528.498 193.423 527.48 193.423 Q523.869 193.423 521.924 195.784 Q520.003 198.122 520.003 202.52 L520.003 216.178 L515.721 216.178 L515.721 190.252 L520.003 190.252 L520.003 194.28 Q521.346 191.918 523.498 190.784 Q525.651 189.627 528.73 189.627 Q529.17 189.627 529.702 189.696 Q530.235 189.743 530.883 189.858 L530.906 194.233 Z" fill="#000000" fill-rule="nonzero" fill-opacity="1" /><path clip-path="url(#clip900)" d="M539.494 212.289 L539.494 226.039 L535.211 226.039 L535.211 190.252 L539.494 190.252 L539.494 194.187 Q540.836 191.872 542.873 190.761 Q544.934 189.627 547.781 189.627 Q552.503 189.627 555.443 193.377 Q558.406 197.127 558.406 203.238 Q558.406 209.349 555.443 213.099 Q552.503 216.849 547.781 216.849 Q544.934 216.849 542.873 215.738 Q540.836 214.603 539.494 212.289 M553.984 203.238 Q553.984 198.539 552.04 195.877 Q550.119 193.192 546.739 193.192 Q543.359 193.192 541.415 195.877 Q539.494 198.539 539.494 203.238 Q539.494 207.937 541.415 210.622 Q543.359 213.284 546.739 213.284 Q550.119 213.284 552.04 210.622 Q553.984 207.937 553.984 203.238 Z" fill="#000000" fill-rule="nonzero" fill-opacity="1" /><path clip-path="url(#clip900)" d="M575.512 193.238 Q572.086 193.238 570.095 195.923 Q568.105 198.585 568.105 203.238 Q568.105 207.891 570.072 210.576 Q572.063 213.238 575.512 213.238 Q578.915 213.238 580.906 210.553 Q582.896 207.867 582.896 203.238 Q582.896 198.631 580.906 195.946 Q578.915 193.238 575.512 193.238 M575.512 189.627 Q581.068 189.627 584.239 193.238 Q587.41 196.849 587.41 203.238 Q587.41 209.604 584.239 213.238 Q581.068 216.849 575.512 216.849 Q569.933 216.849 566.762 213.238 Q563.614 209.604 563.614 203.238 Q563.614 196.849 566.762 193.238 Q569.933 189.627 575.512 189.627 Z" fill="#000000" fill-rule="nonzero" fill-opacity="1" /><path clip-path="url(#clip900)" d="M594.47 180.159 L598.73 180.159 L598.73 216.178 L594.47 216.178 L594.47 180.159 Z" fill="#000000" fill-rule="nonzero" fill-opacity="1" /><path clip-path="url(#clip900)" d="M619.424 203.145 Q614.262 203.145 612.271 204.326 Q610.28 205.506 610.28 208.354 Q610.28 210.622 611.762 211.965 Q613.266 213.284 615.836 213.284 Q619.378 213.284 621.507 210.784 Q623.66 208.261 623.66 204.094 L623.66 203.145 L619.424 203.145 M627.919 201.386 L627.919 216.178 L623.66 216.178 L623.66 212.242 Q622.202 214.603 620.026 215.738 Q617.85 216.849 614.702 216.849 Q610.72 216.849 608.359 214.627 Q606.021 212.381 606.021 208.631 Q606.021 204.256 608.938 202.034 Q611.878 199.812 617.688 199.812 L623.66 199.812 L623.66 199.395 Q623.66 196.455 621.716 194.858 Q619.794 193.238 616.299 193.238 Q614.077 193.238 611.97 193.77 Q609.864 194.303 607.919 195.367 L607.919 191.432 Q610.257 190.53 612.456 190.09 Q614.655 189.627 616.739 189.627 Q622.364 189.627 625.141 192.543 Q627.919 195.46 627.919 201.386 Z" fill="#000000" fill-rule="nonzero" fill-opacity="1" /><path clip-path="url(#clip900)" d="M655.35 191.247 L655.35 195.229 Q653.544 194.233 651.715 193.747 Q649.91 193.238 648.058 193.238 Q643.914 193.238 641.623 195.877 Q639.331 198.492 639.331 203.238 Q639.331 207.983 641.623 210.622 Q643.914 213.238 648.058 213.238 Q649.91 213.238 651.715 212.752 Q653.544 212.242 655.35 211.247 L655.35 215.182 Q653.567 216.016 651.646 216.432 Q649.748 216.849 647.595 216.849 Q641.739 216.849 638.29 213.168 Q634.84 209.488 634.84 203.238 Q634.84 196.895 638.313 193.261 Q641.808 189.627 647.873 189.627 Q649.84 189.627 651.715 190.043 Q653.59 190.437 655.35 191.247 Z" fill="#000000" fill-rule="nonzero" fill-opacity="1" /><path clip-path="url(#clip900)" d="M662.757 190.252 L667.016 190.252 L667.016 216.641 Q667.016 221.594 665.118 223.816 Q663.243 226.039 659.053 226.039 L657.433 226.039 L657.433 222.428 L658.567 222.428 Q660.998 222.428 661.877 221.293 Q662.757 220.182 662.757 216.641 L662.757 190.252 M662.757 180.159 L667.016 180.159 L667.016 185.553 L662.757 185.553 L662.757 180.159 Z" fill="#000000" fill-rule="nonzero" fill-opacity="1" /><path clip-path="url(#clip900)" d="M687.711 203.145 Q682.549 203.145 680.558 204.326 Q678.567 205.506 678.567 208.354 Q678.567 210.622 680.049 211.965 Q681.553 213.284 684.123 213.284 Q687.664 213.284 689.794 210.784 Q691.947 208.261 691.947 204.094 L691.947 203.145 L687.711 203.145 M696.206 201.386 L696.206 216.178 L691.947 216.178 L691.947 212.242 Q690.488 214.603 688.312 215.738 Q686.136 216.849 682.988 216.849 Q679.007 216.849 676.646 214.627 Q674.308 212.381 674.308 208.631 Q674.308 204.256 677.224 202.034 Q680.164 199.812 685.974 199.812 L691.947 199.812 L691.947 199.395 Q691.947 196.455 690.002 194.858 Q688.081 193.238 684.586 193.238 Q682.363 193.238 680.257 193.77 Q678.15 194.303 676.206 195.367 L676.206 191.432 Q678.544 190.53 680.743 190.09 Q682.942 189.627 685.025 189.627 Q690.65 189.627 693.428 192.543 Q696.206 195.46 696.206 201.386 Z" fill="#000000" fill-rule="nonzero" fill-opacity="1" /></svg>
