<?xml version="1.0" encoding="utf-8"?>
<svg xmlns="http://www.w3.org/2000/svg" xmlns:xlink="http://www.w3.org/1999/xlink" width="600" height="400" viewBox="0 0 2400 1600">
<defs>
  <clipPath id="clip510">
    <rect x="0" y="0" width="2400" height="1600"/>
  </clipPath>
</defs>
<path clip-path="url(#clip510)" d="M0 1600 L2400 1600 L2400 0 L0 0  Z" fill="#ffffff" fill-rule="evenodd" fill-opacity="1"/>
<defs>
  <clipPath id="clip511">
    <rect x="480" y="0" width="1681" height="1600"/>
  </clipPath>
</defs>
<path clip-path="url(#clip510)" d="M194.098 1486.45 L2352.76 1486.45 L2352.76 47.2441 L194.098 47.2441  Z" fill="#ffffff" fill-rule="evenodd" fill-opacity="1"/>
<defs>
  <clipPath id="clip512">
    <rect x="194" y="47" width="2160" height="1440"/>
  </clipPath>
</defs>
<polyline clip-path="url(#clip512)" style="stroke:#000000; stroke-linecap:round; stroke-linejoin:round; stroke-width:2; stroke-opacity:0.1; fill:none" points="255.192,1486.45 255.192,47.2441 "/>
<polyline clip-path="url(#clip512)" style="stroke:#000000; stroke-linecap:round; stroke-linejoin:round; stroke-width:2; stroke-opacity:0.1; fill:none" points="764.31,1486.45 764.31,47.2441 "/>
<polyline clip-path="url(#clip512)" style="stroke:#000000; stroke-linecap:round; stroke-linejoin:round; stroke-width:2; stroke-opacity:0.1; fill:none" points="1273.43,1486.45 1273.43,47.2441 "/>
<polyline clip-path="url(#clip512)" style="stroke:#000000; stroke-linecap:round; stroke-linejoin:round; stroke-width:2; stroke-opacity:0.1; fill:none" points="1782.54,1486.45 1782.54,47.2441 "/>
<polyline clip-path="url(#clip512)" style="stroke:#000000; stroke-linecap:round; stroke-linejoin:round; stroke-width:2; stroke-opacity:0.1; fill:none" points="2291.66,1486.45 2291.66,47.2441 "/>
<polyline clip-path="url(#clip510)" style="stroke:#000000; stroke-linecap:round; stroke-linejoin:round; stroke-width:4; stroke-opacity:1; fill:none" points="194.098,1486.45 2352.76,1486.45 "/>
<polyline clip-path="url(#clip510)" style="stroke:#000000; stroke-linecap:round; stroke-linejoin:round; stroke-width:4; stroke-opacity:1; fill:none" points="255.192,1486.45 255.192,1467.55 "/>
<polyline clip-path="url(#clip510)" style="stroke:#000000; stroke-linecap:round; stroke-linejoin:round; stroke-width:4; stroke-opacity:1; fill:none" points="764.31,1486.45 764.31,1467.55 "/>
<polyline clip-path="url(#clip510)" style="stroke:#000000; stroke-linecap:round; stroke-linejoin:round; stroke-width:4; stroke-opacity:1; fill:none" points="1273.43,1486.45 1273.43,1467.55 "/>
<polyline clip-path="url(#clip510)" style="stroke:#000000; stroke-linecap:round; stroke-linejoin:round; stroke-width:4; stroke-opacity:1; fill:none" points="1782.54,1486.45 1782.54,1467.55 "/>
<polyline clip-path="url(#clip510)" style="stroke:#000000; stroke-linecap:round; stroke-linejoin:round; stroke-width:4; stroke-opacity:1; fill:none" points="2291.66,1486.45 2291.66,1467.55 "/>
<path clip-path="url(#clip510)" d="M201.72 1532.02 L231.396 1532.02 L231.396 1535.95 L201.72 1535.95 L201.72 1532.02 Z" fill="#000000" fill-rule="nonzero" fill-opacity="1" /><path clip-path="url(#clip510)" d="M242.299 1544.91 L249.938 1544.91 L249.938 1518.55 L241.627 1520.21 L241.627 1515.95 L249.891 1514.29 L254.567 1514.29 L254.567 1544.91 L262.206 1544.91 L262.206 1548.85 L242.299 1548.85 L242.299 1544.91 Z" fill="#000000" fill-rule="nonzero" fill-opacity="1" /><path clip-path="url(#clip510)" d="M271.65 1542.97 L276.535 1542.97 L276.535 1548.85 L271.65 1548.85 L271.65 1542.97 Z" fill="#000000" fill-rule="nonzero" fill-opacity="1" /><path clip-path="url(#clip510)" d="M296.72 1517.37 Q293.109 1517.37 291.28 1520.93 Q289.474 1524.47 289.474 1531.6 Q289.474 1538.71 291.28 1542.27 Q293.109 1545.82 296.72 1545.82 Q300.354 1545.82 302.159 1542.27 Q303.988 1538.71 303.988 1531.6 Q303.988 1524.47 302.159 1520.93 Q300.354 1517.37 296.72 1517.37 M296.72 1513.66 Q302.53 1513.66 305.585 1518.27 Q308.664 1522.85 308.664 1531.6 Q308.664 1540.33 305.585 1544.94 Q302.53 1549.52 296.72 1549.52 Q290.91 1549.52 287.831 1544.94 Q284.775 1540.33 284.775 1531.6 Q284.775 1522.85 287.831 1518.27 Q290.91 1513.66 296.72 1513.66 Z" fill="#000000" fill-rule="nonzero" fill-opacity="1" /><path clip-path="url(#clip510)" d="M711.335 1532.02 L741.011 1532.02 L741.011 1535.95 L711.335 1535.95 L711.335 1532.02 Z" fill="#000000" fill-rule="nonzero" fill-opacity="1" /><path clip-path="url(#clip510)" d="M761.104 1517.37 Q757.492 1517.37 755.664 1520.93 Q753.858 1524.47 753.858 1531.6 Q753.858 1538.71 755.664 1542.27 Q757.492 1545.82 761.104 1545.82 Q764.738 1545.82 766.543 1542.27 Q768.372 1538.71 768.372 1531.6 Q768.372 1524.47 766.543 1520.93 Q764.738 1517.37 761.104 1517.37 M761.104 1513.66 Q766.914 1513.66 769.969 1518.27 Q773.048 1522.85 773.048 1531.6 Q773.048 1540.33 769.969 1544.94 Q766.914 1549.52 761.104 1549.52 Q755.293 1549.52 752.215 1544.94 Q749.159 1540.33 749.159 1531.6 Q749.159 1522.85 752.215 1518.27 Q755.293 1513.66 761.104 1513.66 Z" fill="#000000" fill-rule="nonzero" fill-opacity="1" /><path clip-path="url(#clip510)" d="M781.265 1542.97 L786.15 1542.97 L786.15 1548.85 L781.265 1548.85 L781.265 1542.97 Z" fill="#000000" fill-rule="nonzero" fill-opacity="1" /><path clip-path="url(#clip510)" d="M796.381 1514.29 L814.738 1514.29 L814.738 1518.22 L800.664 1518.22 L800.664 1526.7 Q801.682 1526.35 802.701 1526.19 Q803.719 1526 804.738 1526 Q810.525 1526 813.904 1529.17 Q817.284 1532.34 817.284 1537.76 Q817.284 1543.34 813.812 1546.44 Q810.339 1549.52 804.02 1549.52 Q801.844 1549.52 799.576 1549.15 Q797.33 1548.78 794.923 1548.04 L794.923 1543.34 Q797.006 1544.47 799.228 1545.03 Q801.451 1545.58 803.927 1545.58 Q807.932 1545.58 810.27 1543.48 Q812.608 1541.37 812.608 1537.76 Q812.608 1534.15 810.27 1532.04 Q807.932 1529.94 803.927 1529.94 Q802.052 1529.94 800.177 1530.35 Q798.326 1530.77 796.381 1531.65 L796.381 1514.29 Z" fill="#000000" fill-rule="nonzero" fill-opacity="1" /><path clip-path="url(#clip510)" d="M1250.81 1517.37 Q1247.2 1517.37 1245.37 1520.93 Q1243.57 1524.47 1243.57 1531.6 Q1243.57 1538.71 1245.37 1542.27 Q1247.2 1545.82 1250.81 1545.82 Q1254.45 1545.82 1256.25 1542.27 Q1258.08 1538.71 1258.08 1531.6 Q1258.08 1524.47 1256.25 1520.93 Q1254.45 1517.37 1250.81 1517.37 M1250.81 1513.66 Q1256.62 1513.66 1259.68 1518.27 Q1262.76 1522.85 1262.76 1531.6 Q1262.76 1540.33 1259.68 1544.94 Q1256.62 1549.52 1250.81 1549.52 Q1245 1549.52 1241.92 1544.94 Q1238.87 1540.33 1238.87 1531.6 Q1238.87 1522.85 1241.92 1518.27 Q1245 1513.66 1250.81 1513.66 Z" fill="#000000" fill-rule="nonzero" fill-opacity="1" /><path clip-path="url(#clip510)" d="M1270.97 1542.97 L1275.86 1542.97 L1275.86 1548.85 L1270.97 1548.85 L1270.97 1542.97 Z" fill="#000000" fill-rule="nonzero" fill-opacity="1" /><path clip-path="url(#clip510)" d="M1296.04 1517.37 Q1292.43 1517.37 1290.6 1520.93 Q1288.8 1524.47 1288.8 1531.6 Q1288.8 1538.71 1290.6 1542.27 Q1292.43 1545.82 1296.04 1545.82 Q1299.68 1545.82 1301.48 1542.27 Q1303.31 1538.71 1303.31 1531.6 Q1303.31 1524.47 1301.48 1520.93 Q1299.68 1517.37 1296.04 1517.37 M1296.04 1513.66 Q1301.85 1513.66 1304.91 1518.27 Q1307.99 1522.85 1307.99 1531.6 Q1307.99 1540.33 1304.91 1544.94 Q1301.85 1549.52 1296.04 1549.52 Q1290.23 1549.52 1287.15 1544.94 Q1284.1 1540.33 1284.1 1531.6 Q1284.1 1522.85 1287.15 1518.27 Q1290.23 1513.66 1296.04 1513.66 Z" fill="#000000" fill-rule="nonzero" fill-opacity="1" /><path clip-path="url(#clip510)" d="M1760.43 1517.37 Q1756.82 1517.37 1754.99 1520.93 Q1753.18 1524.47 1753.18 1531.6 Q1753.18 1538.71 1754.99 1542.27 Q1756.82 1545.82 1760.43 1545.82 Q1764.06 1545.82 1765.87 1542.27 Q1767.69 1538.71 1767.69 1531.6 Q1767.69 1524.47 1765.87 1520.93 Q1764.06 1517.37 1760.43 1517.37 M1760.43 1513.66 Q1766.24 1513.66 1769.29 1518.27 Q1772.37 1522.85 1772.37 1531.6 Q1772.37 1540.33 1769.29 1544.94 Q1766.24 1549.52 1760.43 1549.52 Q1754.62 1549.52 1751.54 1544.94 Q1748.48 1540.33 1748.48 1531.6 Q1748.48 1522.85 1751.54 1518.27 Q1754.62 1513.66 1760.43 1513.66 Z" fill="#000000" fill-rule="nonzero" fill-opacity="1" /><path clip-path="url(#clip510)" d="M1780.59 1542.97 L1785.47 1542.97 L1785.47 1548.85 L1780.59 1548.85 L1780.59 1542.97 Z" fill="#000000" fill-rule="nonzero" fill-opacity="1" /><path clip-path="url(#clip510)" d="M1795.7 1514.29 L1814.06 1514.29 L1814.06 1518.22 L1799.99 1518.22 L1799.99 1526.7 Q1801 1526.35 1802.02 1526.19 Q1803.04 1526 1804.06 1526 Q1809.85 1526 1813.23 1529.17 Q1816.61 1532.34 1816.61 1537.76 Q1816.61 1543.34 1813.13 1546.44 Q1809.66 1549.52 1803.34 1549.52 Q1801.17 1549.52 1798.9 1549.15 Q1796.65 1548.78 1794.25 1548.04 L1794.25 1543.34 Q1796.33 1544.47 1798.55 1545.03 Q1800.77 1545.58 1803.25 1545.58 Q1807.25 1545.58 1809.59 1543.48 Q1811.93 1541.37 1811.93 1537.76 Q1811.93 1534.15 1809.59 1532.04 Q1807.25 1529.94 1803.25 1529.94 Q1801.38 1529.94 1799.5 1530.35 Q1797.65 1530.77 1795.7 1531.65 L1795.7 1514.29 Z" fill="#000000" fill-rule="nonzero" fill-opacity="1" /><path clip-path="url(#clip510)" d="M2258.81 1544.91 L2266.45 1544.91 L2266.45 1518.55 L2258.14 1520.21 L2258.14 1515.95 L2266.41 1514.29 L2271.08 1514.29 L2271.08 1544.91 L2278.72 1544.91 L2278.72 1548.85 L2258.81 1548.85 L2258.81 1544.91 Z" fill="#000000" fill-rule="nonzero" fill-opacity="1" /><path clip-path="url(#clip510)" d="M2288.17 1542.97 L2293.05 1542.97 L2293.05 1548.85 L2288.17 1548.85 L2288.17 1542.97 Z" fill="#000000" fill-rule="nonzero" fill-opacity="1" /><path clip-path="url(#clip510)" d="M2313.24 1517.37 Q2309.62 1517.37 2307.8 1520.93 Q2305.99 1524.47 2305.99 1531.6 Q2305.99 1538.71 2307.8 1542.27 Q2309.62 1545.82 2313.24 1545.82 Q2316.87 1545.82 2318.68 1542.27 Q2320.5 1538.71 2320.5 1531.6 Q2320.5 1524.47 2318.68 1520.93 Q2316.87 1517.37 2313.24 1517.37 M2313.24 1513.66 Q2319.05 1513.66 2322.1 1518.27 Q2325.18 1522.85 2325.18 1531.6 Q2325.18 1540.33 2322.1 1544.94 Q2319.05 1549.52 2313.24 1549.52 Q2307.43 1549.52 2304.35 1544.94 Q2301.29 1540.33 2301.29 1531.6 Q2301.29 1522.85 2304.35 1518.27 Q2307.43 1513.66 2313.24 1513.66 Z" fill="#000000" fill-rule="nonzero" fill-opacity="1" /><polyline clip-path="url(#clip512)" style="stroke:#000000; stroke-linecap:round; stroke-linejoin:round; stroke-width:2; stroke-opacity:0.1; fill:none" points="194.098,1250.91 2352.76,1250.91 "/>
<polyline clip-path="url(#clip512)" style="stroke:#000000; stroke-linecap:round; stroke-linejoin:round; stroke-width:2; stroke-opacity:0.1; fill:none" points="194.098,1008.88 2352.76,1008.88 "/>
<polyline clip-path="url(#clip512)" style="stroke:#000000; stroke-linecap:round; stroke-linejoin:round; stroke-width:2; stroke-opacity:0.1; fill:none" points="194.098,766.846 2352.76,766.846 "/>
<polyline clip-path="url(#clip512)" style="stroke:#000000; stroke-linecap:round; stroke-linejoin:round; stroke-width:2; stroke-opacity:0.1; fill:none" points="194.098,524.816 2352.76,524.816 "/>
<polyline clip-path="url(#clip512)" style="stroke:#000000; stroke-linecap:round; stroke-linejoin:round; stroke-width:2; stroke-opacity:0.1; fill:none" points="194.098,282.787 2352.76,282.787 "/>
<polyline clip-path="url(#clip510)" style="stroke:#000000; stroke-linecap:round; stroke-linejoin:round; stroke-width:4; stroke-opacity:1; fill:none" points="194.098,1486.45 194.098,47.2441 "/>
<polyline clip-path="url(#clip510)" style="stroke:#000000; stroke-linecap:round; stroke-linejoin:round; stroke-width:4; stroke-opacity:1; fill:none" points="194.098,1250.91 212.996,1250.91 "/>
<polyline clip-path="url(#clip510)" style="stroke:#000000; stroke-linecap:round; stroke-linejoin:round; stroke-width:4; stroke-opacity:1; fill:none" points="194.098,1008.88 212.996,1008.88 "/>
<polyline clip-path="url(#clip510)" style="stroke:#000000; stroke-linecap:round; stroke-linejoin:round; stroke-width:4; stroke-opacity:1; fill:none" points="194.098,766.846 212.996,766.846 "/>
<polyline clip-path="url(#clip510)" style="stroke:#000000; stroke-linecap:round; stroke-linejoin:round; stroke-width:4; stroke-opacity:1; fill:none" points="194.098,524.816 212.996,524.816 "/>
<polyline clip-path="url(#clip510)" style="stroke:#000000; stroke-linecap:round; stroke-linejoin:round; stroke-width:4; stroke-opacity:1; fill:none" points="194.098,282.787 212.996,282.787 "/>
<path clip-path="url(#clip510)" d="M50.9921 1251.36 L80.6679 1251.36 L80.6679 1255.29 L50.9921 1255.29 L50.9921 1251.36 Z" fill="#000000" fill-rule="nonzero" fill-opacity="1" /><path clip-path="url(#clip510)" d="M100.76 1236.7 Q97.1493 1236.7 95.3206 1240.27 Q93.515 1243.81 93.515 1250.94 Q93.515 1258.05 95.3206 1261.61 Q97.1493 1265.15 100.76 1265.15 Q104.395 1265.15 106.2 1261.61 Q108.029 1258.05 108.029 1250.94 Q108.029 1243.81 106.2 1240.27 Q104.395 1236.7 100.76 1236.7 M100.76 1233 Q106.571 1233 109.626 1237.61 Q112.705 1242.19 112.705 1250.94 Q112.705 1259.67 109.626 1264.27 Q106.571 1268.86 100.76 1268.86 Q94.9502 1268.86 91.8715 1264.27 Q88.816 1259.67 88.816 1250.94 Q88.816 1242.19 91.8715 1237.61 Q94.9502 1233 100.76 1233 Z" fill="#000000" fill-rule="nonzero" fill-opacity="1" /><path clip-path="url(#clip510)" d="M120.922 1262.31 L125.807 1262.31 L125.807 1268.19 L120.922 1268.19 L120.922 1262.31 Z" fill="#000000" fill-rule="nonzero" fill-opacity="1" /><path clip-path="url(#clip510)" d="M146.57 1249.04 Q143.422 1249.04 141.57 1251.19 Q139.742 1253.35 139.742 1257.1 Q139.742 1260.82 141.57 1263 Q143.422 1265.15 146.57 1265.15 Q149.718 1265.15 151.547 1263 Q153.399 1260.82 153.399 1257.1 Q153.399 1253.35 151.547 1251.19 Q149.718 1249.04 146.57 1249.04 M155.853 1234.39 L155.853 1238.65 Q154.093 1237.82 152.288 1237.38 Q150.505 1236.94 148.746 1236.94 Q144.117 1236.94 141.663 1240.06 Q139.232 1243.19 138.885 1249.5 Q140.251 1247.49 142.311 1246.43 Q144.371 1245.34 146.848 1245.34 Q152.056 1245.34 155.066 1248.51 Q158.098 1251.66 158.098 1257.1 Q158.098 1262.42 154.95 1265.64 Q151.802 1268.86 146.57 1268.86 Q140.575 1268.86 137.404 1264.27 Q134.232 1259.67 134.232 1250.94 Q134.232 1242.75 138.121 1237.88 Q142.01 1233 148.561 1233 Q150.32 1233 152.103 1233.35 Q153.908 1233.69 155.853 1234.39 Z" fill="#000000" fill-rule="nonzero" fill-opacity="1" /><path clip-path="url(#clip510)" d="M51.8023 1009.33 L81.4781 1009.33 L81.4781 1013.26 L51.8023 1013.26 L51.8023 1009.33 Z" fill="#000000" fill-rule="nonzero" fill-opacity="1" /><path clip-path="url(#clip510)" d="M101.571 994.674 Q97.9595 994.674 96.1308 998.239 Q94.3252 1001.78 94.3252 1008.91 Q94.3252 1016.02 96.1308 1019.58 Q97.9595 1023.12 101.571 1023.12 Q105.205 1023.12 107.01 1019.58 Q108.839 1016.02 108.839 1008.91 Q108.839 1001.78 107.01 998.239 Q105.205 994.674 101.571 994.674 M101.571 990.971 Q107.381 990.971 110.436 995.577 Q113.515 1000.16 113.515 1008.91 Q113.515 1017.64 110.436 1022.24 Q107.381 1026.83 101.571 1026.83 Q95.7604 1026.83 92.6817 1022.24 Q89.6262 1017.64 89.6262 1008.91 Q89.6262 1000.16 92.6817 995.577 Q95.7604 990.971 101.571 990.971 Z" fill="#000000" fill-rule="nonzero" fill-opacity="1" /><path clip-path="url(#clip510)" d="M121.732 1020.28 L126.617 1020.28 L126.617 1026.16 L121.732 1026.16 L121.732 1020.28 Z" fill="#000000" fill-rule="nonzero" fill-opacity="1" /><path clip-path="url(#clip510)" d="M150.968 1007.52 Q154.325 1008.24 156.2 1010.51 Q158.098 1012.78 158.098 1016.11 Q158.098 1021.23 154.58 1024.03 Q151.061 1026.83 144.58 1026.83 Q142.404 1026.83 140.089 1026.39 Q137.797 1025.97 135.344 1025.11 L135.344 1020.6 Q137.288 1021.73 139.603 1022.31 Q141.918 1022.89 144.441 1022.89 Q148.839 1022.89 151.13 1021.16 Q153.445 1019.42 153.445 1016.11 Q153.445 1013.05 151.293 1011.34 Q149.163 1009.6 145.343 1009.6 L141.316 1009.6 L141.316 1005.76 L145.529 1005.76 Q148.978 1005.76 150.806 1004.4 Q152.635 1003.01 152.635 1000.42 Q152.635 997.753 150.737 996.341 Q148.862 994.906 145.343 994.906 Q143.422 994.906 141.223 995.322 Q139.024 995.739 136.385 996.619 L136.385 992.452 Q139.047 991.711 141.362 991.341 Q143.7 990.971 145.76 990.971 Q151.084 990.971 154.186 993.401 Q157.288 995.809 157.288 999.929 Q157.288 1002.8 155.644 1004.79 Q154.001 1006.76 150.968 1007.52 Z" fill="#000000" fill-rule="nonzero" fill-opacity="1" /><path clip-path="url(#clip510)" d="M100.922 752.645 Q97.3113 752.645 95.4826 756.209 Q93.6771 759.751 93.6771 766.881 Q93.6771 773.987 95.4826 777.552 Q97.3113 781.094 100.922 781.094 Q104.557 781.094 106.362 777.552 Q108.191 773.987 108.191 766.881 Q108.191 759.751 106.362 756.209 Q104.557 752.645 100.922 752.645 M100.922 748.941 Q106.733 748.941 109.788 753.547 Q112.867 758.131 112.867 766.881 Q112.867 775.608 109.788 780.214 Q106.733 784.797 100.922 784.797 Q95.1123 784.797 92.0336 780.214 Q88.978 775.608 88.978 766.881 Q88.978 758.131 92.0336 753.547 Q95.1123 748.941 100.922 748.941 Z" fill="#000000" fill-rule="nonzero" fill-opacity="1" /><path clip-path="url(#clip510)" d="M121.084 778.246 L125.969 778.246 L125.969 784.126 L121.084 784.126 L121.084 778.246 Z" fill="#000000" fill-rule="nonzero" fill-opacity="1" /><path clip-path="url(#clip510)" d="M146.154 752.645 Q142.543 752.645 140.714 756.209 Q138.908 759.751 138.908 766.881 Q138.908 773.987 140.714 777.552 Q142.543 781.094 146.154 781.094 Q149.788 781.094 151.593 777.552 Q153.422 773.987 153.422 766.881 Q153.422 759.751 151.593 756.209 Q149.788 752.645 146.154 752.645 M146.154 748.941 Q151.964 748.941 155.019 753.547 Q158.098 758.131 158.098 766.881 Q158.098 775.608 155.019 780.214 Q151.964 784.797 146.154 784.797 Q140.343 784.797 137.265 780.214 Q134.209 775.608 134.209 766.881 Q134.209 758.131 137.265 753.547 Q140.343 748.941 146.154 748.941 Z" fill="#000000" fill-rule="nonzero" fill-opacity="1" /><path clip-path="url(#clip510)" d="M101.571 510.615 Q97.9595 510.615 96.1308 514.18 Q94.3252 517.721 94.3252 524.851 Q94.3252 531.958 96.1308 535.522 Q97.9595 539.064 101.571 539.064 Q105.205 539.064 107.01 535.522 Q108.839 531.958 108.839 524.851 Q108.839 517.721 107.01 514.18 Q105.205 510.615 101.571 510.615 M101.571 506.911 Q107.381 506.911 110.436 511.518 Q113.515 516.101 113.515 524.851 Q113.515 533.578 110.436 538.184 Q107.381 542.768 101.571 542.768 Q95.7604 542.768 92.6817 538.184 Q89.6262 533.578 89.6262 524.851 Q89.6262 516.101 92.6817 511.518 Q95.7604 506.911 101.571 506.911 Z" fill="#000000" fill-rule="nonzero" fill-opacity="1" /><path clip-path="url(#clip510)" d="M121.732 536.217 L126.617 536.217 L126.617 542.096 L121.732 542.096 L121.732 536.217 Z" fill="#000000" fill-rule="nonzero" fill-opacity="1" /><path clip-path="url(#clip510)" d="M150.968 523.462 Q154.325 524.18 156.2 526.448 Q158.098 528.717 158.098 532.05 Q158.098 537.166 154.58 539.967 Q151.061 542.768 144.58 542.768 Q142.404 542.768 140.089 542.328 Q137.797 541.911 135.344 541.055 L135.344 536.541 Q137.288 537.675 139.603 538.254 Q141.918 538.832 144.441 538.832 Q148.839 538.832 151.13 537.096 Q153.445 535.36 153.445 532.05 Q153.445 528.995 151.293 527.282 Q149.163 525.546 145.343 525.546 L141.316 525.546 L141.316 521.703 L145.529 521.703 Q148.978 521.703 150.806 520.337 Q152.635 518.948 152.635 516.356 Q152.635 513.694 150.737 512.282 Q148.862 510.847 145.343 510.847 Q143.422 510.847 141.223 511.263 Q139.024 511.68 136.385 512.559 L136.385 508.393 Q139.047 507.652 141.362 507.282 Q143.7 506.911 145.76 506.911 Q151.084 506.911 154.186 509.342 Q157.288 511.749 157.288 515.87 Q157.288 518.74 155.644 520.731 Q154.001 522.698 150.968 523.462 Z" fill="#000000" fill-rule="nonzero" fill-opacity="1" /><path clip-path="url(#clip510)" d="M100.76 268.585 Q97.1493 268.585 95.3206 272.15 Q93.515 275.692 93.515 282.821 Q93.515 289.928 95.3206 293.493 Q97.1493 297.034 100.76 297.034 Q104.395 297.034 106.2 293.493 Q108.029 289.928 108.029 282.821 Q108.029 275.692 106.2 272.15 Q104.395 268.585 100.76 268.585 M100.76 264.882 Q106.571 264.882 109.626 269.488 Q112.705 274.071 112.705 282.821 Q112.705 291.548 109.626 296.155 Q106.571 300.738 100.76 300.738 Q94.9502 300.738 91.8715 296.155 Q88.816 291.548 88.816 282.821 Q88.816 274.071 91.8715 269.488 Q94.9502 264.882 100.76 264.882 Z" fill="#000000" fill-rule="nonzero" fill-opacity="1" /><path clip-path="url(#clip510)" d="M120.922 294.187 L125.807 294.187 L125.807 300.067 L120.922 300.067 L120.922 294.187 Z" fill="#000000" fill-rule="nonzero" fill-opacity="1" /><path clip-path="url(#clip510)" d="M146.57 280.923 Q143.422 280.923 141.57 283.076 Q139.742 285.229 139.742 288.979 Q139.742 292.706 141.57 294.882 Q143.422 297.034 146.57 297.034 Q149.718 297.034 151.547 294.882 Q153.399 292.706 153.399 288.979 Q153.399 285.229 151.547 283.076 Q149.718 280.923 146.57 280.923 M155.853 266.271 L155.853 270.53 Q154.093 269.697 152.288 269.257 Q150.505 268.817 148.746 268.817 Q144.117 268.817 141.663 271.942 Q139.232 275.067 138.885 281.386 Q140.251 279.372 142.311 278.308 Q144.371 277.22 146.848 277.22 Q152.056 277.22 155.066 280.391 Q158.098 283.539 158.098 288.979 Q158.098 294.303 154.95 297.52 Q151.802 300.738 146.57 300.738 Q140.575 300.738 137.404 296.155 Q134.232 291.548 134.232 282.821 Q134.232 274.627 138.121 269.766 Q142.01 264.882 148.561 264.882 Q150.32 264.882 152.103 265.229 Q153.908 265.576 155.853 266.271 Z" fill="#000000" fill-rule="nonzero" fill-opacity="1" /><polyline clip-path="url(#clip512)" style="stroke:#009af9; stroke-linecap:round; stroke-linejoin:round; stroke-width:4; stroke-opacity:1; fill:none" points="255.192,1445.72 265.426,1427.81 275.659,1410.15 285.893,1392.75 296.126,1375.59 306.36,1358.68 316.593,1342.02 326.827,1325.62 337.06,1309.48 347.294,1293.59 357.527,1277.96 367.761,1262.59 377.994,1247.47 388.228,1232.62 398.461,1218.03 408.695,1203.69 418.928,1189.62 429.162,1175.81 439.395,1162.26 449.629,1148.97 459.862,1135.95 470.096,1123.18 480.329,1110.68 490.563,1098.43 500.797,1086.45 511.03,1074.73 521.264,1063.26 531.497,1052.05 541.731,1041.1 551.964,1030.41 562.198,1019.97 572.431,1009.78 582.665,999.844 592.898,990.16 603.132,980.726 613.365,971.539 623.599,962.599 633.832,953.903 644.066,945.449 654.299,937.237 664.533,929.262 674.766,921.525 685,914.021 695.233,906.749 705.467,899.707 715.7,892.892 725.934,886.302 736.167,879.933 746.401,873.784 756.634,867.851 766.868,862.132 777.101,856.623 787.335,851.322 797.568,846.226 807.802,841.331 818.036,836.634 828.269,832.132 838.503,827.822 848.736,823.699 858.97,819.762 869.203,816.005 879.437,812.425 889.67,809.02 899.904,805.784 910.137,802.714 920.371,799.807 930.604,797.058 940.838,794.463 951.071,792.019 961.305,789.721 971.538,787.565 981.772,785.547 992.005,783.662 1002.24,781.908 1012.47,780.278 1022.71,778.769 1032.94,777.376 1043.17,776.095 1053.41,774.922 1063.64,773.852 1073.87,772.88 1084.11,772.002 1094.34,771.213 1104.57,770.508 1114.81,769.883 1125.04,769.334 1135.27,768.855 1145.51,768.441 1155.74,768.089 1165.98,767.792 1176.21,767.547 1186.44,767.348 1196.68,767.191 1206.91,767.071 1217.14,766.982 1227.38,766.921 1237.61,766.881 1247.84,766.859 1258.08,766.849 1268.31,766.846 1278.54,766.846 1288.78,766.843 1299.01,766.833 1309.24,766.811 1319.48,766.771 1329.71,766.71 1339.94,766.621 1350.18,766.501 1360.41,766.344 1370.65,766.145 1380.88,765.9 1391.11,765.603 1401.35,765.251 1411.58,764.837 1421.81,764.358 1432.05,763.808 1442.28,763.184 1452.51,762.479 1462.75,761.69 1472.98,760.812 1483.21,759.84 1493.45,758.77 1503.68,757.596 1513.91,756.316 1524.15,754.923 1534.38,753.414 1544.62,751.784 1554.85,750.03 1565.08,748.145 1575.32,746.127 1585.55,743.971 1595.78,741.673 1606.02,739.229 1616.25,736.634 1626.48,733.885 1636.72,730.978 1646.95,727.908 1657.18,724.672 1667.42,721.267 1677.65,717.687 1687.88,713.93 1698.12,709.993 1708.35,705.87 1718.58,701.56 1728.82,697.058 1739.05,692.361 1749.29,687.466 1759.52,682.369 1769.75,677.069 1779.99,671.56 1790.22,665.841 1800.45,659.908 1810.69,653.759 1820.92,647.39 1831.15,640.8 1841.39,633.985 1851.62,626.943 1861.85,619.671 1872.09,612.167 1882.32,604.43 1892.55,596.455 1902.79,588.243 1913.02,579.789 1923.26,571.093 1933.49,562.153 1943.72,552.966 1953.96,543.532 1964.19,533.848 1974.42,523.914 1984.66,513.727 1994.89,503.286 2005.12,492.591 2015.36,481.64 2025.59,470.432 2035.82,458.966 2046.06,447.241 2056.29,435.258 2066.52,423.014 2076.76,410.51 2086.99,397.744 2097.23,384.718 2107.46,371.431 2117.69,357.882 2127.93,344.071 2138.16,330 2148.39,315.667 2158.63,301.073 2168.86,286.219 2179.09,271.106 2189.33,255.733 2199.56,240.102 2209.79,224.213 2220.03,208.068 2230.26,191.668 2240.49,175.013 2250.73,158.105 2260.96,140.946 2271.19,123.537 2281.43,105.88 2291.66,87.9763 "/>
<polyline clip-path="url(#clip512)" style="stroke:#e26f46; stroke-linecap:round; stroke-linejoin:round; stroke-width:4; stroke-opacity:1; fill:none" points="255.192,1445.72 265.426,1427.81 275.659,1410.15 285.893,1392.75 296.126,1375.59 306.36,1358.68 316.593,1342.02 326.827,1325.62 337.06,1309.48 347.294,1293.59 357.527,1277.96 367.761,1262.59 377.994,1247.47 388.228,1232.62 398.461,1218.03 408.695,1203.69 418.928,1189.62 429.162,1175.81 439.395,1162.26 449.629,1148.97 459.862,1135.95 470.096,1123.18 480.329,1110.68 490.563,1098.43 500.797,1086.45 511.03,1074.73 521.264,1063.26 531.497,1052.05 541.731,1041.1 551.964,1030.41 562.198,1019.97 572.431,1009.78 582.665,999.844 592.898,990.16 603.132,980.726 613.365,971.539 623.599,962.599 633.832,953.903 644.066,945.449 654.299,937.237 664.533,929.262 674.766,921.525 685,914.021 695.233,906.749 705.467,899.707 715.7,892.892 725.934,886.302 736.167,879.933 746.401,873.784 756.634,867.851 766.868,862.132 777.101,856.623 787.335,851.322 797.568,846.226 807.802,841.331 818.036,836.634 828.269,832.132 838.503,827.822 848.736,823.699 858.97,819.762 869.203,816.005 879.437,812.425 889.67,809.02 899.904,805.784 910.137,802.714 920.371,799.807 930.604,797.058 940.838,794.463 951.071,792.019 961.305,789.721 971.538,787.565 981.772,785.547 992.005,783.662 1002.24,781.908 1012.47,780.278 1022.71,778.769 1032.94,777.376 1043.17,776.095 1053.41,774.922 1063.64,773.852 1073.87,772.88 1084.11,772.002 1094.34,771.213 1104.57,770.508 1114.81,769.883 1125.04,769.334 1135.27,768.855 1145.51,768.441 1155.74,768.089 1165.98,767.792 1176.21,767.547 1186.44,767.348 1196.68,767.191 1206.91,767.071 1217.14,766.982 1227.38,766.921 1237.61,766.881 1247.84,766.859 1258.08,766.849 1268.31,766.846 1278.54,766.846 1288.78,766.843 1299.01,766.833 1309.24,766.811 1319.48,766.771 1329.71,766.71 1339.94,766.621 1350.18,766.501 1360.41,766.344 1370.65,766.145 1380.88,765.9 1391.11,765.603 1401.35,765.251 1411.58,764.837 1421.81,764.358 1432.05,763.808 1442.28,763.184 1452.51,762.479 1462.75,761.69 1472.98,760.812 1483.21,759.84 1493.45,758.77 1503.68,757.596 1513.91,756.316 1524.15,754.923 1534.38,753.414 1544.62,751.784 1554.85,750.03 1565.08,748.145 1575.32,746.127 1585.55,743.971 1595.78,741.673 1606.02,739.229 1616.25,736.634 1626.48,733.885 1636.72,730.978 1646.95,727.908 1657.18,724.672 1667.42,721.267 1677.65,717.687 1687.88,713.93 1698.12,709.993 1708.35,705.87 1718.58,701.56 1728.82,697.058 1739.05,692.361 1749.29,687.466 1759.52,682.369 1769.75,677.069 1779.99,671.56 1790.22,665.841 1800.45,659.908 1810.69,653.759 1820.92,647.39 1831.15,640.8 1841.39,633.985 1851.62,626.943 1861.85,619.671 1872.09,612.167 1882.32,604.43 1892.55,596.455 1902.79,588.243 1913.02,579.789 1923.26,571.093 1933.49,562.153 1943.72,552.966 1953.96,543.532 1964.19,533.848 1974.42,523.914 1984.66,513.727 1994.89,503.286 2005.12,492.591 2015.36,481.64 2025.59,470.432 2035.82,458.966 2046.06,447.241 2056.29,435.258 2066.52,423.014 2076.76,410.51 2086.99,397.744 2097.23,384.718 2107.46,371.431 2117.69,357.882 2127.93,344.071 2138.16,330 2148.39,315.667 2158.63,301.073 2168.86,286.219 2179.09,271.106 2189.33,255.733 2199.56,240.102 2209.79,224.213 2220.03,208.068 2230.26,191.668 2240.49,175.013 2250.73,158.105 2260.96,140.946 2271.19,123.537 2281.43,105.88 2291.66,87.9763 "/>
<path clip-path="url(#clip510)" d="M266.053 250.738 L753.839 250.738 L753.839 95.2176 L266.053 95.2176  Z" fill="#ffffff" fill-rule="evenodd" fill-opacity="1"/>
<polyline clip-path="url(#clip510)" style="stroke:#000000; stroke-linecap:round; stroke-linejoin:round; stroke-width:4; stroke-opacity:1; fill:none" points="266.053,250.738 753.839,250.738 753.839,95.2176 266.053,95.2176 266.053,250.738 "/>
<polyline clip-path="url(#clip510)" style="stroke:#009af9; stroke-linecap:round; stroke-linejoin:round; stroke-width:4; stroke-opacity:1; fill:none" points="290.038,147.058 433.949,147.058 "/>
<path clip-path="url(#clip510)" d="M457.934 129.778 L477.795 129.778 L477.795 133.713 L462.61 133.713 L462.61 143.898 L476.314 143.898 L476.314 147.833 L462.61 147.833 L462.61 164.338 L457.934 164.338 L457.934 129.778 Z" fill="#000000" fill-rule="nonzero" fill-opacity="1" /><path clip-path="url(#clip510)" d="M481.985 154.106 L481.985 138.412 L486.244 138.412 L486.244 153.944 Q486.244 157.625 487.679 159.476 Q489.114 161.305 491.985 161.305 Q495.434 161.305 497.425 159.106 Q499.438 156.907 499.438 153.111 L499.438 138.412 L503.698 138.412 L503.698 164.338 L499.438 164.338 L499.438 160.356 Q497.887 162.717 495.827 163.875 Q493.79 165.009 491.082 165.009 Q486.614 165.009 484.3 162.231 Q481.985 159.453 481.985 154.106 M492.702 137.787 L492.702 137.787 Z" fill="#000000" fill-rule="nonzero" fill-opacity="1" /><path clip-path="url(#clip510)" d="M534.022 148.689 L534.022 164.338 L529.762 164.338 L529.762 148.828 Q529.762 145.148 528.327 143.319 Q526.892 141.49 524.022 141.49 Q520.573 141.49 518.582 143.69 Q516.591 145.889 516.591 149.685 L516.591 164.338 L512.309 164.338 L512.309 138.412 L516.591 138.412 L516.591 142.44 Q518.119 140.102 520.179 138.944 Q522.262 137.787 524.971 137.787 Q529.438 137.787 531.73 140.565 Q534.022 143.319 534.022 148.689 Z" fill="#000000" fill-rule="nonzero" fill-opacity="1" /><path clip-path="url(#clip510)" d="M542.355 128.319 L546.637 128.319 L546.637 149.592 L559.345 138.412 L564.785 138.412 L551.035 150.541 L565.364 164.338 L559.808 164.338 L546.637 151.676 L546.637 164.338 L542.355 164.338 L542.355 128.319 Z" fill="#000000" fill-rule="nonzero" fill-opacity="1" /><path clip-path="url(#clip510)" d="M588.628 139.407 L588.628 143.389 Q586.822 142.393 584.994 141.907 Q583.188 141.398 581.336 141.398 Q577.193 141.398 574.901 144.037 Q572.609 146.652 572.609 151.398 Q572.609 156.143 574.901 158.782 Q577.193 161.398 581.336 161.398 Q583.188 161.398 584.994 160.912 Q586.822 160.402 588.628 159.407 L588.628 163.342 Q586.845 164.176 584.924 164.592 Q583.026 165.009 580.873 165.009 Q575.017 165.009 571.568 161.328 Q568.119 157.648 568.119 151.398 Q568.119 145.055 571.591 141.421 Q575.086 137.787 581.151 137.787 Q583.119 137.787 584.994 138.203 Q586.868 138.597 588.628 139.407 Z" fill="#000000" fill-rule="nonzero" fill-opacity="1" /><path clip-path="url(#clip510)" d="M596.035 138.412 L600.294 138.412 L600.294 164.801 Q600.294 169.754 598.396 171.976 Q596.521 174.199 592.331 174.199 L590.711 174.199 L590.711 170.588 L591.845 170.588 Q594.276 170.588 595.155 169.453 Q596.035 168.342 596.035 164.801 L596.035 138.412 M596.035 128.319 L600.294 128.319 L600.294 133.713 L596.035 133.713 L596.035 128.319 Z" fill="#000000" fill-rule="nonzero" fill-opacity="1" /><path clip-path="url(#clip510)" d="M620.989 151.305 Q615.827 151.305 613.836 152.486 Q611.845 153.666 611.845 156.514 Q611.845 158.782 613.327 160.125 Q614.831 161.444 617.401 161.444 Q620.942 161.444 623.072 158.944 Q625.225 156.421 625.225 152.254 L625.225 151.305 L620.989 151.305 M629.484 149.546 L629.484 164.338 L625.225 164.338 L625.225 160.402 Q623.766 162.763 621.591 163.898 Q619.415 165.009 616.266 165.009 Q612.285 165.009 609.924 162.787 Q607.586 160.541 607.586 156.791 Q607.586 152.416 610.503 150.194 Q613.442 147.972 619.253 147.972 L625.225 147.972 L625.225 147.555 Q625.225 144.615 623.28 143.018 Q621.359 141.398 617.864 141.398 Q615.641 141.398 613.535 141.93 Q611.429 142.463 609.484 143.527 L609.484 139.592 Q611.822 138.69 614.021 138.25 Q616.22 137.787 618.304 137.787 Q623.928 137.787 626.706 140.703 Q629.484 143.62 629.484 149.546 Z" fill="#000000" fill-rule="nonzero" fill-opacity="1" /><polyline clip-path="url(#clip510)" style="stroke:#e26f46; stroke-linecap:round; stroke-linejoin:round; stroke-width:4; stroke-opacity:1; fill:none" points="290.038,198.898 433.949,198.898 "/>
<path clip-path="url(#clip510)" d="M457.934 181.618 L462.61 181.618 L462.61 216.178 L457.934 216.178 L457.934 181.618 Z" fill="#000000" fill-rule="nonzero" fill-opacity="1" /><path clip-path="url(#clip510)" d="M493.281 200.529 L493.281 216.178 L489.022 216.178 L489.022 200.668 Q489.022 196.988 487.587 195.159 Q486.151 193.33 483.281 193.33 Q479.832 193.33 477.841 195.53 Q475.851 197.729 475.851 201.525 L475.851 216.178 L471.568 216.178 L471.568 190.252 L475.851 190.252 L475.851 194.28 Q477.378 191.942 479.439 190.784 Q481.522 189.627 484.23 189.627 Q488.698 189.627 490.989 192.405 Q493.281 195.159 493.281 200.529 Z" fill="#000000" fill-rule="nonzero" fill-opacity="1" /><path clip-path="url(#clip510)" d="M505.989 182.891 L505.989 190.252 L514.762 190.252 L514.762 193.562 L505.989 193.562 L505.989 207.636 Q505.989 210.807 506.846 211.71 Q507.725 212.613 510.387 212.613 L514.762 212.613 L514.762 216.178 L510.387 216.178 Q505.457 216.178 503.582 214.349 Q501.707 212.497 501.707 207.636 L501.707 193.562 L498.582 193.562 L498.582 190.252 L501.707 190.252 L501.707 182.891 L505.989 182.891 Z" fill="#000000" fill-rule="nonzero" fill-opacity="1" /><path clip-path="url(#clip510)" d="M542.54 202.15 L542.54 204.233 L522.957 204.233 Q523.235 208.631 525.596 210.946 Q527.98 213.238 532.216 213.238 Q534.67 213.238 536.961 212.636 Q539.276 212.034 541.545 210.83 L541.545 214.858 Q539.253 215.83 536.846 216.34 Q534.438 216.849 531.961 216.849 Q525.758 216.849 522.123 213.238 Q518.512 209.627 518.512 203.469 Q518.512 197.104 521.938 193.377 Q525.387 189.627 531.221 189.627 Q536.452 189.627 539.484 193.006 Q542.54 196.363 542.54 202.15 M538.281 200.9 Q538.234 197.405 536.313 195.321 Q534.415 193.238 531.267 193.238 Q527.702 193.238 525.549 195.252 Q523.42 197.266 523.096 200.923 L538.281 200.9 Z" fill="#000000" fill-rule="nonzero" fill-opacity="1" /><path clip-path="url(#clip510)" d="M564.554 194.233 Q563.836 193.817 562.98 193.631 Q562.146 193.423 561.128 193.423 Q557.517 193.423 555.572 195.784 Q553.651 198.122 553.651 202.52 L553.651 216.178 L549.369 216.178 L549.369 190.252 L553.651 190.252 L553.651 194.28 Q554.994 191.918 557.146 190.784 Q559.299 189.627 562.378 189.627 Q562.818 189.627 563.35 189.696 Q563.883 189.743 564.531 189.858 L564.554 194.233 Z" fill="#000000" fill-rule="nonzero" fill-opacity="1" /><path clip-path="url(#clip510)" d="M573.142 212.289 L573.142 226.039 L568.859 226.039 L568.859 190.252 L573.142 190.252 L573.142 194.187 Q574.484 191.872 576.521 190.761 Q578.581 189.627 581.429 189.627 Q586.151 189.627 589.091 193.377 Q592.054 197.127 592.054 203.238 Q592.054 209.349 589.091 213.099 Q586.151 216.849 581.429 216.849 Q578.581 216.849 576.521 215.738 Q574.484 214.603 573.142 212.289 M587.632 203.238 Q587.632 198.539 585.688 195.877 Q583.767 193.192 580.387 193.192 Q577.007 193.192 575.063 195.877 Q573.142 198.539 573.142 203.238 Q573.142 207.937 575.063 210.622 Q577.007 213.284 580.387 213.284 Q583.767 213.284 585.688 210.622 Q587.632 207.937 587.632 203.238 Z" fill="#000000" fill-rule="nonzero" fill-opacity="1" /><path clip-path="url(#clip510)" d="M609.16 193.238 Q605.734 193.238 603.743 195.923 Q601.753 198.585 601.753 203.238 Q601.753 207.891 603.72 210.576 Q605.711 213.238 609.16 213.238 Q612.563 213.238 614.554 210.553 Q616.544 207.867 616.544 203.238 Q616.544 198.631 614.554 195.946 Q612.563 193.238 609.16 193.238 M609.16 189.627 Q614.716 189.627 617.887 193.238 Q621.058 196.849 621.058 203.238 Q621.058 209.604 617.887 213.238 Q614.716 216.849 609.16 216.849 Q603.581 216.849 600.41 213.238 Q597.262 209.604 597.262 203.238 Q597.262 196.849 600.41 193.238 Q603.581 189.627 609.16 189.627 Z" fill="#000000" fill-rule="nonzero" fill-opacity="1" /><path clip-path="url(#clip510)" d="M628.118 180.159 L632.378 180.159 L632.378 216.178 L628.118 216.178 L628.118 180.159 Z" fill="#000000" fill-rule="nonzero" fill-opacity="1" /><path clip-path="url(#clip510)" d="M653.072 203.145 Q647.91 203.145 645.919 204.326 Q643.928 205.506 643.928 208.354 Q643.928 210.622 645.41 211.965 Q646.914 213.284 649.484 213.284 Q653.026 213.284 655.155 210.784 Q657.308 208.261 657.308 204.094 L657.308 203.145 L653.072 203.145 M661.567 201.386 L661.567 216.178 L657.308 216.178 L657.308 212.242 Q655.85 214.603 653.674 215.738 Q651.498 216.849 648.35 216.849 Q644.368 216.849 642.007 214.627 Q639.669 212.381 639.669 208.631 Q639.669 204.256 642.586 202.034 Q645.526 199.812 651.336 199.812 L657.308 199.812 L657.308 199.395 Q657.308 196.455 655.363 194.858 Q653.442 193.238 649.947 193.238 Q647.725 193.238 645.618 193.77 Q643.512 194.303 641.567 195.367 L641.567 191.432 Q643.905 190.53 646.104 190.09 Q648.303 189.627 650.387 189.627 Q656.012 189.627 658.789 192.543 Q661.567 195.46 661.567 201.386 Z" fill="#000000" fill-rule="nonzero" fill-opacity="1" /><path clip-path="url(#clip510)" d="M688.998 191.247 L688.998 195.229 Q687.192 194.233 685.363 193.747 Q683.558 193.238 681.706 193.238 Q677.562 193.238 675.271 195.877 Q672.979 198.492 672.979 203.238 Q672.979 207.983 675.271 210.622 Q677.562 213.238 681.706 213.238 Q683.558 213.238 685.363 212.752 Q687.192 212.242 688.998 211.247 L688.998 215.182 Q687.215 216.016 685.294 216.432 Q683.396 216.849 681.243 216.849 Q675.387 216.849 671.937 213.168 Q668.488 209.488 668.488 203.238 Q668.488 196.895 671.961 193.261 Q675.456 189.627 681.521 189.627 Q683.488 189.627 685.363 190.043 Q687.238 190.437 688.998 191.247 Z" fill="#000000" fill-rule="nonzero" fill-opacity="1" /><path clip-path="url(#clip510)" d="M696.405 190.252 L700.664 190.252 L700.664 216.641 Q700.664 221.594 698.766 223.816 Q696.891 226.039 692.701 226.039 L691.081 226.039 L691.081 222.428 L692.215 222.428 Q694.646 222.428 695.525 221.293 Q696.405 220.182 696.405 216.641 L696.405 190.252 M696.405 180.159 L700.664 180.159 L700.664 185.553 L696.405 185.553 L696.405 180.159 Z" fill="#000000" fill-rule="nonzero" fill-opacity="1" /><path clip-path="url(#clip510)" d="M721.359 203.145 Q716.197 203.145 714.206 204.326 Q712.215 205.506 712.215 208.354 Q712.215 210.622 713.697 211.965 Q715.201 213.284 717.771 213.284 Q721.312 213.284 723.442 210.784 Q725.595 208.261 725.595 204.094 L725.595 203.145 L721.359 203.145 M729.854 201.386 L729.854 216.178 L725.595 216.178 L725.595 212.242 Q724.136 214.603 721.96 215.738 Q719.784 216.849 716.636 216.849 Q712.655 216.849 710.294 214.627 Q707.956 212.381 707.956 208.631 Q707.956 204.256 710.872 202.034 Q713.812 199.812 719.622 199.812 L725.595 199.812 L725.595 199.395 Q725.595 196.455 723.65 194.858 Q721.729 193.238 718.234 193.238 Q716.011 193.238 713.905 193.77 Q711.798 194.303 709.854 195.367 L709.854 191.432 Q712.192 190.53 714.391 190.09 Q716.59 189.627 718.673 189.627 Q724.298 189.627 727.076 192.543 Q729.854 195.46 729.854 201.386 Z" fill="#000000" fill-rule="nonzero" fill-opacity="1" /></svg>
